  0
SECTION
  2
HEADER
  9
$ANGBASE
  50
0.0
  9
$ANGDIR
  70
1
  9
$MEASUREMENT
  70
1
  0
ENDSEC
  0
SECTION
  2
TABLES
  0
TABLE
  2
LTYPE
  70
4
  0
LTYPE
  5
40F
  2
CONTINUOUS
  70
0
  3
Solid line
  72
65
  73
0
  40
0.0
  0
LTYPE
  5
410
  2
DASHDOT
 70
0
  3
Dash Dot ____ _ ____ _
 72
65
 73
4
 40
2.0
 49
1.25
 49
-0.25
 49
0.25
 49
-0.25
  0
LTYPE
  5
411
  2
DASHED
 70
0
  3
Dashed __ __ __ __ __
 72
65
 73
2
 40
0.75
 49
0.5
 49
-0.25
  0
LTYPE
  5
43B
  2
DOTTED
 70
0
  3
Dotted .  .  .  .
 72
65
 73
2
 40
0.2
 49
0.0
 49
-0.2
  0
ENDTAB
  0
TABLE
  2
STYLE
  70
4
  0
STYLE
  2
KICAD
  70
0
  40
0
  41
1
  42
1
  50
0
  71
0
  3
isocp.shx
  0
STYLE
  2
KICADB
  70
0
  40
0
  41
1
  42
1
  50
0
  71
0
  3
isocp.shx
  0
STYLE
  2
KICADI
  70
0
  40
0
  41
1
  42
1
  50
15
  71
0
  3
isocp.shx
  0
STYLE
  2
KICADBI
  70
0
  40
0
  41
1
  42
1
  50
15
  71
0
  3
isocp.shx
  0
ENDTAB
  0
TABLE
  2
LAYER
  70
1
  0
LAYER
  2
BLACK
  70
0
  62
7
  6
CONTINUOUS
  0
ENDTAB
  0
ENDSEC
  0
SECTION
  2
ENTITIES
0
LINE
8
BLACK
6
CONTINUOUS
10
134.8265370000000019
20
-87.7152239999999921
11
134.8914209999999798
21
-87.7585789999999974
0
LINE
8
BLACK
6
CONTINUOUS
10
134.8914209999999798
20
-87.7585789999999974
11
134.9347759999999994
21
-87.8234629999999896
0
LINE
8
BLACK
6
CONTINUOUS
10
134.9347759999999994
20
-87.8234629999999896
11
134.9499999999999886
21
-87.8999999999999915
0
LINE
8
BLACK
6
CONTINUOUS
10
134.9499999999999886
20
-87.8999999999999915
11
134.9499999999999886
21
-89.3999999999999915
0
LINE
8
BLACK
6
CONTINUOUS
10
134.9499999999999886
20
-89.3999999999999915
11
134.9347759999999994
21
-89.4765369999999933
0
LINE
8
BLACK
6
CONTINUOUS
10
134.9347759999999994
20
-89.4765369999999933
11
134.8914209999999798
21
-89.5414209999999997
0
LINE
8
BLACK
6
CONTINUOUS
10
134.8914209999999798
20
-89.5414209999999997
11
134.8265370000000019
21
-89.5847759999999909
0
LINE
8
BLACK
6
CONTINUOUS
10
134.8265370000000019
20
-89.5847759999999909
11
134.75
21
-89.5999999999999943
0
LINE
8
BLACK
6
CONTINUOUS
10
134.75
20
-89.5999999999999943
11
134.3499999999999943
21
-89.5999999999999943
0
LINE
8
BLACK
6
CONTINUOUS
10
134.3499999999999943
20
-89.5999999999999943
11
134.2734629999999925
21
-89.5847759999999909
0
LINE
8
BLACK
6
CONTINUOUS
10
134.2734629999999925
20
-89.5847759999999909
11
134.2085789999999861
21
-89.5414209999999997
0
LINE
8
BLACK
6
CONTINUOUS
10
134.2085789999999861
20
-89.5414209999999997
11
134.1652239999999949
21
-89.4765369999999933
0
LINE
8
BLACK
6
CONTINUOUS
10
134.1652239999999949
20
-89.4765369999999933
11
134.1500000000000057
21
-89.3999999999999915
0
LINE
8
BLACK
6
CONTINUOUS
10
134.1500000000000057
20
-89.3999999999999915
11
134.1500000000000057
21
-87.8999999999999915
0
LINE
8
BLACK
6
CONTINUOUS
10
134.1500000000000057
20
-87.8999999999999915
11
134.1652239999999949
21
-87.8234629999999896
0
LINE
8
BLACK
6
CONTINUOUS
10
134.1652239999999949
20
-87.8234629999999896
11
134.2085789999999861
21
-87.7585789999999974
0
LINE
8
BLACK
6
CONTINUOUS
10
134.2085789999999861
20
-87.7585789999999974
11
134.2734629999999925
21
-87.7152239999999921
0
LINE
8
BLACK
6
CONTINUOUS
10
134.2734629999999925
20
-87.7152239999999921
11
134.3499999999999943
21
-87.7000000000000028
0
LINE
8
BLACK
6
CONTINUOUS
10
134.3499999999999943
20
-87.7000000000000028
11
134.75
21
-87.7000000000000028
0
LINE
8
BLACK
6
CONTINUOUS
10
134.75
20
-87.7000000000000028
11
134.8265370000000019
21
-87.7152239999999921
0
LINE
8
BLACK
6
CONTINUOUS
10
136.7265370000000075
20
-87.7152239999999921
11
136.7914209999999855
21
-87.7585789999999974
0
LINE
8
BLACK
6
CONTINUOUS
10
136.7914209999999855
20
-87.7585789999999974
11
136.8347760000000051
21
-87.8234629999999896
0
LINE
8
BLACK
6
CONTINUOUS
10
136.8347760000000051
20
-87.8234629999999896
11
136.8499999999999943
21
-87.8999999999999915
0
LINE
8
BLACK
6
CONTINUOUS
10
136.8499999999999943
20
-87.8999999999999915
11
136.8499999999999943
21
-89.3999999999999915
0
LINE
8
BLACK
6
CONTINUOUS
10
136.8499999999999943
20
-89.3999999999999915
11
136.8347760000000051
21
-89.4765369999999933
0
LINE
8
BLACK
6
CONTINUOUS
10
136.8347760000000051
20
-89.4765369999999933
11
136.7914209999999855
21
-89.5414209999999997
0
LINE
8
BLACK
6
CONTINUOUS
10
136.7914209999999855
20
-89.5414209999999997
11
136.7265370000000075
21
-89.5847759999999909
0
LINE
8
BLACK
6
CONTINUOUS
10
136.7265370000000075
20
-89.5847759999999909
11
136.6500000000000057
21
-89.5999999999999943
0
LINE
8
BLACK
6
CONTINUOUS
10
136.6500000000000057
20
-89.5999999999999943
11
136.25
21
-89.5999999999999943
0
LINE
8
BLACK
6
CONTINUOUS
10
136.25
20
-89.5999999999999943
11
136.1734629999999981
21
-89.5847759999999909
0
LINE
8
BLACK
6
CONTINUOUS
10
136.1734629999999981
20
-89.5847759999999909
11
136.1085789999999918
21
-89.5414209999999997
0
LINE
8
BLACK
6
CONTINUOUS
10
136.1085789999999918
20
-89.5414209999999997
11
136.0652240000000006
21
-89.4765369999999933
0
LINE
8
BLACK
6
CONTINUOUS
10
136.0652240000000006
20
-89.4765369999999933
11
136.0499999999999829
21
-89.3999999999999915
0
LINE
8
BLACK
6
CONTINUOUS
10
136.0499999999999829
20
-89.3999999999999915
11
136.0499999999999829
21
-87.8999999999999915
0
LINE
8
BLACK
6
CONTINUOUS
10
136.0499999999999829
20
-87.8999999999999915
11
136.0652240000000006
21
-87.8234629999999896
0
LINE
8
BLACK
6
CONTINUOUS
10
136.0652240000000006
20
-87.8234629999999896
11
136.1085789999999918
21
-87.7585789999999974
0
LINE
8
BLACK
6
CONTINUOUS
10
136.1085789999999918
20
-87.7585789999999974
11
136.1734629999999981
21
-87.7152239999999921
0
LINE
8
BLACK
6
CONTINUOUS
10
136.1734629999999981
20
-87.7152239999999921
11
136.25
21
-87.7000000000000028
0
LINE
8
BLACK
6
CONTINUOUS
10
136.25
20
-87.7000000000000028
11
136.6500000000000057
21
-87.7000000000000028
0
LINE
8
BLACK
6
CONTINUOUS
10
136.6500000000000057
20
-87.7000000000000028
11
136.7265370000000075
21
-87.7152239999999921
0
LINE
8
BLACK
6
CONTINUOUS
10
138.6265369999999848
20
-87.7152239999999921
11
138.6914209999999912
21
-87.7585789999999974
0
LINE
8
BLACK
6
CONTINUOUS
10
138.6914209999999912
20
-87.7585789999999974
11
138.7347759999999823
21
-87.8234629999999896
0
LINE
8
BLACK
6
CONTINUOUS
10
138.7347759999999823
20
-87.8234629999999896
11
138.75
21
-87.8999999999999915
0
LINE
8
BLACK
6
CONTINUOUS
10
138.75
20
-87.8999999999999915
11
138.75
21
-89.3999999999999915
0
LINE
8
BLACK
6
CONTINUOUS
10
138.75
20
-89.3999999999999915
11
138.7347759999999823
21
-89.4765369999999933
0
LINE
8
BLACK
6
CONTINUOUS
10
138.7347759999999823
20
-89.4765369999999933
11
138.6914209999999912
21
-89.5414209999999997
0
LINE
8
BLACK
6
CONTINUOUS
10
138.6914209999999912
20
-89.5414209999999997
11
138.6265369999999848
21
-89.5847759999999909
0
LINE
8
BLACK
6
CONTINUOUS
10
138.6265369999999848
20
-89.5847759999999909
11
138.5499999999999829
21
-89.5999999999999943
0
LINE
8
BLACK
6
CONTINUOUS
10
138.5499999999999829
20
-89.5999999999999943
11
138.1500000000000057
21
-89.5999999999999943
0
LINE
8
BLACK
6
CONTINUOUS
10
138.1500000000000057
20
-89.5999999999999943
11
138.0734630000000038
21
-89.5847759999999909
0
LINE
8
BLACK
6
CONTINUOUS
10
138.0734630000000038
20
-89.5847759999999909
11
138.0085789999999974
21
-89.5414209999999997
0
LINE
8
BLACK
6
CONTINUOUS
10
138.0085789999999974
20
-89.5414209999999997
11
137.9652240000000063
21
-89.4765369999999933
0
LINE
8
BLACK
6
CONTINUOUS
10
137.9652240000000063
20
-89.4765369999999933
11
137.9499999999999886
21
-89.3999999999999915
0
LINE
8
BLACK
6
CONTINUOUS
10
137.9499999999999886
20
-89.3999999999999915
11
137.9499999999999886
21
-87.8999999999999915
0
LINE
8
BLACK
6
CONTINUOUS
10
137.9499999999999886
20
-87.8999999999999915
11
137.9652240000000063
21
-87.8234629999999896
0
LINE
8
BLACK
6
CONTINUOUS
10
137.9652240000000063
20
-87.8234629999999896
11
138.0085789999999974
21
-87.7585789999999974
0
LINE
8
BLACK
6
CONTINUOUS
10
138.0085789999999974
20
-87.7585789999999974
11
138.0734630000000038
21
-87.7152239999999921
0
LINE
8
BLACK
6
CONTINUOUS
10
138.0734630000000038
20
-87.7152239999999921
11
138.1500000000000057
21
-87.7000000000000028
0
LINE
8
BLACK
6
CONTINUOUS
10
138.1500000000000057
20
-87.7000000000000028
11
138.5499999999999829
21
-87.7000000000000028
0
LINE
8
BLACK
6
CONTINUOUS
10
138.5499999999999829
20
-87.7000000000000028
11
138.6265369999999848
21
-87.7152239999999921
0
LINE
8
BLACK
6
CONTINUOUS
10
140.5265369999999905
20
-87.7152239999999921
11
140.5914209999999969
21
-87.7585789999999974
0
LINE
8
BLACK
6
CONTINUOUS
10
140.5914209999999969
20
-87.7585789999999974
11
140.634775999999988
21
-87.8234629999999896
0
LINE
8
BLACK
6
CONTINUOUS
10
140.634775999999988
20
-87.8234629999999896
11
140.6500000000000057
21
-87.8999999999999915
0
LINE
8
BLACK
6
CONTINUOUS
10
140.6500000000000057
20
-87.8999999999999915
11
140.6500000000000057
21
-89.3999999999999915
0
LINE
8
BLACK
6
CONTINUOUS
10
140.6500000000000057
20
-89.3999999999999915
11
140.634775999999988
21
-89.4765369999999933
0
LINE
8
BLACK
6
CONTINUOUS
10
140.634775999999988
20
-89.4765369999999933
11
140.5914209999999969
21
-89.5414209999999997
0
LINE
8
BLACK
6
CONTINUOUS
10
140.5914209999999969
20
-89.5414209999999997
11
140.5265369999999905
21
-89.5847759999999909
0
LINE
8
BLACK
6
CONTINUOUS
10
140.5265369999999905
20
-89.5847759999999909
11
140.4499999999999886
21
-89.5999999999999943
0
LINE
8
BLACK
6
CONTINUOUS
10
140.4499999999999886
20
-89.5999999999999943
11
140.0499999999999829
21
-89.5999999999999943
0
LINE
8
BLACK
6
CONTINUOUS
10
140.0499999999999829
20
-89.5999999999999943
11
139.9734629999999811
21
-89.5847759999999909
0
LINE
8
BLACK
6
CONTINUOUS
10
139.9734629999999811
20
-89.5847759999999909
11
139.9085790000000031
21
-89.5414209999999997
0
LINE
8
BLACK
6
CONTINUOUS
10
139.9085790000000031
20
-89.5414209999999997
11
139.8652239999999836
21
-89.4765369999999933
0
LINE
8
BLACK
6
CONTINUOUS
10
139.8652239999999836
20
-89.4765369999999933
11
139.8499999999999943
21
-89.3999999999999915
0
LINE
8
BLACK
6
CONTINUOUS
10
139.8499999999999943
20
-89.3999999999999915
11
139.8499999999999943
21
-87.8999999999999915
0
LINE
8
BLACK
6
CONTINUOUS
10
139.8499999999999943
20
-87.8999999999999915
11
139.8652239999999836
21
-87.8234629999999896
0
LINE
8
BLACK
6
CONTINUOUS
10
139.8652239999999836
20
-87.8234629999999896
11
139.9085790000000031
21
-87.7585789999999974
0
LINE
8
BLACK
6
CONTINUOUS
10
139.9085790000000031
20
-87.7585789999999974
11
139.9734629999999811
21
-87.7152239999999921
0
LINE
8
BLACK
6
CONTINUOUS
10
139.9734629999999811
20
-87.7152239999999921
11
140.0499999999999829
21
-87.7000000000000028
0
LINE
8
BLACK
6
CONTINUOUS
10
140.0499999999999829
20
-87.7000000000000028
11
140.4499999999999886
21
-87.7000000000000028
0
LINE
8
BLACK
6
CONTINUOUS
10
140.4499999999999886
20
-87.7000000000000028
11
140.5265369999999905
21
-87.7152239999999921
0
LINE
8
BLACK
6
CONTINUOUS
10
142.7456709999999873
20
-86.5190300000000008
11
142.8267769999999928
21
-86.5732229999999987
0
LINE
8
BLACK
6
CONTINUOUS
10
142.8267769999999928
20
-86.5732229999999987
11
142.8809699999999907
21
-86.6543289999999899
0
LINE
8
BLACK
6
CONTINUOUS
10
142.8809699999999907
20
-86.6543289999999899
11
142.9000000000000057
21
-86.75
0
LINE
8
BLACK
6
CONTINUOUS
10
142.9000000000000057
20
-86.75
11
142.9000000000000057
21
-87.2749999999999915
0
LINE
8
BLACK
6
CONTINUOUS
10
142.9000000000000057
20
-87.2749999999999915
11
142.8809699999999907
21
-87.3706710000000015
0
LINE
8
BLACK
6
CONTINUOUS
10
142.8809699999999907
20
-87.3706710000000015
11
142.8267769999999928
21
-87.4517769999999928
0
LINE
8
BLACK
6
CONTINUOUS
10
142.8267769999999928
20
-87.4517769999999928
11
142.7456709999999873
21
-87.5059699999999907
0
LINE
8
BLACK
6
CONTINUOUS
10
142.7456709999999873
20
-87.5059699999999907
11
142.6500000000000057
21
-87.5249999999999915
0
LINE
8
BLACK
6
CONTINUOUS
10
142.6500000000000057
20
-87.5249999999999915
11
141.75
21
-87.5249999999999915
0
LINE
8
BLACK
6
CONTINUOUS
10
141.75
20
-87.5249999999999915
11
141.6543289999999899
21
-87.5059699999999907
0
LINE
8
BLACK
6
CONTINUOUS
10
141.6543289999999899
20
-87.5059699999999907
11
141.5732229999999845
21
-87.4517769999999928
0
LINE
8
BLACK
6
CONTINUOUS
10
141.5732229999999845
20
-87.4517769999999928
11
141.5190299999999866
21
-87.3706710000000015
0
LINE
8
BLACK
6
CONTINUOUS
10
141.5190299999999866
20
-87.3706710000000015
11
141.5
21
-87.2749999999999915
0
LINE
8
BLACK
6
CONTINUOUS
10
141.5
20
-87.2749999999999915
11
141.5
21
-86.75
0
LINE
8
BLACK
6
CONTINUOUS
10
141.5
20
-86.75
11
141.5190299999999866
21
-86.6543289999999899
0
LINE
8
BLACK
6
CONTINUOUS
10
141.5190299999999866
20
-86.6543289999999899
11
141.5732229999999845
21
-86.5732229999999987
0
LINE
8
BLACK
6
CONTINUOUS
10
141.5732229999999845
20
-86.5732229999999987
11
141.6543289999999899
21
-86.5190300000000008
0
LINE
8
BLACK
6
CONTINUOUS
10
141.6543289999999899
20
-86.5190300000000008
11
141.75
21
-86.5
0
LINE
8
BLACK
6
CONTINUOUS
10
141.75
20
-86.5
11
142.6500000000000057
21
-86.5
0
LINE
8
BLACK
6
CONTINUOUS
10
142.6500000000000057
20
-86.5
11
142.7456709999999873
21
-86.5190300000000008
0
LINE
8
BLACK
6
CONTINUOUS
10
135.7765369999999905
20
-84.7152239999999921
11
135.8414209999999969
21
-84.7585789999999974
0
LINE
8
BLACK
6
CONTINUOUS
10
135.8414209999999969
20
-84.7585789999999974
11
135.884775999999988
21
-84.8234629999999896
0
LINE
8
BLACK
6
CONTINUOUS
10
135.884775999999988
20
-84.8234629999999896
11
135.9000000000000057
21
-84.8999999999999915
0
LINE
8
BLACK
6
CONTINUOUS
10
135.9000000000000057
20
-84.8999999999999915
11
135.9000000000000057
21
-86.3999999999999915
0
LINE
8
BLACK
6
CONTINUOUS
10
135.9000000000000057
20
-86.3999999999999915
11
135.884775999999988
21
-86.4765369999999933
0
LINE
8
BLACK
6
CONTINUOUS
10
135.884775999999988
20
-86.4765369999999933
11
135.8414209999999969
21
-86.5414209999999997
0
LINE
8
BLACK
6
CONTINUOUS
10
135.8414209999999969
20
-86.5414209999999997
11
135.7765369999999905
21
-86.5847759999999909
0
LINE
8
BLACK
6
CONTINUOUS
10
135.7765369999999905
20
-86.5847759999999909
11
135.6999999999999886
21
-86.5999999999999943
0
LINE
8
BLACK
6
CONTINUOUS
10
135.6999999999999886
20
-86.5999999999999943
11
135.2999999999999829
21
-86.5999999999999943
0
LINE
8
BLACK
6
CONTINUOUS
10
135.2999999999999829
20
-86.5999999999999943
11
135.2234629999999811
21
-86.5847759999999909
0
LINE
8
BLACK
6
CONTINUOUS
10
135.2234629999999811
20
-86.5847759999999909
11
135.1585790000000031
21
-86.5414209999999997
0
LINE
8
BLACK
6
CONTINUOUS
10
135.1585790000000031
20
-86.5414209999999997
11
135.1152239999999836
21
-86.4765369999999933
0
LINE
8
BLACK
6
CONTINUOUS
10
135.1152239999999836
20
-86.4765369999999933
11
135.0999999999999943
21
-86.3999999999999915
0
LINE
8
BLACK
6
CONTINUOUS
10
135.0999999999999943
20
-86.3999999999999915
11
135.0999999999999943
21
-84.8999999999999915
0
LINE
8
BLACK
6
CONTINUOUS
10
135.0999999999999943
20
-84.8999999999999915
11
135.1152239999999836
21
-84.8234629999999896
0
LINE
8
BLACK
6
CONTINUOUS
10
135.1152239999999836
20
-84.8234629999999896
11
135.1585790000000031
21
-84.7585789999999974
0
LINE
8
BLACK
6
CONTINUOUS
10
135.1585790000000031
20
-84.7585789999999974
11
135.2234629999999811
21
-84.7152239999999921
0
LINE
8
BLACK
6
CONTINUOUS
10
135.2234629999999811
20
-84.7152239999999921
11
135.2999999999999829
21
-84.7000000000000028
0
LINE
8
BLACK
6
CONTINUOUS
10
135.2999999999999829
20
-84.7000000000000028
11
135.6999999999999886
21
-84.7000000000000028
0
LINE
8
BLACK
6
CONTINUOUS
10
135.6999999999999886
20
-84.7000000000000028
11
135.7765369999999905
21
-84.7152239999999921
0
LINE
8
BLACK
6
CONTINUOUS
10
139.5765370000000019
20
-84.7152239999999921
11
139.6414209999999798
21
-84.7585789999999974
0
LINE
8
BLACK
6
CONTINUOUS
10
139.6414209999999798
20
-84.7585789999999974
11
139.6847759999999994
21
-84.8234629999999896
0
LINE
8
BLACK
6
CONTINUOUS
10
139.6847759999999994
20
-84.8234629999999896
11
139.6999999999999886
21
-84.8999999999999915
0
LINE
8
BLACK
6
CONTINUOUS
10
139.6999999999999886
20
-84.8999999999999915
11
139.6999999999999886
21
-86.3999999999999915
0
LINE
8
BLACK
6
CONTINUOUS
10
139.6999999999999886
20
-86.3999999999999915
11
139.6847759999999994
21
-86.4765369999999933
0
LINE
8
BLACK
6
CONTINUOUS
10
139.6847759999999994
20
-86.4765369999999933
11
139.6414209999999798
21
-86.5414209999999997
0
LINE
8
BLACK
6
CONTINUOUS
10
139.6414209999999798
20
-86.5414209999999997
11
139.5765370000000019
21
-86.5847759999999909
0
LINE
8
BLACK
6
CONTINUOUS
10
139.5765370000000019
20
-86.5847759999999909
11
139.5
21
-86.5999999999999943
0
LINE
8
BLACK
6
CONTINUOUS
10
139.5
20
-86.5999999999999943
11
139.0999999999999943
21
-86.5999999999999943
0
LINE
8
BLACK
6
CONTINUOUS
10
139.0999999999999943
20
-86.5999999999999943
11
139.0234629999999925
21
-86.5847759999999909
0
LINE
8
BLACK
6
CONTINUOUS
10
139.0234629999999925
20
-86.5847759999999909
11
138.9585789999999861
21
-86.5414209999999997
0
LINE
8
BLACK
6
CONTINUOUS
10
138.9585789999999861
20
-86.5414209999999997
11
138.9152239999999949
21
-86.4765369999999933
0
LINE
8
BLACK
6
CONTINUOUS
10
138.9152239999999949
20
-86.4765369999999933
11
138.9000000000000057
21
-86.3999999999999915
0
LINE
8
BLACK
6
CONTINUOUS
10
138.9000000000000057
20
-86.3999999999999915
11
138.9000000000000057
21
-84.8999999999999915
0
LINE
8
BLACK
6
CONTINUOUS
10
138.9000000000000057
20
-84.8999999999999915
11
138.9152239999999949
21
-84.8234629999999896
0
LINE
8
BLACK
6
CONTINUOUS
10
138.9152239999999949
20
-84.8234629999999896
11
138.9585789999999861
21
-84.7585789999999974
0
LINE
8
BLACK
6
CONTINUOUS
10
138.9585789999999861
20
-84.7585789999999974
11
139.0234629999999925
21
-84.7152239999999921
0
LINE
8
BLACK
6
CONTINUOUS
10
139.0234629999999925
20
-84.7152239999999921
11
139.0999999999999943
21
-84.7000000000000028
0
LINE
8
BLACK
6
CONTINUOUS
10
139.0999999999999943
20
-84.7000000000000028
11
139.5
21
-84.7000000000000028
0
LINE
8
BLACK
6
CONTINUOUS
10
139.5
20
-84.7000000000000028
11
139.5765370000000019
21
-84.7152239999999921
0
LINE
8
BLACK
6
CONTINUOUS
10
149.4206709999999987
20
-85.6190299999999951
11
149.5017770000000041
21
-85.673222999999993
0
LINE
8
BLACK
6
CONTINUOUS
10
149.5017770000000041
20
-85.673222999999993
11
149.5559700000000021
21
-85.7543289999999985
0
LINE
8
BLACK
6
CONTINUOUS
10
149.5559700000000021
20
-85.7543289999999985
11
149.5749999999999886
21
-85.8499999999999943
0
LINE
8
BLACK
6
CONTINUOUS
10
149.5749999999999886
20
-85.8499999999999943
11
149.5749999999999886
21
-86.3499999999999943
0
LINE
8
BLACK
6
CONTINUOUS
10
149.5749999999999886
20
-86.3499999999999943
11
149.5559700000000021
21
-86.4456709999999902
0
LINE
8
BLACK
6
CONTINUOUS
10
149.5559700000000021
20
-86.4456709999999902
11
149.5017770000000041
21
-86.5267769999999956
0
LINE
8
BLACK
6
CONTINUOUS
10
149.5017770000000041
20
-86.5267769999999956
11
149.4206709999999987
21
-86.5809699999999935
0
LINE
8
BLACK
6
CONTINUOUS
10
149.4206709999999987
20
-86.5809699999999935
11
149.3249999999999886
21
-86.5999999999999943
0
LINE
8
BLACK
6
CONTINUOUS
10
149.3249999999999886
20
-86.5999999999999943
11
148.375
21
-86.5999999999999943
0
LINE
8
BLACK
6
CONTINUOUS
10
148.375
20
-86.5999999999999943
11
148.2793289999999899
21
-86.5809699999999935
0
LINE
8
BLACK
6
CONTINUOUS
10
148.2793289999999899
20
-86.5809699999999935
11
148.1982229999999845
21
-86.5267769999999956
0
LINE
8
BLACK
6
CONTINUOUS
10
148.1982229999999845
20
-86.5267769999999956
11
148.1440299999999866
21
-86.4456709999999902
0
LINE
8
BLACK
6
CONTINUOUS
10
148.1440299999999866
20
-86.4456709999999902
11
148.125
21
-86.3499999999999943
0
LINE
8
BLACK
6
CONTINUOUS
10
148.125
20
-86.3499999999999943
11
148.125
21
-85.8499999999999943
0
LINE
8
BLACK
6
CONTINUOUS
10
148.125
20
-85.8499999999999943
11
148.1440299999999866
21
-85.7543289999999985
0
LINE
8
BLACK
6
CONTINUOUS
10
148.1440299999999866
20
-85.7543289999999985
11
148.1982229999999845
21
-85.673222999999993
0
LINE
8
BLACK
6
CONTINUOUS
10
148.1982229999999845
20
-85.673222999999993
11
148.2793289999999899
21
-85.6190299999999951
0
LINE
8
BLACK
6
CONTINUOUS
10
148.2793289999999899
20
-85.6190299999999951
11
148.375
21
-85.5999999999999943
0
LINE
8
BLACK
6
CONTINUOUS
10
148.375
20
-85.5999999999999943
11
149.3249999999999886
21
-85.5999999999999943
0
LINE
8
BLACK
6
CONTINUOUS
10
149.3249999999999886
20
-85.5999999999999943
11
149.4206709999999987
21
-85.6190299999999951
0
LINE
8
BLACK
6
CONTINUOUS
10
142.7456709999999873
20
-84.6940299999999979
11
142.8267769999999928
21
-84.7482229999999959
0
LINE
8
BLACK
6
CONTINUOUS
10
142.8267769999999928
20
-84.7482229999999959
11
142.8809699999999907
21
-84.8293290000000013
0
LINE
8
BLACK
6
CONTINUOUS
10
142.8809699999999907
20
-84.8293290000000013
11
142.9000000000000057
21
-84.9249999999999972
0
LINE
8
BLACK
6
CONTINUOUS
10
142.9000000000000057
20
-84.9249999999999972
11
142.9000000000000057
21
-85.4500000000000028
0
LINE
8
BLACK
6
CONTINUOUS
10
142.9000000000000057
20
-85.4500000000000028
11
142.8809699999999907
21
-85.5456709999999987
0
LINE
8
BLACK
6
CONTINUOUS
10
142.8809699999999907
20
-85.5456709999999987
11
142.8267769999999928
21
-85.6267769999999899
0
LINE
8
BLACK
6
CONTINUOUS
10
142.8267769999999928
20
-85.6267769999999899
11
142.7456709999999873
21
-85.6809700000000021
0
LINE
8
BLACK
6
CONTINUOUS
10
142.7456709999999873
20
-85.6809700000000021
11
142.6500000000000057
21
-85.7000000000000028
0
LINE
8
BLACK
6
CONTINUOUS
10
142.6500000000000057
20
-85.7000000000000028
11
141.75
21
-85.7000000000000028
0
LINE
8
BLACK
6
CONTINUOUS
10
141.75
20
-85.7000000000000028
11
141.6543289999999899
21
-85.6809700000000021
0
LINE
8
BLACK
6
CONTINUOUS
10
141.6543289999999899
20
-85.6809700000000021
11
141.5732229999999845
21
-85.6267769999999899
0
LINE
8
BLACK
6
CONTINUOUS
10
141.5732229999999845
20
-85.6267769999999899
11
141.5190299999999866
21
-85.5456709999999987
0
LINE
8
BLACK
6
CONTINUOUS
10
141.5190299999999866
20
-85.5456709999999987
11
141.5
21
-85.4500000000000028
0
LINE
8
BLACK
6
CONTINUOUS
10
141.5
20
-85.4500000000000028
11
141.5
21
-84.9249999999999972
0
LINE
8
BLACK
6
CONTINUOUS
10
141.5
20
-84.9249999999999972
11
141.5190299999999866
21
-84.8293290000000013
0
LINE
8
BLACK
6
CONTINUOUS
10
141.5190299999999866
20
-84.8293290000000013
11
141.5732229999999845
21
-84.7482229999999959
0
LINE
8
BLACK
6
CONTINUOUS
10
141.5732229999999845
20
-84.7482229999999959
11
141.6543289999999899
21
-84.6940299999999979
0
LINE
8
BLACK
6
CONTINUOUS
10
141.6543289999999899
20
-84.6940299999999979
11
141.75
21
-84.6749999999999972
0
LINE
8
BLACK
6
CONTINUOUS
10
141.75
20
-84.6749999999999972
11
142.6500000000000057
21
-84.6749999999999972
0
LINE
8
BLACK
6
CONTINUOUS
10
142.6500000000000057
20
-84.6749999999999972
11
142.7456709999999873
21
-84.6940299999999979
0
LINE
8
BLACK
6
CONTINUOUS
10
149.4206709999999987
20
-83.7190299999999894
11
149.5017770000000041
21
-83.7732230000000015
0
LINE
8
BLACK
6
CONTINUOUS
10
149.5017770000000041
20
-83.7732230000000015
11
149.5559700000000021
21
-83.8543289999999928
0
LINE
8
BLACK
6
CONTINUOUS
10
149.5559700000000021
20
-83.8543289999999928
11
149.5749999999999886
21
-83.9500000000000028
0
LINE
8
BLACK
6
CONTINUOUS
10
149.5749999999999886
20
-83.9500000000000028
11
149.5749999999999886
21
-84.4500000000000028
0
LINE
8
BLACK
6
CONTINUOUS
10
149.5749999999999886
20
-84.4500000000000028
11
149.5559700000000021
21
-84.5456709999999987
0
LINE
8
BLACK
6
CONTINUOUS
10
149.5559700000000021
20
-84.5456709999999987
11
149.5017770000000041
21
-84.6267769999999899
0
LINE
8
BLACK
6
CONTINUOUS
10
149.5017770000000041
20
-84.6267769999999899
11
149.4206709999999987
21
-84.6809700000000021
0
LINE
8
BLACK
6
CONTINUOUS
10
149.4206709999999987
20
-84.6809700000000021
11
149.3249999999999886
21
-84.7000000000000028
0
LINE
8
BLACK
6
CONTINUOUS
10
149.3249999999999886
20
-84.7000000000000028
11
148.375
21
-84.7000000000000028
0
LINE
8
BLACK
6
CONTINUOUS
10
148.375
20
-84.7000000000000028
11
148.2793289999999899
21
-84.6809700000000021
0
LINE
8
BLACK
6
CONTINUOUS
10
148.2793289999999899
20
-84.6809700000000021
11
148.1982229999999845
21
-84.6267769999999899
0
LINE
8
BLACK
6
CONTINUOUS
10
148.1982229999999845
20
-84.6267769999999899
11
148.1440299999999866
21
-84.5456709999999987
0
LINE
8
BLACK
6
CONTINUOUS
10
148.1440299999999866
20
-84.5456709999999987
11
148.125
21
-84.4500000000000028
0
LINE
8
BLACK
6
CONTINUOUS
10
148.125
20
-84.4500000000000028
11
148.125
21
-83.9500000000000028
0
LINE
8
BLACK
6
CONTINUOUS
10
148.125
20
-83.9500000000000028
11
148.1440299999999866
21
-83.8543289999999928
0
LINE
8
BLACK
6
CONTINUOUS
10
148.1440299999999866
20
-83.8543289999999928
11
148.1982229999999845
21
-83.7732230000000015
0
LINE
8
BLACK
6
CONTINUOUS
10
148.1982229999999845
20
-83.7732230000000015
11
148.2793289999999899
21
-83.7190299999999894
0
LINE
8
BLACK
6
CONTINUOUS
10
148.2793289999999899
20
-83.7190299999999894
11
148.375
21
-83.7000000000000028
0
LINE
8
BLACK
6
CONTINUOUS
10
148.375
20
-83.7000000000000028
11
149.3249999999999886
21
-83.7000000000000028
0
LINE
8
BLACK
6
CONTINUOUS
10
149.3249999999999886
20
-83.7000000000000028
11
149.4206709999999987
21
-83.7190299999999894
0
LINE
8
BLACK
6
CONTINUOUS
10
145.4206709999999987
20
-82.3190299999999979
11
145.5017770000000041
21
-82.3732229999999959
0
LINE
8
BLACK
6
CONTINUOUS
10
145.5017770000000041
20
-82.3732229999999959
11
145.5559700000000021
21
-82.4543290000000013
0
LINE
8
BLACK
6
CONTINUOUS
10
145.5559700000000021
20
-82.4543290000000013
11
145.5749999999999886
21
-82.5499999999999972
0
LINE
8
BLACK
6
CONTINUOUS
10
145.5749999999999886
20
-82.5499999999999972
11
145.5749999999999886
21
-83.0499999999999972
0
LINE
8
BLACK
6
CONTINUOUS
10
145.5749999999999886
20
-83.0499999999999972
11
145.5559700000000021
21
-83.145670999999993
0
LINE
8
BLACK
6
CONTINUOUS
10
145.5559700000000021
20
-83.145670999999993
11
145.5017770000000041
21
-83.2267769999999985
0
LINE
8
BLACK
6
CONTINUOUS
10
145.5017770000000041
20
-83.2267769999999985
11
145.4206709999999987
21
-83.2809699999999964
0
LINE
8
BLACK
6
CONTINUOUS
10
145.4206709999999987
20
-83.2809699999999964
11
145.3249999999999886
21
-83.2999999999999972
0
LINE
8
BLACK
6
CONTINUOUS
10
145.3249999999999886
20
-83.2999999999999972
11
144.375
21
-83.2999999999999972
0
LINE
8
BLACK
6
CONTINUOUS
10
144.375
20
-83.2999999999999972
11
144.2793289999999899
21
-83.2809699999999964
0
LINE
8
BLACK
6
CONTINUOUS
10
144.2793289999999899
20
-83.2809699999999964
11
144.1982229999999845
21
-83.2267769999999985
0
LINE
8
BLACK
6
CONTINUOUS
10
144.1982229999999845
20
-83.2267769999999985
11
144.1440299999999866
21
-83.145670999999993
0
LINE
8
BLACK
6
CONTINUOUS
10
144.1440299999999866
20
-83.145670999999993
11
144.125
21
-83.0499999999999972
0
LINE
8
BLACK
6
CONTINUOUS
10
144.125
20
-83.0499999999999972
11
144.125
21
-82.5499999999999972
0
LINE
8
BLACK
6
CONTINUOUS
10
144.125
20
-82.5499999999999972
11
144.1440299999999866
21
-82.4543290000000013
0
LINE
8
BLACK
6
CONTINUOUS
10
144.1440299999999866
20
-82.4543290000000013
11
144.1982229999999845
21
-82.3732229999999959
0
LINE
8
BLACK
6
CONTINUOUS
10
144.1982229999999845
20
-82.3732229999999959
11
144.2793289999999899
21
-82.3190299999999979
0
LINE
8
BLACK
6
CONTINUOUS
10
144.2793289999999899
20
-82.3190299999999979
11
144.375
21
-82.2999999999999972
0
LINE
8
BLACK
6
CONTINUOUS
10
144.375
20
-82.2999999999999972
11
145.3249999999999886
21
-82.2999999999999972
0
LINE
8
BLACK
6
CONTINUOUS
10
145.3249999999999886
20
-82.2999999999999972
11
145.4206709999999987
21
-82.3190299999999979
0
LINE
8
BLACK
6
CONTINUOUS
10
138.5456709999999987
20
-82.1690299999999922
11
138.6267770000000041
21
-82.2232229999999902
0
LINE
8
BLACK
6
CONTINUOUS
10
138.6267770000000041
20
-82.2232229999999902
11
138.6809700000000021
21
-82.3043289999999956
0
LINE
8
BLACK
6
CONTINUOUS
10
138.6809700000000021
20
-82.3043289999999956
11
138.6999999999999886
21
-82.3999999999999915
0
LINE
8
BLACK
6
CONTINUOUS
10
138.6999999999999886
20
-82.3999999999999915
11
138.6999999999999886
21
-82.9249999999999972
0
LINE
8
BLACK
6
CONTINUOUS
10
138.6999999999999886
20
-82.9249999999999972
11
138.6809700000000021
21
-83.020670999999993
0
LINE
8
BLACK
6
CONTINUOUS
10
138.6809700000000021
20
-83.020670999999993
11
138.6267770000000041
21
-83.1017769999999985
0
LINE
8
BLACK
6
CONTINUOUS
10
138.6267770000000041
20
-83.1017769999999985
11
138.5456709999999987
21
-83.1559699999999964
0
LINE
8
BLACK
6
CONTINUOUS
10
138.5456709999999987
20
-83.1559699999999964
11
138.4499999999999886
21
-83.1749999999999972
0
LINE
8
BLACK
6
CONTINUOUS
10
138.4499999999999886
20
-83.1749999999999972
11
137.5499999999999829
21
-83.1749999999999972
0
LINE
8
BLACK
6
CONTINUOUS
10
137.5499999999999829
20
-83.1749999999999972
11
137.4543290000000013
21
-83.1559699999999964
0
LINE
8
BLACK
6
CONTINUOUS
10
137.4543290000000013
20
-83.1559699999999964
11
137.3732229999999959
21
-83.1017769999999985
0
LINE
8
BLACK
6
CONTINUOUS
10
137.3732229999999959
20
-83.1017769999999985
11
137.3190299999999979
21
-83.020670999999993
0
LINE
8
BLACK
6
CONTINUOUS
10
137.3190299999999979
20
-83.020670999999993
11
137.2999999999999829
21
-82.9249999999999972
0
LINE
8
BLACK
6
CONTINUOUS
10
137.2999999999999829
20
-82.9249999999999972
11
137.2999999999999829
21
-82.3999999999999915
0
LINE
8
BLACK
6
CONTINUOUS
10
137.2999999999999829
20
-82.3999999999999915
11
137.3190299999999979
21
-82.3043289999999956
0
LINE
8
BLACK
6
CONTINUOUS
10
137.3190299999999979
20
-82.3043289999999956
11
137.3732229999999959
21
-82.2232229999999902
0
LINE
8
BLACK
6
CONTINUOUS
10
137.3732229999999959
20
-82.2232229999999902
11
137.4543290000000013
21
-82.1690299999999922
0
LINE
8
BLACK
6
CONTINUOUS
10
137.4543290000000013
20
-82.1690299999999922
11
137.5499999999999829
21
-82.1499999999999915
0
LINE
8
BLACK
6
CONTINUOUS
10
137.5499999999999829
20
-82.1499999999999915
11
138.4499999999999886
21
-82.1499999999999915
0
LINE
8
BLACK
6
CONTINUOUS
10
138.4499999999999886
20
-82.1499999999999915
11
138.5456709999999987
21
-82.1690299999999922
0
LINE
8
BLACK
6
CONTINUOUS
10
142.0456709999999987
20
-82.1690299999999922
11
142.1267770000000041
21
-82.2232229999999902
0
LINE
8
BLACK
6
CONTINUOUS
10
142.1267770000000041
20
-82.2232229999999902
11
142.1809700000000021
21
-82.3043289999999956
0
LINE
8
BLACK
6
CONTINUOUS
10
142.1809700000000021
20
-82.3043289999999956
11
142.1999999999999886
21
-82.3999999999999915
0
LINE
8
BLACK
6
CONTINUOUS
10
142.1999999999999886
20
-82.3999999999999915
11
142.1999999999999886
21
-82.9249999999999972
0
LINE
8
BLACK
6
CONTINUOUS
10
142.1999999999999886
20
-82.9249999999999972
11
142.1809700000000021
21
-83.020670999999993
0
LINE
8
BLACK
6
CONTINUOUS
10
142.1809700000000021
20
-83.020670999999993
11
142.1267770000000041
21
-83.1017769999999985
0
LINE
8
BLACK
6
CONTINUOUS
10
142.1267770000000041
20
-83.1017769999999985
11
142.0456709999999987
21
-83.1559699999999964
0
LINE
8
BLACK
6
CONTINUOUS
10
142.0456709999999987
20
-83.1559699999999964
11
141.9499999999999886
21
-83.1749999999999972
0
LINE
8
BLACK
6
CONTINUOUS
10
141.9499999999999886
20
-83.1749999999999972
11
141.0499999999999829
21
-83.1749999999999972
0
LINE
8
BLACK
6
CONTINUOUS
10
141.0499999999999829
20
-83.1749999999999972
11
140.9543290000000013
21
-83.1559699999999964
0
LINE
8
BLACK
6
CONTINUOUS
10
140.9543290000000013
20
-83.1559699999999964
11
140.8732229999999959
21
-83.1017769999999985
0
LINE
8
BLACK
6
CONTINUOUS
10
140.8732229999999959
20
-83.1017769999999985
11
140.8190299999999979
21
-83.020670999999993
0
LINE
8
BLACK
6
CONTINUOUS
10
140.8190299999999979
20
-83.020670999999993
11
140.7999999999999829
21
-82.9249999999999972
0
LINE
8
BLACK
6
CONTINUOUS
10
140.7999999999999829
20
-82.9249999999999972
11
140.7999999999999829
21
-82.3999999999999915
0
LINE
8
BLACK
6
CONTINUOUS
10
140.7999999999999829
20
-82.3999999999999915
11
140.8190299999999979
21
-82.3043289999999956
0
LINE
8
BLACK
6
CONTINUOUS
10
140.8190299999999979
20
-82.3043289999999956
11
140.8732229999999959
21
-82.2232229999999902
0
LINE
8
BLACK
6
CONTINUOUS
10
140.8732229999999959
20
-82.2232229999999902
11
140.9543290000000013
21
-82.1690299999999922
0
LINE
8
BLACK
6
CONTINUOUS
10
140.9543290000000013
20
-82.1690299999999922
11
141.0499999999999829
21
-82.1499999999999915
0
LINE
8
BLACK
6
CONTINUOUS
10
141.0499999999999829
20
-82.1499999999999915
11
141.9499999999999886
21
-82.1499999999999915
0
LINE
8
BLACK
6
CONTINUOUS
10
141.9499999999999886
20
-82.1499999999999915
11
142.0456709999999987
21
-82.1690299999999922
0
LINE
8
BLACK
6
CONTINUOUS
10
135.0456709999999987
20
-82.0690299999999979
11
135.1267770000000041
21
-82.1232229999999959
0
LINE
8
BLACK
6
CONTINUOUS
10
135.1267770000000041
20
-82.1232229999999959
11
135.1809700000000021
21
-82.2043290000000013
0
LINE
8
BLACK
6
CONTINUOUS
10
135.1809700000000021
20
-82.2043290000000013
11
135.1999999999999886
21
-82.2999999999999972
0
LINE
8
BLACK
6
CONTINUOUS
10
135.1999999999999886
20
-82.2999999999999972
11
135.1999999999999886
21
-82.8250000000000028
0
LINE
8
BLACK
6
CONTINUOUS
10
135.1999999999999886
20
-82.8250000000000028
11
135.1809700000000021
21
-82.9206709999999987
0
LINE
8
BLACK
6
CONTINUOUS
10
135.1809700000000021
20
-82.9206709999999987
11
135.1267770000000041
21
-83.0017769999999899
0
LINE
8
BLACK
6
CONTINUOUS
10
135.1267770000000041
20
-83.0017769999999899
11
135.0456709999999987
21
-83.0559700000000021
0
LINE
8
BLACK
6
CONTINUOUS
10
135.0456709999999987
20
-83.0559700000000021
11
134.9499999999999886
21
-83.0750000000000028
0
LINE
8
BLACK
6
CONTINUOUS
10
134.9499999999999886
20
-83.0750000000000028
11
134.0499999999999829
21
-83.0750000000000028
0
LINE
8
BLACK
6
CONTINUOUS
10
134.0499999999999829
20
-83.0750000000000028
11
133.9543290000000013
21
-83.0559700000000021
0
LINE
8
BLACK
6
CONTINUOUS
10
133.9543290000000013
20
-83.0559700000000021
11
133.8732229999999959
21
-83.0017769999999899
0
LINE
8
BLACK
6
CONTINUOUS
10
133.8732229999999959
20
-83.0017769999999899
11
133.8190299999999979
21
-82.9206709999999987
0
LINE
8
BLACK
6
CONTINUOUS
10
133.8190299999999979
20
-82.9206709999999987
11
133.7999999999999829
21
-82.8250000000000028
0
LINE
8
BLACK
6
CONTINUOUS
10
133.7999999999999829
20
-82.8250000000000028
11
133.7999999999999829
21
-82.2999999999999972
0
LINE
8
BLACK
6
CONTINUOUS
10
133.7999999999999829
20
-82.2999999999999972
11
133.8190299999999979
21
-82.2043290000000013
0
LINE
8
BLACK
6
CONTINUOUS
10
133.8190299999999979
20
-82.2043290000000013
11
133.8732229999999959
21
-82.1232229999999959
0
LINE
8
BLACK
6
CONTINUOUS
10
133.8732229999999959
20
-82.1232229999999959
11
133.9543290000000013
21
-82.0690299999999979
0
LINE
8
BLACK
6
CONTINUOUS
10
133.9543290000000013
20
-82.0690299999999979
11
134.0499999999999829
21
-82.0499999999999972
0
LINE
8
BLACK
6
CONTINUOUS
10
134.0499999999999829
20
-82.0499999999999972
11
134.9499999999999886
21
-82.0499999999999972
0
LINE
8
BLACK
6
CONTINUOUS
10
134.9499999999999886
20
-82.0499999999999972
11
135.0456709999999987
21
-82.0690299999999979
0
LINE
8
BLACK
6
CONTINUOUS
10
149.395670999999993
20
-81.6190299999999951
11
149.4767769999999985
21
-81.673222999999993
0
LINE
8
BLACK
6
CONTINUOUS
10
149.4767769999999985
20
-81.673222999999993
11
149.5309699999999964
21
-81.7543289999999985
0
LINE
8
BLACK
6
CONTINUOUS
10
149.5309699999999964
20
-81.7543289999999985
11
149.5499999999999829
21
-81.8499999999999943
0
LINE
8
BLACK
6
CONTINUOUS
10
149.5499999999999829
20
-81.8499999999999943
11
149.5499999999999829
21
-82.375
0
LINE
8
BLACK
6
CONTINUOUS
10
149.5499999999999829
20
-82.375
11
149.5309699999999964
21
-82.4706709999999958
0
LINE
8
BLACK
6
CONTINUOUS
10
149.5309699999999964
20
-82.4706709999999958
11
149.4767769999999985
21
-82.5517770000000013
0
LINE
8
BLACK
6
CONTINUOUS
10
149.4767769999999985
20
-82.5517770000000013
11
149.395670999999993
21
-82.6059699999999992
0
LINE
8
BLACK
6
CONTINUOUS
10
149.395670999999993
20
-82.6059699999999992
11
149.2999999999999829
21
-82.625
0
LINE
8
BLACK
6
CONTINUOUS
10
149.2999999999999829
20
-82.625
11
148.4000000000000057
21
-82.625
0
LINE
8
BLACK
6
CONTINUOUS
10
148.4000000000000057
20
-82.625
11
148.3043289999999956
21
-82.6059699999999992
0
LINE
8
BLACK
6
CONTINUOUS
10
148.3043289999999956
20
-82.6059699999999992
11
148.2232229999999902
21
-82.5517770000000013
0
LINE
8
BLACK
6
CONTINUOUS
10
148.2232229999999902
20
-82.5517770000000013
11
148.1690299999999922
21
-82.4706709999999958
0
LINE
8
BLACK
6
CONTINUOUS
10
148.1690299999999922
20
-82.4706709999999958
11
148.1500000000000057
21
-82.375
0
LINE
8
BLACK
6
CONTINUOUS
10
148.1500000000000057
20
-82.375
11
148.1500000000000057
21
-81.8499999999999943
0
LINE
8
BLACK
6
CONTINUOUS
10
148.1500000000000057
20
-81.8499999999999943
11
148.1690299999999922
21
-81.7543289999999985
0
LINE
8
BLACK
6
CONTINUOUS
10
148.1690299999999922
20
-81.7543289999999985
11
148.2232229999999902
21
-81.673222999999993
0
LINE
8
BLACK
6
CONTINUOUS
10
148.2232229999999902
20
-81.673222999999993
11
148.3043289999999956
21
-81.6190299999999951
0
LINE
8
BLACK
6
CONTINUOUS
10
148.3043289999999956
20
-81.6190299999999951
11
148.4000000000000057
21
-81.5999999999999943
0
LINE
8
BLACK
6
CONTINUOUS
10
148.4000000000000057
20
-81.5999999999999943
11
149.2999999999999829
21
-81.5999999999999943
0
LINE
8
BLACK
6
CONTINUOUS
10
149.2999999999999829
20
-81.5999999999999943
11
149.395670999999993
21
-81.6190299999999951
0
LINE
8
BLACK
6
CONTINUOUS
10
145.4206709999999987
20
-80.4190299999999922
11
145.5017770000000041
21
-80.4732229999999902
0
LINE
8
BLACK
6
CONTINUOUS
10
145.5017770000000041
20
-80.4732229999999902
11
145.5559700000000021
21
-80.5543289999999956
0
LINE
8
BLACK
6
CONTINUOUS
10
145.5559700000000021
20
-80.5543289999999956
11
145.5749999999999886
21
-80.6499999999999915
0
LINE
8
BLACK
6
CONTINUOUS
10
145.5749999999999886
20
-80.6499999999999915
11
145.5749999999999886
21
-81.1499999999999915
0
LINE
8
BLACK
6
CONTINUOUS
10
145.5749999999999886
20
-81.1499999999999915
11
145.5559700000000021
21
-81.2456710000000015
0
LINE
8
BLACK
6
CONTINUOUS
10
145.5559700000000021
20
-81.2456710000000015
11
145.5017770000000041
21
-81.3267769999999928
0
LINE
8
BLACK
6
CONTINUOUS
10
145.5017770000000041
20
-81.3267769999999928
11
145.4206709999999987
21
-81.3809699999999907
0
LINE
8
BLACK
6
CONTINUOUS
10
145.4206709999999987
20
-81.3809699999999907
11
145.3249999999999886
21
-81.3999999999999915
0
LINE
8
BLACK
6
CONTINUOUS
10
145.3249999999999886
20
-81.3999999999999915
11
144.375
21
-81.3999999999999915
0
LINE
8
BLACK
6
CONTINUOUS
10
144.375
20
-81.3999999999999915
11
144.2793289999999899
21
-81.3809699999999907
0
LINE
8
BLACK
6
CONTINUOUS
10
144.2793289999999899
20
-81.3809699999999907
11
144.1982229999999845
21
-81.3267769999999928
0
LINE
8
BLACK
6
CONTINUOUS
10
144.1982229999999845
20
-81.3267769999999928
11
144.1440299999999866
21
-81.2456710000000015
0
LINE
8
BLACK
6
CONTINUOUS
10
144.1440299999999866
20
-81.2456710000000015
11
144.125
21
-81.1499999999999915
0
LINE
8
BLACK
6
CONTINUOUS
10
144.125
20
-81.1499999999999915
11
144.125
21
-80.6499999999999915
0
LINE
8
BLACK
6
CONTINUOUS
10
144.125
20
-80.6499999999999915
11
144.1440299999999866
21
-80.5543289999999956
0
LINE
8
BLACK
6
CONTINUOUS
10
144.1440299999999866
20
-80.5543289999999956
11
144.1982229999999845
21
-80.4732229999999902
0
LINE
8
BLACK
6
CONTINUOUS
10
144.1982229999999845
20
-80.4732229999999902
11
144.2793289999999899
21
-80.4190299999999922
0
LINE
8
BLACK
6
CONTINUOUS
10
144.2793289999999899
20
-80.4190299999999922
11
144.375
21
-80.3999999999999915
0
LINE
8
BLACK
6
CONTINUOUS
10
144.375
20
-80.3999999999999915
11
145.3249999999999886
21
-80.3999999999999915
0
LINE
8
BLACK
6
CONTINUOUS
10
145.3249999999999886
20
-80.3999999999999915
11
145.4206709999999987
21
-80.4190299999999922
0
LINE
8
BLACK
6
CONTINUOUS
10
138.5456709999999987
20
-80.3440299999999894
11
138.6267770000000041
21
-80.3982230000000015
0
LINE
8
BLACK
6
CONTINUOUS
10
138.6267770000000041
20
-80.3982230000000015
11
138.6809700000000021
21
-80.4793289999999928
0
LINE
8
BLACK
6
CONTINUOUS
10
138.6809700000000021
20
-80.4793289999999928
11
138.6999999999999886
21
-80.5750000000000028
0
LINE
8
BLACK
6
CONTINUOUS
10
138.6999999999999886
20
-80.5750000000000028
11
138.6999999999999886
21
-81.0999999999999943
0
LINE
8
BLACK
6
CONTINUOUS
10
138.6999999999999886
20
-81.0999999999999943
11
138.6809700000000021
21
-81.1956709999999902
0
LINE
8
BLACK
6
CONTINUOUS
10
138.6809700000000021
20
-81.1956709999999902
11
138.6267770000000041
21
-81.2767769999999956
0
LINE
8
BLACK
6
CONTINUOUS
10
138.6267770000000041
20
-81.2767769999999956
11
138.5456709999999987
21
-81.3309699999999935
0
LINE
8
BLACK
6
CONTINUOUS
10
138.5456709999999987
20
-81.3309699999999935
11
138.4499999999999886
21
-81.3499999999999943
0
LINE
8
BLACK
6
CONTINUOUS
10
138.4499999999999886
20
-81.3499999999999943
11
137.5499999999999829
21
-81.3499999999999943
0
LINE
8
BLACK
6
CONTINUOUS
10
137.5499999999999829
20
-81.3499999999999943
11
137.4543290000000013
21
-81.3309699999999935
0
LINE
8
BLACK
6
CONTINUOUS
10
137.4543290000000013
20
-81.3309699999999935
11
137.3732229999999959
21
-81.2767769999999956
0
LINE
8
BLACK
6
CONTINUOUS
10
137.3732229999999959
20
-81.2767769999999956
11
137.3190299999999979
21
-81.1956709999999902
0
LINE
8
BLACK
6
CONTINUOUS
10
137.3190299999999979
20
-81.1956709999999902
11
137.2999999999999829
21
-81.0999999999999943
0
LINE
8
BLACK
6
CONTINUOUS
10
137.2999999999999829
20
-81.0999999999999943
11
137.2999999999999829
21
-80.5750000000000028
0
LINE
8
BLACK
6
CONTINUOUS
10
137.2999999999999829
20
-80.5750000000000028
11
137.3190299999999979
21
-80.4793289999999928
0
LINE
8
BLACK
6
CONTINUOUS
10
137.3190299999999979
20
-80.4793289999999928
11
137.3732229999999959
21
-80.3982230000000015
0
LINE
8
BLACK
6
CONTINUOUS
10
137.3732229999999959
20
-80.3982230000000015
11
137.4543290000000013
21
-80.3440299999999894
0
LINE
8
BLACK
6
CONTINUOUS
10
137.4543290000000013
20
-80.3440299999999894
11
137.5499999999999829
21
-80.3250000000000028
0
LINE
8
BLACK
6
CONTINUOUS
10
137.5499999999999829
20
-80.3250000000000028
11
138.4499999999999886
21
-80.3250000000000028
0
LINE
8
BLACK
6
CONTINUOUS
10
138.4499999999999886
20
-80.3250000000000028
11
138.5456709999999987
21
-80.3440299999999894
0
LINE
8
BLACK
6
CONTINUOUS
10
142.0456709999999987
20
-80.3440299999999894
11
142.1267770000000041
21
-80.3982230000000015
0
LINE
8
BLACK
6
CONTINUOUS
10
142.1267770000000041
20
-80.3982230000000015
11
142.1809700000000021
21
-80.4793289999999928
0
LINE
8
BLACK
6
CONTINUOUS
10
142.1809700000000021
20
-80.4793289999999928
11
142.1999999999999886
21
-80.5750000000000028
0
LINE
8
BLACK
6
CONTINUOUS
10
142.1999999999999886
20
-80.5750000000000028
11
142.1999999999999886
21
-81.0999999999999943
0
LINE
8
BLACK
6
CONTINUOUS
10
142.1999999999999886
20
-81.0999999999999943
11
142.1809700000000021
21
-81.1956709999999902
0
LINE
8
BLACK
6
CONTINUOUS
10
142.1809700000000021
20
-81.1956709999999902
11
142.1267770000000041
21
-81.2767769999999956
0
LINE
8
BLACK
6
CONTINUOUS
10
142.1267770000000041
20
-81.2767769999999956
11
142.0456709999999987
21
-81.3309699999999935
0
LINE
8
BLACK
6
CONTINUOUS
10
142.0456709999999987
20
-81.3309699999999935
11
141.9499999999999886
21
-81.3499999999999943
0
LINE
8
BLACK
6
CONTINUOUS
10
141.9499999999999886
20
-81.3499999999999943
11
141.0499999999999829
21
-81.3499999999999943
0
LINE
8
BLACK
6
CONTINUOUS
10
141.0499999999999829
20
-81.3499999999999943
11
140.9543290000000013
21
-81.3309699999999935
0
LINE
8
BLACK
6
CONTINUOUS
10
140.9543290000000013
20
-81.3309699999999935
11
140.8732229999999959
21
-81.2767769999999956
0
LINE
8
BLACK
6
CONTINUOUS
10
140.8732229999999959
20
-81.2767769999999956
11
140.8190299999999979
21
-81.1956709999999902
0
LINE
8
BLACK
6
CONTINUOUS
10
140.8190299999999979
20
-81.1956709999999902
11
140.7999999999999829
21
-81.0999999999999943
0
LINE
8
BLACK
6
CONTINUOUS
10
140.7999999999999829
20
-81.0999999999999943
11
140.7999999999999829
21
-80.5750000000000028
0
LINE
8
BLACK
6
CONTINUOUS
10
140.7999999999999829
20
-80.5750000000000028
11
140.8190299999999979
21
-80.4793289999999928
0
LINE
8
BLACK
6
CONTINUOUS
10
140.8190299999999979
20
-80.4793289999999928
11
140.8732229999999959
21
-80.3982230000000015
0
LINE
8
BLACK
6
CONTINUOUS
10
140.8732229999999959
20
-80.3982230000000015
11
140.9543290000000013
21
-80.3440299999999894
0
LINE
8
BLACK
6
CONTINUOUS
10
140.9543290000000013
20
-80.3440299999999894
11
141.0499999999999829
21
-80.3250000000000028
0
LINE
8
BLACK
6
CONTINUOUS
10
141.0499999999999829
20
-80.3250000000000028
11
141.9499999999999886
21
-80.3250000000000028
0
LINE
8
BLACK
6
CONTINUOUS
10
141.9499999999999886
20
-80.3250000000000028
11
142.0456709999999987
21
-80.3440299999999894
0
LINE
8
BLACK
6
CONTINUOUS
10
135.0456709999999987
20
-80.2440299999999951
11
135.1267770000000041
21
-80.298222999999993
0
LINE
8
BLACK
6
CONTINUOUS
10
135.1267770000000041
20
-80.298222999999993
11
135.1809700000000021
21
-80.3793289999999985
0
LINE
8
BLACK
6
CONTINUOUS
10
135.1809700000000021
20
-80.3793289999999985
11
135.1999999999999886
21
-80.4749999999999943
0
LINE
8
BLACK
6
CONTINUOUS
10
135.1999999999999886
20
-80.4749999999999943
11
135.1999999999999886
21
-81.
0
LINE
8
BLACK
6
CONTINUOUS
10
135.1999999999999886
20
-81.
11
135.1809700000000021
21
-81.0956709999999958
0
LINE
8
BLACK
6
CONTINUOUS
10
135.1809700000000021
20
-81.0956709999999958
11
135.1267770000000041
21
-81.1767770000000013
0
LINE
8
BLACK
6
CONTINUOUS
10
135.1267770000000041
20
-81.1767770000000013
11
135.0456709999999987
21
-81.2309699999999992
0
LINE
8
BLACK
6
CONTINUOUS
10
135.0456709999999987
20
-81.2309699999999992
11
134.9499999999999886
21
-81.25
0
LINE
8
BLACK
6
CONTINUOUS
10
134.9499999999999886
20
-81.25
11
134.0499999999999829
21
-81.25
0
LINE
8
BLACK
6
CONTINUOUS
10
134.0499999999999829
20
-81.25
11
133.9543290000000013
21
-81.2309699999999992
0
LINE
8
BLACK
6
CONTINUOUS
10
133.9543290000000013
20
-81.2309699999999992
11
133.8732229999999959
21
-81.1767770000000013
0
LINE
8
BLACK
6
CONTINUOUS
10
133.8732229999999959
20
-81.1767770000000013
11
133.8190299999999979
21
-81.0956709999999958
0
LINE
8
BLACK
6
CONTINUOUS
10
133.8190299999999979
20
-81.0956709999999958
11
133.7999999999999829
21
-81.
0
LINE
8
BLACK
6
CONTINUOUS
10
133.7999999999999829
20
-81.
11
133.7999999999999829
21
-80.4749999999999943
0
LINE
8
BLACK
6
CONTINUOUS
10
133.7999999999999829
20
-80.4749999999999943
11
133.8190299999999979
21
-80.3793289999999985
0
LINE
8
BLACK
6
CONTINUOUS
10
133.8190299999999979
20
-80.3793289999999985
11
133.8732229999999959
21
-80.298222999999993
0
LINE
8
BLACK
6
CONTINUOUS
10
133.8732229999999959
20
-80.298222999999993
11
133.9543290000000013
21
-80.2440299999999951
0
LINE
8
BLACK
6
CONTINUOUS
10
133.9543290000000013
20
-80.2440299999999951
11
134.0499999999999829
21
-80.2249999999999943
0
LINE
8
BLACK
6
CONTINUOUS
10
134.0499999999999829
20
-80.2249999999999943
11
134.9499999999999886
21
-80.2249999999999943
0
LINE
8
BLACK
6
CONTINUOUS
10
134.9499999999999886
20
-80.2249999999999943
11
135.0456709999999987
21
-80.2440299999999951
0
LINE
8
BLACK
6
CONTINUOUS
10
149.395670999999993
20
-79.7940299999999922
11
149.4767769999999985
21
-79.8482229999999902
0
LINE
8
BLACK
6
CONTINUOUS
10
149.4767769999999985
20
-79.8482229999999902
11
149.5309699999999964
21
-79.9293289999999956
0
LINE
8
BLACK
6
CONTINUOUS
10
149.5309699999999964
20
-79.9293289999999956
11
149.5499999999999829
21
-80.0249999999999915
0
LINE
8
BLACK
6
CONTINUOUS
10
149.5499999999999829
20
-80.0249999999999915
11
149.5499999999999829
21
-80.5499999999999972
0
LINE
8
BLACK
6
CONTINUOUS
10
149.5499999999999829
20
-80.5499999999999972
11
149.5309699999999964
21
-80.645670999999993
0
LINE
8
BLACK
6
CONTINUOUS
10
149.5309699999999964
20
-80.645670999999993
11
149.4767769999999985
21
-80.7267769999999985
0
LINE
8
BLACK
6
CONTINUOUS
10
149.4767769999999985
20
-80.7267769999999985
11
149.395670999999993
21
-80.7809699999999964
0
LINE
8
BLACK
6
CONTINUOUS
10
149.395670999999993
20
-80.7809699999999964
11
149.2999999999999829
21
-80.7999999999999972
0
LINE
8
BLACK
6
CONTINUOUS
10
149.2999999999999829
20
-80.7999999999999972
11
148.4000000000000057
21
-80.7999999999999972
0
LINE
8
BLACK
6
CONTINUOUS
10
148.4000000000000057
20
-80.7999999999999972
11
148.3043289999999956
21
-80.7809699999999964
0
LINE
8
BLACK
6
CONTINUOUS
10
148.3043289999999956
20
-80.7809699999999964
11
148.2232229999999902
21
-80.7267769999999985
0
LINE
8
BLACK
6
CONTINUOUS
10
148.2232229999999902
20
-80.7267769999999985
11
148.1690299999999922
21
-80.645670999999993
0
LINE
8
BLACK
6
CONTINUOUS
10
148.1690299999999922
20
-80.645670999999993
11
148.1500000000000057
21
-80.5499999999999972
0
LINE
8
BLACK
6
CONTINUOUS
10
148.1500000000000057
20
-80.5499999999999972
11
148.1500000000000057
21
-80.0249999999999915
0
LINE
8
BLACK
6
CONTINUOUS
10
148.1500000000000057
20
-80.0249999999999915
11
148.1690299999999922
21
-79.9293289999999956
0
LINE
8
BLACK
6
CONTINUOUS
10
148.1690299999999922
20
-79.9293289999999956
11
148.2232229999999902
21
-79.8482229999999902
0
LINE
8
BLACK
6
CONTINUOUS
10
148.2232229999999902
20
-79.8482229999999902
11
148.3043289999999956
21
-79.7940299999999922
0
LINE
8
BLACK
6
CONTINUOUS
10
148.3043289999999956
20
-79.7940299999999922
11
148.4000000000000057
21
-79.7749999999999915
0
LINE
8
BLACK
6
CONTINUOUS
10
148.4000000000000057
20
-79.7749999999999915
11
149.2999999999999829
21
-79.7749999999999915
0
LINE
8
BLACK
6
CONTINUOUS
10
149.2999999999999829
20
-79.7749999999999915
11
149.395670999999993
21
-79.7940299999999922
  0
ENDSEC
  0
EOF
