solid OpenSCAD_Model
  facet normal 0 0 -1
    outer loop
      vertex 88.4805 -146.65 0
      vertex 89.4805 -138.808 0
      vertex 89.4805 -145.65 0
    endloop
  endfacet
  facet normal -0 0 -1
    outer loop
      vertex 89.4805 -138.808 0
      vertex 67.1602 -143.11 0
      vertex 89.4805 -71.2111 0
    endloop
  endfacet
  facet normal 0 0 -1
    outer loop
      vertex 88.4805 -146.65 0
      vertex 89.4805 -145.65 0
      vertex 89.4043 -146.033 0
    endloop
  endfacet
  facet normal 0 0 -1
    outer loop
      vertex 67.1602 -66.9102 0
      vertex 89.4805 -71.2111 0
      vertex 67.1602 -143.11 0
    endloop
  endfacet
  facet normal 0 0 -1
    outer loop
      vertex 88.4805 -146.65 0
      vertex 89.4043 -146.033 0
      vertex 89.1876 -146.357 0
    endloop
  endfacet
  facet normal 0 -0 -1
    outer loop
      vertex 70.7002 -63.3701 0
      vertex 89.4805 -71.2111 0
      vertex 67.1602 -66.9102 0
    endloop
  endfacet
  facet normal 0 0 -1
    outer loop
      vertex 88.4805 -146.65 0
      vertex 89.1876 -146.357 0
      vertex 88.8632 -146.574 0
    endloop
  endfacet
  facet normal -0 -0 -1
    outer loop
      vertex 88.4805 -63.3701 0
      vertex 89.4805 -71.2111 0
      vertex 70.7002 -63.3701 0
    endloop
  endfacet
  facet normal 0 0 -1
    outer loop
      vertex 89.4805 -138.808 0
      vertex 88.4805 -146.65 0
      vertex 70.7002 -146.65 0
    endloop
  endfacet
  facet normal 0 0 -1
    outer loop
      vertex 89.4805 -64.3701 0
      vertex 88.4805 -63.3701 0
      vertex 89.4043 -63.9874 0
    endloop
  endfacet
  facet normal 0 0 -1
    outer loop
      vertex 89.4805 -138.808 0
      vertex 70.7002 -146.65 0
      vertex 67.1602 -143.11 0
    endloop
  endfacet
  facet normal 0 0 -1
    outer loop
      vertex 89.4043 -63.9874 0
      vertex 88.4805 -63.3701 0
      vertex 89.1876 -63.663 0
    endloop
  endfacet
  facet normal 0 0 -1
    outer loop
      vertex 69.9931 -146.357 0
      vertex 70.7002 -146.65 0
      vertex 70.3175 -146.574 0
    endloop
  endfacet
  facet normal 0 0 -1
    outer loop
      vertex 89.1876 -63.663 0
      vertex 88.4805 -63.3701 0
      vertex 88.8632 -63.4462 0
    endloop
  endfacet
  facet normal 0 0 -1
    outer loop
      vertex 70.7002 -146.65 0
      vertex 69.9931 -146.357 0
      vertex 67.1602 -143.11 0
    endloop
  endfacet
  facet normal 0 0 -1
    outer loop
      vertex 89.4805 -71.2111 0
      vertex 88.4805 -63.3701 0
      vertex 89.4805 -64.3701 0
    endloop
  endfacet
  facet normal 0 0 -1
    outer loop
      vertex 67.1602 -143.11 0
      vertex 69.9931 -146.357 0
      vertex 67.453 -143.817 0
    endloop
  endfacet
  facet normal 0 -0 -1
    outer loop
      vertex 69.9931 -63.663 0
      vertex 70.7002 -63.3701 0
      vertex 67.1602 -66.9102 0
    endloop
  endfacet
  facet normal 0 0 -1
    outer loop
      vertex 67.1602 -143.11 0
      vertex 67.453 -143.817 0
      vertex 67.2363 -143.493 0
    endloop
  endfacet
  facet normal 0 0 -1
    outer loop
      vertex 70.7002 -63.3701 0
      vertex 69.9931 -63.663 0
      vertex 70.3175 -63.4462 0
    endloop
  endfacet
  facet normal 0 0 -1
    outer loop
      vertex 69.9931 -63.663 0
      vertex 67.1602 -66.9102 0
      vertex 67.453 -66.203 0
    endloop
  endfacet
  facet normal 0 0 -1
    outer loop
      vertex 67.453 -66.203 0
      vertex 67.1602 -66.9102 0
      vertex 67.2363 -66.5275 0
    endloop
  endfacet
  facet normal 0 0 -1
    outer loop
      vertex 154.52 -146.65 0
      vertex 120.327 -138.207 0
      vertex 168.22 -132.95 0
    endloop
  endfacet
  facet normal 0 0 -1
    outer loop
      vertex 168.22 -77.0703 0
      vertex 120.476 -71.4542 0
      vertex 120.5 -71.2111 0
    endloop
  endfacet
  facet normal 0 0 -1
    outer loop
      vertex 168.22 -77.0703 0
      vertex 120.42 -71.6406 0
      vertex 120.476 -71.4542 0
    endloop
  endfacet
  facet normal 0 0 -1
    outer loop
      vertex 120.204 -138.056 0
      vertex 168.22 -132.95 0
      vertex 120.327 -138.207 0
    endloop
  endfacet
  facet normal 0 0 -1
    outer loop
      vertex 168.22 -77.0703 0
      vertex 120.328 -71.8125 0
      vertex 120.42 -71.6406 0
    endloop
  endfacet
  facet normal 0 0 -1
    outer loop
      vertex 120.053 -137.932 0
      vertex 168.22 -132.95 0
      vertex 120.204 -138.056 0
    endloop
  endfacet
  facet normal -0 0 -1
    outer loop
      vertex 168.22 -132.95 0
      vertex 120.053 -137.932 0
      vertex 168.22 -77.0703 0
    endloop
  endfacet
  facet normal 0 0 -1
    outer loop
      vertex 168.22 -77.0703 0
      vertex 120.204 -71.9634 0
      vertex 120.328 -71.8125 0
    endloop
  endfacet
  facet normal 0 0 -1
    outer loop
      vertex 120.053 -72.0875 0
      vertex 168.22 -77.0703 0
      vertex 120.053 -137.932 0
    endloop
  endfacet
  facet normal 0 0 -1
    outer loop
      vertex 168.22 -77.0703 0
      vertex 120.053 -72.0875 0
      vertex 120.204 -71.9634 0
    endloop
  endfacet
  facet normal 0 0 -1
    outer loop
      vertex 119.882 -137.841 0
      vertex 120.053 -72.0875 0
      vertex 120.053 -137.932 0
    endloop
  endfacet
  facet normal 0 0 -1
    outer loop
      vertex 119.882 -137.841 0
      vertex 119.881 -72.1793 0
      vertex 120.053 -72.0875 0
    endloop
  endfacet
  facet normal 0 0 -1
    outer loop
      vertex 119.694 -137.784 0
      vertex 119.881 -72.1793 0
      vertex 119.882 -137.841 0
    endloop
  endfacet
  facet normal 0 0 -1
    outer loop
      vertex 119.694 -137.784 0
      vertex 119.694 -72.2361 0
      vertex 119.881 -72.1793 0
    endloop
  endfacet
  facet normal 0 0 -1
    outer loop
      vertex 119.694 -137.784 0
      vertex 119.451 -72.2598 0
      vertex 119.694 -72.2361 0
    endloop
  endfacet
  facet normal 0 0 -1
    outer loop
      vertex 119.45 -137.76 0
      vertex 119.451 -72.2598 0
      vertex 119.694 -137.784 0
    endloop
  endfacet
  facet normal 0 0 -1
    outer loop
      vertex 90.5304 -137.76 0
      vertex 119.451 -72.2598 0
      vertex 119.45 -137.76 0
    endloop
  endfacet
  facet normal 0 0 -1
    outer loop
      vertex 90.5304 -137.76 0
      vertex 90.5292 -72.2598 0
      vertex 119.451 -72.2598 0
    endloop
  endfacet
  facet normal 0 0 -1
    outer loop
      vertex 90.5304 -137.76 0
      vertex 90.286 -72.2361 0
      vertex 90.5292 -72.2598 0
    endloop
  endfacet
  facet normal 0 0 -1
    outer loop
      vertex 90.286 -137.784 0
      vertex 90.286 -72.2361 0
      vertex 90.5304 -137.76 0
    endloop
  endfacet
  facet normal 0 0 -1
    outer loop
      vertex 90.286 -137.784 0
      vertex 90.0997 -72.1793 0
      vertex 90.286 -72.2361 0
    endloop
  endfacet
  facet normal 0 0 -1
    outer loop
      vertex 90.0986 -137.841 0
      vertex 90.0997 -72.1793 0
      vertex 90.286 -137.784 0
    endloop
  endfacet
  facet normal 0 0 -1
    outer loop
      vertex 89.927 -137.932 0
      vertex 90.0997 -72.1793 0
      vertex 90.0986 -137.841 0
    endloop
  endfacet
  facet normal 0 0 -1
    outer loop
      vertex 89.927 -137.932 0
      vertex 89.927 -72.0871 0
      vertex 90.0997 -72.1793 0
    endloop
  endfacet
  facet normal 0 0 -1
    outer loop
      vertex 89.7761 -138.056 0
      vertex 89.927 -72.0871 0
      vertex 89.927 -137.932 0
    endloop
  endfacet
  facet normal 0 0 -1
    outer loop
      vertex 89.7761 -138.056 0
      vertex 89.7761 -71.9634 0
      vertex 89.927 -72.0871 0
    endloop
  endfacet
  facet normal 0 0 -1
    outer loop
      vertex 89.6529 -138.207 0
      vertex 89.7761 -71.9634 0
      vertex 89.7761 -138.056 0
    endloop
  endfacet
  facet normal 0 0 -1
    outer loop
      vertex 89.6529 -138.207 0
      vertex 89.6525 -71.8125 0
      vertex 89.7761 -71.9634 0
    endloop
  endfacet
  facet normal 0 0 -1
    outer loop
      vertex 89.5604 -138.379 0
      vertex 89.6525 -71.8125 0
      vertex 89.6529 -138.207 0
    endloop
  endfacet
  facet normal 0 0 -1
    outer loop
      vertex 89.5604 -138.379 0
      vertex 89.5602 -71.6406 0
      vertex 89.6525 -71.8125 0
    endloop
  endfacet
  facet normal 0 0 -1
    outer loop
      vertex 89.5604 -138.379 0
      vertex 89.5043 -71.4554 0
      vertex 89.5602 -71.6406 0
    endloop
  endfacet
  facet normal 0 0 -1
    outer loop
      vertex 89.5042 -138.565 0
      vertex 89.5043 -71.4554 0
      vertex 89.5604 -138.379 0
    endloop
  endfacet
  facet normal 0 0 -1
    outer loop
      vertex 89.4805 -138.808 0
      vertex 89.5043 -71.4554 0
      vertex 89.5042 -138.565 0
    endloop
  endfacet
  facet normal -0 0 -1
    outer loop
      vertex 89.5043 -71.4554 0
      vertex 89.4805 -138.808 0
      vertex 89.4805 -71.2111 0
    endloop
  endfacet
  facet normal 0 0 -1
    outer loop
      vertex 167.927 -133.657 0
      vertex 168.22 -132.95 0
      vertex 168.144 -133.333 0
    endloop
  endfacet
  facet normal 0 0 -1
    outer loop
      vertex 120.419 -138.379 0
      vertex 154.52 -146.65 0
      vertex 120.476 -138.566 0
    endloop
  endfacet
  facet normal 0 0 -1
    outer loop
      vertex 154.52 -146.65 0
      vertex 168.22 -132.95 0
      vertex 167.927 -133.657 0
    endloop
  endfacet
  facet normal 0 0 -1
    outer loop
      vertex 120.327 -138.207 0
      vertex 154.52 -146.65 0
      vertex 120.419 -138.379 0
    endloop
  endfacet
  facet normal 0 0 -1
    outer loop
      vertex 154.52 -146.65 0
      vertex 167.927 -133.657 0
      vertex 155.227 -146.357 0
    endloop
  endfacet
  facet normal 0 -0 -1
    outer loop
      vertex 154.52 -63.3701 0
      vertex 168.22 -77.0703 0
      vertex 120.5 -71.2111 0
    endloop
  endfacet
  facet normal 0 0 -1
    outer loop
      vertex 154.52 -146.65 0
      vertex 155.227 -146.357 0
      vertex 154.902 -146.574 0
    endloop
  endfacet
  facet normal 0 0 -1
    outer loop
      vertex 120.476 -138.566 0
      vertex 154.52 -146.65 0
      vertex 120.5 -138.808 0
    endloop
  endfacet
  facet normal 0 0 -1
    outer loop
      vertex 168.22 -77.0703 0
      vertex 167.927 -76.3632 0
      vertex 168.144 -76.6876 0
    endloop
  endfacet
  facet normal 0 0 -1
    outer loop
      vertex 155.227 -63.663 0
      vertex 154.52 -63.3701 0
      vertex 154.902 -63.4462 0
    endloop
  endfacet
  facet normal 0 0 -1
    outer loop
      vertex 120.5 -138.808 0
      vertex 154.52 -146.65 0
      vertex 121.5 -146.65 0
    endloop
  endfacet
  facet normal 0 0 -1
    outer loop
      vertex 168.22 -77.0703 0
      vertex 154.52 -63.3701 0
      vertex 167.927 -76.3632 0
    endloop
  endfacet
  facet normal 0 0 -1
    outer loop
      vertex 120.5 -145.65 0
      vertex 121.5 -146.65 0
      vertex 121.117 -146.574 0
    endloop
  endfacet
  facet normal 0 0 -1
    outer loop
      vertex 167.927 -76.3632 0
      vertex 154.52 -63.3701 0
      vertex 155.227 -63.663 0
    endloop
  endfacet
  facet normal 0 0 -1
    outer loop
      vertex 120.5 -145.65 0
      vertex 121.117 -146.574 0
      vertex 120.793 -146.357 0
    endloop
  endfacet
  facet normal -0 0 -1
    outer loop
      vertex 154.52 -63.3701 0
      vertex 120.5 -71.2111 0
      vertex 121.5 -63.3701 0
    endloop
  endfacet
  facet normal 0 0 -1
    outer loop
      vertex 120.5 -145.65 0
      vertex 120.793 -146.357 0
      vertex 120.576 -146.033 0
    endloop
  endfacet
  facet normal 0 0 -1
    outer loop
      vertex 120.5 -64.3701 0
      vertex 121.5 -63.3701 0
      vertex 120.5 -71.2111 0
    endloop
  endfacet
  facet normal 0 0 -1
    outer loop
      vertex 121.5 -146.65 0
      vertex 120.5 -145.65 0
      vertex 120.5 -138.808 0
    endloop
  endfacet
  facet normal 0 0 -1
    outer loop
      vertex 121.5 -63.3701 0
      vertex 120.5 -64.3701 0
      vertex 121.117 -63.4462 0
    endloop
  endfacet
  facet normal 0 0 -1
    outer loop
      vertex 121.117 -63.4462 0
      vertex 120.5 -64.3701 0
      vertex 120.793 -63.663 0
    endloop
  endfacet
  facet normal 0 0 -1
    outer loop
      vertex 120.793 -63.663 0
      vertex 120.5 -64.3701 0
      vertex 120.576 -63.9874 0
    endloop
  endfacet
  facet normal 0 0 1
    outer loop
      vertex 88.4805 -64.3701 0.9
      vertex 89.4805 -64.3701 0.9
      vertex 89.4043 -63.9874 0.9
    endloop
  endfacet
  facet normal -0 0 1
    outer loop
      vertex 120.5 -138.808 0.9
      vertex 121.5 -145.65 0.9
      vertex 121.5 -138.76 0.9
    endloop
  endfacet
  facet normal -0 0 1
    outer loop
      vertex 120.476 -138.566 0.9
      vertex 121.5 -138.76 0.9
      vertex 121.462 -138.37 0.9
    endloop
  endfacet
  facet normal 0 0 1
    outer loop
      vertex 120.476 -138.566 0.9
      vertex 121.462 -138.37 0.9
      vertex 121.348 -137.995 0.9
    endloop
  endfacet
  facet normal 0 0 1
    outer loop
      vertex 120.419 -138.379 0.9
      vertex 121.348 -137.995 0.9
      vertex 121.163 -137.648 0.9
    endloop
  endfacet
  facet normal 0 0 1
    outer loop
      vertex 121.5 -145.65 0.9
      vertex 120.5 -138.808 0.9
      vertex 120.5 -145.65 0.9
    endloop
  endfacet
  facet normal 0 0 1
    outer loop
      vertex 120.327 -138.207 0.9
      vertex 121.163 -137.648 0.9
      vertex 120.914 -137.346 0.9
    endloop
  endfacet
  facet normal 0 -0 1
    outer loop
      vertex 120.576 -146.033 0.9
      vertex 121.5 -145.65 0.9
      vertex 120.5 -145.65 0.9
    endloop
  endfacet
  facet normal 0 0 1
    outer loop
      vertex 120.204 -138.056 0.9
      vertex 120.914 -137.346 0.9
      vertex 120.611 -137.097 0.9
    endloop
  endfacet
  facet normal 0 0 1
    outer loop
      vertex 121.5 -145.65 0.9
      vertex 121.117 -146.574 0.9
      vertex 121.5 -146.65 0.9
    endloop
  endfacet
  facet normal 0 0 1
    outer loop
      vertex 121.5 -145.65 0.9
      vertex 120.793 -146.357 0.9
      vertex 121.117 -146.574 0.9
    endloop
  endfacet
  facet normal 0 0 1
    outer loop
      vertex 121.5 -138.76 0.9
      vertex 120.476 -138.566 0.9
      vertex 120.5 -138.808 0.9
    endloop
  endfacet
  facet normal 0 0 1
    outer loop
      vertex 121.348 -137.995 0.9
      vertex 120.419 -138.379 0.9
      vertex 120.476 -138.566 0.9
    endloop
  endfacet
  facet normal 0 0 1
    outer loop
      vertex 121.163 -137.648 0.9
      vertex 120.327 -138.207 0.9
      vertex 120.419 -138.379 0.9
    endloop
  endfacet
  facet normal 0 0 1
    outer loop
      vertex 120.053 -137.932 0.9
      vertex 120.611 -137.097 0.9
      vertex 120.266 -136.912 0.9
    endloop
  endfacet
  facet normal 0 0 1
    outer loop
      vertex 120.914 -137.346 0.9
      vertex 120.204 -138.056 0.9
      vertex 120.327 -138.207 0.9
    endloop
  endfacet
  facet normal 0 0 1
    outer loop
      vertex 120.611 -137.097 0.9
      vertex 120.053 -137.932 0.9
      vertex 120.204 -138.056 0.9
    endloop
  endfacet
  facet normal 0 0 1
    outer loop
      vertex 119.882 -137.841 0.9
      vertex 120.266 -136.912 0.9
      vertex 119.891 -136.799 0.9
    endloop
  endfacet
  facet normal 0 0 1
    outer loop
      vertex 120.266 -136.912 0.9
      vertex 119.882 -137.841 0.9
      vertex 120.053 -137.932 0.9
    endloop
  endfacet
  facet normal 0 0 1
    outer loop
      vertex 119.891 -136.799 0.9
      vertex 119.694 -137.784 0.9
      vertex 119.882 -137.841 0.9
    endloop
  endfacet
  facet normal 0 0 1
    outer loop
      vertex 119.5 -136.76 0.9
      vertex 119.694 -137.784 0.9
      vertex 119.891 -136.799 0.9
    endloop
  endfacet
  facet normal 0 0 1
    outer loop
      vertex 119.5 -136.76 0.9
      vertex 119.45 -137.76 0.9
      vertex 119.694 -137.784 0.9
    endloop
  endfacet
  facet normal 0 0 1
    outer loop
      vertex 119.5 -136.76 0.9
      vertex 90.5304 -137.76 0.9
      vertex 119.45 -137.76 0.9
    endloop
  endfacet
  facet normal -0 0 1
    outer loop
      vertex 90.4805 -136.76 0.9
      vertex 90.5304 -137.76 0.9
      vertex 119.5 -136.76 0.9
    endloop
  endfacet
  facet normal 0 0 1
    outer loop
      vertex 90.4805 -136.76 0.9
      vertex 90.286 -137.784 0.9
      vertex 90.5304 -137.76 0.9
    endloop
  endfacet
  facet normal -0 0 1
    outer loop
      vertex 90.0898 -136.799 0.9
      vertex 90.286 -137.784 0.9
      vertex 90.4805 -136.76 0.9
    endloop
  endfacet
  facet normal 0 0 1
    outer loop
      vertex 90.286 -137.784 0.9
      vertex 90.0898 -136.799 0.9
      vertex 90.0986 -137.841 0.9
    endloop
  endfacet
  facet normal -0 0 1
    outer loop
      vertex 89.7148 -136.912 0.9
      vertex 90.0986 -137.841 0.9
      vertex 90.0898 -136.799 0.9
    endloop
  endfacet
  facet normal 0 0 1
    outer loop
      vertex 90.0986 -137.841 0.9
      vertex 89.7148 -136.912 0.9
      vertex 89.927 -137.932 0.9
    endloop
  endfacet
  facet normal -0 0 1
    outer loop
      vertex 89.3691 -137.097 0.9
      vertex 89.927 -137.932 0.9
      vertex 89.7148 -136.912 0.9
    endloop
  endfacet
  facet normal 0 0 1
    outer loop
      vertex 89.927 -137.932 0.9
      vertex 89.3691 -137.097 0.9
      vertex 89.7761 -138.056 0.9
    endloop
  endfacet
  facet normal -0 0 1
    outer loop
      vertex 89.0654 -137.346 0.9
      vertex 89.7761 -138.056 0.9
      vertex 89.3691 -137.097 0.9
    endloop
  endfacet
  facet normal 0 0 1
    outer loop
      vertex 89.7761 -138.056 0.9
      vertex 89.0654 -137.346 0.9
      vertex 89.6529 -138.207 0.9
    endloop
  endfacet
  facet normal 0 0 1
    outer loop
      vertex 88.4805 -145.65 0.9
      vertex 89.4805 -145.65 0.9
      vertex 89.4805 -138.808 0.9
    endloop
  endfacet
  facet normal -0 0 1
    outer loop
      vertex 88.8174 -137.648 0.9
      vertex 89.6529 -138.207 0.9
      vertex 89.0654 -137.346 0.9
    endloop
  endfacet
  facet normal 0 0 1
    outer loop
      vertex 89.6529 -138.207 0.9
      vertex 88.8174 -137.648 0.9
      vertex 89.5604 -138.379 0.9
    endloop
  endfacet
  facet normal -0 0 1
    outer loop
      vertex 88.6318 -137.995 0.9
      vertex 89.5604 -138.379 0.9
      vertex 88.8174 -137.648 0.9
    endloop
  endfacet
  facet normal 0 0 1
    outer loop
      vertex 88.4805 -145.65 0.9
      vertex 89.4805 -138.808 0.9
      vertex 88.4805 -138.76 0.9
    endloop
  endfacet
  facet normal 0 0 1
    outer loop
      vertex 89.5604 -138.379 0.9
      vertex 88.6318 -137.995 0.9
      vertex 89.5042 -138.565 0.9
    endloop
  endfacet
  facet normal 0 0 1
    outer loop
      vertex 89.4805 -145.65 0.9
      vertex 88.4805 -145.65 0.9
      vertex 89.4043 -146.033 0.9
    endloop
  endfacet
  facet normal -0 0 1
    outer loop
      vertex 88.5186 -138.37 0.9
      vertex 89.5042 -138.565 0.9
      vertex 88.6318 -137.995 0.9
    endloop
  endfacet
  facet normal 0 0 1
    outer loop
      vertex 88.4805 -138.76 0.9
      vertex 89.5042 -138.565 0.9
      vertex 88.5186 -138.37 0.9
    endloop
  endfacet
  facet normal 0 0 1
    outer loop
      vertex 89.5042 -138.565 0.9
      vertex 88.4805 -138.76 0.9
      vertex 89.4805 -138.808 0.9
    endloop
  endfacet
  facet normal 0 0 1
    outer loop
      vertex 89.4043 -146.033 0.9
      vertex 88.4805 -145.65 0.9
      vertex 89.1876 -146.357 0.9
    endloop
  endfacet
  facet normal 0 0 1
    outer loop
      vertex 89.1876 -146.357 0.9
      vertex 88.4805 -145.65 0.9
      vertex 88.8632 -146.574 0.9
    endloop
  endfacet
  facet normal 0 0 1
    outer loop
      vertex 88.4805 -145.65 0.9
      vertex 88.4805 -146.65 0.9
      vertex 88.8632 -146.574 0.9
    endloop
  endfacet
  facet normal -0 0 1
    outer loop
      vertex 70.7002 -145.65 0.9
      vertex 88.4805 -146.65 0.9
      vertex 88.4805 -145.65 0.9
    endloop
  endfacet
  facet normal 0 0 1
    outer loop
      vertex 70.7002 -145.65 0.9
      vertex 70.7002 -146.65 0.9
      vertex 88.4805 -146.65 0.9
    endloop
  endfacet
  facet normal 0 0 1
    outer loop
      vertex 70.7002 -145.65 0.9
      vertex 70.3175 -146.574 0.9
      vertex 70.7002 -146.65 0.9
    endloop
  endfacet
  facet normal 0 0 1
    outer loop
      vertex 70.7002 -145.65 0.9
      vertex 69.9931 -146.357 0.9
      vertex 70.3175 -146.574 0.9
    endloop
  endfacet
  facet normal 0 0 1
    outer loop
      vertex 68.1602 -143.11 0.9
      vertex 69.9931 -146.357 0.9
      vertex 70.7002 -145.65 0.9
    endloop
  endfacet
  facet normal 0 0 1
    outer loop
      vertex 68.1602 -143.11 0.9
      vertex 67.453 -143.817 0.9
      vertex 69.9931 -146.357 0.9
    endloop
  endfacet
  facet normal 0 0 1
    outer loop
      vertex 68.1602 -66.9102 0.9
      vertex 67.1602 -66.9102 0.9
      vertex 68.1602 -143.11 0.9
    endloop
  endfacet
  facet normal 0 0 1
    outer loop
      vertex 67.1602 -66.9102 0.9
      vertex 67.453 -66.203 0.9
      vertex 67.2363 -66.5275 0.9
    endloop
  endfacet
  facet normal 0 0 1
    outer loop
      vertex 67.1602 -143.11 0.9
      vertex 68.1602 -143.11 0.9
      vertex 67.1602 -66.9102 0.9
    endloop
  endfacet
  facet normal 0 -0 1
    outer loop
      vertex 67.2363 -143.493 0.9
      vertex 68.1602 -143.11 0.9
      vertex 67.1602 -143.11 0.9
    endloop
  endfacet
  facet normal 0 0 1
    outer loop
      vertex 68.1602 -143.11 0.9
      vertex 67.2363 -143.493 0.9
      vertex 67.453 -143.817 0.9
    endloop
  endfacet
  facet normal 0 0 1
    outer loop
      vertex 167.22 -77.0703 0.9
      vertex 168.22 -77.0703 0.9
      vertex 168.144 -76.6876 0.9
    endloop
  endfacet
  facet normal 0 0 1
    outer loop
      vertex 168.22 -77.0703 0.9
      vertex 167.22 -77.0703 0.9
      vertex 168.22 -132.95 0.9
    endloop
  endfacet
  facet normal 0 0 1
    outer loop
      vertex 167.22 -77.0703 0.9
      vertex 168.144 -76.6876 0.9
      vertex 167.927 -76.3632 0.9
    endloop
  endfacet
  facet normal 0 0 1
    outer loop
      vertex 167.22 -132.95 0.9
      vertex 168.22 -132.95 0.9
      vertex 167.22 -77.0703 0.9
    endloop
  endfacet
  facet normal 0 0 1
    outer loop
      vertex 168.22 -132.95 0.9
      vertex 167.22 -132.95 0.9
      vertex 168.144 -133.333 0.9
    endloop
  endfacet
  facet normal 0 0 1
    outer loop
      vertex 155.227 -63.663 0.9
      vertex 167.22 -77.0703 0.9
      vertex 167.927 -76.3632 0.9
    endloop
  endfacet
  facet normal 0 0 1
    outer loop
      vertex 154.52 -64.3701 0.9
      vertex 155.227 -63.663 0.9
      vertex 154.902 -63.4462 0.9
    endloop
  endfacet
  facet normal 0 0 1
    outer loop
      vertex 154.52 -64.3701 0.9
      vertex 154.902 -63.4462 0.9
      vertex 154.52 -63.3701 0.9
    endloop
  endfacet
  facet normal 0 0 1
    outer loop
      vertex 155.227 -63.663 0.9
      vertex 154.52 -64.3701 0.9
      vertex 167.22 -77.0703 0.9
    endloop
  endfacet
  facet normal -0 0 1
    outer loop
      vertex 121.5 -63.3701 0.9
      vertex 154.52 -64.3701 0.9
      vertex 154.52 -63.3701 0.9
    endloop
  endfacet
  facet normal 0 0 1
    outer loop
      vertex 121.5 -63.3701 0.9
      vertex 121.5 -64.3701 0.9
      vertex 154.52 -64.3701 0.9
    endloop
  endfacet
  facet normal -0 0 1
    outer loop
      vertex 121.117 -63.4462 0.9
      vertex 121.5 -64.3701 0.9
      vertex 121.5 -63.3701 0.9
    endloop
  endfacet
  facet normal 0 0 1
    outer loop
      vertex 120.5 -71.2111 0.9
      vertex 121.5 -64.3701 0.9
      vertex 120.5 -64.3701 0.9
    endloop
  endfacet
  facet normal 0 0 1
    outer loop
      vertex 121.5 -64.3701 0.9
      vertex 120.5 -71.2111 0.9
      vertex 121.5 -71.2598 0.9
    endloop
  endfacet
  facet normal 0 0 1
    outer loop
      vertex 120.476 -71.4542 0.9
      vertex 121.5 -71.2598 0.9
      vertex 120.5 -71.2111 0.9
    endloop
  endfacet
  facet normal -0 0 1
    outer loop
      vertex 120.793 -63.663 0.9
      vertex 121.5 -64.3701 0.9
      vertex 121.117 -63.4462 0.9
    endloop
  endfacet
  facet normal 0 0 1
    outer loop
      vertex 121.462 -71.6504 0.9
      vertex 120.476 -71.4542 0.9
      vertex 121.348 -72.0254 0.9
    endloop
  endfacet
  facet normal -0 0 1
    outer loop
      vertex 120.576 -63.9874 0.9
      vertex 121.5 -64.3701 0.9
      vertex 120.793 -63.663 0.9
    endloop
  endfacet
  facet normal -0 0 1
    outer loop
      vertex 120.42 -71.6406 0.9
      vertex 121.348 -72.0254 0.9
      vertex 120.476 -71.4542 0.9
    endloop
  endfacet
  facet normal 0 0 1
    outer loop
      vertex 121.5 -64.3701 0.9
      vertex 120.576 -63.9874 0.9
      vertex 120.5 -64.3701 0.9
    endloop
  endfacet
  facet normal 0 0 1
    outer loop
      vertex 121.5 -71.2598 0.9
      vertex 120.476 -71.4542 0.9
      vertex 121.462 -71.6504 0.9
    endloop
  endfacet
  facet normal 0 0 1
    outer loop
      vertex 121.348 -72.0254 0.9
      vertex 120.42 -71.6406 0.9
      vertex 121.163 -72.3711 0.9
    endloop
  endfacet
  facet normal -0 0 1
    outer loop
      vertex 120.328 -71.8125 0.9
      vertex 121.163 -72.3711 0.9
      vertex 120.42 -71.6406 0.9
    endloop
  endfacet
  facet normal 0 0 1
    outer loop
      vertex 121.163 -72.3711 0.9
      vertex 120.328 -71.8125 0.9
      vertex 120.914 -72.6738 0.9
    endloop
  endfacet
  facet normal -0 0 1
    outer loop
      vertex 120.204 -71.9634 0.9
      vertex 120.914 -72.6738 0.9
      vertex 120.328 -71.8125 0.9
    endloop
  endfacet
  facet normal 0 0 1
    outer loop
      vertex 120.914 -72.6738 0.9
      vertex 120.204 -71.9634 0.9
      vertex 120.611 -72.9229 0.9
    endloop
  endfacet
  facet normal -0 0 1
    outer loop
      vertex 120.053 -72.0875 0.9
      vertex 120.611 -72.9229 0.9
      vertex 120.204 -71.9634 0.9
    endloop
  endfacet
  facet normal 0 0 1
    outer loop
      vertex 120.611 -72.9229 0.9
      vertex 120.053 -72.0875 0.9
      vertex 120.266 -73.1074 0.9
    endloop
  endfacet
  facet normal -0 0 1
    outer loop
      vertex 119.881 -72.1793 0.9
      vertex 120.266 -73.1074 0.9
      vertex 120.053 -72.0875 0.9
    endloop
  endfacet
  facet normal 0 0 1
    outer loop
      vertex 120.266 -73.1074 0.9
      vertex 119.881 -72.1793 0.9
      vertex 119.891 -73.2217 0.9
    endloop
  endfacet
  facet normal -0 0 1
    outer loop
      vertex 119.694 -72.2361 0.9
      vertex 119.891 -73.2217 0.9
      vertex 119.881 -72.1793 0.9
    endloop
  endfacet
  facet normal 0 0 1
    outer loop
      vertex 119.694 -72.2361 0.9
      vertex 119.5 -73.2598 0.9
      vertex 119.891 -73.2217 0.9
    endloop
  endfacet
  facet normal -0 0 1
    outer loop
      vertex 119.451 -72.2598 0.9
      vertex 119.5 -73.2598 0.9
      vertex 119.694 -72.2361 0.9
    endloop
  endfacet
  facet normal -0 0 1
    outer loop
      vertex 90.5292 -72.2598 0.9
      vertex 119.5 -73.2598 0.9
      vertex 119.451 -72.2598 0.9
    endloop
  endfacet
  facet normal 0 0 1
    outer loop
      vertex 90.5292 -72.2598 0.9
      vertex 90.4805 -73.2598 0.9
      vertex 119.5 -73.2598 0.9
    endloop
  endfacet
  facet normal 0 0 1
    outer loop
      vertex 90.286 -72.2361 0.9
      vertex 90.4805 -73.2598 0.9
      vertex 90.5292 -72.2598 0.9
    endloop
  endfacet
  facet normal 0 0 1
    outer loop
      vertex 90.0898 -73.2217 0.9
      vertex 90.286 -72.2361 0.9
      vertex 90.0997 -72.1793 0.9
    endloop
  endfacet
  facet normal 0 0 1
    outer loop
      vertex 90.286 -72.2361 0.9
      vertex 90.0898 -73.2217 0.9
      vertex 90.4805 -73.2598 0.9
    endloop
  endfacet
  facet normal 0 0 1
    outer loop
      vertex 89.7148 -73.1074 0.9
      vertex 90.0997 -72.1793 0.9
      vertex 89.927 -72.0871 0.9
    endloop
  endfacet
  facet normal 0 0 1
    outer loop
      vertex 89.3691 -72.9229 0.9
      vertex 89.927 -72.0871 0.9
      vertex 89.7761 -71.9634 0.9
    endloop
  endfacet
  facet normal 0 0 1
    outer loop
      vertex 90.0997 -72.1793 0.9
      vertex 89.7148 -73.1074 0.9
      vertex 90.0898 -73.2217 0.9
    endloop
  endfacet
  facet normal 0 0 1
    outer loop
      vertex 89.0654 -72.6738 0.9
      vertex 89.7761 -71.9634 0.9
      vertex 89.6525 -71.8125 0.9
    endloop
  endfacet
  facet normal 0 0 1
    outer loop
      vertex 88.8174 -72.3711 0.9
      vertex 89.6525 -71.8125 0.9
      vertex 89.5602 -71.6406 0.9
    endloop
  endfacet
  facet normal 0 0 1
    outer loop
      vertex 88.6318 -72.0254 0.9
      vertex 89.5602 -71.6406 0.9
      vertex 89.5043 -71.4554 0.9
    endloop
  endfacet
  facet normal 0 0 1
    outer loop
      vertex 89.927 -72.0871 0.9
      vertex 89.3691 -72.9229 0.9
      vertex 89.7148 -73.1074 0.9
    endloop
  endfacet
  facet normal -0 0 1
    outer loop
      vertex 88.4805 -71.2598 0.9
      vertex 89.5043 -71.4554 0.9
      vertex 89.4805 -71.2111 0.9
    endloop
  endfacet
  facet normal 0 0 1
    outer loop
      vertex 89.4805 -64.3701 0.9
      vertex 88.4805 -64.3701 0.9
      vertex 89.4805 -71.2111 0.9
    endloop
  endfacet
  facet normal 0 0 1
    outer loop
      vertex 88.4805 -64.3701 0.9
      vertex 89.4043 -63.9874 0.9
      vertex 89.1876 -63.663 0.9
    endloop
  endfacet
  facet normal 0 0 1
    outer loop
      vertex 89.5043 -71.4554 0.9
      vertex 88.4805 -71.2598 0.9
      vertex 88.5186 -71.6504 0.9
    endloop
  endfacet
  facet normal 0 0 1
    outer loop
      vertex 88.4805 -64.3701 0.9
      vertex 89.1876 -63.663 0.9
      vertex 88.8632 -63.4462 0.9
    endloop
  endfacet
  facet normal 0 0 1
    outer loop
      vertex 89.7761 -71.9634 0.9
      vertex 89.0654 -72.6738 0.9
      vertex 89.3691 -72.9229 0.9
    endloop
  endfacet
  facet normal 0 0 1
    outer loop
      vertex 89.6525 -71.8125 0.9
      vertex 88.8174 -72.3711 0.9
      vertex 89.0654 -72.6738 0.9
    endloop
  endfacet
  facet normal 0 0 1
    outer loop
      vertex 89.5602 -71.6406 0.9
      vertex 88.6318 -72.0254 0.9
      vertex 88.8174 -72.3711 0.9
    endloop
  endfacet
  facet normal 0 0 1
    outer loop
      vertex 88.4805 -64.3701 0.9
      vertex 88.8632 -63.4462 0.9
      vertex 88.4805 -63.3701 0.9
    endloop
  endfacet
  facet normal 0 0 1
    outer loop
      vertex 89.4805 -71.2111 0.9
      vertex 88.4805 -64.3701 0.9
      vertex 88.4805 -71.2598 0.9
    endloop
  endfacet
  facet normal 0 0 1
    outer loop
      vertex 89.5043 -71.4554 0.9
      vertex 88.5186 -71.6504 0.9
      vertex 88.6318 -72.0254 0.9
    endloop
  endfacet
  facet normal 0 0 1
    outer loop
      vertex 168.144 -133.333 0.9
      vertex 167.22 -132.95 0.9
      vertex 167.927 -133.657 0.9
    endloop
  endfacet
  facet normal 0 0 1
    outer loop
      vertex 167.22 -132.95 0.9
      vertex 155.227 -146.357 0.9
      vertex 167.927 -133.657 0.9
    endloop
  endfacet
  facet normal -0 0 1
    outer loop
      vertex 154.52 -145.65 0.9
      vertex 155.227 -146.357 0.9
      vertex 167.22 -132.95 0.9
    endloop
  endfacet
  facet normal 0 0 1
    outer loop
      vertex 155.227 -146.357 0.9
      vertex 154.52 -145.65 0.9
      vertex 154.902 -146.574 0.9
    endloop
  endfacet
  facet normal 0 0 1
    outer loop
      vertex 154.52 -145.65 0.9
      vertex 154.52 -146.65 0.9
      vertex 154.902 -146.574 0.9
    endloop
  endfacet
  facet normal -0 0 1
    outer loop
      vertex 121.5 -145.65 0.9
      vertex 154.52 -146.65 0.9
      vertex 154.52 -145.65 0.9
    endloop
  endfacet
  facet normal 0 0 1
    outer loop
      vertex 154.52 -146.65 0.9
      vertex 121.5 -145.65 0.9
      vertex 121.5 -146.65 0.9
    endloop
  endfacet
  facet normal 0 0 1
    outer loop
      vertex 121.5 -145.65 0.9
      vertex 120.576 -146.033 0.9
      vertex 120.793 -146.357 0.9
    endloop
  endfacet
  facet normal -0 0 1
    outer loop
      vertex 70.7002 -63.3701 0.9
      vertex 88.4805 -64.3701 0.9
      vertex 88.4805 -63.3701 0.9
    endloop
  endfacet
  facet normal 0 0 1
    outer loop
      vertex 70.7002 -63.3701 0.9
      vertex 70.7002 -64.3701 0.9
      vertex 88.4805 -64.3701 0.9
    endloop
  endfacet
  facet normal -0 0 1
    outer loop
      vertex 70.3175 -63.4462 0.9
      vertex 70.7002 -64.3701 0.9
      vertex 70.7002 -63.3701 0.9
    endloop
  endfacet
  facet normal -0 0 1
    outer loop
      vertex 69.9931 -63.663 0.9
      vertex 70.7002 -64.3701 0.9
      vertex 70.3175 -63.4462 0.9
    endloop
  endfacet
  facet normal 0 0 1
    outer loop
      vertex 69.9931 -63.663 0.9
      vertex 68.1602 -66.9102 0.9
      vertex 70.7002 -64.3701 0.9
    endloop
  endfacet
  facet normal 0 0 1
    outer loop
      vertex 67.1602 -66.9102 0.9
      vertex 68.1602 -66.9102 0.9
      vertex 67.453 -66.203 0.9
    endloop
  endfacet
  facet normal -0 0 1
    outer loop
      vertex 67.453 -66.203 0.9
      vertex 68.1602 -66.9102 0.9
      vertex 69.9931 -63.663 0.9
    endloop
  endfacet
  facet normal 0.556 -0.831182 0
    outer loop
      vertex 88.8632 -146.574 0
      vertex 89.1876 -146.357 0.9
      vertex 88.8632 -146.574 0.9
    endloop
  endfacet
  facet normal 0.556 -0.831182 0
    outer loop
      vertex 89.1876 -146.357 0.9
      vertex 88.8632 -146.574 0
      vertex 89.1876 -146.357 0
    endloop
  endfacet
  facet normal 0.831221 -0.555943 0
    outer loop
      vertex 89.1876 -146.357 0.9
      vertex 89.4043 -146.033 0
      vertex 89.4043 -146.033 0.9
    endloop
  endfacet
  facet normal 0.831221 -0.555943 0
    outer loop
      vertex 89.4043 -146.033 0
      vertex 89.1876 -146.357 0.9
      vertex 89.1876 -146.357 0
    endloop
  endfacet
  facet normal 0.980777 -0.195131 0
    outer loop
      vertex 89.4043 -146.033 0.9
      vertex 89.4805 -145.65 0
      vertex 89.4805 -145.65 0.9
    endloop
  endfacet
  facet normal 0.980777 -0.195131 0
    outer loop
      vertex 89.4805 -145.65 0
      vertex 89.4043 -146.033 0.9
      vertex 89.4043 -146.033 0
    endloop
  endfacet
  facet normal 1 -0 0
    outer loop
      vertex 89.4805 -145.65 0.9
      vertex 89.4805 -138.808 0
      vertex 89.4805 -138.808 0.9
    endloop
  endfacet
  facet normal 1 0 0
    outer loop
      vertex 89.4805 -138.808 0
      vertex 89.4805 -145.65 0.9
      vertex 89.4805 -145.65 0
    endloop
  endfacet
  facet normal 0.995278 -0.0970703 0
    outer loop
      vertex 89.4805 -138.808 0.9
      vertex 89.5042 -138.565 0
      vertex 89.5042 -138.565 0.9
    endloop
  endfacet
  facet normal 0.995278 -0.0970703 0
    outer loop
      vertex 89.5042 -138.565 0
      vertex 89.4805 -138.808 0.9
      vertex 89.4805 -138.808 0
    endloop
  endfacet
  facet normal 0.957258 -0.289236 0
    outer loop
      vertex 89.5042 -138.565 0.9
      vertex 89.5604 -138.379 0
      vertex 89.5604 -138.379 0.9
    endloop
  endfacet
  facet normal 0.957258 -0.289236 0
    outer loop
      vertex 89.5604 -138.379 0
      vertex 89.5042 -138.565 0.9
      vertex 89.5042 -138.565 0
    endloop
  endfacet
  facet normal 0.880718 -0.473642 0
    outer loop
      vertex 89.5604 -138.379 0.9
      vertex 89.6529 -138.207 0
      vertex 89.6529 -138.207 0.9
    endloop
  endfacet
  facet normal 0.880718 -0.473642 0
    outer loop
      vertex 89.6529 -138.207 0
      vertex 89.5604 -138.379 0.9
      vertex 89.5604 -138.379 0
    endloop
  endfacet
  facet normal 0.774825 -0.632175 0
    outer loop
      vertex 89.6529 -138.207 0.9
      vertex 89.7761 -138.056 0
      vertex 89.7761 -138.056 0.9
    endloop
  endfacet
  facet normal 0.774825 -0.632175 0
    outer loop
      vertex 89.7761 -138.056 0
      vertex 89.6529 -138.207 0.9
      vertex 89.6529 -138.207 0
    endloop
  endfacet
  facet normal 0.634881 -0.77261 0
    outer loop
      vertex 89.7761 -138.056 0
      vertex 89.927 -137.932 0.9
      vertex 89.7761 -138.056 0.9
    endloop
  endfacet
  facet normal 0.634881 -0.77261 0
    outer loop
      vertex 89.927 -137.932 0.9
      vertex 89.7761 -138.056 0
      vertex 89.927 -137.932 0
    endloop
  endfacet
  facet normal 0.468503 -0.883462 0
    outer loop
      vertex 89.927 -137.932 0
      vertex 90.0986 -137.841 0.9
      vertex 89.927 -137.932 0.9
    endloop
  endfacet
  facet normal 0.468503 -0.883462 0
    outer loop
      vertex 90.0986 -137.841 0.9
      vertex 89.927 -137.932 0
      vertex 90.0986 -137.841 0
    endloop
  endfacet
  facet normal 0.290999 -0.956723 0
    outer loop
      vertex 90.0986 -137.841 0
      vertex 90.286 -137.784 0.9
      vertex 90.0986 -137.841 0.9
    endloop
  endfacet
  facet normal 0.290999 -0.956723 0
    outer loop
      vertex 90.286 -137.784 0.9
      vertex 90.0986 -137.841 0
      vertex 90.286 -137.784 0
    endloop
  endfacet
  facet normal 0.0977296 -0.995213 0
    outer loop
      vertex 90.286 -137.784 0
      vertex 90.5304 -137.76 0.9
      vertex 90.286 -137.784 0.9
    endloop
  endfacet
  facet normal 0.0977296 -0.995213 0
    outer loop
      vertex 90.5304 -137.76 0.9
      vertex 90.286 -137.784 0
      vertex 90.5304 -137.76 0
    endloop
  endfacet
  facet normal 0 -1 0
    outer loop
      vertex 90.5304 -137.76 0
      vertex 119.45 -137.76 0.9
      vertex 90.5304 -137.76 0.9
    endloop
  endfacet
  facet normal 0 -1 -0
    outer loop
      vertex 119.45 -137.76 0.9
      vertex 90.5304 -137.76 0
      vertex 119.45 -137.76 0
    endloop
  endfacet
  facet normal -0.0978883 -0.995197 0
    outer loop
      vertex 119.45 -137.76 0
      vertex 119.694 -137.784 0.9
      vertex 119.45 -137.76 0.9
    endloop
  endfacet
  facet normal -0.0978883 -0.995197 -0
    outer loop
      vertex 119.694 -137.784 0.9
      vertex 119.45 -137.76 0
      vertex 119.694 -137.784 0
    endloop
  endfacet
  facet normal -0.290149 -0.956982 0
    outer loop
      vertex 119.694 -137.784 0
      vertex 119.882 -137.841 0.9
      vertex 119.694 -137.784 0.9
    endloop
  endfacet
  facet normal -0.290149 -0.956982 -0
    outer loop
      vertex 119.882 -137.841 0.9
      vertex 119.694 -137.784 0
      vertex 119.882 -137.841 0
    endloop
  endfacet
  facet normal -0.469784 -0.882781 0
    outer loop
      vertex 119.882 -137.841 0
      vertex 120.053 -137.932 0.9
      vertex 119.882 -137.841 0.9
    endloop
  endfacet
  facet normal -0.469784 -0.882781 -0
    outer loop
      vertex 120.053 -137.932 0.9
      vertex 119.882 -137.841 0
      vertex 120.053 -137.932 0
    endloop
  endfacet
  facet normal -0.63463 -0.772816 0
    outer loop
      vertex 120.053 -137.932 0
      vertex 120.204 -138.056 0.9
      vertex 120.053 -137.932 0.9
    endloop
  endfacet
  facet normal -0.63463 -0.772816 -0
    outer loop
      vertex 120.204 -138.056 0.9
      vertex 120.053 -137.932 0
      vertex 120.204 -138.056 0
    endloop
  endfacet
  facet normal -0.775328 -0.631559 0
    outer loop
      vertex 120.327 -138.207 0
      vertex 120.204 -138.056 0.9
      vertex 120.204 -138.056 0
    endloop
  endfacet
  facet normal -0.775328 -0.631559 0
    outer loop
      vertex 120.204 -138.056 0.9
      vertex 120.327 -138.207 0
      vertex 120.327 -138.207 0.9
    endloop
  endfacet
  facet normal -0.881785 -0.471652 0
    outer loop
      vertex 120.419 -138.379 0
      vertex 120.327 -138.207 0.9
      vertex 120.327 -138.207 0
    endloop
  endfacet
  facet normal -0.881785 -0.471652 0
    outer loop
      vertex 120.327 -138.207 0.9
      vertex 120.419 -138.379 0
      vertex 120.419 -138.379 0.9
    endloop
  endfacet
  facet normal -0.95655 -0.291569 0
    outer loop
      vertex 120.476 -138.566 0
      vertex 120.419 -138.379 0.9
      vertex 120.419 -138.379 0
    endloop
  endfacet
  facet normal -0.95655 -0.291569 0
    outer loop
      vertex 120.419 -138.379 0.9
      vertex 120.476 -138.566 0
      vertex 120.476 -138.566 0.9
    endloop
  endfacet
  facet normal -0.995118 -0.0986894 0
    outer loop
      vertex 120.5 -138.808 0
      vertex 120.476 -138.566 0.9
      vertex 120.476 -138.566 0
    endloop
  endfacet
  facet normal -0.995118 -0.0986894 0
    outer loop
      vertex 120.476 -138.566 0.9
      vertex 120.5 -138.808 0
      vertex 120.5 -138.808 0.9
    endloop
  endfacet
  facet normal -1 0 0
    outer loop
      vertex 120.5 -145.65 0
      vertex 120.5 -138.808 0.9
      vertex 120.5 -138.808 0
    endloop
  endfacet
  facet normal -1 -0 0
    outer loop
      vertex 120.5 -138.808 0.9
      vertex 120.5 -145.65 0
      vertex 120.5 -145.65 0.9
    endloop
  endfacet
  facet normal -0.980875 -0.194638 0
    outer loop
      vertex 120.576 -146.033 0
      vertex 120.5 -145.65 0.9
      vertex 120.5 -145.65 0
    endloop
  endfacet
  facet normal -0.980875 -0.194638 0
    outer loop
      vertex 120.5 -145.65 0.9
      vertex 120.576 -146.033 0
      vertex 120.576 -146.033 0.9
    endloop
  endfacet
  facet normal -0.830865 -0.556474 0
    outer loop
      vertex 120.793 -146.357 0
      vertex 120.576 -146.033 0.9
      vertex 120.576 -146.033 0
    endloop
  endfacet
  facet normal -0.830865 -0.556474 0
    outer loop
      vertex 120.576 -146.033 0.9
      vertex 120.793 -146.357 0
      vertex 120.793 -146.357 0.9
    endloop
  endfacet
  facet normal -0.556474 -0.830865 0
    outer loop
      vertex 120.793 -146.357 0
      vertex 121.117 -146.574 0.9
      vertex 120.793 -146.357 0.9
    endloop
  endfacet
  facet normal -0.556474 -0.830865 -0
    outer loop
      vertex 121.117 -146.574 0.9
      vertex 120.793 -146.357 0
      vertex 121.117 -146.574 0
    endloop
  endfacet
  facet normal -0.194638 -0.980875 0
    outer loop
      vertex 121.117 -146.574 0
      vertex 121.5 -146.65 0.9
      vertex 121.117 -146.574 0.9
    endloop
  endfacet
  facet normal -0.194638 -0.980875 -0
    outer loop
      vertex 121.5 -146.65 0.9
      vertex 121.117 -146.574 0
      vertex 121.5 -146.65 0
    endloop
  endfacet
  facet normal 0 -1 0
    outer loop
      vertex 121.5 -146.65 0
      vertex 154.52 -146.65 0.9
      vertex 121.5 -146.65 0.9
    endloop
  endfacet
  facet normal 0 -1 -0
    outer loop
      vertex 154.52 -146.65 0.9
      vertex 121.5 -146.65 0
      vertex 154.52 -146.65 0
    endloop
  endfacet
  facet normal 0.195129 -0.980778 0
    outer loop
      vertex 154.52 -146.65 0
      vertex 154.902 -146.574 0.9
      vertex 154.52 -146.65 0.9
    endloop
  endfacet
  facet normal 0.195129 -0.980778 0
    outer loop
      vertex 154.902 -146.574 0.9
      vertex 154.52 -146.65 0
      vertex 154.902 -146.574 0
    endloop
  endfacet
  facet normal 0.555291 -0.831656 0
    outer loop
      vertex 154.902 -146.574 0
      vertex 155.227 -146.357 0.9
      vertex 154.902 -146.574 0.9
    endloop
  endfacet
  facet normal 0.555291 -0.831656 0
    outer loop
      vertex 155.227 -146.357 0.9
      vertex 154.902 -146.574 0
      vertex 155.227 -146.357 0
    endloop
  endfacet
  facet normal 0.707107 -0.707107 0
    outer loop
      vertex 155.227 -146.357 0.9
      vertex 167.927 -133.657 0
      vertex 167.927 -133.657 0.9
    endloop
  endfacet
  facet normal 0.707107 -0.707107 0
    outer loop
      vertex 167.927 -133.657 0
      vertex 155.227 -146.357 0.9
      vertex 155.227 -146.357 0
    endloop
  endfacet
  facet normal 0.830865 -0.556474 0
    outer loop
      vertex 167.927 -133.657 0.9
      vertex 168.144 -133.333 0
      vertex 168.144 -133.333 0.9
    endloop
  endfacet
  facet normal 0.830865 -0.556474 0
    outer loop
      vertex 168.144 -133.333 0
      vertex 167.927 -133.657 0.9
      vertex 167.927 -133.657 0
    endloop
  endfacet
  facet normal 0.980875 -0.194638 0
    outer loop
      vertex 168.144 -133.333 0.9
      vertex 168.22 -132.95 0
      vertex 168.22 -132.95 0.9
    endloop
  endfacet
  facet normal 0.980875 -0.194638 0
    outer loop
      vertex 168.22 -132.95 0
      vertex 168.144 -133.333 0.9
      vertex 168.144 -133.333 0
    endloop
  endfacet
  facet normal 1 -0 0
    outer loop
      vertex 168.22 -132.95 0.9
      vertex 168.22 -77.0703 0
      vertex 168.22 -77.0703 0.9
    endloop
  endfacet
  facet normal 1 0 0
    outer loop
      vertex 168.22 -77.0703 0
      vertex 168.22 -132.95 0.9
      vertex 168.22 -132.95 0
    endloop
  endfacet
  facet normal 0.980846 0.194785 0
    outer loop
      vertex 168.22 -77.0703 0.9
      vertex 168.144 -76.6876 0
      vertex 168.144 -76.6876 0.9
    endloop
  endfacet
  facet normal 0.980846 0.194785 0
    outer loop
      vertex 168.144 -76.6876 0
      vertex 168.22 -77.0703 0.9
      vertex 168.22 -77.0703 0
    endloop
  endfacet
  facet normal 0.831182 0.556 0
    outer loop
      vertex 168.144 -76.6876 0.9
      vertex 167.927 -76.3632 0
      vertex 167.927 -76.3632 0.9
    endloop
  endfacet
  facet normal 0.831182 0.556 0
    outer loop
      vertex 167.927 -76.3632 0
      vertex 168.144 -76.6876 0.9
      vertex 168.144 -76.6876 0
    endloop
  endfacet
  facet normal 0.707112 0.707101 0
    outer loop
      vertex 167.927 -76.3632 0.9
      vertex 155.227 -63.663 0
      vertex 155.227 -63.663 0.9
    endloop
  endfacet
  facet normal 0.707112 0.707101 0
    outer loop
      vertex 155.227 -63.663 0
      vertex 167.927 -76.3632 0.9
      vertex 167.927 -76.3632 0
    endloop
  endfacet
  facet normal 0.554936 0.831893 -0
    outer loop
      vertex 155.227 -63.663 0
      vertex 154.902 -63.4462 0.9
      vertex 155.227 -63.663 0.9
    endloop
  endfacet
  facet normal 0.554936 0.831893 0
    outer loop
      vertex 154.902 -63.4462 0.9
      vertex 155.227 -63.663 0
      vertex 154.902 -63.4462 0
    endloop
  endfacet
  facet normal 0.195375 0.980729 -0
    outer loop
      vertex 154.902 -63.4462 0
      vertex 154.52 -63.3701 0.9
      vertex 154.902 -63.4462 0.9
    endloop
  endfacet
  facet normal 0.195375 0.980729 0
    outer loop
      vertex 154.52 -63.3701 0.9
      vertex 154.902 -63.4462 0
      vertex 154.52 -63.3701 0
    endloop
  endfacet
  facet normal 0 1 -0
    outer loop
      vertex 154.52 -63.3701 0
      vertex 121.5 -63.3701 0.9
      vertex 154.52 -63.3701 0.9
    endloop
  endfacet
  facet normal 0 1 0
    outer loop
      vertex 121.5 -63.3701 0.9
      vertex 154.52 -63.3701 0
      vertex 121.5 -63.3701 0
    endloop
  endfacet
  facet normal -0.194885 0.980826 0
    outer loop
      vertex 121.5 -63.3701 0
      vertex 121.117 -63.4462 0.9
      vertex 121.5 -63.3701 0.9
    endloop
  endfacet
  facet normal -0.194885 0.980826 0
    outer loop
      vertex 121.117 -63.4462 0.9
      vertex 121.5 -63.3701 0
      vertex 121.117 -63.4462 0
    endloop
  endfacet
  facet normal -0.55612 0.831102 0
    outer loop
      vertex 121.117 -63.4462 0
      vertex 120.793 -63.663 0.9
      vertex 121.117 -63.4462 0.9
    endloop
  endfacet
  facet normal -0.55612 0.831102 0
    outer loop
      vertex 120.793 -63.663 0.9
      vertex 121.117 -63.4462 0
      vertex 120.793 -63.663 0
    endloop
  endfacet
  facet normal -0.831182 0.556 0
    outer loop
      vertex 120.576 -63.9874 0
      vertex 120.793 -63.663 0.9
      vertex 120.793 -63.663 0
    endloop
  endfacet
  facet normal -0.831182 0.556 0
    outer loop
      vertex 120.793 -63.663 0.9
      vertex 120.576 -63.9874 0
      vertex 120.576 -63.9874 0.9
    endloop
  endfacet
  facet normal -0.980846 0.194785 0
    outer loop
      vertex 120.5 -64.3701 0
      vertex 120.576 -63.9874 0.9
      vertex 120.576 -63.9874 0
    endloop
  endfacet
  facet normal -0.980846 0.194785 0
    outer loop
      vertex 120.576 -63.9874 0.9
      vertex 120.5 -64.3701 0
      vertex 120.5 -64.3701 0.9
    endloop
  endfacet
  facet normal -1 0 0
    outer loop
      vertex 120.5 -71.2111 0
      vertex 120.5 -64.3701 0.9
      vertex 120.5 -64.3701 0
    endloop
  endfacet
  facet normal -1 -0 0
    outer loop
      vertex 120.5 -64.3701 0.9
      vertex 120.5 -71.2111 0
      vertex 120.5 -71.2111 0.9
    endloop
  endfacet
  facet normal -0.995162 0.0982472 0
    outer loop
      vertex 120.476 -71.4542 0
      vertex 120.5 -71.2111 0.9
      vertex 120.5 -71.2111 0
    endloop
  endfacet
  facet normal -0.995162 0.0982472 0
    outer loop
      vertex 120.5 -71.2111 0.9
      vertex 120.476 -71.4542 0
      vertex 120.476 -71.4542 0.9
    endloop
  endfacet
  facet normal -0.957713 0.287725 0
    outer loop
      vertex 120.42 -71.6406 0
      vertex 120.476 -71.4542 0.9
      vertex 120.476 -71.4542 0
    endloop
  endfacet
  facet normal -0.957713 0.287725 0
    outer loop
      vertex 120.476 -71.4542 0.9
      vertex 120.42 -71.6406 0
      vertex 120.42 -71.6406 0.9
    endloop
  endfacet
  facet normal -0.881671 0.471866 0
    outer loop
      vertex 120.328 -71.8125 0
      vertex 120.42 -71.6406 0.9
      vertex 120.42 -71.6406 0
    endloop
  endfacet
  facet normal -0.881671 0.471866 0
    outer loop
      vertex 120.42 -71.6406 0.9
      vertex 120.328 -71.8125 0
      vertex 120.328 -71.8125 0.9
    endloop
  endfacet
  facet normal -0.77261 0.634881 0
    outer loop
      vertex 120.204 -71.9634 0
      vertex 120.328 -71.8125 0.9
      vertex 120.328 -71.8125 0
    endloop
  endfacet
  facet normal -0.77261 0.634881 0
    outer loop
      vertex 120.328 -71.8125 0.9
      vertex 120.204 -71.9634 0
      vertex 120.204 -71.9634 0.9
    endloop
  endfacet
  facet normal -0.634936 0.772565 0
    outer loop
      vertex 120.204 -71.9634 0
      vertex 120.053 -72.0875 0.9
      vertex 120.204 -71.9634 0.9
    endloop
  endfacet
  facet normal -0.634936 0.772565 0
    outer loop
      vertex 120.053 -72.0875 0.9
      vertex 120.204 -71.9634 0
      vertex 120.053 -72.0875 0
    endloop
  endfacet
  facet normal -0.470854 0.882211 0
    outer loop
      vertex 120.053 -72.0875 0
      vertex 119.881 -72.1793 0.9
      vertex 120.053 -72.0875 0.9
    endloop
  endfacet
  facet normal -0.470854 0.882211 0
    outer loop
      vertex 119.881 -72.1793 0.9
      vertex 120.053 -72.0875 0
      vertex 119.881 -72.1793 0
    endloop
  endfacet
  facet normal -0.290632 0.956835 0
    outer loop
      vertex 119.881 -72.1793 0
      vertex 119.694 -72.2361 0.9
      vertex 119.881 -72.1793 0.9
    endloop
  endfacet
  facet normal -0.290632 0.956835 0
    outer loop
      vertex 119.694 -72.2361 0.9
      vertex 119.881 -72.1793 0
      vertex 119.694 -72.2361 0
    endloop
  endfacet
  facet normal -0.0970703 0.995278 0
    outer loop
      vertex 119.694 -72.2361 0
      vertex 119.451 -72.2598 0.9
      vertex 119.694 -72.2361 0.9
    endloop
  endfacet
  facet normal -0.0970703 0.995278 0
    outer loop
      vertex 119.451 -72.2598 0.9
      vertex 119.694 -72.2361 0
      vertex 119.451 -72.2598 0
    endloop
  endfacet
  facet normal 0 1 -0
    outer loop
      vertex 119.451 -72.2598 0
      vertex 90.5292 -72.2598 0.9
      vertex 119.451 -72.2598 0.9
    endloop
  endfacet
  facet normal 0 1 0
    outer loop
      vertex 90.5292 -72.2598 0.9
      vertex 119.451 -72.2598 0
      vertex 90.5292 -72.2598 0
    endloop
  endfacet
  facet normal 0.0969912 0.995285 -0
    outer loop
      vertex 90.5292 -72.2598 0
      vertex 90.286 -72.2361 0.9
      vertex 90.5292 -72.2598 0.9
    endloop
  endfacet
  facet normal 0.0969912 0.995285 0
    outer loop
      vertex 90.286 -72.2361 0.9
      vertex 90.5292 -72.2598 0
      vertex 90.286 -72.2361 0
    endloop
  endfacet
  facet normal 0.291631 0.956531 -0
    outer loop
      vertex 90.286 -72.2361 0
      vertex 90.0997 -72.1793 0.9
      vertex 90.286 -72.2361 0.9
    endloop
  endfacet
  facet normal 0.291631 0.956531 0
    outer loop
      vertex 90.0997 -72.1793 0.9
      vertex 90.286 -72.2361 0
      vertex 90.0997 -72.1793 0
    endloop
  endfacet
  facet normal 0.470959 0.882155 -0
    outer loop
      vertex 90.0997 -72.1793 0
      vertex 89.927 -72.0871 0.9
      vertex 90.0997 -72.1793 0.9
    endloop
  endfacet
  facet normal 0.470959 0.882155 0
    outer loop
      vertex 89.927 -72.0871 0.9
      vertex 90.0997 -72.1793 0
      vertex 89.927 -72.0871 0
    endloop
  endfacet
  facet normal 0.633963 0.773363 -0
    outer loop
      vertex 89.927 -72.0871 0
      vertex 89.7761 -71.9634 0.9
      vertex 89.927 -72.0871 0.9
    endloop
  endfacet
  facet normal 0.633963 0.773363 0
    outer loop
      vertex 89.7761 -71.9634 0.9
      vertex 89.927 -72.0871 0
      vertex 89.7761 -71.9634 0
    endloop
  endfacet
  facet normal 0.773615 0.633656 0
    outer loop
      vertex 89.7761 -71.9634 0.9
      vertex 89.6525 -71.8125 0
      vertex 89.6525 -71.8125 0.9
    endloop
  endfacet
  facet normal 0.773615 0.633656 0
    outer loop
      vertex 89.6525 -71.8125 0
      vertex 89.7761 -71.9634 0.9
      vertex 89.7761 -71.9634 0
    endloop
  endfacet
  facet normal 0.88103 0.47306 0
    outer loop
      vertex 89.6525 -71.8125 0.9
      vertex 89.5602 -71.6406 0
      vertex 89.5602 -71.6406 0.9
    endloop
  endfacet
  facet normal 0.88103 0.47306 0
    outer loop
      vertex 89.5602 -71.6406 0
      vertex 89.6525 -71.8125 0.9
      vertex 89.6525 -71.8125 0
    endloop
  endfacet
  facet normal 0.957341 0.28896 0
    outer loop
      vertex 89.5602 -71.6406 0.9
      vertex 89.5043 -71.4554 0
      vertex 89.5043 -71.4554 0.9
    endloop
  endfacet
  facet normal 0.957341 0.28896 0
    outer loop
      vertex 89.5043 -71.4554 0
      vertex 89.5602 -71.6406 0.9
      vertex 89.5602 -71.6406 0
    endloop
  endfacet
  facet normal 0.995288 0.0969622 0
    outer loop
      vertex 89.5043 -71.4554 0.9
      vertex 89.4805 -71.2111 0
      vertex 89.4805 -71.2111 0.9
    endloop
  endfacet
  facet normal 0.995288 0.0969622 0
    outer loop
      vertex 89.4805 -71.2111 0
      vertex 89.5043 -71.4554 0.9
      vertex 89.5043 -71.4554 0
    endloop
  endfacet
  facet normal 1 -0 0
    outer loop
      vertex 89.4805 -71.2111 0.9
      vertex 89.4805 -64.3701 0
      vertex 89.4805 -64.3701 0.9
    endloop
  endfacet
  facet normal 1 0 0
    outer loop
      vertex 89.4805 -64.3701 0
      vertex 89.4805 -71.2111 0.9
      vertex 89.4805 -71.2111 0
    endloop
  endfacet
  facet normal 0.980748 0.195278 0
    outer loop
      vertex 89.4805 -64.3701 0.9
      vertex 89.4043 -63.9874 0
      vertex 89.4043 -63.9874 0.9
    endloop
  endfacet
  facet normal 0.980748 0.195278 0
    outer loop
      vertex 89.4043 -63.9874 0
      vertex 89.4805 -64.3701 0.9
      vertex 89.4805 -64.3701 0
    endloop
  endfacet
  facet normal 0.831537 0.555469 0
    outer loop
      vertex 89.4043 -63.9874 0.9
      vertex 89.1876 -63.663 0
      vertex 89.1876 -63.663 0.9
    endloop
  endfacet
  facet normal 0.831537 0.555469 0
    outer loop
      vertex 89.1876 -63.663 0
      vertex 89.4043 -63.9874 0.9
      vertex 89.4043 -63.9874 0
    endloop
  endfacet
  facet normal 0.555646 0.831419 -0
    outer loop
      vertex 89.1876 -63.663 0
      vertex 88.8632 -63.4462 0.9
      vertex 89.1876 -63.663 0.9
    endloop
  endfacet
  facet normal 0.555646 0.831419 0
    outer loop
      vertex 88.8632 -63.4462 0.9
      vertex 89.1876 -63.663 0
      vertex 88.8632 -63.4462 0
    endloop
  endfacet
  facet normal 0.195032 0.980797 -0
    outer loop
      vertex 88.8632 -63.4462 0
      vertex 88.4805 -63.3701 0.9
      vertex 88.8632 -63.4462 0.9
    endloop
  endfacet
  facet normal 0.195032 0.980797 0
    outer loop
      vertex 88.4805 -63.3701 0.9
      vertex 88.8632 -63.4462 0
      vertex 88.4805 -63.3701 0
    endloop
  endfacet
  facet normal 0 1 -0
    outer loop
      vertex 88.4805 -63.3701 0
      vertex 70.7002 -63.3701 0.9
      vertex 88.4805 -63.3701 0.9
    endloop
  endfacet
  facet normal 0 1 0
    outer loop
      vertex 70.7002 -63.3701 0.9
      vertex 88.4805 -63.3701 0
      vertex 70.7002 -63.3701 0
    endloop
  endfacet
  facet normal -0.195032 0.980797 0
    outer loop
      vertex 70.7002 -63.3701 0
      vertex 70.3175 -63.4462 0.9
      vertex 70.7002 -63.3701 0.9
    endloop
  endfacet
  facet normal -0.195032 0.980797 0
    outer loop
      vertex 70.3175 -63.4462 0.9
      vertex 70.7002 -63.3701 0
      vertex 70.3175 -63.4462 0
    endloop
  endfacet
  facet normal -0.555646 0.831419 0
    outer loop
      vertex 70.3175 -63.4462 0
      vertex 69.9931 -63.663 0.9
      vertex 70.3175 -63.4462 0.9
    endloop
  endfacet
  facet normal -0.555646 0.831419 0
    outer loop
      vertex 69.9931 -63.663 0.9
      vertex 70.3175 -63.4462 0
      vertex 69.9931 -63.663 0
    endloop
  endfacet
  facet normal -0.707093 0.707121 0
    outer loop
      vertex 67.453 -66.203 0
      vertex 69.9931 -63.663 0.9
      vertex 69.9931 -63.663 0
    endloop
  endfacet
  facet normal -0.707093 0.707121 0
    outer loop
      vertex 69.9931 -63.663 0.9
      vertex 67.453 -66.203 0
      vertex 67.453 -66.203 0.9
    endloop
  endfacet
  facet normal -0.831616 0.555351 0
    outer loop
      vertex 67.2363 -66.5275 0
      vertex 67.453 -66.203 0.9
      vertex 67.453 -66.203 0
    endloop
  endfacet
  facet normal -0.831616 0.555351 0
    outer loop
      vertex 67.453 -66.203 0.9
      vertex 67.2363 -66.5275 0
      vertex 67.2363 -66.5275 0.9
    endloop
  endfacet
  facet normal -0.980797 0.195032 0
    outer loop
      vertex 67.1602 -66.9102 0
      vertex 67.2363 -66.5275 0.9
      vertex 67.2363 -66.5275 0
    endloop
  endfacet
  facet normal -0.980797 0.195032 0
    outer loop
      vertex 67.2363 -66.5275 0.9
      vertex 67.1602 -66.9102 0
      vertex 67.1602 -66.9102 0.9
    endloop
  endfacet
  facet normal -1 0 0
    outer loop
      vertex 67.1602 -143.11 0
      vertex 67.1602 -66.9102 0.9
      vertex 67.1602 -66.9102 0
    endloop
  endfacet
  facet normal -1 -0 0
    outer loop
      vertex 67.1602 -66.9102 0.9
      vertex 67.1602 -143.11 0
      vertex 67.1602 -143.11 0.9
    endloop
  endfacet
  facet normal -0.980826 -0.194885 0
    outer loop
      vertex 67.2363 -143.493 0
      vertex 67.1602 -143.11 0.9
      vertex 67.1602 -143.11 0
    endloop
  endfacet
  facet normal -0.980826 -0.194885 0
    outer loop
      vertex 67.1602 -143.11 0.9
      vertex 67.2363 -143.493 0
      vertex 67.2363 -143.493 0.9
    endloop
  endfacet
  facet normal -0.831221 -0.555943 0
    outer loop
      vertex 67.453 -143.817 0
      vertex 67.2363 -143.493 0.9
      vertex 67.2363 -143.493 0
    endloop
  endfacet
  facet normal -0.831221 -0.555943 0
    outer loop
      vertex 67.2363 -143.493 0.9
      vertex 67.453 -143.817 0
      vertex 67.453 -143.817 0.9
    endloop
  endfacet
  facet normal -0.707093 -0.707121 0
    outer loop
      vertex 69.9931 -146.357 0
      vertex 67.453 -143.817 0.9
      vertex 67.453 -143.817 0
    endloop
  endfacet
  facet normal -0.707093 -0.707121 0
    outer loop
      vertex 67.453 -143.817 0.9
      vertex 69.9931 -146.357 0
      vertex 69.9931 -146.357 0.9
    endloop
  endfacet
  facet normal -0.556 -0.831182 0
    outer loop
      vertex 69.9931 -146.357 0
      vertex 70.3175 -146.574 0.9
      vertex 69.9931 -146.357 0.9
    endloop
  endfacet
  facet normal -0.556 -0.831182 -0
    outer loop
      vertex 70.3175 -146.574 0.9
      vertex 69.9931 -146.357 0
      vertex 70.3175 -146.574 0
    endloop
  endfacet
  facet normal -0.194785 -0.980846 0
    outer loop
      vertex 70.3175 -146.574 0
      vertex 70.7002 -146.65 0.9
      vertex 70.3175 -146.574 0.9
    endloop
  endfacet
  facet normal -0.194785 -0.980846 -0
    outer loop
      vertex 70.7002 -146.65 0.9
      vertex 70.3175 -146.574 0
      vertex 70.7002 -146.65 0
    endloop
  endfacet
  facet normal 0 -1 0
    outer loop
      vertex 70.7002 -146.65 0
      vertex 88.4805 -146.65 0.9
      vertex 70.7002 -146.65 0.9
    endloop
  endfacet
  facet normal 0 -1 -0
    outer loop
      vertex 88.4805 -146.65 0.9
      vertex 70.7002 -146.65 0
      vertex 88.4805 -146.65 0
    endloop
  endfacet
  facet normal 0.194785 -0.980846 0
    outer loop
      vertex 88.4805 -146.65 0
      vertex 88.8632 -146.574 0.9
      vertex 88.4805 -146.65 0.9
    endloop
  endfacet
  facet normal 0.194785 -0.980846 0
    outer loop
      vertex 88.8632 -146.574 0.9
      vertex 88.4805 -146.65 0
      vertex 88.8632 -146.574 0
    endloop
  endfacet
  facet normal -0 0 1
    outer loop
      vertex 70.7002 -64.3701 0.2
      vertex 88.4805 -71.2598 0.2
      vertex 88.4805 -64.3701 0.2
    endloop
  endfacet
  facet normal 0 0 1
    outer loop
      vertex 88.4805 -71.2598 0.2
      vertex 68.1602 -66.9102 0.2
      vertex 88.4805 -138.76 0.2
    endloop
  endfacet
  facet normal 0 0 1
    outer loop
      vertex 88.4805 -71.2598 0.2
      vertex 70.7002 -64.3701 0.2
      vertex 68.1602 -66.9102 0.2
    endloop
  endfacet
  facet normal 0 0 1
    outer loop
      vertex 68.1602 -143.11 0.2
      vertex 88.4805 -138.76 0.2
      vertex 68.1602 -66.9102 0.2
    endloop
  endfacet
  facet normal 0 -0 1
    outer loop
      vertex 70.7002 -145.65 0.2
      vertex 88.4805 -138.76 0.2
      vertex 68.1602 -143.11 0.2
    endloop
  endfacet
  facet normal 0 0 1
    outer loop
      vertex 88.4805 -138.76 0.2
      vertex 70.7002 -145.65 0.2
      vertex 88.4805 -145.65 0.2
    endloop
  endfacet
  facet normal 0 0 1
    outer loop
      vertex 154.52 -64.3701 0.2
      vertex 121.163 -72.3711 0.2
      vertex 167.22 -77.0703 0.2
    endloop
  endfacet
  facet normal 0 0 1
    outer loop
      vertex 167.22 -132.95 0.2
      vertex 121.462 -138.37 0.2
      vertex 121.5 -138.76 0.2
    endloop
  endfacet
  facet normal -0 0 1
    outer loop
      vertex 120.914 -72.6738 0.2
      vertex 167.22 -77.0703 0.2
      vertex 121.163 -72.3711 0.2
    endloop
  endfacet
  facet normal 0 0 1
    outer loop
      vertex 167.22 -132.95 0.2
      vertex 121.348 -137.995 0.2
      vertex 121.462 -138.37 0.2
    endloop
  endfacet
  facet normal -0 0 1
    outer loop
      vertex 120.611 -72.9229 0.2
      vertex 167.22 -77.0703 0.2
      vertex 120.914 -72.6738 0.2
    endloop
  endfacet
  facet normal 0 0 1
    outer loop
      vertex 167.22 -132.95 0.2
      vertex 121.163 -137.648 0.2
      vertex 121.348 -137.995 0.2
    endloop
  endfacet
  facet normal 0 0 1
    outer loop
      vertex 167.22 -77.0703 0.2
      vertex 120.611 -72.9229 0.2
      vertex 167.22 -132.95 0.2
    endloop
  endfacet
  facet normal 0 0 1
    outer loop
      vertex 167.22 -132.95 0.2
      vertex 120.914 -137.346 0.2
      vertex 121.163 -137.648 0.2
    endloop
  endfacet
  facet normal 0 0 1
    outer loop
      vertex 120.611 -137.097 0.2
      vertex 167.22 -132.95 0.2
      vertex 120.611 -72.9229 0.2
    endloop
  endfacet
  facet normal 0 0 1
    outer loop
      vertex 167.22 -132.95 0.2
      vertex 120.611 -137.097 0.2
      vertex 120.914 -137.346 0.2
    endloop
  endfacet
  facet normal -0 0 1
    outer loop
      vertex 120.266 -73.1074 0.2
      vertex 120.611 -137.097 0.2
      vertex 120.611 -72.9229 0.2
    endloop
  endfacet
  facet normal 0 0 1
    outer loop
      vertex 120.266 -73.1074 0.2
      vertex 120.266 -136.912 0.2
      vertex 120.611 -137.097 0.2
    endloop
  endfacet
  facet normal -0 0 1
    outer loop
      vertex 119.891 -73.2217 0.2
      vertex 120.266 -136.912 0.2
      vertex 120.266 -73.1074 0.2
    endloop
  endfacet
  facet normal 0 0 1
    outer loop
      vertex 119.891 -73.2217 0.2
      vertex 119.891 -136.799 0.2
      vertex 120.266 -136.912 0.2
    endloop
  endfacet
  facet normal -0 0 1
    outer loop
      vertex 119.5 -73.2598 0.2
      vertex 119.891 -136.799 0.2
      vertex 119.891 -73.2217 0.2
    endloop
  endfacet
  facet normal 0 0 1
    outer loop
      vertex 119.5 -73.2598 0.2
      vertex 119.5 -136.76 0.2
      vertex 119.891 -136.799 0.2
    endloop
  endfacet
  facet normal -0 0 1
    outer loop
      vertex 90.4805 -73.2598 0.2
      vertex 119.5 -136.76 0.2
      vertex 119.5 -73.2598 0.2
    endloop
  endfacet
  facet normal 0 0 1
    outer loop
      vertex 90.4805 -73.2598 0.2
      vertex 90.4805 -136.76 0.2
      vertex 119.5 -136.76 0.2
    endloop
  endfacet
  facet normal 0 0 1
    outer loop
      vertex 90.0898 -73.2217 0.2
      vertex 90.4805 -136.76 0.2
      vertex 90.4805 -73.2598 0.2
    endloop
  endfacet
  facet normal 0 0 1
    outer loop
      vertex 90.0898 -73.2217 0.2
      vertex 90.0898 -136.799 0.2
      vertex 90.4805 -136.76 0.2
    endloop
  endfacet
  facet normal 0 0 1
    outer loop
      vertex 89.7148 -73.1074 0.2
      vertex 90.0898 -136.799 0.2
      vertex 90.0898 -73.2217 0.2
    endloop
  endfacet
  facet normal 0 0 1
    outer loop
      vertex 89.7148 -73.1074 0.2
      vertex 89.7148 -136.912 0.2
      vertex 90.0898 -136.799 0.2
    endloop
  endfacet
  facet normal 0 0 1
    outer loop
      vertex 89.3691 -72.9229 0.2
      vertex 89.7148 -136.912 0.2
      vertex 89.7148 -73.1074 0.2
    endloop
  endfacet
  facet normal 0 0 1
    outer loop
      vertex 89.3691 -72.9229 0.2
      vertex 89.3691 -137.097 0.2
      vertex 89.7148 -136.912 0.2
    endloop
  endfacet
  facet normal 0 0 1
    outer loop
      vertex 89.0654 -72.6738 0.2
      vertex 89.3691 -137.097 0.2
      vertex 89.3691 -72.9229 0.2
    endloop
  endfacet
  facet normal 0 0 1
    outer loop
      vertex 89.0654 -72.6738 0.2
      vertex 89.0654 -137.346 0.2
      vertex 89.3691 -137.097 0.2
    endloop
  endfacet
  facet normal 0 0 1
    outer loop
      vertex 88.8174 -72.3711 0.2
      vertex 89.0654 -137.346 0.2
      vertex 89.0654 -72.6738 0.2
    endloop
  endfacet
  facet normal 0 0 1
    outer loop
      vertex 88.8174 -72.3711 0.2
      vertex 88.8174 -137.648 0.2
      vertex 89.0654 -137.346 0.2
    endloop
  endfacet
  facet normal 0 0 1
    outer loop
      vertex 88.6318 -72.0254 0.2
      vertex 88.8174 -137.648 0.2
      vertex 88.8174 -72.3711 0.2
    endloop
  endfacet
  facet normal 0 0 1
    outer loop
      vertex 88.6318 -72.0254 0.2
      vertex 88.6318 -137.995 0.2
      vertex 88.8174 -137.648 0.2
    endloop
  endfacet
  facet normal 0 0 1
    outer loop
      vertex 88.5186 -71.6504 0.2
      vertex 88.6318 -137.995 0.2
      vertex 88.6318 -72.0254 0.2
    endloop
  endfacet
  facet normal 0 0 1
    outer loop
      vertex 88.5186 -71.6504 0.2
      vertex 88.5186 -138.37 0.2
      vertex 88.6318 -137.995 0.2
    endloop
  endfacet
  facet normal 0 0 1
    outer loop
      vertex 88.4805 -71.2598 0.2
      vertex 88.5186 -138.37 0.2
      vertex 88.5186 -71.6504 0.2
    endloop
  endfacet
  facet normal 0 0 1
    outer loop
      vertex 88.5186 -138.37 0.2
      vertex 88.4805 -71.2598 0.2
      vertex 88.4805 -138.76 0.2
    endloop
  endfacet
  facet normal 0 0 1
    outer loop
      vertex 121.462 -71.6504 0.2
      vertex 154.52 -64.3701 0.2
      vertex 121.5 -71.2598 0.2
    endloop
  endfacet
  facet normal 0 0 1
    outer loop
      vertex 121.348 -72.0254 0.2
      vertex 154.52 -64.3701 0.2
      vertex 121.462 -71.6504 0.2
    endloop
  endfacet
  facet normal 0 0 1
    outer loop
      vertex 121.5 -71.2598 0.2
      vertex 154.52 -64.3701 0.2
      vertex 121.5 -64.3701 0.2
    endloop
  endfacet
  facet normal 0 0 1
    outer loop
      vertex 121.163 -72.3711 0.2
      vertex 154.52 -64.3701 0.2
      vertex 121.348 -72.0254 0.2
    endloop
  endfacet
  facet normal 0 0 1
    outer loop
      vertex 167.22 -132.95 0.2
      vertex 121.5 -138.76 0.2
      vertex 154.52 -145.65 0.2
    endloop
  endfacet
  facet normal 0 0 1
    outer loop
      vertex 154.52 -145.65 0.2
      vertex 121.5 -138.76 0.2
      vertex 121.5 -145.65 0.2
    endloop
  endfacet
  facet normal -0.995262 0.0972294 0
    outer loop
      vertex 88.4805 -138.76 0.2
      vertex 88.5186 -138.37 0.9
      vertex 88.5186 -138.37 0.2
    endloop
  endfacet
  facet normal -0.995262 0.0972294 0
    outer loop
      vertex 88.5186 -138.37 0.9
      vertex 88.4805 -138.76 0.2
      vertex 88.4805 -138.76 0.9
    endloop
  endfacet
  facet normal -0.957333 0.288987 0
    outer loop
      vertex 88.5186 -138.37 0.2
      vertex 88.6318 -137.995 0.9
      vertex 88.6318 -137.995 0.2
    endloop
  endfacet
  facet normal -0.957333 0.288987 0
    outer loop
      vertex 88.6318 -137.995 0.9
      vertex 88.5186 -138.37 0.2
      vertex 88.5186 -138.37 0.9
    endloop
  endfacet
  facet normal -0.88179 0.471643 0
    outer loop
      vertex 88.6318 -137.995 0.2
      vertex 88.8174 -137.648 0.9
      vertex 88.8174 -137.648 0.2
    endloop
  endfacet
  facet normal -0.88179 0.471643 0
    outer loop
      vertex 88.8174 -137.648 0.9
      vertex 88.6318 -137.995 0.2
      vertex 88.6318 -137.995 0.9
    endloop
  endfacet
  facet normal -0.772816 0.63463 0
    outer loop
      vertex 88.8174 -137.648 0.2
      vertex 89.0654 -137.346 0.9
      vertex 89.0654 -137.346 0.2
    endloop
  endfacet
  facet normal -0.772816 0.63463 0
    outer loop
      vertex 89.0654 -137.346 0.9
      vertex 88.8174 -137.648 0.2
      vertex 88.8174 -137.648 0.9
    endloop
  endfacet
  facet normal -0.634028 0.77331 0
    outer loop
      vertex 89.3691 -137.097 0.2
      vertex 89.0654 -137.346 0.9
      vertex 89.3691 -137.097 0.9
    endloop
  endfacet
  facet normal -0.634028 0.77331 0
    outer loop
      vertex 89.0654 -137.346 0.9
      vertex 89.3691 -137.097 0.2
      vertex 89.0654 -137.346 0.2
    endloop
  endfacet
  facet normal -0.471832 0.881688 0
    outer loop
      vertex 89.7148 -136.912 0.2
      vertex 89.3691 -137.097 0.9
      vertex 89.7148 -136.912 0.9
    endloop
  endfacet
  facet normal -0.471832 0.881688 0
    outer loop
      vertex 89.3691 -137.097 0.9
      vertex 89.7148 -136.912 0.2
      vertex 89.3691 -137.097 0.2
    endloop
  endfacet
  facet normal -0.288519 0.957474 0
    outer loop
      vertex 90.0898 -136.799 0.2
      vertex 89.7148 -136.912 0.9
      vertex 90.0898 -136.799 0.9
    endloop
  endfacet
  facet normal -0.288519 0.957474 0
    outer loop
      vertex 89.7148 -136.912 0.9
      vertex 90.0898 -136.799 0.2
      vertex 89.7148 -136.912 0.2
    endloop
  endfacet
  facet normal -0.0993272 0.995055 0
    outer loop
      vertex 90.4805 -136.76 0.2
      vertex 90.0898 -136.799 0.9
      vertex 90.4805 -136.76 0.9
    endloop
  endfacet
  facet normal -0.0993272 0.995055 0
    outer loop
      vertex 90.0898 -136.799 0.9
      vertex 90.4805 -136.76 0.2
      vertex 90.0898 -136.799 0.2
    endloop
  endfacet
  facet normal 0 1 -0
    outer loop
      vertex 119.5 -136.76 0.2
      vertex 90.4805 -136.76 0.9
      vertex 119.5 -136.76 0.9
    endloop
  endfacet
  facet normal 0 1 0
    outer loop
      vertex 90.4805 -136.76 0.9
      vertex 119.5 -136.76 0.2
      vertex 90.4805 -136.76 0.2
    endloop
  endfacet
  facet normal 0.0992517 0.995062 -0
    outer loop
      vertex 119.891 -136.799 0.2
      vertex 119.5 -136.76 0.9
      vertex 119.891 -136.799 0.9
    endloop
  endfacet
  facet normal 0.0992517 0.995062 0
    outer loop
      vertex 119.5 -136.76 0.9
      vertex 119.891 -136.799 0.2
      vertex 119.5 -136.76 0.2
    endloop
  endfacet
  facet normal 0.288519 0.957474 -0
    outer loop
      vertex 120.266 -136.912 0.2
      vertex 119.891 -136.799 0.9
      vertex 120.266 -136.912 0.9
    endloop
  endfacet
  facet normal 0.288519 0.957474 0
    outer loop
      vertex 119.891 -136.799 0.9
      vertex 120.266 -136.912 0.2
      vertex 119.891 -136.799 0.2
    endloop
  endfacet
  facet normal 0.472576 0.88129 -0
    outer loop
      vertex 120.611 -137.097 0.2
      vertex 120.266 -136.912 0.9
      vertex 120.611 -137.097 0.9
    endloop
  endfacet
  facet normal 0.472576 0.88129 0
    outer loop
      vertex 120.266 -136.912 0.9
      vertex 120.611 -137.097 0.2
      vertex 120.266 -136.912 0.2
    endloop
  endfacet
  facet normal 0.634903 0.772592 -0
    outer loop
      vertex 120.914 -137.346 0.2
      vertex 120.611 -137.097 0.9
      vertex 120.914 -137.346 0.9
    endloop
  endfacet
  facet normal 0.634903 0.772592 0
    outer loop
      vertex 120.611 -137.097 0.9
      vertex 120.914 -137.346 0.2
      vertex 120.611 -137.097 0.2
    endloop
  endfacet
  facet normal 0.771561 0.636155 0
    outer loop
      vertex 121.163 -137.648 0.9
      vertex 120.914 -137.346 0.2
      vertex 120.914 -137.346 0.9
    endloop
  endfacet
  facet normal 0.771561 0.636155 0
    outer loop
      vertex 120.914 -137.346 0.2
      vertex 121.163 -137.648 0.9
      vertex 121.163 -137.648 0.2
    endloop
  endfacet
  facet normal 0.882423 0.470456 0
    outer loop
      vertex 121.348 -137.995 0.9
      vertex 121.163 -137.648 0.2
      vertex 121.163 -137.648 0.9
    endloop
  endfacet
  facet normal 0.882423 0.470456 0
    outer loop
      vertex 121.163 -137.648 0.2
      vertex 121.348 -137.995 0.9
      vertex 121.348 -137.995 0.2
    endloop
  endfacet
  facet normal 0.956767 0.290857 0
    outer loop
      vertex 121.462 -138.37 0.9
      vertex 121.348 -137.995 0.2
      vertex 121.348 -137.995 0.9
    endloop
  endfacet
  facet normal 0.956767 0.290857 0
    outer loop
      vertex 121.348 -137.995 0.2
      vertex 121.462 -138.37 0.9
      vertex 121.462 -138.37 0.2
    endloop
  endfacet
  facet normal 0.995287 0.0969766 0
    outer loop
      vertex 121.5 -138.76 0.9
      vertex 121.462 -138.37 0.2
      vertex 121.462 -138.37 0.9
    endloop
  endfacet
  facet normal 0.995287 0.0969766 0
    outer loop
      vertex 121.462 -138.37 0.2
      vertex 121.5 -138.76 0.9
      vertex 121.5 -138.76 0.2
    endloop
  endfacet
  facet normal 1 -0 0
    outer loop
      vertex 121.5 -145.65 0.9
      vertex 121.5 -138.76 0.2
      vertex 121.5 -138.76 0.9
    endloop
  endfacet
  facet normal 1 0 0
    outer loop
      vertex 121.5 -138.76 0.2
      vertex 121.5 -145.65 0.9
      vertex 121.5 -145.65 0.2
    endloop
  endfacet
  facet normal 0 1 -0
    outer loop
      vertex 154.52 -145.65 0.2
      vertex 121.5 -145.65 0.9
      vertex 154.52 -145.65 0.9
    endloop
  endfacet
  facet normal 0 1 0
    outer loop
      vertex 121.5 -145.65 0.9
      vertex 154.52 -145.65 0.2
      vertex 121.5 -145.65 0.2
    endloop
  endfacet
  facet normal -0.707107 0.707107 0
    outer loop
      vertex 154.52 -145.65 0.2
      vertex 167.22 -132.95 0.9
      vertex 167.22 -132.95 0.2
    endloop
  endfacet
  facet normal -0.707107 0.707107 0
    outer loop
      vertex 167.22 -132.95 0.9
      vertex 154.52 -145.65 0.2
      vertex 154.52 -145.65 0.9
    endloop
  endfacet
  facet normal -1 0 0
    outer loop
      vertex 167.22 -132.95 0.2
      vertex 167.22 -77.0703 0.9
      vertex 167.22 -77.0703 0.2
    endloop
  endfacet
  facet normal -1 -0 0
    outer loop
      vertex 167.22 -77.0703 0.9
      vertex 167.22 -132.95 0.2
      vertex 167.22 -132.95 0.9
    endloop
  endfacet
  facet normal -0.707112 -0.707101 0
    outer loop
      vertex 167.22 -77.0703 0.2
      vertex 154.52 -64.3701 0.9
      vertex 154.52 -64.3701 0.2
    endloop
  endfacet
  facet normal -0.707112 -0.707101 0
    outer loop
      vertex 154.52 -64.3701 0.9
      vertex 167.22 -77.0703 0.2
      vertex 167.22 -77.0703 0.9
    endloop
  endfacet
  facet normal 0 -1 0
    outer loop
      vertex 121.5 -64.3701 0.2
      vertex 154.52 -64.3701 0.9
      vertex 121.5 -64.3701 0.9
    endloop
  endfacet
  facet normal 0 -1 -0
    outer loop
      vertex 154.52 -64.3701 0.9
      vertex 121.5 -64.3701 0.2
      vertex 154.52 -64.3701 0.2
    endloop
  endfacet
  facet normal 1 -0 0
    outer loop
      vertex 121.5 -71.2598 0.9
      vertex 121.5 -64.3701 0.2
      vertex 121.5 -64.3701 0.9
    endloop
  endfacet
  facet normal 1 0 0
    outer loop
      vertex 121.5 -64.3701 0.2
      vertex 121.5 -71.2598 0.9
      vertex 121.5 -71.2598 0.2
    endloop
  endfacet
  facet normal 0.995301 -0.0968291 0
    outer loop
      vertex 121.462 -71.6504 0.9
      vertex 121.5 -71.2598 0.2
      vertex 121.5 -71.2598 0.9
    endloop
  endfacet
  facet normal 0.995301 -0.0968291 0
    outer loop
      vertex 121.5 -71.2598 0.2
      vertex 121.462 -71.6504 0.9
      vertex 121.462 -71.6504 0.2
    endloop
  endfacet
  facet normal 0.956767 -0.290857 0
    outer loop
      vertex 121.348 -72.0254 0.9
      vertex 121.462 -71.6504 0.2
      vertex 121.462 -71.6504 0.9
    endloop
  endfacet
  facet normal 0.956767 -0.290857 0
    outer loop
      vertex 121.462 -71.6504 0.2
      vertex 121.348 -72.0254 0.9
      vertex 121.348 -72.0254 0.2
    endloop
  endfacet
  facet normal 0.881688 -0.471832 0
    outer loop
      vertex 121.163 -72.3711 0.9
      vertex 121.348 -72.0254 0.2
      vertex 121.348 -72.0254 0.9
    endloop
  endfacet
  facet normal 0.881688 -0.471832 0
    outer loop
      vertex 121.348 -72.0254 0.2
      vertex 121.163 -72.3711 0.9
      vertex 121.163 -72.3711 0.2
    endloop
  endfacet
  facet normal 0.772284 -0.635278 0
    outer loop
      vertex 120.914 -72.6738 0.9
      vertex 121.163 -72.3711 0.2
      vertex 121.163 -72.3711 0.9
    endloop
  endfacet
  facet normal 0.772284 -0.635278 0
    outer loop
      vertex 121.163 -72.3711 0.2
      vertex 120.914 -72.6738 0.9
      vertex 120.914 -72.6738 0.2
    endloop
  endfacet
  facet normal 0.635055 -0.772467 0
    outer loop
      vertex 120.611 -72.9229 0.2
      vertex 120.914 -72.6738 0.9
      vertex 120.611 -72.9229 0.9
    endloop
  endfacet
  facet normal 0.635055 -0.772467 0
    outer loop
      vertex 120.914 -72.6738 0.9
      vertex 120.611 -72.9229 0.2
      vertex 120.914 -72.6738 0.2
    endloop
  endfacet
  facet normal 0.471583 -0.881822 0
    outer loop
      vertex 120.266 -73.1074 0.2
      vertex 120.611 -72.9229 0.9
      vertex 120.266 -73.1074 0.9
    endloop
  endfacet
  facet normal 0.471583 -0.881822 0
    outer loop
      vertex 120.611 -72.9229 0.9
      vertex 120.266 -73.1074 0.2
      vertex 120.611 -72.9229 0.2
    endloop
  endfacet
  facet normal 0.291557 -0.956553 0
    outer loop
      vertex 119.891 -73.2217 0.2
      vertex 120.266 -73.1074 0.9
      vertex 119.891 -73.2217 0.9
    endloop
  endfacet
  facet normal 0.291557 -0.956553 0
    outer loop
      vertex 120.266 -73.1074 0.9
      vertex 119.891 -73.2217 0.2
      vertex 120.266 -73.1074 0.2
    endloop
  endfacet
  facet normal 0.0969831 -0.995286 0
    outer loop
      vertex 119.5 -73.2598 0.2
      vertex 119.891 -73.2217 0.9
      vertex 119.5 -73.2598 0.9
    endloop
  endfacet
  facet normal 0.0969831 -0.995286 0
    outer loop
      vertex 119.891 -73.2217 0.9
      vertex 119.5 -73.2598 0.2
      vertex 119.891 -73.2217 0.2
    endloop
  endfacet
  facet normal 0 -1 0
    outer loop
      vertex 90.4805 -73.2598 0.2
      vertex 119.5 -73.2598 0.9
      vertex 90.4805 -73.2598 0.9
    endloop
  endfacet
  facet normal 0 -1 -0
    outer loop
      vertex 119.5 -73.2598 0.9
      vertex 90.4805 -73.2598 0.2
      vertex 119.5 -73.2598 0.2
    endloop
  endfacet
  facet normal -0.0970569 -0.995279 0
    outer loop
      vertex 90.0898 -73.2217 0.2
      vertex 90.4805 -73.2598 0.9
      vertex 90.0898 -73.2217 0.9
    endloop
  endfacet
  facet normal -0.0970569 -0.995279 -0
    outer loop
      vertex 90.4805 -73.2598 0.9
      vertex 90.0898 -73.2217 0.2
      vertex 90.4805 -73.2598 0.2
    endloop
  endfacet
  facet normal -0.291557 -0.956553 0
    outer loop
      vertex 89.7148 -73.1074 0.2
      vertex 90.0898 -73.2217 0.9
      vertex 89.7148 -73.1074 0.9
    endloop
  endfacet
  facet normal -0.291557 -0.956553 -0
    outer loop
      vertex 90.0898 -73.2217 0.9
      vertex 89.7148 -73.1074 0.2
      vertex 90.0898 -73.2217 0.2
    endloop
  endfacet
  facet normal -0.47084 -0.882219 0
    outer loop
      vertex 89.3691 -72.9229 0.2
      vertex 89.7148 -73.1074 0.9
      vertex 89.3691 -72.9229 0.9
    endloop
  endfacet
  facet normal -0.47084 -0.882219 -0
    outer loop
      vertex 89.7148 -73.1074 0.9
      vertex 89.3691 -72.9229 0.2
      vertex 89.7148 -73.1074 0.2
    endloop
  endfacet
  facet normal -0.63418 -0.773185 0
    outer loop
      vertex 89.0654 -72.6738 0.2
      vertex 89.3691 -72.9229 0.9
      vertex 89.0654 -72.6738 0.9
    endloop
  endfacet
  facet normal -0.63418 -0.773185 -0
    outer loop
      vertex 89.3691 -72.9229 0.9
      vertex 89.0654 -72.6738 0.2
      vertex 89.3691 -72.9229 0.2
    endloop
  endfacet
  facet normal -0.773536 -0.633753 0
    outer loop
      vertex 89.0654 -72.6738 0.2
      vertex 88.8174 -72.3711 0.9
      vertex 88.8174 -72.3711 0.2
    endloop
  endfacet
  facet normal -0.773536 -0.633753 0
    outer loop
      vertex 88.8174 -72.3711 0.9
      vertex 89.0654 -72.6738 0.2
      vertex 89.0654 -72.6738 0.9
    endloop
  endfacet
  facet normal -0.881051 -0.47302 0
    outer loop
      vertex 88.8174 -72.3711 0.2
      vertex 88.6318 -72.0254 0.9
      vertex 88.6318 -72.0254 0.2
    endloop
  endfacet
  facet normal -0.881051 -0.47302 0
    outer loop
      vertex 88.6318 -72.0254 0.9
      vertex 88.8174 -72.3711 0.2
      vertex 88.8174 -72.3711 0.9
    endloop
  endfacet
  facet normal -0.957333 -0.288987 0
    outer loop
      vertex 88.6318 -72.0254 0.2
      vertex 88.5186 -71.6504 0.9
      vertex 88.5186 -71.6504 0.2
    endloop
  endfacet
  facet normal -0.957333 -0.288987 0
    outer loop
      vertex 88.5186 -71.6504 0.9
      vertex 88.6318 -72.0254 0.2
      vertex 88.6318 -72.0254 0.9
    endloop
  endfacet
  facet normal -0.995276 -0.0970815 0
    outer loop
      vertex 88.5186 -71.6504 0.2
      vertex 88.4805 -71.2598 0.9
      vertex 88.4805 -71.2598 0.2
    endloop
  endfacet
  facet normal -0.995276 -0.0970815 0
    outer loop
      vertex 88.4805 -71.2598 0.9
      vertex 88.5186 -71.6504 0.2
      vertex 88.5186 -71.6504 0.9
    endloop
  endfacet
  facet normal -1 0 0
    outer loop
      vertex 88.4805 -71.2598 0.2
      vertex 88.4805 -64.3701 0.9
      vertex 88.4805 -64.3701 0.2
    endloop
  endfacet
  facet normal -1 -0 0
    outer loop
      vertex 88.4805 -64.3701 0.9
      vertex 88.4805 -71.2598 0.2
      vertex 88.4805 -71.2598 0.9
    endloop
  endfacet
  facet normal 0 -1 0
    outer loop
      vertex 70.7002 -64.3701 0.2
      vertex 88.4805 -64.3701 0.9
      vertex 70.7002 -64.3701 0.9
    endloop
  endfacet
  facet normal 0 -1 -0
    outer loop
      vertex 88.4805 -64.3701 0.9
      vertex 70.7002 -64.3701 0.2
      vertex 88.4805 -64.3701 0.2
    endloop
  endfacet
  facet normal 0.707121 -0.707093 0
    outer loop
      vertex 68.1602 -66.9102 0.9
      vertex 70.7002 -64.3701 0.2
      vertex 70.7002 -64.3701 0.9
    endloop
  endfacet
  facet normal 0.707121 -0.707093 0
    outer loop
      vertex 70.7002 -64.3701 0.2
      vertex 68.1602 -66.9102 0.9
      vertex 68.1602 -66.9102 0.2
    endloop
  endfacet
  facet normal 1 -0 0
    outer loop
      vertex 68.1602 -143.11 0.9
      vertex 68.1602 -66.9102 0.2
      vertex 68.1602 -66.9102 0.9
    endloop
  endfacet
  facet normal 1 0 0
    outer loop
      vertex 68.1602 -66.9102 0.2
      vertex 68.1602 -143.11 0.9
      vertex 68.1602 -143.11 0.2
    endloop
  endfacet
  facet normal 0.707107 0.707107 0
    outer loop
      vertex 70.7002 -145.65 0.9
      vertex 68.1602 -143.11 0.2
      vertex 68.1602 -143.11 0.9
    endloop
  endfacet
  facet normal 0.707107 0.707107 0
    outer loop
      vertex 68.1602 -143.11 0.2
      vertex 70.7002 -145.65 0.9
      vertex 70.7002 -145.65 0.2
    endloop
  endfacet
  facet normal 0 1 -0
    outer loop
      vertex 88.4805 -145.65 0.2
      vertex 70.7002 -145.65 0.9
      vertex 88.4805 -145.65 0.9
    endloop
  endfacet
  facet normal 0 1 0
    outer loop
      vertex 70.7002 -145.65 0.9
      vertex 88.4805 -145.65 0.2
      vertex 70.7002 -145.65 0.2
    endloop
  endfacet
  facet normal -1 0 0
    outer loop
      vertex 88.4805 -145.65 0.2
      vertex 88.4805 -138.76 0.9
      vertex 88.4805 -138.76 0.2
    endloop
  endfacet
  facet normal -1 -0 0
    outer loop
      vertex 88.4805 -138.76 0.9
      vertex 88.4805 -145.65 0.2
      vertex 88.4805 -145.65 0.9
    endloop
  endfacet
endsolid OpenSCAD_Model
