  0
SECTION
  2
HEADER
  9
$ANGBASE
  50
0.0
  9
$ANGDIR
  70
1
  9
$MEASUREMENT
  70
1
  0
ENDSEC
  0
SECTION
  2
TABLES
  0
TABLE
  2
LTYPE
  70
4
  0
LTYPE
  5
40F
  2
CONTINUOUS
  70
0
  3
Solid line
  72
65
  73
0
  40
0.0
  0
LTYPE
  5
410
  2
DASHDOT
 70
0
  3
Dash Dot ____ _ ____ _
 72
65
 73
4
 40
2.0
 49
1.25
 49
-0.25
 49
0.25
 49
-0.25
  0
LTYPE
  5
411
  2
DASHED
 70
0
  3
Dashed __ __ __ __ __
 72
65
 73
2
 40
0.75
 49
0.5
 49
-0.25
  0
LTYPE
  5
43B
  2
DOTTED
 70
0
  3
Dotted .  .  .  .
 72
65
 73
2
 40
0.2
 49
0.0
 49
-0.2
  0
ENDTAB
  0
TABLE
  2
STYLE
  70
4
  0
STYLE
  2
KICAD
  70
0
  40
0
  41
1
  42
1
  50
0
  71
0
  3
isocp.shx
  0
STYLE
  2
KICADB
  70
0
  40
0
  41
1
  42
1
  50
0
  71
0
  3
isocp.shx
  0
STYLE
  2
KICADI
  70
0
  40
0
  41
1
  42
1
  50
15
  71
0
  3
isocp.shx
  0
STYLE
  2
KICADBI
  70
0
  40
0
  41
1
  42
1
  50
15
  71
0
  3
isocp.shx
  0
ENDTAB
  0
TABLE
  2
LAYER
  70
1
  0
LAYER
  2
BLACK
  70
0
  62
7
  6
CONTINUOUS
  0
ENDTAB
  0
ENDSEC
  0
SECTION
  2
ENTITIES
0
LINE
8
BLACK
6
CONTINUOUS
10
71.7206699999999984
20
-141.4940299999999809
11
71.8017760000000038
21
-141.5482240000000047
0
LINE
8
BLACK
6
CONTINUOUS
10
71.8017760000000038
20
-141.5482240000000047
11
71.8559699999999992
21
-141.6293299999999817
0
LINE
8
BLACK
6
CONTINUOUS
10
71.8559699999999992
20
-141.6293299999999817
11
71.8749990000000025
21
-141.7250019999999893
0
LINE
8
BLACK
6
CONTINUOUS
10
71.8749990000000025
20
-141.7250019999999893
11
71.875
21
-142.6499989999999798
0
LINE
8
BLACK
6
CONTINUOUS
10
71.875
20
-142.6499989999999798
11
71.8559699999999992
21
-142.7456699999999898
0
LINE
8
BLACK
6
CONTINUOUS
10
71.8559699999999992
20
-142.7456699999999898
11
71.8017760000000038
21
-142.8267759999999953
0
LINE
8
BLACK
6
CONTINUOUS
10
71.8017760000000038
20
-142.8267759999999953
11
71.7206699999999984
21
-142.8809699999999907
0
LINE
8
BLACK
6
CONTINUOUS
10
71.7206699999999984
20
-142.8809699999999907
11
71.6249979999999908
21
-142.8999989999999798
0
LINE
8
BLACK
6
CONTINUOUS
10
71.6249979999999908
20
-142.8999989999999798
11
70.3750009999999975
21
-142.9000000000000057
0
LINE
8
BLACK
6
CONTINUOUS
10
70.3750009999999975
20
-142.9000000000000057
11
70.2793300000000016
21
-142.8809699999999907
0
LINE
8
BLACK
6
CONTINUOUS
10
70.2793300000000016
20
-142.8809699999999907
11
70.1982239999999962
21
-142.8267759999999953
0
LINE
8
BLACK
6
CONTINUOUS
10
70.1982239999999962
20
-142.8267759999999953
11
70.1440300000000008
21
-142.7456699999999898
0
LINE
8
BLACK
6
CONTINUOUS
10
70.1440300000000008
20
-142.7456699999999898
11
70.1250009999999975
21
-142.6499979999999823
0
LINE
8
BLACK
6
CONTINUOUS
10
70.1250009999999975
20
-142.6499979999999823
11
70.125
21
-141.7250009999999918
0
LINE
8
BLACK
6
CONTINUOUS
10
70.125
20
-141.7250009999999918
11
70.1440300000000008
21
-141.6293299999999817
0
LINE
8
BLACK
6
CONTINUOUS
10
70.1440300000000008
20
-141.6293299999999817
11
70.1982239999999962
21
-141.5482240000000047
0
LINE
8
BLACK
6
CONTINUOUS
10
70.1982239999999962
20
-141.5482240000000047
11
70.2793300000000016
21
-141.4940299999999809
0
LINE
8
BLACK
6
CONTINUOUS
10
70.2793300000000016
20
-141.4940299999999809
11
70.375001999999995
21
-141.4750009999999918
0
LINE
8
BLACK
6
CONTINUOUS
10
70.375001999999995
20
-141.4750009999999918
11
71.6249990000000025
21
-141.4749999999999943
0
LINE
8
BLACK
6
CONTINUOUS
10
71.6249990000000025
20
-141.4749999999999943
11
71.7206699999999984
21
-141.4940299999999809
0
LINE
8
BLACK
6
CONTINUOUS
10
74.2456710000000015
20
-140.7190300000000036
11
74.3267769999999928
21
-140.7732230000000015
0
LINE
8
BLACK
6
CONTINUOUS
10
74.3267769999999928
20
-140.7732230000000015
11
74.3809699999999907
21
-140.854329000000007
0
LINE
8
BLACK
6
CONTINUOUS
10
74.3809699999999907
20
-140.854329000000007
11
74.3999999999999915
21
-140.9499999999999886
0
LINE
8
BLACK
6
CONTINUOUS
10
74.3999999999999915
20
-140.9499999999999886
11
74.3999999999999915
21
-141.6500000000000057
0
LINE
8
BLACK
6
CONTINUOUS
10
74.3999999999999915
20
-141.6500000000000057
11
74.3809699999999907
21
-141.7456709999999873
0
LINE
8
BLACK
6
CONTINUOUS
10
74.3809699999999907
20
-141.7456709999999873
11
74.3267769999999928
21
-141.8267769999999928
0
LINE
8
BLACK
6
CONTINUOUS
10
74.3267769999999928
20
-141.8267769999999928
11
74.2456710000000015
21
-141.8809699999999907
0
LINE
8
BLACK
6
CONTINUOUS
10
74.2456710000000015
20
-141.8809699999999907
11
74.1499999999999915
21
-141.9000000000000057
0
LINE
8
BLACK
6
CONTINUOUS
10
74.1499999999999915
20
-141.9000000000000057
11
73.25
21
-141.9000000000000057
0
LINE
8
BLACK
6
CONTINUOUS
10
73.25
20
-141.9000000000000057
11
73.1543289999999899
21
-141.8809699999999907
0
LINE
8
BLACK
6
CONTINUOUS
10
73.1543289999999899
20
-141.8809699999999907
11
73.0732229999999987
21
-141.8267769999999928
0
LINE
8
BLACK
6
CONTINUOUS
10
73.0732229999999987
20
-141.8267769999999928
11
73.0190300000000008
21
-141.7456709999999873
0
LINE
8
BLACK
6
CONTINUOUS
10
73.0190300000000008
20
-141.7456709999999873
11
73.
21
-141.6500000000000057
0
LINE
8
BLACK
6
CONTINUOUS
10
73.
20
-141.6500000000000057
11
73.
21
-140.9499999999999886
0
LINE
8
BLACK
6
CONTINUOUS
10
73.
20
-140.9499999999999886
11
73.0190300000000008
21
-140.854329000000007
0
LINE
8
BLACK
6
CONTINUOUS
10
73.0190300000000008
20
-140.854329000000007
11
73.0732229999999987
21
-140.7732230000000015
0
LINE
8
BLACK
6
CONTINUOUS
10
73.0732229999999987
20
-140.7732230000000015
11
73.1543289999999899
21
-140.7190300000000036
0
LINE
8
BLACK
6
CONTINUOUS
10
73.1543289999999899
20
-140.7190300000000036
11
73.25
21
-140.6999999999999886
0
LINE
8
BLACK
6
CONTINUOUS
10
73.25
20
-140.6999999999999886
11
74.1499999999999915
21
-140.6999999999999886
0
LINE
8
BLACK
6
CONTINUOUS
10
74.1499999999999915
20
-140.6999999999999886
11
74.2456710000000015
21
-140.7190300000000036
0
LINE
8
BLACK
6
CONTINUOUS
10
71.7206699999999984
20
-138.5190299999999866
11
71.8017760000000038
21
-138.573223999999982
0
LINE
8
BLACK
6
CONTINUOUS
10
71.8017760000000038
20
-138.573223999999982
11
71.8559699999999992
21
-138.6543299999999874
0
LINE
8
BLACK
6
CONTINUOUS
10
71.8559699999999992
20
-138.6543299999999874
11
71.8749990000000025
21
-138.750001999999995
0
LINE
8
BLACK
6
CONTINUOUS
10
71.8749990000000025
20
-138.750001999999995
11
71.875
21
-139.6749989999999855
0
LINE
8
BLACK
6
CONTINUOUS
10
71.875
20
-139.6749989999999855
11
71.8559699999999992
21
-139.7706699999999955
0
LINE
8
BLACK
6
CONTINUOUS
10
71.8559699999999992
20
-139.7706699999999955
11
71.8017760000000038
21
-139.851776000000001
0
LINE
8
BLACK
6
CONTINUOUS
10
71.8017760000000038
20
-139.851776000000001
11
71.7206699999999984
21
-139.9059699999999964
0
LINE
8
BLACK
6
CONTINUOUS
10
71.7206699999999984
20
-139.9059699999999964
11
71.6249979999999908
21
-139.9249989999999855
0
LINE
8
BLACK
6
CONTINUOUS
10
71.6249979999999908
20
-139.9249989999999855
11
70.3750009999999975
21
-139.9249999999999829
0
LINE
8
BLACK
6
CONTINUOUS
10
70.3750009999999975
20
-139.9249999999999829
11
70.2793300000000016
21
-139.9059699999999964
0
LINE
8
BLACK
6
CONTINUOUS
10
70.2793300000000016
20
-139.9059699999999964
11
70.1982239999999962
21
-139.851776000000001
0
LINE
8
BLACK
6
CONTINUOUS
10
70.1982239999999962
20
-139.851776000000001
11
70.1440300000000008
21
-139.7706699999999955
0
LINE
8
BLACK
6
CONTINUOUS
10
70.1440300000000008
20
-139.7706699999999955
11
70.1250009999999975
21
-139.674997999999988
0
LINE
8
BLACK
6
CONTINUOUS
10
70.1250009999999975
20
-139.674997999999988
11
70.125
21
-138.7500009999999975
0
LINE
8
BLACK
6
CONTINUOUS
10
70.125
20
-138.7500009999999975
11
70.1440300000000008
21
-138.6543299999999874
0
LINE
8
BLACK
6
CONTINUOUS
10
70.1440300000000008
20
-138.6543299999999874
11
70.1982239999999962
21
-138.573223999999982
0
LINE
8
BLACK
6
CONTINUOUS
10
70.1982239999999962
20
-138.573223999999982
11
70.2793300000000016
21
-138.5190299999999866
0
LINE
8
BLACK
6
CONTINUOUS
10
70.2793300000000016
20
-138.5190299999999866
11
70.375001999999995
21
-138.5000009999999975
0
LINE
8
BLACK
6
CONTINUOUS
10
70.375001999999995
20
-138.5000009999999975
11
71.6249990000000025
21
-138.5
0
LINE
8
BLACK
6
CONTINUOUS
10
71.6249990000000025
20
-138.5
11
71.7206699999999984
21
-138.5190299999999866
0
LINE
8
BLACK
6
CONTINUOUS
10
74.2456710000000015
20
-138.7190300000000036
11
74.3267769999999928
21
-138.7732230000000015
0
LINE
8
BLACK
6
CONTINUOUS
10
74.3267769999999928
20
-138.7732230000000015
11
74.3809699999999907
21
-138.854329000000007
0
LINE
8
BLACK
6
CONTINUOUS
10
74.3809699999999907
20
-138.854329000000007
11
74.3999999999999915
21
-138.9499999999999886
0
LINE
8
BLACK
6
CONTINUOUS
10
74.3999999999999915
20
-138.9499999999999886
11
74.3999999999999915
21
-139.6500000000000057
0
LINE
8
BLACK
6
CONTINUOUS
10
74.3999999999999915
20
-139.6500000000000057
11
74.3809699999999907
21
-139.7456709999999873
0
LINE
8
BLACK
6
CONTINUOUS
10
74.3809699999999907
20
-139.7456709999999873
11
74.3267769999999928
21
-139.8267769999999928
0
LINE
8
BLACK
6
CONTINUOUS
10
74.3267769999999928
20
-139.8267769999999928
11
74.2456710000000015
21
-139.8809699999999907
0
LINE
8
BLACK
6
CONTINUOUS
10
74.2456710000000015
20
-139.8809699999999907
11
74.1499999999999915
21
-139.9000000000000057
0
LINE
8
BLACK
6
CONTINUOUS
10
74.1499999999999915
20
-139.9000000000000057
11
73.25
21
-139.9000000000000057
0
LINE
8
BLACK
6
CONTINUOUS
10
73.25
20
-139.9000000000000057
11
73.1543289999999899
21
-139.8809699999999907
0
LINE
8
BLACK
6
CONTINUOUS
10
73.1543289999999899
20
-139.8809699999999907
11
73.0732229999999987
21
-139.8267769999999928
0
LINE
8
BLACK
6
CONTINUOUS
10
73.0732229999999987
20
-139.8267769999999928
11
73.0190300000000008
21
-139.7456709999999873
0
LINE
8
BLACK
6
CONTINUOUS
10
73.0190300000000008
20
-139.7456709999999873
11
73.
21
-139.6500000000000057
0
LINE
8
BLACK
6
CONTINUOUS
10
73.
20
-139.6500000000000057
11
73.
21
-138.9499999999999886
0
LINE
8
BLACK
6
CONTINUOUS
10
73.
20
-138.9499999999999886
11
73.0190300000000008
21
-138.854329000000007
0
LINE
8
BLACK
6
CONTINUOUS
10
73.0190300000000008
20
-138.854329000000007
11
73.0732229999999987
21
-138.7732230000000015
0
LINE
8
BLACK
6
CONTINUOUS
10
73.0732229999999987
20
-138.7732230000000015
11
73.1543289999999899
21
-138.7190300000000036
0
LINE
8
BLACK
6
CONTINUOUS
10
73.1543289999999899
20
-138.7190300000000036
11
73.25
21
-138.6999999999999886
0
LINE
8
BLACK
6
CONTINUOUS
10
73.25
20
-138.6999999999999886
11
74.1499999999999915
21
-138.6999999999999886
0
LINE
8
BLACK
6
CONTINUOUS
10
74.1499999999999915
20
-138.6999999999999886
11
74.2456710000000015
21
-138.7190300000000036
0
LINE
8
BLACK
6
CONTINUOUS
10
71.6206699999999898
20
-136.1940299999999979
11
71.7017759999999953
21
-136.2482239999999933
0
LINE
8
BLACK
6
CONTINUOUS
10
71.7017759999999953
20
-136.2482239999999933
11
71.7559699999999907
21
-136.3293299999999988
0
LINE
8
BLACK
6
CONTINUOUS
10
71.7559699999999907
20
-136.3293299999999988
11
71.774998999999994
21
-136.4250020000000063
0
LINE
8
BLACK
6
CONTINUOUS
10
71.774998999999994
20
-136.4250020000000063
11
71.7749999999999915
21
-137.3499989999999968
0
LINE
8
BLACK
6
CONTINUOUS
10
71.7749999999999915
20
-137.3499989999999968
11
71.7559699999999907
21
-137.4456700000000069
0
LINE
8
BLACK
6
CONTINUOUS
10
71.7559699999999907
20
-137.4456700000000069
11
71.7017759999999953
21
-137.5267759999999839
0
LINE
8
BLACK
6
CONTINUOUS
10
71.7017759999999953
20
-137.5267759999999839
11
71.6206699999999898
21
-137.5809700000000078
0
LINE
8
BLACK
6
CONTINUOUS
10
71.6206699999999898
20
-137.5809700000000078
11
71.5249979999999965
21
-137.5999989999999968
0
LINE
8
BLACK
6
CONTINUOUS
10
71.5249979999999965
20
-137.5999989999999968
11
70.2750010000000032
21
-137.5999999999999943
0
LINE
8
BLACK
6
CONTINUOUS
10
70.2750010000000032
20
-137.5999999999999943
11
70.1793299999999931
21
-137.5809700000000078
0
LINE
8
BLACK
6
CONTINUOUS
10
70.1793299999999931
20
-137.5809700000000078
11
70.0982240000000019
21
-137.5267759999999839
0
LINE
8
BLACK
6
CONTINUOUS
10
70.0982240000000019
20
-137.5267759999999839
11
70.0440299999999922
21
-137.4456700000000069
0
LINE
8
BLACK
6
CONTINUOUS
10
70.0440299999999922
20
-137.4456700000000069
11
70.0250010000000032
21
-137.3499979999999994
0
LINE
8
BLACK
6
CONTINUOUS
10
70.0250010000000032
20
-137.3499979999999994
11
70.0249999999999915
21
-136.4250009999999804
0
LINE
8
BLACK
6
CONTINUOUS
10
70.0249999999999915
20
-136.4250009999999804
11
70.0440299999999922
21
-136.3293299999999988
0
LINE
8
BLACK
6
CONTINUOUS
10
70.0440299999999922
20
-136.3293299999999988
11
70.0982240000000019
21
-136.2482239999999933
0
LINE
8
BLACK
6
CONTINUOUS
10
70.0982240000000019
20
-136.2482239999999933
11
70.1793299999999931
21
-136.1940299999999979
0
LINE
8
BLACK
6
CONTINUOUS
10
70.1793299999999931
20
-136.1940299999999979
11
70.2750020000000006
21
-136.1750009999999804
0
LINE
8
BLACK
6
CONTINUOUS
10
70.2750020000000006
20
-136.1750009999999804
11
71.524998999999994
21
-136.1749999999999829
0
LINE
8
BLACK
6
CONTINUOUS
10
71.524998999999994
20
-136.1749999999999829
11
71.6206699999999898
21
-136.1940299999999979
0
LINE
8
BLACK
6
CONTINUOUS
10
73.8456709999999958
20
-135.9190299999999922
11
73.9267770000000013
21
-135.9732229999999902
0
LINE
8
BLACK
6
CONTINUOUS
10
73.9267770000000013
20
-135.9732229999999902
11
73.9809699999999992
21
-136.0543289999999956
0
LINE
8
BLACK
6
CONTINUOUS
10
73.9809699999999992
20
-136.0543289999999956
11
74.
21
-136.1500000000000057
0
LINE
8
BLACK
6
CONTINUOUS
10
74.
20
-136.1500000000000057
11
74.
21
-136.8499999999999943
0
LINE
8
BLACK
6
CONTINUOUS
10
74.
20
-136.8499999999999943
11
73.9809699999999992
21
-136.9456710000000044
0
LINE
8
BLACK
6
CONTINUOUS
10
73.9809699999999992
20
-136.9456710000000044
11
73.9267770000000013
21
-137.0267769999999814
0
LINE
8
BLACK
6
CONTINUOUS
10
73.9267770000000013
20
-137.0267769999999814
11
73.8456709999999958
21
-137.0809700000000078
0
LINE
8
BLACK
6
CONTINUOUS
10
73.8456709999999958
20
-137.0809700000000078
11
73.75
21
-137.0999999999999943
0
LINE
8
BLACK
6
CONTINUOUS
10
73.75
20
-137.0999999999999943
11
72.8499999999999943
21
-137.0999999999999943
0
LINE
8
BLACK
6
CONTINUOUS
10
72.8499999999999943
20
-137.0999999999999943
11
72.7543289999999985
21
-137.0809700000000078
0
LINE
8
BLACK
6
CONTINUOUS
10
72.7543289999999985
20
-137.0809700000000078
11
72.673222999999993
21
-137.0267769999999814
0
LINE
8
BLACK
6
CONTINUOUS
10
72.673222999999993
20
-137.0267769999999814
11
72.6190299999999951
21
-136.9456710000000044
0
LINE
8
BLACK
6
CONTINUOUS
10
72.6190299999999951
20
-136.9456710000000044
11
72.5999999999999943
21
-136.8499999999999943
0
LINE
8
BLACK
6
CONTINUOUS
10
72.5999999999999943
20
-136.8499999999999943
11
72.5999999999999943
21
-136.1500000000000057
0
LINE
8
BLACK
6
CONTINUOUS
10
72.5999999999999943
20
-136.1500000000000057
11
72.6190299999999951
21
-136.0543289999999956
0
LINE
8
BLACK
6
CONTINUOUS
10
72.6190299999999951
20
-136.0543289999999956
11
72.673222999999993
21
-135.9732229999999902
0
LINE
8
BLACK
6
CONTINUOUS
10
72.673222999999993
20
-135.9732229999999902
11
72.7543289999999985
21
-135.9190299999999922
0
LINE
8
BLACK
6
CONTINUOUS
10
72.7543289999999985
20
-135.9190299999999922
11
72.8499999999999943
21
-135.9000000000000057
0
LINE
8
BLACK
6
CONTINUOUS
10
72.8499999999999943
20
-135.9000000000000057
11
73.75
21
-135.9000000000000057
0
LINE
8
BLACK
6
CONTINUOUS
10
73.75
20
-135.9000000000000057
11
73.8456709999999958
21
-135.9190299999999922
0
LINE
8
BLACK
6
CONTINUOUS
10
73.8456709999999958
20
-133.9190299999999922
11
73.9267770000000013
21
-133.9732229999999902
0
LINE
8
BLACK
6
CONTINUOUS
10
73.9267770000000013
20
-133.9732229999999902
11
73.9809699999999992
21
-134.0543289999999956
0
LINE
8
BLACK
6
CONTINUOUS
10
73.9809699999999992
20
-134.0543289999999956
11
74.
21
-134.1500000000000057
0
LINE
8
BLACK
6
CONTINUOUS
10
74.
20
-134.1500000000000057
11
74.
21
-134.8499999999999943
0
LINE
8
BLACK
6
CONTINUOUS
10
74.
20
-134.8499999999999943
11
73.9809699999999992
21
-134.9456710000000044
0
LINE
8
BLACK
6
CONTINUOUS
10
73.9809699999999992
20
-134.9456710000000044
11
73.9267770000000013
21
-135.0267769999999814
0
LINE
8
BLACK
6
CONTINUOUS
10
73.9267770000000013
20
-135.0267769999999814
11
73.8456709999999958
21
-135.0809700000000078
0
LINE
8
BLACK
6
CONTINUOUS
10
73.8456709999999958
20
-135.0809700000000078
11
73.75
21
-135.0999999999999943
0
LINE
8
BLACK
6
CONTINUOUS
10
73.75
20
-135.0999999999999943
11
72.8499999999999943
21
-135.0999999999999943
0
LINE
8
BLACK
6
CONTINUOUS
10
72.8499999999999943
20
-135.0999999999999943
11
72.7543289999999985
21
-135.0809700000000078
0
LINE
8
BLACK
6
CONTINUOUS
10
72.7543289999999985
20
-135.0809700000000078
11
72.673222999999993
21
-135.0267769999999814
0
LINE
8
BLACK
6
CONTINUOUS
10
72.673222999999993
20
-135.0267769999999814
11
72.6190299999999951
21
-134.9456710000000044
0
LINE
8
BLACK
6
CONTINUOUS
10
72.6190299999999951
20
-134.9456710000000044
11
72.5999999999999943
21
-134.8499999999999943
0
LINE
8
BLACK
6
CONTINUOUS
10
72.5999999999999943
20
-134.8499999999999943
11
72.5999999999999943
21
-134.1500000000000057
0
LINE
8
BLACK
6
CONTINUOUS
10
72.5999999999999943
20
-134.1500000000000057
11
72.6190299999999951
21
-134.0543289999999956
0
LINE
8
BLACK
6
CONTINUOUS
10
72.6190299999999951
20
-134.0543289999999956
11
72.673222999999993
21
-133.9732229999999902
0
LINE
8
BLACK
6
CONTINUOUS
10
72.673222999999993
20
-133.9732229999999902
11
72.7543289999999985
21
-133.9190299999999922
0
LINE
8
BLACK
6
CONTINUOUS
10
72.7543289999999985
20
-133.9190299999999922
11
72.8499999999999943
21
-133.9000000000000057
0
LINE
8
BLACK
6
CONTINUOUS
10
72.8499999999999943
20
-133.9000000000000057
11
73.75
21
-133.9000000000000057
0
LINE
8
BLACK
6
CONTINUOUS
10
73.75
20
-133.9000000000000057
11
73.8456709999999958
21
-133.9190299999999922
0
LINE
8
BLACK
6
CONTINUOUS
10
146.0956709999999816
20
-133.5940300000000036
11
146.1767769999999871
21
-133.6482230000000015
0
LINE
8
BLACK
6
CONTINUOUS
10
146.1767769999999871
20
-133.6482230000000015
11
146.230969999999985
21
-133.729329000000007
0
LINE
8
BLACK
6
CONTINUOUS
10
146.230969999999985
20
-133.729329000000007
11
146.25
21
-133.8249999999999886
0
LINE
8
BLACK
6
CONTINUOUS
10
146.25
20
-133.8249999999999886
11
146.25
21
-134.7750000000000057
0
LINE
8
BLACK
6
CONTINUOUS
10
146.25
20
-134.7750000000000057
11
146.230969999999985
21
-134.8706709999999873
0
LINE
8
BLACK
6
CONTINUOUS
10
146.230969999999985
20
-134.8706709999999873
11
146.1767769999999871
21
-134.9517769999999928
0
LINE
8
BLACK
6
CONTINUOUS
10
146.1767769999999871
20
-134.9517769999999928
11
146.0956709999999816
21
-135.0059699999999907
0
LINE
8
BLACK
6
CONTINUOUS
10
146.0956709999999816
20
-135.0059699999999907
11
146.
21
-135.0250000000000057
0
LINE
8
BLACK
6
CONTINUOUS
10
146.
20
-135.0250000000000057
11
145.3249999999999886
21
-135.0250000000000057
0
LINE
8
BLACK
6
CONTINUOUS
10
145.3249999999999886
20
-135.0250000000000057
11
145.229329000000007
21
-135.0059699999999907
0
LINE
8
BLACK
6
CONTINUOUS
10
145.229329000000007
20
-135.0059699999999907
11
145.1482230000000015
21
-134.9517769999999928
0
LINE
8
BLACK
6
CONTINUOUS
10
145.1482230000000015
20
-134.9517769999999928
11
145.0940300000000036
21
-134.8706709999999873
0
LINE
8
BLACK
6
CONTINUOUS
10
145.0940300000000036
20
-134.8706709999999873
11
145.0749999999999886
21
-134.7750000000000057
0
LINE
8
BLACK
6
CONTINUOUS
10
145.0749999999999886
20
-134.7750000000000057
11
145.0749999999999886
21
-133.8249999999999886
0
LINE
8
BLACK
6
CONTINUOUS
10
145.0749999999999886
20
-133.8249999999999886
11
145.0940300000000036
21
-133.729329000000007
0
LINE
8
BLACK
6
CONTINUOUS
10
145.0940300000000036
20
-133.729329000000007
11
145.1482230000000015
21
-133.6482230000000015
0
LINE
8
BLACK
6
CONTINUOUS
10
145.1482230000000015
20
-133.6482230000000015
11
145.229329000000007
21
-133.5940300000000036
0
LINE
8
BLACK
6
CONTINUOUS
10
145.229329000000007
20
-133.5940300000000036
11
145.3249999999999886
21
-133.5749999999999886
0
LINE
8
BLACK
6
CONTINUOUS
10
145.3249999999999886
20
-133.5749999999999886
11
146.
21
-133.5749999999999886
0
LINE
8
BLACK
6
CONTINUOUS
10
146.
20
-133.5749999999999886
11
146.0956709999999816
21
-133.5940300000000036
0
LINE
8
BLACK
6
CONTINUOUS
10
148.1706709999999987
20
-133.5940300000000036
11
148.2517770000000041
21
-133.6482230000000015
0
LINE
8
BLACK
6
CONTINUOUS
10
148.2517770000000041
20
-133.6482230000000015
11
148.3059700000000021
21
-133.729329000000007
0
LINE
8
BLACK
6
CONTINUOUS
10
148.3059700000000021
20
-133.729329000000007
11
148.3249999999999886
21
-133.8249999999999886
0
LINE
8
BLACK
6
CONTINUOUS
10
148.3249999999999886
20
-133.8249999999999886
11
148.3249999999999886
21
-134.7750000000000057
0
LINE
8
BLACK
6
CONTINUOUS
10
148.3249999999999886
20
-134.7750000000000057
11
148.3059700000000021
21
-134.8706709999999873
0
LINE
8
BLACK
6
CONTINUOUS
10
148.3059700000000021
20
-134.8706709999999873
11
148.2517770000000041
21
-134.9517769999999928
0
LINE
8
BLACK
6
CONTINUOUS
10
148.2517770000000041
20
-134.9517769999999928
11
148.1706709999999987
21
-135.0059699999999907
0
LINE
8
BLACK
6
CONTINUOUS
10
148.1706709999999987
20
-135.0059699999999907
11
148.0749999999999886
21
-135.0250000000000057
0
LINE
8
BLACK
6
CONTINUOUS
10
148.0749999999999886
20
-135.0250000000000057
11
147.4000000000000057
21
-135.0250000000000057
0
LINE
8
BLACK
6
CONTINUOUS
10
147.4000000000000057
20
-135.0250000000000057
11
147.3043289999999956
21
-135.0059699999999907
0
LINE
8
BLACK
6
CONTINUOUS
10
147.3043289999999956
20
-135.0059699999999907
11
147.2232229999999902
21
-134.9517769999999928
0
LINE
8
BLACK
6
CONTINUOUS
10
147.2232229999999902
20
-134.9517769999999928
11
147.1690299999999922
21
-134.8706709999999873
0
LINE
8
BLACK
6
CONTINUOUS
10
147.1690299999999922
20
-134.8706709999999873
11
147.1500000000000057
21
-134.7750000000000057
0
LINE
8
BLACK
6
CONTINUOUS
10
147.1500000000000057
20
-134.7750000000000057
11
147.1500000000000057
21
-133.8249999999999886
0
LINE
8
BLACK
6
CONTINUOUS
10
147.1500000000000057
20
-133.8249999999999886
11
147.1690299999999922
21
-133.729329000000007
0
LINE
8
BLACK
6
CONTINUOUS
10
147.1690299999999922
20
-133.729329000000007
11
147.2232229999999902
21
-133.6482230000000015
0
LINE
8
BLACK
6
CONTINUOUS
10
147.2232229999999902
20
-133.6482230000000015
11
147.3043289999999956
21
-133.5940300000000036
0
LINE
8
BLACK
6
CONTINUOUS
10
147.3043289999999956
20
-133.5940300000000036
11
147.4000000000000057
21
-133.5749999999999886
0
LINE
8
BLACK
6
CONTINUOUS
10
147.4000000000000057
20
-133.5749999999999886
11
148.0749999999999886
21
-133.5749999999999886
0
LINE
8
BLACK
6
CONTINUOUS
10
148.0749999999999886
20
-133.5749999999999886
11
148.1706709999999987
21
-133.5940300000000036
0
LINE
8
BLACK
6
CONTINUOUS
10
71.6206699999999898
20
-133.2190300000000036
11
71.7017759999999953
21
-133.273223999999999
0
LINE
8
BLACK
6
CONTINUOUS
10
71.7017759999999953
20
-133.273223999999999
11
71.7559699999999907
21
-133.3543300000000045
0
LINE
8
BLACK
6
CONTINUOUS
10
71.7559699999999907
20
-133.3543300000000045
11
71.774998999999994
21
-133.4500019999999836
0
LINE
8
BLACK
6
CONTINUOUS
10
71.774998999999994
20
-133.4500019999999836
11
71.7749999999999915
21
-134.3749990000000025
0
LINE
8
BLACK
6
CONTINUOUS
10
71.7749999999999915
20
-134.3749990000000025
11
71.7559699999999907
21
-134.4706699999999842
0
LINE
8
BLACK
6
CONTINUOUS
10
71.7559699999999907
20
-134.4706699999999842
11
71.7017759999999953
21
-134.5517759999999896
0
LINE
8
BLACK
6
CONTINUOUS
10
71.7017759999999953
20
-134.5517759999999896
11
71.6206699999999898
21
-134.605969999999985
0
LINE
8
BLACK
6
CONTINUOUS
10
71.6206699999999898
20
-134.605969999999985
11
71.5249979999999965
21
-134.6249990000000025
0
LINE
8
BLACK
6
CONTINUOUS
10
71.5249979999999965
20
-134.6249990000000025
11
70.2750010000000032
21
-134.625
0
LINE
8
BLACK
6
CONTINUOUS
10
70.2750010000000032
20
-134.625
11
70.1793299999999931
21
-134.605969999999985
0
LINE
8
BLACK
6
CONTINUOUS
10
70.1793299999999931
20
-134.605969999999985
11
70.0982240000000019
21
-134.5517759999999896
0
LINE
8
BLACK
6
CONTINUOUS
10
70.0982240000000019
20
-134.5517759999999896
11
70.0440299999999922
21
-134.4706699999999842
0
LINE
8
BLACK
6
CONTINUOUS
10
70.0440299999999922
20
-134.4706699999999842
11
70.0250010000000032
21
-134.374998000000005
0
LINE
8
BLACK
6
CONTINUOUS
10
70.0250010000000032
20
-134.374998000000005
11
70.0249999999999915
21
-133.4500009999999861
0
LINE
8
BLACK
6
CONTINUOUS
10
70.0249999999999915
20
-133.4500009999999861
11
70.0440299999999922
21
-133.3543300000000045
0
LINE
8
BLACK
6
CONTINUOUS
10
70.0440299999999922
20
-133.3543300000000045
11
70.0982240000000019
21
-133.273223999999999
0
LINE
8
BLACK
6
CONTINUOUS
10
70.0982240000000019
20
-133.273223999999999
11
70.1793299999999931
21
-133.2190300000000036
0
LINE
8
BLACK
6
CONTINUOUS
10
70.1793299999999931
20
-133.2190300000000036
11
70.2750020000000006
21
-133.2000009999999861
0
LINE
8
BLACK
6
CONTINUOUS
10
70.2750020000000006
20
-133.2000009999999861
11
71.524998999999994
21
-133.1999999999999886
0
LINE
8
BLACK
6
CONTINUOUS
10
71.524998999999994
20
-133.1999999999999886
11
71.6206699999999898
21
-133.2190300000000036
0
LINE
8
BLACK
6
CONTINUOUS
10
88.2956709999999987
20
-131.6690299999999922
11
88.3767769999999899
21
-131.7232229999999902
0
LINE
8
BLACK
6
CONTINUOUS
10
88.3767769999999899
20
-131.7232229999999902
11
88.4309700000000021
21
-131.8043289999999956
0
LINE
8
BLACK
6
CONTINUOUS
10
88.4309700000000021
20
-131.8043289999999956
11
88.4500000000000028
21
-131.9000000000000057
0
LINE
8
BLACK
6
CONTINUOUS
10
88.4500000000000028
20
-131.9000000000000057
11
88.4500000000000028
21
-133.9000000000000057
0
LINE
8
BLACK
6
CONTINUOUS
10
88.4500000000000028
20
-133.9000000000000057
11
88.4309700000000021
21
-133.9956709999999873
0
LINE
8
BLACK
6
CONTINUOUS
10
88.4309700000000021
20
-133.9956709999999873
11
88.3767769999999899
21
-134.0767769999999928
0
LINE
8
BLACK
6
CONTINUOUS
10
88.3767769999999899
20
-134.0767769999999928
11
88.2956709999999987
21
-134.1309699999999907
0
LINE
8
BLACK
6
CONTINUOUS
10
88.2956709999999987
20
-134.1309699999999907
11
88.2000000000000028
21
-134.1500000000000057
0
LINE
8
BLACK
6
CONTINUOUS
10
88.2000000000000028
20
-134.1500000000000057
11
85.3999999999999915
21
-134.1500000000000057
0
LINE
8
BLACK
6
CONTINUOUS
10
85.3999999999999915
20
-134.1500000000000057
11
85.3043289999999956
21
-134.1309699999999907
0
LINE
8
BLACK
6
CONTINUOUS
10
85.3043289999999956
20
-134.1309699999999907
11
85.2232229999999902
21
-134.0767769999999928
0
LINE
8
BLACK
6
CONTINUOUS
10
85.2232229999999902
20
-134.0767769999999928
11
85.1690299999999922
21
-133.9956709999999873
0
LINE
8
BLACK
6
CONTINUOUS
10
85.1690299999999922
20
-133.9956709999999873
11
85.1499999999999915
21
-133.9000000000000057
0
LINE
8
BLACK
6
CONTINUOUS
10
85.1499999999999915
20
-133.9000000000000057
11
85.1499999999999915
21
-131.9000000000000057
0
LINE
8
BLACK
6
CONTINUOUS
10
85.1499999999999915
20
-131.9000000000000057
11
85.1690299999999922
21
-131.8043289999999956
0
LINE
8
BLACK
6
CONTINUOUS
10
85.1690299999999922
20
-131.8043289999999956
11
85.2232229999999902
21
-131.7232229999999902
0
LINE
8
BLACK
6
CONTINUOUS
10
85.2232229999999902
20
-131.7232229999999902
11
85.3043289999999956
21
-131.6690299999999922
0
LINE
8
BLACK
6
CONTINUOUS
10
85.3043289999999956
20
-131.6690299999999922
11
85.3999999999999915
21
-131.6500000000000057
0
LINE
8
BLACK
6
CONTINUOUS
10
85.3999999999999915
20
-131.6500000000000057
11
88.2000000000000028
21
-131.6500000000000057
0
LINE
8
BLACK
6
CONTINUOUS
10
88.2000000000000028
20
-131.6500000000000057
11
88.2956709999999987
21
-131.6690299999999922
0
LINE
8
BLACK
6
CONTINUOUS
10
146.0956709999999816
20
-131.3940299999999866
11
146.1767769999999871
21
-131.4482229999999845
0
LINE
8
BLACK
6
CONTINUOUS
10
146.1767769999999871
20
-131.4482229999999845
11
146.230969999999985
21
-131.5293289999999899
0
LINE
8
BLACK
6
CONTINUOUS
10
146.230969999999985
20
-131.5293289999999899
11
146.25
21
-131.625
0
LINE
8
BLACK
6
CONTINUOUS
10
146.25
20
-131.625
11
146.25
21
-132.5749999999999886
0
LINE
8
BLACK
6
CONTINUOUS
10
146.25
20
-132.5749999999999886
11
146.230969999999985
21
-132.6706709999999987
0
LINE
8
BLACK
6
CONTINUOUS
10
146.230969999999985
20
-132.6706709999999987
11
146.1767769999999871
21
-132.7517770000000041
0
LINE
8
BLACK
6
CONTINUOUS
10
146.1767769999999871
20
-132.7517770000000041
11
146.0956709999999816
21
-132.8059700000000021
0
LINE
8
BLACK
6
CONTINUOUS
10
146.0956709999999816
20
-132.8059700000000021
11
146.
21
-132.8249999999999886
0
LINE
8
BLACK
6
CONTINUOUS
10
146.
20
-132.8249999999999886
11
145.3249999999999886
21
-132.8249999999999886
0
LINE
8
BLACK
6
CONTINUOUS
10
145.3249999999999886
20
-132.8249999999999886
11
145.229329000000007
21
-132.8059700000000021
0
LINE
8
BLACK
6
CONTINUOUS
10
145.229329000000007
20
-132.8059700000000021
11
145.1482230000000015
21
-132.7517770000000041
0
LINE
8
BLACK
6
CONTINUOUS
10
145.1482230000000015
20
-132.7517770000000041
11
145.0940300000000036
21
-132.6706709999999987
0
LINE
8
BLACK
6
CONTINUOUS
10
145.0940300000000036
20
-132.6706709999999987
11
145.0749999999999886
21
-132.5749999999999886
0
LINE
8
BLACK
6
CONTINUOUS
10
145.0749999999999886
20
-132.5749999999999886
11
145.0749999999999886
21
-131.625
0
LINE
8
BLACK
6
CONTINUOUS
10
145.0749999999999886
20
-131.625
11
145.0940300000000036
21
-131.5293289999999899
0
LINE
8
BLACK
6
CONTINUOUS
10
145.0940300000000036
20
-131.5293289999999899
11
145.1482230000000015
21
-131.4482229999999845
0
LINE
8
BLACK
6
CONTINUOUS
10
145.1482230000000015
20
-131.4482229999999845
11
145.229329000000007
21
-131.3940299999999866
0
LINE
8
BLACK
6
CONTINUOUS
10
145.229329000000007
20
-131.3940299999999866
11
145.3249999999999886
21
-131.375
0
LINE
8
BLACK
6
CONTINUOUS
10
145.3249999999999886
20
-131.375
11
146.
21
-131.375
0
LINE
8
BLACK
6
CONTINUOUS
10
146.
20
-131.375
11
146.0956709999999816
21
-131.3940299999999866
0
LINE
8
BLACK
6
CONTINUOUS
10
148.1706709999999987
20
-131.3940299999999866
11
148.2517770000000041
21
-131.4482229999999845
0
LINE
8
BLACK
6
CONTINUOUS
10
148.2517770000000041
20
-131.4482229999999845
11
148.3059700000000021
21
-131.5293289999999899
0
LINE
8
BLACK
6
CONTINUOUS
10
148.3059700000000021
20
-131.5293289999999899
11
148.3249999999999886
21
-131.625
0
LINE
8
BLACK
6
CONTINUOUS
10
148.3249999999999886
20
-131.625
11
148.3249999999999886
21
-132.5749999999999886
0
LINE
8
BLACK
6
CONTINUOUS
10
148.3249999999999886
20
-132.5749999999999886
11
148.3059700000000021
21
-132.6706709999999987
0
LINE
8
BLACK
6
CONTINUOUS
10
148.3059700000000021
20
-132.6706709999999987
11
148.2517770000000041
21
-132.7517770000000041
0
LINE
8
BLACK
6
CONTINUOUS
10
148.2517770000000041
20
-132.7517770000000041
11
148.1706709999999987
21
-132.8059700000000021
0
LINE
8
BLACK
6
CONTINUOUS
10
148.1706709999999987
20
-132.8059700000000021
11
148.0749999999999886
21
-132.8249999999999886
0
LINE
8
BLACK
6
CONTINUOUS
10
148.0749999999999886
20
-132.8249999999999886
11
147.4000000000000057
21
-132.8249999999999886
0
LINE
8
BLACK
6
CONTINUOUS
10
147.4000000000000057
20
-132.8249999999999886
11
147.3043289999999956
21
-132.8059700000000021
0
LINE
8
BLACK
6
CONTINUOUS
10
147.3043289999999956
20
-132.8059700000000021
11
147.2232229999999902
21
-132.7517770000000041
0
LINE
8
BLACK
6
CONTINUOUS
10
147.2232229999999902
20
-132.7517770000000041
11
147.1690299999999922
21
-132.6706709999999987
0
LINE
8
BLACK
6
CONTINUOUS
10
147.1690299999999922
20
-132.6706709999999987
11
147.1500000000000057
21
-132.5749999999999886
0
LINE
8
BLACK
6
CONTINUOUS
10
147.1500000000000057
20
-132.5749999999999886
11
147.1500000000000057
21
-131.625
0
LINE
8
BLACK
6
CONTINUOUS
10
147.1500000000000057
20
-131.625
11
147.1690299999999922
21
-131.5293289999999899
0
LINE
8
BLACK
6
CONTINUOUS
10
147.1690299999999922
20
-131.5293289999999899
11
147.2232229999999902
21
-131.4482229999999845
0
LINE
8
BLACK
6
CONTINUOUS
10
147.2232229999999902
20
-131.4482229999999845
11
147.3043289999999956
21
-131.3940299999999866
0
LINE
8
BLACK
6
CONTINUOUS
10
147.3043289999999956
20
-131.3940299999999866
11
147.4000000000000057
21
-131.375
0
LINE
8
BLACK
6
CONTINUOUS
10
147.4000000000000057
20
-131.375
11
148.0749999999999886
21
-131.375
0
LINE
8
BLACK
6
CONTINUOUS
10
148.0749999999999886
20
-131.375
11
148.1706709999999987
21
-131.3940299999999866
0
LINE
8
BLACK
6
CONTINUOUS
10
140.3456709999999816
20
-131.4190299999999922
11
140.4267769999999871
21
-131.4732229999999902
0
LINE
8
BLACK
6
CONTINUOUS
10
140.4267769999999871
20
-131.4732229999999902
11
140.480969999999985
21
-131.5543289999999956
0
LINE
8
BLACK
6
CONTINUOUS
10
140.480969999999985
20
-131.5543289999999956
11
140.5
21
-131.6500000000000057
0
LINE
8
BLACK
6
CONTINUOUS
10
140.5
20
-131.6500000000000057
11
140.5
21
-132.5499999999999829
0
LINE
8
BLACK
6
CONTINUOUS
10
140.5
20
-132.5499999999999829
11
140.480969999999985
21
-132.645670999999993
0
LINE
8
BLACK
6
CONTINUOUS
10
140.480969999999985
20
-132.645670999999993
11
140.4267769999999871
21
-132.7267769999999985
0
LINE
8
BLACK
6
CONTINUOUS
10
140.4267769999999871
20
-132.7267769999999985
11
140.3456709999999816
21
-132.7809699999999964
0
LINE
8
BLACK
6
CONTINUOUS
10
140.3456709999999816
20
-132.7809699999999964
11
140.25
21
-132.7999999999999829
0
LINE
8
BLACK
6
CONTINUOUS
10
140.25
20
-132.7999999999999829
11
139.5499999999999829
21
-132.7999999999999829
0
LINE
8
BLACK
6
CONTINUOUS
10
139.5499999999999829
20
-132.7999999999999829
11
139.4543290000000013
21
-132.7809699999999964
0
LINE
8
BLACK
6
CONTINUOUS
10
139.4543290000000013
20
-132.7809699999999964
11
139.3732229999999959
21
-132.7267769999999985
0
LINE
8
BLACK
6
CONTINUOUS
10
139.3732229999999959
20
-132.7267769999999985
11
139.3190299999999979
21
-132.645670999999993
0
LINE
8
BLACK
6
CONTINUOUS
10
139.3190299999999979
20
-132.645670999999993
11
139.2999999999999829
21
-132.5499999999999829
0
LINE
8
BLACK
6
CONTINUOUS
10
139.2999999999999829
20
-132.5499999999999829
11
139.2999999999999829
21
-131.6500000000000057
0
LINE
8
BLACK
6
CONTINUOUS
10
139.2999999999999829
20
-131.6500000000000057
11
139.3190299999999979
21
-131.5543289999999956
0
LINE
8
BLACK
6
CONTINUOUS
10
139.3190299999999979
20
-131.5543289999999956
11
139.3732229999999959
21
-131.4732229999999902
0
LINE
8
BLACK
6
CONTINUOUS
10
139.3732229999999959
20
-131.4732229999999902
11
139.4543290000000013
21
-131.4190299999999922
0
LINE
8
BLACK
6
CONTINUOUS
10
139.4543290000000013
20
-131.4190299999999922
11
139.5499999999999829
21
-131.4000000000000057
0
LINE
8
BLACK
6
CONTINUOUS
10
139.5499999999999829
20
-131.4000000000000057
11
140.25
21
-131.4000000000000057
0
LINE
8
BLACK
6
CONTINUOUS
10
140.25
20
-131.4000000000000057
11
140.3456709999999816
21
-131.4190299999999922
0
LINE
8
BLACK
6
CONTINUOUS
10
142.3456709999999816
20
-131.4190299999999922
11
142.4267769999999871
21
-131.4732229999999902
0
LINE
8
BLACK
6
CONTINUOUS
10
142.4267769999999871
20
-131.4732229999999902
11
142.480969999999985
21
-131.5543289999999956
0
LINE
8
BLACK
6
CONTINUOUS
10
142.480969999999985
20
-131.5543289999999956
11
142.5
21
-131.6500000000000057
0
LINE
8
BLACK
6
CONTINUOUS
10
142.5
20
-131.6500000000000057
11
142.5
21
-132.5499999999999829
0
LINE
8
BLACK
6
CONTINUOUS
10
142.5
20
-132.5499999999999829
11
142.480969999999985
21
-132.645670999999993
0
LINE
8
BLACK
6
CONTINUOUS
10
142.480969999999985
20
-132.645670999999993
11
142.4267769999999871
21
-132.7267769999999985
0
LINE
8
BLACK
6
CONTINUOUS
10
142.4267769999999871
20
-132.7267769999999985
11
142.3456709999999816
21
-132.7809699999999964
0
LINE
8
BLACK
6
CONTINUOUS
10
142.3456709999999816
20
-132.7809699999999964
11
142.25
21
-132.7999999999999829
0
LINE
8
BLACK
6
CONTINUOUS
10
142.25
20
-132.7999999999999829
11
141.5499999999999829
21
-132.7999999999999829
0
LINE
8
BLACK
6
CONTINUOUS
10
141.5499999999999829
20
-132.7999999999999829
11
141.4543290000000013
21
-132.7809699999999964
0
LINE
8
BLACK
6
CONTINUOUS
10
141.4543290000000013
20
-132.7809699999999964
11
141.3732229999999959
21
-132.7267769999999985
0
LINE
8
BLACK
6
CONTINUOUS
10
141.3732229999999959
20
-132.7267769999999985
11
141.3190299999999979
21
-132.645670999999993
0
LINE
8
BLACK
6
CONTINUOUS
10
141.3190299999999979
20
-132.645670999999993
11
141.2999999999999829
21
-132.5499999999999829
0
LINE
8
BLACK
6
CONTINUOUS
10
141.2999999999999829
20
-132.5499999999999829
11
141.2999999999999829
21
-131.6500000000000057
0
LINE
8
BLACK
6
CONTINUOUS
10
141.2999999999999829
20
-131.6500000000000057
11
141.3190299999999979
21
-131.5543289999999956
0
LINE
8
BLACK
6
CONTINUOUS
10
141.3190299999999979
20
-131.5543289999999956
11
141.3732229999999959
21
-131.4732229999999902
0
LINE
8
BLACK
6
CONTINUOUS
10
141.3732229999999959
20
-131.4732229999999902
11
141.4543290000000013
21
-131.4190299999999922
0
LINE
8
BLACK
6
CONTINUOUS
10
141.4543290000000013
20
-131.4190299999999922
11
141.5499999999999829
21
-131.4000000000000057
0
LINE
8
BLACK
6
CONTINUOUS
10
141.5499999999999829
20
-131.4000000000000057
11
142.25
21
-131.4000000000000057
0
LINE
8
BLACK
6
CONTINUOUS
10
142.25
20
-131.4000000000000057
11
142.3456709999999816
21
-131.4190299999999922
0
LINE
8
BLACK
6
CONTINUOUS
10
140.3456709999999816
20
-128.9190299999999922
11
140.4267769999999871
21
-128.9732229999999902
0
LINE
8
BLACK
6
CONTINUOUS
10
140.4267769999999871
20
-128.9732229999999902
11
140.480969999999985
21
-129.0543289999999956
0
LINE
8
BLACK
6
CONTINUOUS
10
140.480969999999985
20
-129.0543289999999956
11
140.5
21
-129.1500000000000057
0
LINE
8
BLACK
6
CONTINUOUS
10
140.5
20
-129.1500000000000057
11
140.5
21
-130.0499999999999829
0
LINE
8
BLACK
6
CONTINUOUS
10
140.5
20
-130.0499999999999829
11
140.480969999999985
21
-130.145670999999993
0
LINE
8
BLACK
6
CONTINUOUS
10
140.480969999999985
20
-130.145670999999993
11
140.4267769999999871
21
-130.2267769999999985
0
LINE
8
BLACK
6
CONTINUOUS
10
140.4267769999999871
20
-130.2267769999999985
11
140.3456709999999816
21
-130.2809699999999964
0
LINE
8
BLACK
6
CONTINUOUS
10
140.3456709999999816
20
-130.2809699999999964
11
140.25
21
-130.2999999999999829
0
LINE
8
BLACK
6
CONTINUOUS
10
140.25
20
-130.2999999999999829
11
139.5499999999999829
21
-130.2999999999999829
0
LINE
8
BLACK
6
CONTINUOUS
10
139.5499999999999829
20
-130.2999999999999829
11
139.4543290000000013
21
-130.2809699999999964
0
LINE
8
BLACK
6
CONTINUOUS
10
139.4543290000000013
20
-130.2809699999999964
11
139.3732229999999959
21
-130.2267769999999985
0
LINE
8
BLACK
6
CONTINUOUS
10
139.3732229999999959
20
-130.2267769999999985
11
139.3190299999999979
21
-130.145670999999993
0
LINE
8
BLACK
6
CONTINUOUS
10
139.3190299999999979
20
-130.145670999999993
11
139.2999999999999829
21
-130.0499999999999829
0
LINE
8
BLACK
6
CONTINUOUS
10
139.2999999999999829
20
-130.0499999999999829
11
139.2999999999999829
21
-129.1500000000000057
0
LINE
8
BLACK
6
CONTINUOUS
10
139.2999999999999829
20
-129.1500000000000057
11
139.3190299999999979
21
-129.0543289999999956
0
LINE
8
BLACK
6
CONTINUOUS
10
139.3190299999999979
20
-129.0543289999999956
11
139.3732229999999959
21
-128.9732229999999902
0
LINE
8
BLACK
6
CONTINUOUS
10
139.3732229999999959
20
-128.9732229999999902
11
139.4543290000000013
21
-128.9190299999999922
0
LINE
8
BLACK
6
CONTINUOUS
10
139.4543290000000013
20
-128.9190299999999922
11
139.5499999999999829
21
-128.9000000000000057
0
LINE
8
BLACK
6
CONTINUOUS
10
139.5499999999999829
20
-128.9000000000000057
11
140.25
21
-128.9000000000000057
0
LINE
8
BLACK
6
CONTINUOUS
10
140.25
20
-128.9000000000000057
11
140.3456709999999816
21
-128.9190299999999922
0
LINE
8
BLACK
6
CONTINUOUS
10
142.3456709999999816
20
-128.9190299999999922
11
142.4267769999999871
21
-128.9732229999999902
0
LINE
8
BLACK
6
CONTINUOUS
10
142.4267769999999871
20
-128.9732229999999902
11
142.480969999999985
21
-129.0543289999999956
0
LINE
8
BLACK
6
CONTINUOUS
10
142.480969999999985
20
-129.0543289999999956
11
142.5
21
-129.1500000000000057
0
LINE
8
BLACK
6
CONTINUOUS
10
142.5
20
-129.1500000000000057
11
142.5
21
-130.0499999999999829
0
LINE
8
BLACK
6
CONTINUOUS
10
142.5
20
-130.0499999999999829
11
142.480969999999985
21
-130.145670999999993
0
LINE
8
BLACK
6
CONTINUOUS
10
142.480969999999985
20
-130.145670999999993
11
142.4267769999999871
21
-130.2267769999999985
0
LINE
8
BLACK
6
CONTINUOUS
10
142.4267769999999871
20
-130.2267769999999985
11
142.3456709999999816
21
-130.2809699999999964
0
LINE
8
BLACK
6
CONTINUOUS
10
142.3456709999999816
20
-130.2809699999999964
11
142.25
21
-130.2999999999999829
0
LINE
8
BLACK
6
CONTINUOUS
10
142.25
20
-130.2999999999999829
11
141.5499999999999829
21
-130.2999999999999829
0
LINE
8
BLACK
6
CONTINUOUS
10
141.5499999999999829
20
-130.2999999999999829
11
141.4543290000000013
21
-130.2809699999999964
0
LINE
8
BLACK
6
CONTINUOUS
10
141.4543290000000013
20
-130.2809699999999964
11
141.3732229999999959
21
-130.2267769999999985
0
LINE
8
BLACK
6
CONTINUOUS
10
141.3732229999999959
20
-130.2267769999999985
11
141.3190299999999979
21
-130.145670999999993
0
LINE
8
BLACK
6
CONTINUOUS
10
141.3190299999999979
20
-130.145670999999993
11
141.2999999999999829
21
-130.0499999999999829
0
LINE
8
BLACK
6
CONTINUOUS
10
141.2999999999999829
20
-130.0499999999999829
11
141.2999999999999829
21
-129.1500000000000057
0
LINE
8
BLACK
6
CONTINUOUS
10
141.2999999999999829
20
-129.1500000000000057
11
141.3190299999999979
21
-129.0543289999999956
0
LINE
8
BLACK
6
CONTINUOUS
10
141.3190299999999979
20
-129.0543289999999956
11
141.3732229999999959
21
-128.9732229999999902
0
LINE
8
BLACK
6
CONTINUOUS
10
141.3732229999999959
20
-128.9732229999999902
11
141.4543290000000013
21
-128.9190299999999922
0
LINE
8
BLACK
6
CONTINUOUS
10
141.4543290000000013
20
-128.9190299999999922
11
141.5499999999999829
21
-128.9000000000000057
0
LINE
8
BLACK
6
CONTINUOUS
10
141.5499999999999829
20
-128.9000000000000057
11
142.25
21
-128.9000000000000057
0
LINE
8
BLACK
6
CONTINUOUS
10
142.25
20
-128.9000000000000057
11
142.3456709999999816
21
-128.9190299999999922
0
LINE
8
BLACK
6
CONTINUOUS
10
88.2956709999999987
20
-124.8690299999999951
11
88.3767769999999899
21
-124.923222999999993
0
LINE
8
BLACK
6
CONTINUOUS
10
88.3767769999999899
20
-124.923222999999993
11
88.4309700000000021
21
-125.0043289999999985
0
LINE
8
BLACK
6
CONTINUOUS
10
88.4309700000000021
20
-125.0043289999999985
11
88.4500000000000028
21
-125.0999999999999943
0
LINE
8
BLACK
6
CONTINUOUS
10
88.4500000000000028
20
-125.0999999999999943
11
88.4500000000000028
21
-127.0999999999999943
0
LINE
8
BLACK
6
CONTINUOUS
10
88.4500000000000028
20
-127.0999999999999943
11
88.4309700000000021
21
-127.1956709999999902
0
LINE
8
BLACK
6
CONTINUOUS
10
88.4309700000000021
20
-127.1956709999999902
11
88.3767769999999899
21
-127.2767769999999956
0
LINE
8
BLACK
6
CONTINUOUS
10
88.3767769999999899
20
-127.2767769999999956
11
88.2956709999999987
21
-127.3309699999999935
0
LINE
8
BLACK
6
CONTINUOUS
10
88.2956709999999987
20
-127.3309699999999935
11
88.2000000000000028
21
-127.3499999999999943
0
LINE
8
BLACK
6
CONTINUOUS
10
88.2000000000000028
20
-127.3499999999999943
11
85.3999999999999915
21
-127.3499999999999943
0
LINE
8
BLACK
6
CONTINUOUS
10
85.3999999999999915
20
-127.3499999999999943
11
85.3043289999999956
21
-127.3309699999999935
0
LINE
8
BLACK
6
CONTINUOUS
10
85.3043289999999956
20
-127.3309699999999935
11
85.2232229999999902
21
-127.2767769999999956
0
LINE
8
BLACK
6
CONTINUOUS
10
85.2232229999999902
20
-127.2767769999999956
11
85.1690299999999922
21
-127.1956709999999902
0
LINE
8
BLACK
6
CONTINUOUS
10
85.1690299999999922
20
-127.1956709999999902
11
85.1499999999999915
21
-127.0999999999999943
0
LINE
8
BLACK
6
CONTINUOUS
10
85.1499999999999915
20
-127.0999999999999943
11
85.1499999999999915
21
-125.0999999999999943
0
LINE
8
BLACK
6
CONTINUOUS
10
85.1499999999999915
20
-125.0999999999999943
11
85.1690299999999922
21
-125.0043289999999985
0
LINE
8
BLACK
6
CONTINUOUS
10
85.1690299999999922
20
-125.0043289999999985
11
85.2232229999999902
21
-124.923222999999993
0
LINE
8
BLACK
6
CONTINUOUS
10
85.2232229999999902
20
-124.923222999999993
11
85.3043289999999956
21
-124.8690299999999951
0
LINE
8
BLACK
6
CONTINUOUS
10
85.3043289999999956
20
-124.8690299999999951
11
85.3999999999999915
21
-124.8499999999999943
0
LINE
8
BLACK
6
CONTINUOUS
10
85.3999999999999915
20
-124.8499999999999943
11
88.2000000000000028
21
-124.8499999999999943
0
LINE
8
BLACK
6
CONTINUOUS
10
88.2000000000000028
20
-124.8499999999999943
11
88.2956709999999987
21
-124.8690299999999951
0
LINE
8
BLACK
6
CONTINUOUS
10
160.9956709999999873
20
-116.1940299999999979
11
161.0767769999999928
21
-116.2482229999999959
0
LINE
8
BLACK
6
CONTINUOUS
10
161.0767769999999928
20
-116.2482229999999959
11
161.1309699999999907
21
-116.3293290000000013
0
LINE
8
BLACK
6
CONTINUOUS
10
161.1309699999999907
20
-116.3293290000000013
11
161.1500000000000057
21
-116.4249999999999972
0
LINE
8
BLACK
6
CONTINUOUS
10
161.1500000000000057
20
-116.4249999999999972
11
161.1500000000000057
21
-117.375
0
LINE
8
BLACK
6
CONTINUOUS
10
161.1500000000000057
20
-117.375
11
161.1309699999999907
21
-117.4706709999999958
0
LINE
8
BLACK
6
CONTINUOUS
10
161.1309699999999907
20
-117.4706709999999958
11
161.0767769999999928
21
-117.5517770000000013
0
LINE
8
BLACK
6
CONTINUOUS
10
161.0767769999999928
20
-117.5517770000000013
11
160.9956709999999873
21
-117.6059699999999992
0
LINE
8
BLACK
6
CONTINUOUS
10
160.9956709999999873
20
-117.6059699999999992
11
160.9000000000000057
21
-117.625
0
LINE
8
BLACK
6
CONTINUOUS
10
160.9000000000000057
20
-117.625
11
160.2249999999999943
21
-117.625
0
LINE
8
BLACK
6
CONTINUOUS
10
160.2249999999999943
20
-117.625
11
160.1293289999999843
21
-117.6059699999999992
0
LINE
8
BLACK
6
CONTINUOUS
10
160.1293289999999843
20
-117.6059699999999992
11
160.0482229999999788
21
-117.5517770000000013
0
LINE
8
BLACK
6
CONTINUOUS
10
160.0482229999999788
20
-117.5517770000000013
11
159.9940299999999809
21
-117.4706709999999958
0
LINE
8
BLACK
6
CONTINUOUS
10
159.9940299999999809
20
-117.4706709999999958
11
159.9749999999999943
21
-117.375
0
LINE
8
BLACK
6
CONTINUOUS
10
159.9749999999999943
20
-117.375
11
159.9749999999999943
21
-116.4249999999999972
0
LINE
8
BLACK
6
CONTINUOUS
10
159.9749999999999943
20
-116.4249999999999972
11
159.9940299999999809
21
-116.3293290000000013
0
LINE
8
BLACK
6
CONTINUOUS
10
159.9940299999999809
20
-116.3293290000000013
11
160.0482229999999788
21
-116.2482229999999959
0
LINE
8
BLACK
6
CONTINUOUS
10
160.0482229999999788
20
-116.2482229999999959
11
160.1293289999999843
21
-116.1940299999999979
0
LINE
8
BLACK
6
CONTINUOUS
10
160.1293289999999843
20
-116.1940299999999979
11
160.2249999999999943
21
-116.1749999999999972
0
LINE
8
BLACK
6
CONTINUOUS
10
160.2249999999999943
20
-116.1749999999999972
11
160.9000000000000057
21
-116.1749999999999972
0
LINE
8
BLACK
6
CONTINUOUS
10
160.9000000000000057
20
-116.1749999999999972
11
160.9956709999999873
21
-116.1940299999999979
0
LINE
8
BLACK
6
CONTINUOUS
10
163.0706710000000044
20
-116.1940299999999979
11
163.1517769999999814
21
-116.2482229999999959
0
LINE
8
BLACK
6
CONTINUOUS
10
163.1517769999999814
20
-116.2482229999999959
11
163.2059699999999793
21
-116.3293290000000013
0
LINE
8
BLACK
6
CONTINUOUS
10
163.2059699999999793
20
-116.3293290000000013
11
163.2249999999999943
21
-116.4249999999999972
0
LINE
8
BLACK
6
CONTINUOUS
10
163.2249999999999943
20
-116.4249999999999972
11
163.2249999999999943
21
-117.375
0
LINE
8
BLACK
6
CONTINUOUS
10
163.2249999999999943
20
-117.375
11
163.2059699999999793
21
-117.4706709999999958
0
LINE
8
BLACK
6
CONTINUOUS
10
163.2059699999999793
20
-117.4706709999999958
11
163.1517769999999814
21
-117.5517770000000013
0
LINE
8
BLACK
6
CONTINUOUS
10
163.1517769999999814
20
-117.5517770000000013
11
163.0706710000000044
21
-117.6059699999999992
0
LINE
8
BLACK
6
CONTINUOUS
10
163.0706710000000044
20
-117.6059699999999992
11
162.9749999999999943
21
-117.625
0
LINE
8
BLACK
6
CONTINUOUS
10
162.9749999999999943
20
-117.625
11
162.2999999999999829
21
-117.625
0
LINE
8
BLACK
6
CONTINUOUS
10
162.2999999999999829
20
-117.625
11
162.2043290000000013
21
-117.6059699999999992
0
LINE
8
BLACK
6
CONTINUOUS
10
162.2043290000000013
20
-117.6059699999999992
11
162.1232229999999959
21
-117.5517770000000013
0
LINE
8
BLACK
6
CONTINUOUS
10
162.1232229999999959
20
-117.5517770000000013
11
162.0690299999999979
21
-117.4706709999999958
0
LINE
8
BLACK
6
CONTINUOUS
10
162.0690299999999979
20
-117.4706709999999958
11
162.0499999999999829
21
-117.375
0
LINE
8
BLACK
6
CONTINUOUS
10
162.0499999999999829
20
-117.375
11
162.0499999999999829
21
-116.4249999999999972
0
LINE
8
BLACK
6
CONTINUOUS
10
162.0499999999999829
20
-116.4249999999999972
11
162.0690299999999979
21
-116.3293290000000013
0
LINE
8
BLACK
6
CONTINUOUS
10
162.0690299999999979
20
-116.3293290000000013
11
162.1232229999999959
21
-116.2482229999999959
0
LINE
8
BLACK
6
CONTINUOUS
10
162.1232229999999959
20
-116.2482229999999959
11
162.2043290000000013
21
-116.1940299999999979
0
LINE
8
BLACK
6
CONTINUOUS
10
162.2043290000000013
20
-116.1940299999999979
11
162.2999999999999829
21
-116.1749999999999972
0
LINE
8
BLACK
6
CONTINUOUS
10
162.2999999999999829
20
-116.1749999999999972
11
162.9749999999999943
21
-116.1749999999999972
0
LINE
8
BLACK
6
CONTINUOUS
10
162.9749999999999943
20
-116.1749999999999972
11
163.0706710000000044
21
-116.1940299999999979
0
LINE
8
BLACK
6
CONTINUOUS
10
160.9956709999999873
20
-113.9940299999999951
11
161.0767769999999928
21
-114.048222999999993
0
LINE
8
BLACK
6
CONTINUOUS
10
161.0767769999999928
20
-114.048222999999993
11
161.1309699999999907
21
-114.1293289999999985
0
LINE
8
BLACK
6
CONTINUOUS
10
161.1309699999999907
20
-114.1293289999999985
11
161.1500000000000057
21
-114.2249999999999943
0
LINE
8
BLACK
6
CONTINUOUS
10
161.1500000000000057
20
-114.2249999999999943
11
161.1500000000000057
21
-115.1749999999999972
0
LINE
8
BLACK
6
CONTINUOUS
10
161.1500000000000057
20
-115.1749999999999972
11
161.1309699999999907
21
-115.270670999999993
0
LINE
8
BLACK
6
CONTINUOUS
10
161.1309699999999907
20
-115.270670999999993
11
161.0767769999999928
21
-115.3517769999999985
0
LINE
8
BLACK
6
CONTINUOUS
10
161.0767769999999928
20
-115.3517769999999985
11
160.9956709999999873
21
-115.4059699999999964
0
LINE
8
BLACK
6
CONTINUOUS
10
160.9956709999999873
20
-115.4059699999999964
11
160.9000000000000057
21
-115.4249999999999972
0
LINE
8
BLACK
6
CONTINUOUS
10
160.9000000000000057
20
-115.4249999999999972
11
160.2249999999999943
21
-115.4249999999999972
0
LINE
8
BLACK
6
CONTINUOUS
10
160.2249999999999943
20
-115.4249999999999972
11
160.1293289999999843
21
-115.4059699999999964
0
LINE
8
BLACK
6
CONTINUOUS
10
160.1293289999999843
20
-115.4059699999999964
11
160.0482229999999788
21
-115.3517769999999985
0
LINE
8
BLACK
6
CONTINUOUS
10
160.0482229999999788
20
-115.3517769999999985
11
159.9940299999999809
21
-115.270670999999993
0
LINE
8
BLACK
6
CONTINUOUS
10
159.9940299999999809
20
-115.270670999999993
11
159.9749999999999943
21
-115.1749999999999972
0
LINE
8
BLACK
6
CONTINUOUS
10
159.9749999999999943
20
-115.1749999999999972
11
159.9749999999999943
21
-114.2249999999999943
0
LINE
8
BLACK
6
CONTINUOUS
10
159.9749999999999943
20
-114.2249999999999943
11
159.9940299999999809
21
-114.1293289999999985
0
LINE
8
BLACK
6
CONTINUOUS
10
159.9940299999999809
20
-114.1293289999999985
11
160.0482229999999788
21
-114.048222999999993
0
LINE
8
BLACK
6
CONTINUOUS
10
160.0482229999999788
20
-114.048222999999993
11
160.1293289999999843
21
-113.9940299999999951
0
LINE
8
BLACK
6
CONTINUOUS
10
160.1293289999999843
20
-113.9940299999999951
11
160.2249999999999943
21
-113.9749999999999943
0
LINE
8
BLACK
6
CONTINUOUS
10
160.2249999999999943
20
-113.9749999999999943
11
160.9000000000000057
21
-113.9749999999999943
0
LINE
8
BLACK
6
CONTINUOUS
10
160.9000000000000057
20
-113.9749999999999943
11
160.9956709999999873
21
-113.9940299999999951
0
LINE
8
BLACK
6
CONTINUOUS
10
163.0706710000000044
20
-113.9940299999999951
11
163.1517769999999814
21
-114.048222999999993
0
LINE
8
BLACK
6
CONTINUOUS
10
163.1517769999999814
20
-114.048222999999993
11
163.2059699999999793
21
-114.1293289999999985
0
LINE
8
BLACK
6
CONTINUOUS
10
163.2059699999999793
20
-114.1293289999999985
11
163.2249999999999943
21
-114.2249999999999943
0
LINE
8
BLACK
6
CONTINUOUS
10
163.2249999999999943
20
-114.2249999999999943
11
163.2249999999999943
21
-115.1749999999999972
0
LINE
8
BLACK
6
CONTINUOUS
10
163.2249999999999943
20
-115.1749999999999972
11
163.2059699999999793
21
-115.270670999999993
0
LINE
8
BLACK
6
CONTINUOUS
10
163.2059699999999793
20
-115.270670999999993
11
163.1517769999999814
21
-115.3517769999999985
0
LINE
8
BLACK
6
CONTINUOUS
10
163.1517769999999814
20
-115.3517769999999985
11
163.0706710000000044
21
-115.4059699999999964
0
LINE
8
BLACK
6
CONTINUOUS
10
163.0706710000000044
20
-115.4059699999999964
11
162.9749999999999943
21
-115.4249999999999972
0
LINE
8
BLACK
6
CONTINUOUS
10
162.9749999999999943
20
-115.4249999999999972
11
162.2999999999999829
21
-115.4249999999999972
0
LINE
8
BLACK
6
CONTINUOUS
10
162.2999999999999829
20
-115.4249999999999972
11
162.2043290000000013
21
-115.4059699999999964
0
LINE
8
BLACK
6
CONTINUOUS
10
162.2043290000000013
20
-115.4059699999999964
11
162.1232229999999959
21
-115.3517769999999985
0
LINE
8
BLACK
6
CONTINUOUS
10
162.1232229999999959
20
-115.3517769999999985
11
162.0690299999999979
21
-115.270670999999993
0
LINE
8
BLACK
6
CONTINUOUS
10
162.0690299999999979
20
-115.270670999999993
11
162.0499999999999829
21
-115.1749999999999972
0
LINE
8
BLACK
6
CONTINUOUS
10
162.0499999999999829
20
-115.1749999999999972
11
162.0499999999999829
21
-114.2249999999999943
0
LINE
8
BLACK
6
CONTINUOUS
10
162.0499999999999829
20
-114.2249999999999943
11
162.0690299999999979
21
-114.1293289999999985
0
LINE
8
BLACK
6
CONTINUOUS
10
162.0690299999999979
20
-114.1293289999999985
11
162.1232229999999959
21
-114.048222999999993
0
LINE
8
BLACK
6
CONTINUOUS
10
162.1232229999999959
20
-114.048222999999993
11
162.2043290000000013
21
-113.9940299999999951
0
LINE
8
BLACK
6
CONTINUOUS
10
162.2043290000000013
20
-113.9940299999999951
11
162.2999999999999829
21
-113.9749999999999943
0
LINE
8
BLACK
6
CONTINUOUS
10
162.2999999999999829
20
-113.9749999999999943
11
162.9749999999999943
21
-113.9749999999999943
0
LINE
8
BLACK
6
CONTINUOUS
10
162.9749999999999943
20
-113.9749999999999943
11
163.0706710000000044
21
-113.9940299999999951
0
LINE
8
BLACK
6
CONTINUOUS
10
141.2456709999999873
20
-112.5190300000000008
11
141.3267769999999928
21
-112.5732229999999987
0
LINE
8
BLACK
6
CONTINUOUS
10
141.3267769999999928
20
-112.5732229999999987
11
141.3809699999999907
21
-112.6543289999999899
0
LINE
8
BLACK
6
CONTINUOUS
10
141.3809699999999907
20
-112.6543289999999899
11
141.4000000000000057
21
-112.75
0
LINE
8
BLACK
6
CONTINUOUS
10
141.4000000000000057
20
-112.75
11
141.4000000000000057
21
-113.4499999999999886
0
LINE
8
BLACK
6
CONTINUOUS
10
141.4000000000000057
20
-113.4499999999999886
11
141.3809699999999907
21
-113.5456709999999987
0
LINE
8
BLACK
6
CONTINUOUS
10
141.3809699999999907
20
-113.5456709999999987
11
141.3267769999999928
21
-113.6267769999999899
0
LINE
8
BLACK
6
CONTINUOUS
10
141.3267769999999928
20
-113.6267769999999899
11
141.2456709999999873
21
-113.6809699999999879
0
LINE
8
BLACK
6
CONTINUOUS
10
141.2456709999999873
20
-113.6809699999999879
11
141.1500000000000057
21
-113.6999999999999886
0
LINE
8
BLACK
6
CONTINUOUS
10
141.1500000000000057
20
-113.6999999999999886
11
140.25
21
-113.6999999999999886
0
LINE
8
BLACK
6
CONTINUOUS
10
140.25
20
-113.6999999999999886
11
140.1543289999999899
21
-113.6809699999999879
0
LINE
8
BLACK
6
CONTINUOUS
10
140.1543289999999899
20
-113.6809699999999879
11
140.0732229999999845
21
-113.6267769999999899
0
LINE
8
BLACK
6
CONTINUOUS
10
140.0732229999999845
20
-113.6267769999999899
11
140.0190299999999866
21
-113.5456709999999987
0
LINE
8
BLACK
6
CONTINUOUS
10
140.0190299999999866
20
-113.5456709999999987
11
140.
21
-113.4499999999999886
0
LINE
8
BLACK
6
CONTINUOUS
10
140.
20
-113.4499999999999886
11
140.
21
-112.75
0
LINE
8
BLACK
6
CONTINUOUS
10
140.
20
-112.75
11
140.0190299999999866
21
-112.6543289999999899
0
LINE
8
BLACK
6
CONTINUOUS
10
140.0190299999999866
20
-112.6543289999999899
11
140.0732229999999845
21
-112.5732229999999987
0
LINE
8
BLACK
6
CONTINUOUS
10
140.0732229999999845
20
-112.5732229999999987
11
140.1543289999999899
21
-112.5190300000000008
0
LINE
8
BLACK
6
CONTINUOUS
10
140.1543289999999899
20
-112.5190300000000008
11
140.25
21
-112.5
0
LINE
8
BLACK
6
CONTINUOUS
10
140.25
20
-112.5
11
141.1500000000000057
21
-112.5
0
LINE
8
BLACK
6
CONTINUOUS
10
141.1500000000000057
20
-112.5
11
141.2456709999999873
21
-112.5190300000000008
0
LINE
8
BLACK
6
CONTINUOUS
10
141.2456709999999873
20
-110.5190300000000008
11
141.3267769999999928
21
-110.5732229999999987
0
LINE
8
BLACK
6
CONTINUOUS
10
141.3267769999999928
20
-110.5732229999999987
11
141.3809699999999907
21
-110.6543289999999899
0
LINE
8
BLACK
6
CONTINUOUS
10
141.3809699999999907
20
-110.6543289999999899
11
141.4000000000000057
21
-110.75
0
LINE
8
BLACK
6
CONTINUOUS
10
141.4000000000000057
20
-110.75
11
141.4000000000000057
21
-111.4499999999999886
0
LINE
8
BLACK
6
CONTINUOUS
10
141.4000000000000057
20
-111.4499999999999886
11
141.3809699999999907
21
-111.5456709999999987
0
LINE
8
BLACK
6
CONTINUOUS
10
141.3809699999999907
20
-111.5456709999999987
11
141.3267769999999928
21
-111.6267769999999899
0
LINE
8
BLACK
6
CONTINUOUS
10
141.3267769999999928
20
-111.6267769999999899
11
141.2456709999999873
21
-111.6809699999999879
0
LINE
8
BLACK
6
CONTINUOUS
10
141.2456709999999873
20
-111.6809699999999879
11
141.1500000000000057
21
-111.6999999999999886
0
LINE
8
BLACK
6
CONTINUOUS
10
141.1500000000000057
20
-111.6999999999999886
11
140.25
21
-111.6999999999999886
0
LINE
8
BLACK
6
CONTINUOUS
10
140.25
20
-111.6999999999999886
11
140.1543289999999899
21
-111.6809699999999879
0
LINE
8
BLACK
6
CONTINUOUS
10
140.1543289999999899
20
-111.6809699999999879
11
140.0732229999999845
21
-111.6267769999999899
0
LINE
8
BLACK
6
CONTINUOUS
10
140.0732229999999845
20
-111.6267769999999899
11
140.0190299999999866
21
-111.5456709999999987
0
LINE
8
BLACK
6
CONTINUOUS
10
140.0190299999999866
20
-111.5456709999999987
11
140.
21
-111.4499999999999886
0
LINE
8
BLACK
6
CONTINUOUS
10
140.
20
-111.4499999999999886
11
140.
21
-110.75
0
LINE
8
BLACK
6
CONTINUOUS
10
140.
20
-110.75
11
140.0190299999999866
21
-110.6543289999999899
0
LINE
8
BLACK
6
CONTINUOUS
10
140.0190299999999866
20
-110.6543289999999899
11
140.0732229999999845
21
-110.5732229999999987
0
LINE
8
BLACK
6
CONTINUOUS
10
140.0732229999999845
20
-110.5732229999999987
11
140.1543289999999899
21
-110.5190300000000008
0
LINE
8
BLACK
6
CONTINUOUS
10
140.1543289999999899
20
-110.5190300000000008
11
140.25
21
-110.5
0
LINE
8
BLACK
6
CONTINUOUS
10
140.25
20
-110.5
11
141.1500000000000057
21
-110.5
0
LINE
8
BLACK
6
CONTINUOUS
10
141.1500000000000057
20
-110.5
11
141.2456709999999873
21
-110.5190300000000008
0
LINE
8
BLACK
6
CONTINUOUS
10
74.3456709999999958
20
-109.7190299999999894
11
74.4267770000000013
21
-109.7732230000000015
0
LINE
8
BLACK
6
CONTINUOUS
10
74.4267770000000013
20
-109.7732230000000015
11
74.4809699999999992
21
-109.8543289999999928
0
LINE
8
BLACK
6
CONTINUOUS
10
74.4809699999999992
20
-109.8543289999999928
11
74.5
21
-109.9499999999999886
0
LINE
8
BLACK
6
CONTINUOUS
10
74.5
20
-109.9499999999999886
11
74.5
21
-110.8499999999999943
0
LINE
8
BLACK
6
CONTINUOUS
10
74.5
20
-110.8499999999999943
11
74.4809699999999992
21
-110.9456709999999902
0
LINE
8
BLACK
6
CONTINUOUS
10
74.4809699999999992
20
-110.9456709999999902
11
74.4267770000000013
21
-111.0267769999999956
0
LINE
8
BLACK
6
CONTINUOUS
10
74.4267770000000013
20
-111.0267769999999956
11
74.3456709999999958
21
-111.0809699999999935
0
LINE
8
BLACK
6
CONTINUOUS
10
74.3456709999999958
20
-111.0809699999999935
11
74.25
21
-111.0999999999999943
0
LINE
8
BLACK
6
CONTINUOUS
10
74.25
20
-111.0999999999999943
11
73.5499999999999972
21
-111.0999999999999943
0
LINE
8
BLACK
6
CONTINUOUS
10
73.5499999999999972
20
-111.0999999999999943
11
73.4543290000000013
21
-111.0809699999999935
0
LINE
8
BLACK
6
CONTINUOUS
10
73.4543290000000013
20
-111.0809699999999935
11
73.3732229999999959
21
-111.0267769999999956
0
LINE
8
BLACK
6
CONTINUOUS
10
73.3732229999999959
20
-111.0267769999999956
11
73.3190299999999979
21
-110.9456709999999902
0
LINE
8
BLACK
6
CONTINUOUS
10
73.3190299999999979
20
-110.9456709999999902
11
73.2999999999999972
21
-110.8499999999999943
0
LINE
8
BLACK
6
CONTINUOUS
10
73.2999999999999972
20
-110.8499999999999943
11
73.2999999999999972
21
-109.9499999999999886
0
LINE
8
BLACK
6
CONTINUOUS
10
73.2999999999999972
20
-109.9499999999999886
11
73.3190299999999979
21
-109.8543289999999928
0
LINE
8
BLACK
6
CONTINUOUS
10
73.3190299999999979
20
-109.8543289999999928
11
73.3732229999999959
21
-109.7732230000000015
0
LINE
8
BLACK
6
CONTINUOUS
10
73.3732229999999959
20
-109.7732230000000015
11
73.4543290000000013
21
-109.7190299999999894
0
LINE
8
BLACK
6
CONTINUOUS
10
73.4543290000000013
20
-109.7190299999999894
11
73.5499999999999972
21
-109.6999999999999886
0
LINE
8
BLACK
6
CONTINUOUS
10
73.5499999999999972
20
-109.6999999999999886
11
74.25
21
-109.6999999999999886
0
LINE
8
BLACK
6
CONTINUOUS
10
74.25
20
-109.6999999999999886
11
74.3456709999999958
21
-109.7190299999999894
0
LINE
8
BLACK
6
CONTINUOUS
10
76.3456709999999958
20
-109.7190299999999894
11
76.4267770000000013
21
-109.7732230000000015
0
LINE
8
BLACK
6
CONTINUOUS
10
76.4267770000000013
20
-109.7732230000000015
11
76.4809699999999992
21
-109.8543289999999928
0
LINE
8
BLACK
6
CONTINUOUS
10
76.4809699999999992
20
-109.8543289999999928
11
76.5
21
-109.9499999999999886
0
LINE
8
BLACK
6
CONTINUOUS
10
76.5
20
-109.9499999999999886
11
76.5
21
-110.8499999999999943
0
LINE
8
BLACK
6
CONTINUOUS
10
76.5
20
-110.8499999999999943
11
76.4809699999999992
21
-110.9456709999999902
0
LINE
8
BLACK
6
CONTINUOUS
10
76.4809699999999992
20
-110.9456709999999902
11
76.4267770000000013
21
-111.0267769999999956
0
LINE
8
BLACK
6
CONTINUOUS
10
76.4267770000000013
20
-111.0267769999999956
11
76.3456709999999958
21
-111.0809699999999935
0
LINE
8
BLACK
6
CONTINUOUS
10
76.3456709999999958
20
-111.0809699999999935
11
76.25
21
-111.0999999999999943
0
LINE
8
BLACK
6
CONTINUOUS
10
76.25
20
-111.0999999999999943
11
75.5499999999999972
21
-111.0999999999999943
0
LINE
8
BLACK
6
CONTINUOUS
10
75.5499999999999972
20
-111.0999999999999943
11
75.4543290000000013
21
-111.0809699999999935
0
LINE
8
BLACK
6
CONTINUOUS
10
75.4543290000000013
20
-111.0809699999999935
11
75.3732229999999959
21
-111.0267769999999956
0
LINE
8
BLACK
6
CONTINUOUS
10
75.3732229999999959
20
-111.0267769999999956
11
75.3190299999999979
21
-110.9456709999999902
0
LINE
8
BLACK
6
CONTINUOUS
10
75.3190299999999979
20
-110.9456709999999902
11
75.2999999999999972
21
-110.8499999999999943
0
LINE
8
BLACK
6
CONTINUOUS
10
75.2999999999999972
20
-110.8499999999999943
11
75.2999999999999972
21
-109.9499999999999886
0
LINE
8
BLACK
6
CONTINUOUS
10
75.2999999999999972
20
-109.9499999999999886
11
75.3190299999999979
21
-109.8543289999999928
0
LINE
8
BLACK
6
CONTINUOUS
10
75.3190299999999979
20
-109.8543289999999928
11
75.3732229999999959
21
-109.7732230000000015
0
LINE
8
BLACK
6
CONTINUOUS
10
75.3732229999999959
20
-109.7732230000000015
11
75.4543290000000013
21
-109.7190299999999894
0
LINE
8
BLACK
6
CONTINUOUS
10
75.4543290000000013
20
-109.7190299999999894
11
75.5499999999999972
21
-109.6999999999999886
0
LINE
8
BLACK
6
CONTINUOUS
10
75.5499999999999972
20
-109.6999999999999886
11
76.25
21
-109.6999999999999886
0
LINE
8
BLACK
6
CONTINUOUS
10
76.25
20
-109.6999999999999886
11
76.3456709999999958
21
-109.7190299999999894
0
LINE
8
BLACK
6
CONTINUOUS
10
141.3456709999999816
20
-108.3190299999999979
11
141.4267769999999871
21
-108.3732229999999959
0
LINE
8
BLACK
6
CONTINUOUS
10
141.4267769999999871
20
-108.3732229999999959
11
141.480969999999985
21
-108.4543290000000013
0
LINE
8
BLACK
6
CONTINUOUS
10
141.480969999999985
20
-108.4543290000000013
11
141.5
21
-108.5499999999999972
0
LINE
8
BLACK
6
CONTINUOUS
10
141.5
20
-108.5499999999999972
11
141.5
21
-109.25
0
LINE
8
BLACK
6
CONTINUOUS
10
141.5
20
-109.25
11
141.480969999999985
21
-109.3456709999999958
0
LINE
8
BLACK
6
CONTINUOUS
10
141.480969999999985
20
-109.3456709999999958
11
141.4267769999999871
21
-109.4267770000000013
0
LINE
8
BLACK
6
CONTINUOUS
10
141.4267769999999871
20
-109.4267770000000013
11
141.3456709999999816
21
-109.4809699999999992
0
LINE
8
BLACK
6
CONTINUOUS
10
141.3456709999999816
20
-109.4809699999999992
11
141.25
21
-109.5
0
LINE
8
BLACK
6
CONTINUOUS
10
141.25
20
-109.5
11
140.3499999999999943
21
-109.5
0
LINE
8
BLACK
6
CONTINUOUS
10
140.3499999999999943
20
-109.5
11
140.2543289999999843
21
-109.4809699999999992
0
LINE
8
BLACK
6
CONTINUOUS
10
140.2543289999999843
20
-109.4809699999999992
11
140.1732230000000072
21
-109.4267770000000013
0
LINE
8
BLACK
6
CONTINUOUS
10
140.1732230000000072
20
-109.4267770000000013
11
140.1190299999999809
21
-109.3456709999999958
0
LINE
8
BLACK
6
CONTINUOUS
10
140.1190299999999809
20
-109.3456709999999958
11
140.0999999999999943
21
-109.25
0
LINE
8
BLACK
6
CONTINUOUS
10
140.0999999999999943
20
-109.25
11
140.0999999999999943
21
-108.5499999999999972
0
LINE
8
BLACK
6
CONTINUOUS
10
140.0999999999999943
20
-108.5499999999999972
11
140.1190299999999809
21
-108.4543290000000013
0
LINE
8
BLACK
6
CONTINUOUS
10
140.1190299999999809
20
-108.4543290000000013
11
140.1732230000000072
21
-108.3732229999999959
0
LINE
8
BLACK
6
CONTINUOUS
10
140.1732230000000072
20
-108.3732229999999959
11
140.2543289999999843
21
-108.3190299999999979
0
LINE
8
BLACK
6
CONTINUOUS
10
140.2543289999999843
20
-108.3190299999999979
11
140.3499999999999943
21
-108.2999999999999972
0
LINE
8
BLACK
6
CONTINUOUS
10
140.3499999999999943
20
-108.2999999999999972
11
141.25
21
-108.2999999999999972
0
LINE
8
BLACK
6
CONTINUOUS
10
141.25
20
-108.2999999999999972
11
141.3456709999999816
21
-108.3190299999999979
0
LINE
8
BLACK
6
CONTINUOUS
10
74.3456709999999958
20
-106.3190299999999979
11
74.4267770000000013
21
-106.3732229999999959
0
LINE
8
BLACK
6
CONTINUOUS
10
74.4267770000000013
20
-106.3732229999999959
11
74.4809699999999992
21
-106.4543290000000013
0
LINE
8
BLACK
6
CONTINUOUS
10
74.4809699999999992
20
-106.4543290000000013
11
74.5
21
-106.5499999999999972
0
LINE
8
BLACK
6
CONTINUOUS
10
74.5
20
-106.5499999999999972
11
74.5
21
-107.4499999999999886
0
LINE
8
BLACK
6
CONTINUOUS
10
74.5
20
-107.4499999999999886
11
74.4809699999999992
21
-107.5456709999999987
0
LINE
8
BLACK
6
CONTINUOUS
10
74.4809699999999992
20
-107.5456709999999987
11
74.4267770000000013
21
-107.6267769999999899
0
LINE
8
BLACK
6
CONTINUOUS
10
74.4267770000000013
20
-107.6267769999999899
11
74.3456709999999958
21
-107.6809700000000021
0
LINE
8
BLACK
6
CONTINUOUS
10
74.3456709999999958
20
-107.6809700000000021
11
74.25
21
-107.6999999999999886
0
LINE
8
BLACK
6
CONTINUOUS
10
74.25
20
-107.6999999999999886
11
73.5499999999999972
21
-107.6999999999999886
0
LINE
8
BLACK
6
CONTINUOUS
10
73.5499999999999972
20
-107.6999999999999886
11
73.4543290000000013
21
-107.6809700000000021
0
LINE
8
BLACK
6
CONTINUOUS
10
73.4543290000000013
20
-107.6809700000000021
11
73.3732229999999959
21
-107.6267769999999899
0
LINE
8
BLACK
6
CONTINUOUS
10
73.3732229999999959
20
-107.6267769999999899
11
73.3190299999999979
21
-107.5456709999999987
0
LINE
8
BLACK
6
CONTINUOUS
10
73.3190299999999979
20
-107.5456709999999987
11
73.2999999999999972
21
-107.4499999999999886
0
LINE
8
BLACK
6
CONTINUOUS
10
73.2999999999999972
20
-107.4499999999999886
11
73.2999999999999972
21
-106.5499999999999972
0
LINE
8
BLACK
6
CONTINUOUS
10
73.2999999999999972
20
-106.5499999999999972
11
73.3190299999999979
21
-106.4543290000000013
0
LINE
8
BLACK
6
CONTINUOUS
10
73.3190299999999979
20
-106.4543290000000013
11
73.3732229999999959
21
-106.3732229999999959
0
LINE
8
BLACK
6
CONTINUOUS
10
73.3732229999999959
20
-106.3732229999999959
11
73.4543290000000013
21
-106.3190299999999979
0
LINE
8
BLACK
6
CONTINUOUS
10
73.4543290000000013
20
-106.3190299999999979
11
73.5499999999999972
21
-106.2999999999999972
0
LINE
8
BLACK
6
CONTINUOUS
10
73.5499999999999972
20
-106.2999999999999972
11
74.25
21
-106.2999999999999972
0
LINE
8
BLACK
6
CONTINUOUS
10
74.25
20
-106.2999999999999972
11
74.3456709999999958
21
-106.3190299999999979
0
LINE
8
BLACK
6
CONTINUOUS
10
76.3456709999999958
20
-106.3190299999999979
11
76.4267770000000013
21
-106.3732229999999959
0
LINE
8
BLACK
6
CONTINUOUS
10
76.4267770000000013
20
-106.3732229999999959
11
76.4809699999999992
21
-106.4543290000000013
0
LINE
8
BLACK
6
CONTINUOUS
10
76.4809699999999992
20
-106.4543290000000013
11
76.5
21
-106.5499999999999972
0
LINE
8
BLACK
6
CONTINUOUS
10
76.5
20
-106.5499999999999972
11
76.5
21
-107.4499999999999886
0
LINE
8
BLACK
6
CONTINUOUS
10
76.5
20
-107.4499999999999886
11
76.4809699999999992
21
-107.5456709999999987
0
LINE
8
BLACK
6
CONTINUOUS
10
76.4809699999999992
20
-107.5456709999999987
11
76.4267770000000013
21
-107.6267769999999899
0
LINE
8
BLACK
6
CONTINUOUS
10
76.4267770000000013
20
-107.6267769999999899
11
76.3456709999999958
21
-107.6809700000000021
0
LINE
8
BLACK
6
CONTINUOUS
10
76.3456709999999958
20
-107.6809700000000021
11
76.25
21
-107.6999999999999886
0
LINE
8
BLACK
6
CONTINUOUS
10
76.25
20
-107.6999999999999886
11
75.5499999999999972
21
-107.6999999999999886
0
LINE
8
BLACK
6
CONTINUOUS
10
75.5499999999999972
20
-107.6999999999999886
11
75.4543290000000013
21
-107.6809700000000021
0
LINE
8
BLACK
6
CONTINUOUS
10
75.4543290000000013
20
-107.6809700000000021
11
75.3732229999999959
21
-107.6267769999999899
0
LINE
8
BLACK
6
CONTINUOUS
10
75.3732229999999959
20
-107.6267769999999899
11
75.3190299999999979
21
-107.5456709999999987
0
LINE
8
BLACK
6
CONTINUOUS
10
75.3190299999999979
20
-107.5456709999999987
11
75.2999999999999972
21
-107.4499999999999886
0
LINE
8
BLACK
6
CONTINUOUS
10
75.2999999999999972
20
-107.4499999999999886
11
75.2999999999999972
21
-106.5499999999999972
0
LINE
8
BLACK
6
CONTINUOUS
10
75.2999999999999972
20
-106.5499999999999972
11
75.3190299999999979
21
-106.4543290000000013
0
LINE
8
BLACK
6
CONTINUOUS
10
75.3190299999999979
20
-106.4543290000000013
11
75.3732229999999959
21
-106.3732229999999959
0
LINE
8
BLACK
6
CONTINUOUS
10
75.3732229999999959
20
-106.3732229999999959
11
75.4543290000000013
21
-106.3190299999999979
0
LINE
8
BLACK
6
CONTINUOUS
10
75.4543290000000013
20
-106.3190299999999979
11
75.5499999999999972
21
-106.2999999999999972
0
LINE
8
BLACK
6
CONTINUOUS
10
75.5499999999999972
20
-106.2999999999999972
11
76.25
21
-106.2999999999999972
0
LINE
8
BLACK
6
CONTINUOUS
10
76.25
20
-106.2999999999999972
11
76.3456709999999958
21
-106.3190299999999979
0
LINE
8
BLACK
6
CONTINUOUS
10
141.3456709999999816
20
-106.3190299999999979
11
141.4267769999999871
21
-106.3732229999999959
0
LINE
8
BLACK
6
CONTINUOUS
10
141.4267769999999871
20
-106.3732229999999959
11
141.480969999999985
21
-106.4543290000000013
0
LINE
8
BLACK
6
CONTINUOUS
10
141.480969999999985
20
-106.4543290000000013
11
141.5
21
-106.5499999999999972
0
LINE
8
BLACK
6
CONTINUOUS
10
141.5
20
-106.5499999999999972
11
141.5
21
-107.25
0
LINE
8
BLACK
6
CONTINUOUS
10
141.5
20
-107.25
11
141.480969999999985
21
-107.3456709999999958
0
LINE
8
BLACK
6
CONTINUOUS
10
141.480969999999985
20
-107.3456709999999958
11
141.4267769999999871
21
-107.4267770000000013
0
LINE
8
BLACK
6
CONTINUOUS
10
141.4267769999999871
20
-107.4267770000000013
11
141.3456709999999816
21
-107.4809699999999992
0
LINE
8
BLACK
6
CONTINUOUS
10
141.3456709999999816
20
-107.4809699999999992
11
141.25
21
-107.5
0
LINE
8
BLACK
6
CONTINUOUS
10
141.25
20
-107.5
11
140.3499999999999943
21
-107.5
0
LINE
8
BLACK
6
CONTINUOUS
10
140.3499999999999943
20
-107.5
11
140.2543289999999843
21
-107.4809699999999992
0
LINE
8
BLACK
6
CONTINUOUS
10
140.2543289999999843
20
-107.4809699999999992
11
140.1732230000000072
21
-107.4267770000000013
0
LINE
8
BLACK
6
CONTINUOUS
10
140.1732230000000072
20
-107.4267770000000013
11
140.1190299999999809
21
-107.3456709999999958
0
LINE
8
BLACK
6
CONTINUOUS
10
140.1190299999999809
20
-107.3456709999999958
11
140.0999999999999943
21
-107.25
0
LINE
8
BLACK
6
CONTINUOUS
10
140.0999999999999943
20
-107.25
11
140.0999999999999943
21
-106.5499999999999972
0
LINE
8
BLACK
6
CONTINUOUS
10
140.0999999999999943
20
-106.5499999999999972
11
140.1190299999999809
21
-106.4543290000000013
0
LINE
8
BLACK
6
CONTINUOUS
10
140.1190299999999809
20
-106.4543290000000013
11
140.1732230000000072
21
-106.3732229999999959
0
LINE
8
BLACK
6
CONTINUOUS
10
140.1732230000000072
20
-106.3732229999999959
11
140.2543289999999843
21
-106.3190299999999979
0
LINE
8
BLACK
6
CONTINUOUS
10
140.2543289999999843
20
-106.3190299999999979
11
140.3499999999999943
21
-106.2999999999999972
0
LINE
8
BLACK
6
CONTINUOUS
10
140.3499999999999943
20
-106.2999999999999972
11
141.25
21
-106.2999999999999972
0
LINE
8
BLACK
6
CONTINUOUS
10
141.25
20
-106.2999999999999972
11
141.3456709999999816
21
-106.3190299999999979
0
LINE
8
BLACK
6
CONTINUOUS
10
141.3456709999999816
20
-104.1190299999999951
11
141.4267769999999871
21
-104.173222999999993
0
LINE
8
BLACK
6
CONTINUOUS
10
141.4267769999999871
20
-104.173222999999993
11
141.480969999999985
21
-104.2543289999999985
0
LINE
8
BLACK
6
CONTINUOUS
10
141.480969999999985
20
-104.2543289999999985
11
141.5
21
-104.3499999999999943
0
LINE
8
BLACK
6
CONTINUOUS
10
141.5
20
-104.3499999999999943
11
141.5
21
-105.0499999999999972
0
LINE
8
BLACK
6
CONTINUOUS
10
141.5
20
-105.0499999999999972
11
141.480969999999985
21
-105.145670999999993
0
LINE
8
BLACK
6
CONTINUOUS
10
141.480969999999985
20
-105.145670999999993
11
141.4267769999999871
21
-105.2267769999999985
0
LINE
8
BLACK
6
CONTINUOUS
10
141.4267769999999871
20
-105.2267769999999985
11
141.3456709999999816
21
-105.2809699999999964
0
LINE
8
BLACK
6
CONTINUOUS
10
141.3456709999999816
20
-105.2809699999999964
11
141.25
21
-105.2999999999999972
0
LINE
8
BLACK
6
CONTINUOUS
10
141.25
20
-105.2999999999999972
11
140.3499999999999943
21
-105.2999999999999972
0
LINE
8
BLACK
6
CONTINUOUS
10
140.3499999999999943
20
-105.2999999999999972
11
140.2543289999999843
21
-105.2809699999999964
0
LINE
8
BLACK
6
CONTINUOUS
10
140.2543289999999843
20
-105.2809699999999964
11
140.1732230000000072
21
-105.2267769999999985
0
LINE
8
BLACK
6
CONTINUOUS
10
140.1732230000000072
20
-105.2267769999999985
11
140.1190299999999809
21
-105.145670999999993
0
LINE
8
BLACK
6
CONTINUOUS
10
140.1190299999999809
20
-105.145670999999993
11
140.0999999999999943
21
-105.0499999999999972
0
LINE
8
BLACK
6
CONTINUOUS
10
140.0999999999999943
20
-105.0499999999999972
11
140.0999999999999943
21
-104.3499999999999943
0
LINE
8
BLACK
6
CONTINUOUS
10
140.0999999999999943
20
-104.3499999999999943
11
140.1190299999999809
21
-104.2543289999999985
0
LINE
8
BLACK
6
CONTINUOUS
10
140.1190299999999809
20
-104.2543289999999985
11
140.1732230000000072
21
-104.173222999999993
0
LINE
8
BLACK
6
CONTINUOUS
10
140.1732230000000072
20
-104.173222999999993
11
140.2543289999999843
21
-104.1190299999999951
0
LINE
8
BLACK
6
CONTINUOUS
10
140.2543289999999843
20
-104.1190299999999951
11
140.3499999999999943
21
-104.0999999999999943
0
LINE
8
BLACK
6
CONTINUOUS
10
140.3499999999999943
20
-104.0999999999999943
11
141.25
21
-104.0999999999999943
0
LINE
8
BLACK
6
CONTINUOUS
10
141.25
20
-104.0999999999999943
11
141.3456709999999816
21
-104.1190299999999951
0
LINE
8
BLACK
6
CONTINUOUS
10
141.3456709999999816
20
-102.1190299999999951
11
141.4267769999999871
21
-102.173222999999993
0
LINE
8
BLACK
6
CONTINUOUS
10
141.4267769999999871
20
-102.173222999999993
11
141.480969999999985
21
-102.2543289999999985
0
LINE
8
BLACK
6
CONTINUOUS
10
141.480969999999985
20
-102.2543289999999985
11
141.5
21
-102.3499999999999943
0
LINE
8
BLACK
6
CONTINUOUS
10
141.5
20
-102.3499999999999943
11
141.5
21
-103.0499999999999972
0
LINE
8
BLACK
6
CONTINUOUS
10
141.5
20
-103.0499999999999972
11
141.480969999999985
21
-103.145670999999993
0
LINE
8
BLACK
6
CONTINUOUS
10
141.480969999999985
20
-103.145670999999993
11
141.4267769999999871
21
-103.2267769999999985
0
LINE
8
BLACK
6
CONTINUOUS
10
141.4267769999999871
20
-103.2267769999999985
11
141.3456709999999816
21
-103.2809699999999964
0
LINE
8
BLACK
6
CONTINUOUS
10
141.3456709999999816
20
-103.2809699999999964
11
141.25
21
-103.2999999999999972
0
LINE
8
BLACK
6
CONTINUOUS
10
141.25
20
-103.2999999999999972
11
140.3499999999999943
21
-103.2999999999999972
0
LINE
8
BLACK
6
CONTINUOUS
10
140.3499999999999943
20
-103.2999999999999972
11
140.2543289999999843
21
-103.2809699999999964
0
LINE
8
BLACK
6
CONTINUOUS
10
140.2543289999999843
20
-103.2809699999999964
11
140.1732230000000072
21
-103.2267769999999985
0
LINE
8
BLACK
6
CONTINUOUS
10
140.1732230000000072
20
-103.2267769999999985
11
140.1190299999999809
21
-103.145670999999993
0
LINE
8
BLACK
6
CONTINUOUS
10
140.1190299999999809
20
-103.145670999999993
11
140.0999999999999943
21
-103.0499999999999972
0
LINE
8
BLACK
6
CONTINUOUS
10
140.0999999999999943
20
-103.0499999999999972
11
140.0999999999999943
21
-102.3499999999999943
0
LINE
8
BLACK
6
CONTINUOUS
10
140.0999999999999943
20
-102.3499999999999943
11
140.1190299999999809
21
-102.2543289999999985
0
LINE
8
BLACK
6
CONTINUOUS
10
140.1190299999999809
20
-102.2543289999999985
11
140.1732230000000072
21
-102.173222999999993
0
LINE
8
BLACK
6
CONTINUOUS
10
140.1732230000000072
20
-102.173222999999993
11
140.2543289999999843
21
-102.1190299999999951
0
LINE
8
BLACK
6
CONTINUOUS
10
140.2543289999999843
20
-102.1190299999999951
11
140.3499999999999943
21
-102.0999999999999943
0
LINE
8
BLACK
6
CONTINUOUS
10
140.3499999999999943
20
-102.0999999999999943
11
141.25
21
-102.0999999999999943
0
LINE
8
BLACK
6
CONTINUOUS
10
141.25
20
-102.0999999999999943
11
141.3456709999999816
21
-102.1190299999999951
0
LINE
8
BLACK
6
CONTINUOUS
10
141.2456709999999873
20
-97.5190300000000008
11
141.3267769999999928
21
-97.5732229999999987
0
LINE
8
BLACK
6
CONTINUOUS
10
141.3267769999999928
20
-97.5732229999999987
11
141.3809699999999907
21
-97.6543289999999899
0
LINE
8
BLACK
6
CONTINUOUS
10
141.3809699999999907
20
-97.6543289999999899
11
141.4000000000000057
21
-97.75
0
LINE
8
BLACK
6
CONTINUOUS
10
141.4000000000000057
20
-97.75
11
141.4000000000000057
21
-98.6499999999999915
0
LINE
8
BLACK
6
CONTINUOUS
10
141.4000000000000057
20
-98.6499999999999915
11
141.3809699999999907
21
-98.7456710000000015
0
LINE
8
BLACK
6
CONTINUOUS
10
141.3809699999999907
20
-98.7456710000000015
11
141.3267769999999928
21
-98.8267769999999928
0
LINE
8
BLACK
6
CONTINUOUS
10
141.3267769999999928
20
-98.8267769999999928
11
141.2456709999999873
21
-98.8809699999999907
0
LINE
8
BLACK
6
CONTINUOUS
10
141.2456709999999873
20
-98.8809699999999907
11
141.1500000000000057
21
-98.8999999999999915
0
LINE
8
BLACK
6
CONTINUOUS
10
141.1500000000000057
20
-98.8999999999999915
11
140.4499999999999886
21
-98.8999999999999915
0
LINE
8
BLACK
6
CONTINUOUS
10
140.4499999999999886
20
-98.8999999999999915
11
140.354329000000007
21
-98.8809699999999907
0
LINE
8
BLACK
6
CONTINUOUS
10
140.354329000000007
20
-98.8809699999999907
11
140.2732230000000015
21
-98.8267769999999928
0
LINE
8
BLACK
6
CONTINUOUS
10
140.2732230000000015
20
-98.8267769999999928
11
140.2190300000000036
21
-98.7456710000000015
0
LINE
8
BLACK
6
CONTINUOUS
10
140.2190300000000036
20
-98.7456710000000015
11
140.1999999999999886
21
-98.6499999999999915
0
LINE
8
BLACK
6
CONTINUOUS
10
140.1999999999999886
20
-98.6499999999999915
11
140.1999999999999886
21
-97.75
0
LINE
8
BLACK
6
CONTINUOUS
10
140.1999999999999886
20
-97.75
11
140.2190300000000036
21
-97.6543289999999899
0
LINE
8
BLACK
6
CONTINUOUS
10
140.2190300000000036
20
-97.6543289999999899
11
140.2732230000000015
21
-97.5732229999999987
0
LINE
8
BLACK
6
CONTINUOUS
10
140.2732230000000015
20
-97.5732229999999987
11
140.354329000000007
21
-97.5190300000000008
0
LINE
8
BLACK
6
CONTINUOUS
10
140.354329000000007
20
-97.5190300000000008
11
140.4499999999999886
21
-97.5
0
LINE
8
BLACK
6
CONTINUOUS
10
140.4499999999999886
20
-97.5
11
141.1500000000000057
21
-97.5
0
LINE
8
BLACK
6
CONTINUOUS
10
141.1500000000000057
20
-97.5
11
141.2456709999999873
21
-97.5190300000000008
0
LINE
8
BLACK
6
CONTINUOUS
10
143.2456709999999873
20
-97.5190300000000008
11
143.3267769999999928
21
-97.5732229999999987
0
LINE
8
BLACK
6
CONTINUOUS
10
143.3267769999999928
20
-97.5732229999999987
11
143.3809699999999907
21
-97.6543289999999899
0
LINE
8
BLACK
6
CONTINUOUS
10
143.3809699999999907
20
-97.6543289999999899
11
143.4000000000000057
21
-97.75
0
LINE
8
BLACK
6
CONTINUOUS
10
143.4000000000000057
20
-97.75
11
143.4000000000000057
21
-98.6499999999999915
0
LINE
8
BLACK
6
CONTINUOUS
10
143.4000000000000057
20
-98.6499999999999915
11
143.3809699999999907
21
-98.7456710000000015
0
LINE
8
BLACK
6
CONTINUOUS
10
143.3809699999999907
20
-98.7456710000000015
11
143.3267769999999928
21
-98.8267769999999928
0
LINE
8
BLACK
6
CONTINUOUS
10
143.3267769999999928
20
-98.8267769999999928
11
143.2456709999999873
21
-98.8809699999999907
0
LINE
8
BLACK
6
CONTINUOUS
10
143.2456709999999873
20
-98.8809699999999907
11
143.1500000000000057
21
-98.8999999999999915
0
LINE
8
BLACK
6
CONTINUOUS
10
143.1500000000000057
20
-98.8999999999999915
11
142.4499999999999886
21
-98.8999999999999915
0
LINE
8
BLACK
6
CONTINUOUS
10
142.4499999999999886
20
-98.8999999999999915
11
142.354329000000007
21
-98.8809699999999907
0
LINE
8
BLACK
6
CONTINUOUS
10
142.354329000000007
20
-98.8809699999999907
11
142.2732230000000015
21
-98.8267769999999928
0
LINE
8
BLACK
6
CONTINUOUS
10
142.2732230000000015
20
-98.8267769999999928
11
142.2190300000000036
21
-98.7456710000000015
0
LINE
8
BLACK
6
CONTINUOUS
10
142.2190300000000036
20
-98.7456710000000015
11
142.1999999999999886
21
-98.6499999999999915
0
LINE
8
BLACK
6
CONTINUOUS
10
142.1999999999999886
20
-98.6499999999999915
11
142.1999999999999886
21
-97.75
0
LINE
8
BLACK
6
CONTINUOUS
10
142.1999999999999886
20
-97.75
11
142.2190300000000036
21
-97.6543289999999899
0
LINE
8
BLACK
6
CONTINUOUS
10
142.2190300000000036
20
-97.6543289999999899
11
142.2732230000000015
21
-97.5732229999999987
0
LINE
8
BLACK
6
CONTINUOUS
10
142.2732230000000015
20
-97.5732229999999987
11
142.354329000000007
21
-97.5190300000000008
0
LINE
8
BLACK
6
CONTINUOUS
10
142.354329000000007
20
-97.5190300000000008
11
142.4499999999999886
21
-97.5
0
LINE
8
BLACK
6
CONTINUOUS
10
142.4499999999999886
20
-97.5
11
143.1500000000000057
21
-97.5
0
LINE
8
BLACK
6
CONTINUOUS
10
143.1500000000000057
20
-97.5
11
143.2456709999999873
21
-97.5190300000000008
0
LINE
8
BLACK
6
CONTINUOUS
10
160.7956709999999987
20
-97.1940299999999979
11
160.8767770000000041
21
-97.2482229999999959
0
LINE
8
BLACK
6
CONTINUOUS
10
160.8767770000000041
20
-97.2482229999999959
11
160.9309700000000021
21
-97.3293290000000013
0
LINE
8
BLACK
6
CONTINUOUS
10
160.9309700000000021
20
-97.3293290000000013
11
160.9499999999999886
21
-97.4249999999999972
0
LINE
8
BLACK
6
CONTINUOUS
10
160.9499999999999886
20
-97.4249999999999972
11
160.9499999999999886
21
-98.375
0
LINE
8
BLACK
6
CONTINUOUS
10
160.9499999999999886
20
-98.375
11
160.9309700000000021
21
-98.4706709999999958
0
LINE
8
BLACK
6
CONTINUOUS
10
160.9309700000000021
20
-98.4706709999999958
11
160.8767770000000041
21
-98.5517770000000013
0
LINE
8
BLACK
6
CONTINUOUS
10
160.8767770000000041
20
-98.5517770000000013
11
160.7956709999999987
21
-98.6059699999999992
0
LINE
8
BLACK
6
CONTINUOUS
10
160.7956709999999987
20
-98.6059699999999992
11
160.6999999999999886
21
-98.625
0
LINE
8
BLACK
6
CONTINUOUS
10
160.6999999999999886
20
-98.625
11
160.0250000000000057
21
-98.625
0
LINE
8
BLACK
6
CONTINUOUS
10
160.0250000000000057
20
-98.625
11
159.9293289999999956
21
-98.6059699999999992
0
LINE
8
BLACK
6
CONTINUOUS
10
159.9293289999999956
20
-98.6059699999999992
11
159.8482229999999902
21
-98.5517770000000013
0
LINE
8
BLACK
6
CONTINUOUS
10
159.8482229999999902
20
-98.5517770000000013
11
159.7940299999999922
21
-98.4706709999999958
0
LINE
8
BLACK
6
CONTINUOUS
10
159.7940299999999922
20
-98.4706709999999958
11
159.7750000000000057
21
-98.375
0
LINE
8
BLACK
6
CONTINUOUS
10
159.7750000000000057
20
-98.375
11
159.7750000000000057
21
-97.4249999999999972
0
LINE
8
BLACK
6
CONTINUOUS
10
159.7750000000000057
20
-97.4249999999999972
11
159.7940299999999922
21
-97.3293290000000013
0
LINE
8
BLACK
6
CONTINUOUS
10
159.7940299999999922
20
-97.3293290000000013
11
159.8482229999999902
21
-97.2482229999999959
0
LINE
8
BLACK
6
CONTINUOUS
10
159.8482229999999902
20
-97.2482229999999959
11
159.9293289999999956
21
-97.1940299999999979
0
LINE
8
BLACK
6
CONTINUOUS
10
159.9293289999999956
20
-97.1940299999999979
11
160.0250000000000057
21
-97.1749999999999972
0
LINE
8
BLACK
6
CONTINUOUS
10
160.0250000000000057
20
-97.1749999999999972
11
160.6999999999999886
21
-97.1749999999999972
0
LINE
8
BLACK
6
CONTINUOUS
10
160.6999999999999886
20
-97.1749999999999972
11
160.7956709999999987
21
-97.1940299999999979
0
LINE
8
BLACK
6
CONTINUOUS
10
162.8706709999999873
20
-97.1940299999999979
11
162.9517769999999928
21
-97.2482229999999959
0
LINE
8
BLACK
6
CONTINUOUS
10
162.9517769999999928
20
-97.2482229999999959
11
163.0059699999999907
21
-97.3293290000000013
0
LINE
8
BLACK
6
CONTINUOUS
10
163.0059699999999907
20
-97.3293290000000013
11
163.0250000000000057
21
-97.4249999999999972
0
LINE
8
BLACK
6
CONTINUOUS
10
163.0250000000000057
20
-97.4249999999999972
11
163.0250000000000057
21
-98.375
0
LINE
8
BLACK
6
CONTINUOUS
10
163.0250000000000057
20
-98.375
11
163.0059699999999907
21
-98.4706709999999958
0
LINE
8
BLACK
6
CONTINUOUS
10
163.0059699999999907
20
-98.4706709999999958
11
162.9517769999999928
21
-98.5517770000000013
0
LINE
8
BLACK
6
CONTINUOUS
10
162.9517769999999928
20
-98.5517770000000013
11
162.8706709999999873
21
-98.6059699999999992
0
LINE
8
BLACK
6
CONTINUOUS
10
162.8706709999999873
20
-98.6059699999999992
11
162.7750000000000057
21
-98.625
0
LINE
8
BLACK
6
CONTINUOUS
10
162.7750000000000057
20
-98.625
11
162.0999999999999943
21
-98.625
0
LINE
8
BLACK
6
CONTINUOUS
10
162.0999999999999943
20
-98.625
11
162.0043289999999843
21
-98.6059699999999992
0
LINE
8
BLACK
6
CONTINUOUS
10
162.0043289999999843
20
-98.6059699999999992
11
161.9232229999999788
21
-98.5517770000000013
0
LINE
8
BLACK
6
CONTINUOUS
10
161.9232229999999788
20
-98.5517770000000013
11
161.8690299999999809
21
-98.4706709999999958
0
LINE
8
BLACK
6
CONTINUOUS
10
161.8690299999999809
20
-98.4706709999999958
11
161.8499999999999943
21
-98.375
0
LINE
8
BLACK
6
CONTINUOUS
10
161.8499999999999943
20
-98.375
11
161.8499999999999943
21
-97.4249999999999972
0
LINE
8
BLACK
6
CONTINUOUS
10
161.8499999999999943
20
-97.4249999999999972
11
161.8690299999999809
21
-97.3293290000000013
0
LINE
8
BLACK
6
CONTINUOUS
10
161.8690299999999809
20
-97.3293290000000013
11
161.9232229999999788
21
-97.2482229999999959
0
LINE
8
BLACK
6
CONTINUOUS
10
161.9232229999999788
20
-97.2482229999999959
11
162.0043289999999843
21
-97.1940299999999979
0
LINE
8
BLACK
6
CONTINUOUS
10
162.0043289999999843
20
-97.1940299999999979
11
162.0999999999999943
21
-97.1749999999999972
0
LINE
8
BLACK
6
CONTINUOUS
10
162.0999999999999943
20
-97.1749999999999972
11
162.7750000000000057
21
-97.1749999999999972
0
LINE
8
BLACK
6
CONTINUOUS
10
162.7750000000000057
20
-97.1749999999999972
11
162.8706709999999873
21
-97.1940299999999979
0
LINE
8
BLACK
6
CONTINUOUS
10
139.2456709999999873
20
-95.1190299999999951
11
139.3267769999999928
21
-95.173222999999993
0
LINE
8
BLACK
6
CONTINUOUS
10
139.3267769999999928
20
-95.173222999999993
11
139.3809699999999907
21
-95.2543289999999985
0
LINE
8
BLACK
6
CONTINUOUS
10
139.3809699999999907
20
-95.2543289999999985
11
139.4000000000000057
21
-95.3499999999999943
0
LINE
8
BLACK
6
CONTINUOUS
10
139.4000000000000057
20
-95.3499999999999943
11
139.4000000000000057
21
-96.25
0
LINE
8
BLACK
6
CONTINUOUS
10
139.4000000000000057
20
-96.25
11
139.3809699999999907
21
-96.3456709999999958
0
LINE
8
BLACK
6
CONTINUOUS
10
139.3809699999999907
20
-96.3456709999999958
11
139.3267769999999928
21
-96.4267770000000013
0
LINE
8
BLACK
6
CONTINUOUS
10
139.3267769999999928
20
-96.4267770000000013
11
139.2456709999999873
21
-96.4809699999999992
0
LINE
8
BLACK
6
CONTINUOUS
10
139.2456709999999873
20
-96.4809699999999992
11
139.1500000000000057
21
-96.5
0
LINE
8
BLACK
6
CONTINUOUS
10
139.1500000000000057
20
-96.5
11
138.4499999999999886
21
-96.5
0
LINE
8
BLACK
6
CONTINUOUS
10
138.4499999999999886
20
-96.5
11
138.354329000000007
21
-96.4809699999999992
0
LINE
8
BLACK
6
CONTINUOUS
10
138.354329000000007
20
-96.4809699999999992
11
138.2732230000000015
21
-96.4267770000000013
0
LINE
8
BLACK
6
CONTINUOUS
10
138.2732230000000015
20
-96.4267770000000013
11
138.2190300000000036
21
-96.3456709999999958
0
LINE
8
BLACK
6
CONTINUOUS
10
138.2190300000000036
20
-96.3456709999999958
11
138.1999999999999886
21
-96.25
0
LINE
8
BLACK
6
CONTINUOUS
10
138.1999999999999886
20
-96.25
11
138.1999999999999886
21
-95.3499999999999943
0
LINE
8
BLACK
6
CONTINUOUS
10
138.1999999999999886
20
-95.3499999999999943
11
138.2190300000000036
21
-95.2543289999999985
0
LINE
8
BLACK
6
CONTINUOUS
10
138.2190300000000036
20
-95.2543289999999985
11
138.2732230000000015
21
-95.173222999999993
0
LINE
8
BLACK
6
CONTINUOUS
10
138.2732230000000015
20
-95.173222999999993
11
138.354329000000007
21
-95.1190299999999951
0
LINE
8
BLACK
6
CONTINUOUS
10
138.354329000000007
20
-95.1190299999999951
11
138.4499999999999886
21
-95.0999999999999943
0
LINE
8
BLACK
6
CONTINUOUS
10
138.4499999999999886
20
-95.0999999999999943
11
139.1500000000000057
21
-95.0999999999999943
0
LINE
8
BLACK
6
CONTINUOUS
10
139.1500000000000057
20
-95.0999999999999943
11
139.2456709999999873
21
-95.1190299999999951
0
LINE
8
BLACK
6
CONTINUOUS
10
141.2456709999999873
20
-95.1190299999999951
11
141.3267769999999928
21
-95.173222999999993
0
LINE
8
BLACK
6
CONTINUOUS
10
141.3267769999999928
20
-95.173222999999993
11
141.3809699999999907
21
-95.2543289999999985
0
LINE
8
BLACK
6
CONTINUOUS
10
141.3809699999999907
20
-95.2543289999999985
11
141.4000000000000057
21
-95.3499999999999943
0
LINE
8
BLACK
6
CONTINUOUS
10
141.4000000000000057
20
-95.3499999999999943
11
141.4000000000000057
21
-96.25
0
LINE
8
BLACK
6
CONTINUOUS
10
141.4000000000000057
20
-96.25
11
141.3809699999999907
21
-96.3456709999999958
0
LINE
8
BLACK
6
CONTINUOUS
10
141.3809699999999907
20
-96.3456709999999958
11
141.3267769999999928
21
-96.4267770000000013
0
LINE
8
BLACK
6
CONTINUOUS
10
141.3267769999999928
20
-96.4267770000000013
11
141.2456709999999873
21
-96.4809699999999992
0
LINE
8
BLACK
6
CONTINUOUS
10
141.2456709999999873
20
-96.4809699999999992
11
141.1500000000000057
21
-96.5
0
LINE
8
BLACK
6
CONTINUOUS
10
141.1500000000000057
20
-96.5
11
140.4499999999999886
21
-96.5
0
LINE
8
BLACK
6
CONTINUOUS
10
140.4499999999999886
20
-96.5
11
140.354329000000007
21
-96.4809699999999992
0
LINE
8
BLACK
6
CONTINUOUS
10
140.354329000000007
20
-96.4809699999999992
11
140.2732230000000015
21
-96.4267770000000013
0
LINE
8
BLACK
6
CONTINUOUS
10
140.2732230000000015
20
-96.4267770000000013
11
140.2190300000000036
21
-96.3456709999999958
0
LINE
8
BLACK
6
CONTINUOUS
10
140.2190300000000036
20
-96.3456709999999958
11
140.1999999999999886
21
-96.25
0
LINE
8
BLACK
6
CONTINUOUS
10
140.1999999999999886
20
-96.25
11
140.1999999999999886
21
-95.3499999999999943
0
LINE
8
BLACK
6
CONTINUOUS
10
140.1999999999999886
20
-95.3499999999999943
11
140.2190300000000036
21
-95.2543289999999985
0
LINE
8
BLACK
6
CONTINUOUS
10
140.2190300000000036
20
-95.2543289999999985
11
140.2732230000000015
21
-95.173222999999993
0
LINE
8
BLACK
6
CONTINUOUS
10
140.2732230000000015
20
-95.173222999999993
11
140.354329000000007
21
-95.1190299999999951
0
LINE
8
BLACK
6
CONTINUOUS
10
140.354329000000007
20
-95.1190299999999951
11
140.4499999999999886
21
-95.0999999999999943
0
LINE
8
BLACK
6
CONTINUOUS
10
140.4499999999999886
20
-95.0999999999999943
11
141.1500000000000057
21
-95.0999999999999943
0
LINE
8
BLACK
6
CONTINUOUS
10
141.1500000000000057
20
-95.0999999999999943
11
141.2456709999999873
21
-95.1190299999999951
0
LINE
8
BLACK
6
CONTINUOUS
10
160.7956709999999987
20
-94.9940299999999951
11
160.8767770000000041
21
-95.048222999999993
0
LINE
8
BLACK
6
CONTINUOUS
10
160.8767770000000041
20
-95.048222999999993
11
160.9309700000000021
21
-95.1293289999999985
0
LINE
8
BLACK
6
CONTINUOUS
10
160.9309700000000021
20
-95.1293289999999985
11
160.9499999999999886
21
-95.2249999999999943
0
LINE
8
BLACK
6
CONTINUOUS
10
160.9499999999999886
20
-95.2249999999999943
11
160.9499999999999886
21
-96.1749999999999972
0
LINE
8
BLACK
6
CONTINUOUS
10
160.9499999999999886
20
-96.1749999999999972
11
160.9309700000000021
21
-96.270670999999993
0
LINE
8
BLACK
6
CONTINUOUS
10
160.9309700000000021
20
-96.270670999999993
11
160.8767770000000041
21
-96.3517769999999985
0
LINE
8
BLACK
6
CONTINUOUS
10
160.8767770000000041
20
-96.3517769999999985
11
160.7956709999999987
21
-96.4059699999999964
0
LINE
8
BLACK
6
CONTINUOUS
10
160.7956709999999987
20
-96.4059699999999964
11
160.6999999999999886
21
-96.4249999999999972
0
LINE
8
BLACK
6
CONTINUOUS
10
160.6999999999999886
20
-96.4249999999999972
11
160.0250000000000057
21
-96.4249999999999972
0
LINE
8
BLACK
6
CONTINUOUS
10
160.0250000000000057
20
-96.4249999999999972
11
159.9293289999999956
21
-96.4059699999999964
0
LINE
8
BLACK
6
CONTINUOUS
10
159.9293289999999956
20
-96.4059699999999964
11
159.8482229999999902
21
-96.3517769999999985
0
LINE
8
BLACK
6
CONTINUOUS
10
159.8482229999999902
20
-96.3517769999999985
11
159.7940299999999922
21
-96.270670999999993
0
LINE
8
BLACK
6
CONTINUOUS
10
159.7940299999999922
20
-96.270670999999993
11
159.7750000000000057
21
-96.1749999999999972
0
LINE
8
BLACK
6
CONTINUOUS
10
159.7750000000000057
20
-96.1749999999999972
11
159.7750000000000057
21
-95.2249999999999943
0
LINE
8
BLACK
6
CONTINUOUS
10
159.7750000000000057
20
-95.2249999999999943
11
159.7940299999999922
21
-95.1293289999999985
0
LINE
8
BLACK
6
CONTINUOUS
10
159.7940299999999922
20
-95.1293289999999985
11
159.8482229999999902
21
-95.048222999999993
0
LINE
8
BLACK
6
CONTINUOUS
10
159.8482229999999902
20
-95.048222999999993
11
159.9293289999999956
21
-94.9940299999999951
0
LINE
8
BLACK
6
CONTINUOUS
10
159.9293289999999956
20
-94.9940299999999951
11
160.0250000000000057
21
-94.9749999999999943
0
LINE
8
BLACK
6
CONTINUOUS
10
160.0250000000000057
20
-94.9749999999999943
11
160.6999999999999886
21
-94.9749999999999943
0
LINE
8
BLACK
6
CONTINUOUS
10
160.6999999999999886
20
-94.9749999999999943
11
160.7956709999999987
21
-94.9940299999999951
0
LINE
8
BLACK
6
CONTINUOUS
10
162.8706709999999873
20
-94.9940299999999951
11
162.9517769999999928
21
-95.048222999999993
0
LINE
8
BLACK
6
CONTINUOUS
10
162.9517769999999928
20
-95.048222999999993
11
163.0059699999999907
21
-95.1293289999999985
0
LINE
8
BLACK
6
CONTINUOUS
10
163.0059699999999907
20
-95.1293289999999985
11
163.0250000000000057
21
-95.2249999999999943
0
LINE
8
BLACK
6
CONTINUOUS
10
163.0250000000000057
20
-95.2249999999999943
11
163.0250000000000057
21
-96.1749999999999972
0
LINE
8
BLACK
6
CONTINUOUS
10
163.0250000000000057
20
-96.1749999999999972
11
163.0059699999999907
21
-96.270670999999993
0
LINE
8
BLACK
6
CONTINUOUS
10
163.0059699999999907
20
-96.270670999999993
11
162.9517769999999928
21
-96.3517769999999985
0
LINE
8
BLACK
6
CONTINUOUS
10
162.9517769999999928
20
-96.3517769999999985
11
162.8706709999999873
21
-96.4059699999999964
0
LINE
8
BLACK
6
CONTINUOUS
10
162.8706709999999873
20
-96.4059699999999964
11
162.7750000000000057
21
-96.4249999999999972
0
LINE
8
BLACK
6
CONTINUOUS
10
162.7750000000000057
20
-96.4249999999999972
11
162.0999999999999943
21
-96.4249999999999972
0
LINE
8
BLACK
6
CONTINUOUS
10
162.0999999999999943
20
-96.4249999999999972
11
162.0043289999999843
21
-96.4059699999999964
0
LINE
8
BLACK
6
CONTINUOUS
10
162.0043289999999843
20
-96.4059699999999964
11
161.9232229999999788
21
-96.3517769999999985
0
LINE
8
BLACK
6
CONTINUOUS
10
161.9232229999999788
20
-96.3517769999999985
11
161.8690299999999809
21
-96.270670999999993
0
LINE
8
BLACK
6
CONTINUOUS
10
161.8690299999999809
20
-96.270670999999993
11
161.8499999999999943
21
-96.1749999999999972
0
LINE
8
BLACK
6
CONTINUOUS
10
161.8499999999999943
20
-96.1749999999999972
11
161.8499999999999943
21
-95.2249999999999943
0
LINE
8
BLACK
6
CONTINUOUS
10
161.8499999999999943
20
-95.2249999999999943
11
161.8690299999999809
21
-95.1293289999999985
0
LINE
8
BLACK
6
CONTINUOUS
10
161.8690299999999809
20
-95.1293289999999985
11
161.9232229999999788
21
-95.048222999999993
0
LINE
8
BLACK
6
CONTINUOUS
10
161.9232229999999788
20
-95.048222999999993
11
162.0043289999999843
21
-94.9940299999999951
0
LINE
8
BLACK
6
CONTINUOUS
10
162.0043289999999843
20
-94.9940299999999951
11
162.0999999999999943
21
-94.9749999999999943
0
LINE
8
BLACK
6
CONTINUOUS
10
162.0999999999999943
20
-94.9749999999999943
11
162.7750000000000057
21
-94.9749999999999943
0
LINE
8
BLACK
6
CONTINUOUS
10
162.7750000000000057
20
-94.9749999999999943
11
162.8706709999999873
21
-94.9940299999999951
0
LINE
8
BLACK
6
CONTINUOUS
10
139.1706700000000012
20
-91.7440299999999951
11
139.2517760000000067
21
-91.7982239999999905
0
LINE
8
BLACK
6
CONTINUOUS
10
139.2517760000000067
20
-91.7982239999999905
11
139.3059700000000021
21
-91.8793299999999959
0
LINE
8
BLACK
6
CONTINUOUS
10
139.3059700000000021
20
-91.8793299999999959
11
139.3249989999999912
21
-91.9750019999999893
0
LINE
8
BLACK
6
CONTINUOUS
10
139.3249989999999912
20
-91.9750019999999893
11
139.3249999999999886
21
-93.2249989999999968
0
LINE
8
BLACK
6
CONTINUOUS
10
139.3249999999999886
20
-93.2249989999999968
11
139.3059700000000021
21
-93.3206699999999927
0
LINE
8
BLACK
6
CONTINUOUS
10
139.3059700000000021
20
-93.3206699999999927
11
139.2517760000000067
21
-93.4017759999999981
0
LINE
8
BLACK
6
CONTINUOUS
10
139.2517760000000067
20
-93.4017759999999981
11
139.1706700000000012
21
-93.4559699999999935
0
LINE
8
BLACK
6
CONTINUOUS
10
139.1706700000000012
20
-93.4559699999999935
11
139.0749979999999937
21
-93.4749989999999968
0
LINE
8
BLACK
6
CONTINUOUS
10
139.0749979999999937
20
-93.4749989999999968
11
138.1500010000000032
21
-93.4749999999999943
0
LINE
8
BLACK
6
CONTINUOUS
10
138.1500010000000032
20
-93.4749999999999943
11
138.0543299999999931
21
-93.4559699999999935
0
LINE
8
BLACK
6
CONTINUOUS
10
138.0543299999999931
20
-93.4559699999999935
11
137.9732239999999877
21
-93.4017759999999981
0
LINE
8
BLACK
6
CONTINUOUS
10
137.9732239999999877
20
-93.4017759999999981
11
137.9190299999999922
21
-93.3206699999999927
0
LINE
8
BLACK
6
CONTINUOUS
10
137.9190299999999922
20
-93.3206699999999927
11
137.9000010000000032
21
-93.2249979999999994
0
LINE
8
BLACK
6
CONTINUOUS
10
137.9000010000000032
20
-93.2249979999999994
11
137.9000000000000057
21
-91.9750009999999918
0
LINE
8
BLACK
6
CONTINUOUS
10
137.9000000000000057
20
-91.9750009999999918
11
137.9190299999999922
21
-91.8793299999999959
0
LINE
8
BLACK
6
CONTINUOUS
10
137.9190299999999922
20
-91.8793299999999959
11
137.9732239999999877
21
-91.7982239999999905
0
LINE
8
BLACK
6
CONTINUOUS
10
137.9732239999999877
20
-91.7982239999999905
11
138.0543299999999931
21
-91.7440299999999951
0
LINE
8
BLACK
6
CONTINUOUS
10
138.0543299999999931
20
-91.7440299999999951
11
138.1500020000000006
21
-91.7250009999999918
0
LINE
8
BLACK
6
CONTINUOUS
10
138.1500020000000006
20
-91.7250009999999918
11
139.0749989999999912
21
-91.7249999999999943
0
LINE
8
BLACK
6
CONTINUOUS
10
139.0749989999999912
20
-91.7249999999999943
11
139.1706700000000012
21
-91.7440299999999951
0
LINE
8
BLACK
6
CONTINUOUS
10
142.1456699999999955
20
-91.7440299999999951
11
142.226776000000001
21
-91.7982239999999905
0
LINE
8
BLACK
6
CONTINUOUS
10
142.226776000000001
20
-91.7982239999999905
11
142.2809699999999964
21
-91.8793299999999959
0
LINE
8
BLACK
6
CONTINUOUS
10
142.2809699999999964
20
-91.8793299999999959
11
142.2999989999999855
21
-91.9750019999999893
0
LINE
8
BLACK
6
CONTINUOUS
10
142.2999989999999855
20
-91.9750019999999893
11
142.2999999999999829
21
-93.2249989999999968
0
LINE
8
BLACK
6
CONTINUOUS
10
142.2999999999999829
20
-93.2249989999999968
11
142.2809699999999964
21
-93.3206699999999927
0
LINE
8
BLACK
6
CONTINUOUS
10
142.2809699999999964
20
-93.3206699999999927
11
142.226776000000001
21
-93.4017759999999981
0
LINE
8
BLACK
6
CONTINUOUS
10
142.226776000000001
20
-93.4017759999999981
11
142.1456699999999955
21
-93.4559699999999935
0
LINE
8
BLACK
6
CONTINUOUS
10
142.1456699999999955
20
-93.4559699999999935
11
142.049997999999988
21
-93.4749989999999968
0
LINE
8
BLACK
6
CONTINUOUS
10
142.049997999999988
20
-93.4749989999999968
11
141.1250009999999975
21
-93.4749999999999943
0
LINE
8
BLACK
6
CONTINUOUS
10
141.1250009999999975
20
-93.4749999999999943
11
141.0293299999999874
21
-93.4559699999999935
0
LINE
8
BLACK
6
CONTINUOUS
10
141.0293299999999874
20
-93.4559699999999935
11
140.948223999999982
21
-93.4017759999999981
0
LINE
8
BLACK
6
CONTINUOUS
10
140.948223999999982
20
-93.4017759999999981
11
140.8940299999999866
21
-93.3206699999999927
0
LINE
8
BLACK
6
CONTINUOUS
10
140.8940299999999866
20
-93.3206699999999927
11
140.8750009999999975
21
-93.2249979999999994
0
LINE
8
BLACK
6
CONTINUOUS
10
140.8750009999999975
20
-93.2249979999999994
11
140.875
21
-91.9750009999999918
0
LINE
8
BLACK
6
CONTINUOUS
10
140.875
20
-91.9750009999999918
11
140.8940299999999866
21
-91.8793299999999959
0
LINE
8
BLACK
6
CONTINUOUS
10
140.8940299999999866
20
-91.8793299999999959
11
140.948223999999982
21
-91.7982239999999905
0
LINE
8
BLACK
6
CONTINUOUS
10
140.948223999999982
20
-91.7982239999999905
11
141.0293299999999874
21
-91.7440299999999951
0
LINE
8
BLACK
6
CONTINUOUS
10
141.0293299999999874
20
-91.7440299999999951
11
141.125001999999995
21
-91.7250009999999918
0
LINE
8
BLACK
6
CONTINUOUS
10
141.125001999999995
20
-91.7250009999999918
11
142.0499989999999855
21
-91.7249999999999943
0
LINE
8
BLACK
6
CONTINUOUS
10
142.0499989999999855
20
-91.7249999999999943
11
142.1456699999999955
21
-91.7440299999999951
0
LINE
8
BLACK
6
CONTINUOUS
10
150.6956710000000044
20
-91.7940299999999922
11
150.7767769999999814
21
-91.8482229999999902
0
LINE
8
BLACK
6
CONTINUOUS
10
150.7767769999999814
20
-91.8482229999999902
11
150.8309699999999793
21
-91.9293289999999956
0
LINE
8
BLACK
6
CONTINUOUS
10
150.8309699999999793
20
-91.9293289999999956
11
150.8499999999999943
21
-92.0249999999999915
0
LINE
8
BLACK
6
CONTINUOUS
10
150.8499999999999943
20
-92.0249999999999915
11
150.8499999999999943
21
-92.9749999999999943
0
LINE
8
BLACK
6
CONTINUOUS
10
150.8499999999999943
20
-92.9749999999999943
11
150.8309699999999793
21
-93.0706709999999902
0
LINE
8
BLACK
6
CONTINUOUS
10
150.8309699999999793
20
-93.0706709999999902
11
150.7767769999999814
21
-93.1517769999999956
0
LINE
8
BLACK
6
CONTINUOUS
10
150.7767769999999814
20
-93.1517769999999956
11
150.6956710000000044
21
-93.2059699999999935
0
LINE
8
BLACK
6
CONTINUOUS
10
150.6956710000000044
20
-93.2059699999999935
11
150.5999999999999943
21
-93.2249999999999943
0
LINE
8
BLACK
6
CONTINUOUS
10
150.5999999999999943
20
-93.2249999999999943
11
149.9249999999999829
21
-93.2249999999999943
0
LINE
8
BLACK
6
CONTINUOUS
10
149.9249999999999829
20
-93.2249999999999943
11
149.8293290000000013
21
-93.2059699999999935
0
LINE
8
BLACK
6
CONTINUOUS
10
149.8293290000000013
20
-93.2059699999999935
11
149.7482229999999959
21
-93.1517769999999956
0
LINE
8
BLACK
6
CONTINUOUS
10
149.7482229999999959
20
-93.1517769999999956
11
149.6940299999999979
21
-93.0706709999999902
0
LINE
8
BLACK
6
CONTINUOUS
10
149.6940299999999979
20
-93.0706709999999902
11
149.6749999999999829
21
-92.9749999999999943
0
LINE
8
BLACK
6
CONTINUOUS
10
149.6749999999999829
20
-92.9749999999999943
11
149.6749999999999829
21
-92.0249999999999915
0
LINE
8
BLACK
6
CONTINUOUS
10
149.6749999999999829
20
-92.0249999999999915
11
149.6940299999999979
21
-91.9293289999999956
0
LINE
8
BLACK
6
CONTINUOUS
10
149.6940299999999979
20
-91.9293289999999956
11
149.7482229999999959
21
-91.8482229999999902
0
LINE
8
BLACK
6
CONTINUOUS
10
149.7482229999999959
20
-91.8482229999999902
11
149.8293290000000013
21
-91.7940299999999922
0
LINE
8
BLACK
6
CONTINUOUS
10
149.8293290000000013
20
-91.7940299999999922
11
149.9249999999999829
21
-91.7749999999999915
0
LINE
8
BLACK
6
CONTINUOUS
10
149.9249999999999829
20
-91.7749999999999915
11
150.5999999999999943
21
-91.7749999999999915
0
LINE
8
BLACK
6
CONTINUOUS
10
150.5999999999999943
20
-91.7749999999999915
11
150.6956710000000044
21
-91.7940299999999922
0
LINE
8
BLACK
6
CONTINUOUS
10
152.770670999999993
20
-91.7940299999999922
11
152.8517769999999985
21
-91.8482229999999902
0
LINE
8
BLACK
6
CONTINUOUS
10
152.8517769999999985
20
-91.8482229999999902
11
152.9059699999999964
21
-91.9293289999999956
0
LINE
8
BLACK
6
CONTINUOUS
10
152.9059699999999964
20
-91.9293289999999956
11
152.9249999999999829
21
-92.0249999999999915
0
LINE
8
BLACK
6
CONTINUOUS
10
152.9249999999999829
20
-92.0249999999999915
11
152.9249999999999829
21
-92.9749999999999943
0
LINE
8
BLACK
6
CONTINUOUS
10
152.9249999999999829
20
-92.9749999999999943
11
152.9059699999999964
21
-93.0706709999999902
0
LINE
8
BLACK
6
CONTINUOUS
10
152.9059699999999964
20
-93.0706709999999902
11
152.8517769999999985
21
-93.1517769999999956
0
LINE
8
BLACK
6
CONTINUOUS
10
152.8517769999999985
20
-93.1517769999999956
11
152.770670999999993
21
-93.2059699999999935
0
LINE
8
BLACK
6
CONTINUOUS
10
152.770670999999993
20
-93.2059699999999935
11
152.6749999999999829
21
-93.2249999999999943
0
LINE
8
BLACK
6
CONTINUOUS
10
152.6749999999999829
20
-93.2249999999999943
11
152.
21
-93.2249999999999943
0
LINE
8
BLACK
6
CONTINUOUS
10
152.
20
-93.2249999999999943
11
151.9043289999999899
21
-93.2059699999999935
0
LINE
8
BLACK
6
CONTINUOUS
10
151.9043289999999899
20
-93.2059699999999935
11
151.8232229999999845
21
-93.1517769999999956
0
LINE
8
BLACK
6
CONTINUOUS
10
151.8232229999999845
20
-93.1517769999999956
11
151.7690299999999866
21
-93.0706709999999902
0
LINE
8
BLACK
6
CONTINUOUS
10
151.7690299999999866
20
-93.0706709999999902
11
151.75
21
-92.9749999999999943
0
LINE
8
BLACK
6
CONTINUOUS
10
151.75
20
-92.9749999999999943
11
151.75
21
-92.0249999999999915
0
LINE
8
BLACK
6
CONTINUOUS
10
151.75
20
-92.0249999999999915
11
151.7690299999999866
21
-91.9293289999999956
0
LINE
8
BLACK
6
CONTINUOUS
10
151.7690299999999866
20
-91.9293289999999956
11
151.8232229999999845
21
-91.8482229999999902
0
LINE
8
BLACK
6
CONTINUOUS
10
151.8232229999999845
20
-91.8482229999999902
11
151.9043289999999899
21
-91.7940299999999922
0
LINE
8
BLACK
6
CONTINUOUS
10
151.9043289999999899
20
-91.7940299999999922
11
152.
21
-91.7749999999999915
0
LINE
8
BLACK
6
CONTINUOUS
10
152.
20
-91.7749999999999915
11
152.6749999999999829
21
-91.7749999999999915
0
LINE
8
BLACK
6
CONTINUOUS
10
152.6749999999999829
20
-91.7749999999999915
11
152.770670999999993
21
-91.7940299999999922
0
LINE
8
BLACK
6
CONTINUOUS
10
140.4456710000000044
20
-88.1190299999999951
11
140.5267769999999814
21
-88.173222999999993
0
LINE
8
BLACK
6
CONTINUOUS
10
140.5267769999999814
20
-88.173222999999993
11
140.5809700000000078
21
-88.2543289999999985
0
LINE
8
BLACK
6
CONTINUOUS
10
140.5809700000000078
20
-88.2543289999999985
11
140.5999999999999943
21
-88.3499999999999943
0
LINE
8
BLACK
6
CONTINUOUS
10
140.5999999999999943
20
-88.3499999999999943
11
140.5999999999999943
21
-89.25
0
LINE
8
BLACK
6
CONTINUOUS
10
140.5999999999999943
20
-89.25
11
140.5809700000000078
21
-89.3456709999999958
0
LINE
8
BLACK
6
CONTINUOUS
10
140.5809700000000078
20
-89.3456709999999958
11
140.5267769999999814
21
-89.4267770000000013
0
LINE
8
BLACK
6
CONTINUOUS
10
140.5267769999999814
20
-89.4267770000000013
11
140.4456710000000044
21
-89.4809699999999992
0
LINE
8
BLACK
6
CONTINUOUS
10
140.4456710000000044
20
-89.4809699999999992
11
140.3499999999999943
21
-89.5
0
LINE
8
BLACK
6
CONTINUOUS
10
140.3499999999999943
20
-89.5
11
139.6500000000000057
21
-89.5
0
LINE
8
BLACK
6
CONTINUOUS
10
139.6500000000000057
20
-89.5
11
139.5543289999999956
21
-89.4809699999999992
0
LINE
8
BLACK
6
CONTINUOUS
10
139.5543289999999956
20
-89.4809699999999992
11
139.4732229999999902
21
-89.4267770000000013
0
LINE
8
BLACK
6
CONTINUOUS
10
139.4732229999999902
20
-89.4267770000000013
11
139.4190299999999922
21
-89.3456709999999958
0
LINE
8
BLACK
6
CONTINUOUS
10
139.4190299999999922
20
-89.3456709999999958
11
139.4000000000000057
21
-89.25
0
LINE
8
BLACK
6
CONTINUOUS
10
139.4000000000000057
20
-89.25
11
139.4000000000000057
21
-88.3499999999999943
0
LINE
8
BLACK
6
CONTINUOUS
10
139.4000000000000057
20
-88.3499999999999943
11
139.4190299999999922
21
-88.2543289999999985
0
LINE
8
BLACK
6
CONTINUOUS
10
139.4190299999999922
20
-88.2543289999999985
11
139.4732229999999902
21
-88.173222999999993
0
LINE
8
BLACK
6
CONTINUOUS
10
139.4732229999999902
20
-88.173222999999993
11
139.5543289999999956
21
-88.1190299999999951
0
LINE
8
BLACK
6
CONTINUOUS
10
139.5543289999999956
20
-88.1190299999999951
11
139.6500000000000057
21
-88.0999999999999943
0
LINE
8
BLACK
6
CONTINUOUS
10
139.6500000000000057
20
-88.0999999999999943
11
140.3499999999999943
21
-88.0999999999999943
0
LINE
8
BLACK
6
CONTINUOUS
10
140.3499999999999943
20
-88.0999999999999943
11
140.4456710000000044
21
-88.1190299999999951
0
LINE
8
BLACK
6
CONTINUOUS
10
142.4456710000000044
20
-88.1190299999999951
11
142.5267769999999814
21
-88.173222999999993
0
LINE
8
BLACK
6
CONTINUOUS
10
142.5267769999999814
20
-88.173222999999993
11
142.5809700000000078
21
-88.2543289999999985
0
LINE
8
BLACK
6
CONTINUOUS
10
142.5809700000000078
20
-88.2543289999999985
11
142.5999999999999943
21
-88.3499999999999943
0
LINE
8
BLACK
6
CONTINUOUS
10
142.5999999999999943
20
-88.3499999999999943
11
142.5999999999999943
21
-89.25
0
LINE
8
BLACK
6
CONTINUOUS
10
142.5999999999999943
20
-89.25
11
142.5809700000000078
21
-89.3456709999999958
0
LINE
8
BLACK
6
CONTINUOUS
10
142.5809700000000078
20
-89.3456709999999958
11
142.5267769999999814
21
-89.4267770000000013
0
LINE
8
BLACK
6
CONTINUOUS
10
142.5267769999999814
20
-89.4267770000000013
11
142.4456710000000044
21
-89.4809699999999992
0
LINE
8
BLACK
6
CONTINUOUS
10
142.4456710000000044
20
-89.4809699999999992
11
142.3499999999999943
21
-89.5
0
LINE
8
BLACK
6
CONTINUOUS
10
142.3499999999999943
20
-89.5
11
141.6500000000000057
21
-89.5
0
LINE
8
BLACK
6
CONTINUOUS
10
141.6500000000000057
20
-89.5
11
141.5543289999999956
21
-89.4809699999999992
0
LINE
8
BLACK
6
CONTINUOUS
10
141.5543289999999956
20
-89.4809699999999992
11
141.4732229999999902
21
-89.4267770000000013
0
LINE
8
BLACK
6
CONTINUOUS
10
141.4732229999999902
20
-89.4267770000000013
11
141.4190299999999922
21
-89.3456709999999958
0
LINE
8
BLACK
6
CONTINUOUS
10
141.4190299999999922
20
-89.3456709999999958
11
141.4000000000000057
21
-89.25
0
LINE
8
BLACK
6
CONTINUOUS
10
141.4000000000000057
20
-89.25
11
141.4000000000000057
21
-88.3499999999999943
0
LINE
8
BLACK
6
CONTINUOUS
10
141.4000000000000057
20
-88.3499999999999943
11
141.4190299999999922
21
-88.2543289999999985
0
LINE
8
BLACK
6
CONTINUOUS
10
141.4190299999999922
20
-88.2543289999999985
11
141.4732229999999902
21
-88.173222999999993
0
LINE
8
BLACK
6
CONTINUOUS
10
141.4732229999999902
20
-88.173222999999993
11
141.5543289999999956
21
-88.1190299999999951
0
LINE
8
BLACK
6
CONTINUOUS
10
141.5543289999999956
20
-88.1190299999999951
11
141.6500000000000057
21
-88.0999999999999943
0
LINE
8
BLACK
6
CONTINUOUS
10
141.6500000000000057
20
-88.0999999999999943
11
142.3499999999999943
21
-88.0999999999999943
0
LINE
8
BLACK
6
CONTINUOUS
10
142.3499999999999943
20
-88.0999999999999943
11
142.4456710000000044
21
-88.1190299999999951
0
LINE
8
BLACK
6
CONTINUOUS
10
140.4456710000000044
20
-85.8190299999999979
11
140.5267769999999814
21
-85.8732229999999959
0
LINE
8
BLACK
6
CONTINUOUS
10
140.5267769999999814
20
-85.8732229999999959
11
140.5809700000000078
21
-85.9543290000000013
0
LINE
8
BLACK
6
CONTINUOUS
10
140.5809700000000078
20
-85.9543290000000013
11
140.5999999999999943
21
-86.0499999999999972
0
LINE
8
BLACK
6
CONTINUOUS
10
140.5999999999999943
20
-86.0499999999999972
11
140.5999999999999943
21
-86.9500000000000028
0
LINE
8
BLACK
6
CONTINUOUS
10
140.5999999999999943
20
-86.9500000000000028
11
140.5809700000000078
21
-87.0456709999999987
0
LINE
8
BLACK
6
CONTINUOUS
10
140.5809700000000078
20
-87.0456709999999987
11
140.5267769999999814
21
-87.1267769999999899
0
LINE
8
BLACK
6
CONTINUOUS
10
140.5267769999999814
20
-87.1267769999999899
11
140.4456710000000044
21
-87.1809700000000021
0
LINE
8
BLACK
6
CONTINUOUS
10
140.4456710000000044
20
-87.1809700000000021
11
140.3499999999999943
21
-87.2000000000000028
0
LINE
8
BLACK
6
CONTINUOUS
10
140.3499999999999943
20
-87.2000000000000028
11
139.6500000000000057
21
-87.2000000000000028
0
LINE
8
BLACK
6
CONTINUOUS
10
139.6500000000000057
20
-87.2000000000000028
11
139.5543289999999956
21
-87.1809700000000021
0
LINE
8
BLACK
6
CONTINUOUS
10
139.5543289999999956
20
-87.1809700000000021
11
139.4732229999999902
21
-87.1267769999999899
0
LINE
8
BLACK
6
CONTINUOUS
10
139.4732229999999902
20
-87.1267769999999899
11
139.4190299999999922
21
-87.0456709999999987
0
LINE
8
BLACK
6
CONTINUOUS
10
139.4190299999999922
20
-87.0456709999999987
11
139.4000000000000057
21
-86.9500000000000028
0
LINE
8
BLACK
6
CONTINUOUS
10
139.4000000000000057
20
-86.9500000000000028
11
139.4000000000000057
21
-86.0499999999999972
0
LINE
8
BLACK
6
CONTINUOUS
10
139.4000000000000057
20
-86.0499999999999972
11
139.4190299999999922
21
-85.9543290000000013
0
LINE
8
BLACK
6
CONTINUOUS
10
139.4190299999999922
20
-85.9543290000000013
11
139.4732229999999902
21
-85.8732229999999959
0
LINE
8
BLACK
6
CONTINUOUS
10
139.4732229999999902
20
-85.8732229999999959
11
139.5543289999999956
21
-85.8190299999999979
0
LINE
8
BLACK
6
CONTINUOUS
10
139.5543289999999956
20
-85.8190299999999979
11
139.6500000000000057
21
-85.7999999999999972
0
LINE
8
BLACK
6
CONTINUOUS
10
139.6500000000000057
20
-85.7999999999999972
11
140.3499999999999943
21
-85.7999999999999972
0
LINE
8
BLACK
6
CONTINUOUS
10
140.3499999999999943
20
-85.7999999999999972
11
140.4456710000000044
21
-85.8190299999999979
0
LINE
8
BLACK
6
CONTINUOUS
10
142.4456710000000044
20
-85.8190299999999979
11
142.5267769999999814
21
-85.8732229999999959
0
LINE
8
BLACK
6
CONTINUOUS
10
142.5267769999999814
20
-85.8732229999999959
11
142.5809700000000078
21
-85.9543290000000013
0
LINE
8
BLACK
6
CONTINUOUS
10
142.5809700000000078
20
-85.9543290000000013
11
142.5999999999999943
21
-86.0499999999999972
0
LINE
8
BLACK
6
CONTINUOUS
10
142.5999999999999943
20
-86.0499999999999972
11
142.5999999999999943
21
-86.9500000000000028
0
LINE
8
BLACK
6
CONTINUOUS
10
142.5999999999999943
20
-86.9500000000000028
11
142.5809700000000078
21
-87.0456709999999987
0
LINE
8
BLACK
6
CONTINUOUS
10
142.5809700000000078
20
-87.0456709999999987
11
142.5267769999999814
21
-87.1267769999999899
0
LINE
8
BLACK
6
CONTINUOUS
10
142.5267769999999814
20
-87.1267769999999899
11
142.4456710000000044
21
-87.1809700000000021
0
LINE
8
BLACK
6
CONTINUOUS
10
142.4456710000000044
20
-87.1809700000000021
11
142.3499999999999943
21
-87.2000000000000028
0
LINE
8
BLACK
6
CONTINUOUS
10
142.3499999999999943
20
-87.2000000000000028
11
141.6500000000000057
21
-87.2000000000000028
0
LINE
8
BLACK
6
CONTINUOUS
10
141.6500000000000057
20
-87.2000000000000028
11
141.5543289999999956
21
-87.1809700000000021
0
LINE
8
BLACK
6
CONTINUOUS
10
141.5543289999999956
20
-87.1809700000000021
11
141.4732229999999902
21
-87.1267769999999899
0
LINE
8
BLACK
6
CONTINUOUS
10
141.4732229999999902
20
-87.1267769999999899
11
141.4190299999999922
21
-87.0456709999999987
0
LINE
8
BLACK
6
CONTINUOUS
10
141.4190299999999922
20
-87.0456709999999987
11
141.4000000000000057
21
-86.9500000000000028
0
LINE
8
BLACK
6
CONTINUOUS
10
141.4000000000000057
20
-86.9500000000000028
11
141.4000000000000057
21
-86.0499999999999972
0
LINE
8
BLACK
6
CONTINUOUS
10
141.4000000000000057
20
-86.0499999999999972
11
141.4190299999999922
21
-85.9543290000000013
0
LINE
8
BLACK
6
CONTINUOUS
10
141.4190299999999922
20
-85.9543290000000013
11
141.4732229999999902
21
-85.8732229999999959
0
LINE
8
BLACK
6
CONTINUOUS
10
141.4732229999999902
20
-85.8732229999999959
11
141.5543289999999956
21
-85.8190299999999979
0
LINE
8
BLACK
6
CONTINUOUS
10
141.5543289999999956
20
-85.8190299999999979
11
141.6500000000000057
21
-85.7999999999999972
0
LINE
8
BLACK
6
CONTINUOUS
10
141.6500000000000057
20
-85.7999999999999972
11
142.3499999999999943
21
-85.7999999999999972
0
LINE
8
BLACK
6
CONTINUOUS
10
142.3499999999999943
20
-85.7999999999999972
11
142.4456710000000044
21
-85.8190299999999979
0
LINE
8
BLACK
6
CONTINUOUS
10
140.145670999999993
20
-81.6190299999999951
11
140.2267769999999985
21
-81.673222999999993
0
LINE
8
BLACK
6
CONTINUOUS
10
140.2267769999999985
20
-81.673222999999993
11
140.2809699999999964
21
-81.7543289999999985
0
LINE
8
BLACK
6
CONTINUOUS
10
140.2809699999999964
20
-81.7543289999999985
11
140.2999999999999829
21
-81.8499999999999943
0
LINE
8
BLACK
6
CONTINUOUS
10
140.2999999999999829
20
-81.8499999999999943
11
140.2999999999999829
21
-82.75
0
LINE
8
BLACK
6
CONTINUOUS
10
140.2999999999999829
20
-82.75
11
140.2809699999999964
21
-82.8456709999999958
0
LINE
8
BLACK
6
CONTINUOUS
10
140.2809699999999964
20
-82.8456709999999958
11
140.2267769999999985
21
-82.9267770000000013
0
LINE
8
BLACK
6
CONTINUOUS
10
140.2267769999999985
20
-82.9267770000000013
11
140.145670999999993
21
-82.9809699999999992
0
LINE
8
BLACK
6
CONTINUOUS
10
140.145670999999993
20
-82.9809699999999992
11
140.0499999999999829
21
-83.
0
LINE
8
BLACK
6
CONTINUOUS
10
140.0499999999999829
20
-83.
11
139.3499999999999943
21
-83.
0
LINE
8
BLACK
6
CONTINUOUS
10
139.3499999999999943
20
-83.
11
139.2543289999999843
21
-82.9809699999999992
0
LINE
8
BLACK
6
CONTINUOUS
10
139.2543289999999843
20
-82.9809699999999992
11
139.1732230000000072
21
-82.9267770000000013
0
LINE
8
BLACK
6
CONTINUOUS
10
139.1732230000000072
20
-82.9267770000000013
11
139.1190299999999809
21
-82.8456709999999958
0
LINE
8
BLACK
6
CONTINUOUS
10
139.1190299999999809
20
-82.8456709999999958
11
139.0999999999999943
21
-82.75
0
LINE
8
BLACK
6
CONTINUOUS
10
139.0999999999999943
20
-82.75
11
139.0999999999999943
21
-81.8499999999999943
0
LINE
8
BLACK
6
CONTINUOUS
10
139.0999999999999943
20
-81.8499999999999943
11
139.1190299999999809
21
-81.7543289999999985
0
LINE
8
BLACK
6
CONTINUOUS
10
139.1190299999999809
20
-81.7543289999999985
11
139.1732230000000072
21
-81.673222999999993
0
LINE
8
BLACK
6
CONTINUOUS
10
139.1732230000000072
20
-81.673222999999993
11
139.2543289999999843
21
-81.6190299999999951
0
LINE
8
BLACK
6
CONTINUOUS
10
139.2543289999999843
20
-81.6190299999999951
11
139.3499999999999943
21
-81.5999999999999943
0
LINE
8
BLACK
6
CONTINUOUS
10
139.3499999999999943
20
-81.5999999999999943
11
140.0499999999999829
21
-81.5999999999999943
0
LINE
8
BLACK
6
CONTINUOUS
10
140.0499999999999829
20
-81.5999999999999943
11
140.145670999999993
21
-81.6190299999999951
0
LINE
8
BLACK
6
CONTINUOUS
10
142.145670999999993
20
-81.6190299999999951
11
142.2267769999999985
21
-81.673222999999993
0
LINE
8
BLACK
6
CONTINUOUS
10
142.2267769999999985
20
-81.673222999999993
11
142.2809699999999964
21
-81.7543289999999985
0
LINE
8
BLACK
6
CONTINUOUS
10
142.2809699999999964
20
-81.7543289999999985
11
142.2999999999999829
21
-81.8499999999999943
0
LINE
8
BLACK
6
CONTINUOUS
10
142.2999999999999829
20
-81.8499999999999943
11
142.2999999999999829
21
-82.75
0
LINE
8
BLACK
6
CONTINUOUS
10
142.2999999999999829
20
-82.75
11
142.2809699999999964
21
-82.8456709999999958
0
LINE
8
BLACK
6
CONTINUOUS
10
142.2809699999999964
20
-82.8456709999999958
11
142.2267769999999985
21
-82.9267770000000013
0
LINE
8
BLACK
6
CONTINUOUS
10
142.2267769999999985
20
-82.9267770000000013
11
142.145670999999993
21
-82.9809699999999992
0
LINE
8
BLACK
6
CONTINUOUS
10
142.145670999999993
20
-82.9809699999999992
11
142.0499999999999829
21
-83.
0
LINE
8
BLACK
6
CONTINUOUS
10
142.0499999999999829
20
-83.
11
141.3499999999999943
21
-83.
0
LINE
8
BLACK
6
CONTINUOUS
10
141.3499999999999943
20
-83.
11
141.2543289999999843
21
-82.9809699999999992
0
LINE
8
BLACK
6
CONTINUOUS
10
141.2543289999999843
20
-82.9809699999999992
11
141.1732230000000072
21
-82.9267770000000013
0
LINE
8
BLACK
6
CONTINUOUS
10
141.1732230000000072
20
-82.9267770000000013
11
141.1190299999999809
21
-82.8456709999999958
0
LINE
8
BLACK
6
CONTINUOUS
10
141.1190299999999809
20
-82.8456709999999958
11
141.0999999999999943
21
-82.75
0
LINE
8
BLACK
6
CONTINUOUS
10
141.0999999999999943
20
-82.75
11
141.0999999999999943
21
-81.8499999999999943
0
LINE
8
BLACK
6
CONTINUOUS
10
141.0999999999999943
20
-81.8499999999999943
11
141.1190299999999809
21
-81.7543289999999985
0
LINE
8
BLACK
6
CONTINUOUS
10
141.1190299999999809
20
-81.7543289999999985
11
141.1732230000000072
21
-81.673222999999993
0
LINE
8
BLACK
6
CONTINUOUS
10
141.1732230000000072
20
-81.673222999999993
11
141.2543289999999843
21
-81.6190299999999951
0
LINE
8
BLACK
6
CONTINUOUS
10
141.2543289999999843
20
-81.6190299999999951
11
141.3499999999999943
21
-81.5999999999999943
0
LINE
8
BLACK
6
CONTINUOUS
10
141.3499999999999943
20
-81.5999999999999943
11
142.0499999999999829
21
-81.5999999999999943
0
LINE
8
BLACK
6
CONTINUOUS
10
142.0499999999999829
20
-81.5999999999999943
11
142.145670999999993
21
-81.6190299999999951
0
LINE
8
BLACK
6
CONTINUOUS
10
148.145670999999993
20
-81.2190299999999894
11
148.2267769999999985
21
-81.2732230000000015
0
LINE
8
BLACK
6
CONTINUOUS
10
148.2267769999999985
20
-81.2732230000000015
11
148.2809699999999964
21
-81.3543289999999928
0
LINE
8
BLACK
6
CONTINUOUS
10
148.2809699999999964
20
-81.3543289999999928
11
148.2999999999999829
21
-81.4500000000000028
0
LINE
8
BLACK
6
CONTINUOUS
10
148.2999999999999829
20
-81.4500000000000028
11
148.2999999999999829
21
-82.1499999999999915
0
LINE
8
BLACK
6
CONTINUOUS
10
148.2999999999999829
20
-82.1499999999999915
11
148.2809699999999964
21
-82.2456710000000015
0
LINE
8
BLACK
6
CONTINUOUS
10
148.2809699999999964
20
-82.2456710000000015
11
148.2267769999999985
21
-82.3267769999999928
0
LINE
8
BLACK
6
CONTINUOUS
10
148.2267769999999985
20
-82.3267769999999928
11
148.145670999999993
21
-82.3809699999999907
0
LINE
8
BLACK
6
CONTINUOUS
10
148.145670999999993
20
-82.3809699999999907
11
148.0499999999999829
21
-82.3999999999999915
0
LINE
8
BLACK
6
CONTINUOUS
10
148.0499999999999829
20
-82.3999999999999915
11
147.1500000000000057
21
-82.3999999999999915
0
LINE
8
BLACK
6
CONTINUOUS
10
147.1500000000000057
20
-82.3999999999999915
11
147.0543289999999956
21
-82.3809699999999907
0
LINE
8
BLACK
6
CONTINUOUS
10
147.0543289999999956
20
-82.3809699999999907
11
146.9732229999999902
21
-82.3267769999999928
0
LINE
8
BLACK
6
CONTINUOUS
10
146.9732229999999902
20
-82.3267769999999928
11
146.9190299999999922
21
-82.2456710000000015
0
LINE
8
BLACK
6
CONTINUOUS
10
146.9190299999999922
20
-82.2456710000000015
11
146.9000000000000057
21
-82.1499999999999915
0
LINE
8
BLACK
6
CONTINUOUS
10
146.9000000000000057
20
-82.1499999999999915
11
146.9000000000000057
21
-81.4500000000000028
0
LINE
8
BLACK
6
CONTINUOUS
10
146.9000000000000057
20
-81.4500000000000028
11
146.9190299999999922
21
-81.3543289999999928
0
LINE
8
BLACK
6
CONTINUOUS
10
146.9190299999999922
20
-81.3543289999999928
11
146.9732229999999902
21
-81.2732230000000015
0
LINE
8
BLACK
6
CONTINUOUS
10
146.9732229999999902
20
-81.2732230000000015
11
147.0543289999999956
21
-81.2190299999999894
0
LINE
8
BLACK
6
CONTINUOUS
10
147.0543289999999956
20
-81.2190299999999894
11
147.1500000000000057
21
-81.2000000000000028
0
LINE
8
BLACK
6
CONTINUOUS
10
147.1500000000000057
20
-81.2000000000000028
11
148.0499999999999829
21
-81.2000000000000028
0
LINE
8
BLACK
6
CONTINUOUS
10
148.0499999999999829
20
-81.2000000000000028
11
148.145670999999993
21
-81.2190299999999894
0
LINE
8
BLACK
6
CONTINUOUS
10
150.145670999999993
20
-81.2190299999999894
11
150.2267769999999985
21
-81.2732230000000015
0
LINE
8
BLACK
6
CONTINUOUS
10
150.2267769999999985
20
-81.2732230000000015
11
150.2809699999999964
21
-81.3543289999999928
0
LINE
8
BLACK
6
CONTINUOUS
10
150.2809699999999964
20
-81.3543289999999928
11
150.2999999999999829
21
-81.4500000000000028
0
LINE
8
BLACK
6
CONTINUOUS
10
150.2999999999999829
20
-81.4500000000000028
11
150.2999999999999829
21
-82.1499999999999915
0
LINE
8
BLACK
6
CONTINUOUS
10
150.2999999999999829
20
-82.1499999999999915
11
150.2809699999999964
21
-82.2456710000000015
0
LINE
8
BLACK
6
CONTINUOUS
10
150.2809699999999964
20
-82.2456710000000015
11
150.2267769999999985
21
-82.3267769999999928
0
LINE
8
BLACK
6
CONTINUOUS
10
150.2267769999999985
20
-82.3267769999999928
11
150.145670999999993
21
-82.3809699999999907
0
LINE
8
BLACK
6
CONTINUOUS
10
150.145670999999993
20
-82.3809699999999907
11
150.0499999999999829
21
-82.3999999999999915
0
LINE
8
BLACK
6
CONTINUOUS
10
150.0499999999999829
20
-82.3999999999999915
11
149.1500000000000057
21
-82.3999999999999915
0
LINE
8
BLACK
6
CONTINUOUS
10
149.1500000000000057
20
-82.3999999999999915
11
149.0543289999999956
21
-82.3809699999999907
0
LINE
8
BLACK
6
CONTINUOUS
10
149.0543289999999956
20
-82.3809699999999907
11
148.9732229999999902
21
-82.3267769999999928
0
LINE
8
BLACK
6
CONTINUOUS
10
148.9732229999999902
20
-82.3267769999999928
11
148.9190299999999922
21
-82.2456710000000015
0
LINE
8
BLACK
6
CONTINUOUS
10
148.9190299999999922
20
-82.2456710000000015
11
148.9000000000000057
21
-82.1499999999999915
0
LINE
8
BLACK
6
CONTINUOUS
10
148.9000000000000057
20
-82.1499999999999915
11
148.9000000000000057
21
-81.4500000000000028
0
LINE
8
BLACK
6
CONTINUOUS
10
148.9000000000000057
20
-81.4500000000000028
11
148.9190299999999922
21
-81.3543289999999928
0
LINE
8
BLACK
6
CONTINUOUS
10
148.9190299999999922
20
-81.3543289999999928
11
148.9732229999999902
21
-81.2732230000000015
0
LINE
8
BLACK
6
CONTINUOUS
10
148.9732229999999902
20
-81.2732230000000015
11
149.0543289999999956
21
-81.2190299999999894
0
LINE
8
BLACK
6
CONTINUOUS
10
149.0543289999999956
20
-81.2190299999999894
11
149.1500000000000057
21
-81.2000000000000028
0
LINE
8
BLACK
6
CONTINUOUS
10
149.1500000000000057
20
-81.2000000000000028
11
150.0499999999999829
21
-81.2000000000000028
0
LINE
8
BLACK
6
CONTINUOUS
10
150.0499999999999829
20
-81.2000000000000028
11
150.145670999999993
21
-81.2190299999999894
0
LINE
8
BLACK
6
CONTINUOUS
10
153.6265369999999848
20
-81.3652239999999978
11
153.6914209999999912
21
-81.4085790000000031
0
LINE
8
BLACK
6
CONTINUOUS
10
153.6914209999999912
20
-81.4085790000000031
11
153.7347759999999823
21
-81.4734629999999953
0
LINE
8
BLACK
6
CONTINUOUS
10
153.7347759999999823
20
-81.4734629999999953
11
153.75
21
-81.5499999999999972
0
LINE
8
BLACK
6
CONTINUOUS
10
153.75
20
-81.5499999999999972
11
153.75
21
-81.9500000000000028
0
LINE
8
BLACK
6
CONTINUOUS
10
153.75
20
-81.9500000000000028
11
153.7347759999999823
21
-82.0265369999999905
0
LINE
8
BLACK
6
CONTINUOUS
10
153.7347759999999823
20
-82.0265369999999905
11
153.6914209999999912
21
-82.0914209999999969
0
LINE
8
BLACK
6
CONTINUOUS
10
153.6914209999999912
20
-82.0914209999999969
11
153.6265369999999848
21
-82.1347760000000022
0
LINE
8
BLACK
6
CONTINUOUS
10
153.6265369999999848
20
-82.1347760000000022
11
153.5499999999999829
21
-82.1499999999999915
0
LINE
8
BLACK
6
CONTINUOUS
10
153.5499999999999829
20
-82.1499999999999915
11
152.0499999999999829
21
-82.1499999999999915
0
LINE
8
BLACK
6
CONTINUOUS
10
152.0499999999999829
20
-82.1499999999999915
11
151.9734629999999811
21
-82.1347760000000022
0
LINE
8
BLACK
6
CONTINUOUS
10
151.9734629999999811
20
-82.1347760000000022
11
151.9085790000000031
21
-82.0914209999999969
0
LINE
8
BLACK
6
CONTINUOUS
10
151.9085790000000031
20
-82.0914209999999969
11
151.8652239999999836
21
-82.0265369999999905
0
LINE
8
BLACK
6
CONTINUOUS
10
151.8652239999999836
20
-82.0265369999999905
11
151.8499999999999943
21
-81.9500000000000028
0
LINE
8
BLACK
6
CONTINUOUS
10
151.8499999999999943
20
-81.9500000000000028
11
151.8499999999999943
21
-81.5499999999999972
0
LINE
8
BLACK
6
CONTINUOUS
10
151.8499999999999943
20
-81.5499999999999972
11
151.8652239999999836
21
-81.4734629999999953
0
LINE
8
BLACK
6
CONTINUOUS
10
151.8652239999999836
20
-81.4734629999999953
11
151.9085790000000031
21
-81.4085790000000031
0
LINE
8
BLACK
6
CONTINUOUS
10
151.9085790000000031
20
-81.4085790000000031
11
151.9734629999999811
21
-81.3652239999999978
0
LINE
8
BLACK
6
CONTINUOUS
10
151.9734629999999811
20
-81.3652239999999978
11
152.0499999999999829
21
-81.3499999999999943
0
LINE
8
BLACK
6
CONTINUOUS
10
152.0499999999999829
20
-81.3499999999999943
11
153.5499999999999829
21
-81.3499999999999943
0
LINE
8
BLACK
6
CONTINUOUS
10
153.5499999999999829
20
-81.3499999999999943
11
153.6265369999999848
21
-81.3652239999999978
0
LINE
8
BLACK
6
CONTINUOUS
10
156.6265369999999848
20
-80.4152239999999949
11
156.6914209999999912
21
-80.4585790000000003
0
LINE
8
BLACK
6
CONTINUOUS
10
156.6914209999999912
20
-80.4585790000000003
11
156.7347759999999823
21
-80.5234629999999925
0
LINE
8
BLACK
6
CONTINUOUS
10
156.7347759999999823
20
-80.5234629999999925
11
156.75
21
-80.5999999999999943
0
LINE
8
BLACK
6
CONTINUOUS
10
156.75
20
-80.5999999999999943
11
156.75
21
-81.
0
LINE
8
BLACK
6
CONTINUOUS
10
156.75
20
-81.
11
156.7347759999999823
21
-81.0765370000000019
0
LINE
8
BLACK
6
CONTINUOUS
10
156.7347759999999823
20
-81.0765370000000019
11
156.6914209999999912
21
-81.141420999999994
0
LINE
8
BLACK
6
CONTINUOUS
10
156.6914209999999912
20
-81.141420999999994
11
156.6265369999999848
21
-81.1847759999999994
0
LINE
8
BLACK
6
CONTINUOUS
10
156.6265369999999848
20
-81.1847759999999994
11
156.5499999999999829
21
-81.2000000000000028
0
LINE
8
BLACK
6
CONTINUOUS
10
156.5499999999999829
20
-81.2000000000000028
11
155.0499999999999829
21
-81.2000000000000028
0
LINE
8
BLACK
6
CONTINUOUS
10
155.0499999999999829
20
-81.2000000000000028
11
154.9734629999999811
21
-81.1847759999999994
0
LINE
8
BLACK
6
CONTINUOUS
10
154.9734629999999811
20
-81.1847759999999994
11
154.9085790000000031
21
-81.141420999999994
0
LINE
8
BLACK
6
CONTINUOUS
10
154.9085790000000031
20
-81.141420999999994
11
154.8652239999999836
21
-81.0765370000000019
0
LINE
8
BLACK
6
CONTINUOUS
10
154.8652239999999836
20
-81.0765370000000019
11
154.8499999999999943
21
-81.
0
LINE
8
BLACK
6
CONTINUOUS
10
154.8499999999999943
20
-81.
11
154.8499999999999943
21
-80.5999999999999943
0
LINE
8
BLACK
6
CONTINUOUS
10
154.8499999999999943
20
-80.5999999999999943
11
154.8652239999999836
21
-80.5234629999999925
0
LINE
8
BLACK
6
CONTINUOUS
10
154.8652239999999836
20
-80.5234629999999925
11
154.9085790000000031
21
-80.4585790000000003
0
LINE
8
BLACK
6
CONTINUOUS
10
154.9085790000000031
20
-80.4585790000000003
11
154.9734629999999811
21
-80.4152239999999949
0
LINE
8
BLACK
6
CONTINUOUS
10
154.9734629999999811
20
-80.4152239999999949
11
155.0499999999999829
21
-80.3999999999999915
0
LINE
8
BLACK
6
CONTINUOUS
10
155.0499999999999829
20
-80.3999999999999915
11
156.5499999999999829
21
-80.3999999999999915
0
LINE
8
BLACK
6
CONTINUOUS
10
156.5499999999999829
20
-80.3999999999999915
11
156.6265369999999848
21
-80.4152239999999949
0
LINE
8
BLACK
6
CONTINUOUS
10
134.4220990000000029
20
-80.1652239999999949
11
134.4869829999999808
21
-80.2085790000000003
0
LINE
8
BLACK
6
CONTINUOUS
10
134.4869829999999808
20
-80.2085790000000003
11
134.5303380000000004
21
-80.2734629999999925
0
LINE
8
BLACK
6
CONTINUOUS
10
134.5303380000000004
20
-80.2734629999999925
11
134.5455619999999897
21
-80.3499999999999943
0
LINE
8
BLACK
6
CONTINUOUS
10
134.5455619999999897
20
-80.3499999999999943
11
134.5455619999999897
21
-80.75
0
LINE
8
BLACK
6
CONTINUOUS
10
134.5455619999999897
20
-80.75
11
134.5303380000000004
21
-80.8265370000000019
0
LINE
8
BLACK
6
CONTINUOUS
10
134.5303380000000004
20
-80.8265370000000019
11
134.4869829999999808
21
-80.891420999999994
0
LINE
8
BLACK
6
CONTINUOUS
10
134.4869829999999808
20
-80.891420999999994
11
134.4220990000000029
21
-80.9347759999999994
0
LINE
8
BLACK
6
CONTINUOUS
10
134.4220990000000029
20
-80.9347759999999994
11
134.345562000000001
21
-80.9500000000000028
0
LINE
8
BLACK
6
CONTINUOUS
10
134.345562000000001
20
-80.9500000000000028
11
132.845562000000001
21
-80.9500000000000028
0
LINE
8
BLACK
6
CONTINUOUS
10
132.845562000000001
20
-80.9500000000000028
11
132.7690249999999992
21
-80.9347759999999994
0
LINE
8
BLACK
6
CONTINUOUS
10
132.7690249999999992
20
-80.9347759999999994
11
132.7041409999999928
21
-80.891420999999994
0
LINE
8
BLACK
6
CONTINUOUS
10
132.7041409999999928
20
-80.891420999999994
11
132.6607860000000016
21
-80.8265370000000019
0
LINE
8
BLACK
6
CONTINUOUS
10
132.6607860000000016
20
-80.8265370000000019
11
132.645561999999984
21
-80.75
0
LINE
8
BLACK
6
CONTINUOUS
10
132.645561999999984
20
-80.75
11
132.645561999999984
21
-80.3499999999999943
0
LINE
8
BLACK
6
CONTINUOUS
10
132.645561999999984
20
-80.3499999999999943
11
132.6607860000000016
21
-80.2734629999999925
0
LINE
8
BLACK
6
CONTINUOUS
10
132.6607860000000016
20
-80.2734629999999925
11
132.7041409999999928
21
-80.2085790000000003
0
LINE
8
BLACK
6
CONTINUOUS
10
132.7041409999999928
20
-80.2085790000000003
11
132.7690249999999992
21
-80.1652239999999949
0
LINE
8
BLACK
6
CONTINUOUS
10
132.7690249999999992
20
-80.1652239999999949
11
132.845562000000001
21
-80.1499999999999915
0
LINE
8
BLACK
6
CONTINUOUS
10
132.845562000000001
20
-80.1499999999999915
11
134.345562000000001
21
-80.1499999999999915
0
LINE
8
BLACK
6
CONTINUOUS
10
134.345562000000001
20
-80.1499999999999915
11
134.4220990000000029
21
-80.1652239999999949
0
LINE
8
BLACK
6
CONTINUOUS
10
140.145670999999993
20
-79.0190300000000008
11
140.2267769999999985
21
-79.0732229999999987
0
LINE
8
BLACK
6
CONTINUOUS
10
140.2267769999999985
20
-79.0732229999999987
11
140.2809699999999964
21
-79.1543289999999899
0
LINE
8
BLACK
6
CONTINUOUS
10
140.2809699999999964
20
-79.1543289999999899
11
140.2999999999999829
21
-79.25
0
LINE
8
BLACK
6
CONTINUOUS
10
140.2999999999999829
20
-79.25
11
140.2999999999999829
21
-80.1499999999999915
0
LINE
8
BLACK
6
CONTINUOUS
10
140.2999999999999829
20
-80.1499999999999915
11
140.2809699999999964
21
-80.2456710000000015
0
LINE
8
BLACK
6
CONTINUOUS
10
140.2809699999999964
20
-80.2456710000000015
11
140.2267769999999985
21
-80.3267769999999928
0
LINE
8
BLACK
6
CONTINUOUS
10
140.2267769999999985
20
-80.3267769999999928
11
140.145670999999993
21
-80.3809699999999907
0
LINE
8
BLACK
6
CONTINUOUS
10
140.145670999999993
20
-80.3809699999999907
11
140.0499999999999829
21
-80.3999999999999915
0
LINE
8
BLACK
6
CONTINUOUS
10
140.0499999999999829
20
-80.3999999999999915
11
139.3499999999999943
21
-80.3999999999999915
0
LINE
8
BLACK
6
CONTINUOUS
10
139.3499999999999943
20
-80.3999999999999915
11
139.2543289999999843
21
-80.3809699999999907
0
LINE
8
BLACK
6
CONTINUOUS
10
139.2543289999999843
20
-80.3809699999999907
11
139.1732230000000072
21
-80.3267769999999928
0
LINE
8
BLACK
6
CONTINUOUS
10
139.1732230000000072
20
-80.3267769999999928
11
139.1190299999999809
21
-80.2456710000000015
0
LINE
8
BLACK
6
CONTINUOUS
10
139.1190299999999809
20
-80.2456710000000015
11
139.0999999999999943
21
-80.1499999999999915
0
LINE
8
BLACK
6
CONTINUOUS
10
139.0999999999999943
20
-80.1499999999999915
11
139.0999999999999943
21
-79.25
0
LINE
8
BLACK
6
CONTINUOUS
10
139.0999999999999943
20
-79.25
11
139.1190299999999809
21
-79.1543289999999899
0
LINE
8
BLACK
6
CONTINUOUS
10
139.1190299999999809
20
-79.1543289999999899
11
139.1732230000000072
21
-79.0732229999999987
0
LINE
8
BLACK
6
CONTINUOUS
10
139.1732230000000072
20
-79.0732229999999987
11
139.2543289999999843
21
-79.0190300000000008
0
LINE
8
BLACK
6
CONTINUOUS
10
139.2543289999999843
20
-79.0190300000000008
11
139.3499999999999943
21
-79.
0
LINE
8
BLACK
6
CONTINUOUS
10
139.3499999999999943
20
-79.
11
140.0499999999999829
21
-79.
0
LINE
8
BLACK
6
CONTINUOUS
10
140.0499999999999829
20
-79.
11
140.145670999999993
21
-79.0190300000000008
0
LINE
8
BLACK
6
CONTINUOUS
10
142.145670999999993
20
-79.0190300000000008
11
142.2267769999999985
21
-79.0732229999999987
0
LINE
8
BLACK
6
CONTINUOUS
10
142.2267769999999985
20
-79.0732229999999987
11
142.2809699999999964
21
-79.1543289999999899
0
LINE
8
BLACK
6
CONTINUOUS
10
142.2809699999999964
20
-79.1543289999999899
11
142.2999999999999829
21
-79.25
0
LINE
8
BLACK
6
CONTINUOUS
10
142.2999999999999829
20
-79.25
11
142.2999999999999829
21
-80.1499999999999915
0
LINE
8
BLACK
6
CONTINUOUS
10
142.2999999999999829
20
-80.1499999999999915
11
142.2809699999999964
21
-80.2456710000000015
0
LINE
8
BLACK
6
CONTINUOUS
10
142.2809699999999964
20
-80.2456710000000015
11
142.2267769999999985
21
-80.3267769999999928
0
LINE
8
BLACK
6
CONTINUOUS
10
142.2267769999999985
20
-80.3267769999999928
11
142.145670999999993
21
-80.3809699999999907
0
LINE
8
BLACK
6
CONTINUOUS
10
142.145670999999993
20
-80.3809699999999907
11
142.0499999999999829
21
-80.3999999999999915
0
LINE
8
BLACK
6
CONTINUOUS
10
142.0499999999999829
20
-80.3999999999999915
11
141.3499999999999943
21
-80.3999999999999915
0
LINE
8
BLACK
6
CONTINUOUS
10
141.3499999999999943
20
-80.3999999999999915
11
141.2543289999999843
21
-80.3809699999999907
0
LINE
8
BLACK
6
CONTINUOUS
10
141.2543289999999843
20
-80.3809699999999907
11
141.1732230000000072
21
-80.3267769999999928
0
LINE
8
BLACK
6
CONTINUOUS
10
141.1732230000000072
20
-80.3267769999999928
11
141.1190299999999809
21
-80.2456710000000015
0
LINE
8
BLACK
6
CONTINUOUS
10
141.1190299999999809
20
-80.2456710000000015
11
141.0999999999999943
21
-80.1499999999999915
0
LINE
8
BLACK
6
CONTINUOUS
10
141.0999999999999943
20
-80.1499999999999915
11
141.0999999999999943
21
-79.25
0
LINE
8
BLACK
6
CONTINUOUS
10
141.0999999999999943
20
-79.25
11
141.1190299999999809
21
-79.1543289999999899
0
LINE
8
BLACK
6
CONTINUOUS
10
141.1190299999999809
20
-79.1543289999999899
11
141.1732230000000072
21
-79.0732229999999987
0
LINE
8
BLACK
6
CONTINUOUS
10
141.1732230000000072
20
-79.0732229999999987
11
141.2543289999999843
21
-79.0190300000000008
0
LINE
8
BLACK
6
CONTINUOUS
10
141.2543289999999843
20
-79.0190300000000008
11
141.3499999999999943
21
-79.
0
LINE
8
BLACK
6
CONTINUOUS
10
141.3499999999999943
20
-79.
11
142.0499999999999829
21
-79.
0
LINE
8
BLACK
6
CONTINUOUS
10
142.0499999999999829
20
-79.
11
142.145670999999993
21
-79.0190300000000008
0
LINE
8
BLACK
6
CONTINUOUS
10
148.145670999999993
20
-79.2190299999999894
11
148.2267769999999985
21
-79.2732230000000015
0
LINE
8
BLACK
6
CONTINUOUS
10
148.2267769999999985
20
-79.2732230000000015
11
148.2809699999999964
21
-79.3543289999999928
0
LINE
8
BLACK
6
CONTINUOUS
10
148.2809699999999964
20
-79.3543289999999928
11
148.2999999999999829
21
-79.4500000000000028
0
LINE
8
BLACK
6
CONTINUOUS
10
148.2999999999999829
20
-79.4500000000000028
11
148.2999999999999829
21
-80.1499999999999915
0
LINE
8
BLACK
6
CONTINUOUS
10
148.2999999999999829
20
-80.1499999999999915
11
148.2809699999999964
21
-80.2456710000000015
0
LINE
8
BLACK
6
CONTINUOUS
10
148.2809699999999964
20
-80.2456710000000015
11
148.2267769999999985
21
-80.3267769999999928
0
LINE
8
BLACK
6
CONTINUOUS
10
148.2267769999999985
20
-80.3267769999999928
11
148.145670999999993
21
-80.3809699999999907
0
LINE
8
BLACK
6
CONTINUOUS
10
148.145670999999993
20
-80.3809699999999907
11
148.0499999999999829
21
-80.3999999999999915
0
LINE
8
BLACK
6
CONTINUOUS
10
148.0499999999999829
20
-80.3999999999999915
11
147.1500000000000057
21
-80.3999999999999915
0
LINE
8
BLACK
6
CONTINUOUS
10
147.1500000000000057
20
-80.3999999999999915
11
147.0543289999999956
21
-80.3809699999999907
0
LINE
8
BLACK
6
CONTINUOUS
10
147.0543289999999956
20
-80.3809699999999907
11
146.9732229999999902
21
-80.3267769999999928
0
LINE
8
BLACK
6
CONTINUOUS
10
146.9732229999999902
20
-80.3267769999999928
11
146.9190299999999922
21
-80.2456710000000015
0
LINE
8
BLACK
6
CONTINUOUS
10
146.9190299999999922
20
-80.2456710000000015
11
146.9000000000000057
21
-80.1499999999999915
0
LINE
8
BLACK
6
CONTINUOUS
10
146.9000000000000057
20
-80.1499999999999915
11
146.9000000000000057
21
-79.4500000000000028
0
LINE
8
BLACK
6
CONTINUOUS
10
146.9000000000000057
20
-79.4500000000000028
11
146.9190299999999922
21
-79.3543289999999928
0
LINE
8
BLACK
6
CONTINUOUS
10
146.9190299999999922
20
-79.3543289999999928
11
146.9732229999999902
21
-79.2732230000000015
0
LINE
8
BLACK
6
CONTINUOUS
10
146.9732229999999902
20
-79.2732230000000015
11
147.0543289999999956
21
-79.2190299999999894
0
LINE
8
BLACK
6
CONTINUOUS
10
147.0543289999999956
20
-79.2190299999999894
11
147.1500000000000057
21
-79.2000000000000028
0
LINE
8
BLACK
6
CONTINUOUS
10
147.1500000000000057
20
-79.2000000000000028
11
148.0499999999999829
21
-79.2000000000000028
0
LINE
8
BLACK
6
CONTINUOUS
10
148.0499999999999829
20
-79.2000000000000028
11
148.145670999999993
21
-79.2190299999999894
0
LINE
8
BLACK
6
CONTINUOUS
10
150.145670999999993
20
-79.2190299999999894
11
150.2267769999999985
21
-79.2732230000000015
0
LINE
8
BLACK
6
CONTINUOUS
10
150.2267769999999985
20
-79.2732230000000015
11
150.2809699999999964
21
-79.3543289999999928
0
LINE
8
BLACK
6
CONTINUOUS
10
150.2809699999999964
20
-79.3543289999999928
11
150.2999999999999829
21
-79.4500000000000028
0
LINE
8
BLACK
6
CONTINUOUS
10
150.2999999999999829
20
-79.4500000000000028
11
150.2999999999999829
21
-80.1499999999999915
0
LINE
8
BLACK
6
CONTINUOUS
10
150.2999999999999829
20
-80.1499999999999915
11
150.2809699999999964
21
-80.2456710000000015
0
LINE
8
BLACK
6
CONTINUOUS
10
150.2809699999999964
20
-80.2456710000000015
11
150.2267769999999985
21
-80.3267769999999928
0
LINE
8
BLACK
6
CONTINUOUS
10
150.2267769999999985
20
-80.3267769999999928
11
150.145670999999993
21
-80.3809699999999907
0
LINE
8
BLACK
6
CONTINUOUS
10
150.145670999999993
20
-80.3809699999999907
11
150.0499999999999829
21
-80.3999999999999915
0
LINE
8
BLACK
6
CONTINUOUS
10
150.0499999999999829
20
-80.3999999999999915
11
149.1500000000000057
21
-80.3999999999999915
0
LINE
8
BLACK
6
CONTINUOUS
10
149.1500000000000057
20
-80.3999999999999915
11
149.0543289999999956
21
-80.3809699999999907
0
LINE
8
BLACK
6
CONTINUOUS
10
149.0543289999999956
20
-80.3809699999999907
11
148.9732229999999902
21
-80.3267769999999928
0
LINE
8
BLACK
6
CONTINUOUS
10
148.9732229999999902
20
-80.3267769999999928
11
148.9190299999999922
21
-80.2456710000000015
0
LINE
8
BLACK
6
CONTINUOUS
10
148.9190299999999922
20
-80.2456710000000015
11
148.9000000000000057
21
-80.1499999999999915
0
LINE
8
BLACK
6
CONTINUOUS
10
148.9000000000000057
20
-80.1499999999999915
11
148.9000000000000057
21
-79.4500000000000028
0
LINE
8
BLACK
6
CONTINUOUS
10
148.9000000000000057
20
-79.4500000000000028
11
148.9190299999999922
21
-79.3543289999999928
0
LINE
8
BLACK
6
CONTINUOUS
10
148.9190299999999922
20
-79.3543289999999928
11
148.9732229999999902
21
-79.2732230000000015
0
LINE
8
BLACK
6
CONTINUOUS
10
148.9732229999999902
20
-79.2732230000000015
11
149.0543289999999956
21
-79.2190299999999894
0
LINE
8
BLACK
6
CONTINUOUS
10
149.0543289999999956
20
-79.2190299999999894
11
149.1500000000000057
21
-79.2000000000000028
0
LINE
8
BLACK
6
CONTINUOUS
10
149.1500000000000057
20
-79.2000000000000028
11
150.0499999999999829
21
-79.2000000000000028
0
LINE
8
BLACK
6
CONTINUOUS
10
150.0499999999999829
20
-79.2000000000000028
11
150.145670999999993
21
-79.2190299999999894
0
LINE
8
BLACK
6
CONTINUOUS
10
153.6265369999999848
20
-79.4652239999999921
11
153.6914209999999912
21
-79.5085789999999974
0
LINE
8
BLACK
6
CONTINUOUS
10
153.6914209999999912
20
-79.5085789999999974
11
153.7347759999999823
21
-79.5734629999999896
0
LINE
8
BLACK
6
CONTINUOUS
10
153.7347759999999823
20
-79.5734629999999896
11
153.75
21
-79.6499999999999915
0
LINE
8
BLACK
6
CONTINUOUS
10
153.75
20
-79.6499999999999915
11
153.75
21
-80.0499999999999972
0
LINE
8
BLACK
6
CONTINUOUS
10
153.75
20
-80.0499999999999972
11
153.7347759999999823
21
-80.126536999999999
0
LINE
8
BLACK
6
CONTINUOUS
10
153.7347759999999823
20
-80.126536999999999
11
153.6914209999999912
21
-80.1914209999999912
0
LINE
8
BLACK
6
CONTINUOUS
10
153.6914209999999912
20
-80.1914209999999912
11
153.6265369999999848
21
-80.2347759999999965
0
LINE
8
BLACK
6
CONTINUOUS
10
153.6265369999999848
20
-80.2347759999999965
11
153.5499999999999829
21
-80.25
0
LINE
8
BLACK
6
CONTINUOUS
10
153.5499999999999829
20
-80.25
11
152.0499999999999829
21
-80.25
0
LINE
8
BLACK
6
CONTINUOUS
10
152.0499999999999829
20
-80.25
11
151.9734629999999811
21
-80.2347759999999965
0
LINE
8
BLACK
6
CONTINUOUS
10
151.9734629999999811
20
-80.2347759999999965
11
151.9085790000000031
21
-80.1914209999999912
0
LINE
8
BLACK
6
CONTINUOUS
10
151.9085790000000031
20
-80.1914209999999912
11
151.8652239999999836
21
-80.126536999999999
0
LINE
8
BLACK
6
CONTINUOUS
10
151.8652239999999836
20
-80.126536999999999
11
151.8499999999999943
21
-80.0499999999999972
0
LINE
8
BLACK
6
CONTINUOUS
10
151.8499999999999943
20
-80.0499999999999972
11
151.8499999999999943
21
-79.6499999999999915
0
LINE
8
BLACK
6
CONTINUOUS
10
151.8499999999999943
20
-79.6499999999999915
11
151.8652239999999836
21
-79.5734629999999896
0
LINE
8
BLACK
6
CONTINUOUS
10
151.8652239999999836
20
-79.5734629999999896
11
151.9085790000000031
21
-79.5085789999999974
0
LINE
8
BLACK
6
CONTINUOUS
10
151.9085790000000031
20
-79.5085789999999974
11
151.9734629999999811
21
-79.4652239999999921
0
LINE
8
BLACK
6
CONTINUOUS
10
151.9734629999999811
20
-79.4652239999999921
11
152.0499999999999829
21
-79.4500000000000028
0
LINE
8
BLACK
6
CONTINUOUS
10
152.0499999999999829
20
-79.4500000000000028
11
153.5499999999999829
21
-79.4500000000000028
0
LINE
8
BLACK
6
CONTINUOUS
10
153.5499999999999829
20
-79.4500000000000028
11
153.6265369999999848
21
-79.4652239999999921
0
LINE
8
BLACK
6
CONTINUOUS
10
137.4220990000000029
20
-79.2152239999999921
11
137.4869829999999808
21
-79.2585789999999974
0
LINE
8
BLACK
6
CONTINUOUS
10
137.4869829999999808
20
-79.2585789999999974
11
137.5303380000000004
21
-79.3234629999999896
0
LINE
8
BLACK
6
CONTINUOUS
10
137.5303380000000004
20
-79.3234629999999896
11
137.5455619999999897
21
-79.3999999999999915
0
LINE
8
BLACK
6
CONTINUOUS
10
137.5455619999999897
20
-79.3999999999999915
11
137.5455619999999897
21
-79.7999999999999972
0
LINE
8
BLACK
6
CONTINUOUS
10
137.5455619999999897
20
-79.7999999999999972
11
137.5303380000000004
21
-79.876536999999999
0
LINE
8
BLACK
6
CONTINUOUS
10
137.5303380000000004
20
-79.876536999999999
11
137.4869829999999808
21
-79.9414209999999912
0
LINE
8
BLACK
6
CONTINUOUS
10
137.4869829999999808
20
-79.9414209999999912
11
137.4220990000000029
21
-79.9847759999999965
0
LINE
8
BLACK
6
CONTINUOUS
10
137.4220990000000029
20
-79.9847759999999965
11
137.345562000000001
21
-80.
0
LINE
8
BLACK
6
CONTINUOUS
10
137.345562000000001
20
-80.
11
135.845562000000001
21
-80.
0
LINE
8
BLACK
6
CONTINUOUS
10
135.845562000000001
20
-80.
11
135.7690249999999992
21
-79.9847759999999965
0
LINE
8
BLACK
6
CONTINUOUS
10
135.7690249999999992
20
-79.9847759999999965
11
135.7041409999999928
21
-79.9414209999999912
0
LINE
8
BLACK
6
CONTINUOUS
10
135.7041409999999928
20
-79.9414209999999912
11
135.6607860000000016
21
-79.876536999999999
0
LINE
8
BLACK
6
CONTINUOUS
10
135.6607860000000016
20
-79.876536999999999
11
135.645561999999984
21
-79.7999999999999972
0
LINE
8
BLACK
6
CONTINUOUS
10
135.645561999999984
20
-79.7999999999999972
11
135.645561999999984
21
-79.3999999999999915
0
LINE
8
BLACK
6
CONTINUOUS
10
135.645561999999984
20
-79.3999999999999915
11
135.6607860000000016
21
-79.3234629999999896
0
LINE
8
BLACK
6
CONTINUOUS
10
135.6607860000000016
20
-79.3234629999999896
11
135.7041409999999928
21
-79.2585789999999974
0
LINE
8
BLACK
6
CONTINUOUS
10
135.7041409999999928
20
-79.2585789999999974
11
135.7690249999999992
21
-79.2152239999999921
0
LINE
8
BLACK
6
CONTINUOUS
10
135.7690249999999992
20
-79.2152239999999921
11
135.845562000000001
21
-79.2000000000000028
0
LINE
8
BLACK
6
CONTINUOUS
10
135.845562000000001
20
-79.2000000000000028
11
137.345562000000001
21
-79.2000000000000028
0
LINE
8
BLACK
6
CONTINUOUS
10
137.345562000000001
20
-79.2000000000000028
11
137.4220990000000029
21
-79.2152239999999921
0
LINE
8
BLACK
6
CONTINUOUS
10
129.645670999999993
20
-77.7190299999999894
11
129.7267769999999985
21
-77.7732230000000015
0
LINE
8
BLACK
6
CONTINUOUS
10
129.7267769999999985
20
-77.7732230000000015
11
129.7809699999999964
21
-77.8543289999999928
0
LINE
8
BLACK
6
CONTINUOUS
10
129.7809699999999964
20
-77.8543289999999928
11
129.7999999999999829
21
-77.9500000000000028
0
LINE
8
BLACK
6
CONTINUOUS
10
129.7999999999999829
20
-77.9500000000000028
11
129.7999999999999829
21
-78.8499999999999943
0
LINE
8
BLACK
6
CONTINUOUS
10
129.7999999999999829
20
-78.8499999999999943
11
129.7809699999999964
21
-78.9456709999999902
0
LINE
8
BLACK
6
CONTINUOUS
10
129.7809699999999964
20
-78.9456709999999902
11
129.7267769999999985
21
-79.0267769999999956
0
LINE
8
BLACK
6
CONTINUOUS
10
129.7267769999999985
20
-79.0267769999999956
11
129.645670999999993
21
-79.0809699999999935
0
LINE
8
BLACK
6
CONTINUOUS
10
129.645670999999993
20
-79.0809699999999935
11
129.5499999999999829
21
-79.0999999999999943
0
LINE
8
BLACK
6
CONTINUOUS
10
129.5499999999999829
20
-79.0999999999999943
11
128.8499999999999943
21
-79.0999999999999943
0
LINE
8
BLACK
6
CONTINUOUS
10
128.8499999999999943
20
-79.0999999999999943
11
128.7543289999999843
21
-79.0809699999999935
0
LINE
8
BLACK
6
CONTINUOUS
10
128.7543289999999843
20
-79.0809699999999935
11
128.6732230000000072
21
-79.0267769999999956
0
LINE
8
BLACK
6
CONTINUOUS
10
128.6732230000000072
20
-79.0267769999999956
11
128.6190299999999809
21
-78.9456709999999902
0
LINE
8
BLACK
6
CONTINUOUS
10
128.6190299999999809
20
-78.9456709999999902
11
128.5999999999999943
21
-78.8499999999999943
0
LINE
8
BLACK
6
CONTINUOUS
10
128.5999999999999943
20
-78.8499999999999943
11
128.5999999999999943
21
-77.9500000000000028
0
LINE
8
BLACK
6
CONTINUOUS
10
128.5999999999999943
20
-77.9500000000000028
11
128.6190299999999809
21
-77.8543289999999928
0
LINE
8
BLACK
6
CONTINUOUS
10
128.6190299999999809
20
-77.8543289999999928
11
128.6732230000000072
21
-77.7732230000000015
0
LINE
8
BLACK
6
CONTINUOUS
10
128.6732230000000072
20
-77.7732230000000015
11
128.7543289999999843
21
-77.7190299999999894
0
LINE
8
BLACK
6
CONTINUOUS
10
128.7543289999999843
20
-77.7190299999999894
11
128.8499999999999943
21
-77.7000000000000028
0
LINE
8
BLACK
6
CONTINUOUS
10
128.8499999999999943
20
-77.7000000000000028
11
129.5499999999999829
21
-77.7000000000000028
0
LINE
8
BLACK
6
CONTINUOUS
10
129.5499999999999829
20
-77.7000000000000028
11
129.645670999999993
21
-77.7190299999999894
0
LINE
8
BLACK
6
CONTINUOUS
10
131.645670999999993
20
-77.7190299999999894
11
131.7267769999999985
21
-77.7732230000000015
0
LINE
8
BLACK
6
CONTINUOUS
10
131.7267769999999985
20
-77.7732230000000015
11
131.7809699999999964
21
-77.8543289999999928
0
LINE
8
BLACK
6
CONTINUOUS
10
131.7809699999999964
20
-77.8543289999999928
11
131.7999999999999829
21
-77.9500000000000028
0
LINE
8
BLACK
6
CONTINUOUS
10
131.7999999999999829
20
-77.9500000000000028
11
131.7999999999999829
21
-78.8499999999999943
0
LINE
8
BLACK
6
CONTINUOUS
10
131.7999999999999829
20
-78.8499999999999943
11
131.7809699999999964
21
-78.9456709999999902
0
LINE
8
BLACK
6
CONTINUOUS
10
131.7809699999999964
20
-78.9456709999999902
11
131.7267769999999985
21
-79.0267769999999956
0
LINE
8
BLACK
6
CONTINUOUS
10
131.7267769999999985
20
-79.0267769999999956
11
131.645670999999993
21
-79.0809699999999935
0
LINE
8
BLACK
6
CONTINUOUS
10
131.645670999999993
20
-79.0809699999999935
11
131.5499999999999829
21
-79.0999999999999943
0
LINE
8
BLACK
6
CONTINUOUS
10
131.5499999999999829
20
-79.0999999999999943
11
130.8499999999999943
21
-79.0999999999999943
0
LINE
8
BLACK
6
CONTINUOUS
10
130.8499999999999943
20
-79.0999999999999943
11
130.7543289999999843
21
-79.0809699999999935
0
LINE
8
BLACK
6
CONTINUOUS
10
130.7543289999999843
20
-79.0809699999999935
11
130.6732230000000072
21
-79.0267769999999956
0
LINE
8
BLACK
6
CONTINUOUS
10
130.6732230000000072
20
-79.0267769999999956
11
130.6190299999999809
21
-78.9456709999999902
0
LINE
8
BLACK
6
CONTINUOUS
10
130.6190299999999809
20
-78.9456709999999902
11
130.5999999999999943
21
-78.8499999999999943
0
LINE
8
BLACK
6
CONTINUOUS
10
130.5999999999999943
20
-78.8499999999999943
11
130.5999999999999943
21
-77.9500000000000028
0
LINE
8
BLACK
6
CONTINUOUS
10
130.5999999999999943
20
-77.9500000000000028
11
130.6190299999999809
21
-77.8543289999999928
0
LINE
8
BLACK
6
CONTINUOUS
10
130.6190299999999809
20
-77.8543289999999928
11
130.6732230000000072
21
-77.7732230000000015
0
LINE
8
BLACK
6
CONTINUOUS
10
130.6732230000000072
20
-77.7732230000000015
11
130.7543289999999843
21
-77.7190299999999894
0
LINE
8
BLACK
6
CONTINUOUS
10
130.7543289999999843
20
-77.7190299999999894
11
130.8499999999999943
21
-77.7000000000000028
0
LINE
8
BLACK
6
CONTINUOUS
10
130.8499999999999943
20
-77.7000000000000028
11
131.5499999999999829
21
-77.7000000000000028
0
LINE
8
BLACK
6
CONTINUOUS
10
131.5499999999999829
20
-77.7000000000000028
11
131.645670999999993
21
-77.7190299999999894
0
LINE
8
BLACK
6
CONTINUOUS
10
134.4220990000000029
20
-78.2652240000000035
11
134.4869829999999808
21
-78.3085789999999946
0
LINE
8
BLACK
6
CONTINUOUS
10
134.4869829999999808
20
-78.3085789999999946
11
134.5303380000000004
21
-78.373463000000001
0
LINE
8
BLACK
6
CONTINUOUS
10
134.5303380000000004
20
-78.373463000000001
11
134.5455619999999897
21
-78.4500000000000028
0
LINE
8
BLACK
6
CONTINUOUS
10
134.5455619999999897
20
-78.4500000000000028
11
134.5455619999999897
21
-78.8499999999999943
0
LINE
8
BLACK
6
CONTINUOUS
10
134.5455619999999897
20
-78.8499999999999943
11
134.5303380000000004
21
-78.9265369999999962
0
LINE
8
BLACK
6
CONTINUOUS
10
134.5303380000000004
20
-78.9265369999999962
11
134.4869829999999808
21
-78.9914210000000026
0
LINE
8
BLACK
6
CONTINUOUS
10
134.4869829999999808
20
-78.9914210000000026
11
134.4220990000000029
21
-79.0347759999999937
0
LINE
8
BLACK
6
CONTINUOUS
10
134.4220990000000029
20
-79.0347759999999937
11
134.345562000000001
21
-79.0499999999999972
0
LINE
8
BLACK
6
CONTINUOUS
10
134.345562000000001
20
-79.0499999999999972
11
132.845562000000001
21
-79.0499999999999972
0
LINE
8
BLACK
6
CONTINUOUS
10
132.845562000000001
20
-79.0499999999999972
11
132.7690249999999992
21
-79.0347759999999937
0
LINE
8
BLACK
6
CONTINUOUS
10
132.7690249999999992
20
-79.0347759999999937
11
132.7041409999999928
21
-78.9914210000000026
0
LINE
8
BLACK
6
CONTINUOUS
10
132.7041409999999928
20
-78.9914210000000026
11
132.6607860000000016
21
-78.9265369999999962
0
LINE
8
BLACK
6
CONTINUOUS
10
132.6607860000000016
20
-78.9265369999999962
11
132.645561999999984
21
-78.8499999999999943
0
LINE
8
BLACK
6
CONTINUOUS
10
132.645561999999984
20
-78.8499999999999943
11
132.645561999999984
21
-78.4500000000000028
0
LINE
8
BLACK
6
CONTINUOUS
10
132.645561999999984
20
-78.4500000000000028
11
132.6607860000000016
21
-78.373463000000001
0
LINE
8
BLACK
6
CONTINUOUS
10
132.6607860000000016
20
-78.373463000000001
11
132.7041409999999928
21
-78.3085789999999946
0
LINE
8
BLACK
6
CONTINUOUS
10
132.7041409999999928
20
-78.3085789999999946
11
132.7690249999999992
21
-78.2652240000000035
0
LINE
8
BLACK
6
CONTINUOUS
10
132.7690249999999992
20
-78.2652240000000035
11
132.845562000000001
21
-78.25
0
LINE
8
BLACK
6
CONTINUOUS
10
132.845562000000001
20
-78.25
11
134.345562000000001
21
-78.25
0
LINE
8
BLACK
6
CONTINUOUS
10
134.345562000000001
20
-78.25
11
134.4220990000000029
21
-78.2652240000000035
0
LINE
8
BLACK
6
CONTINUOUS
10
153.8265370000000019
20
-77.3652239999999978
11
153.8914209999999798
21
-77.4085790000000031
0
LINE
8
BLACK
6
CONTINUOUS
10
153.8914209999999798
20
-77.4085790000000031
11
153.9347759999999994
21
-77.4734629999999953
0
LINE
8
BLACK
6
CONTINUOUS
10
153.9347759999999994
20
-77.4734629999999953
11
153.9499999999999886
21
-77.5499999999999972
0
LINE
8
BLACK
6
CONTINUOUS
10
153.9499999999999886
20
-77.5499999999999972
11
153.9499999999999886
21
-77.9500000000000028
0
LINE
8
BLACK
6
CONTINUOUS
10
153.9499999999999886
20
-77.9500000000000028
11
153.9347759999999994
21
-78.0265369999999905
0
LINE
8
BLACK
6
CONTINUOUS
10
153.9347759999999994
20
-78.0265369999999905
11
153.8914209999999798
21
-78.0914209999999969
0
LINE
8
BLACK
6
CONTINUOUS
10
153.8914209999999798
20
-78.0914209999999969
11
153.8265370000000019
21
-78.1347760000000022
0
LINE
8
BLACK
6
CONTINUOUS
10
153.8265370000000019
20
-78.1347760000000022
11
153.75
21
-78.1499999999999915
0
LINE
8
BLACK
6
CONTINUOUS
10
153.75
20
-78.1499999999999915
11
152.25
21
-78.1499999999999915
0
LINE
8
BLACK
6
CONTINUOUS
10
152.25
20
-78.1499999999999915
11
152.1734629999999981
21
-78.1347760000000022
0
LINE
8
BLACK
6
CONTINUOUS
10
152.1734629999999981
20
-78.1347760000000022
11
152.1085789999999918
21
-78.0914209999999969
0
LINE
8
BLACK
6
CONTINUOUS
10
152.1085789999999918
20
-78.0914209999999969
11
152.0652240000000006
21
-78.0265369999999905
0
LINE
8
BLACK
6
CONTINUOUS
10
152.0652240000000006
20
-78.0265369999999905
11
152.0499999999999829
21
-77.9500000000000028
0
LINE
8
BLACK
6
CONTINUOUS
10
152.0499999999999829
20
-77.9500000000000028
11
152.0499999999999829
21
-77.5499999999999972
0
LINE
8
BLACK
6
CONTINUOUS
10
152.0499999999999829
20
-77.5499999999999972
11
152.0652240000000006
21
-77.4734629999999953
0
LINE
8
BLACK
6
CONTINUOUS
10
152.0652240000000006
20
-77.4734629999999953
11
152.1085789999999918
21
-77.4085790000000031
0
LINE
8
BLACK
6
CONTINUOUS
10
152.1085789999999918
20
-77.4085790000000031
11
152.1734629999999981
21
-77.3652239999999978
0
LINE
8
BLACK
6
CONTINUOUS
10
152.1734629999999981
20
-77.3652239999999978
11
152.25
21
-77.3499999999999943
0
LINE
8
BLACK
6
CONTINUOUS
10
152.25
20
-77.3499999999999943
11
153.75
21
-77.3499999999999943
0
LINE
8
BLACK
6
CONTINUOUS
10
153.75
20
-77.3499999999999943
11
153.8265370000000019
21
-77.3652239999999978
0
LINE
8
BLACK
6
CONTINUOUS
10
156.8265370000000019
20
-76.4152239999999949
11
156.8914209999999798
21
-76.4585790000000003
0
LINE
8
BLACK
6
CONTINUOUS
10
156.8914209999999798
20
-76.4585790000000003
11
156.9347759999999994
21
-76.5234629999999925
0
LINE
8
BLACK
6
CONTINUOUS
10
156.9347759999999994
20
-76.5234629999999925
11
156.9499999999999886
21
-76.5999999999999943
0
LINE
8
BLACK
6
CONTINUOUS
10
156.9499999999999886
20
-76.5999999999999943
11
156.9499999999999886
21
-77.
0
LINE
8
BLACK
6
CONTINUOUS
10
156.9499999999999886
20
-77.
11
156.9347759999999994
21
-77.0765370000000019
0
LINE
8
BLACK
6
CONTINUOUS
10
156.9347759999999994
20
-77.0765370000000019
11
156.8914209999999798
21
-77.141420999999994
0
LINE
8
BLACK
6
CONTINUOUS
10
156.8914209999999798
20
-77.141420999999994
11
156.8265370000000019
21
-77.1847759999999994
0
LINE
8
BLACK
6
CONTINUOUS
10
156.8265370000000019
20
-77.1847759999999994
11
156.75
21
-77.2000000000000028
0
LINE
8
BLACK
6
CONTINUOUS
10
156.75
20
-77.2000000000000028
11
155.25
21
-77.2000000000000028
0
LINE
8
BLACK
6
CONTINUOUS
10
155.25
20
-77.2000000000000028
11
155.1734629999999981
21
-77.1847759999999994
0
LINE
8
BLACK
6
CONTINUOUS
10
155.1734629999999981
20
-77.1847759999999994
11
155.1085789999999918
21
-77.141420999999994
0
LINE
8
BLACK
6
CONTINUOUS
10
155.1085789999999918
20
-77.141420999999994
11
155.0652240000000006
21
-77.0765370000000019
0
LINE
8
BLACK
6
CONTINUOUS
10
155.0652240000000006
20
-77.0765370000000019
11
155.0499999999999829
21
-77.
0
LINE
8
BLACK
6
CONTINUOUS
10
155.0499999999999829
20
-77.
11
155.0499999999999829
21
-76.5999999999999943
0
LINE
8
BLACK
6
CONTINUOUS
10
155.0499999999999829
20
-76.5999999999999943
11
155.0652240000000006
21
-76.5234629999999925
0
LINE
8
BLACK
6
CONTINUOUS
10
155.0652240000000006
20
-76.5234629999999925
11
155.1085789999999918
21
-76.4585790000000003
0
LINE
8
BLACK
6
CONTINUOUS
10
155.1085789999999918
20
-76.4585790000000003
11
155.1734629999999981
21
-76.4152239999999949
0
LINE
8
BLACK
6
CONTINUOUS
10
155.1734629999999981
20
-76.4152239999999949
11
155.25
21
-76.3999999999999915
0
LINE
8
BLACK
6
CONTINUOUS
10
155.25
20
-76.3999999999999915
11
156.75
21
-76.3999999999999915
0
LINE
8
BLACK
6
CONTINUOUS
10
156.75
20
-76.3999999999999915
11
156.8265370000000019
21
-76.4152239999999949
0
LINE
8
BLACK
6
CONTINUOUS
10
134.3265370000000019
20
-75.8652239999999978
11
134.3914209999999798
21
-75.9085790000000031
0
LINE
8
BLACK
6
CONTINUOUS
10
134.3914209999999798
20
-75.9085790000000031
11
134.4347759999999994
21
-75.9734629999999953
0
LINE
8
BLACK
6
CONTINUOUS
10
134.4347759999999994
20
-75.9734629999999953
11
134.4499999999999886
21
-76.0499999999999972
0
LINE
8
BLACK
6
CONTINUOUS
10
134.4499999999999886
20
-76.0499999999999972
11
134.4499999999999886
21
-76.4500000000000028
0
LINE
8
BLACK
6
CONTINUOUS
10
134.4499999999999886
20
-76.4500000000000028
11
134.4347759999999994
21
-76.5265369999999905
0
LINE
8
BLACK
6
CONTINUOUS
10
134.4347759999999994
20
-76.5265369999999905
11
134.3914209999999798
21
-76.5914209999999969
0
LINE
8
BLACK
6
CONTINUOUS
10
134.3914209999999798
20
-76.5914209999999969
11
134.3265370000000019
21
-76.6347760000000022
0
LINE
8
BLACK
6
CONTINUOUS
10
134.3265370000000019
20
-76.6347760000000022
11
134.25
21
-76.6499999999999915
0
LINE
8
BLACK
6
CONTINUOUS
10
134.25
20
-76.6499999999999915
11
132.75
21
-76.6499999999999915
0
LINE
8
BLACK
6
CONTINUOUS
10
132.75
20
-76.6499999999999915
11
132.6734629999999981
21
-76.6347760000000022
0
LINE
8
BLACK
6
CONTINUOUS
10
132.6734629999999981
20
-76.6347760000000022
11
132.6085789999999918
21
-76.5914209999999969
0
LINE
8
BLACK
6
CONTINUOUS
10
132.6085789999999918
20
-76.5914209999999969
11
132.5652240000000006
21
-76.5265369999999905
0
LINE
8
BLACK
6
CONTINUOUS
10
132.5652240000000006
20
-76.5265369999999905
11
132.5499999999999829
21
-76.4500000000000028
0
LINE
8
BLACK
6
CONTINUOUS
10
132.5499999999999829
20
-76.4500000000000028
11
132.5499999999999829
21
-76.0499999999999972
0
LINE
8
BLACK
6
CONTINUOUS
10
132.5499999999999829
20
-76.0499999999999972
11
132.5652240000000006
21
-75.9734629999999953
0
LINE
8
BLACK
6
CONTINUOUS
10
132.5652240000000006
20
-75.9734629999999953
11
132.6085789999999918
21
-75.9085790000000031
0
LINE
8
BLACK
6
CONTINUOUS
10
132.6085789999999918
20
-75.9085790000000031
11
132.6734629999999981
21
-75.8652239999999978
0
LINE
8
BLACK
6
CONTINUOUS
10
132.6734629999999981
20
-75.8652239999999978
11
132.75
21
-75.8499999999999943
0
LINE
8
BLACK
6
CONTINUOUS
10
132.75
20
-75.8499999999999943
11
134.25
21
-75.8499999999999943
0
LINE
8
BLACK
6
CONTINUOUS
10
134.25
20
-75.8499999999999943
11
134.3265370000000019
21
-75.8652239999999978
0
LINE
8
BLACK
6
CONTINUOUS
10
131.2456709999999873
20
-75.2190300000000036
11
131.3267769999999928
21
-75.2732230000000015
0
LINE
8
BLACK
6
CONTINUOUS
10
131.3267769999999928
20
-75.2732230000000015
11
131.3809699999999907
21
-75.3543289999999928
0
LINE
8
BLACK
6
CONTINUOUS
10
131.3809699999999907
20
-75.3543289999999928
11
131.4000000000000057
21
-75.4500000000000028
0
LINE
8
BLACK
6
CONTINUOUS
10
131.4000000000000057
20
-75.4500000000000028
11
131.4000000000000057
21
-76.1499999999999915
0
LINE
8
BLACK
6
CONTINUOUS
10
131.4000000000000057
20
-76.1499999999999915
11
131.3809699999999907
21
-76.2456710000000015
0
LINE
8
BLACK
6
CONTINUOUS
10
131.3809699999999907
20
-76.2456710000000015
11
131.3267769999999928
21
-76.3267769999999928
0
LINE
8
BLACK
6
CONTINUOUS
10
131.3267769999999928
20
-76.3267769999999928
11
131.2456709999999873
21
-76.3809699999999907
0
LINE
8
BLACK
6
CONTINUOUS
10
131.2456709999999873
20
-76.3809699999999907
11
131.1500000000000057
21
-76.3999999999999915
0
LINE
8
BLACK
6
CONTINUOUS
10
131.1500000000000057
20
-76.3999999999999915
11
130.25
21
-76.3999999999999915
0
LINE
8
BLACK
6
CONTINUOUS
10
130.25
20
-76.3999999999999915
11
130.1543289999999899
21
-76.3809699999999907
0
LINE
8
BLACK
6
CONTINUOUS
10
130.1543289999999899
20
-76.3809699999999907
11
130.0732229999999845
21
-76.3267769999999928
0
LINE
8
BLACK
6
CONTINUOUS
10
130.0732229999999845
20
-76.3267769999999928
11
130.0190299999999866
21
-76.2456710000000015
0
LINE
8
BLACK
6
CONTINUOUS
10
130.0190299999999866
20
-76.2456710000000015
11
130.
21
-76.1499999999999915
0
LINE
8
BLACK
6
CONTINUOUS
10
130.
20
-76.1499999999999915
11
130.
21
-75.4500000000000028
0
LINE
8
BLACK
6
CONTINUOUS
10
130.
20
-75.4500000000000028
11
130.0190299999999866
21
-75.3543289999999928
0
LINE
8
BLACK
6
CONTINUOUS
10
130.0190299999999866
20
-75.3543289999999928
11
130.0732229999999845
21
-75.2732230000000015
0
LINE
8
BLACK
6
CONTINUOUS
10
130.0732229999999845
20
-75.2732230000000015
11
130.1543289999999899
21
-75.2190300000000036
0
LINE
8
BLACK
6
CONTINUOUS
10
130.1543289999999899
20
-75.2190300000000036
11
130.25
21
-75.2000000000000028
0
LINE
8
BLACK
6
CONTINUOUS
10
130.25
20
-75.2000000000000028
11
131.1500000000000057
21
-75.2000000000000028
0
LINE
8
BLACK
6
CONTINUOUS
10
131.1500000000000057
20
-75.2000000000000028
11
131.2456709999999873
21
-75.2190300000000036
0
LINE
8
BLACK
6
CONTINUOUS
10
153.8265370000000019
20
-75.4652239999999921
11
153.8914209999999798
21
-75.5085789999999974
0
LINE
8
BLACK
6
CONTINUOUS
10
153.8914209999999798
20
-75.5085789999999974
11
153.9347759999999994
21
-75.5734629999999896
0
LINE
8
BLACK
6
CONTINUOUS
10
153.9347759999999994
20
-75.5734629999999896
11
153.9499999999999886
21
-75.6499999999999915
0
LINE
8
BLACK
6
CONTINUOUS
10
153.9499999999999886
20
-75.6499999999999915
11
153.9499999999999886
21
-76.0499999999999972
0
LINE
8
BLACK
6
CONTINUOUS
10
153.9499999999999886
20
-76.0499999999999972
11
153.9347759999999994
21
-76.126536999999999
0
LINE
8
BLACK
6
CONTINUOUS
10
153.9347759999999994
20
-76.126536999999999
11
153.8914209999999798
21
-76.1914209999999912
0
LINE
8
BLACK
6
CONTINUOUS
10
153.8914209999999798
20
-76.1914209999999912
11
153.8265370000000019
21
-76.2347759999999965
0
LINE
8
BLACK
6
CONTINUOUS
10
153.8265370000000019
20
-76.2347759999999965
11
153.75
21
-76.25
0
LINE
8
BLACK
6
CONTINUOUS
10
153.75
20
-76.25
11
152.25
21
-76.25
0
LINE
8
BLACK
6
CONTINUOUS
10
152.25
20
-76.25
11
152.1734629999999981
21
-76.2347759999999965
0
LINE
8
BLACK
6
CONTINUOUS
10
152.1734629999999981
20
-76.2347759999999965
11
152.1085789999999918
21
-76.1914209999999912
0
LINE
8
BLACK
6
CONTINUOUS
10
152.1085789999999918
20
-76.1914209999999912
11
152.0652240000000006
21
-76.126536999999999
0
LINE
8
BLACK
6
CONTINUOUS
10
152.0652240000000006
20
-76.126536999999999
11
152.0499999999999829
21
-76.0499999999999972
0
LINE
8
BLACK
6
CONTINUOUS
10
152.0499999999999829
20
-76.0499999999999972
11
152.0499999999999829
21
-75.6499999999999915
0
LINE
8
BLACK
6
CONTINUOUS
10
152.0499999999999829
20
-75.6499999999999915
11
152.0652240000000006
21
-75.5734629999999896
0
LINE
8
BLACK
6
CONTINUOUS
10
152.0652240000000006
20
-75.5734629999999896
11
152.1085789999999918
21
-75.5085789999999974
0
LINE
8
BLACK
6
CONTINUOUS
10
152.1085789999999918
20
-75.5085789999999974
11
152.1734629999999981
21
-75.4652239999999921
0
LINE
8
BLACK
6
CONTINUOUS
10
152.1734629999999981
20
-75.4652239999999921
11
152.25
21
-75.4500000000000028
0
LINE
8
BLACK
6
CONTINUOUS
10
152.25
20
-75.4500000000000028
11
153.75
21
-75.4500000000000028
0
LINE
8
BLACK
6
CONTINUOUS
10
153.75
20
-75.4500000000000028
11
153.8265370000000019
21
-75.4652239999999921
0
LINE
8
BLACK
6
CONTINUOUS
10
137.3265370000000019
20
-74.9152239999999949
11
137.3914209999999798
21
-74.9585790000000003
0
LINE
8
BLACK
6
CONTINUOUS
10
137.3914209999999798
20
-74.9585790000000003
11
137.4347759999999994
21
-75.0234629999999925
0
LINE
8
BLACK
6
CONTINUOUS
10
137.4347759999999994
20
-75.0234629999999925
11
137.4499999999999886
21
-75.0999999999999943
0
LINE
8
BLACK
6
CONTINUOUS
10
137.4499999999999886
20
-75.0999999999999943
11
137.4499999999999886
21
-75.5
0
LINE
8
BLACK
6
CONTINUOUS
10
137.4499999999999886
20
-75.5
11
137.4347759999999994
21
-75.5765370000000019
0
LINE
8
BLACK
6
CONTINUOUS
10
137.4347759999999994
20
-75.5765370000000019
11
137.3914209999999798
21
-75.641420999999994
0
LINE
8
BLACK
6
CONTINUOUS
10
137.3914209999999798
20
-75.641420999999994
11
137.3265370000000019
21
-75.6847759999999994
0
LINE
8
BLACK
6
CONTINUOUS
10
137.3265370000000019
20
-75.6847759999999994
11
137.25
21
-75.7000000000000028
0
LINE
8
BLACK
6
CONTINUOUS
10
137.25
20
-75.7000000000000028
11
135.75
21
-75.7000000000000028
0
LINE
8
BLACK
6
CONTINUOUS
10
135.75
20
-75.7000000000000028
11
135.6734629999999981
21
-75.6847759999999994
0
LINE
8
BLACK
6
CONTINUOUS
10
135.6734629999999981
20
-75.6847759999999994
11
135.6085789999999918
21
-75.641420999999994
0
LINE
8
BLACK
6
CONTINUOUS
10
135.6085789999999918
20
-75.641420999999994
11
135.5652240000000006
21
-75.5765370000000019
0
LINE
8
BLACK
6
CONTINUOUS
10
135.5652240000000006
20
-75.5765370000000019
11
135.5499999999999829
21
-75.5
0
LINE
8
BLACK
6
CONTINUOUS
10
135.5499999999999829
20
-75.5
11
135.5499999999999829
21
-75.0999999999999943
0
LINE
8
BLACK
6
CONTINUOUS
10
135.5499999999999829
20
-75.0999999999999943
11
135.5652240000000006
21
-75.0234629999999925
0
LINE
8
BLACK
6
CONTINUOUS
10
135.5652240000000006
20
-75.0234629999999925
11
135.6085789999999918
21
-74.9585790000000003
0
LINE
8
BLACK
6
CONTINUOUS
10
135.6085789999999918
20
-74.9585790000000003
11
135.6734629999999981
21
-74.9152239999999949
0
LINE
8
BLACK
6
CONTINUOUS
10
135.6734629999999981
20
-74.9152239999999949
11
135.75
21
-74.8999999999999915
0
LINE
8
BLACK
6
CONTINUOUS
10
135.75
20
-74.8999999999999915
11
137.25
21
-74.8999999999999915
0
LINE
8
BLACK
6
CONTINUOUS
10
137.25
20
-74.8999999999999915
11
137.3265370000000019
21
-74.9152239999999949
0
LINE
8
BLACK
6
CONTINUOUS
10
143.6956710000000044
20
-73.7940299999999922
11
143.7767769999999814
21
-73.8482229999999902
0
LINE
8
BLACK
6
CONTINUOUS
10
143.7767769999999814
20
-73.8482229999999902
11
143.8309699999999793
21
-73.9293289999999956
0
LINE
8
BLACK
6
CONTINUOUS
10
143.8309699999999793
20
-73.9293289999999956
11
143.8499999999999943
21
-74.0249999999999915
0
LINE
8
BLACK
6
CONTINUOUS
10
143.8499999999999943
20
-74.0249999999999915
11
143.8499999999999943
21
-74.9749999999999943
0
LINE
8
BLACK
6
CONTINUOUS
10
143.8499999999999943
20
-74.9749999999999943
11
143.8309699999999793
21
-75.0706709999999902
0
LINE
8
BLACK
6
CONTINUOUS
10
143.8309699999999793
20
-75.0706709999999902
11
143.7767769999999814
21
-75.1517769999999956
0
LINE
8
BLACK
6
CONTINUOUS
10
143.7767769999999814
20
-75.1517769999999956
11
143.6956710000000044
21
-75.2059699999999935
0
LINE
8
BLACK
6
CONTINUOUS
10
143.6956710000000044
20
-75.2059699999999935
11
143.5999999999999943
21
-75.2249999999999943
0
LINE
8
BLACK
6
CONTINUOUS
10
143.5999999999999943
20
-75.2249999999999943
11
142.9249999999999829
21
-75.2249999999999943
0
LINE
8
BLACK
6
CONTINUOUS
10
142.9249999999999829
20
-75.2249999999999943
11
142.8293290000000013
21
-75.2059699999999935
0
LINE
8
BLACK
6
CONTINUOUS
10
142.8293290000000013
20
-75.2059699999999935
11
142.7482229999999959
21
-75.1517769999999956
0
LINE
8
BLACK
6
CONTINUOUS
10
142.7482229999999959
20
-75.1517769999999956
11
142.6940299999999979
21
-75.0706709999999902
0
LINE
8
BLACK
6
CONTINUOUS
10
142.6940299999999979
20
-75.0706709999999902
11
142.6749999999999829
21
-74.9749999999999943
0
LINE
8
BLACK
6
CONTINUOUS
10
142.6749999999999829
20
-74.9749999999999943
11
142.6749999999999829
21
-74.0249999999999915
0
LINE
8
BLACK
6
CONTINUOUS
10
142.6749999999999829
20
-74.0249999999999915
11
142.6940299999999979
21
-73.9293289999999956
0
LINE
8
BLACK
6
CONTINUOUS
10
142.6940299999999979
20
-73.9293289999999956
11
142.7482229999999959
21
-73.8482229999999902
0
LINE
8
BLACK
6
CONTINUOUS
10
142.7482229999999959
20
-73.8482229999999902
11
142.8293290000000013
21
-73.7940299999999922
0
LINE
8
BLACK
6
CONTINUOUS
10
142.8293290000000013
20
-73.7940299999999922
11
142.9249999999999829
21
-73.7749999999999915
0
LINE
8
BLACK
6
CONTINUOUS
10
142.9249999999999829
20
-73.7749999999999915
11
143.5999999999999943
21
-73.7749999999999915
0
LINE
8
BLACK
6
CONTINUOUS
10
143.5999999999999943
20
-73.7749999999999915
11
143.6956710000000044
21
-73.7940299999999922
0
LINE
8
BLACK
6
CONTINUOUS
10
145.770670999999993
20
-73.7940299999999922
11
145.8517769999999985
21
-73.8482229999999902
0
LINE
8
BLACK
6
CONTINUOUS
10
145.8517769999999985
20
-73.8482229999999902
11
145.9059699999999964
21
-73.9293289999999956
0
LINE
8
BLACK
6
CONTINUOUS
10
145.9059699999999964
20
-73.9293289999999956
11
145.9249999999999829
21
-74.0249999999999915
0
LINE
8
BLACK
6
CONTINUOUS
10
145.9249999999999829
20
-74.0249999999999915
11
145.9249999999999829
21
-74.9749999999999943
0
LINE
8
BLACK
6
CONTINUOUS
10
145.9249999999999829
20
-74.9749999999999943
11
145.9059699999999964
21
-75.0706709999999902
0
LINE
8
BLACK
6
CONTINUOUS
10
145.9059699999999964
20
-75.0706709999999902
11
145.8517769999999985
21
-75.1517769999999956
0
LINE
8
BLACK
6
CONTINUOUS
10
145.8517769999999985
20
-75.1517769999999956
11
145.770670999999993
21
-75.2059699999999935
0
LINE
8
BLACK
6
CONTINUOUS
10
145.770670999999993
20
-75.2059699999999935
11
145.6749999999999829
21
-75.2249999999999943
0
LINE
8
BLACK
6
CONTINUOUS
10
145.6749999999999829
20
-75.2249999999999943
11
145.
21
-75.2249999999999943
0
LINE
8
BLACK
6
CONTINUOUS
10
145.
20
-75.2249999999999943
11
144.9043289999999899
21
-75.2059699999999935
0
LINE
8
BLACK
6
CONTINUOUS
10
144.9043289999999899
20
-75.2059699999999935
11
144.8232229999999845
21
-75.1517769999999956
0
LINE
8
BLACK
6
CONTINUOUS
10
144.8232229999999845
20
-75.1517769999999956
11
144.7690299999999866
21
-75.0706709999999902
0
LINE
8
BLACK
6
CONTINUOUS
10
144.7690299999999866
20
-75.0706709999999902
11
144.75
21
-74.9749999999999943
0
LINE
8
BLACK
6
CONTINUOUS
10
144.75
20
-74.9749999999999943
11
144.75
21
-74.0249999999999915
0
LINE
8
BLACK
6
CONTINUOUS
10
144.75
20
-74.0249999999999915
11
144.7690299999999866
21
-73.9293289999999956
0
LINE
8
BLACK
6
CONTINUOUS
10
144.7690299999999866
20
-73.9293289999999956
11
144.8232229999999845
21
-73.8482229999999902
0
LINE
8
BLACK
6
CONTINUOUS
10
144.8232229999999845
20
-73.8482229999999902
11
144.9043289999999899
21
-73.7940299999999922
0
LINE
8
BLACK
6
CONTINUOUS
10
144.9043289999999899
20
-73.7940299999999922
11
145.
21
-73.7749999999999915
0
LINE
8
BLACK
6
CONTINUOUS
10
145.
20
-73.7749999999999915
11
145.6749999999999829
21
-73.7749999999999915
0
LINE
8
BLACK
6
CONTINUOUS
10
145.6749999999999829
20
-73.7749999999999915
11
145.770670999999993
21
-73.7940299999999922
0
LINE
8
BLACK
6
CONTINUOUS
10
134.3265370000000019
20
-73.9652239999999921
11
134.3914209999999798
21
-74.0085789999999974
0
LINE
8
BLACK
6
CONTINUOUS
10
134.3914209999999798
20
-74.0085789999999974
11
134.4347759999999994
21
-74.0734629999999896
0
LINE
8
BLACK
6
CONTINUOUS
10
134.4347759999999994
20
-74.0734629999999896
11
134.4499999999999886
21
-74.1499999999999915
0
LINE
8
BLACK
6
CONTINUOUS
10
134.4499999999999886
20
-74.1499999999999915
11
134.4499999999999886
21
-74.5499999999999972
0
LINE
8
BLACK
6
CONTINUOUS
10
134.4499999999999886
20
-74.5499999999999972
11
134.4347759999999994
21
-74.626536999999999
0
LINE
8
BLACK
6
CONTINUOUS
10
134.4347759999999994
20
-74.626536999999999
11
134.3914209999999798
21
-74.6914209999999912
0
LINE
8
BLACK
6
CONTINUOUS
10
134.3914209999999798
20
-74.6914209999999912
11
134.3265370000000019
21
-74.7347759999999965
0
LINE
8
BLACK
6
CONTINUOUS
10
134.3265370000000019
20
-74.7347759999999965
11
134.25
21
-74.75
0
LINE
8
BLACK
6
CONTINUOUS
10
134.25
20
-74.75
11
132.75
21
-74.75
0
LINE
8
BLACK
6
CONTINUOUS
10
132.75
20
-74.75
11
132.6734629999999981
21
-74.7347759999999965
0
LINE
8
BLACK
6
CONTINUOUS
10
132.6734629999999981
20
-74.7347759999999965
11
132.6085789999999918
21
-74.6914209999999912
0
LINE
8
BLACK
6
CONTINUOUS
10
132.6085789999999918
20
-74.6914209999999912
11
132.5652240000000006
21
-74.626536999999999
0
LINE
8
BLACK
6
CONTINUOUS
10
132.5652240000000006
20
-74.626536999999999
11
132.5499999999999829
21
-74.5499999999999972
0
LINE
8
BLACK
6
CONTINUOUS
10
132.5499999999999829
20
-74.5499999999999972
11
132.5499999999999829
21
-74.1499999999999915
0
LINE
8
BLACK
6
CONTINUOUS
10
132.5499999999999829
20
-74.1499999999999915
11
132.5652240000000006
21
-74.0734629999999896
0
LINE
8
BLACK
6
CONTINUOUS
10
132.5652240000000006
20
-74.0734629999999896
11
132.6085789999999918
21
-74.0085789999999974
0
LINE
8
BLACK
6
CONTINUOUS
10
132.6085789999999918
20
-74.0085789999999974
11
132.6734629999999981
21
-73.9652239999999921
0
LINE
8
BLACK
6
CONTINUOUS
10
132.6734629999999981
20
-73.9652239999999921
11
132.75
21
-73.9500000000000028
0
LINE
8
BLACK
6
CONTINUOUS
10
132.75
20
-73.9500000000000028
11
134.25
21
-73.9500000000000028
0
LINE
8
BLACK
6
CONTINUOUS
10
134.25
20
-73.9500000000000028
11
134.3265370000000019
21
-73.9652239999999921
0
LINE
8
BLACK
6
CONTINUOUS
10
131.2456709999999873
20
-73.2190300000000036
11
131.3267769999999928
21
-73.2732230000000015
0
LINE
8
BLACK
6
CONTINUOUS
10
131.3267769999999928
20
-73.2732230000000015
11
131.3809699999999907
21
-73.3543289999999928
0
LINE
8
BLACK
6
CONTINUOUS
10
131.3809699999999907
20
-73.3543289999999928
11
131.4000000000000057
21
-73.4500000000000028
0
LINE
8
BLACK
6
CONTINUOUS
10
131.4000000000000057
20
-73.4500000000000028
11
131.4000000000000057
21
-74.1499999999999915
0
LINE
8
BLACK
6
CONTINUOUS
10
131.4000000000000057
20
-74.1499999999999915
11
131.3809699999999907
21
-74.2456710000000015
0
LINE
8
BLACK
6
CONTINUOUS
10
131.3809699999999907
20
-74.2456710000000015
11
131.3267769999999928
21
-74.3267769999999928
0
LINE
8
BLACK
6
CONTINUOUS
10
131.3267769999999928
20
-74.3267769999999928
11
131.2456709999999873
21
-74.3809699999999907
0
LINE
8
BLACK
6
CONTINUOUS
10
131.2456709999999873
20
-74.3809699999999907
11
131.1500000000000057
21
-74.3999999999999915
0
LINE
8
BLACK
6
CONTINUOUS
10
131.1500000000000057
20
-74.3999999999999915
11
130.25
21
-74.3999999999999915
0
LINE
8
BLACK
6
CONTINUOUS
10
130.25
20
-74.3999999999999915
11
130.1543289999999899
21
-74.3809699999999907
0
LINE
8
BLACK
6
CONTINUOUS
10
130.1543289999999899
20
-74.3809699999999907
11
130.0732229999999845
21
-74.3267769999999928
0
LINE
8
BLACK
6
CONTINUOUS
10
130.0732229999999845
20
-74.3267769999999928
11
130.0190299999999866
21
-74.2456710000000015
0
LINE
8
BLACK
6
CONTINUOUS
10
130.0190299999999866
20
-74.2456710000000015
11
130.
21
-74.1499999999999915
0
LINE
8
BLACK
6
CONTINUOUS
10
130.
20
-74.1499999999999915
11
130.
21
-73.4500000000000028
0
LINE
8
BLACK
6
CONTINUOUS
10
130.
20
-73.4500000000000028
11
130.0190299999999866
21
-73.3543289999999928
0
LINE
8
BLACK
6
CONTINUOUS
10
130.0190299999999866
20
-73.3543289999999928
11
130.0732229999999845
21
-73.2732230000000015
0
LINE
8
BLACK
6
CONTINUOUS
10
130.0732229999999845
20
-73.2732230000000015
11
130.1543289999999899
21
-73.2190300000000036
0
LINE
8
BLACK
6
CONTINUOUS
10
130.1543289999999899
20
-73.2190300000000036
11
130.25
21
-73.2000000000000028
0
LINE
8
BLACK
6
CONTINUOUS
10
130.25
20
-73.2000000000000028
11
131.1500000000000057
21
-73.2000000000000028
0
LINE
8
BLACK
6
CONTINUOUS
10
131.1500000000000057
20
-73.2000000000000028
11
131.2456709999999873
21
-73.2190300000000036
0
LINE
8
BLACK
6
CONTINUOUS
10
132.395670999999993
20
-68.704030000000003
11
132.4767769999999985
21
-68.758223000000001
0
LINE
8
BLACK
6
CONTINUOUS
10
132.4767769999999985
20
-68.758223000000001
11
132.5309699999999964
21
-68.8393289999999922
0
LINE
8
BLACK
6
CONTINUOUS
10
132.5309699999999964
20
-68.8393289999999922
11
132.5499999999999829
21
-68.9350000000000023
0
LINE
8
BLACK
6
CONTINUOUS
10
132.5499999999999829
20
-68.9350000000000023
11
132.5499999999999829
21
-69.8849999999999909
0
LINE
8
BLACK
6
CONTINUOUS
10
132.5499999999999829
20
-69.8849999999999909
11
132.5309699999999964
21
-69.980671000000001
0
LINE
8
BLACK
6
CONTINUOUS
10
132.5309699999999964
20
-69.980671000000001
11
132.4767769999999985
21
-70.0617769999999922
0
LINE
8
BLACK
6
CONTINUOUS
10
132.4767769999999985
20
-70.0617769999999922
11
132.395670999999993
21
-70.1159699999999901
0
LINE
8
BLACK
6
CONTINUOUS
10
132.395670999999993
20
-70.1159699999999901
11
132.2999999999999829
21
-70.1349999999999909
0
LINE
8
BLACK
6
CONTINUOUS
10
132.2999999999999829
20
-70.1349999999999909
11
131.625
21
-70.1349999999999909
0
LINE
8
BLACK
6
CONTINUOUS
10
131.625
20
-70.1349999999999909
11
131.5293289999999899
21
-70.1159699999999901
0
LINE
8
BLACK
6
CONTINUOUS
10
131.5293289999999899
20
-70.1159699999999901
11
131.4482229999999845
21
-70.0617769999999922
0
LINE
8
BLACK
6
CONTINUOUS
10
131.4482229999999845
20
-70.0617769999999922
11
131.3940299999999866
21
-69.980671000000001
0
LINE
8
BLACK
6
CONTINUOUS
10
131.3940299999999866
20
-69.980671000000001
11
131.375
21
-69.8849999999999909
0
LINE
8
BLACK
6
CONTINUOUS
10
131.375
20
-69.8849999999999909
11
131.375
21
-68.9350000000000023
0
LINE
8
BLACK
6
CONTINUOUS
10
131.375
20
-68.9350000000000023
11
131.3940299999999866
21
-68.8393289999999922
0
LINE
8
BLACK
6
CONTINUOUS
10
131.3940299999999866
20
-68.8393289999999922
11
131.4482229999999845
21
-68.758223000000001
0
LINE
8
BLACK
6
CONTINUOUS
10
131.4482229999999845
20
-68.758223000000001
11
131.5293289999999899
21
-68.704030000000003
0
LINE
8
BLACK
6
CONTINUOUS
10
131.5293289999999899
20
-68.704030000000003
11
131.625
21
-68.6850000000000023
0
LINE
8
BLACK
6
CONTINUOUS
10
131.625
20
-68.6850000000000023
11
132.2999999999999829
21
-68.6850000000000023
0
LINE
8
BLACK
6
CONTINUOUS
10
132.2999999999999829
20
-68.6850000000000023
11
132.395670999999993
21
-68.704030000000003
0
LINE
8
BLACK
6
CONTINUOUS
10
134.4706709999999816
20
-68.704030000000003
11
134.5517769999999871
21
-68.758223000000001
0
LINE
8
BLACK
6
CONTINUOUS
10
134.5517769999999871
20
-68.758223000000001
11
134.605969999999985
21
-68.8393289999999922
0
LINE
8
BLACK
6
CONTINUOUS
10
134.605969999999985
20
-68.8393289999999922
11
134.625
21
-68.9350000000000023
0
LINE
8
BLACK
6
CONTINUOUS
10
134.625
20
-68.9350000000000023
11
134.625
21
-69.8849999999999909
0
LINE
8
BLACK
6
CONTINUOUS
10
134.625
20
-69.8849999999999909
11
134.605969999999985
21
-69.980671000000001
0
LINE
8
BLACK
6
CONTINUOUS
10
134.605969999999985
20
-69.980671000000001
11
134.5517769999999871
21
-70.0617769999999922
0
LINE
8
BLACK
6
CONTINUOUS
10
134.5517769999999871
20
-70.0617769999999922
11
134.4706709999999816
21
-70.1159699999999901
0
LINE
8
BLACK
6
CONTINUOUS
10
134.4706709999999816
20
-70.1159699999999901
11
134.375
21
-70.1349999999999909
0
LINE
8
BLACK
6
CONTINUOUS
10
134.375
20
-70.1349999999999909
11
133.6999999999999886
21
-70.1349999999999909
0
LINE
8
BLACK
6
CONTINUOUS
10
133.6999999999999886
20
-70.1349999999999909
11
133.604329000000007
21
-70.1159699999999901
0
LINE
8
BLACK
6
CONTINUOUS
10
133.604329000000007
20
-70.1159699999999901
11
133.5232230000000015
21
-70.0617769999999922
0
LINE
8
BLACK
6
CONTINUOUS
10
133.5232230000000015
20
-70.0617769999999922
11
133.4690300000000036
21
-69.980671000000001
0
LINE
8
BLACK
6
CONTINUOUS
10
133.4690300000000036
20
-69.980671000000001
11
133.4499999999999886
21
-69.8849999999999909
0
LINE
8
BLACK
6
CONTINUOUS
10
133.4499999999999886
20
-69.8849999999999909
11
133.4499999999999886
21
-68.9350000000000023
0
LINE
8
BLACK
6
CONTINUOUS
10
133.4499999999999886
20
-68.9350000000000023
11
133.4690300000000036
21
-68.8393289999999922
0
LINE
8
BLACK
6
CONTINUOUS
10
133.4690300000000036
20
-68.8393289999999922
11
133.5232230000000015
21
-68.758223000000001
0
LINE
8
BLACK
6
CONTINUOUS
10
133.5232230000000015
20
-68.758223000000001
11
133.604329000000007
21
-68.704030000000003
0
LINE
8
BLACK
6
CONTINUOUS
10
133.604329000000007
20
-68.704030000000003
11
133.6999999999999886
21
-68.6850000000000023
0
LINE
8
BLACK
6
CONTINUOUS
10
133.6999999999999886
20
-68.6850000000000023
11
134.375
21
-68.6850000000000023
0
LINE
8
BLACK
6
CONTINUOUS
10
134.375
20
-68.6850000000000023
11
134.4706709999999816
21
-68.704030000000003
0
LINE
8
BLACK
6
CONTINUOUS
10
132.395670999999993
20
-66.5940300000000036
11
132.4767769999999985
21
-66.6482230000000015
0
LINE
8
BLACK
6
CONTINUOUS
10
132.4767769999999985
20
-66.6482230000000015
11
132.5309699999999964
21
-66.7293289999999928
0
LINE
8
BLACK
6
CONTINUOUS
10
132.5309699999999964
20
-66.7293289999999928
11
132.5499999999999829
21
-66.8250000000000028
0
LINE
8
BLACK
6
CONTINUOUS
10
132.5499999999999829
20
-66.8250000000000028
11
132.5499999999999829
21
-67.7749999999999915
0
LINE
8
BLACK
6
CONTINUOUS
10
132.5499999999999829
20
-67.7749999999999915
11
132.5309699999999964
21
-67.8706710000000015
0
LINE
8
BLACK
6
CONTINUOUS
10
132.5309699999999964
20
-67.8706710000000015
11
132.4767769999999985
21
-67.9517769999999928
0
LINE
8
BLACK
6
CONTINUOUS
10
132.4767769999999985
20
-67.9517769999999928
11
132.395670999999993
21
-68.0059699999999907
0
LINE
8
BLACK
6
CONTINUOUS
10
132.395670999999993
20
-68.0059699999999907
11
132.2999999999999829
21
-68.0249999999999915
0
LINE
8
BLACK
6
CONTINUOUS
10
132.2999999999999829
20
-68.0249999999999915
11
131.625
21
-68.0249999999999915
0
LINE
8
BLACK
6
CONTINUOUS
10
131.625
20
-68.0249999999999915
11
131.5293289999999899
21
-68.0059699999999907
0
LINE
8
BLACK
6
CONTINUOUS
10
131.5293289999999899
20
-68.0059699999999907
11
131.4482229999999845
21
-67.9517769999999928
0
LINE
8
BLACK
6
CONTINUOUS
10
131.4482229999999845
20
-67.9517769999999928
11
131.3940299999999866
21
-67.8706710000000015
0
LINE
8
BLACK
6
CONTINUOUS
10
131.3940299999999866
20
-67.8706710000000015
11
131.375
21
-67.7749999999999915
0
LINE
8
BLACK
6
CONTINUOUS
10
131.375
20
-67.7749999999999915
11
131.375
21
-66.8250000000000028
0
LINE
8
BLACK
6
CONTINUOUS
10
131.375
20
-66.8250000000000028
11
131.3940299999999866
21
-66.7293289999999928
0
LINE
8
BLACK
6
CONTINUOUS
10
131.3940299999999866
20
-66.7293289999999928
11
131.4482229999999845
21
-66.6482230000000015
0
LINE
8
BLACK
6
CONTINUOUS
10
131.4482229999999845
20
-66.6482230000000015
11
131.5293289999999899
21
-66.5940300000000036
0
LINE
8
BLACK
6
CONTINUOUS
10
131.5293289999999899
20
-66.5940300000000036
11
131.625
21
-66.5750000000000028
0
LINE
8
BLACK
6
CONTINUOUS
10
131.625
20
-66.5750000000000028
11
132.2999999999999829
21
-66.5750000000000028
0
LINE
8
BLACK
6
CONTINUOUS
10
132.2999999999999829
20
-66.5750000000000028
11
132.395670999999993
21
-66.5940300000000036
0
LINE
8
BLACK
6
CONTINUOUS
10
134.4706709999999816
20
-66.5940300000000036
11
134.5517769999999871
21
-66.6482230000000015
0
LINE
8
BLACK
6
CONTINUOUS
10
134.5517769999999871
20
-66.6482230000000015
11
134.605969999999985
21
-66.7293289999999928
0
LINE
8
BLACK
6
CONTINUOUS
10
134.605969999999985
20
-66.7293289999999928
11
134.625
21
-66.8250000000000028
0
LINE
8
BLACK
6
CONTINUOUS
10
134.625
20
-66.8250000000000028
11
134.625
21
-67.7749999999999915
0
LINE
8
BLACK
6
CONTINUOUS
10
134.625
20
-67.7749999999999915
11
134.605969999999985
21
-67.8706710000000015
0
LINE
8
BLACK
6
CONTINUOUS
10
134.605969999999985
20
-67.8706710000000015
11
134.5517769999999871
21
-67.9517769999999928
0
LINE
8
BLACK
6
CONTINUOUS
10
134.5517769999999871
20
-67.9517769999999928
11
134.4706709999999816
21
-68.0059699999999907
0
LINE
8
BLACK
6
CONTINUOUS
10
134.4706709999999816
20
-68.0059699999999907
11
134.375
21
-68.0249999999999915
0
LINE
8
BLACK
6
CONTINUOUS
10
134.375
20
-68.0249999999999915
11
133.6999999999999886
21
-68.0249999999999915
0
LINE
8
BLACK
6
CONTINUOUS
10
133.6999999999999886
20
-68.0249999999999915
11
133.604329000000007
21
-68.0059699999999907
0
LINE
8
BLACK
6
CONTINUOUS
10
133.604329000000007
20
-68.0059699999999907
11
133.5232230000000015
21
-67.9517769999999928
0
LINE
8
BLACK
6
CONTINUOUS
10
133.5232230000000015
20
-67.9517769999999928
11
133.4690300000000036
21
-67.8706710000000015
0
LINE
8
BLACK
6
CONTINUOUS
10
133.4690300000000036
20
-67.8706710000000015
11
133.4499999999999886
21
-67.7749999999999915
0
LINE
8
BLACK
6
CONTINUOUS
10
133.4499999999999886
20
-67.7749999999999915
11
133.4499999999999886
21
-66.8250000000000028
0
LINE
8
BLACK
6
CONTINUOUS
10
133.4499999999999886
20
-66.8250000000000028
11
133.4690300000000036
21
-66.7293289999999928
0
LINE
8
BLACK
6
CONTINUOUS
10
133.4690300000000036
20
-66.7293289999999928
11
133.5232230000000015
21
-66.6482230000000015
0
LINE
8
BLACK
6
CONTINUOUS
10
133.5232230000000015
20
-66.6482230000000015
11
133.604329000000007
21
-66.5940300000000036
0
LINE
8
BLACK
6
CONTINUOUS
10
133.604329000000007
20
-66.5940300000000036
11
133.6999999999999886
21
-66.5750000000000028
0
LINE
8
BLACK
6
CONTINUOUS
10
133.6999999999999886
20
-66.5750000000000028
11
134.375
21
-66.5750000000000028
0
LINE
8
BLACK
6
CONTINUOUS
10
134.375
20
-66.5750000000000028
11
134.4706709999999816
21
-66.5940300000000036
  0
ENDSEC
  0
EOF
