  0
SECTION
  2
HEADER
  9
$ANGBASE
  50
0.0
  9
$ANGDIR
  70
1
  9
$MEASUREMENT
  70
1
  0
ENDSEC
  0
SECTION
  2
TABLES
  0
TABLE
  2
LTYPE
  70
4
  0
LTYPE
  5
40F
  2
CONTINUOUS
  70
0
  3
Solid line
  72
65
  73
0
  40
0.0
  0
LTYPE
  5
410
  2
DASHDOT
 70
0
  3
Dash Dot ____ _ ____ _
 72
65
 73
4
 40
2.0
 49
1.25
 49
-0.25
 49
0.25
 49
-0.25
  0
LTYPE
  5
411
  2
DASHED
 70
0
  3
Dashed __ __ __ __ __
 72
65
 73
2
 40
0.75
 49
0.5
 49
-0.25
  0
LTYPE
  5
43B
  2
DOTTED
 70
0
  3
Dotted .  .  .  .
 72
65
 73
2
 40
0.2
 49
0.0
 49
-0.2
  0
ENDTAB
  0
TABLE
  2
STYLE
  70
4
  0
STYLE
  2
KICAD
  70
0
  40
0
  41
1
  42
1
  50
0
  71
0
  3
isocp.shx
  0
STYLE
  2
KICADB
  70
0
  40
0
  41
1
  42
1
  50
0
  71
0
  3
isocp.shx
  0
STYLE
  2
KICADI
  70
0
  40
0
  41
1
  42
1
  50
15
  71
0
  3
isocp.shx
  0
STYLE
  2
KICADBI
  70
0
  40
0
  41
1
  42
1
  50
15
  71
0
  3
isocp.shx
  0
ENDTAB
  0
TABLE
  2
LAYER
  70
1
  0
LAYER
  2
BLACK
  70
0
  62
7
  6
CONTINUOUS
  0
ENDTAB
  0
ENDSEC
  0
SECTION
  2
ENTITIES
0
ARC
8
BLACK
10
90.4799999999999898
20
-138.7599999999999909
40
2.
50
90.00000000
51
180.00000000
0
LINE
8
BLACK
6
CONTINUOUS
10
167.2199999999999989
20
-132.9499999999999886
11
167.2199999999999989
21
-77.0699999999999932
0
LINE
8
BLACK
6
CONTINUOUS
10
88.4799999999999898
20
-64.3699999999999903
11
70.7000000000000028
21
-64.3699999999999903
0
LINE
8
BLACK
6
CONTINUOUS
10
88.4799999999999898
20
-145.6500000000000057
11
88.4799999999999898
21
-138.7599999999999909
0
LINE
8
BLACK
6
CONTINUOUS
10
68.1599999999999966
20
-66.9099999999999966
11
68.1599999999999966
21
-143.1099999999999852
0
ARC
8
BLACK
10
119.5
20
-71.2599999999999909
40
2.
50
-90.00000000
51
-0.00000000
0
LINE
8
BLACK
6
CONTINUOUS
10
121.5
20
-138.7599999999999909
11
121.5
21
-145.6500000000000057
0
LINE
8
BLACK
6
CONTINUOUS
10
70.7000000000000028
20
-64.3699999999999903
11
68.1599999999999966
21
-66.9099999999999966
0
ARC
8
BLACK
10
119.5
20
-138.7599999999999909
40
2.
50
0.00000000
51
90.00000000
0
LINE
8
BLACK
6
CONTINUOUS
10
167.2199999999999989
20
-77.0699999999999932
11
154.5199999999999818
21
-64.3699999999999903
0
ARC
8
BLACK
10
90.4799999999999898
20
-71.2599999999999909
40
2.
50
-180.00000000
51
-90.00000000
0
LINE
8
BLACK
6
CONTINUOUS
10
121.5
20
-145.6500000000000057
11
154.5199999999999818
21
-145.6500000000000057
0
LINE
8
BLACK
6
CONTINUOUS
10
70.7000000000000028
20
-145.6500000000000057
11
88.4799999999999898
21
-145.6500000000000057
0
LINE
8
BLACK
6
CONTINUOUS
10
119.5
20
-73.2599999999999909
11
90.4799999999999898
21
-73.2599999999999909
0
LINE
8
BLACK
6
CONTINUOUS
10
121.5
20
-64.3699999999999903
11
121.5
21
-71.2599999999999909
0
LINE
8
BLACK
6
CONTINUOUS
10
88.4799999999999898
20
-71.2599999999999909
11
88.4799999999999898
21
-64.3699999999999903
0
LINE
8
BLACK
6
CONTINUOUS
10
154.5199999999999818
20
-145.6500000000000057
11
167.2199999999999989
21
-132.9499999999999886
0
LINE
8
BLACK
6
CONTINUOUS
10
90.4799999999999898
20
-136.7599999999999909
11
119.5
21
-136.7599999999999909
0
LINE
8
BLACK
6
CONTINUOUS
10
68.1599999999999966
20
-143.1099999999999852
11
70.7000000000000028
21
-145.6500000000000057
0
LINE
8
BLACK
6
CONTINUOUS
10
154.5199999999999818
20
-64.3699999999999903
11
121.5
21
-64.3699999999999903
  0
ENDSEC
  0
EOF
