  0
SECTION
  2
HEADER
  9
$ANGBASE
  50
0.0
  9
$ANGDIR
  70
1
  9
$MEASUREMENT
  70
1
  0
ENDSEC
  0
SECTION
  2
TABLES
  0
TABLE
  2
LTYPE
  70
4
  0
LTYPE
  5
40F
  2
CONTINUOUS
  70
0
  3
Solid line
  72
65
  73
0
  40
0.0
  0
LTYPE
  5
410
  2
DASHDOT
 70
0
  3
Dash Dot ____ _ ____ _
 72
65
 73
4
 40
2.0
 49
1.25
 49
-0.25
 49
0.25
 49
-0.25
  0
LTYPE
  5
411
  2
DASHED
 70
0
  3
Dashed __ __ __ __ __
 72
65
 73
2
 40
0.75
 49
0.5
 49
-0.25
  0
LTYPE
  5
43B
  2
DOTTED
 70
0
  3
Dotted .  .  .  .
 72
65
 73
2
 40
0.2
 49
0.0
 49
-0.2
  0
ENDTAB
  0
TABLE
  2
STYLE
  70
4
  0
STYLE
  2
KICAD
  70
0
  40
0
  41
1
  42
1
  50
0
  71
0
  3
isocp.shx
  0
STYLE
  2
KICADB
  70
0
  40
0
  41
1
  42
1
  50
0
  71
0
  3
isocp.shx
  0
STYLE
  2
KICADI
  70
0
  40
0
  41
1
  42
1
  50
15
  71
0
  3
isocp.shx
  0
STYLE
  2
KICADBI
  70
0
  40
0
  41
1
  42
1
  50
15
  71
0
  3
isocp.shx
  0
ENDTAB
  0
TABLE
  2
LAYER
  70
1
  0
LAYER
  2
BLACK
  70
0
  62
7
  6
CONTINUOUS
  0
ENDTAB
  0
ENDSEC
  0
SECTION
  2
ENTITIES
0
LINE
8
BLACK
6
CONTINUOUS
10
122.1206699999999898
20
-145.7940299999999922
11
122.2017759999999953
21
-145.8482239999999877
0
LINE
8
BLACK
6
CONTINUOUS
10
122.2017759999999953
20
-145.8482239999999877
11
122.2559699999999907
21
-145.9293299999999931
0
LINE
8
BLACK
6
CONTINUOUS
10
122.2559699999999907
20
-145.9293299999999931
11
122.274998999999994
21
-146.0250020000000006
0
LINE
8
BLACK
6
CONTINUOUS
10
122.274998999999994
20
-146.0250020000000006
11
122.2749999999999915
21
-146.9499989999999912
0
LINE
8
BLACK
6
CONTINUOUS
10
122.2749999999999915
20
-146.9499989999999912
11
122.2559699999999907
21
-147.0456700000000012
0
LINE
8
BLACK
6
CONTINUOUS
10
122.2559699999999907
20
-147.0456700000000012
11
122.2017759999999953
21
-147.1267760000000067
0
LINE
8
BLACK
6
CONTINUOUS
10
122.2017759999999953
20
-147.1267760000000067
11
122.1206699999999898
21
-147.1809700000000021
0
LINE
8
BLACK
6
CONTINUOUS
10
122.1206699999999898
20
-147.1809700000000021
11
122.0249979999999965
21
-147.1999989999999912
0
LINE
8
BLACK
6
CONTINUOUS
10
122.0249979999999965
20
-147.1999989999999912
11
120.7750009999999889
21
-147.1999999999999886
0
LINE
8
BLACK
6
CONTINUOUS
10
120.7750009999999889
20
-147.1999999999999886
11
120.6793299999999931
21
-147.1809700000000021
0
LINE
8
BLACK
6
CONTINUOUS
10
120.6793299999999931
20
-147.1809700000000021
11
120.5982239999999877
21
-147.1267760000000067
0
LINE
8
BLACK
6
CONTINUOUS
10
120.5982239999999877
20
-147.1267760000000067
11
120.5440299999999922
21
-147.0456700000000012
0
LINE
8
BLACK
6
CONTINUOUS
10
120.5440299999999922
20
-147.0456700000000012
11
120.5250009999999889
21
-146.9499979999999937
0
LINE
8
BLACK
6
CONTINUOUS
10
120.5250009999999889
20
-146.9499979999999937
11
120.5249999999999915
21
-146.0250010000000032
0
LINE
8
BLACK
6
CONTINUOUS
10
120.5249999999999915
20
-146.0250010000000032
11
120.5440299999999922
21
-145.9293299999999931
0
LINE
8
BLACK
6
CONTINUOUS
10
120.5440299999999922
20
-145.9293299999999931
11
120.5982239999999877
21
-145.8482239999999877
0
LINE
8
BLACK
6
CONTINUOUS
10
120.5982239999999877
20
-145.8482239999999877
11
120.6793299999999931
21
-145.7940299999999922
0
LINE
8
BLACK
6
CONTINUOUS
10
120.6793299999999931
20
-145.7940299999999922
11
120.7750020000000006
21
-145.7750010000000032
0
LINE
8
BLACK
6
CONTINUOUS
10
120.7750020000000006
20
-145.7750010000000032
11
122.024998999999994
21
-145.7750000000000057
0
LINE
8
BLACK
6
CONTINUOUS
10
122.024998999999994
20
-145.7750000000000057
11
122.1206699999999898
21
-145.7940299999999922
0
LINE
8
BLACK
6
CONTINUOUS
10
157.8706709999999873
20
-145.9690300000000036
11
157.9517769999999928
21
-146.0232230000000015
0
LINE
8
BLACK
6
CONTINUOUS
10
157.9517769999999928
20
-146.0232230000000015
11
158.0059699999999907
21
-146.104329000000007
0
LINE
8
BLACK
6
CONTINUOUS
10
158.0059699999999907
20
-146.104329000000007
11
158.0250000000000057
21
-146.1999999999999886
0
LINE
8
BLACK
6
CONTINUOUS
10
158.0250000000000057
20
-146.1999999999999886
11
158.0250000000000057
21
-146.875
0
LINE
8
BLACK
6
CONTINUOUS
10
158.0250000000000057
20
-146.875
11
158.0059699999999907
21
-146.9706709999999816
0
LINE
8
BLACK
6
CONTINUOUS
10
158.0059699999999907
20
-146.9706709999999816
11
157.9517769999999928
21
-147.0517769999999871
0
LINE
8
BLACK
6
CONTINUOUS
10
157.9517769999999928
20
-147.0517769999999871
11
157.8706709999999873
21
-147.105969999999985
0
LINE
8
BLACK
6
CONTINUOUS
10
157.8706709999999873
20
-147.105969999999985
11
157.7750000000000057
21
-147.125
0
LINE
8
BLACK
6
CONTINUOUS
10
157.7750000000000057
20
-147.125
11
156.8249999999999886
21
-147.125
0
LINE
8
BLACK
6
CONTINUOUS
10
156.8249999999999886
20
-147.125
11
156.729329000000007
21
-147.105969999999985
0
LINE
8
BLACK
6
CONTINUOUS
10
156.729329000000007
20
-147.105969999999985
11
156.6482230000000015
21
-147.0517769999999871
0
LINE
8
BLACK
6
CONTINUOUS
10
156.6482230000000015
20
-147.0517769999999871
11
156.5940300000000036
21
-146.9706709999999816
0
LINE
8
BLACK
6
CONTINUOUS
10
156.5940300000000036
20
-146.9706709999999816
11
156.5749999999999886
21
-146.875
0
LINE
8
BLACK
6
CONTINUOUS
10
156.5749999999999886
20
-146.875
11
156.5749999999999886
21
-146.1999999999999886
0
LINE
8
BLACK
6
CONTINUOUS
10
156.5749999999999886
20
-146.1999999999999886
11
156.5940300000000036
21
-146.104329000000007
0
LINE
8
BLACK
6
CONTINUOUS
10
156.5940300000000036
20
-146.104329000000007
11
156.6482230000000015
21
-146.0232230000000015
0
LINE
8
BLACK
6
CONTINUOUS
10
156.6482230000000015
20
-146.0232230000000015
11
156.729329000000007
21
-145.9690300000000036
0
LINE
8
BLACK
6
CONTINUOUS
10
156.729329000000007
20
-145.9690300000000036
11
156.8249999999999886
21
-145.9499999999999886
0
LINE
8
BLACK
6
CONTINUOUS
10
156.8249999999999886
20
-145.9499999999999886
11
157.7750000000000057
21
-145.9499999999999886
0
LINE
8
BLACK
6
CONTINUOUS
10
157.7750000000000057
20
-145.9499999999999886
11
157.8706709999999873
21
-145.9690300000000036
0
LINE
8
BLACK
6
CONTINUOUS
10
155.4456710000000044
20
-145.9190299999999922
11
155.5267769999999814
21
-145.9732229999999902
0
LINE
8
BLACK
6
CONTINUOUS
10
155.5267769999999814
20
-145.9732229999999902
11
155.5809699999999793
21
-146.0543289999999956
0
LINE
8
BLACK
6
CONTINUOUS
10
155.5809699999999793
20
-146.0543289999999956
11
155.5999999999999943
21
-146.1500000000000057
0
LINE
8
BLACK
6
CONTINUOUS
10
155.5999999999999943
20
-146.1500000000000057
11
155.5999999999999943
21
-146.8499999999999943
0
LINE
8
BLACK
6
CONTINUOUS
10
155.5999999999999943
20
-146.8499999999999943
11
155.5809699999999793
21
-146.9456710000000044
0
LINE
8
BLACK
6
CONTINUOUS
10
155.5809699999999793
20
-146.9456710000000044
11
155.5267769999999814
21
-147.0267769999999814
0
LINE
8
BLACK
6
CONTINUOUS
10
155.5267769999999814
20
-147.0267769999999814
11
155.4456710000000044
21
-147.0809699999999793
0
LINE
8
BLACK
6
CONTINUOUS
10
155.4456710000000044
20
-147.0809699999999793
11
155.3499999999999943
21
-147.0999999999999943
0
LINE
8
BLACK
6
CONTINUOUS
10
155.3499999999999943
20
-147.0999999999999943
11
154.4499999999999886
21
-147.0999999999999943
0
LINE
8
BLACK
6
CONTINUOUS
10
154.4499999999999886
20
-147.0999999999999943
11
154.354329000000007
21
-147.0809699999999793
0
LINE
8
BLACK
6
CONTINUOUS
10
154.354329000000007
20
-147.0809699999999793
11
154.2732230000000015
21
-147.0267769999999814
0
LINE
8
BLACK
6
CONTINUOUS
10
154.2732230000000015
20
-147.0267769999999814
11
154.2190300000000036
21
-146.9456710000000044
0
LINE
8
BLACK
6
CONTINUOUS
10
154.2190300000000036
20
-146.9456710000000044
11
154.1999999999999886
21
-146.8499999999999943
0
LINE
8
BLACK
6
CONTINUOUS
10
154.1999999999999886
20
-146.8499999999999943
11
154.1999999999999886
21
-146.1500000000000057
0
LINE
8
BLACK
6
CONTINUOUS
10
154.1999999999999886
20
-146.1500000000000057
11
154.2190300000000036
21
-146.0543289999999956
0
LINE
8
BLACK
6
CONTINUOUS
10
154.2190300000000036
20
-146.0543289999999956
11
154.2732230000000015
21
-145.9732229999999902
0
LINE
8
BLACK
6
CONTINUOUS
10
154.2732230000000015
20
-145.9732229999999902
11
154.354329000000007
21
-145.9190299999999922
0
LINE
8
BLACK
6
CONTINUOUS
10
154.354329000000007
20
-145.9190299999999922
11
154.4499999999999886
21
-145.9000000000000057
0
LINE
8
BLACK
6
CONTINUOUS
10
154.4499999999999886
20
-145.9000000000000057
11
155.3499999999999943
21
-145.9000000000000057
0
LINE
8
BLACK
6
CONTINUOUS
10
155.3499999999999943
20
-145.9000000000000057
11
155.4456710000000044
21
-145.9190299999999922
0
LINE
8
BLACK
6
CONTINUOUS
10
125.5956709999999958
20
-145.2790300000000059
11
125.6767770000000013
21
-145.3332230000000038
0
LINE
8
BLACK
6
CONTINUOUS
10
125.6767770000000013
20
-145.3332230000000038
11
125.7309699999999992
21
-145.4143289999999809
0
LINE
8
BLACK
6
CONTINUOUS
10
125.7309699999999992
20
-145.4143289999999809
11
125.75
21
-145.5099999999999909
0
LINE
8
BLACK
6
CONTINUOUS
10
125.75
20
-145.5099999999999909
11
125.75
21
-146.2099999999999795
0
LINE
8
BLACK
6
CONTINUOUS
10
125.75
20
-146.2099999999999795
11
125.7309699999999992
21
-146.3056709999999896
0
LINE
8
BLACK
6
CONTINUOUS
10
125.7309699999999992
20
-146.3056709999999896
11
125.6767770000000013
21
-146.386776999999995
0
LINE
8
BLACK
6
CONTINUOUS
10
125.6767770000000013
20
-146.386776999999995
11
125.5956709999999958
21
-146.440969999999993
0
LINE
8
BLACK
6
CONTINUOUS
10
125.5956709999999958
20
-146.440969999999993
11
125.5
21
-146.4599999999999795
0
LINE
8
BLACK
6
CONTINUOUS
10
125.5
20
-146.4599999999999795
11
124.5999999999999943
21
-146.4599999999999795
0
LINE
8
BLACK
6
CONTINUOUS
10
124.5999999999999943
20
-146.4599999999999795
11
124.5043289999999985
21
-146.440969999999993
0
LINE
8
BLACK
6
CONTINUOUS
10
124.5043289999999985
20
-146.440969999999993
11
124.423222999999993
21
-146.386776999999995
0
LINE
8
BLACK
6
CONTINUOUS
10
124.423222999999993
20
-146.386776999999995
11
124.3690299999999951
21
-146.3056709999999896
0
LINE
8
BLACK
6
CONTINUOUS
10
124.3690299999999951
20
-146.3056709999999896
11
124.3499999999999943
21
-146.2099999999999795
0
LINE
8
BLACK
6
CONTINUOUS
10
124.3499999999999943
20
-146.2099999999999795
11
124.3499999999999943
21
-145.5099999999999909
0
LINE
8
BLACK
6
CONTINUOUS
10
124.3499999999999943
20
-145.5099999999999909
11
124.3690299999999951
21
-145.4143289999999809
0
LINE
8
BLACK
6
CONTINUOUS
10
124.3690299999999951
20
-145.4143289999999809
11
124.423222999999993
21
-145.3332230000000038
0
LINE
8
BLACK
6
CONTINUOUS
10
124.423222999999993
20
-145.3332230000000038
11
124.5043289999999985
21
-145.2790300000000059
0
LINE
8
BLACK
6
CONTINUOUS
10
124.5043289999999985
20
-145.2790300000000059
11
124.5999999999999943
21
-145.2599999999999909
0
LINE
8
BLACK
6
CONTINUOUS
10
124.5999999999999943
20
-145.2599999999999909
11
125.5
21
-145.2599999999999909
0
LINE
8
BLACK
6
CONTINUOUS
10
125.5
20
-145.2599999999999909
11
125.5956709999999958
21
-145.2790300000000059
0
LINE
8
BLACK
6
CONTINUOUS
10
155.4456710000000044
20
-143.9190299999999922
11
155.5267769999999814
21
-143.9732229999999902
0
LINE
8
BLACK
6
CONTINUOUS
10
155.5267769999999814
20
-143.9732229999999902
11
155.5809699999999793
21
-144.0543289999999956
0
LINE
8
BLACK
6
CONTINUOUS
10
155.5809699999999793
20
-144.0543289999999956
11
155.5999999999999943
21
-144.1500000000000057
0
LINE
8
BLACK
6
CONTINUOUS
10
155.5999999999999943
20
-144.1500000000000057
11
155.5999999999999943
21
-144.8499999999999943
0
LINE
8
BLACK
6
CONTINUOUS
10
155.5999999999999943
20
-144.8499999999999943
11
155.5809699999999793
21
-144.9456710000000044
0
LINE
8
BLACK
6
CONTINUOUS
10
155.5809699999999793
20
-144.9456710000000044
11
155.5267769999999814
21
-145.0267769999999814
0
LINE
8
BLACK
6
CONTINUOUS
10
155.5267769999999814
20
-145.0267769999999814
11
155.4456710000000044
21
-145.0809699999999793
0
LINE
8
BLACK
6
CONTINUOUS
10
155.4456710000000044
20
-145.0809699999999793
11
155.3499999999999943
21
-145.0999999999999943
0
LINE
8
BLACK
6
CONTINUOUS
10
155.3499999999999943
20
-145.0999999999999943
11
154.4499999999999886
21
-145.0999999999999943
0
LINE
8
BLACK
6
CONTINUOUS
10
154.4499999999999886
20
-145.0999999999999943
11
154.354329000000007
21
-145.0809699999999793
0
LINE
8
BLACK
6
CONTINUOUS
10
154.354329000000007
20
-145.0809699999999793
11
154.2732230000000015
21
-145.0267769999999814
0
LINE
8
BLACK
6
CONTINUOUS
10
154.2732230000000015
20
-145.0267769999999814
11
154.2190300000000036
21
-144.9456710000000044
0
LINE
8
BLACK
6
CONTINUOUS
10
154.2190300000000036
20
-144.9456710000000044
11
154.1999999999999886
21
-144.8499999999999943
0
LINE
8
BLACK
6
CONTINUOUS
10
154.1999999999999886
20
-144.8499999999999943
11
154.1999999999999886
21
-144.1500000000000057
0
LINE
8
BLACK
6
CONTINUOUS
10
154.1999999999999886
20
-144.1500000000000057
11
154.2190300000000036
21
-144.0543289999999956
0
LINE
8
BLACK
6
CONTINUOUS
10
154.2190300000000036
20
-144.0543289999999956
11
154.2732230000000015
21
-143.9732229999999902
0
LINE
8
BLACK
6
CONTINUOUS
10
154.2732230000000015
20
-143.9732229999999902
11
154.354329000000007
21
-143.9190299999999922
0
LINE
8
BLACK
6
CONTINUOUS
10
154.354329000000007
20
-143.9190299999999922
11
154.4499999999999886
21
-143.9000000000000057
0
LINE
8
BLACK
6
CONTINUOUS
10
154.4499999999999886
20
-143.9000000000000057
11
155.3499999999999943
21
-143.9000000000000057
0
LINE
8
BLACK
6
CONTINUOUS
10
155.3499999999999943
20
-143.9000000000000057
11
155.4456710000000044
21
-143.9190299999999922
0
LINE
8
BLACK
6
CONTINUOUS
10
157.8706709999999873
20
-143.8940299999999866
11
157.9517769999999928
21
-143.9482229999999845
0
LINE
8
BLACK
6
CONTINUOUS
10
157.9517769999999928
20
-143.9482229999999845
11
158.0059699999999907
21
-144.0293289999999899
0
LINE
8
BLACK
6
CONTINUOUS
10
158.0059699999999907
20
-144.0293289999999899
11
158.0250000000000057
21
-144.125
0
LINE
8
BLACK
6
CONTINUOUS
10
158.0250000000000057
20
-144.125
11
158.0250000000000057
21
-144.7999999999999829
0
LINE
8
BLACK
6
CONTINUOUS
10
158.0250000000000057
20
-144.7999999999999829
11
158.0059699999999907
21
-144.895670999999993
0
LINE
8
BLACK
6
CONTINUOUS
10
158.0059699999999907
20
-144.895670999999993
11
157.9517769999999928
21
-144.9767769999999985
0
LINE
8
BLACK
6
CONTINUOUS
10
157.9517769999999928
20
-144.9767769999999985
11
157.8706709999999873
21
-145.0309699999999964
0
LINE
8
BLACK
6
CONTINUOUS
10
157.8706709999999873
20
-145.0309699999999964
11
157.7750000000000057
21
-145.0499999999999829
0
LINE
8
BLACK
6
CONTINUOUS
10
157.7750000000000057
20
-145.0499999999999829
11
156.8249999999999886
21
-145.0499999999999829
0
LINE
8
BLACK
6
CONTINUOUS
10
156.8249999999999886
20
-145.0499999999999829
11
156.729329000000007
21
-145.0309699999999964
0
LINE
8
BLACK
6
CONTINUOUS
10
156.729329000000007
20
-145.0309699999999964
11
156.6482230000000015
21
-144.9767769999999985
0
LINE
8
BLACK
6
CONTINUOUS
10
156.6482230000000015
20
-144.9767769999999985
11
156.5940300000000036
21
-144.895670999999993
0
LINE
8
BLACK
6
CONTINUOUS
10
156.5940300000000036
20
-144.895670999999993
11
156.5749999999999886
21
-144.7999999999999829
0
LINE
8
BLACK
6
CONTINUOUS
10
156.5749999999999886
20
-144.7999999999999829
11
156.5749999999999886
21
-144.125
0
LINE
8
BLACK
6
CONTINUOUS
10
156.5749999999999886
20
-144.125
11
156.5940300000000036
21
-144.0293289999999899
0
LINE
8
BLACK
6
CONTINUOUS
10
156.5940300000000036
20
-144.0293289999999899
11
156.6482230000000015
21
-143.9482229999999845
0
LINE
8
BLACK
6
CONTINUOUS
10
156.6482230000000015
20
-143.9482229999999845
11
156.729329000000007
21
-143.8940299999999866
0
LINE
8
BLACK
6
CONTINUOUS
10
156.729329000000007
20
-143.8940299999999866
11
156.8249999999999886
21
-143.875
0
LINE
8
BLACK
6
CONTINUOUS
10
156.8249999999999886
20
-143.875
11
157.7750000000000057
21
-143.875
0
LINE
8
BLACK
6
CONTINUOUS
10
157.7750000000000057
20
-143.875
11
157.8706709999999873
21
-143.8940299999999866
0
LINE
8
BLACK
6
CONTINUOUS
10
125.5956709999999958
20
-143.2790300000000059
11
125.6767770000000013
21
-143.3332230000000038
0
LINE
8
BLACK
6
CONTINUOUS
10
125.6767770000000013
20
-143.3332230000000038
11
125.7309699999999992
21
-143.4143289999999809
0
LINE
8
BLACK
6
CONTINUOUS
10
125.7309699999999992
20
-143.4143289999999809
11
125.75
21
-143.5099999999999909
0
LINE
8
BLACK
6
CONTINUOUS
10
125.75
20
-143.5099999999999909
11
125.75
21
-144.2099999999999795
0
LINE
8
BLACK
6
CONTINUOUS
10
125.75
20
-144.2099999999999795
11
125.7309699999999992
21
-144.3056709999999896
0
LINE
8
BLACK
6
CONTINUOUS
10
125.7309699999999992
20
-144.3056709999999896
11
125.6767770000000013
21
-144.386776999999995
0
LINE
8
BLACK
6
CONTINUOUS
10
125.6767770000000013
20
-144.386776999999995
11
125.5956709999999958
21
-144.440969999999993
0
LINE
8
BLACK
6
CONTINUOUS
10
125.5956709999999958
20
-144.440969999999993
11
125.5
21
-144.4599999999999795
0
LINE
8
BLACK
6
CONTINUOUS
10
125.5
20
-144.4599999999999795
11
124.5999999999999943
21
-144.4599999999999795
0
LINE
8
BLACK
6
CONTINUOUS
10
124.5999999999999943
20
-144.4599999999999795
11
124.5043289999999985
21
-144.440969999999993
0
LINE
8
BLACK
6
CONTINUOUS
10
124.5043289999999985
20
-144.440969999999993
11
124.423222999999993
21
-144.386776999999995
0
LINE
8
BLACK
6
CONTINUOUS
10
124.423222999999993
20
-144.386776999999995
11
124.3690299999999951
21
-144.3056709999999896
0
LINE
8
BLACK
6
CONTINUOUS
10
124.3690299999999951
20
-144.3056709999999896
11
124.3499999999999943
21
-144.2099999999999795
0
LINE
8
BLACK
6
CONTINUOUS
10
124.3499999999999943
20
-144.2099999999999795
11
124.3499999999999943
21
-143.5099999999999909
0
LINE
8
BLACK
6
CONTINUOUS
10
124.3499999999999943
20
-143.5099999999999909
11
124.3690299999999951
21
-143.4143289999999809
0
LINE
8
BLACK
6
CONTINUOUS
10
124.3690299999999951
20
-143.4143289999999809
11
124.423222999999993
21
-143.3332230000000038
0
LINE
8
BLACK
6
CONTINUOUS
10
124.423222999999993
20
-143.3332230000000038
11
124.5043289999999985
21
-143.2790300000000059
0
LINE
8
BLACK
6
CONTINUOUS
10
124.5043289999999985
20
-143.2790300000000059
11
124.5999999999999943
21
-143.2599999999999909
0
LINE
8
BLACK
6
CONTINUOUS
10
124.5999999999999943
20
-143.2599999999999909
11
125.5
21
-143.2599999999999909
0
LINE
8
BLACK
6
CONTINUOUS
10
125.5
20
-143.2599999999999909
11
125.5956709999999958
21
-143.2790300000000059
0
LINE
8
BLACK
6
CONTINUOUS
10
122.1206699999999898
20
-142.8190299999999979
11
122.2017759999999953
21
-142.8732239999999933
0
LINE
8
BLACK
6
CONTINUOUS
10
122.2017759999999953
20
-142.8732239999999933
11
122.2559699999999907
21
-142.9543299999999988
0
LINE
8
BLACK
6
CONTINUOUS
10
122.2559699999999907
20
-142.9543299999999988
11
122.274998999999994
21
-143.0500020000000063
0
LINE
8
BLACK
6
CONTINUOUS
10
122.274998999999994
20
-143.0500020000000063
11
122.2749999999999915
21
-143.9749989999999968
0
LINE
8
BLACK
6
CONTINUOUS
10
122.2749999999999915
20
-143.9749989999999968
11
122.2559699999999907
21
-144.0706700000000069
0
LINE
8
BLACK
6
CONTINUOUS
10
122.2559699999999907
20
-144.0706700000000069
11
122.2017759999999953
21
-144.1517759999999839
0
LINE
8
BLACK
6
CONTINUOUS
10
122.2017759999999953
20
-144.1517759999999839
11
122.1206699999999898
21
-144.2059699999999793
0
LINE
8
BLACK
6
CONTINUOUS
10
122.1206699999999898
20
-144.2059699999999793
11
122.0249979999999965
21
-144.2249989999999968
0
LINE
8
BLACK
6
CONTINUOUS
10
122.0249979999999965
20
-144.2249989999999968
11
120.7750009999999889
21
-144.2249999999999943
0
LINE
8
BLACK
6
CONTINUOUS
10
120.7750009999999889
20
-144.2249999999999943
11
120.6793299999999931
21
-144.2059699999999793
0
LINE
8
BLACK
6
CONTINUOUS
10
120.6793299999999931
20
-144.2059699999999793
11
120.5982239999999877
21
-144.1517759999999839
0
LINE
8
BLACK
6
CONTINUOUS
10
120.5982239999999877
20
-144.1517759999999839
11
120.5440299999999922
21
-144.0706700000000069
0
LINE
8
BLACK
6
CONTINUOUS
10
120.5440299999999922
20
-144.0706700000000069
11
120.5250009999999889
21
-143.9749979999999994
0
LINE
8
BLACK
6
CONTINUOUS
10
120.5250009999999889
20
-143.9749979999999994
11
120.5249999999999915
21
-143.0500009999999804
0
LINE
8
BLACK
6
CONTINUOUS
10
120.5249999999999915
20
-143.0500009999999804
11
120.5440299999999922
21
-142.9543299999999988
0
LINE
8
BLACK
6
CONTINUOUS
10
120.5440299999999922
20
-142.9543299999999988
11
120.5982239999999877
21
-142.8732239999999933
0
LINE
8
BLACK
6
CONTINUOUS
10
120.5982239999999877
20
-142.8732239999999933
11
120.6793299999999931
21
-142.8190299999999979
0
LINE
8
BLACK
6
CONTINUOUS
10
120.6793299999999931
20
-142.8190299999999979
11
120.7750020000000006
21
-142.8000009999999804
0
LINE
8
BLACK
6
CONTINUOUS
10
120.7750020000000006
20
-142.8000009999999804
11
122.024998999999994
21
-142.7999999999999829
0
LINE
8
BLACK
6
CONTINUOUS
10
122.024998999999994
20
-142.7999999999999829
11
122.1206699999999898
21
-142.8190299999999979
0
LINE
8
BLACK
6
CONTINUOUS
10
149.5456709999999987
20
-140.7190300000000036
11
149.6267770000000041
21
-140.7732230000000015
0
LINE
8
BLACK
6
CONTINUOUS
10
149.6267770000000041
20
-140.7732230000000015
11
149.6809700000000021
21
-140.854329000000007
0
LINE
8
BLACK
6
CONTINUOUS
10
149.6809700000000021
20
-140.854329000000007
11
149.6999999999999886
21
-140.9499999999999886
0
LINE
8
BLACK
6
CONTINUOUS
10
149.6999999999999886
20
-140.9499999999999886
11
149.6999999999999886
21
-141.6500000000000057
0
LINE
8
BLACK
6
CONTINUOUS
10
149.6999999999999886
20
-141.6500000000000057
11
149.6809700000000021
21
-141.7456709999999873
0
LINE
8
BLACK
6
CONTINUOUS
10
149.6809700000000021
20
-141.7456709999999873
11
149.6267770000000041
21
-141.8267769999999928
0
LINE
8
BLACK
6
CONTINUOUS
10
149.6267770000000041
20
-141.8267769999999928
11
149.5456709999999987
21
-141.8809699999999907
0
LINE
8
BLACK
6
CONTINUOUS
10
149.5456709999999987
20
-141.8809699999999907
11
149.4499999999999886
21
-141.9000000000000057
0
LINE
8
BLACK
6
CONTINUOUS
10
149.4499999999999886
20
-141.9000000000000057
11
148.5499999999999829
21
-141.9000000000000057
0
LINE
8
BLACK
6
CONTINUOUS
10
148.5499999999999829
20
-141.9000000000000057
11
148.4543290000000013
21
-141.8809699999999907
0
LINE
8
BLACK
6
CONTINUOUS
10
148.4543290000000013
20
-141.8809699999999907
11
148.3732229999999959
21
-141.8267769999999928
0
LINE
8
BLACK
6
CONTINUOUS
10
148.3732229999999959
20
-141.8267769999999928
11
148.3190299999999979
21
-141.7456709999999873
0
LINE
8
BLACK
6
CONTINUOUS
10
148.3190299999999979
20
-141.7456709999999873
11
148.2999999999999829
21
-141.6500000000000057
0
LINE
8
BLACK
6
CONTINUOUS
10
148.2999999999999829
20
-141.6500000000000057
11
148.2999999999999829
21
-140.9499999999999886
0
LINE
8
BLACK
6
CONTINUOUS
10
148.2999999999999829
20
-140.9499999999999886
11
148.3190299999999979
21
-140.854329000000007
0
LINE
8
BLACK
6
CONTINUOUS
10
148.3190299999999979
20
-140.854329000000007
11
148.3732229999999959
21
-140.7732230000000015
0
LINE
8
BLACK
6
CONTINUOUS
10
148.3732229999999959
20
-140.7732230000000015
11
148.4543290000000013
21
-140.7190300000000036
0
LINE
8
BLACK
6
CONTINUOUS
10
148.4543290000000013
20
-140.7190300000000036
11
148.5499999999999829
21
-140.6999999999999886
0
LINE
8
BLACK
6
CONTINUOUS
10
148.5499999999999829
20
-140.6999999999999886
11
149.4499999999999886
21
-140.6999999999999886
0
LINE
8
BLACK
6
CONTINUOUS
10
149.4499999999999886
20
-140.6999999999999886
11
149.5456709999999987
21
-140.7190300000000036
0
LINE
8
BLACK
6
CONTINUOUS
10
154.770670999999993
20
-140.6690299999999922
11
154.8517769999999985
21
-140.7232229999999902
0
LINE
8
BLACK
6
CONTINUOUS
10
154.8517769999999985
20
-140.7232229999999902
11
154.9059699999999964
21
-140.8043289999999956
0
LINE
8
BLACK
6
CONTINUOUS
10
154.9059699999999964
20
-140.8043289999999956
11
154.9249999999999829
21
-140.9000000000000057
0
LINE
8
BLACK
6
CONTINUOUS
10
154.9249999999999829
20
-140.9000000000000057
11
154.9249999999999829
21
-141.5749999999999886
0
LINE
8
BLACK
6
CONTINUOUS
10
154.9249999999999829
20
-141.5749999999999886
11
154.9059699999999964
21
-141.6706709999999987
0
LINE
8
BLACK
6
CONTINUOUS
10
154.9059699999999964
20
-141.6706709999999987
11
154.8517769999999985
21
-141.7517770000000041
0
LINE
8
BLACK
6
CONTINUOUS
10
154.8517769999999985
20
-141.7517770000000041
11
154.770670999999993
21
-141.8059700000000021
0
LINE
8
BLACK
6
CONTINUOUS
10
154.770670999999993
20
-141.8059700000000021
11
154.6749999999999829
21
-141.8249999999999886
0
LINE
8
BLACK
6
CONTINUOUS
10
154.6749999999999829
20
-141.8249999999999886
11
153.7249999999999943
21
-141.8249999999999886
0
LINE
8
BLACK
6
CONTINUOUS
10
153.7249999999999943
20
-141.8249999999999886
11
153.6293289999999843
21
-141.8059700000000021
0
LINE
8
BLACK
6
CONTINUOUS
10
153.6293289999999843
20
-141.8059700000000021
11
153.5482230000000072
21
-141.7517770000000041
0
LINE
8
BLACK
6
CONTINUOUS
10
153.5482230000000072
20
-141.7517770000000041
11
153.4940299999999809
21
-141.6706709999999987
0
LINE
8
BLACK
6
CONTINUOUS
10
153.4940299999999809
20
-141.6706709999999987
11
153.4749999999999943
21
-141.5749999999999886
0
LINE
8
BLACK
6
CONTINUOUS
10
153.4749999999999943
20
-141.5749999999999886
11
153.4749999999999943
21
-140.9000000000000057
0
LINE
8
BLACK
6
CONTINUOUS
10
153.4749999999999943
20
-140.9000000000000057
11
153.4940299999999809
21
-140.8043289999999956
0
LINE
8
BLACK
6
CONTINUOUS
10
153.4940299999999809
20
-140.8043289999999956
11
153.5482230000000072
21
-140.7232229999999902
0
LINE
8
BLACK
6
CONTINUOUS
10
153.5482230000000072
20
-140.7232229999999902
11
153.6293289999999843
21
-140.6690299999999922
0
LINE
8
BLACK
6
CONTINUOUS
10
153.6293289999999843
20
-140.6690299999999922
11
153.7249999999999943
21
-140.6500000000000057
0
LINE
8
BLACK
6
CONTINUOUS
10
153.7249999999999943
20
-140.6500000000000057
11
154.6749999999999829
21
-140.6500000000000057
0
LINE
8
BLACK
6
CONTINUOUS
10
154.6749999999999829
20
-140.6500000000000057
11
154.770670999999993
21
-140.6690299999999922
0
LINE
8
BLACK
6
CONTINUOUS
10
147.145670999999993
20
-140.6190299999999809
11
147.2267769999999985
21
-140.6732230000000072
0
LINE
8
BLACK
6
CONTINUOUS
10
147.2267769999999985
20
-140.6732230000000072
11
147.2809699999999964
21
-140.7543289999999843
0
LINE
8
BLACK
6
CONTINUOUS
10
147.2809699999999964
20
-140.7543289999999843
11
147.2999999999999829
21
-140.8499999999999943
0
LINE
8
BLACK
6
CONTINUOUS
10
147.2999999999999829
20
-140.8499999999999943
11
147.2999999999999829
21
-141.5499999999999829
0
LINE
8
BLACK
6
CONTINUOUS
10
147.2999999999999829
20
-141.5499999999999829
11
147.2809699999999964
21
-141.645670999999993
0
LINE
8
BLACK
6
CONTINUOUS
10
147.2809699999999964
20
-141.645670999999993
11
147.2267769999999985
21
-141.7267769999999985
0
LINE
8
BLACK
6
CONTINUOUS
10
147.2267769999999985
20
-141.7267769999999985
11
147.145670999999993
21
-141.7809699999999964
0
LINE
8
BLACK
6
CONTINUOUS
10
147.145670999999993
20
-141.7809699999999964
11
147.0499999999999829
21
-141.7999999999999829
0
LINE
8
BLACK
6
CONTINUOUS
10
147.0499999999999829
20
-141.7999999999999829
11
146.1500000000000057
21
-141.7999999999999829
0
LINE
8
BLACK
6
CONTINUOUS
10
146.1500000000000057
20
-141.7999999999999829
11
146.0543289999999956
21
-141.7809699999999964
0
LINE
8
BLACK
6
CONTINUOUS
10
146.0543289999999956
20
-141.7809699999999964
11
145.9732229999999902
21
-141.7267769999999985
0
LINE
8
BLACK
6
CONTINUOUS
10
145.9732229999999902
20
-141.7267769999999985
11
145.9190299999999922
21
-141.645670999999993
0
LINE
8
BLACK
6
CONTINUOUS
10
145.9190299999999922
20
-141.645670999999993
11
145.9000000000000057
21
-141.5499999999999829
0
LINE
8
BLACK
6
CONTINUOUS
10
145.9000000000000057
20
-141.5499999999999829
11
145.9000000000000057
21
-140.8499999999999943
0
LINE
8
BLACK
6
CONTINUOUS
10
145.9000000000000057
20
-140.8499999999999943
11
145.9190299999999922
21
-140.7543289999999843
0
LINE
8
BLACK
6
CONTINUOUS
10
145.9190299999999922
20
-140.7543289999999843
11
145.9732229999999902
21
-140.6732230000000072
0
LINE
8
BLACK
6
CONTINUOUS
10
145.9732229999999902
20
-140.6732230000000072
11
146.0543289999999956
21
-140.6190299999999809
0
LINE
8
BLACK
6
CONTINUOUS
10
146.0543289999999956
20
-140.6190299999999809
11
146.1500000000000057
21
-140.5999999999999943
0
LINE
8
BLACK
6
CONTINUOUS
10
146.1500000000000057
20
-140.5999999999999943
11
147.0499999999999829
21
-140.5999999999999943
0
LINE
8
BLACK
6
CONTINUOUS
10
147.0499999999999829
20
-140.5999999999999943
11
147.145670999999993
21
-140.6190299999999809
0
LINE
8
BLACK
6
CONTINUOUS
10
152.7456709999999873
20
-140.6190299999999809
11
152.8267769999999928
21
-140.6732230000000072
0
LINE
8
BLACK
6
CONTINUOUS
10
152.8267769999999928
20
-140.6732230000000072
11
152.8809699999999907
21
-140.7543289999999843
0
LINE
8
BLACK
6
CONTINUOUS
10
152.8809699999999907
20
-140.7543289999999843
11
152.9000000000000057
21
-140.8499999999999943
0
LINE
8
BLACK
6
CONTINUOUS
10
152.9000000000000057
20
-140.8499999999999943
11
152.9000000000000057
21
-141.5499999999999829
0
LINE
8
BLACK
6
CONTINUOUS
10
152.9000000000000057
20
-141.5499999999999829
11
152.8809699999999907
21
-141.645670999999993
0
LINE
8
BLACK
6
CONTINUOUS
10
152.8809699999999907
20
-141.645670999999993
11
152.8267769999999928
21
-141.7267769999999985
0
LINE
8
BLACK
6
CONTINUOUS
10
152.8267769999999928
20
-141.7267769999999985
11
152.7456709999999873
21
-141.7809699999999964
0
LINE
8
BLACK
6
CONTINUOUS
10
152.7456709999999873
20
-141.7809699999999964
11
152.6500000000000057
21
-141.7999999999999829
0
LINE
8
BLACK
6
CONTINUOUS
10
152.6500000000000057
20
-141.7999999999999829
11
151.75
21
-141.7999999999999829
0
LINE
8
BLACK
6
CONTINUOUS
10
151.75
20
-141.7999999999999829
11
151.6543289999999899
21
-141.7809699999999964
0
LINE
8
BLACK
6
CONTINUOUS
10
151.6543289999999899
20
-141.7809699999999964
11
151.5732229999999845
21
-141.7267769999999985
0
LINE
8
BLACK
6
CONTINUOUS
10
151.5732229999999845
20
-141.7267769999999985
11
151.5190299999999866
21
-141.645670999999993
0
LINE
8
BLACK
6
CONTINUOUS
10
151.5190299999999866
20
-141.645670999999993
11
151.5
21
-141.5499999999999829
0
LINE
8
BLACK
6
CONTINUOUS
10
151.5
20
-141.5499999999999829
11
151.5
21
-140.8499999999999943
0
LINE
8
BLACK
6
CONTINUOUS
10
151.5
20
-140.8499999999999943
11
151.5190299999999866
21
-140.7543289999999843
0
LINE
8
BLACK
6
CONTINUOUS
10
151.5190299999999866
20
-140.7543289999999843
11
151.5732229999999845
21
-140.6732230000000072
0
LINE
8
BLACK
6
CONTINUOUS
10
151.5732229999999845
20
-140.6732230000000072
11
151.6543289999999899
21
-140.6190299999999809
0
LINE
8
BLACK
6
CONTINUOUS
10
151.6543289999999899
20
-140.6190299999999809
11
151.75
21
-140.5999999999999943
0
LINE
8
BLACK
6
CONTINUOUS
10
151.75
20
-140.5999999999999943
11
152.6500000000000057
21
-140.5999999999999943
0
LINE
8
BLACK
6
CONTINUOUS
10
152.6500000000000057
20
-140.5999999999999943
11
152.7456709999999873
21
-140.6190299999999809
0
LINE
8
BLACK
6
CONTINUOUS
10
144.2456709999999873
20
-140.5190299999999866
11
144.3267769999999928
21
-140.5732229999999845
0
LINE
8
BLACK
6
CONTINUOUS
10
144.3267769999999928
20
-140.5732229999999845
11
144.3809699999999907
21
-140.6543289999999899
0
LINE
8
BLACK
6
CONTINUOUS
10
144.3809699999999907
20
-140.6543289999999899
11
144.4000000000000057
21
-140.75
0
LINE
8
BLACK
6
CONTINUOUS
10
144.4000000000000057
20
-140.75
11
144.4000000000000057
21
-141.4499999999999886
0
LINE
8
BLACK
6
CONTINUOUS
10
144.4000000000000057
20
-141.4499999999999886
11
144.3809699999999907
21
-141.5456709999999987
0
LINE
8
BLACK
6
CONTINUOUS
10
144.3809699999999907
20
-141.5456709999999987
11
144.3267769999999928
21
-141.6267770000000041
0
LINE
8
BLACK
6
CONTINUOUS
10
144.3267769999999928
20
-141.6267770000000041
11
144.2456709999999873
21
-141.6809700000000021
0
LINE
8
BLACK
6
CONTINUOUS
10
144.2456709999999873
20
-141.6809700000000021
11
144.1500000000000057
21
-141.6999999999999886
0
LINE
8
BLACK
6
CONTINUOUS
10
144.1500000000000057
20
-141.6999999999999886
11
143.25
21
-141.6999999999999886
0
LINE
8
BLACK
6
CONTINUOUS
10
143.25
20
-141.6999999999999886
11
143.1543289999999899
21
-141.6809700000000021
0
LINE
8
BLACK
6
CONTINUOUS
10
143.1543289999999899
20
-141.6809700000000021
11
143.0732229999999845
21
-141.6267770000000041
0
LINE
8
BLACK
6
CONTINUOUS
10
143.0732229999999845
20
-141.6267770000000041
11
143.0190299999999866
21
-141.5456709999999987
0
LINE
8
BLACK
6
CONTINUOUS
10
143.0190299999999866
20
-141.5456709999999987
11
143.
21
-141.4499999999999886
0
LINE
8
BLACK
6
CONTINUOUS
10
143.
20
-141.4499999999999886
11
143.
21
-140.75
0
LINE
8
BLACK
6
CONTINUOUS
10
143.
20
-140.75
11
143.0190299999999866
21
-140.6543289999999899
0
LINE
8
BLACK
6
CONTINUOUS
10
143.0190299999999866
20
-140.6543289999999899
11
143.0732229999999845
21
-140.5732229999999845
0
LINE
8
BLACK
6
CONTINUOUS
10
143.0732229999999845
20
-140.5732229999999845
11
143.1543289999999899
21
-140.5190299999999866
0
LINE
8
BLACK
6
CONTINUOUS
10
143.1543289999999899
20
-140.5190299999999866
11
143.25
21
-140.5
0
LINE
8
BLACK
6
CONTINUOUS
10
143.25
20
-140.5
11
144.1500000000000057
21
-140.5
0
LINE
8
BLACK
6
CONTINUOUS
10
144.1500000000000057
20
-140.5
11
144.2456709999999873
21
-140.5190299999999866
0
LINE
8
BLACK
6
CONTINUOUS
10
129.9706709999999816
20
-140.4690300000000036
11
130.0517769999999871
21
-140.5232230000000015
0
LINE
8
BLACK
6
CONTINUOUS
10
130.0517769999999871
20
-140.5232230000000015
11
130.105969999999985
21
-140.604329000000007
0
LINE
8
BLACK
6
CONTINUOUS
10
130.105969999999985
20
-140.604329000000007
11
130.125
21
-140.6999999999999886
0
LINE
8
BLACK
6
CONTINUOUS
10
130.125
20
-140.6999999999999886
11
130.125
21
-141.375
0
LINE
8
BLACK
6
CONTINUOUS
10
130.125
20
-141.375
11
130.105969999999985
21
-141.4706709999999816
0
LINE
8
BLACK
6
CONTINUOUS
10
130.105969999999985
20
-141.4706709999999816
11
130.0517769999999871
21
-141.5517769999999871
0
LINE
8
BLACK
6
CONTINUOUS
10
130.0517769999999871
20
-141.5517769999999871
11
129.9706709999999816
21
-141.605969999999985
0
LINE
8
BLACK
6
CONTINUOUS
10
129.9706709999999816
20
-141.605969999999985
11
129.875
21
-141.625
0
LINE
8
BLACK
6
CONTINUOUS
10
129.875
20
-141.625
11
128.9249999999999829
21
-141.625
0
LINE
8
BLACK
6
CONTINUOUS
10
128.9249999999999829
20
-141.625
11
128.8293290000000013
21
-141.605969999999985
0
LINE
8
BLACK
6
CONTINUOUS
10
128.8293290000000013
20
-141.605969999999985
11
128.7482229999999959
21
-141.5517769999999871
0
LINE
8
BLACK
6
CONTINUOUS
10
128.7482229999999959
20
-141.5517769999999871
11
128.6940299999999979
21
-141.4706709999999816
0
LINE
8
BLACK
6
CONTINUOUS
10
128.6940299999999979
20
-141.4706709999999816
11
128.6749999999999829
21
-141.375
0
LINE
8
BLACK
6
CONTINUOUS
10
128.6749999999999829
20
-141.375
11
128.6749999999999829
21
-140.6999999999999886
0
LINE
8
BLACK
6
CONTINUOUS
10
128.6749999999999829
20
-140.6999999999999886
11
128.6940299999999979
21
-140.604329000000007
0
LINE
8
BLACK
6
CONTINUOUS
10
128.6940299999999979
20
-140.604329000000007
11
128.7482229999999959
21
-140.5232230000000015
0
LINE
8
BLACK
6
CONTINUOUS
10
128.7482229999999959
20
-140.5232230000000015
11
128.8293290000000013
21
-140.4690300000000036
0
LINE
8
BLACK
6
CONTINUOUS
10
128.8293290000000013
20
-140.4690300000000036
11
128.9249999999999829
21
-140.4499999999999886
0
LINE
8
BLACK
6
CONTINUOUS
10
128.9249999999999829
20
-140.4499999999999886
11
129.875
21
-140.4499999999999886
0
LINE
8
BLACK
6
CONTINUOUS
10
129.875
20
-140.4499999999999886
11
129.9706709999999816
21
-140.4690300000000036
0
LINE
8
BLACK
6
CONTINUOUS
10
132.3706709999999873
20
-140.4690300000000036
11
132.4517769999999928
21
-140.5232230000000015
0
LINE
8
BLACK
6
CONTINUOUS
10
132.4517769999999928
20
-140.5232230000000015
11
132.5059699999999907
21
-140.604329000000007
0
LINE
8
BLACK
6
CONTINUOUS
10
132.5059699999999907
20
-140.604329000000007
11
132.5250000000000057
21
-140.6999999999999886
0
LINE
8
BLACK
6
CONTINUOUS
10
132.5250000000000057
20
-140.6999999999999886
11
132.5250000000000057
21
-141.375
0
LINE
8
BLACK
6
CONTINUOUS
10
132.5250000000000057
20
-141.375
11
132.5059699999999907
21
-141.4706709999999816
0
LINE
8
BLACK
6
CONTINUOUS
10
132.5059699999999907
20
-141.4706709999999816
11
132.4517769999999928
21
-141.5517769999999871
0
LINE
8
BLACK
6
CONTINUOUS
10
132.4517769999999928
20
-141.5517769999999871
11
132.3706709999999873
21
-141.605969999999985
0
LINE
8
BLACK
6
CONTINUOUS
10
132.3706709999999873
20
-141.605969999999985
11
132.2750000000000057
21
-141.625
0
LINE
8
BLACK
6
CONTINUOUS
10
132.2750000000000057
20
-141.625
11
131.3249999999999886
21
-141.625
0
LINE
8
BLACK
6
CONTINUOUS
10
131.3249999999999886
20
-141.625
11
131.229329000000007
21
-141.605969999999985
0
LINE
8
BLACK
6
CONTINUOUS
10
131.229329000000007
20
-141.605969999999985
11
131.1482230000000015
21
-141.5517769999999871
0
LINE
8
BLACK
6
CONTINUOUS
10
131.1482230000000015
20
-141.5517769999999871
11
131.0940300000000036
21
-141.4706709999999816
0
LINE
8
BLACK
6
CONTINUOUS
10
131.0940300000000036
20
-141.4706709999999816
11
131.0749999999999886
21
-141.375
0
LINE
8
BLACK
6
CONTINUOUS
10
131.0749999999999886
20
-141.375
11
131.0749999999999886
21
-140.6999999999999886
0
LINE
8
BLACK
6
CONTINUOUS
10
131.0749999999999886
20
-140.6999999999999886
11
131.0940300000000036
21
-140.604329000000007
0
LINE
8
BLACK
6
CONTINUOUS
10
131.0940300000000036
20
-140.604329000000007
11
131.1482230000000015
21
-140.5232230000000015
0
LINE
8
BLACK
6
CONTINUOUS
10
131.1482230000000015
20
-140.5232230000000015
11
131.229329000000007
21
-140.4690300000000036
0
LINE
8
BLACK
6
CONTINUOUS
10
131.229329000000007
20
-140.4690300000000036
11
131.3249999999999886
21
-140.4499999999999886
0
LINE
8
BLACK
6
CONTINUOUS
10
131.3249999999999886
20
-140.4499999999999886
11
132.2750000000000057
21
-140.4499999999999886
0
LINE
8
BLACK
6
CONTINUOUS
10
132.2750000000000057
20
-140.4499999999999886
11
132.3706709999999873
21
-140.4690300000000036
0
LINE
8
BLACK
6
CONTINUOUS
10
127.645670999999993
20
-140.4190299999999922
11
127.7267769999999985
21
-140.4732229999999902
0
LINE
8
BLACK
6
CONTINUOUS
10
127.7267769999999985
20
-140.4732229999999902
11
127.7809699999999964
21
-140.5543289999999956
0
LINE
8
BLACK
6
CONTINUOUS
10
127.7809699999999964
20
-140.5543289999999956
11
127.7999999999999972
21
-140.6500000000000057
0
LINE
8
BLACK
6
CONTINUOUS
10
127.7999999999999972
20
-140.6500000000000057
11
127.7999999999999972
21
-141.3499999999999943
0
LINE
8
BLACK
6
CONTINUOUS
10
127.7999999999999972
20
-141.3499999999999943
11
127.7809699999999964
21
-141.4456710000000044
0
LINE
8
BLACK
6
CONTINUOUS
10
127.7809699999999964
20
-141.4456710000000044
11
127.7267769999999985
21
-141.5267769999999814
0
LINE
8
BLACK
6
CONTINUOUS
10
127.7267769999999985
20
-141.5267769999999814
11
127.645670999999993
21
-141.5809700000000078
0
LINE
8
BLACK
6
CONTINUOUS
10
127.645670999999993
20
-141.5809700000000078
11
127.5499999999999972
21
-141.5999999999999943
0
LINE
8
BLACK
6
CONTINUOUS
10
127.5499999999999972
20
-141.5999999999999943
11
126.6499999999999915
21
-141.5999999999999943
0
LINE
8
BLACK
6
CONTINUOUS
10
126.6499999999999915
20
-141.5999999999999943
11
126.5543289999999956
21
-141.5809700000000078
0
LINE
8
BLACK
6
CONTINUOUS
10
126.5543289999999956
20
-141.5809700000000078
11
126.4732229999999902
21
-141.5267769999999814
0
LINE
8
BLACK
6
CONTINUOUS
10
126.4732229999999902
20
-141.5267769999999814
11
126.4190299999999922
21
-141.4456710000000044
0
LINE
8
BLACK
6
CONTINUOUS
10
126.4190299999999922
20
-141.4456710000000044
11
126.3999999999999915
21
-141.3499999999999943
0
LINE
8
BLACK
6
CONTINUOUS
10
126.3999999999999915
20
-141.3499999999999943
11
126.3999999999999915
21
-140.6500000000000057
0
LINE
8
BLACK
6
CONTINUOUS
10
126.3999999999999915
20
-140.6500000000000057
11
126.4190299999999922
21
-140.5543289999999956
0
LINE
8
BLACK
6
CONTINUOUS
10
126.4190299999999922
20
-140.5543289999999956
11
126.4732229999999902
21
-140.4732229999999902
0
LINE
8
BLACK
6
CONTINUOUS
10
126.4732229999999902
20
-140.4732229999999902
11
126.5543289999999956
21
-140.4190299999999922
0
LINE
8
BLACK
6
CONTINUOUS
10
126.5543289999999956
20
-140.4190299999999922
11
126.6499999999999915
21
-140.4000000000000057
0
LINE
8
BLACK
6
CONTINUOUS
10
126.6499999999999915
20
-140.4000000000000057
11
127.5499999999999972
21
-140.4000000000000057
0
LINE
8
BLACK
6
CONTINUOUS
10
127.5499999999999972
20
-140.4000000000000057
11
127.645670999999993
21
-140.4190299999999922
0
LINE
8
BLACK
6
CONTINUOUS
10
134.5456709999999987
20
-140.4190299999999922
11
134.6267770000000041
21
-140.4732229999999902
0
LINE
8
BLACK
6
CONTINUOUS
10
134.6267770000000041
20
-140.4732229999999902
11
134.6809700000000021
21
-140.5543289999999956
0
LINE
8
BLACK
6
CONTINUOUS
10
134.6809700000000021
20
-140.5543289999999956
11
134.6999999999999886
21
-140.6500000000000057
0
LINE
8
BLACK
6
CONTINUOUS
10
134.6999999999999886
20
-140.6500000000000057
11
134.6999999999999886
21
-141.3499999999999943
0
LINE
8
BLACK
6
CONTINUOUS
10
134.6999999999999886
20
-141.3499999999999943
11
134.6809700000000021
21
-141.4456710000000044
0
LINE
8
BLACK
6
CONTINUOUS
10
134.6809700000000021
20
-141.4456710000000044
11
134.6267770000000041
21
-141.5267769999999814
0
LINE
8
BLACK
6
CONTINUOUS
10
134.6267770000000041
20
-141.5267769999999814
11
134.5456709999999987
21
-141.5809700000000078
0
LINE
8
BLACK
6
CONTINUOUS
10
134.5456709999999987
20
-141.5809700000000078
11
134.4499999999999886
21
-141.5999999999999943
0
LINE
8
BLACK
6
CONTINUOUS
10
134.4499999999999886
20
-141.5999999999999943
11
133.5499999999999829
21
-141.5999999999999943
0
LINE
8
BLACK
6
CONTINUOUS
10
133.5499999999999829
20
-141.5999999999999943
11
133.4543290000000013
21
-141.5809700000000078
0
LINE
8
BLACK
6
CONTINUOUS
10
133.4543290000000013
20
-141.5809700000000078
11
133.3732229999999959
21
-141.5267769999999814
0
LINE
8
BLACK
6
CONTINUOUS
10
133.3732229999999959
20
-141.5267769999999814
11
133.3190299999999979
21
-141.4456710000000044
0
LINE
8
BLACK
6
CONTINUOUS
10
133.3190299999999979
20
-141.4456710000000044
11
133.2999999999999829
21
-141.3499999999999943
0
LINE
8
BLACK
6
CONTINUOUS
10
133.2999999999999829
20
-141.3499999999999943
11
133.2999999999999829
21
-140.6500000000000057
0
LINE
8
BLACK
6
CONTINUOUS
10
133.2999999999999829
20
-140.6500000000000057
11
133.3190299999999979
21
-140.5543289999999956
0
LINE
8
BLACK
6
CONTINUOUS
10
133.3190299999999979
20
-140.5543289999999956
11
133.3732229999999959
21
-140.4732229999999902
0
LINE
8
BLACK
6
CONTINUOUS
10
133.3732229999999959
20
-140.4732229999999902
11
133.4543290000000013
21
-140.4190299999999922
0
LINE
8
BLACK
6
CONTINUOUS
10
133.4543290000000013
20
-140.4190299999999922
11
133.5499999999999829
21
-140.4000000000000057
0
LINE
8
BLACK
6
CONTINUOUS
10
133.5499999999999829
20
-140.4000000000000057
11
134.4499999999999886
21
-140.4000000000000057
0
LINE
8
BLACK
6
CONTINUOUS
10
134.4499999999999886
20
-140.4000000000000057
11
134.5456709999999987
21
-140.4190299999999922
0
LINE
8
BLACK
6
CONTINUOUS
10
136.7956709999999987
20
-140.4190299999999922
11
136.8767770000000041
21
-140.4732229999999902
0
LINE
8
BLACK
6
CONTINUOUS
10
136.8767770000000041
20
-140.4732229999999902
11
136.9309700000000021
21
-140.5543289999999956
0
LINE
8
BLACK
6
CONTINUOUS
10
136.9309700000000021
20
-140.5543289999999956
11
136.9499999999999886
21
-140.6500000000000057
0
LINE
8
BLACK
6
CONTINUOUS
10
136.9499999999999886
20
-140.6500000000000057
11
136.9499999999999886
21
-141.3499999999999943
0
LINE
8
BLACK
6
CONTINUOUS
10
136.9499999999999886
20
-141.3499999999999943
11
136.9309700000000021
21
-141.4456710000000044
0
LINE
8
BLACK
6
CONTINUOUS
10
136.9309700000000021
20
-141.4456710000000044
11
136.8767770000000041
21
-141.5267769999999814
0
LINE
8
BLACK
6
CONTINUOUS
10
136.8767770000000041
20
-141.5267769999999814
11
136.7956709999999987
21
-141.5809700000000078
0
LINE
8
BLACK
6
CONTINUOUS
10
136.7956709999999987
20
-141.5809700000000078
11
136.6999999999999886
21
-141.5999999999999943
0
LINE
8
BLACK
6
CONTINUOUS
10
136.6999999999999886
20
-141.5999999999999943
11
135.7999999999999829
21
-141.5999999999999943
0
LINE
8
BLACK
6
CONTINUOUS
10
135.7999999999999829
20
-141.5999999999999943
11
135.7043290000000013
21
-141.5809700000000078
0
LINE
8
BLACK
6
CONTINUOUS
10
135.7043290000000013
20
-141.5809700000000078
11
135.6232229999999959
21
-141.5267769999999814
0
LINE
8
BLACK
6
CONTINUOUS
10
135.6232229999999959
20
-141.5267769999999814
11
135.5690299999999979
21
-141.4456710000000044
0
LINE
8
BLACK
6
CONTINUOUS
10
135.5690299999999979
20
-141.4456710000000044
11
135.5499999999999829
21
-141.3499999999999943
0
LINE
8
BLACK
6
CONTINUOUS
10
135.5499999999999829
20
-141.3499999999999943
11
135.5499999999999829
21
-140.6500000000000057
0
LINE
8
BLACK
6
CONTINUOUS
10
135.5499999999999829
20
-140.6500000000000057
11
135.5690299999999979
21
-140.5543289999999956
0
LINE
8
BLACK
6
CONTINUOUS
10
135.5690299999999979
20
-140.5543289999999956
11
135.6232229999999959
21
-140.4732229999999902
0
LINE
8
BLACK
6
CONTINUOUS
10
135.6232229999999959
20
-140.4732229999999902
11
135.7043290000000013
21
-140.4190299999999922
0
LINE
8
BLACK
6
CONTINUOUS
10
135.7043290000000013
20
-140.4190299999999922
11
135.7999999999999829
21
-140.4000000000000057
0
LINE
8
BLACK
6
CONTINUOUS
10
135.7999999999999829
20
-140.4000000000000057
11
136.6999999999999886
21
-140.4000000000000057
0
LINE
8
BLACK
6
CONTINUOUS
10
136.6999999999999886
20
-140.4000000000000057
11
136.7956709999999987
21
-140.4190299999999922
0
LINE
8
BLACK
6
CONTINUOUS
10
139.395670999999993
20
-140.4190299999999922
11
139.4767769999999985
21
-140.4732229999999902
0
LINE
8
BLACK
6
CONTINUOUS
10
139.4767769999999985
20
-140.4732229999999902
11
139.5309699999999964
21
-140.5543289999999956
0
LINE
8
BLACK
6
CONTINUOUS
10
139.5309699999999964
20
-140.5543289999999956
11
139.5499999999999829
21
-140.6500000000000057
0
LINE
8
BLACK
6
CONTINUOUS
10
139.5499999999999829
20
-140.6500000000000057
11
139.5499999999999829
21
-141.3499999999999943
0
LINE
8
BLACK
6
CONTINUOUS
10
139.5499999999999829
20
-141.3499999999999943
11
139.5309699999999964
21
-141.4456710000000044
0
LINE
8
BLACK
6
CONTINUOUS
10
139.5309699999999964
20
-141.4456710000000044
11
139.4767769999999985
21
-141.5267769999999814
0
LINE
8
BLACK
6
CONTINUOUS
10
139.4767769999999985
20
-141.5267769999999814
11
139.395670999999993
21
-141.5809700000000078
0
LINE
8
BLACK
6
CONTINUOUS
10
139.395670999999993
20
-141.5809700000000078
11
139.2999999999999829
21
-141.5999999999999943
0
LINE
8
BLACK
6
CONTINUOUS
10
139.2999999999999829
20
-141.5999999999999943
11
138.4000000000000057
21
-141.5999999999999943
0
LINE
8
BLACK
6
CONTINUOUS
10
138.4000000000000057
20
-141.5999999999999943
11
138.3043289999999956
21
-141.5809700000000078
0
LINE
8
BLACK
6
CONTINUOUS
10
138.3043289999999956
20
-141.5809700000000078
11
138.2232229999999902
21
-141.5267769999999814
0
LINE
8
BLACK
6
CONTINUOUS
10
138.2232229999999902
20
-141.5267769999999814
11
138.1690299999999922
21
-141.4456710000000044
0
LINE
8
BLACK
6
CONTINUOUS
10
138.1690299999999922
20
-141.4456710000000044
11
138.1500000000000057
21
-141.3499999999999943
0
LINE
8
BLACK
6
CONTINUOUS
10
138.1500000000000057
20
-141.3499999999999943
11
138.1500000000000057
21
-140.6500000000000057
0
LINE
8
BLACK
6
CONTINUOUS
10
138.1500000000000057
20
-140.6500000000000057
11
138.1690299999999922
21
-140.5543289999999956
0
LINE
8
BLACK
6
CONTINUOUS
10
138.1690299999999922
20
-140.5543289999999956
11
138.2232229999999902
21
-140.4732229999999902
0
LINE
8
BLACK
6
CONTINUOUS
10
138.2232229999999902
20
-140.4732229999999902
11
138.3043289999999956
21
-140.4190299999999922
0
LINE
8
BLACK
6
CONTINUOUS
10
138.3043289999999956
20
-140.4190299999999922
11
138.4000000000000057
21
-140.4000000000000057
0
LINE
8
BLACK
6
CONTINUOUS
10
138.4000000000000057
20
-140.4000000000000057
11
139.2999999999999829
21
-140.4000000000000057
0
LINE
8
BLACK
6
CONTINUOUS
10
139.2999999999999829
20
-140.4000000000000057
11
139.395670999999993
21
-140.4190299999999922
0
LINE
8
BLACK
6
CONTINUOUS
10
141.5456709999999987
20
-140.4190299999999922
11
141.6267770000000041
21
-140.4732229999999902
0
LINE
8
BLACK
6
CONTINUOUS
10
141.6267770000000041
20
-140.4732229999999902
11
141.6809700000000021
21
-140.5543289999999956
0
LINE
8
BLACK
6
CONTINUOUS
10
141.6809700000000021
20
-140.5543289999999956
11
141.6999999999999886
21
-140.6500000000000057
0
LINE
8
BLACK
6
CONTINUOUS
10
141.6999999999999886
20
-140.6500000000000057
11
141.6999999999999886
21
-141.3499999999999943
0
LINE
8
BLACK
6
CONTINUOUS
10
141.6999999999999886
20
-141.3499999999999943
11
141.6809700000000021
21
-141.4456710000000044
0
LINE
8
BLACK
6
CONTINUOUS
10
141.6809700000000021
20
-141.4456710000000044
11
141.6267770000000041
21
-141.5267769999999814
0
LINE
8
BLACK
6
CONTINUOUS
10
141.6267770000000041
20
-141.5267769999999814
11
141.5456709999999987
21
-141.5809700000000078
0
LINE
8
BLACK
6
CONTINUOUS
10
141.5456709999999987
20
-141.5809700000000078
11
141.4499999999999886
21
-141.5999999999999943
0
LINE
8
BLACK
6
CONTINUOUS
10
141.4499999999999886
20
-141.5999999999999943
11
140.5499999999999829
21
-141.5999999999999943
0
LINE
8
BLACK
6
CONTINUOUS
10
140.5499999999999829
20
-141.5999999999999943
11
140.4543290000000013
21
-141.5809700000000078
0
LINE
8
BLACK
6
CONTINUOUS
10
140.4543290000000013
20
-141.5809700000000078
11
140.3732229999999959
21
-141.5267769999999814
0
LINE
8
BLACK
6
CONTINUOUS
10
140.3732229999999959
20
-141.5267769999999814
11
140.3190299999999979
21
-141.4456710000000044
0
LINE
8
BLACK
6
CONTINUOUS
10
140.3190299999999979
20
-141.4456710000000044
11
140.2999999999999829
21
-141.3499999999999943
0
LINE
8
BLACK
6
CONTINUOUS
10
140.2999999999999829
20
-141.3499999999999943
11
140.2999999999999829
21
-140.6500000000000057
0
LINE
8
BLACK
6
CONTINUOUS
10
140.2999999999999829
20
-140.6500000000000057
11
140.3190299999999979
21
-140.5543289999999956
0
LINE
8
BLACK
6
CONTINUOUS
10
140.3190299999999979
20
-140.5543289999999956
11
140.3732229999999959
21
-140.4732229999999902
0
LINE
8
BLACK
6
CONTINUOUS
10
140.3732229999999959
20
-140.4732229999999902
11
140.4543290000000013
21
-140.4190299999999922
0
LINE
8
BLACK
6
CONTINUOUS
10
140.4543290000000013
20
-140.4190299999999922
11
140.5499999999999829
21
-140.4000000000000057
0
LINE
8
BLACK
6
CONTINUOUS
10
140.5499999999999829
20
-140.4000000000000057
11
141.4499999999999886
21
-140.4000000000000057
0
LINE
8
BLACK
6
CONTINUOUS
10
141.4499999999999886
20
-140.4000000000000057
11
141.5456709999999987
21
-140.4190299999999922
0
LINE
8
BLACK
6
CONTINUOUS
10
149.5456709999999987
20
-138.7190300000000036
11
149.6267770000000041
21
-138.7732230000000015
0
LINE
8
BLACK
6
CONTINUOUS
10
149.6267770000000041
20
-138.7732230000000015
11
149.6809700000000021
21
-138.854329000000007
0
LINE
8
BLACK
6
CONTINUOUS
10
149.6809700000000021
20
-138.854329000000007
11
149.6999999999999886
21
-138.9499999999999886
0
LINE
8
BLACK
6
CONTINUOUS
10
149.6999999999999886
20
-138.9499999999999886
11
149.6999999999999886
21
-139.6500000000000057
0
LINE
8
BLACK
6
CONTINUOUS
10
149.6999999999999886
20
-139.6500000000000057
11
149.6809700000000021
21
-139.7456709999999873
0
LINE
8
BLACK
6
CONTINUOUS
10
149.6809700000000021
20
-139.7456709999999873
11
149.6267770000000041
21
-139.8267769999999928
0
LINE
8
BLACK
6
CONTINUOUS
10
149.6267770000000041
20
-139.8267769999999928
11
149.5456709999999987
21
-139.8809699999999907
0
LINE
8
BLACK
6
CONTINUOUS
10
149.5456709999999987
20
-139.8809699999999907
11
149.4499999999999886
21
-139.9000000000000057
0
LINE
8
BLACK
6
CONTINUOUS
10
149.4499999999999886
20
-139.9000000000000057
11
148.5499999999999829
21
-139.9000000000000057
0
LINE
8
BLACK
6
CONTINUOUS
10
148.5499999999999829
20
-139.9000000000000057
11
148.4543290000000013
21
-139.8809699999999907
0
LINE
8
BLACK
6
CONTINUOUS
10
148.4543290000000013
20
-139.8809699999999907
11
148.3732229999999959
21
-139.8267769999999928
0
LINE
8
BLACK
6
CONTINUOUS
10
148.3732229999999959
20
-139.8267769999999928
11
148.3190299999999979
21
-139.7456709999999873
0
LINE
8
BLACK
6
CONTINUOUS
10
148.3190299999999979
20
-139.7456709999999873
11
148.2999999999999829
21
-139.6500000000000057
0
LINE
8
BLACK
6
CONTINUOUS
10
148.2999999999999829
20
-139.6500000000000057
11
148.2999999999999829
21
-138.9499999999999886
0
LINE
8
BLACK
6
CONTINUOUS
10
148.2999999999999829
20
-138.9499999999999886
11
148.3190299999999979
21
-138.854329000000007
0
LINE
8
BLACK
6
CONTINUOUS
10
148.3190299999999979
20
-138.854329000000007
11
148.3732229999999959
21
-138.7732230000000015
0
LINE
8
BLACK
6
CONTINUOUS
10
148.3732229999999959
20
-138.7732230000000015
11
148.4543290000000013
21
-138.7190300000000036
0
LINE
8
BLACK
6
CONTINUOUS
10
148.4543290000000013
20
-138.7190300000000036
11
148.5499999999999829
21
-138.6999999999999886
0
LINE
8
BLACK
6
CONTINUOUS
10
148.5499999999999829
20
-138.6999999999999886
11
149.4499999999999886
21
-138.6999999999999886
0
LINE
8
BLACK
6
CONTINUOUS
10
149.4499999999999886
20
-138.6999999999999886
11
149.5456709999999987
21
-138.7190300000000036
0
LINE
8
BLACK
6
CONTINUOUS
10
147.145670999999993
20
-138.6190299999999809
11
147.2267769999999985
21
-138.6732230000000072
0
LINE
8
BLACK
6
CONTINUOUS
10
147.2267769999999985
20
-138.6732230000000072
11
147.2809699999999964
21
-138.7543289999999843
0
LINE
8
BLACK
6
CONTINUOUS
10
147.2809699999999964
20
-138.7543289999999843
11
147.2999999999999829
21
-138.8499999999999943
0
LINE
8
BLACK
6
CONTINUOUS
10
147.2999999999999829
20
-138.8499999999999943
11
147.2999999999999829
21
-139.5499999999999829
0
LINE
8
BLACK
6
CONTINUOUS
10
147.2999999999999829
20
-139.5499999999999829
11
147.2809699999999964
21
-139.645670999999993
0
LINE
8
BLACK
6
CONTINUOUS
10
147.2809699999999964
20
-139.645670999999993
11
147.2267769999999985
21
-139.7267769999999985
0
LINE
8
BLACK
6
CONTINUOUS
10
147.2267769999999985
20
-139.7267769999999985
11
147.145670999999993
21
-139.7809699999999964
0
LINE
8
BLACK
6
CONTINUOUS
10
147.145670999999993
20
-139.7809699999999964
11
147.0499999999999829
21
-139.7999999999999829
0
LINE
8
BLACK
6
CONTINUOUS
10
147.0499999999999829
20
-139.7999999999999829
11
146.1500000000000057
21
-139.7999999999999829
0
LINE
8
BLACK
6
CONTINUOUS
10
146.1500000000000057
20
-139.7999999999999829
11
146.0543289999999956
21
-139.7809699999999964
0
LINE
8
BLACK
6
CONTINUOUS
10
146.0543289999999956
20
-139.7809699999999964
11
145.9732229999999902
21
-139.7267769999999985
0
LINE
8
BLACK
6
CONTINUOUS
10
145.9732229999999902
20
-139.7267769999999985
11
145.9190299999999922
21
-139.645670999999993
0
LINE
8
BLACK
6
CONTINUOUS
10
145.9190299999999922
20
-139.645670999999993
11
145.9000000000000057
21
-139.5499999999999829
0
LINE
8
BLACK
6
CONTINUOUS
10
145.9000000000000057
20
-139.5499999999999829
11
145.9000000000000057
21
-138.8499999999999943
0
LINE
8
BLACK
6
CONTINUOUS
10
145.9000000000000057
20
-138.8499999999999943
11
145.9190299999999922
21
-138.7543289999999843
0
LINE
8
BLACK
6
CONTINUOUS
10
145.9190299999999922
20
-138.7543289999999843
11
145.9732229999999902
21
-138.6732230000000072
0
LINE
8
BLACK
6
CONTINUOUS
10
145.9732229999999902
20
-138.6732230000000072
11
146.0543289999999956
21
-138.6190299999999809
0
LINE
8
BLACK
6
CONTINUOUS
10
146.0543289999999956
20
-138.6190299999999809
11
146.1500000000000057
21
-138.5999999999999943
0
LINE
8
BLACK
6
CONTINUOUS
10
146.1500000000000057
20
-138.5999999999999943
11
147.0499999999999829
21
-138.5999999999999943
0
LINE
8
BLACK
6
CONTINUOUS
10
147.0499999999999829
20
-138.5999999999999943
11
147.145670999999993
21
-138.6190299999999809
0
LINE
8
BLACK
6
CONTINUOUS
10
152.7456709999999873
20
-138.6190299999999809
11
152.8267769999999928
21
-138.6732230000000072
0
LINE
8
BLACK
6
CONTINUOUS
10
152.8267769999999928
20
-138.6732230000000072
11
152.8809699999999907
21
-138.7543289999999843
0
LINE
8
BLACK
6
CONTINUOUS
10
152.8809699999999907
20
-138.7543289999999843
11
152.9000000000000057
21
-138.8499999999999943
0
LINE
8
BLACK
6
CONTINUOUS
10
152.9000000000000057
20
-138.8499999999999943
11
152.9000000000000057
21
-139.5499999999999829
0
LINE
8
BLACK
6
CONTINUOUS
10
152.9000000000000057
20
-139.5499999999999829
11
152.8809699999999907
21
-139.645670999999993
0
LINE
8
BLACK
6
CONTINUOUS
10
152.8809699999999907
20
-139.645670999999993
11
152.8267769999999928
21
-139.7267769999999985
0
LINE
8
BLACK
6
CONTINUOUS
10
152.8267769999999928
20
-139.7267769999999985
11
152.7456709999999873
21
-139.7809699999999964
0
LINE
8
BLACK
6
CONTINUOUS
10
152.7456709999999873
20
-139.7809699999999964
11
152.6500000000000057
21
-139.7999999999999829
0
LINE
8
BLACK
6
CONTINUOUS
10
152.6500000000000057
20
-139.7999999999999829
11
151.75
21
-139.7999999999999829
0
LINE
8
BLACK
6
CONTINUOUS
10
151.75
20
-139.7999999999999829
11
151.6543289999999899
21
-139.7809699999999964
0
LINE
8
BLACK
6
CONTINUOUS
10
151.6543289999999899
20
-139.7809699999999964
11
151.5732229999999845
21
-139.7267769999999985
0
LINE
8
BLACK
6
CONTINUOUS
10
151.5732229999999845
20
-139.7267769999999985
11
151.5190299999999866
21
-139.645670999999993
0
LINE
8
BLACK
6
CONTINUOUS
10
151.5190299999999866
20
-139.645670999999993
11
151.5
21
-139.5499999999999829
0
LINE
8
BLACK
6
CONTINUOUS
10
151.5
20
-139.5499999999999829
11
151.5
21
-138.8499999999999943
0
LINE
8
BLACK
6
CONTINUOUS
10
151.5
20
-138.8499999999999943
11
151.5190299999999866
21
-138.7543289999999843
0
LINE
8
BLACK
6
CONTINUOUS
10
151.5190299999999866
20
-138.7543289999999843
11
151.5732229999999845
21
-138.6732230000000072
0
LINE
8
BLACK
6
CONTINUOUS
10
151.5732229999999845
20
-138.6732230000000072
11
151.6543289999999899
21
-138.6190299999999809
0
LINE
8
BLACK
6
CONTINUOUS
10
151.6543289999999899
20
-138.6190299999999809
11
151.75
21
-138.5999999999999943
0
LINE
8
BLACK
6
CONTINUOUS
10
151.75
20
-138.5999999999999943
11
152.6500000000000057
21
-138.5999999999999943
0
LINE
8
BLACK
6
CONTINUOUS
10
152.6500000000000057
20
-138.5999999999999943
11
152.7456709999999873
21
-138.6190299999999809
0
LINE
8
BLACK
6
CONTINUOUS
10
154.770670999999993
20
-138.5940300000000036
11
154.8517769999999985
21
-138.6482230000000015
0
LINE
8
BLACK
6
CONTINUOUS
10
154.8517769999999985
20
-138.6482230000000015
11
154.9059699999999964
21
-138.729329000000007
0
LINE
8
BLACK
6
CONTINUOUS
10
154.9059699999999964
20
-138.729329000000007
11
154.9249999999999829
21
-138.8249999999999886
0
LINE
8
BLACK
6
CONTINUOUS
10
154.9249999999999829
20
-138.8249999999999886
11
154.9249999999999829
21
-139.5
0
LINE
8
BLACK
6
CONTINUOUS
10
154.9249999999999829
20
-139.5
11
154.9059699999999964
21
-139.5956709999999816
0
LINE
8
BLACK
6
CONTINUOUS
10
154.9059699999999964
20
-139.5956709999999816
11
154.8517769999999985
21
-139.6767769999999871
0
LINE
8
BLACK
6
CONTINUOUS
10
154.8517769999999985
20
-139.6767769999999871
11
154.770670999999993
21
-139.730969999999985
0
LINE
8
BLACK
6
CONTINUOUS
10
154.770670999999993
20
-139.730969999999985
11
154.6749999999999829
21
-139.75
0
LINE
8
BLACK
6
CONTINUOUS
10
154.6749999999999829
20
-139.75
11
153.7249999999999943
21
-139.75
0
LINE
8
BLACK
6
CONTINUOUS
10
153.7249999999999943
20
-139.75
11
153.6293289999999843
21
-139.730969999999985
0
LINE
8
BLACK
6
CONTINUOUS
10
153.6293289999999843
20
-139.730969999999985
11
153.5482230000000072
21
-139.6767769999999871
0
LINE
8
BLACK
6
CONTINUOUS
10
153.5482230000000072
20
-139.6767769999999871
11
153.4940299999999809
21
-139.5956709999999816
0
LINE
8
BLACK
6
CONTINUOUS
10
153.4940299999999809
20
-139.5956709999999816
11
153.4749999999999943
21
-139.5
0
LINE
8
BLACK
6
CONTINUOUS
10
153.4749999999999943
20
-139.5
11
153.4749999999999943
21
-138.8249999999999886
0
LINE
8
BLACK
6
CONTINUOUS
10
153.4749999999999943
20
-138.8249999999999886
11
153.4940299999999809
21
-138.729329000000007
0
LINE
8
BLACK
6
CONTINUOUS
10
153.4940299999999809
20
-138.729329000000007
11
153.5482230000000072
21
-138.6482230000000015
0
LINE
8
BLACK
6
CONTINUOUS
10
153.5482230000000072
20
-138.6482230000000015
11
153.6293289999999843
21
-138.5940300000000036
0
LINE
8
BLACK
6
CONTINUOUS
10
153.6293289999999843
20
-138.5940300000000036
11
153.7249999999999943
21
-138.5749999999999886
0
LINE
8
BLACK
6
CONTINUOUS
10
153.7249999999999943
20
-138.5749999999999886
11
154.6749999999999829
21
-138.5749999999999886
0
LINE
8
BLACK
6
CONTINUOUS
10
154.6749999999999829
20
-138.5749999999999886
11
154.770670999999993
21
-138.5940300000000036
0
LINE
8
BLACK
6
CONTINUOUS
10
144.2456709999999873
20
-138.5190299999999866
11
144.3267769999999928
21
-138.5732229999999845
0
LINE
8
BLACK
6
CONTINUOUS
10
144.3267769999999928
20
-138.5732229999999845
11
144.3809699999999907
21
-138.6543289999999899
0
LINE
8
BLACK
6
CONTINUOUS
10
144.3809699999999907
20
-138.6543289999999899
11
144.4000000000000057
21
-138.75
0
LINE
8
BLACK
6
CONTINUOUS
10
144.4000000000000057
20
-138.75
11
144.4000000000000057
21
-139.4499999999999886
0
LINE
8
BLACK
6
CONTINUOUS
10
144.4000000000000057
20
-139.4499999999999886
11
144.3809699999999907
21
-139.5456709999999987
0
LINE
8
BLACK
6
CONTINUOUS
10
144.3809699999999907
20
-139.5456709999999987
11
144.3267769999999928
21
-139.6267770000000041
0
LINE
8
BLACK
6
CONTINUOUS
10
144.3267769999999928
20
-139.6267770000000041
11
144.2456709999999873
21
-139.6809700000000021
0
LINE
8
BLACK
6
CONTINUOUS
10
144.2456709999999873
20
-139.6809700000000021
11
144.1500000000000057
21
-139.6999999999999886
0
LINE
8
BLACK
6
CONTINUOUS
10
144.1500000000000057
20
-139.6999999999999886
11
143.25
21
-139.6999999999999886
0
LINE
8
BLACK
6
CONTINUOUS
10
143.25
20
-139.6999999999999886
11
143.1543289999999899
21
-139.6809700000000021
0
LINE
8
BLACK
6
CONTINUOUS
10
143.1543289999999899
20
-139.6809700000000021
11
143.0732229999999845
21
-139.6267770000000041
0
LINE
8
BLACK
6
CONTINUOUS
10
143.0732229999999845
20
-139.6267770000000041
11
143.0190299999999866
21
-139.5456709999999987
0
LINE
8
BLACK
6
CONTINUOUS
10
143.0190299999999866
20
-139.5456709999999987
11
143.
21
-139.4499999999999886
0
LINE
8
BLACK
6
CONTINUOUS
10
143.
20
-139.4499999999999886
11
143.
21
-138.75
0
LINE
8
BLACK
6
CONTINUOUS
10
143.
20
-138.75
11
143.0190299999999866
21
-138.6543289999999899
0
LINE
8
BLACK
6
CONTINUOUS
10
143.0190299999999866
20
-138.6543289999999899
11
143.0732229999999845
21
-138.5732229999999845
0
LINE
8
BLACK
6
CONTINUOUS
10
143.0732229999999845
20
-138.5732229999999845
11
143.1543289999999899
21
-138.5190299999999866
0
LINE
8
BLACK
6
CONTINUOUS
10
143.1543289999999899
20
-138.5190299999999866
11
143.25
21
-138.5
0
LINE
8
BLACK
6
CONTINUOUS
10
143.25
20
-138.5
11
144.1500000000000057
21
-138.5
0
LINE
8
BLACK
6
CONTINUOUS
10
144.1500000000000057
20
-138.5
11
144.2456709999999873
21
-138.5190299999999866
0
LINE
8
BLACK
6
CONTINUOUS
10
127.645670999999993
20
-138.4190299999999922
11
127.7267769999999985
21
-138.4732229999999902
0
LINE
8
BLACK
6
CONTINUOUS
10
127.7267769999999985
20
-138.4732229999999902
11
127.7809699999999964
21
-138.5543289999999956
0
LINE
8
BLACK
6
CONTINUOUS
10
127.7809699999999964
20
-138.5543289999999956
11
127.7999999999999972
21
-138.6500000000000057
0
LINE
8
BLACK
6
CONTINUOUS
10
127.7999999999999972
20
-138.6500000000000057
11
127.7999999999999972
21
-139.3499999999999943
0
LINE
8
BLACK
6
CONTINUOUS
10
127.7999999999999972
20
-139.3499999999999943
11
127.7809699999999964
21
-139.4456710000000044
0
LINE
8
BLACK
6
CONTINUOUS
10
127.7809699999999964
20
-139.4456710000000044
11
127.7267769999999985
21
-139.5267769999999814
0
LINE
8
BLACK
6
CONTINUOUS
10
127.7267769999999985
20
-139.5267769999999814
11
127.645670999999993
21
-139.5809700000000078
0
LINE
8
BLACK
6
CONTINUOUS
10
127.645670999999993
20
-139.5809700000000078
11
127.5499999999999972
21
-139.5999999999999943
0
LINE
8
BLACK
6
CONTINUOUS
10
127.5499999999999972
20
-139.5999999999999943
11
126.6499999999999915
21
-139.5999999999999943
0
LINE
8
BLACK
6
CONTINUOUS
10
126.6499999999999915
20
-139.5999999999999943
11
126.5543289999999956
21
-139.5809700000000078
0
LINE
8
BLACK
6
CONTINUOUS
10
126.5543289999999956
20
-139.5809700000000078
11
126.4732229999999902
21
-139.5267769999999814
0
LINE
8
BLACK
6
CONTINUOUS
10
126.4732229999999902
20
-139.5267769999999814
11
126.4190299999999922
21
-139.4456710000000044
0
LINE
8
BLACK
6
CONTINUOUS
10
126.4190299999999922
20
-139.4456710000000044
11
126.3999999999999915
21
-139.3499999999999943
0
LINE
8
BLACK
6
CONTINUOUS
10
126.3999999999999915
20
-139.3499999999999943
11
126.3999999999999915
21
-138.6500000000000057
0
LINE
8
BLACK
6
CONTINUOUS
10
126.3999999999999915
20
-138.6500000000000057
11
126.4190299999999922
21
-138.5543289999999956
0
LINE
8
BLACK
6
CONTINUOUS
10
126.4190299999999922
20
-138.5543289999999956
11
126.4732229999999902
21
-138.4732229999999902
0
LINE
8
BLACK
6
CONTINUOUS
10
126.4732229999999902
20
-138.4732229999999902
11
126.5543289999999956
21
-138.4190299999999922
0
LINE
8
BLACK
6
CONTINUOUS
10
126.5543289999999956
20
-138.4190299999999922
11
126.6499999999999915
21
-138.4000000000000057
0
LINE
8
BLACK
6
CONTINUOUS
10
126.6499999999999915
20
-138.4000000000000057
11
127.5499999999999972
21
-138.4000000000000057
0
LINE
8
BLACK
6
CONTINUOUS
10
127.5499999999999972
20
-138.4000000000000057
11
127.645670999999993
21
-138.4190299999999922
0
LINE
8
BLACK
6
CONTINUOUS
10
134.5456709999999987
20
-138.4190299999999922
11
134.6267770000000041
21
-138.4732229999999902
0
LINE
8
BLACK
6
CONTINUOUS
10
134.6267770000000041
20
-138.4732229999999902
11
134.6809700000000021
21
-138.5543289999999956
0
LINE
8
BLACK
6
CONTINUOUS
10
134.6809700000000021
20
-138.5543289999999956
11
134.6999999999999886
21
-138.6500000000000057
0
LINE
8
BLACK
6
CONTINUOUS
10
134.6999999999999886
20
-138.6500000000000057
11
134.6999999999999886
21
-139.3499999999999943
0
LINE
8
BLACK
6
CONTINUOUS
10
134.6999999999999886
20
-139.3499999999999943
11
134.6809700000000021
21
-139.4456710000000044
0
LINE
8
BLACK
6
CONTINUOUS
10
134.6809700000000021
20
-139.4456710000000044
11
134.6267770000000041
21
-139.5267769999999814
0
LINE
8
BLACK
6
CONTINUOUS
10
134.6267770000000041
20
-139.5267769999999814
11
134.5456709999999987
21
-139.5809700000000078
0
LINE
8
BLACK
6
CONTINUOUS
10
134.5456709999999987
20
-139.5809700000000078
11
134.4499999999999886
21
-139.5999999999999943
0
LINE
8
BLACK
6
CONTINUOUS
10
134.4499999999999886
20
-139.5999999999999943
11
133.5499999999999829
21
-139.5999999999999943
0
LINE
8
BLACK
6
CONTINUOUS
10
133.5499999999999829
20
-139.5999999999999943
11
133.4543290000000013
21
-139.5809700000000078
0
LINE
8
BLACK
6
CONTINUOUS
10
133.4543290000000013
20
-139.5809700000000078
11
133.3732229999999959
21
-139.5267769999999814
0
LINE
8
BLACK
6
CONTINUOUS
10
133.3732229999999959
20
-139.5267769999999814
11
133.3190299999999979
21
-139.4456710000000044
0
LINE
8
BLACK
6
CONTINUOUS
10
133.3190299999999979
20
-139.4456710000000044
11
133.2999999999999829
21
-139.3499999999999943
0
LINE
8
BLACK
6
CONTINUOUS
10
133.2999999999999829
20
-139.3499999999999943
11
133.2999999999999829
21
-138.6500000000000057
0
LINE
8
BLACK
6
CONTINUOUS
10
133.2999999999999829
20
-138.6500000000000057
11
133.3190299999999979
21
-138.5543289999999956
0
LINE
8
BLACK
6
CONTINUOUS
10
133.3190299999999979
20
-138.5543289999999956
11
133.3732229999999959
21
-138.4732229999999902
0
LINE
8
BLACK
6
CONTINUOUS
10
133.3732229999999959
20
-138.4732229999999902
11
133.4543290000000013
21
-138.4190299999999922
0
LINE
8
BLACK
6
CONTINUOUS
10
133.4543290000000013
20
-138.4190299999999922
11
133.5499999999999829
21
-138.4000000000000057
0
LINE
8
BLACK
6
CONTINUOUS
10
133.5499999999999829
20
-138.4000000000000057
11
134.4499999999999886
21
-138.4000000000000057
0
LINE
8
BLACK
6
CONTINUOUS
10
134.4499999999999886
20
-138.4000000000000057
11
134.5456709999999987
21
-138.4190299999999922
0
LINE
8
BLACK
6
CONTINUOUS
10
136.7956709999999987
20
-138.4190299999999922
11
136.8767770000000041
21
-138.4732229999999902
0
LINE
8
BLACK
6
CONTINUOUS
10
136.8767770000000041
20
-138.4732229999999902
11
136.9309700000000021
21
-138.5543289999999956
0
LINE
8
BLACK
6
CONTINUOUS
10
136.9309700000000021
20
-138.5543289999999956
11
136.9499999999999886
21
-138.6500000000000057
0
LINE
8
BLACK
6
CONTINUOUS
10
136.9499999999999886
20
-138.6500000000000057
11
136.9499999999999886
21
-139.3499999999999943
0
LINE
8
BLACK
6
CONTINUOUS
10
136.9499999999999886
20
-139.3499999999999943
11
136.9309700000000021
21
-139.4456710000000044
0
LINE
8
BLACK
6
CONTINUOUS
10
136.9309700000000021
20
-139.4456710000000044
11
136.8767770000000041
21
-139.5267769999999814
0
LINE
8
BLACK
6
CONTINUOUS
10
136.8767770000000041
20
-139.5267769999999814
11
136.7956709999999987
21
-139.5809700000000078
0
LINE
8
BLACK
6
CONTINUOUS
10
136.7956709999999987
20
-139.5809700000000078
11
136.6999999999999886
21
-139.5999999999999943
0
LINE
8
BLACK
6
CONTINUOUS
10
136.6999999999999886
20
-139.5999999999999943
11
135.7999999999999829
21
-139.5999999999999943
0
LINE
8
BLACK
6
CONTINUOUS
10
135.7999999999999829
20
-139.5999999999999943
11
135.7043290000000013
21
-139.5809700000000078
0
LINE
8
BLACK
6
CONTINUOUS
10
135.7043290000000013
20
-139.5809700000000078
11
135.6232229999999959
21
-139.5267769999999814
0
LINE
8
BLACK
6
CONTINUOUS
10
135.6232229999999959
20
-139.5267769999999814
11
135.5690299999999979
21
-139.4456710000000044
0
LINE
8
BLACK
6
CONTINUOUS
10
135.5690299999999979
20
-139.4456710000000044
11
135.5499999999999829
21
-139.3499999999999943
0
LINE
8
BLACK
6
CONTINUOUS
10
135.5499999999999829
20
-139.3499999999999943
11
135.5499999999999829
21
-138.6500000000000057
0
LINE
8
BLACK
6
CONTINUOUS
10
135.5499999999999829
20
-138.6500000000000057
11
135.5690299999999979
21
-138.5543289999999956
0
LINE
8
BLACK
6
CONTINUOUS
10
135.5690299999999979
20
-138.5543289999999956
11
135.6232229999999959
21
-138.4732229999999902
0
LINE
8
BLACK
6
CONTINUOUS
10
135.6232229999999959
20
-138.4732229999999902
11
135.7043290000000013
21
-138.4190299999999922
0
LINE
8
BLACK
6
CONTINUOUS
10
135.7043290000000013
20
-138.4190299999999922
11
135.7999999999999829
21
-138.4000000000000057
0
LINE
8
BLACK
6
CONTINUOUS
10
135.7999999999999829
20
-138.4000000000000057
11
136.6999999999999886
21
-138.4000000000000057
0
LINE
8
BLACK
6
CONTINUOUS
10
136.6999999999999886
20
-138.4000000000000057
11
136.7956709999999987
21
-138.4190299999999922
0
LINE
8
BLACK
6
CONTINUOUS
10
139.395670999999993
20
-138.4190299999999922
11
139.4767769999999985
21
-138.4732229999999902
0
LINE
8
BLACK
6
CONTINUOUS
10
139.4767769999999985
20
-138.4732229999999902
11
139.5309699999999964
21
-138.5543289999999956
0
LINE
8
BLACK
6
CONTINUOUS
10
139.5309699999999964
20
-138.5543289999999956
11
139.5499999999999829
21
-138.6500000000000057
0
LINE
8
BLACK
6
CONTINUOUS
10
139.5499999999999829
20
-138.6500000000000057
11
139.5499999999999829
21
-139.3499999999999943
0
LINE
8
BLACK
6
CONTINUOUS
10
139.5499999999999829
20
-139.3499999999999943
11
139.5309699999999964
21
-139.4456710000000044
0
LINE
8
BLACK
6
CONTINUOUS
10
139.5309699999999964
20
-139.4456710000000044
11
139.4767769999999985
21
-139.5267769999999814
0
LINE
8
BLACK
6
CONTINUOUS
10
139.4767769999999985
20
-139.5267769999999814
11
139.395670999999993
21
-139.5809700000000078
0
LINE
8
BLACK
6
CONTINUOUS
10
139.395670999999993
20
-139.5809700000000078
11
139.2999999999999829
21
-139.5999999999999943
0
LINE
8
BLACK
6
CONTINUOUS
10
139.2999999999999829
20
-139.5999999999999943
11
138.4000000000000057
21
-139.5999999999999943
0
LINE
8
BLACK
6
CONTINUOUS
10
138.4000000000000057
20
-139.5999999999999943
11
138.3043289999999956
21
-139.5809700000000078
0
LINE
8
BLACK
6
CONTINUOUS
10
138.3043289999999956
20
-139.5809700000000078
11
138.2232229999999902
21
-139.5267769999999814
0
LINE
8
BLACK
6
CONTINUOUS
10
138.2232229999999902
20
-139.5267769999999814
11
138.1690299999999922
21
-139.4456710000000044
0
LINE
8
BLACK
6
CONTINUOUS
10
138.1690299999999922
20
-139.4456710000000044
11
138.1500000000000057
21
-139.3499999999999943
0
LINE
8
BLACK
6
CONTINUOUS
10
138.1500000000000057
20
-139.3499999999999943
11
138.1500000000000057
21
-138.6500000000000057
0
LINE
8
BLACK
6
CONTINUOUS
10
138.1500000000000057
20
-138.6500000000000057
11
138.1690299999999922
21
-138.5543289999999956
0
LINE
8
BLACK
6
CONTINUOUS
10
138.1690299999999922
20
-138.5543289999999956
11
138.2232229999999902
21
-138.4732229999999902
0
LINE
8
BLACK
6
CONTINUOUS
10
138.2232229999999902
20
-138.4732229999999902
11
138.3043289999999956
21
-138.4190299999999922
0
LINE
8
BLACK
6
CONTINUOUS
10
138.3043289999999956
20
-138.4190299999999922
11
138.4000000000000057
21
-138.4000000000000057
0
LINE
8
BLACK
6
CONTINUOUS
10
138.4000000000000057
20
-138.4000000000000057
11
139.2999999999999829
21
-138.4000000000000057
0
LINE
8
BLACK
6
CONTINUOUS
10
139.2999999999999829
20
-138.4000000000000057
11
139.395670999999993
21
-138.4190299999999922
0
LINE
8
BLACK
6
CONTINUOUS
10
141.5456709999999987
20
-138.4190299999999922
11
141.6267770000000041
21
-138.4732229999999902
0
LINE
8
BLACK
6
CONTINUOUS
10
141.6267770000000041
20
-138.4732229999999902
11
141.6809700000000021
21
-138.5543289999999956
0
LINE
8
BLACK
6
CONTINUOUS
10
141.6809700000000021
20
-138.5543289999999956
11
141.6999999999999886
21
-138.6500000000000057
0
LINE
8
BLACK
6
CONTINUOUS
10
141.6999999999999886
20
-138.6500000000000057
11
141.6999999999999886
21
-139.3499999999999943
0
LINE
8
BLACK
6
CONTINUOUS
10
141.6999999999999886
20
-139.3499999999999943
11
141.6809700000000021
21
-139.4456710000000044
0
LINE
8
BLACK
6
CONTINUOUS
10
141.6809700000000021
20
-139.4456710000000044
11
141.6267770000000041
21
-139.5267769999999814
0
LINE
8
BLACK
6
CONTINUOUS
10
141.6267770000000041
20
-139.5267769999999814
11
141.5456709999999987
21
-139.5809700000000078
0
LINE
8
BLACK
6
CONTINUOUS
10
141.5456709999999987
20
-139.5809700000000078
11
141.4499999999999886
21
-139.5999999999999943
0
LINE
8
BLACK
6
CONTINUOUS
10
141.4499999999999886
20
-139.5999999999999943
11
140.5499999999999829
21
-139.5999999999999943
0
LINE
8
BLACK
6
CONTINUOUS
10
140.5499999999999829
20
-139.5999999999999943
11
140.4543290000000013
21
-139.5809700000000078
0
LINE
8
BLACK
6
CONTINUOUS
10
140.4543290000000013
20
-139.5809700000000078
11
140.3732229999999959
21
-139.5267769999999814
0
LINE
8
BLACK
6
CONTINUOUS
10
140.3732229999999959
20
-139.5267769999999814
11
140.3190299999999979
21
-139.4456710000000044
0
LINE
8
BLACK
6
CONTINUOUS
10
140.3190299999999979
20
-139.4456710000000044
11
140.2999999999999829
21
-139.3499999999999943
0
LINE
8
BLACK
6
CONTINUOUS
10
140.2999999999999829
20
-139.3499999999999943
11
140.2999999999999829
21
-138.6500000000000057
0
LINE
8
BLACK
6
CONTINUOUS
10
140.2999999999999829
20
-138.6500000000000057
11
140.3190299999999979
21
-138.5543289999999956
0
LINE
8
BLACK
6
CONTINUOUS
10
140.3190299999999979
20
-138.5543289999999956
11
140.3732229999999959
21
-138.4732229999999902
0
LINE
8
BLACK
6
CONTINUOUS
10
140.3732229999999959
20
-138.4732229999999902
11
140.4543290000000013
21
-138.4190299999999922
0
LINE
8
BLACK
6
CONTINUOUS
10
140.4543290000000013
20
-138.4190299999999922
11
140.5499999999999829
21
-138.4000000000000057
0
LINE
8
BLACK
6
CONTINUOUS
10
140.5499999999999829
20
-138.4000000000000057
11
141.4499999999999886
21
-138.4000000000000057
0
LINE
8
BLACK
6
CONTINUOUS
10
141.4499999999999886
20
-138.4000000000000057
11
141.5456709999999987
21
-138.4190299999999922
0
LINE
8
BLACK
6
CONTINUOUS
10
129.9706709999999816
20
-138.3940299999999866
11
130.0517769999999871
21
-138.4482229999999845
0
LINE
8
BLACK
6
CONTINUOUS
10
130.0517769999999871
20
-138.4482229999999845
11
130.105969999999985
21
-138.5293289999999899
0
LINE
8
BLACK
6
CONTINUOUS
10
130.105969999999985
20
-138.5293289999999899
11
130.125
21
-138.625
0
LINE
8
BLACK
6
CONTINUOUS
10
130.125
20
-138.625
11
130.125
21
-139.2999999999999829
0
LINE
8
BLACK
6
CONTINUOUS
10
130.125
20
-139.2999999999999829
11
130.105969999999985
21
-139.395670999999993
0
LINE
8
BLACK
6
CONTINUOUS
10
130.105969999999985
20
-139.395670999999993
11
130.0517769999999871
21
-139.4767769999999985
0
LINE
8
BLACK
6
CONTINUOUS
10
130.0517769999999871
20
-139.4767769999999985
11
129.9706709999999816
21
-139.5309699999999964
0
LINE
8
BLACK
6
CONTINUOUS
10
129.9706709999999816
20
-139.5309699999999964
11
129.875
21
-139.5499999999999829
0
LINE
8
BLACK
6
CONTINUOUS
10
129.875
20
-139.5499999999999829
11
128.9249999999999829
21
-139.5499999999999829
0
LINE
8
BLACK
6
CONTINUOUS
10
128.9249999999999829
20
-139.5499999999999829
11
128.8293290000000013
21
-139.5309699999999964
0
LINE
8
BLACK
6
CONTINUOUS
10
128.8293290000000013
20
-139.5309699999999964
11
128.7482229999999959
21
-139.4767769999999985
0
LINE
8
BLACK
6
CONTINUOUS
10
128.7482229999999959
20
-139.4767769999999985
11
128.6940299999999979
21
-139.395670999999993
0
LINE
8
BLACK
6
CONTINUOUS
10
128.6940299999999979
20
-139.395670999999993
11
128.6749999999999829
21
-139.2999999999999829
0
LINE
8
BLACK
6
CONTINUOUS
10
128.6749999999999829
20
-139.2999999999999829
11
128.6749999999999829
21
-138.625
0
LINE
8
BLACK
6
CONTINUOUS
10
128.6749999999999829
20
-138.625
11
128.6940299999999979
21
-138.5293289999999899
0
LINE
8
BLACK
6
CONTINUOUS
10
128.6940299999999979
20
-138.5293289999999899
11
128.7482229999999959
21
-138.4482229999999845
0
LINE
8
BLACK
6
CONTINUOUS
10
128.7482229999999959
20
-138.4482229999999845
11
128.8293290000000013
21
-138.3940299999999866
0
LINE
8
BLACK
6
CONTINUOUS
10
128.8293290000000013
20
-138.3940299999999866
11
128.9249999999999829
21
-138.375
0
LINE
8
BLACK
6
CONTINUOUS
10
128.9249999999999829
20
-138.375
11
129.875
21
-138.375
0
LINE
8
BLACK
6
CONTINUOUS
10
129.875
20
-138.375
11
129.9706709999999816
21
-138.3940299999999866
0
LINE
8
BLACK
6
CONTINUOUS
10
132.3706709999999873
20
-138.3940299999999866
11
132.4517769999999928
21
-138.4482229999999845
0
LINE
8
BLACK
6
CONTINUOUS
10
132.4517769999999928
20
-138.4482229999999845
11
132.5059699999999907
21
-138.5293289999999899
0
LINE
8
BLACK
6
CONTINUOUS
10
132.5059699999999907
20
-138.5293289999999899
11
132.5250000000000057
21
-138.625
0
LINE
8
BLACK
6
CONTINUOUS
10
132.5250000000000057
20
-138.625
11
132.5250000000000057
21
-139.2999999999999829
0
LINE
8
BLACK
6
CONTINUOUS
10
132.5250000000000057
20
-139.2999999999999829
11
132.5059699999999907
21
-139.395670999999993
0
LINE
8
BLACK
6
CONTINUOUS
10
132.5059699999999907
20
-139.395670999999993
11
132.4517769999999928
21
-139.4767769999999985
0
LINE
8
BLACK
6
CONTINUOUS
10
132.4517769999999928
20
-139.4767769999999985
11
132.3706709999999873
21
-139.5309699999999964
0
LINE
8
BLACK
6
CONTINUOUS
10
132.3706709999999873
20
-139.5309699999999964
11
132.2750000000000057
21
-139.5499999999999829
0
LINE
8
BLACK
6
CONTINUOUS
10
132.2750000000000057
20
-139.5499999999999829
11
131.3249999999999886
21
-139.5499999999999829
0
LINE
8
BLACK
6
CONTINUOUS
10
131.3249999999999886
20
-139.5499999999999829
11
131.229329000000007
21
-139.5309699999999964
0
LINE
8
BLACK
6
CONTINUOUS
10
131.229329000000007
20
-139.5309699999999964
11
131.1482230000000015
21
-139.4767769999999985
0
LINE
8
BLACK
6
CONTINUOUS
10
131.1482230000000015
20
-139.4767769999999985
11
131.0940300000000036
21
-139.395670999999993
0
LINE
8
BLACK
6
CONTINUOUS
10
131.0940300000000036
20
-139.395670999999993
11
131.0749999999999886
21
-139.2999999999999829
0
LINE
8
BLACK
6
CONTINUOUS
10
131.0749999999999886
20
-139.2999999999999829
11
131.0749999999999886
21
-138.625
0
LINE
8
BLACK
6
CONTINUOUS
10
131.0749999999999886
20
-138.625
11
131.0940300000000036
21
-138.5293289999999899
0
LINE
8
BLACK
6
CONTINUOUS
10
131.0940300000000036
20
-138.5293289999999899
11
131.1482230000000015
21
-138.4482229999999845
0
LINE
8
BLACK
6
CONTINUOUS
10
131.1482230000000015
20
-138.4482229999999845
11
131.229329000000007
21
-138.3940299999999866
0
LINE
8
BLACK
6
CONTINUOUS
10
131.229329000000007
20
-138.3940299999999866
11
131.3249999999999886
21
-138.375
0
LINE
8
BLACK
6
CONTINUOUS
10
131.3249999999999886
20
-138.375
11
132.2750000000000057
21
-138.375
0
LINE
8
BLACK
6
CONTINUOUS
10
132.2750000000000057
20
-138.375
11
132.3706709999999873
21
-138.3940299999999866
0
LINE
8
BLACK
6
CONTINUOUS
10
141.0265369999999905
20
-134.0652240000000006
11
141.0914209999999969
21
-134.1085789999999918
0
LINE
8
BLACK
6
CONTINUOUS
10
141.0914209999999969
20
-134.1085789999999918
11
141.134775999999988
21
-134.1734629999999981
0
LINE
8
BLACK
6
CONTINUOUS
10
141.134775999999988
20
-134.1734629999999981
11
141.1500000000000057
21
-134.25
0
LINE
8
BLACK
6
CONTINUOUS
10
141.1500000000000057
20
-134.25
11
141.1500000000000057
21
-135.75
0
LINE
8
BLACK
6
CONTINUOUS
10
141.1500000000000057
20
-135.75
11
141.134775999999988
21
-135.8265370000000019
0
LINE
8
BLACK
6
CONTINUOUS
10
141.134775999999988
20
-135.8265370000000019
11
141.0914209999999969
21
-135.8914209999999798
0
LINE
8
BLACK
6
CONTINUOUS
10
141.0914209999999969
20
-135.8914209999999798
11
141.0265369999999905
21
-135.9347759999999994
0
LINE
8
BLACK
6
CONTINUOUS
10
141.0265369999999905
20
-135.9347759999999994
11
140.9499999999999886
21
-135.9499999999999886
0
LINE
8
BLACK
6
CONTINUOUS
10
140.9499999999999886
20
-135.9499999999999886
11
140.5499999999999829
21
-135.9499999999999886
0
LINE
8
BLACK
6
CONTINUOUS
10
140.5499999999999829
20
-135.9499999999999886
11
140.4734629999999811
21
-135.9347759999999994
0
LINE
8
BLACK
6
CONTINUOUS
10
140.4734629999999811
20
-135.9347759999999994
11
140.4085790000000031
21
-135.8914209999999798
0
LINE
8
BLACK
6
CONTINUOUS
10
140.4085790000000031
20
-135.8914209999999798
11
140.3652239999999836
21
-135.8265370000000019
0
LINE
8
BLACK
6
CONTINUOUS
10
140.3652239999999836
20
-135.8265370000000019
11
140.3499999999999943
21
-135.75
0
LINE
8
BLACK
6
CONTINUOUS
10
140.3499999999999943
20
-135.75
11
140.3499999999999943
21
-134.25
0
LINE
8
BLACK
6
CONTINUOUS
10
140.3499999999999943
20
-134.25
11
140.3652239999999836
21
-134.1734629999999981
0
LINE
8
BLACK
6
CONTINUOUS
10
140.3652239999999836
20
-134.1734629999999981
11
140.4085790000000031
21
-134.1085789999999918
0
LINE
8
BLACK
6
CONTINUOUS
10
140.4085790000000031
20
-134.1085789999999918
11
140.4734629999999811
21
-134.0652240000000006
0
LINE
8
BLACK
6
CONTINUOUS
10
140.4734629999999811
20
-134.0652240000000006
11
140.5499999999999829
21
-134.0499999999999829
0
LINE
8
BLACK
6
CONTINUOUS
10
140.5499999999999829
20
-134.0499999999999829
11
140.9499999999999886
21
-134.0499999999999829
0
LINE
8
BLACK
6
CONTINUOUS
10
140.9499999999999886
20
-134.0499999999999829
11
141.0265369999999905
21
-134.0652240000000006
0
LINE
8
BLACK
6
CONTINUOUS
10
142.9265369999999962
20
-134.0652240000000006
11
142.9914210000000026
21
-134.1085789999999918
0
LINE
8
BLACK
6
CONTINUOUS
10
142.9914210000000026
20
-134.1085789999999918
11
143.0347759999999937
21
-134.1734629999999981
0
LINE
8
BLACK
6
CONTINUOUS
10
143.0347759999999937
20
-134.1734629999999981
11
143.0499999999999829
21
-134.25
0
LINE
8
BLACK
6
CONTINUOUS
10
143.0499999999999829
20
-134.25
11
143.0499999999999829
21
-135.75
0
LINE
8
BLACK
6
CONTINUOUS
10
143.0499999999999829
20
-135.75
11
143.0347759999999937
21
-135.8265370000000019
0
LINE
8
BLACK
6
CONTINUOUS
10
143.0347759999999937
20
-135.8265370000000019
11
142.9914210000000026
21
-135.8914209999999798
0
LINE
8
BLACK
6
CONTINUOUS
10
142.9914210000000026
20
-135.8914209999999798
11
142.9265369999999962
21
-135.9347759999999994
0
LINE
8
BLACK
6
CONTINUOUS
10
142.9265369999999962
20
-135.9347759999999994
11
142.8499999999999943
21
-135.9499999999999886
0
LINE
8
BLACK
6
CONTINUOUS
10
142.8499999999999943
20
-135.9499999999999886
11
142.4499999999999886
21
-135.9499999999999886
0
LINE
8
BLACK
6
CONTINUOUS
10
142.4499999999999886
20
-135.9499999999999886
11
142.3734629999999868
21
-135.9347759999999994
0
LINE
8
BLACK
6
CONTINUOUS
10
142.3734629999999868
20
-135.9347759999999994
11
142.3085789999999804
21
-135.8914209999999798
0
LINE
8
BLACK
6
CONTINUOUS
10
142.3085789999999804
20
-135.8914209999999798
11
142.2652239999999892
21
-135.8265370000000019
0
LINE
8
BLACK
6
CONTINUOUS
10
142.2652239999999892
20
-135.8265370000000019
11
142.25
21
-135.75
0
LINE
8
BLACK
6
CONTINUOUS
10
142.25
20
-135.75
11
142.25
21
-134.25
0
LINE
8
BLACK
6
CONTINUOUS
10
142.25
20
-134.25
11
142.2652239999999892
21
-134.1734629999999981
0
LINE
8
BLACK
6
CONTINUOUS
10
142.2652239999999892
20
-134.1734629999999981
11
142.3085789999999804
21
-134.1085789999999918
0
LINE
8
BLACK
6
CONTINUOUS
10
142.3085789999999804
20
-134.1085789999999918
11
142.3734629999999868
21
-134.0652240000000006
0
LINE
8
BLACK
6
CONTINUOUS
10
142.3734629999999868
20
-134.0652240000000006
11
142.4499999999999886
21
-134.0499999999999829
0
LINE
8
BLACK
6
CONTINUOUS
10
142.4499999999999886
20
-134.0499999999999829
11
142.8499999999999943
21
-134.0499999999999829
0
LINE
8
BLACK
6
CONTINUOUS
10
142.8499999999999943
20
-134.0499999999999829
11
142.9265369999999962
21
-134.0652240000000006
0
LINE
8
BLACK
6
CONTINUOUS
10
136.4265369999999962
20
-133.9652240000000063
11
136.4914210000000026
21
-134.0085789999999974
0
LINE
8
BLACK
6
CONTINUOUS
10
136.4914210000000026
20
-134.0085789999999974
11
136.5347759999999937
21
-134.0734630000000038
0
LINE
8
BLACK
6
CONTINUOUS
10
136.5347759999999937
20
-134.0734630000000038
11
136.5499999999999829
21
-134.1500000000000057
0
LINE
8
BLACK
6
CONTINUOUS
10
136.5499999999999829
20
-134.1500000000000057
11
136.5499999999999829
21
-135.6500000000000057
0
LINE
8
BLACK
6
CONTINUOUS
10
136.5499999999999829
20
-135.6500000000000057
11
136.5347759999999937
21
-135.7265370000000075
0
LINE
8
BLACK
6
CONTINUOUS
10
136.5347759999999937
20
-135.7265370000000075
11
136.4914210000000026
21
-135.7914209999999855
0
LINE
8
BLACK
6
CONTINUOUS
10
136.4914210000000026
20
-135.7914209999999855
11
136.4265369999999962
21
-135.8347760000000051
0
LINE
8
BLACK
6
CONTINUOUS
10
136.4265369999999962
20
-135.8347760000000051
11
136.3499999999999943
21
-135.8499999999999943
0
LINE
8
BLACK
6
CONTINUOUS
10
136.3499999999999943
20
-135.8499999999999943
11
135.9499999999999886
21
-135.8499999999999943
0
LINE
8
BLACK
6
CONTINUOUS
10
135.9499999999999886
20
-135.8499999999999943
11
135.8734629999999868
21
-135.8347760000000051
0
LINE
8
BLACK
6
CONTINUOUS
10
135.8734629999999868
20
-135.8347760000000051
11
135.8085789999999804
21
-135.7914209999999855
0
LINE
8
BLACK
6
CONTINUOUS
10
135.8085789999999804
20
-135.7914209999999855
11
135.7652239999999892
21
-135.7265370000000075
0
LINE
8
BLACK
6
CONTINUOUS
10
135.7652239999999892
20
-135.7265370000000075
11
135.75
21
-135.6500000000000057
0
LINE
8
BLACK
6
CONTINUOUS
10
135.75
20
-135.6500000000000057
11
135.75
21
-134.1500000000000057
0
LINE
8
BLACK
6
CONTINUOUS
10
135.75
20
-134.1500000000000057
11
135.7652239999999892
21
-134.0734630000000038
0
LINE
8
BLACK
6
CONTINUOUS
10
135.7652239999999892
20
-134.0734630000000038
11
135.8085789999999804
21
-134.0085789999999974
0
LINE
8
BLACK
6
CONTINUOUS
10
135.8085789999999804
20
-134.0085789999999974
11
135.8734629999999868
21
-133.9652240000000063
0
LINE
8
BLACK
6
CONTINUOUS
10
135.8734629999999868
20
-133.9652240000000063
11
135.9499999999999886
21
-133.9499999999999886
0
LINE
8
BLACK
6
CONTINUOUS
10
135.9499999999999886
20
-133.9499999999999886
11
136.3499999999999943
21
-133.9499999999999886
0
LINE
8
BLACK
6
CONTINUOUS
10
136.3499999999999943
20
-133.9499999999999886
11
136.4265369999999962
21
-133.9652240000000063
0
LINE
8
BLACK
6
CONTINUOUS
10
138.3265370000000019
20
-133.9652240000000063
11
138.3914209999999798
21
-134.0085789999999974
0
LINE
8
BLACK
6
CONTINUOUS
10
138.3914209999999798
20
-134.0085789999999974
11
138.4347759999999994
21
-134.0734630000000038
0
LINE
8
BLACK
6
CONTINUOUS
10
138.4347759999999994
20
-134.0734630000000038
11
138.4499999999999886
21
-134.1500000000000057
0
LINE
8
BLACK
6
CONTINUOUS
10
138.4499999999999886
20
-134.1500000000000057
11
138.4499999999999886
21
-135.6500000000000057
0
LINE
8
BLACK
6
CONTINUOUS
10
138.4499999999999886
20
-135.6500000000000057
11
138.4347759999999994
21
-135.7265370000000075
0
LINE
8
BLACK
6
CONTINUOUS
10
138.4347759999999994
20
-135.7265370000000075
11
138.3914209999999798
21
-135.7914209999999855
0
LINE
8
BLACK
6
CONTINUOUS
10
138.3914209999999798
20
-135.7914209999999855
11
138.3265370000000019
21
-135.8347760000000051
0
LINE
8
BLACK
6
CONTINUOUS
10
138.3265370000000019
20
-135.8347760000000051
11
138.25
21
-135.8499999999999943
0
LINE
8
BLACK
6
CONTINUOUS
10
138.25
20
-135.8499999999999943
11
137.8499999999999943
21
-135.8499999999999943
0
LINE
8
BLACK
6
CONTINUOUS
10
137.8499999999999943
20
-135.8499999999999943
11
137.7734629999999925
21
-135.8347760000000051
0
LINE
8
BLACK
6
CONTINUOUS
10
137.7734629999999925
20
-135.8347760000000051
11
137.7085789999999861
21
-135.7914209999999855
0
LINE
8
BLACK
6
CONTINUOUS
10
137.7085789999999861
20
-135.7914209999999855
11
137.6652239999999949
21
-135.7265370000000075
0
LINE
8
BLACK
6
CONTINUOUS
10
137.6652239999999949
20
-135.7265370000000075
11
137.6500000000000057
21
-135.6500000000000057
0
LINE
8
BLACK
6
CONTINUOUS
10
137.6500000000000057
20
-135.6500000000000057
11
137.6500000000000057
21
-134.1500000000000057
0
LINE
8
BLACK
6
CONTINUOUS
10
137.6500000000000057
20
-134.1500000000000057
11
137.6652239999999949
21
-134.0734630000000038
0
LINE
8
BLACK
6
CONTINUOUS
10
137.6652239999999949
20
-134.0734630000000038
11
137.7085789999999861
21
-134.0085789999999974
0
LINE
8
BLACK
6
CONTINUOUS
10
137.7085789999999861
20
-134.0085789999999974
11
137.7734629999999925
21
-133.9652240000000063
0
LINE
8
BLACK
6
CONTINUOUS
10
137.7734629999999925
20
-133.9652240000000063
11
137.8499999999999943
21
-133.9499999999999886
0
LINE
8
BLACK
6
CONTINUOUS
10
137.8499999999999943
20
-133.9499999999999886
11
138.25
21
-133.9499999999999886
0
LINE
8
BLACK
6
CONTINUOUS
10
138.25
20
-133.9499999999999886
11
138.3265370000000019
21
-133.9652240000000063
0
LINE
8
BLACK
6
CONTINUOUS
10
146.5956709999999816
20
-133.2190300000000036
11
146.6767769999999871
21
-133.2732230000000015
0
LINE
8
BLACK
6
CONTINUOUS
10
146.6767769999999871
20
-133.2732230000000015
11
146.730969999999985
21
-133.354329000000007
0
LINE
8
BLACK
6
CONTINUOUS
10
146.730969999999985
20
-133.354329000000007
11
146.75
21
-133.4499999999999886
0
LINE
8
BLACK
6
CONTINUOUS
10
146.75
20
-133.4499999999999886
11
146.75
21
-134.1500000000000057
0
LINE
8
BLACK
6
CONTINUOUS
10
146.75
20
-134.1500000000000057
11
146.730969999999985
21
-134.2456709999999873
0
LINE
8
BLACK
6
CONTINUOUS
10
146.730969999999985
20
-134.2456709999999873
11
146.6767769999999871
21
-134.3267769999999928
0
LINE
8
BLACK
6
CONTINUOUS
10
146.6767769999999871
20
-134.3267769999999928
11
146.5956709999999816
21
-134.3809699999999907
0
LINE
8
BLACK
6
CONTINUOUS
10
146.5956709999999816
20
-134.3809699999999907
11
146.5
21
-134.4000000000000057
0
LINE
8
BLACK
6
CONTINUOUS
10
146.5
20
-134.4000000000000057
11
145.5999999999999943
21
-134.4000000000000057
0
LINE
8
BLACK
6
CONTINUOUS
10
145.5999999999999943
20
-134.4000000000000057
11
145.5043289999999843
21
-134.3809699999999907
0
LINE
8
BLACK
6
CONTINUOUS
10
145.5043289999999843
20
-134.3809699999999907
11
145.4232230000000072
21
-134.3267769999999928
0
LINE
8
BLACK
6
CONTINUOUS
10
145.4232230000000072
20
-134.3267769999999928
11
145.3690299999999809
21
-134.2456709999999873
0
LINE
8
BLACK
6
CONTINUOUS
10
145.3690299999999809
20
-134.2456709999999873
11
145.3499999999999943
21
-134.1500000000000057
0
LINE
8
BLACK
6
CONTINUOUS
10
145.3499999999999943
20
-134.1500000000000057
11
145.3499999999999943
21
-133.4499999999999886
0
LINE
8
BLACK
6
CONTINUOUS
10
145.3499999999999943
20
-133.4499999999999886
11
145.3690299999999809
21
-133.354329000000007
0
LINE
8
BLACK
6
CONTINUOUS
10
145.3690299999999809
20
-133.354329000000007
11
145.4232230000000072
21
-133.2732230000000015
0
LINE
8
BLACK
6
CONTINUOUS
10
145.4232230000000072
20
-133.2732230000000015
11
145.5043289999999843
21
-133.2190300000000036
0
LINE
8
BLACK
6
CONTINUOUS
10
145.5043289999999843
20
-133.2190300000000036
11
145.5999999999999943
21
-133.1999999999999886
0
LINE
8
BLACK
6
CONTINUOUS
10
145.5999999999999943
20
-133.1999999999999886
11
146.5
21
-133.1999999999999886
0
LINE
8
BLACK
6
CONTINUOUS
10
146.5
20
-133.1999999999999886
11
146.5956709999999816
21
-133.2190300000000036
0
LINE
8
BLACK
6
CONTINUOUS
10
148.895670999999993
20
-133.2190300000000036
11
148.9767769999999985
21
-133.2732230000000015
0
LINE
8
BLACK
6
CONTINUOUS
10
148.9767769999999985
20
-133.2732230000000015
11
149.0309699999999964
21
-133.354329000000007
0
LINE
8
BLACK
6
CONTINUOUS
10
149.0309699999999964
20
-133.354329000000007
11
149.0499999999999829
21
-133.4499999999999886
0
LINE
8
BLACK
6
CONTINUOUS
10
149.0499999999999829
20
-133.4499999999999886
11
149.0499999999999829
21
-134.1500000000000057
0
LINE
8
BLACK
6
CONTINUOUS
10
149.0499999999999829
20
-134.1500000000000057
11
149.0309699999999964
21
-134.2456709999999873
0
LINE
8
BLACK
6
CONTINUOUS
10
149.0309699999999964
20
-134.2456709999999873
11
148.9767769999999985
21
-134.3267769999999928
0
LINE
8
BLACK
6
CONTINUOUS
10
148.9767769999999985
20
-134.3267769999999928
11
148.895670999999993
21
-134.3809699999999907
0
LINE
8
BLACK
6
CONTINUOUS
10
148.895670999999993
20
-134.3809699999999907
11
148.7999999999999829
21
-134.4000000000000057
0
LINE
8
BLACK
6
CONTINUOUS
10
148.7999999999999829
20
-134.4000000000000057
11
147.9000000000000057
21
-134.4000000000000057
0
LINE
8
BLACK
6
CONTINUOUS
10
147.9000000000000057
20
-134.4000000000000057
11
147.8043289999999956
21
-134.3809699999999907
0
LINE
8
BLACK
6
CONTINUOUS
10
147.8043289999999956
20
-134.3809699999999907
11
147.7232229999999902
21
-134.3267769999999928
0
LINE
8
BLACK
6
CONTINUOUS
10
147.7232229999999902
20
-134.3267769999999928
11
147.6690299999999922
21
-134.2456709999999873
0
LINE
8
BLACK
6
CONTINUOUS
10
147.6690299999999922
20
-134.2456709999999873
11
147.6500000000000057
21
-134.1500000000000057
0
LINE
8
BLACK
6
CONTINUOUS
10
147.6500000000000057
20
-134.1500000000000057
11
147.6500000000000057
21
-133.4499999999999886
0
LINE
8
BLACK
6
CONTINUOUS
10
147.6500000000000057
20
-133.4499999999999886
11
147.6690299999999922
21
-133.354329000000007
0
LINE
8
BLACK
6
CONTINUOUS
10
147.6690299999999922
20
-133.354329000000007
11
147.7232229999999902
21
-133.2732230000000015
0
LINE
8
BLACK
6
CONTINUOUS
10
147.7232229999999902
20
-133.2732230000000015
11
147.8043289999999956
21
-133.2190300000000036
0
LINE
8
BLACK
6
CONTINUOUS
10
147.8043289999999956
20
-133.2190300000000036
11
147.9000000000000057
21
-133.1999999999999886
0
LINE
8
BLACK
6
CONTINUOUS
10
147.9000000000000057
20
-133.1999999999999886
11
148.7999999999999829
21
-133.1999999999999886
0
LINE
8
BLACK
6
CONTINUOUS
10
148.7999999999999829
20
-133.1999999999999886
11
148.895670999999993
21
-133.2190300000000036
0
LINE
8
BLACK
6
CONTINUOUS
10
141.9765370000000075
20
-131.0652240000000006
11
142.0414209999999855
21
-131.1085789999999918
0
LINE
8
BLACK
6
CONTINUOUS
10
142.0414209999999855
20
-131.1085789999999918
11
142.0847760000000051
21
-131.1734629999999981
0
LINE
8
BLACK
6
CONTINUOUS
10
142.0847760000000051
20
-131.1734629999999981
11
142.0999999999999943
21
-131.25
0
LINE
8
BLACK
6
CONTINUOUS
10
142.0999999999999943
20
-131.25
11
142.0999999999999943
21
-132.75
0
LINE
8
BLACK
6
CONTINUOUS
10
142.0999999999999943
20
-132.75
11
142.0847760000000051
21
-132.8265370000000019
0
LINE
8
BLACK
6
CONTINUOUS
10
142.0847760000000051
20
-132.8265370000000019
11
142.0414209999999855
21
-132.8914209999999798
0
LINE
8
BLACK
6
CONTINUOUS
10
142.0414209999999855
20
-132.8914209999999798
11
141.9765370000000075
21
-132.9347759999999994
0
LINE
8
BLACK
6
CONTINUOUS
10
141.9765370000000075
20
-132.9347759999999994
11
141.9000000000000057
21
-132.9499999999999886
0
LINE
8
BLACK
6
CONTINUOUS
10
141.9000000000000057
20
-132.9499999999999886
11
141.5
21
-132.9499999999999886
0
LINE
8
BLACK
6
CONTINUOUS
10
141.5
20
-132.9499999999999886
11
141.4234629999999981
21
-132.9347759999999994
0
LINE
8
BLACK
6
CONTINUOUS
10
141.4234629999999981
20
-132.9347759999999994
11
141.3585789999999918
21
-132.8914209999999798
0
LINE
8
BLACK
6
CONTINUOUS
10
141.3585789999999918
20
-132.8914209999999798
11
141.3152240000000006
21
-132.8265370000000019
0
LINE
8
BLACK
6
CONTINUOUS
10
141.3152240000000006
20
-132.8265370000000019
11
141.2999999999999829
21
-132.75
0
LINE
8
BLACK
6
CONTINUOUS
10
141.2999999999999829
20
-132.75
11
141.2999999999999829
21
-131.25
0
LINE
8
BLACK
6
CONTINUOUS
10
141.2999999999999829
20
-131.25
11
141.3152240000000006
21
-131.1734629999999981
0
LINE
8
BLACK
6
CONTINUOUS
10
141.3152240000000006
20
-131.1734629999999981
11
141.3585789999999918
21
-131.1085789999999918
0
LINE
8
BLACK
6
CONTINUOUS
10
141.3585789999999918
20
-131.1085789999999918
11
141.4234629999999981
21
-131.0652240000000006
0
LINE
8
BLACK
6
CONTINUOUS
10
141.4234629999999981
20
-131.0652240000000006
11
141.5
21
-131.0499999999999829
0
LINE
8
BLACK
6
CONTINUOUS
10
141.5
20
-131.0499999999999829
11
141.9000000000000057
21
-131.0499999999999829
0
LINE
8
BLACK
6
CONTINUOUS
10
141.9000000000000057
20
-131.0499999999999829
11
141.9765370000000075
21
-131.0652240000000006
0
LINE
8
BLACK
6
CONTINUOUS
10
137.3765369999999848
20
-130.9652240000000063
11
137.4414209999999912
21
-131.0085789999999974
0
LINE
8
BLACK
6
CONTINUOUS
10
137.4414209999999912
20
-131.0085789999999974
11
137.4847759999999823
21
-131.0734630000000038
0
LINE
8
BLACK
6
CONTINUOUS
10
137.4847759999999823
20
-131.0734630000000038
11
137.5
21
-131.1500000000000057
0
LINE
8
BLACK
6
CONTINUOUS
10
137.5
20
-131.1500000000000057
11
137.5
21
-132.6500000000000057
0
LINE
8
BLACK
6
CONTINUOUS
10
137.5
20
-132.6500000000000057
11
137.4847759999999823
21
-132.7265370000000075
0
LINE
8
BLACK
6
CONTINUOUS
10
137.4847759999999823
20
-132.7265370000000075
11
137.4414209999999912
21
-132.7914209999999855
0
LINE
8
BLACK
6
CONTINUOUS
10
137.4414209999999912
20
-132.7914209999999855
11
137.3765369999999848
21
-132.8347760000000051
0
LINE
8
BLACK
6
CONTINUOUS
10
137.3765369999999848
20
-132.8347760000000051
11
137.2999999999999829
21
-132.8499999999999943
0
LINE
8
BLACK
6
CONTINUOUS
10
137.2999999999999829
20
-132.8499999999999943
11
136.9000000000000057
21
-132.8499999999999943
0
LINE
8
BLACK
6
CONTINUOUS
10
136.9000000000000057
20
-132.8499999999999943
11
136.8234630000000038
21
-132.8347760000000051
0
LINE
8
BLACK
6
CONTINUOUS
10
136.8234630000000038
20
-132.8347760000000051
11
136.7585789999999974
21
-132.7914209999999855
0
LINE
8
BLACK
6
CONTINUOUS
10
136.7585789999999974
20
-132.7914209999999855
11
136.7152240000000063
21
-132.7265370000000075
0
LINE
8
BLACK
6
CONTINUOUS
10
136.7152240000000063
20
-132.7265370000000075
11
136.6999999999999886
21
-132.6500000000000057
0
LINE
8
BLACK
6
CONTINUOUS
10
136.6999999999999886
20
-132.6500000000000057
11
136.6999999999999886
21
-131.1500000000000057
0
LINE
8
BLACK
6
CONTINUOUS
10
136.6999999999999886
20
-131.1500000000000057
11
136.7152240000000063
21
-131.0734630000000038
0
LINE
8
BLACK
6
CONTINUOUS
10
136.7152240000000063
20
-131.0734630000000038
11
136.7585789999999974
21
-131.0085789999999974
0
LINE
8
BLACK
6
CONTINUOUS
10
136.7585789999999974
20
-131.0085789999999974
11
136.8234630000000038
21
-130.9652240000000063
0
LINE
8
BLACK
6
CONTINUOUS
10
136.8234630000000038
20
-130.9652240000000063
11
136.9000000000000057
21
-130.9499999999999886
0
LINE
8
BLACK
6
CONTINUOUS
10
136.9000000000000057
20
-130.9499999999999886
11
137.2999999999999829
21
-130.9499999999999886
0
LINE
8
BLACK
6
CONTINUOUS
10
137.2999999999999829
20
-130.9499999999999886
11
137.3765369999999848
21
-130.9652240000000063
0
LINE
8
BLACK
6
CONTINUOUS
10
146.5956709999999816
20
-131.2190300000000036
11
146.6767769999999871
21
-131.2732230000000015
0
LINE
8
BLACK
6
CONTINUOUS
10
146.6767769999999871
20
-131.2732230000000015
11
146.730969999999985
21
-131.354329000000007
0
LINE
8
BLACK
6
CONTINUOUS
10
146.730969999999985
20
-131.354329000000007
11
146.75
21
-131.4499999999999886
0
LINE
8
BLACK
6
CONTINUOUS
10
146.75
20
-131.4499999999999886
11
146.75
21
-132.1500000000000057
0
LINE
8
BLACK
6
CONTINUOUS
10
146.75
20
-132.1500000000000057
11
146.730969999999985
21
-132.2456709999999873
0
LINE
8
BLACK
6
CONTINUOUS
10
146.730969999999985
20
-132.2456709999999873
11
146.6767769999999871
21
-132.3267769999999928
0
LINE
8
BLACK
6
CONTINUOUS
10
146.6767769999999871
20
-132.3267769999999928
11
146.5956709999999816
21
-132.3809699999999907
0
LINE
8
BLACK
6
CONTINUOUS
10
146.5956709999999816
20
-132.3809699999999907
11
146.5
21
-132.4000000000000057
0
LINE
8
BLACK
6
CONTINUOUS
10
146.5
20
-132.4000000000000057
11
145.5999999999999943
21
-132.4000000000000057
0
LINE
8
BLACK
6
CONTINUOUS
10
145.5999999999999943
20
-132.4000000000000057
11
145.5043289999999843
21
-132.3809699999999907
0
LINE
8
BLACK
6
CONTINUOUS
10
145.5043289999999843
20
-132.3809699999999907
11
145.4232230000000072
21
-132.3267769999999928
0
LINE
8
BLACK
6
CONTINUOUS
10
145.4232230000000072
20
-132.3267769999999928
11
145.3690299999999809
21
-132.2456709999999873
0
LINE
8
BLACK
6
CONTINUOUS
10
145.3690299999999809
20
-132.2456709999999873
11
145.3499999999999943
21
-132.1500000000000057
0
LINE
8
BLACK
6
CONTINUOUS
10
145.3499999999999943
20
-132.1500000000000057
11
145.3499999999999943
21
-131.4499999999999886
0
LINE
8
BLACK
6
CONTINUOUS
10
145.3499999999999943
20
-131.4499999999999886
11
145.3690299999999809
21
-131.354329000000007
0
LINE
8
BLACK
6
CONTINUOUS
10
145.3690299999999809
20
-131.354329000000007
11
145.4232230000000072
21
-131.2732230000000015
0
LINE
8
BLACK
6
CONTINUOUS
10
145.4232230000000072
20
-131.2732230000000015
11
145.5043289999999843
21
-131.2190300000000036
0
LINE
8
BLACK
6
CONTINUOUS
10
145.5043289999999843
20
-131.2190300000000036
11
145.5999999999999943
21
-131.1999999999999886
0
LINE
8
BLACK
6
CONTINUOUS
10
145.5999999999999943
20
-131.1999999999999886
11
146.5
21
-131.1999999999999886
0
LINE
8
BLACK
6
CONTINUOUS
10
146.5
20
-131.1999999999999886
11
146.5956709999999816
21
-131.2190300000000036
0
LINE
8
BLACK
6
CONTINUOUS
10
148.895670999999993
20
-131.2190300000000036
11
148.9767769999999985
21
-131.2732230000000015
0
LINE
8
BLACK
6
CONTINUOUS
10
148.9767769999999985
20
-131.2732230000000015
11
149.0309699999999964
21
-131.354329000000007
0
LINE
8
BLACK
6
CONTINUOUS
10
149.0309699999999964
20
-131.354329000000007
11
149.0499999999999829
21
-131.4499999999999886
0
LINE
8
BLACK
6
CONTINUOUS
10
149.0499999999999829
20
-131.4499999999999886
11
149.0499999999999829
21
-132.1500000000000057
0
LINE
8
BLACK
6
CONTINUOUS
10
149.0499999999999829
20
-132.1500000000000057
11
149.0309699999999964
21
-132.2456709999999873
0
LINE
8
BLACK
6
CONTINUOUS
10
149.0309699999999964
20
-132.2456709999999873
11
148.9767769999999985
21
-132.3267769999999928
0
LINE
8
BLACK
6
CONTINUOUS
10
148.9767769999999985
20
-132.3267769999999928
11
148.895670999999993
21
-132.3809699999999907
0
LINE
8
BLACK
6
CONTINUOUS
10
148.895670999999993
20
-132.3809699999999907
11
148.7999999999999829
21
-132.4000000000000057
0
LINE
8
BLACK
6
CONTINUOUS
10
148.7999999999999829
20
-132.4000000000000057
11
147.9000000000000057
21
-132.4000000000000057
0
LINE
8
BLACK
6
CONTINUOUS
10
147.9000000000000057
20
-132.4000000000000057
11
147.8043289999999956
21
-132.3809699999999907
0
LINE
8
BLACK
6
CONTINUOUS
10
147.8043289999999956
20
-132.3809699999999907
11
147.7232229999999902
21
-132.3267769999999928
0
LINE
8
BLACK
6
CONTINUOUS
10
147.7232229999999902
20
-132.3267769999999928
11
147.6690299999999922
21
-132.2456709999999873
0
LINE
8
BLACK
6
CONTINUOUS
10
147.6690299999999922
20
-132.2456709999999873
11
147.6500000000000057
21
-132.1500000000000057
0
LINE
8
BLACK
6
CONTINUOUS
10
147.6500000000000057
20
-132.1500000000000057
11
147.6500000000000057
21
-131.4499999999999886
0
LINE
8
BLACK
6
CONTINUOUS
10
147.6500000000000057
20
-131.4499999999999886
11
147.6690299999999922
21
-131.354329000000007
0
LINE
8
BLACK
6
CONTINUOUS
10
147.6690299999999922
20
-131.354329000000007
11
147.7232229999999902
21
-131.2732230000000015
0
LINE
8
BLACK
6
CONTINUOUS
10
147.7232229999999902
20
-131.2732230000000015
11
147.8043289999999956
21
-131.2190300000000036
0
LINE
8
BLACK
6
CONTINUOUS
10
147.8043289999999956
20
-131.2190300000000036
11
147.9000000000000057
21
-131.1999999999999886
0
LINE
8
BLACK
6
CONTINUOUS
10
147.9000000000000057
20
-131.1999999999999886
11
148.7999999999999829
21
-131.1999999999999886
0
LINE
8
BLACK
6
CONTINUOUS
10
148.7999999999999829
20
-131.1999999999999886
11
148.895670999999993
21
-131.2190300000000036
0
LINE
8
BLACK
6
CONTINUOUS
10
140.4265369999999962
20
-128.3652239999999836
11
140.4914210000000026
21
-128.4085790000000031
0
LINE
8
BLACK
6
CONTINUOUS
10
140.4914210000000026
20
-128.4085790000000031
11
140.5347759999999937
21
-128.4734629999999811
0
LINE
8
BLACK
6
CONTINUOUS
10
140.5347759999999937
20
-128.4734629999999811
11
140.5499999999999829
21
-128.5499999999999829
0
LINE
8
BLACK
6
CONTINUOUS
10
140.5499999999999829
20
-128.5499999999999829
11
140.5499999999999829
21
-130.0499999999999829
0
LINE
8
BLACK
6
CONTINUOUS
10
140.5499999999999829
20
-130.0499999999999829
11
140.5347759999999937
21
-130.1265369999999848
0
LINE
8
BLACK
6
CONTINUOUS
10
140.5347759999999937
20
-130.1265369999999848
11
140.4914210000000026
21
-130.1914209999999912
0
LINE
8
BLACK
6
CONTINUOUS
10
140.4914210000000026
20
-130.1914209999999912
11
140.4265369999999962
21
-130.2347759999999823
0
LINE
8
BLACK
6
CONTINUOUS
10
140.4265369999999962
20
-130.2347759999999823
11
140.3499999999999943
21
-130.25
0
LINE
8
BLACK
6
CONTINUOUS
10
140.3499999999999943
20
-130.25
11
139.9499999999999886
21
-130.25
0
LINE
8
BLACK
6
CONTINUOUS
10
139.9499999999999886
20
-130.25
11
139.8734629999999868
21
-130.2347759999999823
0
LINE
8
BLACK
6
CONTINUOUS
10
139.8734629999999868
20
-130.2347759999999823
11
139.8085789999999804
21
-130.1914209999999912
0
LINE
8
BLACK
6
CONTINUOUS
10
139.8085789999999804
20
-130.1914209999999912
11
139.7652239999999892
21
-130.1265369999999848
0
LINE
8
BLACK
6
CONTINUOUS
10
139.7652239999999892
20
-130.1265369999999848
11
139.75
21
-130.0499999999999829
0
LINE
8
BLACK
6
CONTINUOUS
10
139.75
20
-130.0499999999999829
11
139.75
21
-128.5499999999999829
0
LINE
8
BLACK
6
CONTINUOUS
10
139.75
20
-128.5499999999999829
11
139.7652239999999892
21
-128.4734629999999811
0
LINE
8
BLACK
6
CONTINUOUS
10
139.7652239999999892
20
-128.4734629999999811
11
139.8085789999999804
21
-128.4085790000000031
0
LINE
8
BLACK
6
CONTINUOUS
10
139.8085789999999804
20
-128.4085790000000031
11
139.8734629999999868
21
-128.3652239999999836
0
LINE
8
BLACK
6
CONTINUOUS
10
139.8734629999999868
20
-128.3652239999999836
11
139.9499999999999886
21
-128.3499999999999943
0
LINE
8
BLACK
6
CONTINUOUS
10
139.9499999999999886
20
-128.3499999999999943
11
140.3499999999999943
21
-128.3499999999999943
0
LINE
8
BLACK
6
CONTINUOUS
10
140.3499999999999943
20
-128.3499999999999943
11
140.4265369999999962
21
-128.3652239999999836
0
LINE
8
BLACK
6
CONTINUOUS
10
142.3265370000000019
20
-128.3652239999999836
11
142.3914209999999798
21
-128.4085790000000031
0
LINE
8
BLACK
6
CONTINUOUS
10
142.3914209999999798
20
-128.4085790000000031
11
142.4347759999999994
21
-128.4734629999999811
0
LINE
8
BLACK
6
CONTINUOUS
10
142.4347759999999994
20
-128.4734629999999811
11
142.4499999999999886
21
-128.5499999999999829
0
LINE
8
BLACK
6
CONTINUOUS
10
142.4499999999999886
20
-128.5499999999999829
11
142.4499999999999886
21
-130.0499999999999829
0
LINE
8
BLACK
6
CONTINUOUS
10
142.4499999999999886
20
-130.0499999999999829
11
142.4347759999999994
21
-130.1265369999999848
0
LINE
8
BLACK
6
CONTINUOUS
10
142.4347759999999994
20
-130.1265369999999848
11
142.3914209999999798
21
-130.1914209999999912
0
LINE
8
BLACK
6
CONTINUOUS
10
142.3914209999999798
20
-130.1914209999999912
11
142.3265370000000019
21
-130.2347759999999823
0
LINE
8
BLACK
6
CONTINUOUS
10
142.3265370000000019
20
-130.2347759999999823
11
142.25
21
-130.25
0
LINE
8
BLACK
6
CONTINUOUS
10
142.25
20
-130.25
11
141.8499999999999943
21
-130.25
0
LINE
8
BLACK
6
CONTINUOUS
10
141.8499999999999943
20
-130.25
11
141.7734629999999925
21
-130.2347759999999823
0
LINE
8
BLACK
6
CONTINUOUS
10
141.7734629999999925
20
-130.2347759999999823
11
141.7085789999999861
21
-130.1914209999999912
0
LINE
8
BLACK
6
CONTINUOUS
10
141.7085789999999861
20
-130.1914209999999912
11
141.6652239999999949
21
-130.1265369999999848
0
LINE
8
BLACK
6
CONTINUOUS
10
141.6652239999999949
20
-130.1265369999999848
11
141.6500000000000057
21
-130.0499999999999829
0
LINE
8
BLACK
6
CONTINUOUS
10
141.6500000000000057
20
-130.0499999999999829
11
141.6500000000000057
21
-128.5499999999999829
0
LINE
8
BLACK
6
CONTINUOUS
10
141.6500000000000057
20
-128.5499999999999829
11
141.6652239999999949
21
-128.4734629999999811
0
LINE
8
BLACK
6
CONTINUOUS
10
141.6652239999999949
20
-128.4734629999999811
11
141.7085789999999861
21
-128.4085790000000031
0
LINE
8
BLACK
6
CONTINUOUS
10
141.7085789999999861
20
-128.4085790000000031
11
141.7734629999999925
21
-128.3652239999999836
0
LINE
8
BLACK
6
CONTINUOUS
10
141.7734629999999925
20
-128.3652239999999836
11
141.8499999999999943
21
-128.3499999999999943
0
LINE
8
BLACK
6
CONTINUOUS
10
141.8499999999999943
20
-128.3499999999999943
11
142.25
21
-128.3499999999999943
0
LINE
8
BLACK
6
CONTINUOUS
10
142.25
20
-128.3499999999999943
11
142.3265370000000019
21
-128.3652239999999836
0
LINE
8
BLACK
6
CONTINUOUS
10
136.5265369999999905
20
-128.0652240000000006
11
136.5914209999999969
21
-128.1085789999999918
0
LINE
8
BLACK
6
CONTINUOUS
10
136.5914209999999969
20
-128.1085789999999918
11
136.634775999999988
21
-128.1734629999999981
0
LINE
8
BLACK
6
CONTINUOUS
10
136.634775999999988
20
-128.1734629999999981
11
136.6500000000000057
21
-128.25
0
LINE
8
BLACK
6
CONTINUOUS
10
136.6500000000000057
20
-128.25
11
136.6500000000000057
21
-129.75
0
LINE
8
BLACK
6
CONTINUOUS
10
136.6500000000000057
20
-129.75
11
136.634775999999988
21
-129.8265370000000019
0
LINE
8
BLACK
6
CONTINUOUS
10
136.634775999999988
20
-129.8265370000000019
11
136.5914209999999969
21
-129.8914210000000082
0
LINE
8
BLACK
6
CONTINUOUS
10
136.5914209999999969
20
-129.8914210000000082
11
136.5265369999999905
21
-129.9347759999999994
0
LINE
8
BLACK
6
CONTINUOUS
10
136.5265369999999905
20
-129.9347759999999994
11
136.4499999999999886
21
-129.9499999999999886
0
LINE
8
BLACK
6
CONTINUOUS
10
136.4499999999999886
20
-129.9499999999999886
11
136.0499999999999829
21
-129.9499999999999886
0
LINE
8
BLACK
6
CONTINUOUS
10
136.0499999999999829
20
-129.9499999999999886
11
135.9734629999999811
21
-129.9347759999999994
0
LINE
8
BLACK
6
CONTINUOUS
10
135.9734629999999811
20
-129.9347759999999994
11
135.9085790000000031
21
-129.8914210000000082
0
LINE
8
BLACK
6
CONTINUOUS
10
135.9085790000000031
20
-129.8914210000000082
11
135.8652239999999836
21
-129.8265370000000019
0
LINE
8
BLACK
6
CONTINUOUS
10
135.8652239999999836
20
-129.8265370000000019
11
135.8499999999999943
21
-129.75
0
LINE
8
BLACK
6
CONTINUOUS
10
135.8499999999999943
20
-129.75
11
135.8499999999999943
21
-128.25
0
LINE
8
BLACK
6
CONTINUOUS
10
135.8499999999999943
20
-128.25
11
135.8652239999999836
21
-128.1734629999999981
0
LINE
8
BLACK
6
CONTINUOUS
10
135.8652239999999836
20
-128.1734629999999981
11
135.9085790000000031
21
-128.1085789999999918
0
LINE
8
BLACK
6
CONTINUOUS
10
135.9085790000000031
20
-128.1085789999999918
11
135.9734629999999811
21
-128.0652240000000006
0
LINE
8
BLACK
6
CONTINUOUS
10
135.9734629999999811
20
-128.0652240000000006
11
136.0499999999999829
21
-128.0499999999999829
0
LINE
8
BLACK
6
CONTINUOUS
10
136.0499999999999829
20
-128.0499999999999829
11
136.4499999999999886
21
-128.0499999999999829
0
LINE
8
BLACK
6
CONTINUOUS
10
136.4499999999999886
20
-128.0499999999999829
11
136.5265369999999905
21
-128.0652240000000006
0
LINE
8
BLACK
6
CONTINUOUS
10
138.4265369999999962
20
-128.0652240000000006
11
138.4914210000000026
21
-128.1085789999999918
0
LINE
8
BLACK
6
CONTINUOUS
10
138.4914210000000026
20
-128.1085789999999918
11
138.5347759999999937
21
-128.1734629999999981
0
LINE
8
BLACK
6
CONTINUOUS
10
138.5347759999999937
20
-128.1734629999999981
11
138.5499999999999829
21
-128.25
0
LINE
8
BLACK
6
CONTINUOUS
10
138.5499999999999829
20
-128.25
11
138.5499999999999829
21
-129.75
0
LINE
8
BLACK
6
CONTINUOUS
10
138.5499999999999829
20
-129.75
11
138.5347759999999937
21
-129.8265370000000019
0
LINE
8
BLACK
6
CONTINUOUS
10
138.5347759999999937
20
-129.8265370000000019
11
138.4914210000000026
21
-129.8914210000000082
0
LINE
8
BLACK
6
CONTINUOUS
10
138.4914210000000026
20
-129.8914210000000082
11
138.4265369999999962
21
-129.9347759999999994
0
LINE
8
BLACK
6
CONTINUOUS
10
138.4265369999999962
20
-129.9347759999999994
11
138.3499999999999943
21
-129.9499999999999886
0
LINE
8
BLACK
6
CONTINUOUS
10
138.3499999999999943
20
-129.9499999999999886
11
137.9499999999999886
21
-129.9499999999999886
0
LINE
8
BLACK
6
CONTINUOUS
10
137.9499999999999886
20
-129.9499999999999886
11
137.8734629999999868
21
-129.9347759999999994
0
LINE
8
BLACK
6
CONTINUOUS
10
137.8734629999999868
20
-129.9347759999999994
11
137.8085789999999804
21
-129.8914210000000082
0
LINE
8
BLACK
6
CONTINUOUS
10
137.8085789999999804
20
-129.8914210000000082
11
137.7652239999999892
21
-129.8265370000000019
0
LINE
8
BLACK
6
CONTINUOUS
10
137.7652239999999892
20
-129.8265370000000019
11
137.75
21
-129.75
0
LINE
8
BLACK
6
CONTINUOUS
10
137.75
20
-129.75
11
137.75
21
-128.25
0
LINE
8
BLACK
6
CONTINUOUS
10
137.75
20
-128.25
11
137.7652239999999892
21
-128.1734629999999981
0
LINE
8
BLACK
6
CONTINUOUS
10
137.7652239999999892
20
-128.1734629999999981
11
137.8085789999999804
21
-128.1085789999999918
0
LINE
8
BLACK
6
CONTINUOUS
10
137.8085789999999804
20
-128.1085789999999918
11
137.8734629999999868
21
-128.0652240000000006
0
LINE
8
BLACK
6
CONTINUOUS
10
137.8734629999999868
20
-128.0652240000000006
11
137.9499999999999886
21
-128.0499999999999829
0
LINE
8
BLACK
6
CONTINUOUS
10
137.9499999999999886
20
-128.0499999999999829
11
138.3499999999999943
21
-128.0499999999999829
0
LINE
8
BLACK
6
CONTINUOUS
10
138.3499999999999943
20
-128.0499999999999829
11
138.4265369999999962
21
-128.0652240000000006
0
LINE
8
BLACK
6
CONTINUOUS
10
148.8456709999999816
20
-128.5690299999999979
11
148.9267769999999871
21
-128.6232229999999959
0
LINE
8
BLACK
6
CONTINUOUS
10
148.9267769999999871
20
-128.6232229999999959
11
148.980969999999985
21
-128.7043290000000013
0
LINE
8
BLACK
6
CONTINUOUS
10
148.980969999999985
20
-128.7043290000000013
11
149.
21
-128.7999999999999829
0
LINE
8
BLACK
6
CONTINUOUS
10
149.
20
-128.7999999999999829
11
149.
21
-129.5
0
LINE
8
BLACK
6
CONTINUOUS
10
149.
20
-129.5
11
148.980969999999985
21
-129.5956709999999816
0
LINE
8
BLACK
6
CONTINUOUS
10
148.980969999999985
20
-129.5956709999999816
11
148.9267769999999871
21
-129.6767769999999871
0
LINE
8
BLACK
6
CONTINUOUS
10
148.9267769999999871
20
-129.6767769999999871
11
148.8456709999999816
21
-129.730969999999985
0
LINE
8
BLACK
6
CONTINUOUS
10
148.8456709999999816
20
-129.730969999999985
11
148.75
21
-129.75
0
LINE
8
BLACK
6
CONTINUOUS
10
148.75
20
-129.75
11
147.8499999999999943
21
-129.75
0
LINE
8
BLACK
6
CONTINUOUS
10
147.8499999999999943
20
-129.75
11
147.7543289999999843
21
-129.730969999999985
0
LINE
8
BLACK
6
CONTINUOUS
10
147.7543289999999843
20
-129.730969999999985
11
147.6732230000000072
21
-129.6767769999999871
0
LINE
8
BLACK
6
CONTINUOUS
10
147.6732230000000072
20
-129.6767769999999871
11
147.6190299999999809
21
-129.5956709999999816
0
LINE
8
BLACK
6
CONTINUOUS
10
147.6190299999999809
20
-129.5956709999999816
11
147.5999999999999943
21
-129.5
0
LINE
8
BLACK
6
CONTINUOUS
10
147.5999999999999943
20
-129.5
11
147.5999999999999943
21
-128.7999999999999829
0
LINE
8
BLACK
6
CONTINUOUS
10
147.5999999999999943
20
-128.7999999999999829
11
147.6190299999999809
21
-128.7043290000000013
0
LINE
8
BLACK
6
CONTINUOUS
10
147.6190299999999809
20
-128.7043290000000013
11
147.6732230000000072
21
-128.6232229999999959
0
LINE
8
BLACK
6
CONTINUOUS
10
147.6732230000000072
20
-128.6232229999999959
11
147.7543289999999843
21
-128.5690299999999979
0
LINE
8
BLACK
6
CONTINUOUS
10
147.7543289999999843
20
-128.5690299999999979
11
147.8499999999999943
21
-128.5499999999999829
0
LINE
8
BLACK
6
CONTINUOUS
10
147.8499999999999943
20
-128.5499999999999829
11
148.75
21
-128.5499999999999829
0
LINE
8
BLACK
6
CONTINUOUS
10
148.75
20
-128.5499999999999829
11
148.8456709999999816
21
-128.5690299999999979
0
LINE
8
BLACK
6
CONTINUOUS
10
146.5456709999999987
20
-128.5190299999999866
11
146.6267770000000041
21
-128.5732229999999845
0
LINE
8
BLACK
6
CONTINUOUS
10
146.6267770000000041
20
-128.5732229999999845
11
146.6809700000000021
21
-128.6543289999999899
0
LINE
8
BLACK
6
CONTINUOUS
10
146.6809700000000021
20
-128.6543289999999899
11
146.6999999999999886
21
-128.75
0
LINE
8
BLACK
6
CONTINUOUS
10
146.6999999999999886
20
-128.75
11
146.6999999999999886
21
-129.4499999999999886
0
LINE
8
BLACK
6
CONTINUOUS
10
146.6999999999999886
20
-129.4499999999999886
11
146.6809700000000021
21
-129.5456709999999987
0
LINE
8
BLACK
6
CONTINUOUS
10
146.6809700000000021
20
-129.5456709999999987
11
146.6267770000000041
21
-129.6267770000000041
0
LINE
8
BLACK
6
CONTINUOUS
10
146.6267770000000041
20
-129.6267770000000041
11
146.5456709999999987
21
-129.6809700000000021
0
LINE
8
BLACK
6
CONTINUOUS
10
146.5456709999999987
20
-129.6809700000000021
11
146.4499999999999886
21
-129.6999999999999886
0
LINE
8
BLACK
6
CONTINUOUS
10
146.4499999999999886
20
-129.6999999999999886
11
145.5499999999999829
21
-129.6999999999999886
0
LINE
8
BLACK
6
CONTINUOUS
10
145.5499999999999829
20
-129.6999999999999886
11
145.4543290000000013
21
-129.6809700000000021
0
LINE
8
BLACK
6
CONTINUOUS
10
145.4543290000000013
20
-129.6809700000000021
11
145.3732229999999959
21
-129.6267770000000041
0
LINE
8
BLACK
6
CONTINUOUS
10
145.3732229999999959
20
-129.6267770000000041
11
145.3190299999999979
21
-129.5456709999999987
0
LINE
8
BLACK
6
CONTINUOUS
10
145.3190299999999979
20
-129.5456709999999987
11
145.2999999999999829
21
-129.4499999999999886
0
LINE
8
BLACK
6
CONTINUOUS
10
145.2999999999999829
20
-129.4499999999999886
11
145.2999999999999829
21
-128.75
0
LINE
8
BLACK
6
CONTINUOUS
10
145.2999999999999829
20
-128.75
11
145.3190299999999979
21
-128.6543289999999899
0
LINE
8
BLACK
6
CONTINUOUS
10
145.3190299999999979
20
-128.6543289999999899
11
145.3732229999999959
21
-128.5732229999999845
0
LINE
8
BLACK
6
CONTINUOUS
10
145.3732229999999959
20
-128.5732229999999845
11
145.4543290000000013
21
-128.5190299999999866
0
LINE
8
BLACK
6
CONTINUOUS
10
145.4543290000000013
20
-128.5190299999999866
11
145.5499999999999829
21
-128.5
0
LINE
8
BLACK
6
CONTINUOUS
10
145.5499999999999829
20
-128.5
11
146.4499999999999886
21
-128.5
0
LINE
8
BLACK
6
CONTINUOUS
10
146.4499999999999886
20
-128.5
11
146.5456709999999987
21
-128.5190299999999866
0
LINE
8
BLACK
6
CONTINUOUS
10
148.8456709999999816
20
-126.5690299999999979
11
148.9267769999999871
21
-126.6232229999999959
0
LINE
8
BLACK
6
CONTINUOUS
10
148.9267769999999871
20
-126.6232229999999959
11
148.980969999999985
21
-126.7043290000000013
0
LINE
8
BLACK
6
CONTINUOUS
10
148.980969999999985
20
-126.7043290000000013
11
149.
21
-126.7999999999999972
0
LINE
8
BLACK
6
CONTINUOUS
10
149.
20
-126.7999999999999972
11
149.
21
-127.5
0
LINE
8
BLACK
6
CONTINUOUS
10
149.
20
-127.5
11
148.980969999999985
21
-127.5956709999999958
0
LINE
8
BLACK
6
CONTINUOUS
10
148.980969999999985
20
-127.5956709999999958
11
148.9267769999999871
21
-127.6767770000000013
0
LINE
8
BLACK
6
CONTINUOUS
10
148.9267769999999871
20
-127.6767770000000013
11
148.8456709999999816
21
-127.7309699999999992
0
LINE
8
BLACK
6
CONTINUOUS
10
148.8456709999999816
20
-127.7309699999999992
11
148.75
21
-127.75
0
LINE
8
BLACK
6
CONTINUOUS
10
148.75
20
-127.75
11
147.8499999999999943
21
-127.75
0
LINE
8
BLACK
6
CONTINUOUS
10
147.8499999999999943
20
-127.75
11
147.7543289999999843
21
-127.7309699999999992
0
LINE
8
BLACK
6
CONTINUOUS
10
147.7543289999999843
20
-127.7309699999999992
11
147.6732230000000072
21
-127.6767770000000013
0
LINE
8
BLACK
6
CONTINUOUS
10
147.6732230000000072
20
-127.6767770000000013
11
147.6190299999999809
21
-127.5956709999999958
0
LINE
8
BLACK
6
CONTINUOUS
10
147.6190299999999809
20
-127.5956709999999958
11
147.5999999999999943
21
-127.5
0
LINE
8
BLACK
6
CONTINUOUS
10
147.5999999999999943
20
-127.5
11
147.5999999999999943
21
-126.7999999999999972
0
LINE
8
BLACK
6
CONTINUOUS
10
147.5999999999999943
20
-126.7999999999999972
11
147.6190299999999809
21
-126.7043290000000013
0
LINE
8
BLACK
6
CONTINUOUS
10
147.6190299999999809
20
-126.7043290000000013
11
147.6732230000000072
21
-126.6232229999999959
0
LINE
8
BLACK
6
CONTINUOUS
10
147.6732230000000072
20
-126.6232229999999959
11
147.7543289999999843
21
-126.5690299999999979
0
LINE
8
BLACK
6
CONTINUOUS
10
147.7543289999999843
20
-126.5690299999999979
11
147.8499999999999943
21
-126.5499999999999972
0
LINE
8
BLACK
6
CONTINUOUS
10
147.8499999999999943
20
-126.5499999999999972
11
148.75
21
-126.5499999999999972
0
LINE
8
BLACK
6
CONTINUOUS
10
148.75
20
-126.5499999999999972
11
148.8456709999999816
21
-126.5690299999999979
0
LINE
8
BLACK
6
CONTINUOUS
10
146.5456709999999987
20
-126.5190300000000008
11
146.6267770000000041
21
-126.5732229999999987
0
LINE
8
BLACK
6
CONTINUOUS
10
146.6267770000000041
20
-126.5732229999999987
11
146.6809700000000021
21
-126.6543289999999899
0
LINE
8
BLACK
6
CONTINUOUS
10
146.6809700000000021
20
-126.6543289999999899
11
146.6999999999999886
21
-126.75
0
LINE
8
BLACK
6
CONTINUOUS
10
146.6999999999999886
20
-126.75
11
146.6999999999999886
21
-127.4499999999999886
0
LINE
8
BLACK
6
CONTINUOUS
10
146.6999999999999886
20
-127.4499999999999886
11
146.6809700000000021
21
-127.5456709999999987
0
LINE
8
BLACK
6
CONTINUOUS
10
146.6809700000000021
20
-127.5456709999999987
11
146.6267770000000041
21
-127.6267769999999899
0
LINE
8
BLACK
6
CONTINUOUS
10
146.6267770000000041
20
-127.6267769999999899
11
146.5456709999999987
21
-127.6809699999999879
0
LINE
8
BLACK
6
CONTINUOUS
10
146.5456709999999987
20
-127.6809699999999879
11
146.4499999999999886
21
-127.6999999999999886
0
LINE
8
BLACK
6
CONTINUOUS
10
146.4499999999999886
20
-127.6999999999999886
11
145.5499999999999829
21
-127.6999999999999886
0
LINE
8
BLACK
6
CONTINUOUS
10
145.5499999999999829
20
-127.6999999999999886
11
145.4543290000000013
21
-127.6809699999999879
0
LINE
8
BLACK
6
CONTINUOUS
10
145.4543290000000013
20
-127.6809699999999879
11
145.3732229999999959
21
-127.6267769999999899
0
LINE
8
BLACK
6
CONTINUOUS
10
145.3732229999999959
20
-127.6267769999999899
11
145.3190299999999979
21
-127.5456709999999987
0
LINE
8
BLACK
6
CONTINUOUS
10
145.3190299999999979
20
-127.5456709999999987
11
145.2999999999999829
21
-127.4499999999999886
0
LINE
8
BLACK
6
CONTINUOUS
10
145.2999999999999829
20
-127.4499999999999886
11
145.2999999999999829
21
-126.75
0
LINE
8
BLACK
6
CONTINUOUS
10
145.2999999999999829
20
-126.75
11
145.3190299999999979
21
-126.6543289999999899
0
LINE
8
BLACK
6
CONTINUOUS
10
145.3190299999999979
20
-126.6543289999999899
11
145.3732229999999959
21
-126.5732229999999987
0
LINE
8
BLACK
6
CONTINUOUS
10
145.3732229999999959
20
-126.5732229999999987
11
145.4543290000000013
21
-126.5190300000000008
0
LINE
8
BLACK
6
CONTINUOUS
10
145.4543290000000013
20
-126.5190300000000008
11
145.5499999999999829
21
-126.5
0
LINE
8
BLACK
6
CONTINUOUS
10
145.5499999999999829
20
-126.5
11
146.4499999999999886
21
-126.5
0
LINE
8
BLACK
6
CONTINUOUS
10
146.4499999999999886
20
-126.5
11
146.5456709999999987
21
-126.5190300000000008
0
LINE
8
BLACK
6
CONTINUOUS
10
141.3765369999999848
20
-125.3652239999999978
11
141.4414209999999912
21
-125.4085789999999889
0
LINE
8
BLACK
6
CONTINUOUS
10
141.4414209999999912
20
-125.4085789999999889
11
141.4847759999999823
21
-125.4734629999999953
0
LINE
8
BLACK
6
CONTINUOUS
10
141.4847759999999823
20
-125.4734629999999953
11
141.5
21
-125.5499999999999972
0
LINE
8
BLACK
6
CONTINUOUS
10
141.5
20
-125.5499999999999972
11
141.5
21
-127.0499999999999972
0
LINE
8
BLACK
6
CONTINUOUS
10
141.5
20
-127.0499999999999972
11
141.4847759999999823
21
-127.126536999999999
0
LINE
8
BLACK
6
CONTINUOUS
10
141.4847759999999823
20
-127.126536999999999
11
141.4414209999999912
21
-127.1914209999999912
0
LINE
8
BLACK
6
CONTINUOUS
10
141.4414209999999912
20
-127.1914209999999912
11
141.3765369999999848
21
-127.2347759999999965
0
LINE
8
BLACK
6
CONTINUOUS
10
141.3765369999999848
20
-127.2347759999999965
11
141.2999999999999829
21
-127.25
0
LINE
8
BLACK
6
CONTINUOUS
10
141.2999999999999829
20
-127.25
11
140.9000000000000057
21
-127.25
0
LINE
8
BLACK
6
CONTINUOUS
10
140.9000000000000057
20
-127.25
11
140.8234630000000038
21
-127.2347759999999965
0
LINE
8
BLACK
6
CONTINUOUS
10
140.8234630000000038
20
-127.2347759999999965
11
140.7585789999999974
21
-127.1914209999999912
0
LINE
8
BLACK
6
CONTINUOUS
10
140.7585789999999974
20
-127.1914209999999912
11
140.7152240000000063
21
-127.126536999999999
0
LINE
8
BLACK
6
CONTINUOUS
10
140.7152240000000063
20
-127.126536999999999
11
140.6999999999999886
21
-127.0499999999999972
0
LINE
8
BLACK
6
CONTINUOUS
10
140.6999999999999886
20
-127.0499999999999972
11
140.6999999999999886
21
-125.5499999999999972
0
LINE
8
BLACK
6
CONTINUOUS
10
140.6999999999999886
20
-125.5499999999999972
11
140.7152240000000063
21
-125.4734629999999953
0
LINE
8
BLACK
6
CONTINUOUS
10
140.7152240000000063
20
-125.4734629999999953
11
140.7585789999999974
21
-125.4085789999999889
0
LINE
8
BLACK
6
CONTINUOUS
10
140.7585789999999974
20
-125.4085789999999889
11
140.8234630000000038
21
-125.3652239999999978
0
LINE
8
BLACK
6
CONTINUOUS
10
140.8234630000000038
20
-125.3652239999999978
11
140.9000000000000057
21
-125.3499999999999943
0
LINE
8
BLACK
6
CONTINUOUS
10
140.9000000000000057
20
-125.3499999999999943
11
141.2999999999999829
21
-125.3499999999999943
0
LINE
8
BLACK
6
CONTINUOUS
10
141.2999999999999829
20
-125.3499999999999943
11
141.3765369999999848
21
-125.3652239999999978
0
LINE
8
BLACK
6
CONTINUOUS
10
137.4765370000000075
20
-125.0652240000000006
11
137.5414209999999855
21
-125.1085789999999918
0
LINE
8
BLACK
6
CONTINUOUS
10
137.5414209999999855
20
-125.1085789999999918
11
137.5847760000000051
21
-125.1734629999999981
0
LINE
8
BLACK
6
CONTINUOUS
10
137.5847760000000051
20
-125.1734629999999981
11
137.5999999999999943
21
-125.25
0
LINE
8
BLACK
6
CONTINUOUS
10
137.5999999999999943
20
-125.25
11
137.5999999999999943
21
-126.75
0
LINE
8
BLACK
6
CONTINUOUS
10
137.5999999999999943
20
-126.75
11
137.5847760000000051
21
-126.8265369999999876
0
LINE
8
BLACK
6
CONTINUOUS
10
137.5847760000000051
20
-126.8265369999999876
11
137.5414209999999855
21
-126.891420999999994
0
LINE
8
BLACK
6
CONTINUOUS
10
137.5414209999999855
20
-126.891420999999994
11
137.4765370000000075
21
-126.9347759999999994
0
LINE
8
BLACK
6
CONTINUOUS
10
137.4765370000000075
20
-126.9347759999999994
11
137.4000000000000057
21
-126.9499999999999886
0
LINE
8
BLACK
6
CONTINUOUS
10
137.4000000000000057
20
-126.9499999999999886
11
137.
21
-126.9499999999999886
0
LINE
8
BLACK
6
CONTINUOUS
10
137.
20
-126.9499999999999886
11
136.9234629999999981
21
-126.9347759999999994
0
LINE
8
BLACK
6
CONTINUOUS
10
136.9234629999999981
20
-126.9347759999999994
11
136.8585789999999918
21
-126.891420999999994
0
LINE
8
BLACK
6
CONTINUOUS
10
136.8585789999999918
20
-126.891420999999994
11
136.8152240000000006
21
-126.8265369999999876
0
LINE
8
BLACK
6
CONTINUOUS
10
136.8152240000000006
20
-126.8265369999999876
11
136.7999999999999829
21
-126.75
0
LINE
8
BLACK
6
CONTINUOUS
10
136.7999999999999829
20
-126.75
11
136.7999999999999829
21
-125.25
0
LINE
8
BLACK
6
CONTINUOUS
10
136.7999999999999829
20
-125.25
11
136.8152240000000006
21
-125.1734629999999981
0
LINE
8
BLACK
6
CONTINUOUS
10
136.8152240000000006
20
-125.1734629999999981
11
136.8585789999999918
21
-125.1085789999999918
0
LINE
8
BLACK
6
CONTINUOUS
10
136.8585789999999918
20
-125.1085789999999918
11
136.9234629999999981
21
-125.0652240000000006
0
LINE
8
BLACK
6
CONTINUOUS
10
136.9234629999999981
20
-125.0652240000000006
11
137.
21
-125.0499999999999972
0
LINE
8
BLACK
6
CONTINUOUS
10
137.
20
-125.0499999999999972
11
137.4000000000000057
21
-125.0499999999999972
0
LINE
8
BLACK
6
CONTINUOUS
10
137.4000000000000057
20
-125.0499999999999972
11
137.4765370000000075
21
-125.0652240000000006
  0
ENDSEC
  0
EOF
