  0
SECTION
  2
HEADER
  9
$ANGBASE
  50
0.0
  9
$ANGDIR
  70
1
  9
$MEASUREMENT
  70
1
  0
ENDSEC
  0
SECTION
  2
TABLES
  0
TABLE
  2
LTYPE
  70
4
  0
LTYPE
  5
40F
  2
CONTINUOUS
  70
0
  3
Solid line
  72
65
  73
0
  40
0.0
  0
LTYPE
  5
410
  2
DASHDOT
 70
0
  3
Dash Dot ____ _ ____ _
 72
65
 73
4
 40
2.0
 49
1.25
 49
-0.25
 49
0.25
 49
-0.25
  0
LTYPE
  5
411
  2
DASHED
 70
0
  3
Dashed __ __ __ __ __
 72
65
 73
2
 40
0.75
 49
0.5
 49
-0.25
  0
LTYPE
  5
43B
  2
DOTTED
 70
0
  3
Dotted .  .  .  .
 72
65
 73
2
 40
0.2
 49
0.0
 49
-0.2
  0
ENDTAB
  0
TABLE
  2
STYLE
  70
4
  0
STYLE
  2
KICAD
  70
0
  40
0
  41
1
  42
1
  50
0
  71
0
  3
isocp.shx
  0
STYLE
  2
KICADB
  70
0
  40
0
  41
1
  42
1
  50
0
  71
0
  3
isocp.shx
  0
STYLE
  2
KICADI
  70
0
  40
0
  41
1
  42
1
  50
15
  71
0
  3
isocp.shx
  0
STYLE
  2
KICADBI
  70
0
  40
0
  41
1
  42
1
  50
15
  71
0
  3
isocp.shx
  0
ENDTAB
  0
TABLE
  2
LAYER
  70
1
  0
LAYER
  2
BLACK
  70
0
  62
7
  6
CONTINUOUS
  0
ENDTAB
  0
ENDSEC
  0
SECTION
  2
ENTITIES
0
LINE
8
BLACK
6
CONTINUOUS
10
110.
20
-158.
11
110.
21
-150.
0
LINE
8
BLACK
6
CONTINUOUS
10
170.
20
-158.
11
170.
21
-150.
0
LINE
8
BLACK
6
CONTINUOUS
10
180.
20
-158.
11
170.
21
-158.
0
LINE
8
BLACK
6
CONTINUOUS
10
180.
20
-158.
11
180.
21
-134.7599999999999909
0
LINE
8
BLACK
6
CONTINUOUS
10
100.
20
-134.7599999999999909
11
100.
21
-150.
0
LINE
8
BLACK
6
CONTINUOUS
10
167.3100000000000023
20
-122.6949999999999932
11
112.0649999999999977
21
-122.6949999999999932
0
LINE
8
BLACK
6
CONTINUOUS
10
112.0649999999999977
20
-122.6949999999999932
11
100.
21
-134.7599999999999909
0
LINE
8
BLACK
6
CONTINUOUS
10
167.9449999999999932
20
-122.6949999999999932
11
167.3100000000000023
21
-122.6949999999999932
0
LINE
8
BLACK
6
CONTINUOUS
10
100.
20
-158.
11
110.
21
-158.
0
LINE
8
BLACK
6
CONTINUOUS
10
110.
20
-150.
11
170.
21
-150.
0
LINE
8
BLACK
6
CONTINUOUS
10
180.
20
-134.7599999999999909
11
167.9449999999999932
21
-122.6949999999999932
0
LINE
8
BLACK
6
CONTINUOUS
10
100.
20
-150.
11
100.
21
-158.
  0
ENDSEC
  0
EOF
