  0
SECTION
  2
HEADER
  9
$ANGBASE
  50
0.0
  9
$ANGDIR
  70
1
  9
$MEASUREMENT
  70
1
  0
ENDSEC
  0
SECTION
  2
TABLES
  0
TABLE
  2
LTYPE
  70
4
  0
LTYPE
  5
40F
  2
CONTINUOUS
  70
0
  3
Solid line
  72
65
  73
0
  40
0.0
  0
LTYPE
  5
410
  2
DASHDOT
 70
0
  3
Dash Dot ____ _ ____ _
 72
65
 73
4
 40
2.0
 49
1.25
 49
-0.25
 49
0.25
 49
-0.25
  0
LTYPE
  5
411
  2
DASHED
 70
0
  3
Dashed __ __ __ __ __
 72
65
 73
2
 40
0.75
 49
0.5
 49
-0.25
  0
LTYPE
  5
43B
  2
DOTTED
 70
0
  3
Dotted .  .  .  .
 72
65
 73
2
 40
0.2
 49
0.0
 49
-0.2
  0
ENDTAB
  0
TABLE
  2
STYLE
  70
4
  0
STYLE
  2
KICAD
  70
0
  40
0
  41
1
  42
1
  50
0
  71
0
  3
isocp.shx
  0
STYLE
  2
KICADB
  70
0
  40
0
  41
1
  42
1
  50
0
  71
0
  3
isocp.shx
  0
STYLE
  2
KICADI
  70
0
  40
0
  41
1
  42
1
  50
15
  71
0
  3
isocp.shx
  0
STYLE
  2
KICADBI
  70
0
  40
0
  41
1
  42
1
  50
15
  71
0
  3
isocp.shx
  0
ENDTAB
  0
TABLE
  2
LAYER
  70
1
  0
LAYER
  2
BLACK
  70
0
  62
7
  6
CONTINUOUS
  0
ENDTAB
  0
ENDSEC
  0
SECTION
  2
ENTITIES
0
LINE
8
BLACK
6
CONTINUOUS
10
122.1206699999999898
20
-145.7940299999999922
11
122.2017759999999953
21
-145.8482239999999877
0
LINE
8
BLACK
6
CONTINUOUS
10
122.2017759999999953
20
-145.8482239999999877
11
122.2559699999999907
21
-145.9293299999999931
0
LINE
8
BLACK
6
CONTINUOUS
10
122.2559699999999907
20
-145.9293299999999931
11
122.274998999999994
21
-146.0250020000000006
0
LINE
8
BLACK
6
CONTINUOUS
10
122.274998999999994
20
-146.0250020000000006
11
122.2749999999999915
21
-146.9499989999999912
0
LINE
8
BLACK
6
CONTINUOUS
10
122.2749999999999915
20
-146.9499989999999912
11
122.2559699999999907
21
-147.0456700000000012
0
LINE
8
BLACK
6
CONTINUOUS
10
122.2559699999999907
20
-147.0456700000000012
11
122.2017759999999953
21
-147.1267760000000067
0
LINE
8
BLACK
6
CONTINUOUS
10
122.2017759999999953
20
-147.1267760000000067
11
122.1206699999999898
21
-147.1809700000000021
0
LINE
8
BLACK
6
CONTINUOUS
10
122.1206699999999898
20
-147.1809700000000021
11
122.0249979999999965
21
-147.1999989999999912
0
LINE
8
BLACK
6
CONTINUOUS
10
122.0249979999999965
20
-147.1999989999999912
11
120.7750009999999889
21
-147.1999999999999886
0
LINE
8
BLACK
6
CONTINUOUS
10
120.7750009999999889
20
-147.1999999999999886
11
120.6793299999999931
21
-147.1809700000000021
0
LINE
8
BLACK
6
CONTINUOUS
10
120.6793299999999931
20
-147.1809700000000021
11
120.5982239999999877
21
-147.1267760000000067
0
LINE
8
BLACK
6
CONTINUOUS
10
120.5982239999999877
20
-147.1267760000000067
11
120.5440299999999922
21
-147.0456700000000012
0
LINE
8
BLACK
6
CONTINUOUS
10
120.5440299999999922
20
-147.0456700000000012
11
120.5250009999999889
21
-146.9499979999999937
0
LINE
8
BLACK
6
CONTINUOUS
10
120.5250009999999889
20
-146.9499979999999937
11
120.5249999999999915
21
-146.0250010000000032
0
LINE
8
BLACK
6
CONTINUOUS
10
120.5249999999999915
20
-146.0250010000000032
11
120.5440299999999922
21
-145.9293299999999931
0
LINE
8
BLACK
6
CONTINUOUS
10
120.5440299999999922
20
-145.9293299999999931
11
120.5982239999999877
21
-145.8482239999999877
0
LINE
8
BLACK
6
CONTINUOUS
10
120.5982239999999877
20
-145.8482239999999877
11
120.6793299999999931
21
-145.7940299999999922
0
LINE
8
BLACK
6
CONTINUOUS
10
120.6793299999999931
20
-145.7940299999999922
11
120.7750020000000006
21
-145.7750010000000032
0
LINE
8
BLACK
6
CONTINUOUS
10
120.7750020000000006
20
-145.7750010000000032
11
122.024998999999994
21
-145.7750000000000057
0
LINE
8
BLACK
6
CONTINUOUS
10
122.024998999999994
20
-145.7750000000000057
11
122.1206699999999898
21
-145.7940299999999922
0
LINE
8
BLACK
6
CONTINUOUS
10
125.5956709999999958
20
-145.2790300000000059
11
125.6767770000000013
21
-145.3332230000000038
0
LINE
8
BLACK
6
CONTINUOUS
10
125.6767770000000013
20
-145.3332230000000038
11
125.7309699999999992
21
-145.4143289999999809
0
LINE
8
BLACK
6
CONTINUOUS
10
125.7309699999999992
20
-145.4143289999999809
11
125.75
21
-145.5099999999999909
0
LINE
8
BLACK
6
CONTINUOUS
10
125.75
20
-145.5099999999999909
11
125.75
21
-146.2099999999999795
0
LINE
8
BLACK
6
CONTINUOUS
10
125.75
20
-146.2099999999999795
11
125.7309699999999992
21
-146.3056709999999896
0
LINE
8
BLACK
6
CONTINUOUS
10
125.7309699999999992
20
-146.3056709999999896
11
125.6767770000000013
21
-146.386776999999995
0
LINE
8
BLACK
6
CONTINUOUS
10
125.6767770000000013
20
-146.386776999999995
11
125.5956709999999958
21
-146.440969999999993
0
LINE
8
BLACK
6
CONTINUOUS
10
125.5956709999999958
20
-146.440969999999993
11
125.5
21
-146.4599999999999795
0
LINE
8
BLACK
6
CONTINUOUS
10
125.5
20
-146.4599999999999795
11
124.5999999999999943
21
-146.4599999999999795
0
LINE
8
BLACK
6
CONTINUOUS
10
124.5999999999999943
20
-146.4599999999999795
11
124.5043289999999985
21
-146.440969999999993
0
LINE
8
BLACK
6
CONTINUOUS
10
124.5043289999999985
20
-146.440969999999993
11
124.423222999999993
21
-146.386776999999995
0
LINE
8
BLACK
6
CONTINUOUS
10
124.423222999999993
20
-146.386776999999995
11
124.3690299999999951
21
-146.3056709999999896
0
LINE
8
BLACK
6
CONTINUOUS
10
124.3690299999999951
20
-146.3056709999999896
11
124.3499999999999943
21
-146.2099999999999795
0
LINE
8
BLACK
6
CONTINUOUS
10
124.3499999999999943
20
-146.2099999999999795
11
124.3499999999999943
21
-145.5099999999999909
0
LINE
8
BLACK
6
CONTINUOUS
10
124.3499999999999943
20
-145.5099999999999909
11
124.3690299999999951
21
-145.4143289999999809
0
LINE
8
BLACK
6
CONTINUOUS
10
124.3690299999999951
20
-145.4143289999999809
11
124.423222999999993
21
-145.3332230000000038
0
LINE
8
BLACK
6
CONTINUOUS
10
124.423222999999993
20
-145.3332230000000038
11
124.5043289999999985
21
-145.2790300000000059
0
LINE
8
BLACK
6
CONTINUOUS
10
124.5043289999999985
20
-145.2790300000000059
11
124.5999999999999943
21
-145.2599999999999909
0
LINE
8
BLACK
6
CONTINUOUS
10
124.5999999999999943
20
-145.2599999999999909
11
125.5
21
-145.2599999999999909
0
LINE
8
BLACK
6
CONTINUOUS
10
125.5
20
-145.2599999999999909
11
125.5956709999999958
21
-145.2790300000000059
0
LINE
8
BLACK
6
CONTINUOUS
10
159.020670999999993
20
-144.5190299999999866
11
159.1017769999999985
21
-144.5732229999999845
0
LINE
8
BLACK
6
CONTINUOUS
10
159.1017769999999985
20
-144.5732229999999845
11
159.1559699999999964
21
-144.6543289999999899
0
LINE
8
BLACK
6
CONTINUOUS
10
159.1559699999999964
20
-144.6543289999999899
11
159.1749999999999829
21
-144.75
0
LINE
8
BLACK
6
CONTINUOUS
10
159.1749999999999829
20
-144.75
11
159.1749999999999829
21
-145.4249999999999829
0
LINE
8
BLACK
6
CONTINUOUS
10
159.1749999999999829
20
-145.4249999999999829
11
159.1559699999999964
21
-145.520670999999993
0
LINE
8
BLACK
6
CONTINUOUS
10
159.1559699999999964
20
-145.520670999999993
11
159.1017769999999985
21
-145.6017769999999985
0
LINE
8
BLACK
6
CONTINUOUS
10
159.1017769999999985
20
-145.6017769999999985
11
159.020670999999993
21
-145.6559699999999964
0
LINE
8
BLACK
6
CONTINUOUS
10
159.020670999999993
20
-145.6559699999999964
11
158.9249999999999829
21
-145.6749999999999829
0
LINE
8
BLACK
6
CONTINUOUS
10
158.9249999999999829
20
-145.6749999999999829
11
157.9749999999999943
21
-145.6749999999999829
0
LINE
8
BLACK
6
CONTINUOUS
10
157.9749999999999943
20
-145.6749999999999829
11
157.8793289999999843
21
-145.6559699999999964
0
LINE
8
BLACK
6
CONTINUOUS
10
157.8793289999999843
20
-145.6559699999999964
11
157.7982229999999788
21
-145.6017769999999985
0
LINE
8
BLACK
6
CONTINUOUS
10
157.7982229999999788
20
-145.6017769999999985
11
157.7440299999999809
21
-145.520670999999993
0
LINE
8
BLACK
6
CONTINUOUS
10
157.7440299999999809
20
-145.520670999999993
11
157.7249999999999943
21
-145.4249999999999829
0
LINE
8
BLACK
6
CONTINUOUS
10
157.7249999999999943
20
-145.4249999999999829
11
157.7249999999999943
21
-144.75
0
LINE
8
BLACK
6
CONTINUOUS
10
157.7249999999999943
20
-144.75
11
157.7440299999999809
21
-144.6543289999999899
0
LINE
8
BLACK
6
CONTINUOUS
10
157.7440299999999809
20
-144.6543289999999899
11
157.7982229999999788
21
-144.5732229999999845
0
LINE
8
BLACK
6
CONTINUOUS
10
157.7982229999999788
20
-144.5732229999999845
11
157.8793289999999843
21
-144.5190299999999866
0
LINE
8
BLACK
6
CONTINUOUS
10
157.8793289999999843
20
-144.5190299999999866
11
157.9749999999999943
21
-144.5
0
LINE
8
BLACK
6
CONTINUOUS
10
157.9749999999999943
20
-144.5
11
158.9249999999999829
21
-144.5
0
LINE
8
BLACK
6
CONTINUOUS
10
158.9249999999999829
20
-144.5
11
159.020670999999993
21
-144.5190299999999866
0
LINE
8
BLACK
6
CONTINUOUS
10
156.5956709999999816
20
-144.4690300000000036
11
156.6767769999999871
21
-144.5232230000000015
0
LINE
8
BLACK
6
CONTINUOUS
10
156.6767769999999871
20
-144.5232230000000015
11
156.730969999999985
21
-144.604329000000007
0
LINE
8
BLACK
6
CONTINUOUS
10
156.730969999999985
20
-144.604329000000007
11
156.75
21
-144.6999999999999886
0
LINE
8
BLACK
6
CONTINUOUS
10
156.75
20
-144.6999999999999886
11
156.75
21
-145.4000000000000057
0
LINE
8
BLACK
6
CONTINUOUS
10
156.75
20
-145.4000000000000057
11
156.730969999999985
21
-145.4956709999999873
0
LINE
8
BLACK
6
CONTINUOUS
10
156.730969999999985
20
-145.4956709999999873
11
156.6767769999999871
21
-145.5767769999999928
0
LINE
8
BLACK
6
CONTINUOUS
10
156.6767769999999871
20
-145.5767769999999928
11
156.5956709999999816
21
-145.6309699999999907
0
LINE
8
BLACK
6
CONTINUOUS
10
156.5956709999999816
20
-145.6309699999999907
11
156.5
21
-145.6500000000000057
0
LINE
8
BLACK
6
CONTINUOUS
10
156.5
20
-145.6500000000000057
11
155.5999999999999943
21
-145.6500000000000057
0
LINE
8
BLACK
6
CONTINUOUS
10
155.5999999999999943
20
-145.6500000000000057
11
155.5043289999999843
21
-145.6309699999999907
0
LINE
8
BLACK
6
CONTINUOUS
10
155.5043289999999843
20
-145.6309699999999907
11
155.4232229999999788
21
-145.5767769999999928
0
LINE
8
BLACK
6
CONTINUOUS
10
155.4232229999999788
20
-145.5767769999999928
11
155.3690299999999809
21
-145.4956709999999873
0
LINE
8
BLACK
6
CONTINUOUS
10
155.3690299999999809
20
-145.4956709999999873
11
155.3499999999999943
21
-145.4000000000000057
0
LINE
8
BLACK
6
CONTINUOUS
10
155.3499999999999943
20
-145.4000000000000057
11
155.3499999999999943
21
-144.6999999999999886
0
LINE
8
BLACK
6
CONTINUOUS
10
155.3499999999999943
20
-144.6999999999999886
11
155.3690299999999809
21
-144.604329000000007
0
LINE
8
BLACK
6
CONTINUOUS
10
155.3690299999999809
20
-144.604329000000007
11
155.4232229999999788
21
-144.5232230000000015
0
LINE
8
BLACK
6
CONTINUOUS
10
155.4232229999999788
20
-144.5232230000000015
11
155.5043289999999843
21
-144.4690300000000036
0
LINE
8
BLACK
6
CONTINUOUS
10
155.5043289999999843
20
-144.4690300000000036
11
155.5999999999999943
21
-144.4499999999999886
0
LINE
8
BLACK
6
CONTINUOUS
10
155.5999999999999943
20
-144.4499999999999886
11
156.5
21
-144.4499999999999886
0
LINE
8
BLACK
6
CONTINUOUS
10
156.5
20
-144.4499999999999886
11
156.5956709999999816
21
-144.4690300000000036
0
LINE
8
BLACK
6
CONTINUOUS
10
125.5956709999999958
20
-143.2790300000000059
11
125.6767770000000013
21
-143.3332230000000038
0
LINE
8
BLACK
6
CONTINUOUS
10
125.6767770000000013
20
-143.3332230000000038
11
125.7309699999999992
21
-143.4143289999999809
0
LINE
8
BLACK
6
CONTINUOUS
10
125.7309699999999992
20
-143.4143289999999809
11
125.75
21
-143.5099999999999909
0
LINE
8
BLACK
6
CONTINUOUS
10
125.75
20
-143.5099999999999909
11
125.75
21
-144.2099999999999795
0
LINE
8
BLACK
6
CONTINUOUS
10
125.75
20
-144.2099999999999795
11
125.7309699999999992
21
-144.3056709999999896
0
LINE
8
BLACK
6
CONTINUOUS
10
125.7309699999999992
20
-144.3056709999999896
11
125.6767770000000013
21
-144.386776999999995
0
LINE
8
BLACK
6
CONTINUOUS
10
125.6767770000000013
20
-144.386776999999995
11
125.5956709999999958
21
-144.440969999999993
0
LINE
8
BLACK
6
CONTINUOUS
10
125.5956709999999958
20
-144.440969999999993
11
125.5
21
-144.4599999999999795
0
LINE
8
BLACK
6
CONTINUOUS
10
125.5
20
-144.4599999999999795
11
124.5999999999999943
21
-144.4599999999999795
0
LINE
8
BLACK
6
CONTINUOUS
10
124.5999999999999943
20
-144.4599999999999795
11
124.5043289999999985
21
-144.440969999999993
0
LINE
8
BLACK
6
CONTINUOUS
10
124.5043289999999985
20
-144.440969999999993
11
124.423222999999993
21
-144.386776999999995
0
LINE
8
BLACK
6
CONTINUOUS
10
124.423222999999993
20
-144.386776999999995
11
124.3690299999999951
21
-144.3056709999999896
0
LINE
8
BLACK
6
CONTINUOUS
10
124.3690299999999951
20
-144.3056709999999896
11
124.3499999999999943
21
-144.2099999999999795
0
LINE
8
BLACK
6
CONTINUOUS
10
124.3499999999999943
20
-144.2099999999999795
11
124.3499999999999943
21
-143.5099999999999909
0
LINE
8
BLACK
6
CONTINUOUS
10
124.3499999999999943
20
-143.5099999999999909
11
124.3690299999999951
21
-143.4143289999999809
0
LINE
8
BLACK
6
CONTINUOUS
10
124.3690299999999951
20
-143.4143289999999809
11
124.423222999999993
21
-143.3332230000000038
0
LINE
8
BLACK
6
CONTINUOUS
10
124.423222999999993
20
-143.3332230000000038
11
124.5043289999999985
21
-143.2790300000000059
0
LINE
8
BLACK
6
CONTINUOUS
10
124.5043289999999985
20
-143.2790300000000059
11
124.5999999999999943
21
-143.2599999999999909
0
LINE
8
BLACK
6
CONTINUOUS
10
124.5999999999999943
20
-143.2599999999999909
11
125.5
21
-143.2599999999999909
0
LINE
8
BLACK
6
CONTINUOUS
10
125.5
20
-143.2599999999999909
11
125.5956709999999958
21
-143.2790300000000059
0
LINE
8
BLACK
6
CONTINUOUS
10
122.1206699999999898
20
-142.8190299999999979
11
122.2017759999999953
21
-142.8732239999999933
0
LINE
8
BLACK
6
CONTINUOUS
10
122.2017759999999953
20
-142.8732239999999933
11
122.2559699999999907
21
-142.9543299999999988
0
LINE
8
BLACK
6
CONTINUOUS
10
122.2559699999999907
20
-142.9543299999999988
11
122.274998999999994
21
-143.0500020000000063
0
LINE
8
BLACK
6
CONTINUOUS
10
122.274998999999994
20
-143.0500020000000063
11
122.2749999999999915
21
-143.9749989999999968
0
LINE
8
BLACK
6
CONTINUOUS
10
122.2749999999999915
20
-143.9749989999999968
11
122.2559699999999907
21
-144.0706700000000069
0
LINE
8
BLACK
6
CONTINUOUS
10
122.2559699999999907
20
-144.0706700000000069
11
122.2017759999999953
21
-144.1517759999999839
0
LINE
8
BLACK
6
CONTINUOUS
10
122.2017759999999953
20
-144.1517759999999839
11
122.1206699999999898
21
-144.2059699999999793
0
LINE
8
BLACK
6
CONTINUOUS
10
122.1206699999999898
20
-144.2059699999999793
11
122.0249979999999965
21
-144.2249989999999968
0
LINE
8
BLACK
6
CONTINUOUS
10
122.0249979999999965
20
-144.2249989999999968
11
120.7750009999999889
21
-144.2249999999999943
0
LINE
8
BLACK
6
CONTINUOUS
10
120.7750009999999889
20
-144.2249999999999943
11
120.6793299999999931
21
-144.2059699999999793
0
LINE
8
BLACK
6
CONTINUOUS
10
120.6793299999999931
20
-144.2059699999999793
11
120.5982239999999877
21
-144.1517759999999839
0
LINE
8
BLACK
6
CONTINUOUS
10
120.5982239999999877
20
-144.1517759999999839
11
120.5440299999999922
21
-144.0706700000000069
0
LINE
8
BLACK
6
CONTINUOUS
10
120.5440299999999922
20
-144.0706700000000069
11
120.5250009999999889
21
-143.9749979999999994
0
LINE
8
BLACK
6
CONTINUOUS
10
120.5250009999999889
20
-143.9749979999999994
11
120.5249999999999915
21
-143.0500009999999804
0
LINE
8
BLACK
6
CONTINUOUS
10
120.5249999999999915
20
-143.0500009999999804
11
120.5440299999999922
21
-142.9543299999999988
0
LINE
8
BLACK
6
CONTINUOUS
10
120.5440299999999922
20
-142.9543299999999988
11
120.5982239999999877
21
-142.8732239999999933
0
LINE
8
BLACK
6
CONTINUOUS
10
120.5982239999999877
20
-142.8732239999999933
11
120.6793299999999931
21
-142.8190299999999979
0
LINE
8
BLACK
6
CONTINUOUS
10
120.6793299999999931
20
-142.8190299999999979
11
120.7750020000000006
21
-142.8000009999999804
0
LINE
8
BLACK
6
CONTINUOUS
10
120.7750020000000006
20
-142.8000009999999804
11
122.024998999999994
21
-142.7999999999999829
0
LINE
8
BLACK
6
CONTINUOUS
10
122.024998999999994
20
-142.7999999999999829
11
122.1206699999999898
21
-142.8190299999999979
0
LINE
8
BLACK
6
CONTINUOUS
10
156.5956709999999816
20
-142.4690300000000036
11
156.6767769999999871
21
-142.5232230000000015
0
LINE
8
BLACK
6
CONTINUOUS
10
156.6767769999999871
20
-142.5232230000000015
11
156.730969999999985
21
-142.604329000000007
0
LINE
8
BLACK
6
CONTINUOUS
10
156.730969999999985
20
-142.604329000000007
11
156.75
21
-142.6999999999999886
0
LINE
8
BLACK
6
CONTINUOUS
10
156.75
20
-142.6999999999999886
11
156.75
21
-143.4000000000000057
0
LINE
8
BLACK
6
CONTINUOUS
10
156.75
20
-143.4000000000000057
11
156.730969999999985
21
-143.4956709999999873
0
LINE
8
BLACK
6
CONTINUOUS
10
156.730969999999985
20
-143.4956709999999873
11
156.6767769999999871
21
-143.5767769999999928
0
LINE
8
BLACK
6
CONTINUOUS
10
156.6767769999999871
20
-143.5767769999999928
11
156.5956709999999816
21
-143.6309699999999907
0
LINE
8
BLACK
6
CONTINUOUS
10
156.5956709999999816
20
-143.6309699999999907
11
156.5
21
-143.6500000000000057
0
LINE
8
BLACK
6
CONTINUOUS
10
156.5
20
-143.6500000000000057
11
155.5999999999999943
21
-143.6500000000000057
0
LINE
8
BLACK
6
CONTINUOUS
10
155.5999999999999943
20
-143.6500000000000057
11
155.5043289999999843
21
-143.6309699999999907
0
LINE
8
BLACK
6
CONTINUOUS
10
155.5043289999999843
20
-143.6309699999999907
11
155.4232229999999788
21
-143.5767769999999928
0
LINE
8
BLACK
6
CONTINUOUS
10
155.4232229999999788
20
-143.5767769999999928
11
155.3690299999999809
21
-143.4956709999999873
0
LINE
8
BLACK
6
CONTINUOUS
10
155.3690299999999809
20
-143.4956709999999873
11
155.3499999999999943
21
-143.4000000000000057
0
LINE
8
BLACK
6
CONTINUOUS
10
155.3499999999999943
20
-143.4000000000000057
11
155.3499999999999943
21
-142.6999999999999886
0
LINE
8
BLACK
6
CONTINUOUS
10
155.3499999999999943
20
-142.6999999999999886
11
155.3690299999999809
21
-142.604329000000007
0
LINE
8
BLACK
6
CONTINUOUS
10
155.3690299999999809
20
-142.604329000000007
11
155.4232229999999788
21
-142.5232230000000015
0
LINE
8
BLACK
6
CONTINUOUS
10
155.4232229999999788
20
-142.5232230000000015
11
155.5043289999999843
21
-142.4690300000000036
0
LINE
8
BLACK
6
CONTINUOUS
10
155.5043289999999843
20
-142.4690300000000036
11
155.5999999999999943
21
-142.4499999999999886
0
LINE
8
BLACK
6
CONTINUOUS
10
155.5999999999999943
20
-142.4499999999999886
11
156.5
21
-142.4499999999999886
0
LINE
8
BLACK
6
CONTINUOUS
10
156.5
20
-142.4499999999999886
11
156.5956709999999816
21
-142.4690300000000036
0
LINE
8
BLACK
6
CONTINUOUS
10
159.020670999999993
20
-142.4440299999999979
11
159.1017769999999985
21
-142.4982229999999959
0
LINE
8
BLACK
6
CONTINUOUS
10
159.1017769999999985
20
-142.4982229999999959
11
159.1559699999999964
21
-142.5793290000000013
0
LINE
8
BLACK
6
CONTINUOUS
10
159.1559699999999964
20
-142.5793290000000013
11
159.1749999999999829
21
-142.6749999999999829
0
LINE
8
BLACK
6
CONTINUOUS
10
159.1749999999999829
20
-142.6749999999999829
11
159.1749999999999829
21
-143.3499999999999943
0
LINE
8
BLACK
6
CONTINUOUS
10
159.1749999999999829
20
-143.3499999999999943
11
159.1559699999999964
21
-143.4456710000000044
0
LINE
8
BLACK
6
CONTINUOUS
10
159.1559699999999964
20
-143.4456710000000044
11
159.1017769999999985
21
-143.5267769999999814
0
LINE
8
BLACK
6
CONTINUOUS
10
159.1017769999999985
20
-143.5267769999999814
11
159.020670999999993
21
-143.5809699999999793
0
LINE
8
BLACK
6
CONTINUOUS
10
159.020670999999993
20
-143.5809699999999793
11
158.9249999999999829
21
-143.5999999999999943
0
LINE
8
BLACK
6
CONTINUOUS
10
158.9249999999999829
20
-143.5999999999999943
11
157.9749999999999943
21
-143.5999999999999943
0
LINE
8
BLACK
6
CONTINUOUS
10
157.9749999999999943
20
-143.5999999999999943
11
157.8793289999999843
21
-143.5809699999999793
0
LINE
8
BLACK
6
CONTINUOUS
10
157.8793289999999843
20
-143.5809699999999793
11
157.7982229999999788
21
-143.5267769999999814
0
LINE
8
BLACK
6
CONTINUOUS
10
157.7982229999999788
20
-143.5267769999999814
11
157.7440299999999809
21
-143.4456710000000044
0
LINE
8
BLACK
6
CONTINUOUS
10
157.7440299999999809
20
-143.4456710000000044
11
157.7249999999999943
21
-143.3499999999999943
0
LINE
8
BLACK
6
CONTINUOUS
10
157.7249999999999943
20
-143.3499999999999943
11
157.7249999999999943
21
-142.6749999999999829
0
LINE
8
BLACK
6
CONTINUOUS
10
157.7249999999999943
20
-142.6749999999999829
11
157.7440299999999809
21
-142.5793290000000013
0
LINE
8
BLACK
6
CONTINUOUS
10
157.7440299999999809
20
-142.5793290000000013
11
157.7982229999999788
21
-142.4982229999999959
0
LINE
8
BLACK
6
CONTINUOUS
10
157.7982229999999788
20
-142.4982229999999959
11
157.8793289999999843
21
-142.4440299999999979
0
LINE
8
BLACK
6
CONTINUOUS
10
157.8793289999999843
20
-142.4440299999999979
11
157.9749999999999943
21
-142.4249999999999829
0
LINE
8
BLACK
6
CONTINUOUS
10
157.9749999999999943
20
-142.4249999999999829
11
158.9249999999999829
21
-142.4249999999999829
0
LINE
8
BLACK
6
CONTINUOUS
10
158.9249999999999829
20
-142.4249999999999829
11
159.020670999999993
21
-142.4440299999999979
0
LINE
8
BLACK
6
CONTINUOUS
10
156.6206709999999873
20
-139.3190299999999979
11
156.7017769999999928
21
-139.3732229999999959
0
LINE
8
BLACK
6
CONTINUOUS
10
156.7017769999999928
20
-139.3732229999999959
11
156.7559699999999907
21
-139.4543290000000013
0
LINE
8
BLACK
6
CONTINUOUS
10
156.7559699999999907
20
-139.4543290000000013
11
156.7750000000000057
21
-139.5499999999999829
0
LINE
8
BLACK
6
CONTINUOUS
10
156.7750000000000057
20
-139.5499999999999829
11
156.7750000000000057
21
-140.2249999999999943
0
LINE
8
BLACK
6
CONTINUOUS
10
156.7750000000000057
20
-140.2249999999999943
11
156.7559699999999907
21
-140.3206710000000044
0
LINE
8
BLACK
6
CONTINUOUS
10
156.7559699999999907
20
-140.3206710000000044
11
156.7017769999999928
21
-140.4017769999999814
0
LINE
8
BLACK
6
CONTINUOUS
10
156.7017769999999928
20
-140.4017769999999814
11
156.6206709999999873
21
-140.4559700000000078
0
LINE
8
BLACK
6
CONTINUOUS
10
156.6206709999999873
20
-140.4559700000000078
11
156.5250000000000057
21
-140.4749999999999943
0
LINE
8
BLACK
6
CONTINUOUS
10
156.5250000000000057
20
-140.4749999999999943
11
155.5749999999999886
21
-140.4749999999999943
0
LINE
8
BLACK
6
CONTINUOUS
10
155.5749999999999886
20
-140.4749999999999943
11
155.479329000000007
21
-140.4559700000000078
0
LINE
8
BLACK
6
CONTINUOUS
10
155.479329000000007
20
-140.4559700000000078
11
155.3982230000000015
21
-140.4017769999999814
0
LINE
8
BLACK
6
CONTINUOUS
10
155.3982230000000015
20
-140.4017769999999814
11
155.3440300000000036
21
-140.3206710000000044
0
LINE
8
BLACK
6
CONTINUOUS
10
155.3440300000000036
20
-140.3206710000000044
11
155.3249999999999886
21
-140.2249999999999943
0
LINE
8
BLACK
6
CONTINUOUS
10
155.3249999999999886
20
-140.2249999999999943
11
155.3249999999999886
21
-139.5499999999999829
0
LINE
8
BLACK
6
CONTINUOUS
10
155.3249999999999886
20
-139.5499999999999829
11
155.3440300000000036
21
-139.4543290000000013
0
LINE
8
BLACK
6
CONTINUOUS
10
155.3440300000000036
20
-139.4543290000000013
11
155.3982230000000015
21
-139.3732229999999959
0
LINE
8
BLACK
6
CONTINUOUS
10
155.3982230000000015
20
-139.3732229999999959
11
155.479329000000007
21
-139.3190299999999979
0
LINE
8
BLACK
6
CONTINUOUS
10
155.479329000000007
20
-139.3190299999999979
11
155.5749999999999886
21
-139.2999999999999829
0
LINE
8
BLACK
6
CONTINUOUS
10
155.5749999999999886
20
-139.2999999999999829
11
156.5250000000000057
21
-139.2999999999999829
0
LINE
8
BLACK
6
CONTINUOUS
10
156.5250000000000057
20
-139.2999999999999829
11
156.6206709999999873
21
-139.3190299999999979
0
LINE
8
BLACK
6
CONTINUOUS
10
129.5706710000000044
20
-139.2690299999999866
11
129.6517769999999814
21
-139.3232229999999845
0
LINE
8
BLACK
6
CONTINUOUS
10
129.6517769999999814
20
-139.3232229999999845
11
129.7059700000000078
21
-139.4043289999999899
0
LINE
8
BLACK
6
CONTINUOUS
10
129.7059700000000078
20
-139.4043289999999899
11
129.7249999999999943
21
-139.5
0
LINE
8
BLACK
6
CONTINUOUS
10
129.7249999999999943
20
-139.5
11
129.7249999999999943
21
-140.1749999999999829
0
LINE
8
BLACK
6
CONTINUOUS
10
129.7249999999999943
20
-140.1749999999999829
11
129.7059700000000078
21
-140.270670999999993
0
LINE
8
BLACK
6
CONTINUOUS
10
129.7059700000000078
20
-140.270670999999993
11
129.6517769999999814
21
-140.3517769999999985
0
LINE
8
BLACK
6
CONTINUOUS
10
129.6517769999999814
20
-140.3517769999999985
11
129.5706710000000044
21
-140.4059699999999964
0
LINE
8
BLACK
6
CONTINUOUS
10
129.5706710000000044
20
-140.4059699999999964
11
129.4749999999999943
21
-140.4249999999999829
0
LINE
8
BLACK
6
CONTINUOUS
10
129.4749999999999943
20
-140.4249999999999829
11
128.5250000000000057
21
-140.4249999999999829
0
LINE
8
BLACK
6
CONTINUOUS
10
128.5250000000000057
20
-140.4249999999999829
11
128.4293289999999956
21
-140.4059699999999964
0
LINE
8
BLACK
6
CONTINUOUS
10
128.4293289999999956
20
-140.4059699999999964
11
128.3482229999999902
21
-140.3517769999999985
0
LINE
8
BLACK
6
CONTINUOUS
10
128.3482229999999902
20
-140.3517769999999985
11
128.2940299999999922
21
-140.270670999999993
0
LINE
8
BLACK
6
CONTINUOUS
10
128.2940299999999922
20
-140.270670999999993
11
128.2750000000000057
21
-140.1749999999999829
0
LINE
8
BLACK
6
CONTINUOUS
10
128.2750000000000057
20
-140.1749999999999829
11
128.2750000000000057
21
-139.5
0
LINE
8
BLACK
6
CONTINUOUS
10
128.2750000000000057
20
-139.5
11
128.2940299999999922
21
-139.4043289999999899
0
LINE
8
BLACK
6
CONTINUOUS
10
128.2940299999999922
20
-139.4043289999999899
11
128.3482229999999902
21
-139.3232229999999845
0
LINE
8
BLACK
6
CONTINUOUS
10
128.3482229999999902
20
-139.3232229999999845
11
128.4293289999999956
21
-139.2690299999999866
0
LINE
8
BLACK
6
CONTINUOUS
10
128.4293289999999956
20
-139.2690299999999866
11
128.5250000000000057
21
-139.25
0
LINE
8
BLACK
6
CONTINUOUS
10
128.5250000000000057
20
-139.25
11
129.4749999999999943
21
-139.25
0
LINE
8
BLACK
6
CONTINUOUS
10
129.4749999999999943
20
-139.25
11
129.5706710000000044
21
-139.2690299999999866
0
LINE
8
BLACK
6
CONTINUOUS
10
151.8706709999999873
20
-139.2690299999999866
11
151.9517769999999928
21
-139.3232229999999845
0
LINE
8
BLACK
6
CONTINUOUS
10
151.9517769999999928
20
-139.3232229999999845
11
152.0059699999999907
21
-139.4043289999999899
0
LINE
8
BLACK
6
CONTINUOUS
10
152.0059699999999907
20
-139.4043289999999899
11
152.0250000000000057
21
-139.5
0
LINE
8
BLACK
6
CONTINUOUS
10
152.0250000000000057
20
-139.5
11
152.0250000000000057
21
-140.1749999999999829
0
LINE
8
BLACK
6
CONTINUOUS
10
152.0250000000000057
20
-140.1749999999999829
11
152.0059699999999907
21
-140.270670999999993
0
LINE
8
BLACK
6
CONTINUOUS
10
152.0059699999999907
20
-140.270670999999993
11
151.9517769999999928
21
-140.3517769999999985
0
LINE
8
BLACK
6
CONTINUOUS
10
151.9517769999999928
20
-140.3517769999999985
11
151.8706709999999873
21
-140.4059699999999964
0
LINE
8
BLACK
6
CONTINUOUS
10
151.8706709999999873
20
-140.4059699999999964
11
151.7750000000000057
21
-140.4249999999999829
0
LINE
8
BLACK
6
CONTINUOUS
10
151.7750000000000057
20
-140.4249999999999829
11
150.8249999999999886
21
-140.4249999999999829
0
LINE
8
BLACK
6
CONTINUOUS
10
150.8249999999999886
20
-140.4249999999999829
11
150.729329000000007
21
-140.4059699999999964
0
LINE
8
BLACK
6
CONTINUOUS
10
150.729329000000007
20
-140.4059699999999964
11
150.6482230000000015
21
-140.3517769999999985
0
LINE
8
BLACK
6
CONTINUOUS
10
150.6482230000000015
20
-140.3517769999999985
11
150.5940300000000036
21
-140.270670999999993
0
LINE
8
BLACK
6
CONTINUOUS
10
150.5940300000000036
20
-140.270670999999993
11
150.5749999999999886
21
-140.1749999999999829
0
LINE
8
BLACK
6
CONTINUOUS
10
150.5749999999999886
20
-140.1749999999999829
11
150.5749999999999886
21
-139.5
0
LINE
8
BLACK
6
CONTINUOUS
10
150.5749999999999886
20
-139.5
11
150.5940300000000036
21
-139.4043289999999899
0
LINE
8
BLACK
6
CONTINUOUS
10
150.5940300000000036
20
-139.4043289999999899
11
150.6482230000000015
21
-139.3232229999999845
0
LINE
8
BLACK
6
CONTINUOUS
10
150.6482230000000015
20
-139.3232229999999845
11
150.729329000000007
21
-139.2690299999999866
0
LINE
8
BLACK
6
CONTINUOUS
10
150.729329000000007
20
-139.2690299999999866
11
150.8249999999999886
21
-139.25
0
LINE
8
BLACK
6
CONTINUOUS
10
150.8249999999999886
20
-139.25
11
151.7750000000000057
21
-139.25
0
LINE
8
BLACK
6
CONTINUOUS
10
151.7750000000000057
20
-139.25
11
151.8706709999999873
21
-139.2690299999999866
0
LINE
8
BLACK
6
CONTINUOUS
10
131.7456709999999873
20
-139.2190300000000036
11
131.8267769999999928
21
-139.2732230000000015
0
LINE
8
BLACK
6
CONTINUOUS
10
131.8267769999999928
20
-139.2732230000000015
11
131.8809699999999907
21
-139.354329000000007
0
LINE
8
BLACK
6
CONTINUOUS
10
131.8809699999999907
20
-139.354329000000007
11
131.9000000000000057
21
-139.4499999999999886
0
LINE
8
BLACK
6
CONTINUOUS
10
131.9000000000000057
20
-139.4499999999999886
11
131.9000000000000057
21
-140.1500000000000057
0
LINE
8
BLACK
6
CONTINUOUS
10
131.9000000000000057
20
-140.1500000000000057
11
131.8809699999999907
21
-140.2456709999999873
0
LINE
8
BLACK
6
CONTINUOUS
10
131.8809699999999907
20
-140.2456709999999873
11
131.8267769999999928
21
-140.3267769999999928
0
LINE
8
BLACK
6
CONTINUOUS
10
131.8267769999999928
20
-140.3267769999999928
11
131.7456709999999873
21
-140.3809699999999907
0
LINE
8
BLACK
6
CONTINUOUS
10
131.7456709999999873
20
-140.3809699999999907
11
131.6500000000000057
21
-140.4000000000000057
0
LINE
8
BLACK
6
CONTINUOUS
10
131.6500000000000057
20
-140.4000000000000057
11
130.75
21
-140.4000000000000057
0
LINE
8
BLACK
6
CONTINUOUS
10
130.75
20
-140.4000000000000057
11
130.6543289999999899
21
-140.3809699999999907
0
LINE
8
BLACK
6
CONTINUOUS
10
130.6543289999999899
20
-140.3809699999999907
11
130.5732229999999845
21
-140.3267769999999928
0
LINE
8
BLACK
6
CONTINUOUS
10
130.5732229999999845
20
-140.3267769999999928
11
130.5190299999999866
21
-140.2456709999999873
0
LINE
8
BLACK
6
CONTINUOUS
10
130.5190299999999866
20
-140.2456709999999873
11
130.5
21
-140.1500000000000057
0
LINE
8
BLACK
6
CONTINUOUS
10
130.5
20
-140.1500000000000057
11
130.5
21
-139.4499999999999886
0
LINE
8
BLACK
6
CONTINUOUS
10
130.5
20
-139.4499999999999886
11
130.5190299999999866
21
-139.354329000000007
0
LINE
8
BLACK
6
CONTINUOUS
10
130.5190299999999866
20
-139.354329000000007
11
130.5732229999999845
21
-139.2732230000000015
0
LINE
8
BLACK
6
CONTINUOUS
10
130.5732229999999845
20
-139.2732230000000015
11
130.6543289999999899
21
-139.2190300000000036
0
LINE
8
BLACK
6
CONTINUOUS
10
130.6543289999999899
20
-139.2190300000000036
11
130.75
21
-139.1999999999999886
0
LINE
8
BLACK
6
CONTINUOUS
10
130.75
20
-139.1999999999999886
11
131.6500000000000057
21
-139.1999999999999886
0
LINE
8
BLACK
6
CONTINUOUS
10
131.6500000000000057
20
-139.1999999999999886
11
131.7456709999999873
21
-139.2190300000000036
0
LINE
8
BLACK
6
CONTINUOUS
10
134.145670999999993
20
-139.2190300000000036
11
134.2267769999999985
21
-139.2732230000000015
0
LINE
8
BLACK
6
CONTINUOUS
10
134.2267769999999985
20
-139.2732230000000015
11
134.2809699999999964
21
-139.354329000000007
0
LINE
8
BLACK
6
CONTINUOUS
10
134.2809699999999964
20
-139.354329000000007
11
134.2999999999999829
21
-139.4499999999999886
0
LINE
8
BLACK
6
CONTINUOUS
10
134.2999999999999829
20
-139.4499999999999886
11
134.2999999999999829
21
-140.1500000000000057
0
LINE
8
BLACK
6
CONTINUOUS
10
134.2999999999999829
20
-140.1500000000000057
11
134.2809699999999964
21
-140.2456709999999873
0
LINE
8
BLACK
6
CONTINUOUS
10
134.2809699999999964
20
-140.2456709999999873
11
134.2267769999999985
21
-140.3267769999999928
0
LINE
8
BLACK
6
CONTINUOUS
10
134.2267769999999985
20
-140.3267769999999928
11
134.145670999999993
21
-140.3809699999999907
0
LINE
8
BLACK
6
CONTINUOUS
10
134.145670999999993
20
-140.3809699999999907
11
134.0499999999999829
21
-140.4000000000000057
0
LINE
8
BLACK
6
CONTINUOUS
10
134.0499999999999829
20
-140.4000000000000057
11
133.1500000000000057
21
-140.4000000000000057
0
LINE
8
BLACK
6
CONTINUOUS
10
133.1500000000000057
20
-140.4000000000000057
11
133.0543289999999956
21
-140.3809699999999907
0
LINE
8
BLACK
6
CONTINUOUS
10
133.0543289999999956
20
-140.3809699999999907
11
132.9732229999999902
21
-140.3267769999999928
0
LINE
8
BLACK
6
CONTINUOUS
10
132.9732229999999902
20
-140.3267769999999928
11
132.9190299999999922
21
-140.2456709999999873
0
LINE
8
BLACK
6
CONTINUOUS
10
132.9190299999999922
20
-140.2456709999999873
11
132.9000000000000057
21
-140.1500000000000057
0
LINE
8
BLACK
6
CONTINUOUS
10
132.9000000000000057
20
-140.1500000000000057
11
132.9000000000000057
21
-139.4499999999999886
0
LINE
8
BLACK
6
CONTINUOUS
10
132.9000000000000057
20
-139.4499999999999886
11
132.9190299999999922
21
-139.354329000000007
0
LINE
8
BLACK
6
CONTINUOUS
10
132.9190299999999922
20
-139.354329000000007
11
132.9732229999999902
21
-139.2732230000000015
0
LINE
8
BLACK
6
CONTINUOUS
10
132.9732229999999902
20
-139.2732230000000015
11
133.0543289999999956
21
-139.2190300000000036
0
LINE
8
BLACK
6
CONTINUOUS
10
133.0543289999999956
20
-139.2190300000000036
11
133.1500000000000057
21
-139.1999999999999886
0
LINE
8
BLACK
6
CONTINUOUS
10
133.1500000000000057
20
-139.1999999999999886
11
134.0499999999999829
21
-139.1999999999999886
0
LINE
8
BLACK
6
CONTINUOUS
10
134.0499999999999829
20
-139.1999999999999886
11
134.145670999999993
21
-139.2190300000000036
0
LINE
8
BLACK
6
CONTINUOUS
10
136.7456709999999873
20
-139.2190300000000036
11
136.8267769999999928
21
-139.2732230000000015
0
LINE
8
BLACK
6
CONTINUOUS
10
136.8267769999999928
20
-139.2732230000000015
11
136.8809699999999907
21
-139.354329000000007
0
LINE
8
BLACK
6
CONTINUOUS
10
136.8809699999999907
20
-139.354329000000007
11
136.9000000000000057
21
-139.4499999999999886
0
LINE
8
BLACK
6
CONTINUOUS
10
136.9000000000000057
20
-139.4499999999999886
11
136.9000000000000057
21
-140.1500000000000057
0
LINE
8
BLACK
6
CONTINUOUS
10
136.9000000000000057
20
-140.1500000000000057
11
136.8809699999999907
21
-140.2456709999999873
0
LINE
8
BLACK
6
CONTINUOUS
10
136.8809699999999907
20
-140.2456709999999873
11
136.8267769999999928
21
-140.3267769999999928
0
LINE
8
BLACK
6
CONTINUOUS
10
136.8267769999999928
20
-140.3267769999999928
11
136.7456709999999873
21
-140.3809699999999907
0
LINE
8
BLACK
6
CONTINUOUS
10
136.7456709999999873
20
-140.3809699999999907
11
136.6500000000000057
21
-140.4000000000000057
0
LINE
8
BLACK
6
CONTINUOUS
10
136.6500000000000057
20
-140.4000000000000057
11
135.75
21
-140.4000000000000057
0
LINE
8
BLACK
6
CONTINUOUS
10
135.75
20
-140.4000000000000057
11
135.6543289999999899
21
-140.3809699999999907
0
LINE
8
BLACK
6
CONTINUOUS
10
135.6543289999999899
20
-140.3809699999999907
11
135.5732229999999845
21
-140.3267769999999928
0
LINE
8
BLACK
6
CONTINUOUS
10
135.5732229999999845
20
-140.3267769999999928
11
135.5190299999999866
21
-140.2456709999999873
0
LINE
8
BLACK
6
CONTINUOUS
10
135.5190299999999866
20
-140.2456709999999873
11
135.5
21
-140.1500000000000057
0
LINE
8
BLACK
6
CONTINUOUS
10
135.5
20
-140.1500000000000057
11
135.5
21
-139.4499999999999886
0
LINE
8
BLACK
6
CONTINUOUS
10
135.5
20
-139.4499999999999886
11
135.5190299999999866
21
-139.354329000000007
0
LINE
8
BLACK
6
CONTINUOUS
10
135.5190299999999866
20
-139.354329000000007
11
135.5732229999999845
21
-139.2732230000000015
0
LINE
8
BLACK
6
CONTINUOUS
10
135.5732229999999845
20
-139.2732230000000015
11
135.6543289999999899
21
-139.2190300000000036
0
LINE
8
BLACK
6
CONTINUOUS
10
135.6543289999999899
20
-139.2190300000000036
11
135.75
21
-139.1999999999999886
0
LINE
8
BLACK
6
CONTINUOUS
10
135.75
20
-139.1999999999999886
11
136.6500000000000057
21
-139.1999999999999886
0
LINE
8
BLACK
6
CONTINUOUS
10
136.6500000000000057
20
-139.1999999999999886
11
136.7456709999999873
21
-139.2190300000000036
0
LINE
8
BLACK
6
CONTINUOUS
10
139.3456709999999816
20
-139.2190300000000036
11
139.4267769999999871
21
-139.2732230000000015
0
LINE
8
BLACK
6
CONTINUOUS
10
139.4267769999999871
20
-139.2732230000000015
11
139.480969999999985
21
-139.354329000000007
0
LINE
8
BLACK
6
CONTINUOUS
10
139.480969999999985
20
-139.354329000000007
11
139.5
21
-139.4499999999999886
0
LINE
8
BLACK
6
CONTINUOUS
10
139.5
20
-139.4499999999999886
11
139.5
21
-140.1500000000000057
0
LINE
8
BLACK
6
CONTINUOUS
10
139.5
20
-140.1500000000000057
11
139.480969999999985
21
-140.2456709999999873
0
LINE
8
BLACK
6
CONTINUOUS
10
139.480969999999985
20
-140.2456709999999873
11
139.4267769999999871
21
-140.3267769999999928
0
LINE
8
BLACK
6
CONTINUOUS
10
139.4267769999999871
20
-140.3267769999999928
11
139.3456709999999816
21
-140.3809699999999907
0
LINE
8
BLACK
6
CONTINUOUS
10
139.3456709999999816
20
-140.3809699999999907
11
139.25
21
-140.4000000000000057
0
LINE
8
BLACK
6
CONTINUOUS
10
139.25
20
-140.4000000000000057
11
138.3499999999999943
21
-140.4000000000000057
0
LINE
8
BLACK
6
CONTINUOUS
10
138.3499999999999943
20
-140.4000000000000057
11
138.2543289999999843
21
-140.3809699999999907
0
LINE
8
BLACK
6
CONTINUOUS
10
138.2543289999999843
20
-140.3809699999999907
11
138.1732230000000072
21
-140.3267769999999928
0
LINE
8
BLACK
6
CONTINUOUS
10
138.1732230000000072
20
-140.3267769999999928
11
138.1190299999999809
21
-140.2456709999999873
0
LINE
8
BLACK
6
CONTINUOUS
10
138.1190299999999809
20
-140.2456709999999873
11
138.0999999999999943
21
-140.1500000000000057
0
LINE
8
BLACK
6
CONTINUOUS
10
138.0999999999999943
20
-140.1500000000000057
11
138.0999999999999943
21
-139.4499999999999886
0
LINE
8
BLACK
6
CONTINUOUS
10
138.0999999999999943
20
-139.4499999999999886
11
138.1190299999999809
21
-139.354329000000007
0
LINE
8
BLACK
6
CONTINUOUS
10
138.1190299999999809
20
-139.354329000000007
11
138.1732230000000072
21
-139.2732230000000015
0
LINE
8
BLACK
6
CONTINUOUS
10
138.1732230000000072
20
-139.2732230000000015
11
138.2543289999999843
21
-139.2190300000000036
0
LINE
8
BLACK
6
CONTINUOUS
10
138.2543289999999843
20
-139.2190300000000036
11
138.3499999999999943
21
-139.1999999999999886
0
LINE
8
BLACK
6
CONTINUOUS
10
138.3499999999999943
20
-139.1999999999999886
11
139.25
21
-139.1999999999999886
0
LINE
8
BLACK
6
CONTINUOUS
10
139.25
20
-139.1999999999999886
11
139.3456709999999816
21
-139.2190300000000036
0
LINE
8
BLACK
6
CONTINUOUS
10
141.895670999999993
20
-139.2190300000000036
11
141.9767769999999985
21
-139.2732230000000015
0
LINE
8
BLACK
6
CONTINUOUS
10
141.9767769999999985
20
-139.2732230000000015
11
142.0309699999999964
21
-139.354329000000007
0
LINE
8
BLACK
6
CONTINUOUS
10
142.0309699999999964
20
-139.354329000000007
11
142.0499999999999829
21
-139.4499999999999886
0
LINE
8
BLACK
6
CONTINUOUS
10
142.0499999999999829
20
-139.4499999999999886
11
142.0499999999999829
21
-140.1500000000000057
0
LINE
8
BLACK
6
CONTINUOUS
10
142.0499999999999829
20
-140.1500000000000057
11
142.0309699999999964
21
-140.2456709999999873
0
LINE
8
BLACK
6
CONTINUOUS
10
142.0309699999999964
20
-140.2456709999999873
11
141.9767769999999985
21
-140.3267769999999928
0
LINE
8
BLACK
6
CONTINUOUS
10
141.9767769999999985
20
-140.3267769999999928
11
141.895670999999993
21
-140.3809699999999907
0
LINE
8
BLACK
6
CONTINUOUS
10
141.895670999999993
20
-140.3809699999999907
11
141.7999999999999829
21
-140.4000000000000057
0
LINE
8
BLACK
6
CONTINUOUS
10
141.7999999999999829
20
-140.4000000000000057
11
140.9000000000000057
21
-140.4000000000000057
0
LINE
8
BLACK
6
CONTINUOUS
10
140.9000000000000057
20
-140.4000000000000057
11
140.8043289999999956
21
-140.3809699999999907
0
LINE
8
BLACK
6
CONTINUOUS
10
140.8043289999999956
20
-140.3809699999999907
11
140.7232229999999902
21
-140.3267769999999928
0
LINE
8
BLACK
6
CONTINUOUS
10
140.7232229999999902
20
-140.3267769999999928
11
140.6690299999999922
21
-140.2456709999999873
0
LINE
8
BLACK
6
CONTINUOUS
10
140.6690299999999922
20
-140.2456709999999873
11
140.6500000000000057
21
-140.1500000000000057
0
LINE
8
BLACK
6
CONTINUOUS
10
140.6500000000000057
20
-140.1500000000000057
11
140.6500000000000057
21
-139.4499999999999886
0
LINE
8
BLACK
6
CONTINUOUS
10
140.6500000000000057
20
-139.4499999999999886
11
140.6690299999999922
21
-139.354329000000007
0
LINE
8
BLACK
6
CONTINUOUS
10
140.6690299999999922
20
-139.354329000000007
11
140.7232229999999902
21
-139.2732230000000015
0
LINE
8
BLACK
6
CONTINUOUS
10
140.7232229999999902
20
-139.2732230000000015
11
140.8043289999999956
21
-139.2190300000000036
0
LINE
8
BLACK
6
CONTINUOUS
10
140.8043289999999956
20
-139.2190300000000036
11
140.9000000000000057
21
-139.1999999999999886
0
LINE
8
BLACK
6
CONTINUOUS
10
140.9000000000000057
20
-139.1999999999999886
11
141.7999999999999829
21
-139.1999999999999886
0
LINE
8
BLACK
6
CONTINUOUS
10
141.7999999999999829
20
-139.1999999999999886
11
141.895670999999993
21
-139.2190300000000036
0
LINE
8
BLACK
6
CONTINUOUS
10
144.5456709999999987
20
-139.2190300000000036
11
144.6267770000000041
21
-139.2732230000000015
0
LINE
8
BLACK
6
CONTINUOUS
10
144.6267770000000041
20
-139.2732230000000015
11
144.6809700000000021
21
-139.354329000000007
0
LINE
8
BLACK
6
CONTINUOUS
10
144.6809700000000021
20
-139.354329000000007
11
144.6999999999999886
21
-139.4499999999999886
0
LINE
8
BLACK
6
CONTINUOUS
10
144.6999999999999886
20
-139.4499999999999886
11
144.6999999999999886
21
-140.1500000000000057
0
LINE
8
BLACK
6
CONTINUOUS
10
144.6999999999999886
20
-140.1500000000000057
11
144.6809700000000021
21
-140.2456709999999873
0
LINE
8
BLACK
6
CONTINUOUS
10
144.6809700000000021
20
-140.2456709999999873
11
144.6267770000000041
21
-140.3267769999999928
0
LINE
8
BLACK
6
CONTINUOUS
10
144.6267770000000041
20
-140.3267769999999928
11
144.5456709999999987
21
-140.3809699999999907
0
LINE
8
BLACK
6
CONTINUOUS
10
144.5456709999999987
20
-140.3809699999999907
11
144.4499999999999886
21
-140.4000000000000057
0
LINE
8
BLACK
6
CONTINUOUS
10
144.4499999999999886
20
-140.4000000000000057
11
143.5499999999999829
21
-140.4000000000000057
0
LINE
8
BLACK
6
CONTINUOUS
10
143.5499999999999829
20
-140.4000000000000057
11
143.4543290000000013
21
-140.3809699999999907
0
LINE
8
BLACK
6
CONTINUOUS
10
143.4543290000000013
20
-140.3809699999999907
11
143.3732229999999959
21
-140.3267769999999928
0
LINE
8
BLACK
6
CONTINUOUS
10
143.3732229999999959
20
-140.3267769999999928
11
143.3190299999999979
21
-140.2456709999999873
0
LINE
8
BLACK
6
CONTINUOUS
10
143.3190299999999979
20
-140.2456709999999873
11
143.2999999999999829
21
-140.1500000000000057
0
LINE
8
BLACK
6
CONTINUOUS
10
143.2999999999999829
20
-140.1500000000000057
11
143.2999999999999829
21
-139.4499999999999886
0
LINE
8
BLACK
6
CONTINUOUS
10
143.2999999999999829
20
-139.4499999999999886
11
143.3190299999999979
21
-139.354329000000007
0
LINE
8
BLACK
6
CONTINUOUS
10
143.3190299999999979
20
-139.354329000000007
11
143.3732229999999959
21
-139.2732230000000015
0
LINE
8
BLACK
6
CONTINUOUS
10
143.3732229999999959
20
-139.2732230000000015
11
143.4543290000000013
21
-139.2190300000000036
0
LINE
8
BLACK
6
CONTINUOUS
10
143.4543290000000013
20
-139.2190300000000036
11
143.5499999999999829
21
-139.1999999999999886
0
LINE
8
BLACK
6
CONTINUOUS
10
143.5499999999999829
20
-139.1999999999999886
11
144.4499999999999886
21
-139.1999999999999886
0
LINE
8
BLACK
6
CONTINUOUS
10
144.4499999999999886
20
-139.1999999999999886
11
144.5456709999999987
21
-139.2190300000000036
0
LINE
8
BLACK
6
CONTINUOUS
10
149.5456709999999987
20
-139.2190300000000036
11
149.6267770000000041
21
-139.2732230000000015
0
LINE
8
BLACK
6
CONTINUOUS
10
149.6267770000000041
20
-139.2732230000000015
11
149.6809700000000021
21
-139.354329000000007
0
LINE
8
BLACK
6
CONTINUOUS
10
149.6809700000000021
20
-139.354329000000007
11
149.6999999999999886
21
-139.4499999999999886
0
LINE
8
BLACK
6
CONTINUOUS
10
149.6999999999999886
20
-139.4499999999999886
11
149.6999999999999886
21
-140.1500000000000057
0
LINE
8
BLACK
6
CONTINUOUS
10
149.6999999999999886
20
-140.1500000000000057
11
149.6809700000000021
21
-140.2456709999999873
0
LINE
8
BLACK
6
CONTINUOUS
10
149.6809700000000021
20
-140.2456709999999873
11
149.6267770000000041
21
-140.3267769999999928
0
LINE
8
BLACK
6
CONTINUOUS
10
149.6267770000000041
20
-140.3267769999999928
11
149.5456709999999987
21
-140.3809699999999907
0
LINE
8
BLACK
6
CONTINUOUS
10
149.5456709999999987
20
-140.3809699999999907
11
149.4499999999999886
21
-140.4000000000000057
0
LINE
8
BLACK
6
CONTINUOUS
10
149.4499999999999886
20
-140.4000000000000057
11
148.5499999999999829
21
-140.4000000000000057
0
LINE
8
BLACK
6
CONTINUOUS
10
148.5499999999999829
20
-140.4000000000000057
11
148.4543290000000013
21
-140.3809699999999907
0
LINE
8
BLACK
6
CONTINUOUS
10
148.4543290000000013
20
-140.3809699999999907
11
148.3732229999999959
21
-140.3267769999999928
0
LINE
8
BLACK
6
CONTINUOUS
10
148.3732229999999959
20
-140.3267769999999928
11
148.3190299999999979
21
-140.2456709999999873
0
LINE
8
BLACK
6
CONTINUOUS
10
148.3190299999999979
20
-140.2456709999999873
11
148.2999999999999829
21
-140.1500000000000057
0
LINE
8
BLACK
6
CONTINUOUS
10
148.2999999999999829
20
-140.1500000000000057
11
148.2999999999999829
21
-139.4499999999999886
0
LINE
8
BLACK
6
CONTINUOUS
10
148.2999999999999829
20
-139.4499999999999886
11
148.3190299999999979
21
-139.354329000000007
0
LINE
8
BLACK
6
CONTINUOUS
10
148.3190299999999979
20
-139.354329000000007
11
148.3732229999999959
21
-139.2732230000000015
0
LINE
8
BLACK
6
CONTINUOUS
10
148.3732229999999959
20
-139.2732230000000015
11
148.4543290000000013
21
-139.2190300000000036
0
LINE
8
BLACK
6
CONTINUOUS
10
148.4543290000000013
20
-139.2190300000000036
11
148.5499999999999829
21
-139.1999999999999886
0
LINE
8
BLACK
6
CONTINUOUS
10
148.5499999999999829
20
-139.1999999999999886
11
149.4499999999999886
21
-139.1999999999999886
0
LINE
8
BLACK
6
CONTINUOUS
10
149.4499999999999886
20
-139.1999999999999886
11
149.5456709999999987
21
-139.2190300000000036
0
LINE
8
BLACK
6
CONTINUOUS
10
154.2956709999999987
20
-139.2190300000000036
11
154.3767770000000041
21
-139.2732230000000015
0
LINE
8
BLACK
6
CONTINUOUS
10
154.3767770000000041
20
-139.2732230000000015
11
154.4309700000000021
21
-139.354329000000007
0
LINE
8
BLACK
6
CONTINUOUS
10
154.4309700000000021
20
-139.354329000000007
11
154.4499999999999886
21
-139.4499999999999886
0
LINE
8
BLACK
6
CONTINUOUS
10
154.4499999999999886
20
-139.4499999999999886
11
154.4499999999999886
21
-140.1500000000000057
0
LINE
8
BLACK
6
CONTINUOUS
10
154.4499999999999886
20
-140.1500000000000057
11
154.4309700000000021
21
-140.2456709999999873
0
LINE
8
BLACK
6
CONTINUOUS
10
154.4309700000000021
20
-140.2456709999999873
11
154.3767770000000041
21
-140.3267769999999928
0
LINE
8
BLACK
6
CONTINUOUS
10
154.3767770000000041
20
-140.3267769999999928
11
154.2956709999999987
21
-140.3809699999999907
0
LINE
8
BLACK
6
CONTINUOUS
10
154.2956709999999987
20
-140.3809699999999907
11
154.1999999999999886
21
-140.4000000000000057
0
LINE
8
BLACK
6
CONTINUOUS
10
154.1999999999999886
20
-140.4000000000000057
11
153.2999999999999829
21
-140.4000000000000057
0
LINE
8
BLACK
6
CONTINUOUS
10
153.2999999999999829
20
-140.4000000000000057
11
153.2043290000000013
21
-140.3809699999999907
0
LINE
8
BLACK
6
CONTINUOUS
10
153.2043290000000013
20
-140.3809699999999907
11
153.1232229999999959
21
-140.3267769999999928
0
LINE
8
BLACK
6
CONTINUOUS
10
153.1232229999999959
20
-140.3267769999999928
11
153.0690299999999979
21
-140.2456709999999873
0
LINE
8
BLACK
6
CONTINUOUS
10
153.0690299999999979
20
-140.2456709999999873
11
153.0499999999999829
21
-140.1500000000000057
0
LINE
8
BLACK
6
CONTINUOUS
10
153.0499999999999829
20
-140.1500000000000057
11
153.0499999999999829
21
-139.4499999999999886
0
LINE
8
BLACK
6
CONTINUOUS
10
153.0499999999999829
20
-139.4499999999999886
11
153.0690299999999979
21
-139.354329000000007
0
LINE
8
BLACK
6
CONTINUOUS
10
153.0690299999999979
20
-139.354329000000007
11
153.1232229999999959
21
-139.2732230000000015
0
LINE
8
BLACK
6
CONTINUOUS
10
153.1232229999999959
20
-139.2732230000000015
11
153.2043290000000013
21
-139.2190300000000036
0
LINE
8
BLACK
6
CONTINUOUS
10
153.2043290000000013
20
-139.2190300000000036
11
153.2999999999999829
21
-139.1999999999999886
0
LINE
8
BLACK
6
CONTINUOUS
10
153.2999999999999829
20
-139.1999999999999886
11
154.1999999999999886
21
-139.1999999999999886
0
LINE
8
BLACK
6
CONTINUOUS
10
154.1999999999999886
20
-139.1999999999999886
11
154.2956709999999987
21
-139.2190300000000036
0
LINE
8
BLACK
6
CONTINUOUS
10
146.9756710000000055
20
-139.1990299999999934
11
147.0567769999999825
21
-139.2532229999999913
0
LINE
8
BLACK
6
CONTINUOUS
10
147.0567769999999825
20
-139.2532229999999913
11
147.1109699999999805
21
-139.3343289999999968
0
LINE
8
BLACK
6
CONTINUOUS
10
147.1109699999999805
20
-139.3343289999999968
11
147.1299999999999955
21
-139.4300000000000068
0
LINE
8
BLACK
6
CONTINUOUS
10
147.1299999999999955
20
-139.4300000000000068
11
147.1299999999999955
21
-140.1299999999999955
0
LINE
8
BLACK
6
CONTINUOUS
10
147.1299999999999955
20
-140.1299999999999955
11
147.1109699999999805
21
-140.2256710000000055
0
LINE
8
BLACK
6
CONTINUOUS
10
147.1109699999999805
20
-140.2256710000000055
11
147.0567769999999825
21
-140.3067769999999825
0
LINE
8
BLACK
6
CONTINUOUS
10
147.0567769999999825
20
-140.3067769999999825
11
146.9756710000000055
21
-140.3609699999999805
0
LINE
8
BLACK
6
CONTINUOUS
10
146.9756710000000055
20
-140.3609699999999805
11
146.8799999999999955
21
-140.3799999999999955
0
LINE
8
BLACK
6
CONTINUOUS
10
146.8799999999999955
20
-140.3799999999999955
11
145.9799999999999898
21
-140.3799999999999955
0
LINE
8
BLACK
6
CONTINUOUS
10
145.9799999999999898
20
-140.3799999999999955
11
145.8843289999999797
21
-140.3609699999999805
0
LINE
8
BLACK
6
CONTINUOUS
10
145.8843289999999797
20
-140.3609699999999805
11
145.8032230000000027
21
-140.3067769999999825
0
LINE
8
BLACK
6
CONTINUOUS
10
145.8032230000000027
20
-140.3067769999999825
11
145.7490300000000047
21
-140.2256710000000055
0
LINE
8
BLACK
6
CONTINUOUS
10
145.7490300000000047
20
-140.2256710000000055
11
145.7299999999999898
21
-140.1299999999999955
0
LINE
8
BLACK
6
CONTINUOUS
10
145.7299999999999898
20
-140.1299999999999955
11
145.7299999999999898
21
-139.4300000000000068
0
LINE
8
BLACK
6
CONTINUOUS
10
145.7299999999999898
20
-139.4300000000000068
11
145.7490300000000047
21
-139.3343289999999968
0
LINE
8
BLACK
6
CONTINUOUS
10
145.7490300000000047
20
-139.3343289999999968
11
145.8032230000000027
21
-139.2532229999999913
0
LINE
8
BLACK
6
CONTINUOUS
10
145.8032230000000027
20
-139.2532229999999913
11
145.8843289999999797
21
-139.1990299999999934
0
LINE
8
BLACK
6
CONTINUOUS
10
145.8843289999999797
20
-139.1990299999999934
11
145.9799999999999898
21
-139.1800000000000068
0
LINE
8
BLACK
6
CONTINUOUS
10
145.9799999999999898
20
-139.1800000000000068
11
146.8799999999999955
21
-139.1800000000000068
0
LINE
8
BLACK
6
CONTINUOUS
10
146.8799999999999955
20
-139.1800000000000068
11
146.9756710000000055
21
-139.1990299999999934
0
LINE
8
BLACK
6
CONTINUOUS
10
131.7456709999999873
20
-137.2190300000000036
11
131.8267769999999928
21
-137.2732230000000015
0
LINE
8
BLACK
6
CONTINUOUS
10
131.8267769999999928
20
-137.2732230000000015
11
131.8809699999999907
21
-137.354329000000007
0
LINE
8
BLACK
6
CONTINUOUS
10
131.8809699999999907
20
-137.354329000000007
11
131.9000000000000057
21
-137.4499999999999886
0
LINE
8
BLACK
6
CONTINUOUS
10
131.9000000000000057
20
-137.4499999999999886
11
131.9000000000000057
21
-138.1500000000000057
0
LINE
8
BLACK
6
CONTINUOUS
10
131.9000000000000057
20
-138.1500000000000057
11
131.8809699999999907
21
-138.2456709999999873
0
LINE
8
BLACK
6
CONTINUOUS
10
131.8809699999999907
20
-138.2456709999999873
11
131.8267769999999928
21
-138.3267769999999928
0
LINE
8
BLACK
6
CONTINUOUS
10
131.8267769999999928
20
-138.3267769999999928
11
131.7456709999999873
21
-138.3809699999999907
0
LINE
8
BLACK
6
CONTINUOUS
10
131.7456709999999873
20
-138.3809699999999907
11
131.6500000000000057
21
-138.4000000000000057
0
LINE
8
BLACK
6
CONTINUOUS
10
131.6500000000000057
20
-138.4000000000000057
11
130.75
21
-138.4000000000000057
0
LINE
8
BLACK
6
CONTINUOUS
10
130.75
20
-138.4000000000000057
11
130.6543289999999899
21
-138.3809699999999907
0
LINE
8
BLACK
6
CONTINUOUS
10
130.6543289999999899
20
-138.3809699999999907
11
130.5732229999999845
21
-138.3267769999999928
0
LINE
8
BLACK
6
CONTINUOUS
10
130.5732229999999845
20
-138.3267769999999928
11
130.5190299999999866
21
-138.2456709999999873
0
LINE
8
BLACK
6
CONTINUOUS
10
130.5190299999999866
20
-138.2456709999999873
11
130.5
21
-138.1500000000000057
0
LINE
8
BLACK
6
CONTINUOUS
10
130.5
20
-138.1500000000000057
11
130.5
21
-137.4499999999999886
0
LINE
8
BLACK
6
CONTINUOUS
10
130.5
20
-137.4499999999999886
11
130.5190299999999866
21
-137.354329000000007
0
LINE
8
BLACK
6
CONTINUOUS
10
130.5190299999999866
20
-137.354329000000007
11
130.5732229999999845
21
-137.2732230000000015
0
LINE
8
BLACK
6
CONTINUOUS
10
130.5732229999999845
20
-137.2732230000000015
11
130.6543289999999899
21
-137.2190300000000036
0
LINE
8
BLACK
6
CONTINUOUS
10
130.6543289999999899
20
-137.2190300000000036
11
130.75
21
-137.1999999999999886
0
LINE
8
BLACK
6
CONTINUOUS
10
130.75
20
-137.1999999999999886
11
131.6500000000000057
21
-137.1999999999999886
0
LINE
8
BLACK
6
CONTINUOUS
10
131.6500000000000057
20
-137.1999999999999886
11
131.7456709999999873
21
-137.2190300000000036
0
LINE
8
BLACK
6
CONTINUOUS
10
134.145670999999993
20
-137.2190300000000036
11
134.2267769999999985
21
-137.2732230000000015
0
LINE
8
BLACK
6
CONTINUOUS
10
134.2267769999999985
20
-137.2732230000000015
11
134.2809699999999964
21
-137.354329000000007
0
LINE
8
BLACK
6
CONTINUOUS
10
134.2809699999999964
20
-137.354329000000007
11
134.2999999999999829
21
-137.4499999999999886
0
LINE
8
BLACK
6
CONTINUOUS
10
134.2999999999999829
20
-137.4499999999999886
11
134.2999999999999829
21
-138.1500000000000057
0
LINE
8
BLACK
6
CONTINUOUS
10
134.2999999999999829
20
-138.1500000000000057
11
134.2809699999999964
21
-138.2456709999999873
0
LINE
8
BLACK
6
CONTINUOUS
10
134.2809699999999964
20
-138.2456709999999873
11
134.2267769999999985
21
-138.3267769999999928
0
LINE
8
BLACK
6
CONTINUOUS
10
134.2267769999999985
20
-138.3267769999999928
11
134.145670999999993
21
-138.3809699999999907
0
LINE
8
BLACK
6
CONTINUOUS
10
134.145670999999993
20
-138.3809699999999907
11
134.0499999999999829
21
-138.4000000000000057
0
LINE
8
BLACK
6
CONTINUOUS
10
134.0499999999999829
20
-138.4000000000000057
11
133.1500000000000057
21
-138.4000000000000057
0
LINE
8
BLACK
6
CONTINUOUS
10
133.1500000000000057
20
-138.4000000000000057
11
133.0543289999999956
21
-138.3809699999999907
0
LINE
8
BLACK
6
CONTINUOUS
10
133.0543289999999956
20
-138.3809699999999907
11
132.9732229999999902
21
-138.3267769999999928
0
LINE
8
BLACK
6
CONTINUOUS
10
132.9732229999999902
20
-138.3267769999999928
11
132.9190299999999922
21
-138.2456709999999873
0
LINE
8
BLACK
6
CONTINUOUS
10
132.9190299999999922
20
-138.2456709999999873
11
132.9000000000000057
21
-138.1500000000000057
0
LINE
8
BLACK
6
CONTINUOUS
10
132.9000000000000057
20
-138.1500000000000057
11
132.9000000000000057
21
-137.4499999999999886
0
LINE
8
BLACK
6
CONTINUOUS
10
132.9000000000000057
20
-137.4499999999999886
11
132.9190299999999922
21
-137.354329000000007
0
LINE
8
BLACK
6
CONTINUOUS
10
132.9190299999999922
20
-137.354329000000007
11
132.9732229999999902
21
-137.2732230000000015
0
LINE
8
BLACK
6
CONTINUOUS
10
132.9732229999999902
20
-137.2732230000000015
11
133.0543289999999956
21
-137.2190300000000036
0
LINE
8
BLACK
6
CONTINUOUS
10
133.0543289999999956
20
-137.2190300000000036
11
133.1500000000000057
21
-137.1999999999999886
0
LINE
8
BLACK
6
CONTINUOUS
10
133.1500000000000057
20
-137.1999999999999886
11
134.0499999999999829
21
-137.1999999999999886
0
LINE
8
BLACK
6
CONTINUOUS
10
134.0499999999999829
20
-137.1999999999999886
11
134.145670999999993
21
-137.2190300000000036
0
LINE
8
BLACK
6
CONTINUOUS
10
136.7456709999999873
20
-137.2190300000000036
11
136.8267769999999928
21
-137.2732230000000015
0
LINE
8
BLACK
6
CONTINUOUS
10
136.8267769999999928
20
-137.2732230000000015
11
136.8809699999999907
21
-137.354329000000007
0
LINE
8
BLACK
6
CONTINUOUS
10
136.8809699999999907
20
-137.354329000000007
11
136.9000000000000057
21
-137.4499999999999886
0
LINE
8
BLACK
6
CONTINUOUS
10
136.9000000000000057
20
-137.4499999999999886
11
136.9000000000000057
21
-138.1500000000000057
0
LINE
8
BLACK
6
CONTINUOUS
10
136.9000000000000057
20
-138.1500000000000057
11
136.8809699999999907
21
-138.2456709999999873
0
LINE
8
BLACK
6
CONTINUOUS
10
136.8809699999999907
20
-138.2456709999999873
11
136.8267769999999928
21
-138.3267769999999928
0
LINE
8
BLACK
6
CONTINUOUS
10
136.8267769999999928
20
-138.3267769999999928
11
136.7456709999999873
21
-138.3809699999999907
0
LINE
8
BLACK
6
CONTINUOUS
10
136.7456709999999873
20
-138.3809699999999907
11
136.6500000000000057
21
-138.4000000000000057
0
LINE
8
BLACK
6
CONTINUOUS
10
136.6500000000000057
20
-138.4000000000000057
11
135.75
21
-138.4000000000000057
0
LINE
8
BLACK
6
CONTINUOUS
10
135.75
20
-138.4000000000000057
11
135.6543289999999899
21
-138.3809699999999907
0
LINE
8
BLACK
6
CONTINUOUS
10
135.6543289999999899
20
-138.3809699999999907
11
135.5732229999999845
21
-138.3267769999999928
0
LINE
8
BLACK
6
CONTINUOUS
10
135.5732229999999845
20
-138.3267769999999928
11
135.5190299999999866
21
-138.2456709999999873
0
LINE
8
BLACK
6
CONTINUOUS
10
135.5190299999999866
20
-138.2456709999999873
11
135.5
21
-138.1500000000000057
0
LINE
8
BLACK
6
CONTINUOUS
10
135.5
20
-138.1500000000000057
11
135.5
21
-137.4499999999999886
0
LINE
8
BLACK
6
CONTINUOUS
10
135.5
20
-137.4499999999999886
11
135.5190299999999866
21
-137.354329000000007
0
LINE
8
BLACK
6
CONTINUOUS
10
135.5190299999999866
20
-137.354329000000007
11
135.5732229999999845
21
-137.2732230000000015
0
LINE
8
BLACK
6
CONTINUOUS
10
135.5732229999999845
20
-137.2732230000000015
11
135.6543289999999899
21
-137.2190300000000036
0
LINE
8
BLACK
6
CONTINUOUS
10
135.6543289999999899
20
-137.2190300000000036
11
135.75
21
-137.1999999999999886
0
LINE
8
BLACK
6
CONTINUOUS
10
135.75
20
-137.1999999999999886
11
136.6500000000000057
21
-137.1999999999999886
0
LINE
8
BLACK
6
CONTINUOUS
10
136.6500000000000057
20
-137.1999999999999886
11
136.7456709999999873
21
-137.2190300000000036
0
LINE
8
BLACK
6
CONTINUOUS
10
139.3456709999999816
20
-137.2190300000000036
11
139.4267769999999871
21
-137.2732230000000015
0
LINE
8
BLACK
6
CONTINUOUS
10
139.4267769999999871
20
-137.2732230000000015
11
139.480969999999985
21
-137.354329000000007
0
LINE
8
BLACK
6
CONTINUOUS
10
139.480969999999985
20
-137.354329000000007
11
139.5
21
-137.4499999999999886
0
LINE
8
BLACK
6
CONTINUOUS
10
139.5
20
-137.4499999999999886
11
139.5
21
-138.1500000000000057
0
LINE
8
BLACK
6
CONTINUOUS
10
139.5
20
-138.1500000000000057
11
139.480969999999985
21
-138.2456709999999873
0
LINE
8
BLACK
6
CONTINUOUS
10
139.480969999999985
20
-138.2456709999999873
11
139.4267769999999871
21
-138.3267769999999928
0
LINE
8
BLACK
6
CONTINUOUS
10
139.4267769999999871
20
-138.3267769999999928
11
139.3456709999999816
21
-138.3809699999999907
0
LINE
8
BLACK
6
CONTINUOUS
10
139.3456709999999816
20
-138.3809699999999907
11
139.25
21
-138.4000000000000057
0
LINE
8
BLACK
6
CONTINUOUS
10
139.25
20
-138.4000000000000057
11
138.3499999999999943
21
-138.4000000000000057
0
LINE
8
BLACK
6
CONTINUOUS
10
138.3499999999999943
20
-138.4000000000000057
11
138.2543289999999843
21
-138.3809699999999907
0
LINE
8
BLACK
6
CONTINUOUS
10
138.2543289999999843
20
-138.3809699999999907
11
138.1732230000000072
21
-138.3267769999999928
0
LINE
8
BLACK
6
CONTINUOUS
10
138.1732230000000072
20
-138.3267769999999928
11
138.1190299999999809
21
-138.2456709999999873
0
LINE
8
BLACK
6
CONTINUOUS
10
138.1190299999999809
20
-138.2456709999999873
11
138.0999999999999943
21
-138.1500000000000057
0
LINE
8
BLACK
6
CONTINUOUS
10
138.0999999999999943
20
-138.1500000000000057
11
138.0999999999999943
21
-137.4499999999999886
0
LINE
8
BLACK
6
CONTINUOUS
10
138.0999999999999943
20
-137.4499999999999886
11
138.1190299999999809
21
-137.354329000000007
0
LINE
8
BLACK
6
CONTINUOUS
10
138.1190299999999809
20
-137.354329000000007
11
138.1732230000000072
21
-137.2732230000000015
0
LINE
8
BLACK
6
CONTINUOUS
10
138.1732230000000072
20
-137.2732230000000015
11
138.2543289999999843
21
-137.2190300000000036
0
LINE
8
BLACK
6
CONTINUOUS
10
138.2543289999999843
20
-137.2190300000000036
11
138.3499999999999943
21
-137.1999999999999886
0
LINE
8
BLACK
6
CONTINUOUS
10
138.3499999999999943
20
-137.1999999999999886
11
139.25
21
-137.1999999999999886
0
LINE
8
BLACK
6
CONTINUOUS
10
139.25
20
-137.1999999999999886
11
139.3456709999999816
21
-137.2190300000000036
0
LINE
8
BLACK
6
CONTINUOUS
10
141.895670999999993
20
-137.2190300000000036
11
141.9767769999999985
21
-137.2732230000000015
0
LINE
8
BLACK
6
CONTINUOUS
10
141.9767769999999985
20
-137.2732230000000015
11
142.0309699999999964
21
-137.354329000000007
0
LINE
8
BLACK
6
CONTINUOUS
10
142.0309699999999964
20
-137.354329000000007
11
142.0499999999999829
21
-137.4499999999999886
0
LINE
8
BLACK
6
CONTINUOUS
10
142.0499999999999829
20
-137.4499999999999886
11
142.0499999999999829
21
-138.1500000000000057
0
LINE
8
BLACK
6
CONTINUOUS
10
142.0499999999999829
20
-138.1500000000000057
11
142.0309699999999964
21
-138.2456709999999873
0
LINE
8
BLACK
6
CONTINUOUS
10
142.0309699999999964
20
-138.2456709999999873
11
141.9767769999999985
21
-138.3267769999999928
0
LINE
8
BLACK
6
CONTINUOUS
10
141.9767769999999985
20
-138.3267769999999928
11
141.895670999999993
21
-138.3809699999999907
0
LINE
8
BLACK
6
CONTINUOUS
10
141.895670999999993
20
-138.3809699999999907
11
141.7999999999999829
21
-138.4000000000000057
0
LINE
8
BLACK
6
CONTINUOUS
10
141.7999999999999829
20
-138.4000000000000057
11
140.9000000000000057
21
-138.4000000000000057
0
LINE
8
BLACK
6
CONTINUOUS
10
140.9000000000000057
20
-138.4000000000000057
11
140.8043289999999956
21
-138.3809699999999907
0
LINE
8
BLACK
6
CONTINUOUS
10
140.8043289999999956
20
-138.3809699999999907
11
140.7232229999999902
21
-138.3267769999999928
0
LINE
8
BLACK
6
CONTINUOUS
10
140.7232229999999902
20
-138.3267769999999928
11
140.6690299999999922
21
-138.2456709999999873
0
LINE
8
BLACK
6
CONTINUOUS
10
140.6690299999999922
20
-138.2456709999999873
11
140.6500000000000057
21
-138.1500000000000057
0
LINE
8
BLACK
6
CONTINUOUS
10
140.6500000000000057
20
-138.1500000000000057
11
140.6500000000000057
21
-137.4499999999999886
0
LINE
8
BLACK
6
CONTINUOUS
10
140.6500000000000057
20
-137.4499999999999886
11
140.6690299999999922
21
-137.354329000000007
0
LINE
8
BLACK
6
CONTINUOUS
10
140.6690299999999922
20
-137.354329000000007
11
140.7232229999999902
21
-137.2732230000000015
0
LINE
8
BLACK
6
CONTINUOUS
10
140.7232229999999902
20
-137.2732230000000015
11
140.8043289999999956
21
-137.2190300000000036
0
LINE
8
BLACK
6
CONTINUOUS
10
140.8043289999999956
20
-137.2190300000000036
11
140.9000000000000057
21
-137.1999999999999886
0
LINE
8
BLACK
6
CONTINUOUS
10
140.9000000000000057
20
-137.1999999999999886
11
141.7999999999999829
21
-137.1999999999999886
0
LINE
8
BLACK
6
CONTINUOUS
10
141.7999999999999829
20
-137.1999999999999886
11
141.895670999999993
21
-137.2190300000000036
0
LINE
8
BLACK
6
CONTINUOUS
10
144.5456709999999987
20
-137.2190300000000036
11
144.6267770000000041
21
-137.2732230000000015
0
LINE
8
BLACK
6
CONTINUOUS
10
144.6267770000000041
20
-137.2732230000000015
11
144.6809700000000021
21
-137.354329000000007
0
LINE
8
BLACK
6
CONTINUOUS
10
144.6809700000000021
20
-137.354329000000007
11
144.6999999999999886
21
-137.4499999999999886
0
LINE
8
BLACK
6
CONTINUOUS
10
144.6999999999999886
20
-137.4499999999999886
11
144.6999999999999886
21
-138.1500000000000057
0
LINE
8
BLACK
6
CONTINUOUS
10
144.6999999999999886
20
-138.1500000000000057
11
144.6809700000000021
21
-138.2456709999999873
0
LINE
8
BLACK
6
CONTINUOUS
10
144.6809700000000021
20
-138.2456709999999873
11
144.6267770000000041
21
-138.3267769999999928
0
LINE
8
BLACK
6
CONTINUOUS
10
144.6267770000000041
20
-138.3267769999999928
11
144.5456709999999987
21
-138.3809699999999907
0
LINE
8
BLACK
6
CONTINUOUS
10
144.5456709999999987
20
-138.3809699999999907
11
144.4499999999999886
21
-138.4000000000000057
0
LINE
8
BLACK
6
CONTINUOUS
10
144.4499999999999886
20
-138.4000000000000057
11
143.5499999999999829
21
-138.4000000000000057
0
LINE
8
BLACK
6
CONTINUOUS
10
143.5499999999999829
20
-138.4000000000000057
11
143.4543290000000013
21
-138.3809699999999907
0
LINE
8
BLACK
6
CONTINUOUS
10
143.4543290000000013
20
-138.3809699999999907
11
143.3732229999999959
21
-138.3267769999999928
0
LINE
8
BLACK
6
CONTINUOUS
10
143.3732229999999959
20
-138.3267769999999928
11
143.3190299999999979
21
-138.2456709999999873
0
LINE
8
BLACK
6
CONTINUOUS
10
143.3190299999999979
20
-138.2456709999999873
11
143.2999999999999829
21
-138.1500000000000057
0
LINE
8
BLACK
6
CONTINUOUS
10
143.2999999999999829
20
-138.1500000000000057
11
143.2999999999999829
21
-137.4499999999999886
0
LINE
8
BLACK
6
CONTINUOUS
10
143.2999999999999829
20
-137.4499999999999886
11
143.3190299999999979
21
-137.354329000000007
0
LINE
8
BLACK
6
CONTINUOUS
10
143.3190299999999979
20
-137.354329000000007
11
143.3732229999999959
21
-137.2732230000000015
0
LINE
8
BLACK
6
CONTINUOUS
10
143.3732229999999959
20
-137.2732230000000015
11
143.4543290000000013
21
-137.2190300000000036
0
LINE
8
BLACK
6
CONTINUOUS
10
143.4543290000000013
20
-137.2190300000000036
11
143.5499999999999829
21
-137.1999999999999886
0
LINE
8
BLACK
6
CONTINUOUS
10
143.5499999999999829
20
-137.1999999999999886
11
144.4499999999999886
21
-137.1999999999999886
0
LINE
8
BLACK
6
CONTINUOUS
10
144.4499999999999886
20
-137.1999999999999886
11
144.5456709999999987
21
-137.2190300000000036
0
LINE
8
BLACK
6
CONTINUOUS
10
149.5456709999999987
20
-137.2190300000000036
11
149.6267770000000041
21
-137.2732230000000015
0
LINE
8
BLACK
6
CONTINUOUS
10
149.6267770000000041
20
-137.2732230000000015
11
149.6809700000000021
21
-137.354329000000007
0
LINE
8
BLACK
6
CONTINUOUS
10
149.6809700000000021
20
-137.354329000000007
11
149.6999999999999886
21
-137.4499999999999886
0
LINE
8
BLACK
6
CONTINUOUS
10
149.6999999999999886
20
-137.4499999999999886
11
149.6999999999999886
21
-138.1500000000000057
0
LINE
8
BLACK
6
CONTINUOUS
10
149.6999999999999886
20
-138.1500000000000057
11
149.6809700000000021
21
-138.2456709999999873
0
LINE
8
BLACK
6
CONTINUOUS
10
149.6809700000000021
20
-138.2456709999999873
11
149.6267770000000041
21
-138.3267769999999928
0
LINE
8
BLACK
6
CONTINUOUS
10
149.6267770000000041
20
-138.3267769999999928
11
149.5456709999999987
21
-138.3809699999999907
0
LINE
8
BLACK
6
CONTINUOUS
10
149.5456709999999987
20
-138.3809699999999907
11
149.4499999999999886
21
-138.4000000000000057
0
LINE
8
BLACK
6
CONTINUOUS
10
149.4499999999999886
20
-138.4000000000000057
11
148.5499999999999829
21
-138.4000000000000057
0
LINE
8
BLACK
6
CONTINUOUS
10
148.5499999999999829
20
-138.4000000000000057
11
148.4543290000000013
21
-138.3809699999999907
0
LINE
8
BLACK
6
CONTINUOUS
10
148.4543290000000013
20
-138.3809699999999907
11
148.3732229999999959
21
-138.3267769999999928
0
LINE
8
BLACK
6
CONTINUOUS
10
148.3732229999999959
20
-138.3267769999999928
11
148.3190299999999979
21
-138.2456709999999873
0
LINE
8
BLACK
6
CONTINUOUS
10
148.3190299999999979
20
-138.2456709999999873
11
148.2999999999999829
21
-138.1500000000000057
0
LINE
8
BLACK
6
CONTINUOUS
10
148.2999999999999829
20
-138.1500000000000057
11
148.2999999999999829
21
-137.4499999999999886
0
LINE
8
BLACK
6
CONTINUOUS
10
148.2999999999999829
20
-137.4499999999999886
11
148.3190299999999979
21
-137.354329000000007
0
LINE
8
BLACK
6
CONTINUOUS
10
148.3190299999999979
20
-137.354329000000007
11
148.3732229999999959
21
-137.2732230000000015
0
LINE
8
BLACK
6
CONTINUOUS
10
148.3732229999999959
20
-137.2732230000000015
11
148.4543290000000013
21
-137.2190300000000036
0
LINE
8
BLACK
6
CONTINUOUS
10
148.4543290000000013
20
-137.2190300000000036
11
148.5499999999999829
21
-137.1999999999999886
0
LINE
8
BLACK
6
CONTINUOUS
10
148.5499999999999829
20
-137.1999999999999886
11
149.4499999999999886
21
-137.1999999999999886
0
LINE
8
BLACK
6
CONTINUOUS
10
149.4499999999999886
20
-137.1999999999999886
11
149.5456709999999987
21
-137.2190300000000036
0
LINE
8
BLACK
6
CONTINUOUS
10
154.2956709999999987
20
-137.2190300000000036
11
154.3767770000000041
21
-137.2732230000000015
0
LINE
8
BLACK
6
CONTINUOUS
10
154.3767770000000041
20
-137.2732230000000015
11
154.4309700000000021
21
-137.354329000000007
0
LINE
8
BLACK
6
CONTINUOUS
10
154.4309700000000021
20
-137.354329000000007
11
154.4499999999999886
21
-137.4499999999999886
0
LINE
8
BLACK
6
CONTINUOUS
10
154.4499999999999886
20
-137.4499999999999886
11
154.4499999999999886
21
-138.1500000000000057
0
LINE
8
BLACK
6
CONTINUOUS
10
154.4499999999999886
20
-138.1500000000000057
11
154.4309700000000021
21
-138.2456709999999873
0
LINE
8
BLACK
6
CONTINUOUS
10
154.4309700000000021
20
-138.2456709999999873
11
154.3767770000000041
21
-138.3267769999999928
0
LINE
8
BLACK
6
CONTINUOUS
10
154.3767770000000041
20
-138.3267769999999928
11
154.2956709999999987
21
-138.3809699999999907
0
LINE
8
BLACK
6
CONTINUOUS
10
154.2956709999999987
20
-138.3809699999999907
11
154.1999999999999886
21
-138.4000000000000057
0
LINE
8
BLACK
6
CONTINUOUS
10
154.1999999999999886
20
-138.4000000000000057
11
153.2999999999999829
21
-138.4000000000000057
0
LINE
8
BLACK
6
CONTINUOUS
10
153.2999999999999829
20
-138.4000000000000057
11
153.2043290000000013
21
-138.3809699999999907
0
LINE
8
BLACK
6
CONTINUOUS
10
153.2043290000000013
20
-138.3809699999999907
11
153.1232229999999959
21
-138.3267769999999928
0
LINE
8
BLACK
6
CONTINUOUS
10
153.1232229999999959
20
-138.3267769999999928
11
153.0690299999999979
21
-138.2456709999999873
0
LINE
8
BLACK
6
CONTINUOUS
10
153.0690299999999979
20
-138.2456709999999873
11
153.0499999999999829
21
-138.1500000000000057
0
LINE
8
BLACK
6
CONTINUOUS
10
153.0499999999999829
20
-138.1500000000000057
11
153.0499999999999829
21
-137.4499999999999886
0
LINE
8
BLACK
6
CONTINUOUS
10
153.0499999999999829
20
-137.4499999999999886
11
153.0690299999999979
21
-137.354329000000007
0
LINE
8
BLACK
6
CONTINUOUS
10
153.0690299999999979
20
-137.354329000000007
11
153.1232229999999959
21
-137.2732230000000015
0
LINE
8
BLACK
6
CONTINUOUS
10
153.1232229999999959
20
-137.2732230000000015
11
153.2043290000000013
21
-137.2190300000000036
0
LINE
8
BLACK
6
CONTINUOUS
10
153.2043290000000013
20
-137.2190300000000036
11
153.2999999999999829
21
-137.1999999999999886
0
LINE
8
BLACK
6
CONTINUOUS
10
153.2999999999999829
20
-137.1999999999999886
11
154.1999999999999886
21
-137.1999999999999886
0
LINE
8
BLACK
6
CONTINUOUS
10
154.1999999999999886
20
-137.1999999999999886
11
154.2956709999999987
21
-137.2190300000000036
0
LINE
8
BLACK
6
CONTINUOUS
10
156.6206709999999873
20
-137.2440299999999809
11
156.7017769999999928
21
-137.2982230000000072
0
LINE
8
BLACK
6
CONTINUOUS
10
156.7017769999999928
20
-137.2982230000000072
11
156.7559699999999907
21
-137.3793289999999843
0
LINE
8
BLACK
6
CONTINUOUS
10
156.7559699999999907
20
-137.3793289999999843
11
156.7750000000000057
21
-137.4749999999999943
0
LINE
8
BLACK
6
CONTINUOUS
10
156.7750000000000057
20
-137.4749999999999943
11
156.7750000000000057
21
-138.1500000000000057
0
LINE
8
BLACK
6
CONTINUOUS
10
156.7750000000000057
20
-138.1500000000000057
11
156.7559699999999907
21
-138.2456709999999873
0
LINE
8
BLACK
6
CONTINUOUS
10
156.7559699999999907
20
-138.2456709999999873
11
156.7017769999999928
21
-138.3267769999999928
0
LINE
8
BLACK
6
CONTINUOUS
10
156.7017769999999928
20
-138.3267769999999928
11
156.6206709999999873
21
-138.3809699999999907
0
LINE
8
BLACK
6
CONTINUOUS
10
156.6206709999999873
20
-138.3809699999999907
11
156.5250000000000057
21
-138.4000000000000057
0
LINE
8
BLACK
6
CONTINUOUS
10
156.5250000000000057
20
-138.4000000000000057
11
155.5749999999999886
21
-138.4000000000000057
0
LINE
8
BLACK
6
CONTINUOUS
10
155.5749999999999886
20
-138.4000000000000057
11
155.479329000000007
21
-138.3809699999999907
0
LINE
8
BLACK
6
CONTINUOUS
10
155.479329000000007
20
-138.3809699999999907
11
155.3982230000000015
21
-138.3267769999999928
0
LINE
8
BLACK
6
CONTINUOUS
10
155.3982230000000015
20
-138.3267769999999928
11
155.3440300000000036
21
-138.2456709999999873
0
LINE
8
BLACK
6
CONTINUOUS
10
155.3440300000000036
20
-138.2456709999999873
11
155.3249999999999886
21
-138.1500000000000057
0
LINE
8
BLACK
6
CONTINUOUS
10
155.3249999999999886
20
-138.1500000000000057
11
155.3249999999999886
21
-137.4749999999999943
0
LINE
8
BLACK
6
CONTINUOUS
10
155.3249999999999886
20
-137.4749999999999943
11
155.3440300000000036
21
-137.3793289999999843
0
LINE
8
BLACK
6
CONTINUOUS
10
155.3440300000000036
20
-137.3793289999999843
11
155.3982230000000015
21
-137.2982230000000072
0
LINE
8
BLACK
6
CONTINUOUS
10
155.3982230000000015
20
-137.2982230000000072
11
155.479329000000007
21
-137.2440299999999809
0
LINE
8
BLACK
6
CONTINUOUS
10
155.479329000000007
20
-137.2440299999999809
11
155.5749999999999886
21
-137.2249999999999943
0
LINE
8
BLACK
6
CONTINUOUS
10
155.5749999999999886
20
-137.2249999999999943
11
156.5250000000000057
21
-137.2249999999999943
0
LINE
8
BLACK
6
CONTINUOUS
10
156.5250000000000057
20
-137.2249999999999943
11
156.6206709999999873
21
-137.2440299999999809
0
LINE
8
BLACK
6
CONTINUOUS
10
146.9756710000000055
20
-137.1990299999999934
11
147.0567769999999825
21
-137.2532229999999913
0
LINE
8
BLACK
6
CONTINUOUS
10
147.0567769999999825
20
-137.2532229999999913
11
147.1109699999999805
21
-137.3343289999999968
0
LINE
8
BLACK
6
CONTINUOUS
10
147.1109699999999805
20
-137.3343289999999968
11
147.1299999999999955
21
-137.4300000000000068
0
LINE
8
BLACK
6
CONTINUOUS
10
147.1299999999999955
20
-137.4300000000000068
11
147.1299999999999955
21
-138.1299999999999955
0
LINE
8
BLACK
6
CONTINUOUS
10
147.1299999999999955
20
-138.1299999999999955
11
147.1109699999999805
21
-138.2256710000000055
0
LINE
8
BLACK
6
CONTINUOUS
10
147.1109699999999805
20
-138.2256710000000055
11
147.0567769999999825
21
-138.3067769999999825
0
LINE
8
BLACK
6
CONTINUOUS
10
147.0567769999999825
20
-138.3067769999999825
11
146.9756710000000055
21
-138.3609699999999805
0
LINE
8
BLACK
6
CONTINUOUS
10
146.9756710000000055
20
-138.3609699999999805
11
146.8799999999999955
21
-138.3799999999999955
0
LINE
8
BLACK
6
CONTINUOUS
10
146.8799999999999955
20
-138.3799999999999955
11
145.9799999999999898
21
-138.3799999999999955
0
LINE
8
BLACK
6
CONTINUOUS
10
145.9799999999999898
20
-138.3799999999999955
11
145.8843289999999797
21
-138.3609699999999805
0
LINE
8
BLACK
6
CONTINUOUS
10
145.8843289999999797
20
-138.3609699999999805
11
145.8032230000000027
21
-138.3067769999999825
0
LINE
8
BLACK
6
CONTINUOUS
10
145.8032230000000027
20
-138.3067769999999825
11
145.7490300000000047
21
-138.2256710000000055
0
LINE
8
BLACK
6
CONTINUOUS
10
145.7490300000000047
20
-138.2256710000000055
11
145.7299999999999898
21
-138.1299999999999955
0
LINE
8
BLACK
6
CONTINUOUS
10
145.7299999999999898
20
-138.1299999999999955
11
145.7299999999999898
21
-137.4300000000000068
0
LINE
8
BLACK
6
CONTINUOUS
10
145.7299999999999898
20
-137.4300000000000068
11
145.7490300000000047
21
-137.3343289999999968
0
LINE
8
BLACK
6
CONTINUOUS
10
145.7490300000000047
20
-137.3343289999999968
11
145.8032230000000027
21
-137.2532229999999913
0
LINE
8
BLACK
6
CONTINUOUS
10
145.8032230000000027
20
-137.2532229999999913
11
145.8843289999999797
21
-137.1990299999999934
0
LINE
8
BLACK
6
CONTINUOUS
10
145.8843289999999797
20
-137.1990299999999934
11
145.9799999999999898
21
-137.1800000000000068
0
LINE
8
BLACK
6
CONTINUOUS
10
145.9799999999999898
20
-137.1800000000000068
11
146.8799999999999955
21
-137.1800000000000068
0
LINE
8
BLACK
6
CONTINUOUS
10
146.8799999999999955
20
-137.1800000000000068
11
146.9756710000000055
21
-137.1990299999999934
0
LINE
8
BLACK
6
CONTINUOUS
10
129.5706710000000044
20
-137.1940299999999979
11
129.6517769999999814
21
-137.2482229999999959
0
LINE
8
BLACK
6
CONTINUOUS
10
129.6517769999999814
20
-137.2482229999999959
11
129.7059700000000078
21
-137.3293290000000013
0
LINE
8
BLACK
6
CONTINUOUS
10
129.7059700000000078
20
-137.3293290000000013
11
129.7249999999999943
21
-137.4249999999999829
0
LINE
8
BLACK
6
CONTINUOUS
10
129.7249999999999943
20
-137.4249999999999829
11
129.7249999999999943
21
-138.0999999999999943
0
LINE
8
BLACK
6
CONTINUOUS
10
129.7249999999999943
20
-138.0999999999999943
11
129.7059700000000078
21
-138.1956710000000044
0
LINE
8
BLACK
6
CONTINUOUS
10
129.7059700000000078
20
-138.1956710000000044
11
129.6517769999999814
21
-138.2767769999999814
0
LINE
8
BLACK
6
CONTINUOUS
10
129.6517769999999814
20
-138.2767769999999814
11
129.5706710000000044
21
-138.3309700000000078
0
LINE
8
BLACK
6
CONTINUOUS
10
129.5706710000000044
20
-138.3309700000000078
11
129.4749999999999943
21
-138.3499999999999943
0
LINE
8
BLACK
6
CONTINUOUS
10
129.4749999999999943
20
-138.3499999999999943
11
128.5250000000000057
21
-138.3499999999999943
0
LINE
8
BLACK
6
CONTINUOUS
10
128.5250000000000057
20
-138.3499999999999943
11
128.4293289999999956
21
-138.3309700000000078
0
LINE
8
BLACK
6
CONTINUOUS
10
128.4293289999999956
20
-138.3309700000000078
11
128.3482229999999902
21
-138.2767769999999814
0
LINE
8
BLACK
6
CONTINUOUS
10
128.3482229999999902
20
-138.2767769999999814
11
128.2940299999999922
21
-138.1956710000000044
0
LINE
8
BLACK
6
CONTINUOUS
10
128.2940299999999922
20
-138.1956710000000044
11
128.2750000000000057
21
-138.0999999999999943
0
LINE
8
BLACK
6
CONTINUOUS
10
128.2750000000000057
20
-138.0999999999999943
11
128.2750000000000057
21
-137.4249999999999829
0
LINE
8
BLACK
6
CONTINUOUS
10
128.2750000000000057
20
-137.4249999999999829
11
128.2940299999999922
21
-137.3293290000000013
0
LINE
8
BLACK
6
CONTINUOUS
10
128.2940299999999922
20
-137.3293290000000013
11
128.3482229999999902
21
-137.2482229999999959
0
LINE
8
BLACK
6
CONTINUOUS
10
128.3482229999999902
20
-137.2482229999999959
11
128.4293289999999956
21
-137.1940299999999979
0
LINE
8
BLACK
6
CONTINUOUS
10
128.4293289999999956
20
-137.1940299999999979
11
128.5250000000000057
21
-137.1749999999999829
0
LINE
8
BLACK
6
CONTINUOUS
10
128.5250000000000057
20
-137.1749999999999829
11
129.4749999999999943
21
-137.1749999999999829
0
LINE
8
BLACK
6
CONTINUOUS
10
129.4749999999999943
20
-137.1749999999999829
11
129.5706710000000044
21
-137.1940299999999979
0
LINE
8
BLACK
6
CONTINUOUS
10
151.8706709999999873
20
-137.1940299999999979
11
151.9517769999999928
21
-137.2482229999999959
0
LINE
8
BLACK
6
CONTINUOUS
10
151.9517769999999928
20
-137.2482229999999959
11
152.0059699999999907
21
-137.3293290000000013
0
LINE
8
BLACK
6
CONTINUOUS
10
152.0059699999999907
20
-137.3293290000000013
11
152.0250000000000057
21
-137.4249999999999829
0
LINE
8
BLACK
6
CONTINUOUS
10
152.0250000000000057
20
-137.4249999999999829
11
152.0250000000000057
21
-138.0999999999999943
0
LINE
8
BLACK
6
CONTINUOUS
10
152.0250000000000057
20
-138.0999999999999943
11
152.0059699999999907
21
-138.1956710000000044
0
LINE
8
BLACK
6
CONTINUOUS
10
152.0059699999999907
20
-138.1956710000000044
11
151.9517769999999928
21
-138.2767769999999814
0
LINE
8
BLACK
6
CONTINUOUS
10
151.9517769999999928
20
-138.2767769999999814
11
151.8706709999999873
21
-138.3309700000000078
0
LINE
8
BLACK
6
CONTINUOUS
10
151.8706709999999873
20
-138.3309700000000078
11
151.7750000000000057
21
-138.3499999999999943
0
LINE
8
BLACK
6
CONTINUOUS
10
151.7750000000000057
20
-138.3499999999999943
11
150.8249999999999886
21
-138.3499999999999943
0
LINE
8
BLACK
6
CONTINUOUS
10
150.8249999999999886
20
-138.3499999999999943
11
150.729329000000007
21
-138.3309700000000078
0
LINE
8
BLACK
6
CONTINUOUS
10
150.729329000000007
20
-138.3309700000000078
11
150.6482230000000015
21
-138.2767769999999814
0
LINE
8
BLACK
6
CONTINUOUS
10
150.6482230000000015
20
-138.2767769999999814
11
150.5940300000000036
21
-138.1956710000000044
0
LINE
8
BLACK
6
CONTINUOUS
10
150.5940300000000036
20
-138.1956710000000044
11
150.5749999999999886
21
-138.0999999999999943
0
LINE
8
BLACK
6
CONTINUOUS
10
150.5749999999999886
20
-138.0999999999999943
11
150.5749999999999886
21
-137.4249999999999829
0
LINE
8
BLACK
6
CONTINUOUS
10
150.5749999999999886
20
-137.4249999999999829
11
150.5940300000000036
21
-137.3293290000000013
0
LINE
8
BLACK
6
CONTINUOUS
10
150.5940300000000036
20
-137.3293290000000013
11
150.6482230000000015
21
-137.2482229999999959
0
LINE
8
BLACK
6
CONTINUOUS
10
150.6482230000000015
20
-137.2482229999999959
11
150.729329000000007
21
-137.1940299999999979
0
LINE
8
BLACK
6
CONTINUOUS
10
150.729329000000007
20
-137.1940299999999979
11
150.8249999999999886
21
-137.1749999999999829
0
LINE
8
BLACK
6
CONTINUOUS
10
150.8249999999999886
20
-137.1749999999999829
11
151.7750000000000057
21
-137.1749999999999829
0
LINE
8
BLACK
6
CONTINUOUS
10
151.7750000000000057
20
-137.1749999999999829
11
151.8706709999999873
21
-137.1940299999999979
0
LINE
8
BLACK
6
CONTINUOUS
10
136.7265370000000075
20
-133.5652240000000006
11
136.7914209999999855
21
-133.6085789999999918
0
LINE
8
BLACK
6
CONTINUOUS
10
136.7914209999999855
20
-133.6085789999999918
11
136.8347760000000051
21
-133.6734629999999981
0
LINE
8
BLACK
6
CONTINUOUS
10
136.8347760000000051
20
-133.6734629999999981
11
136.8499999999999943
21
-133.75
0
LINE
8
BLACK
6
CONTINUOUS
10
136.8499999999999943
20
-133.75
11
136.8499999999999943
21
-135.25
0
LINE
8
BLACK
6
CONTINUOUS
10
136.8499999999999943
20
-135.25
11
136.8347760000000051
21
-135.3265370000000019
0
LINE
8
BLACK
6
CONTINUOUS
10
136.8347760000000051
20
-135.3265370000000019
11
136.7914209999999855
21
-135.3914209999999798
0
LINE
8
BLACK
6
CONTINUOUS
10
136.7914209999999855
20
-135.3914209999999798
11
136.7265370000000075
21
-135.4347759999999994
0
LINE
8
BLACK
6
CONTINUOUS
10
136.7265370000000075
20
-135.4347759999999994
11
136.6500000000000057
21
-135.4499999999999886
0
LINE
8
BLACK
6
CONTINUOUS
10
136.6500000000000057
20
-135.4499999999999886
11
136.25
21
-135.4499999999999886
0
LINE
8
BLACK
6
CONTINUOUS
10
136.25
20
-135.4499999999999886
11
136.1734629999999981
21
-135.4347759999999994
0
LINE
8
BLACK
6
CONTINUOUS
10
136.1734629999999981
20
-135.4347759999999994
11
136.1085789999999918
21
-135.3914209999999798
0
LINE
8
BLACK
6
CONTINUOUS
10
136.1085789999999918
20
-135.3914209999999798
11
136.0652240000000006
21
-135.3265370000000019
0
LINE
8
BLACK
6
CONTINUOUS
10
136.0652240000000006
20
-135.3265370000000019
11
136.0499999999999829
21
-135.25
0
LINE
8
BLACK
6
CONTINUOUS
10
136.0499999999999829
20
-135.25
11
136.0499999999999829
21
-133.75
0
LINE
8
BLACK
6
CONTINUOUS
10
136.0499999999999829
20
-133.75
11
136.0652240000000006
21
-133.6734629999999981
0
LINE
8
BLACK
6
CONTINUOUS
10
136.0652240000000006
20
-133.6734629999999981
11
136.1085789999999918
21
-133.6085789999999918
0
LINE
8
BLACK
6
CONTINUOUS
10
136.1085789999999918
20
-133.6085789999999918
11
136.1734629999999981
21
-133.5652240000000006
0
LINE
8
BLACK
6
CONTINUOUS
10
136.1734629999999981
20
-133.5652240000000006
11
136.25
21
-133.5499999999999829
0
LINE
8
BLACK
6
CONTINUOUS
10
136.25
20
-133.5499999999999829
11
136.6500000000000057
21
-133.5499999999999829
0
LINE
8
BLACK
6
CONTINUOUS
10
136.6500000000000057
20
-133.5499999999999829
11
136.7265370000000075
21
-133.5652240000000006
0
LINE
8
BLACK
6
CONTINUOUS
10
138.6265369999999848
20
-133.5652240000000006
11
138.6914209999999912
21
-133.6085789999999918
0
LINE
8
BLACK
6
CONTINUOUS
10
138.6914209999999912
20
-133.6085789999999918
11
138.7347759999999823
21
-133.6734629999999981
0
LINE
8
BLACK
6
CONTINUOUS
10
138.7347759999999823
20
-133.6734629999999981
11
138.75
21
-133.75
0
LINE
8
BLACK
6
CONTINUOUS
10
138.75
20
-133.75
11
138.75
21
-135.25
0
LINE
8
BLACK
6
CONTINUOUS
10
138.75
20
-135.25
11
138.7347759999999823
21
-135.3265370000000019
0
LINE
8
BLACK
6
CONTINUOUS
10
138.7347759999999823
20
-135.3265370000000019
11
138.6914209999999912
21
-135.3914209999999798
0
LINE
8
BLACK
6
CONTINUOUS
10
138.6914209999999912
20
-135.3914209999999798
11
138.6265369999999848
21
-135.4347759999999994
0
LINE
8
BLACK
6
CONTINUOUS
10
138.6265369999999848
20
-135.4347759999999994
11
138.5499999999999829
21
-135.4499999999999886
0
LINE
8
BLACK
6
CONTINUOUS
10
138.5499999999999829
20
-135.4499999999999886
11
138.1500000000000057
21
-135.4499999999999886
0
LINE
8
BLACK
6
CONTINUOUS
10
138.1500000000000057
20
-135.4499999999999886
11
138.0734630000000038
21
-135.4347759999999994
0
LINE
8
BLACK
6
CONTINUOUS
10
138.0734630000000038
20
-135.4347759999999994
11
138.0085789999999974
21
-135.3914209999999798
0
LINE
8
BLACK
6
CONTINUOUS
10
138.0085789999999974
20
-135.3914209999999798
11
137.9652240000000063
21
-135.3265370000000019
0
LINE
8
BLACK
6
CONTINUOUS
10
137.9652240000000063
20
-135.3265370000000019
11
137.9499999999999886
21
-135.25
0
LINE
8
BLACK
6
CONTINUOUS
10
137.9499999999999886
20
-135.25
11
137.9499999999999886
21
-133.75
0
LINE
8
BLACK
6
CONTINUOUS
10
137.9499999999999886
20
-133.75
11
137.9652240000000063
21
-133.6734629999999981
0
LINE
8
BLACK
6
CONTINUOUS
10
137.9652240000000063
20
-133.6734629999999981
11
138.0085789999999974
21
-133.6085789999999918
0
LINE
8
BLACK
6
CONTINUOUS
10
138.0085789999999974
20
-133.6085789999999918
11
138.0734630000000038
21
-133.5652240000000006
0
LINE
8
BLACK
6
CONTINUOUS
10
138.0734630000000038
20
-133.5652240000000006
11
138.1500000000000057
21
-133.5499999999999829
0
LINE
8
BLACK
6
CONTINUOUS
10
138.1500000000000057
20
-133.5499999999999829
11
138.5499999999999829
21
-133.5499999999999829
0
LINE
8
BLACK
6
CONTINUOUS
10
138.5499999999999829
20
-133.5499999999999829
11
138.6265369999999848
21
-133.5652240000000006
0
LINE
8
BLACK
6
CONTINUOUS
10
141.4265369999999962
20
-133.5652240000000006
11
141.4914210000000026
21
-133.6085789999999918
0
LINE
8
BLACK
6
CONTINUOUS
10
141.4914210000000026
20
-133.6085789999999918
11
141.5347759999999937
21
-133.6734629999999981
0
LINE
8
BLACK
6
CONTINUOUS
10
141.5347759999999937
20
-133.6734629999999981
11
141.5499999999999829
21
-133.75
0
LINE
8
BLACK
6
CONTINUOUS
10
141.5499999999999829
20
-133.75
11
141.5499999999999829
21
-135.25
0
LINE
8
BLACK
6
CONTINUOUS
10
141.5499999999999829
20
-135.25
11
141.5347759999999937
21
-135.3265370000000019
0
LINE
8
BLACK
6
CONTINUOUS
10
141.5347759999999937
20
-135.3265370000000019
11
141.4914210000000026
21
-135.3914209999999798
0
LINE
8
BLACK
6
CONTINUOUS
10
141.4914210000000026
20
-135.3914209999999798
11
141.4265369999999962
21
-135.4347759999999994
0
LINE
8
BLACK
6
CONTINUOUS
10
141.4265369999999962
20
-135.4347759999999994
11
141.3499999999999943
21
-135.4499999999999886
0
LINE
8
BLACK
6
CONTINUOUS
10
141.3499999999999943
20
-135.4499999999999886
11
140.9499999999999886
21
-135.4499999999999886
0
LINE
8
BLACK
6
CONTINUOUS
10
140.9499999999999886
20
-135.4499999999999886
11
140.8734629999999868
21
-135.4347759999999994
0
LINE
8
BLACK
6
CONTINUOUS
10
140.8734629999999868
20
-135.4347759999999994
11
140.8085789999999804
21
-135.3914209999999798
0
LINE
8
BLACK
6
CONTINUOUS
10
140.8085789999999804
20
-135.3914209999999798
11
140.7652239999999892
21
-135.3265370000000019
0
LINE
8
BLACK
6
CONTINUOUS
10
140.7652239999999892
20
-135.3265370000000019
11
140.75
21
-135.25
0
LINE
8
BLACK
6
CONTINUOUS
10
140.75
20
-135.25
11
140.75
21
-133.75
0
LINE
8
BLACK
6
CONTINUOUS
10
140.75
20
-133.75
11
140.7652239999999892
21
-133.6734629999999981
0
LINE
8
BLACK
6
CONTINUOUS
10
140.7652239999999892
20
-133.6734629999999981
11
140.8085789999999804
21
-133.6085789999999918
0
LINE
8
BLACK
6
CONTINUOUS
10
140.8085789999999804
20
-133.6085789999999918
11
140.8734629999999868
21
-133.5652240000000006
0
LINE
8
BLACK
6
CONTINUOUS
10
140.8734629999999868
20
-133.5652240000000006
11
140.9499999999999886
21
-133.5499999999999829
0
LINE
8
BLACK
6
CONTINUOUS
10
140.9499999999999886
20
-133.5499999999999829
11
141.3499999999999943
21
-133.5499999999999829
0
LINE
8
BLACK
6
CONTINUOUS
10
141.3499999999999943
20
-133.5499999999999829
11
141.4265369999999962
21
-133.5652240000000006
0
LINE
8
BLACK
6
CONTINUOUS
10
143.3265370000000019
20
-133.5652240000000006
11
143.3914209999999798
21
-133.6085789999999918
0
LINE
8
BLACK
6
CONTINUOUS
10
143.3914209999999798
20
-133.6085789999999918
11
143.4347759999999994
21
-133.6734629999999981
0
LINE
8
BLACK
6
CONTINUOUS
10
143.4347759999999994
20
-133.6734629999999981
11
143.4499999999999886
21
-133.75
0
LINE
8
BLACK
6
CONTINUOUS
10
143.4499999999999886
20
-133.75
11
143.4499999999999886
21
-135.25
0
LINE
8
BLACK
6
CONTINUOUS
10
143.4499999999999886
20
-135.25
11
143.4347759999999994
21
-135.3265370000000019
0
LINE
8
BLACK
6
CONTINUOUS
10
143.4347759999999994
20
-135.3265370000000019
11
143.3914209999999798
21
-135.3914209999999798
0
LINE
8
BLACK
6
CONTINUOUS
10
143.3914209999999798
20
-135.3914209999999798
11
143.3265370000000019
21
-135.4347759999999994
0
LINE
8
BLACK
6
CONTINUOUS
10
143.3265370000000019
20
-135.4347759999999994
11
143.25
21
-135.4499999999999886
0
LINE
8
BLACK
6
CONTINUOUS
10
143.25
20
-135.4499999999999886
11
142.8499999999999943
21
-135.4499999999999886
0
LINE
8
BLACK
6
CONTINUOUS
10
142.8499999999999943
20
-135.4499999999999886
11
142.7734629999999925
21
-135.4347759999999994
0
LINE
8
BLACK
6
CONTINUOUS
10
142.7734629999999925
20
-135.4347759999999994
11
142.7085789999999861
21
-135.3914209999999798
0
LINE
8
BLACK
6
CONTINUOUS
10
142.7085789999999861
20
-135.3914209999999798
11
142.6652239999999949
21
-135.3265370000000019
0
LINE
8
BLACK
6
CONTINUOUS
10
142.6652239999999949
20
-135.3265370000000019
11
142.6500000000000057
21
-135.25
0
LINE
8
BLACK
6
CONTINUOUS
10
142.6500000000000057
20
-135.25
11
142.6500000000000057
21
-133.75
0
LINE
8
BLACK
6
CONTINUOUS
10
142.6500000000000057
20
-133.75
11
142.6652239999999949
21
-133.6734629999999981
0
LINE
8
BLACK
6
CONTINUOUS
10
142.6652239999999949
20
-133.6734629999999981
11
142.7085789999999861
21
-133.6085789999999918
0
LINE
8
BLACK
6
CONTINUOUS
10
142.7085789999999861
20
-133.6085789999999918
11
142.7734629999999925
21
-133.5652240000000006
0
LINE
8
BLACK
6
CONTINUOUS
10
142.7734629999999925
20
-133.5652240000000006
11
142.8499999999999943
21
-133.5499999999999829
0
LINE
8
BLACK
6
CONTINUOUS
10
142.8499999999999943
20
-133.5499999999999829
11
143.25
21
-133.5499999999999829
0
LINE
8
BLACK
6
CONTINUOUS
10
143.25
20
-133.5499999999999829
11
143.3265370000000019
21
-133.5652240000000006
0
LINE
8
BLACK
6
CONTINUOUS
10
146.5956709999999816
20
-132.2690299999999866
11
146.6767769999999871
21
-132.3232229999999845
0
LINE
8
BLACK
6
CONTINUOUS
10
146.6767769999999871
20
-132.3232229999999845
11
146.730969999999985
21
-132.4043289999999899
0
LINE
8
BLACK
6
CONTINUOUS
10
146.730969999999985
20
-132.4043289999999899
11
146.75
21
-132.5
0
LINE
8
BLACK
6
CONTINUOUS
10
146.75
20
-132.5
11
146.75
21
-133.1999999999999886
0
LINE
8
BLACK
6
CONTINUOUS
10
146.75
20
-133.1999999999999886
11
146.730969999999985
21
-133.2956709999999987
0
LINE
8
BLACK
6
CONTINUOUS
10
146.730969999999985
20
-133.2956709999999987
11
146.6767769999999871
21
-133.3767770000000041
0
LINE
8
BLACK
6
CONTINUOUS
10
146.6767769999999871
20
-133.3767770000000041
11
146.5956709999999816
21
-133.4309700000000021
0
LINE
8
BLACK
6
CONTINUOUS
10
146.5956709999999816
20
-133.4309700000000021
11
146.5
21
-133.4499999999999886
0
LINE
8
BLACK
6
CONTINUOUS
10
146.5
20
-133.4499999999999886
11
145.5999999999999943
21
-133.4499999999999886
0
LINE
8
BLACK
6
CONTINUOUS
10
145.5999999999999943
20
-133.4499999999999886
11
145.5043289999999843
21
-133.4309700000000021
0
LINE
8
BLACK
6
CONTINUOUS
10
145.5043289999999843
20
-133.4309700000000021
11
145.4232230000000072
21
-133.3767770000000041
0
LINE
8
BLACK
6
CONTINUOUS
10
145.4232230000000072
20
-133.3767770000000041
11
145.3690299999999809
21
-133.2956709999999987
0
LINE
8
BLACK
6
CONTINUOUS
10
145.3690299999999809
20
-133.2956709999999987
11
145.3499999999999943
21
-133.1999999999999886
0
LINE
8
BLACK
6
CONTINUOUS
10
145.3499999999999943
20
-133.1999999999999886
11
145.3499999999999943
21
-132.5
0
LINE
8
BLACK
6
CONTINUOUS
10
145.3499999999999943
20
-132.5
11
145.3690299999999809
21
-132.4043289999999899
0
LINE
8
BLACK
6
CONTINUOUS
10
145.3690299999999809
20
-132.4043289999999899
11
145.4232230000000072
21
-132.3232229999999845
0
LINE
8
BLACK
6
CONTINUOUS
10
145.4232230000000072
20
-132.3232229999999845
11
145.5043289999999843
21
-132.2690299999999866
0
LINE
8
BLACK
6
CONTINUOUS
10
145.5043289999999843
20
-132.2690299999999866
11
145.5999999999999943
21
-132.25
0
LINE
8
BLACK
6
CONTINUOUS
10
145.5999999999999943
20
-132.25
11
146.5
21
-132.25
0
LINE
8
BLACK
6
CONTINUOUS
10
146.5
20
-132.25
11
146.5956709999999816
21
-132.2690299999999866
0
LINE
8
BLACK
6
CONTINUOUS
10
148.895670999999993
20
-132.2690299999999866
11
148.9767769999999985
21
-132.3232229999999845
0
LINE
8
BLACK
6
CONTINUOUS
10
148.9767769999999985
20
-132.3232229999999845
11
149.0309699999999964
21
-132.4043289999999899
0
LINE
8
BLACK
6
CONTINUOUS
10
149.0309699999999964
20
-132.4043289999999899
11
149.0499999999999829
21
-132.5
0
LINE
8
BLACK
6
CONTINUOUS
10
149.0499999999999829
20
-132.5
11
149.0499999999999829
21
-133.1999999999999886
0
LINE
8
BLACK
6
CONTINUOUS
10
149.0499999999999829
20
-133.1999999999999886
11
149.0309699999999964
21
-133.2956709999999987
0
LINE
8
BLACK
6
CONTINUOUS
10
149.0309699999999964
20
-133.2956709999999987
11
148.9767769999999985
21
-133.3767770000000041
0
LINE
8
BLACK
6
CONTINUOUS
10
148.9767769999999985
20
-133.3767770000000041
11
148.895670999999993
21
-133.4309700000000021
0
LINE
8
BLACK
6
CONTINUOUS
10
148.895670999999993
20
-133.4309700000000021
11
148.7999999999999829
21
-133.4499999999999886
0
LINE
8
BLACK
6
CONTINUOUS
10
148.7999999999999829
20
-133.4499999999999886
11
147.9000000000000057
21
-133.4499999999999886
0
LINE
8
BLACK
6
CONTINUOUS
10
147.9000000000000057
20
-133.4499999999999886
11
147.8043289999999956
21
-133.4309700000000021
0
LINE
8
BLACK
6
CONTINUOUS
10
147.8043289999999956
20
-133.4309700000000021
11
147.7232229999999902
21
-133.3767770000000041
0
LINE
8
BLACK
6
CONTINUOUS
10
147.7232229999999902
20
-133.3767770000000041
11
147.6690299999999922
21
-133.2956709999999987
0
LINE
8
BLACK
6
CONTINUOUS
10
147.6690299999999922
20
-133.2956709999999987
11
147.6500000000000057
21
-133.1999999999999886
0
LINE
8
BLACK
6
CONTINUOUS
10
147.6500000000000057
20
-133.1999999999999886
11
147.6500000000000057
21
-132.5
0
LINE
8
BLACK
6
CONTINUOUS
10
147.6500000000000057
20
-132.5
11
147.6690299999999922
21
-132.4043289999999899
0
LINE
8
BLACK
6
CONTINUOUS
10
147.6690299999999922
20
-132.4043289999999899
11
147.7232229999999902
21
-132.3232229999999845
0
LINE
8
BLACK
6
CONTINUOUS
10
147.7232229999999902
20
-132.3232229999999845
11
147.8043289999999956
21
-132.2690299999999866
0
LINE
8
BLACK
6
CONTINUOUS
10
147.8043289999999956
20
-132.2690299999999866
11
147.9000000000000057
21
-132.25
0
LINE
8
BLACK
6
CONTINUOUS
10
147.9000000000000057
20
-132.25
11
148.7999999999999829
21
-132.25
0
LINE
8
BLACK
6
CONTINUOUS
10
148.7999999999999829
20
-132.25
11
148.895670999999993
21
-132.2690299999999866
0
LINE
8
BLACK
6
CONTINUOUS
10
137.6765369999999962
20
-130.5652240000000006
11
137.7414210000000026
21
-130.6085789999999918
0
LINE
8
BLACK
6
CONTINUOUS
10
137.7414210000000026
20
-130.6085789999999918
11
137.7847759999999937
21
-130.6734629999999981
0
LINE
8
BLACK
6
CONTINUOUS
10
137.7847759999999937
20
-130.6734629999999981
11
137.7999999999999829
21
-130.75
0
LINE
8
BLACK
6
CONTINUOUS
10
137.7999999999999829
20
-130.75
11
137.7999999999999829
21
-132.25
0
LINE
8
BLACK
6
CONTINUOUS
10
137.7999999999999829
20
-132.25
11
137.7847759999999937
21
-132.3265370000000019
0
LINE
8
BLACK
6
CONTINUOUS
10
137.7847759999999937
20
-132.3265370000000019
11
137.7414210000000026
21
-132.3914209999999798
0
LINE
8
BLACK
6
CONTINUOUS
10
137.7414210000000026
20
-132.3914209999999798
11
137.6765369999999962
21
-132.4347759999999994
0
LINE
8
BLACK
6
CONTINUOUS
10
137.6765369999999962
20
-132.4347759999999994
11
137.5999999999999943
21
-132.4499999999999886
0
LINE
8
BLACK
6
CONTINUOUS
10
137.5999999999999943
20
-132.4499999999999886
11
137.1999999999999886
21
-132.4499999999999886
0
LINE
8
BLACK
6
CONTINUOUS
10
137.1999999999999886
20
-132.4499999999999886
11
137.1234629999999868
21
-132.4347759999999994
0
LINE
8
BLACK
6
CONTINUOUS
10
137.1234629999999868
20
-132.4347759999999994
11
137.0585789999999804
21
-132.3914209999999798
0
LINE
8
BLACK
6
CONTINUOUS
10
137.0585789999999804
20
-132.3914209999999798
11
137.0152239999999892
21
-132.3265370000000019
0
LINE
8
BLACK
6
CONTINUOUS
10
137.0152239999999892
20
-132.3265370000000019
11
137.
21
-132.25
0
LINE
8
BLACK
6
CONTINUOUS
10
137.
20
-132.25
11
137.
21
-130.75
0
LINE
8
BLACK
6
CONTINUOUS
10
137.
20
-130.75
11
137.0152239999999892
21
-130.6734629999999981
0
LINE
8
BLACK
6
CONTINUOUS
10
137.0152239999999892
20
-130.6734629999999981
11
137.0585789999999804
21
-130.6085789999999918
0
LINE
8
BLACK
6
CONTINUOUS
10
137.0585789999999804
20
-130.6085789999999918
11
137.1234629999999868
21
-130.5652240000000006
0
LINE
8
BLACK
6
CONTINUOUS
10
137.1234629999999868
20
-130.5652240000000006
11
137.1999999999999886
21
-130.5499999999999829
0
LINE
8
BLACK
6
CONTINUOUS
10
137.1999999999999886
20
-130.5499999999999829
11
137.5999999999999943
21
-130.5499999999999829
0
LINE
8
BLACK
6
CONTINUOUS
10
137.5999999999999943
20
-130.5499999999999829
11
137.6765369999999962
21
-130.5652240000000006
0
LINE
8
BLACK
6
CONTINUOUS
10
142.3765369999999848
20
-130.5652240000000006
11
142.4414209999999912
21
-130.6085789999999918
0
LINE
8
BLACK
6
CONTINUOUS
10
142.4414209999999912
20
-130.6085789999999918
11
142.4847759999999823
21
-130.6734629999999981
0
LINE
8
BLACK
6
CONTINUOUS
10
142.4847759999999823
20
-130.6734629999999981
11
142.5
21
-130.75
0
LINE
8
BLACK
6
CONTINUOUS
10
142.5
20
-130.75
11
142.5
21
-132.25
0
LINE
8
BLACK
6
CONTINUOUS
10
142.5
20
-132.25
11
142.4847759999999823
21
-132.3265370000000019
0
LINE
8
BLACK
6
CONTINUOUS
10
142.4847759999999823
20
-132.3265370000000019
11
142.4414209999999912
21
-132.3914209999999798
0
LINE
8
BLACK
6
CONTINUOUS
10
142.4414209999999912
20
-132.3914209999999798
11
142.3765369999999848
21
-132.4347759999999994
0
LINE
8
BLACK
6
CONTINUOUS
10
142.3765369999999848
20
-132.4347759999999994
11
142.2999999999999829
21
-132.4499999999999886
0
LINE
8
BLACK
6
CONTINUOUS
10
142.2999999999999829
20
-132.4499999999999886
11
141.9000000000000057
21
-132.4499999999999886
0
LINE
8
BLACK
6
CONTINUOUS
10
141.9000000000000057
20
-132.4499999999999886
11
141.8234630000000038
21
-132.4347759999999994
0
LINE
8
BLACK
6
CONTINUOUS
10
141.8234630000000038
20
-132.4347759999999994
11
141.7585789999999974
21
-132.3914209999999798
0
LINE
8
BLACK
6
CONTINUOUS
10
141.7585789999999974
20
-132.3914209999999798
11
141.7152240000000063
21
-132.3265370000000019
0
LINE
8
BLACK
6
CONTINUOUS
10
141.7152240000000063
20
-132.3265370000000019
11
141.6999999999999886
21
-132.25
0
LINE
8
BLACK
6
CONTINUOUS
10
141.6999999999999886
20
-132.25
11
141.6999999999999886
21
-130.75
0
LINE
8
BLACK
6
CONTINUOUS
10
141.6999999999999886
20
-130.75
11
141.7152240000000063
21
-130.6734629999999981
0
LINE
8
BLACK
6
CONTINUOUS
10
141.7152240000000063
20
-130.6734629999999981
11
141.7585789999999974
21
-130.6085789999999918
0
LINE
8
BLACK
6
CONTINUOUS
10
141.7585789999999974
20
-130.6085789999999918
11
141.8234630000000038
21
-130.5652240000000006
0
LINE
8
BLACK
6
CONTINUOUS
10
141.8234630000000038
20
-130.5652240000000006
11
141.9000000000000057
21
-130.5499999999999829
0
LINE
8
BLACK
6
CONTINUOUS
10
141.9000000000000057
20
-130.5499999999999829
11
142.2999999999999829
21
-130.5499999999999829
0
LINE
8
BLACK
6
CONTINUOUS
10
142.2999999999999829
20
-130.5499999999999829
11
142.3765369999999848
21
-130.5652240000000006
0
LINE
8
BLACK
6
CONTINUOUS
10
146.5956709999999816
20
-130.2690299999999866
11
146.6767769999999871
21
-130.3232229999999845
0
LINE
8
BLACK
6
CONTINUOUS
10
146.6767769999999871
20
-130.3232229999999845
11
146.730969999999985
21
-130.4043289999999899
0
LINE
8
BLACK
6
CONTINUOUS
10
146.730969999999985
20
-130.4043289999999899
11
146.75
21
-130.5
0
LINE
8
BLACK
6
CONTINUOUS
10
146.75
20
-130.5
11
146.75
21
-131.1999999999999886
0
LINE
8
BLACK
6
CONTINUOUS
10
146.75
20
-131.1999999999999886
11
146.730969999999985
21
-131.2956709999999987
0
LINE
8
BLACK
6
CONTINUOUS
10
146.730969999999985
20
-131.2956709999999987
11
146.6767769999999871
21
-131.3767770000000041
0
LINE
8
BLACK
6
CONTINUOUS
10
146.6767769999999871
20
-131.3767770000000041
11
146.5956709999999816
21
-131.4309700000000021
0
LINE
8
BLACK
6
CONTINUOUS
10
146.5956709999999816
20
-131.4309700000000021
11
146.5
21
-131.4499999999999886
0
LINE
8
BLACK
6
CONTINUOUS
10
146.5
20
-131.4499999999999886
11
145.5999999999999943
21
-131.4499999999999886
0
LINE
8
BLACK
6
CONTINUOUS
10
145.5999999999999943
20
-131.4499999999999886
11
145.5043289999999843
21
-131.4309700000000021
0
LINE
8
BLACK
6
CONTINUOUS
10
145.5043289999999843
20
-131.4309700000000021
11
145.4232230000000072
21
-131.3767770000000041
0
LINE
8
BLACK
6
CONTINUOUS
10
145.4232230000000072
20
-131.3767770000000041
11
145.3690299999999809
21
-131.2956709999999987
0
LINE
8
BLACK
6
CONTINUOUS
10
145.3690299999999809
20
-131.2956709999999987
11
145.3499999999999943
21
-131.1999999999999886
0
LINE
8
BLACK
6
CONTINUOUS
10
145.3499999999999943
20
-131.1999999999999886
11
145.3499999999999943
21
-130.5
0
LINE
8
BLACK
6
CONTINUOUS
10
145.3499999999999943
20
-130.5
11
145.3690299999999809
21
-130.4043289999999899
0
LINE
8
BLACK
6
CONTINUOUS
10
145.3690299999999809
20
-130.4043289999999899
11
145.4232230000000072
21
-130.3232229999999845
0
LINE
8
BLACK
6
CONTINUOUS
10
145.4232230000000072
20
-130.3232229999999845
11
145.5043289999999843
21
-130.2690299999999866
0
LINE
8
BLACK
6
CONTINUOUS
10
145.5043289999999843
20
-130.2690299999999866
11
145.5999999999999943
21
-130.25
0
LINE
8
BLACK
6
CONTINUOUS
10
145.5999999999999943
20
-130.25
11
146.5
21
-130.25
0
LINE
8
BLACK
6
CONTINUOUS
10
146.5
20
-130.25
11
146.5956709999999816
21
-130.2690299999999866
0
LINE
8
BLACK
6
CONTINUOUS
10
148.895670999999993
20
-130.2690299999999866
11
148.9767769999999985
21
-130.3232229999999845
0
LINE
8
BLACK
6
CONTINUOUS
10
148.9767769999999985
20
-130.3232229999999845
11
149.0309699999999964
21
-130.4043289999999899
0
LINE
8
BLACK
6
CONTINUOUS
10
149.0309699999999964
20
-130.4043289999999899
11
149.0499999999999829
21
-130.5
0
LINE
8
BLACK
6
CONTINUOUS
10
149.0499999999999829
20
-130.5
11
149.0499999999999829
21
-131.1999999999999886
0
LINE
8
BLACK
6
CONTINUOUS
10
149.0499999999999829
20
-131.1999999999999886
11
149.0309699999999964
21
-131.2956709999999987
0
LINE
8
BLACK
6
CONTINUOUS
10
149.0309699999999964
20
-131.2956709999999987
11
148.9767769999999985
21
-131.3767770000000041
0
LINE
8
BLACK
6
CONTINUOUS
10
148.9767769999999985
20
-131.3767770000000041
11
148.895670999999993
21
-131.4309700000000021
0
LINE
8
BLACK
6
CONTINUOUS
10
148.895670999999993
20
-131.4309700000000021
11
148.7999999999999829
21
-131.4499999999999886
0
LINE
8
BLACK
6
CONTINUOUS
10
148.7999999999999829
20
-131.4499999999999886
11
147.9000000000000057
21
-131.4499999999999886
0
LINE
8
BLACK
6
CONTINUOUS
10
147.9000000000000057
20
-131.4499999999999886
11
147.8043289999999956
21
-131.4309700000000021
0
LINE
8
BLACK
6
CONTINUOUS
10
147.8043289999999956
20
-131.4309700000000021
11
147.7232229999999902
21
-131.3767770000000041
0
LINE
8
BLACK
6
CONTINUOUS
10
147.7232229999999902
20
-131.3767770000000041
11
147.6690299999999922
21
-131.2956709999999987
0
LINE
8
BLACK
6
CONTINUOUS
10
147.6690299999999922
20
-131.2956709999999987
11
147.6500000000000057
21
-131.1999999999999886
0
LINE
8
BLACK
6
CONTINUOUS
10
147.6500000000000057
20
-131.1999999999999886
11
147.6500000000000057
21
-130.5
0
LINE
8
BLACK
6
CONTINUOUS
10
147.6500000000000057
20
-130.5
11
147.6690299999999922
21
-130.4043289999999899
0
LINE
8
BLACK
6
CONTINUOUS
10
147.6690299999999922
20
-130.4043289999999899
11
147.7232229999999902
21
-130.3232229999999845
0
LINE
8
BLACK
6
CONTINUOUS
10
147.7232229999999902
20
-130.3232229999999845
11
147.8043289999999956
21
-130.2690299999999866
0
LINE
8
BLACK
6
CONTINUOUS
10
147.8043289999999956
20
-130.2690299999999866
11
147.9000000000000057
21
-130.25
0
LINE
8
BLACK
6
CONTINUOUS
10
147.9000000000000057
20
-130.25
11
148.7999999999999829
21
-130.25
0
LINE
8
BLACK
6
CONTINUOUS
10
148.7999999999999829
20
-130.25
11
148.895670999999993
21
-130.2690299999999866
0
LINE
8
BLACK
6
CONTINUOUS
10
136.7265370000000075
20
-127.3652239999999978
11
136.7914209999999855
21
-127.4085789999999889
0
LINE
8
BLACK
6
CONTINUOUS
10
136.7914209999999855
20
-127.4085789999999889
11
136.8347760000000051
21
-127.4734629999999953
0
LINE
8
BLACK
6
CONTINUOUS
10
136.8347760000000051
20
-127.4734629999999953
11
136.8499999999999943
21
-127.5499999999999972
0
LINE
8
BLACK
6
CONTINUOUS
10
136.8499999999999943
20
-127.5499999999999972
11
136.8499999999999943
21
-129.0499999999999829
0
LINE
8
BLACK
6
CONTINUOUS
10
136.8499999999999943
20
-129.0499999999999829
11
136.8347760000000051
21
-129.1265369999999848
0
LINE
8
BLACK
6
CONTINUOUS
10
136.8347760000000051
20
-129.1265369999999848
11
136.7914209999999855
21
-129.1914209999999912
0
LINE
8
BLACK
6
CONTINUOUS
10
136.7914209999999855
20
-129.1914209999999912
11
136.7265370000000075
21
-129.2347759999999823
0
LINE
8
BLACK
6
CONTINUOUS
10
136.7265370000000075
20
-129.2347759999999823
11
136.6500000000000057
21
-129.25
0
LINE
8
BLACK
6
CONTINUOUS
10
136.6500000000000057
20
-129.25
11
136.25
21
-129.25
0
LINE
8
BLACK
6
CONTINUOUS
10
136.25
20
-129.25
11
136.1734629999999981
21
-129.2347759999999823
0
LINE
8
BLACK
6
CONTINUOUS
10
136.1734629999999981
20
-129.2347759999999823
11
136.1085789999999918
21
-129.1914209999999912
0
LINE
8
BLACK
6
CONTINUOUS
10
136.1085789999999918
20
-129.1914209999999912
11
136.0652240000000006
21
-129.1265369999999848
0
LINE
8
BLACK
6
CONTINUOUS
10
136.0652240000000006
20
-129.1265369999999848
11
136.0499999999999829
21
-129.0499999999999829
0
LINE
8
BLACK
6
CONTINUOUS
10
136.0499999999999829
20
-129.0499999999999829
11
136.0499999999999829
21
-127.5499999999999972
0
LINE
8
BLACK
6
CONTINUOUS
10
136.0499999999999829
20
-127.5499999999999972
11
136.0652240000000006
21
-127.4734629999999953
0
LINE
8
BLACK
6
CONTINUOUS
10
136.0652240000000006
20
-127.4734629999999953
11
136.1085789999999918
21
-127.4085789999999889
0
LINE
8
BLACK
6
CONTINUOUS
10
136.1085789999999918
20
-127.4085789999999889
11
136.1734629999999981
21
-127.3652239999999978
0
LINE
8
BLACK
6
CONTINUOUS
10
136.1734629999999981
20
-127.3652239999999978
11
136.25
21
-127.3499999999999943
0
LINE
8
BLACK
6
CONTINUOUS
10
136.25
20
-127.3499999999999943
11
136.6500000000000057
21
-127.3499999999999943
0
LINE
8
BLACK
6
CONTINUOUS
10
136.6500000000000057
20
-127.3499999999999943
11
136.7265370000000075
21
-127.3652239999999978
0
LINE
8
BLACK
6
CONTINUOUS
10
138.6265369999999848
20
-127.3652239999999978
11
138.6914209999999912
21
-127.4085789999999889
0
LINE
8
BLACK
6
CONTINUOUS
10
138.6914209999999912
20
-127.4085789999999889
11
138.7347759999999823
21
-127.4734629999999953
0
LINE
8
BLACK
6
CONTINUOUS
10
138.7347759999999823
20
-127.4734629999999953
11
138.75
21
-127.5499999999999972
0
LINE
8
BLACK
6
CONTINUOUS
10
138.75
20
-127.5499999999999972
11
138.75
21
-129.0499999999999829
0
LINE
8
BLACK
6
CONTINUOUS
10
138.75
20
-129.0499999999999829
11
138.7347759999999823
21
-129.1265369999999848
0
LINE
8
BLACK
6
CONTINUOUS
10
138.7347759999999823
20
-129.1265369999999848
11
138.6914209999999912
21
-129.1914209999999912
0
LINE
8
BLACK
6
CONTINUOUS
10
138.6914209999999912
20
-129.1914209999999912
11
138.6265369999999848
21
-129.2347759999999823
0
LINE
8
BLACK
6
CONTINUOUS
10
138.6265369999999848
20
-129.2347759999999823
11
138.5499999999999829
21
-129.25
0
LINE
8
BLACK
6
CONTINUOUS
10
138.5499999999999829
20
-129.25
11
138.1500000000000057
21
-129.25
0
LINE
8
BLACK
6
CONTINUOUS
10
138.1500000000000057
20
-129.25
11
138.0734630000000038
21
-129.2347759999999823
0
LINE
8
BLACK
6
CONTINUOUS
10
138.0734630000000038
20
-129.2347759999999823
11
138.0085789999999974
21
-129.1914209999999912
0
LINE
8
BLACK
6
CONTINUOUS
10
138.0085789999999974
20
-129.1914209999999912
11
137.9652240000000063
21
-129.1265369999999848
0
LINE
8
BLACK
6
CONTINUOUS
10
137.9652240000000063
20
-129.1265369999999848
11
137.9499999999999886
21
-129.0499999999999829
0
LINE
8
BLACK
6
CONTINUOUS
10
137.9499999999999886
20
-129.0499999999999829
11
137.9499999999999886
21
-127.5499999999999972
0
LINE
8
BLACK
6
CONTINUOUS
10
137.9499999999999886
20
-127.5499999999999972
11
137.9652240000000063
21
-127.4734629999999953
0
LINE
8
BLACK
6
CONTINUOUS
10
137.9652240000000063
20
-127.4734629999999953
11
138.0085789999999974
21
-127.4085789999999889
0
LINE
8
BLACK
6
CONTINUOUS
10
138.0085789999999974
20
-127.4085789999999889
11
138.0734630000000038
21
-127.3652239999999978
0
LINE
8
BLACK
6
CONTINUOUS
10
138.0734630000000038
20
-127.3652239999999978
11
138.1500000000000057
21
-127.3499999999999943
0
LINE
8
BLACK
6
CONTINUOUS
10
138.1500000000000057
20
-127.3499999999999943
11
138.5499999999999829
21
-127.3499999999999943
0
LINE
8
BLACK
6
CONTINUOUS
10
138.5499999999999829
20
-127.3499999999999943
11
138.6265369999999848
21
-127.3652239999999978
0
LINE
8
BLACK
6
CONTINUOUS
10
141.3265370000000019
20
-127.3652239999999978
11
141.3914209999999798
21
-127.4085789999999889
0
LINE
8
BLACK
6
CONTINUOUS
10
141.3914209999999798
20
-127.4085789999999889
11
141.4347759999999994
21
-127.4734629999999953
0
LINE
8
BLACK
6
CONTINUOUS
10
141.4347759999999994
20
-127.4734629999999953
11
141.4499999999999886
21
-127.5499999999999972
0
LINE
8
BLACK
6
CONTINUOUS
10
141.4499999999999886
20
-127.5499999999999972
11
141.4499999999999886
21
-129.0499999999999829
0
LINE
8
BLACK
6
CONTINUOUS
10
141.4499999999999886
20
-129.0499999999999829
11
141.4347759999999994
21
-129.1265369999999848
0
LINE
8
BLACK
6
CONTINUOUS
10
141.4347759999999994
20
-129.1265369999999848
11
141.3914209999999798
21
-129.1914209999999912
0
LINE
8
BLACK
6
CONTINUOUS
10
141.3914209999999798
20
-129.1914209999999912
11
141.3265370000000019
21
-129.2347759999999823
0
LINE
8
BLACK
6
CONTINUOUS
10
141.3265370000000019
20
-129.2347759999999823
11
141.25
21
-129.25
0
LINE
8
BLACK
6
CONTINUOUS
10
141.25
20
-129.25
11
140.8499999999999943
21
-129.25
0
LINE
8
BLACK
6
CONTINUOUS
10
140.8499999999999943
20
-129.25
11
140.7734629999999925
21
-129.2347759999999823
0
LINE
8
BLACK
6
CONTINUOUS
10
140.7734629999999925
20
-129.2347759999999823
11
140.7085789999999861
21
-129.1914209999999912
0
LINE
8
BLACK
6
CONTINUOUS
10
140.7085789999999861
20
-129.1914209999999912
11
140.6652239999999949
21
-129.1265369999999848
0
LINE
8
BLACK
6
CONTINUOUS
10
140.6652239999999949
20
-129.1265369999999848
11
140.6500000000000057
21
-129.0499999999999829
0
LINE
8
BLACK
6
CONTINUOUS
10
140.6500000000000057
20
-129.0499999999999829
11
140.6500000000000057
21
-127.5499999999999972
0
LINE
8
BLACK
6
CONTINUOUS
10
140.6500000000000057
20
-127.5499999999999972
11
140.6652239999999949
21
-127.4734629999999953
0
LINE
8
BLACK
6
CONTINUOUS
10
140.6652239999999949
20
-127.4734629999999953
11
140.7085789999999861
21
-127.4085789999999889
0
LINE
8
BLACK
6
CONTINUOUS
10
140.7085789999999861
20
-127.4085789999999889
11
140.7734629999999925
21
-127.3652239999999978
0
LINE
8
BLACK
6
CONTINUOUS
10
140.7734629999999925
20
-127.3652239999999978
11
140.8499999999999943
21
-127.3499999999999943
0
LINE
8
BLACK
6
CONTINUOUS
10
140.8499999999999943
20
-127.3499999999999943
11
141.25
21
-127.3499999999999943
0
LINE
8
BLACK
6
CONTINUOUS
10
141.25
20
-127.3499999999999943
11
141.3265370000000019
21
-127.3652239999999978
0
LINE
8
BLACK
6
CONTINUOUS
10
143.2265370000000075
20
-127.3652239999999978
11
143.2914209999999855
21
-127.4085789999999889
0
LINE
8
BLACK
6
CONTINUOUS
10
143.2914209999999855
20
-127.4085789999999889
11
143.3347760000000051
21
-127.4734629999999953
0
LINE
8
BLACK
6
CONTINUOUS
10
143.3347760000000051
20
-127.4734629999999953
11
143.3499999999999943
21
-127.5499999999999972
0
LINE
8
BLACK
6
CONTINUOUS
10
143.3499999999999943
20
-127.5499999999999972
11
143.3499999999999943
21
-129.0499999999999829
0
LINE
8
BLACK
6
CONTINUOUS
10
143.3499999999999943
20
-129.0499999999999829
11
143.3347760000000051
21
-129.1265369999999848
0
LINE
8
BLACK
6
CONTINUOUS
10
143.3347760000000051
20
-129.1265369999999848
11
143.2914209999999855
21
-129.1914209999999912
0
LINE
8
BLACK
6
CONTINUOUS
10
143.2914209999999855
20
-129.1914209999999912
11
143.2265370000000075
21
-129.2347759999999823
0
LINE
8
BLACK
6
CONTINUOUS
10
143.2265370000000075
20
-129.2347759999999823
11
143.1500000000000057
21
-129.25
0
LINE
8
BLACK
6
CONTINUOUS
10
143.1500000000000057
20
-129.25
11
142.75
21
-129.25
0
LINE
8
BLACK
6
CONTINUOUS
10
142.75
20
-129.25
11
142.6734629999999981
21
-129.2347759999999823
0
LINE
8
BLACK
6
CONTINUOUS
10
142.6734629999999981
20
-129.2347759999999823
11
142.6085789999999918
21
-129.1914209999999912
0
LINE
8
BLACK
6
CONTINUOUS
10
142.6085789999999918
20
-129.1914209999999912
11
142.5652240000000006
21
-129.1265369999999848
0
LINE
8
BLACK
6
CONTINUOUS
10
142.5652240000000006
20
-129.1265369999999848
11
142.5499999999999829
21
-129.0499999999999829
0
LINE
8
BLACK
6
CONTINUOUS
10
142.5499999999999829
20
-129.0499999999999829
11
142.5499999999999829
21
-127.5499999999999972
0
LINE
8
BLACK
6
CONTINUOUS
10
142.5499999999999829
20
-127.5499999999999972
11
142.5652240000000006
21
-127.4734629999999953
0
LINE
8
BLACK
6
CONTINUOUS
10
142.5652240000000006
20
-127.4734629999999953
11
142.6085789999999918
21
-127.4085789999999889
0
LINE
8
BLACK
6
CONTINUOUS
10
142.6085789999999918
20
-127.4085789999999889
11
142.6734629999999981
21
-127.3652239999999978
0
LINE
8
BLACK
6
CONTINUOUS
10
142.6734629999999981
20
-127.3652239999999978
11
142.75
21
-127.3499999999999943
0
LINE
8
BLACK
6
CONTINUOUS
10
142.75
20
-127.3499999999999943
11
143.1500000000000057
21
-127.3499999999999943
0
LINE
8
BLACK
6
CONTINUOUS
10
143.1500000000000057
20
-127.3499999999999943
11
143.2265370000000075
21
-127.3652239999999978
0
LINE
8
BLACK
6
CONTINUOUS
10
148.9456710000000044
20
-127.3690299999999951
11
149.0267769999999814
21
-127.423222999999993
0
LINE
8
BLACK
6
CONTINUOUS
10
149.0267769999999814
20
-127.423222999999993
11
149.0809699999999793
21
-127.5043289999999985
0
LINE
8
BLACK
6
CONTINUOUS
10
149.0809699999999793
20
-127.5043289999999985
11
149.0999999999999943
21
-127.5999999999999943
0
LINE
8
BLACK
6
CONTINUOUS
10
149.0999999999999943
20
-127.5999999999999943
11
149.0999999999999943
21
-128.2999999999999829
0
LINE
8
BLACK
6
CONTINUOUS
10
149.0999999999999943
20
-128.2999999999999829
11
149.0809699999999793
21
-128.395670999999993
0
LINE
8
BLACK
6
CONTINUOUS
10
149.0809699999999793
20
-128.395670999999993
11
149.0267769999999814
21
-128.4767769999999985
0
LINE
8
BLACK
6
CONTINUOUS
10
149.0267769999999814
20
-128.4767769999999985
11
148.9456710000000044
21
-128.5309699999999964
0
LINE
8
BLACK
6
CONTINUOUS
10
148.9456710000000044
20
-128.5309699999999964
11
148.8499999999999943
21
-128.5499999999999829
0
LINE
8
BLACK
6
CONTINUOUS
10
148.8499999999999943
20
-128.5499999999999829
11
147.9499999999999886
21
-128.5499999999999829
0
LINE
8
BLACK
6
CONTINUOUS
10
147.9499999999999886
20
-128.5499999999999829
11
147.854329000000007
21
-128.5309699999999964
0
LINE
8
BLACK
6
CONTINUOUS
10
147.854329000000007
20
-128.5309699999999964
11
147.7732230000000015
21
-128.4767769999999985
0
LINE
8
BLACK
6
CONTINUOUS
10
147.7732230000000015
20
-128.4767769999999985
11
147.7190300000000036
21
-128.395670999999993
0
LINE
8
BLACK
6
CONTINUOUS
10
147.7190300000000036
20
-128.395670999999993
11
147.6999999999999886
21
-128.2999999999999829
0
LINE
8
BLACK
6
CONTINUOUS
10
147.6999999999999886
20
-128.2999999999999829
11
147.6999999999999886
21
-127.5999999999999943
0
LINE
8
BLACK
6
CONTINUOUS
10
147.6999999999999886
20
-127.5999999999999943
11
147.7190300000000036
21
-127.5043289999999985
0
LINE
8
BLACK
6
CONTINUOUS
10
147.7190300000000036
20
-127.5043289999999985
11
147.7732230000000015
21
-127.423222999999993
0
LINE
8
BLACK
6
CONTINUOUS
10
147.7732230000000015
20
-127.423222999999993
11
147.854329000000007
21
-127.3690299999999951
0
LINE
8
BLACK
6
CONTINUOUS
10
147.854329000000007
20
-127.3690299999999951
11
147.9499999999999886
21
-127.3499999999999943
0
LINE
8
BLACK
6
CONTINUOUS
10
147.9499999999999886
20
-127.3499999999999943
11
148.8499999999999943
21
-127.3499999999999943
0
LINE
8
BLACK
6
CONTINUOUS
10
148.8499999999999943
20
-127.3499999999999943
11
148.9456710000000044
21
-127.3690299999999951
0
LINE
8
BLACK
6
CONTINUOUS
10
146.645670999999993
20
-127.3190299999999979
11
146.7267769999999985
21
-127.3732229999999959
0
LINE
8
BLACK
6
CONTINUOUS
10
146.7267769999999985
20
-127.3732229999999959
11
146.7809699999999964
21
-127.4543290000000013
0
LINE
8
BLACK
6
CONTINUOUS
10
146.7809699999999964
20
-127.4543290000000013
11
146.7999999999999829
21
-127.5499999999999972
0
LINE
8
BLACK
6
CONTINUOUS
10
146.7999999999999829
20
-127.5499999999999972
11
146.7999999999999829
21
-128.25
0
LINE
8
BLACK
6
CONTINUOUS
10
146.7999999999999829
20
-128.25
11
146.7809699999999964
21
-128.3456709999999816
0
LINE
8
BLACK
6
CONTINUOUS
10
146.7809699999999964
20
-128.3456709999999816
11
146.7267769999999985
21
-128.4267769999999871
0
LINE
8
BLACK
6
CONTINUOUS
10
146.7267769999999985
20
-128.4267769999999871
11
146.645670999999993
21
-128.480969999999985
0
LINE
8
BLACK
6
CONTINUOUS
10
146.645670999999993
20
-128.480969999999985
11
146.5499999999999829
21
-128.5
0
LINE
8
BLACK
6
CONTINUOUS
10
146.5499999999999829
20
-128.5
11
145.6500000000000057
21
-128.5
0
LINE
8
BLACK
6
CONTINUOUS
10
145.6500000000000057
20
-128.5
11
145.5543289999999956
21
-128.480969999999985
0
LINE
8
BLACK
6
CONTINUOUS
10
145.5543289999999956
20
-128.480969999999985
11
145.4732229999999902
21
-128.4267769999999871
0
LINE
8
BLACK
6
CONTINUOUS
10
145.4732229999999902
20
-128.4267769999999871
11
145.4190299999999922
21
-128.3456709999999816
0
LINE
8
BLACK
6
CONTINUOUS
10
145.4190299999999922
20
-128.3456709999999816
11
145.4000000000000057
21
-128.25
0
LINE
8
BLACK
6
CONTINUOUS
10
145.4000000000000057
20
-128.25
11
145.4000000000000057
21
-127.5499999999999972
0
LINE
8
BLACK
6
CONTINUOUS
10
145.4000000000000057
20
-127.5499999999999972
11
145.4190299999999922
21
-127.4543290000000013
0
LINE
8
BLACK
6
CONTINUOUS
10
145.4190299999999922
20
-127.4543290000000013
11
145.4732229999999902
21
-127.3732229999999959
0
LINE
8
BLACK
6
CONTINUOUS
10
145.4732229999999902
20
-127.3732229999999959
11
145.5543289999999956
21
-127.3190299999999979
0
LINE
8
BLACK
6
CONTINUOUS
10
145.5543289999999956
20
-127.3190299999999979
11
145.6500000000000057
21
-127.2999999999999972
0
LINE
8
BLACK
6
CONTINUOUS
10
145.6500000000000057
20
-127.2999999999999972
11
146.5499999999999829
21
-127.2999999999999972
0
LINE
8
BLACK
6
CONTINUOUS
10
146.5499999999999829
20
-127.2999999999999972
11
146.645670999999993
21
-127.3190299999999979
0
LINE
8
BLACK
6
CONTINUOUS
10
148.9456710000000044
20
-125.3690299999999951
11
149.0267769999999814
21
-125.423222999999993
0
LINE
8
BLACK
6
CONTINUOUS
10
149.0267769999999814
20
-125.423222999999993
11
149.0809699999999793
21
-125.5043289999999985
0
LINE
8
BLACK
6
CONTINUOUS
10
149.0809699999999793
20
-125.5043289999999985
11
149.0999999999999943
21
-125.5999999999999943
0
LINE
8
BLACK
6
CONTINUOUS
10
149.0999999999999943
20
-125.5999999999999943
11
149.0999999999999943
21
-126.2999999999999972
0
LINE
8
BLACK
6
CONTINUOUS
10
149.0999999999999943
20
-126.2999999999999972
11
149.0809699999999793
21
-126.395670999999993
0
LINE
8
BLACK
6
CONTINUOUS
10
149.0809699999999793
20
-126.395670999999993
11
149.0267769999999814
21
-126.4767769999999985
0
LINE
8
BLACK
6
CONTINUOUS
10
149.0267769999999814
20
-126.4767769999999985
11
148.9456710000000044
21
-126.5309699999999964
0
LINE
8
BLACK
6
CONTINUOUS
10
148.9456710000000044
20
-126.5309699999999964
11
148.8499999999999943
21
-126.5499999999999972
0
LINE
8
BLACK
6
CONTINUOUS
10
148.8499999999999943
20
-126.5499999999999972
11
147.9499999999999886
21
-126.5499999999999972
0
LINE
8
BLACK
6
CONTINUOUS
10
147.9499999999999886
20
-126.5499999999999972
11
147.854329000000007
21
-126.5309699999999964
0
LINE
8
BLACK
6
CONTINUOUS
10
147.854329000000007
20
-126.5309699999999964
11
147.7732230000000015
21
-126.4767769999999985
0
LINE
8
BLACK
6
CONTINUOUS
10
147.7732230000000015
20
-126.4767769999999985
11
147.7190300000000036
21
-126.395670999999993
0
LINE
8
BLACK
6
CONTINUOUS
10
147.7190300000000036
20
-126.395670999999993
11
147.6999999999999886
21
-126.2999999999999972
0
LINE
8
BLACK
6
CONTINUOUS
10
147.6999999999999886
20
-126.2999999999999972
11
147.6999999999999886
21
-125.5999999999999943
0
LINE
8
BLACK
6
CONTINUOUS
10
147.6999999999999886
20
-125.5999999999999943
11
147.7190300000000036
21
-125.5043289999999985
0
LINE
8
BLACK
6
CONTINUOUS
10
147.7190300000000036
20
-125.5043289999999985
11
147.7732230000000015
21
-125.423222999999993
0
LINE
8
BLACK
6
CONTINUOUS
10
147.7732230000000015
20
-125.423222999999993
11
147.854329000000007
21
-125.3690299999999951
0
LINE
8
BLACK
6
CONTINUOUS
10
147.854329000000007
20
-125.3690299999999951
11
147.9499999999999886
21
-125.3499999999999943
0
LINE
8
BLACK
6
CONTINUOUS
10
147.9499999999999886
20
-125.3499999999999943
11
148.8499999999999943
21
-125.3499999999999943
0
LINE
8
BLACK
6
CONTINUOUS
10
148.8499999999999943
20
-125.3499999999999943
11
148.9456710000000044
21
-125.3690299999999951
0
LINE
8
BLACK
6
CONTINUOUS
10
146.645670999999993
20
-125.3190299999999979
11
146.7267769999999985
21
-125.3732229999999959
0
LINE
8
BLACK
6
CONTINUOUS
10
146.7267769999999985
20
-125.3732229999999959
11
146.7809699999999964
21
-125.4543290000000013
0
LINE
8
BLACK
6
CONTINUOUS
10
146.7809699999999964
20
-125.4543290000000013
11
146.7999999999999829
21
-125.5499999999999972
0
LINE
8
BLACK
6
CONTINUOUS
10
146.7999999999999829
20
-125.5499999999999972
11
146.7999999999999829
21
-126.25
0
LINE
8
BLACK
6
CONTINUOUS
10
146.7999999999999829
20
-126.25
11
146.7809699999999964
21
-126.3456709999999958
0
LINE
8
BLACK
6
CONTINUOUS
10
146.7809699999999964
20
-126.3456709999999958
11
146.7267769999999985
21
-126.4267770000000013
0
LINE
8
BLACK
6
CONTINUOUS
10
146.7267769999999985
20
-126.4267770000000013
11
146.645670999999993
21
-126.4809699999999992
0
LINE
8
BLACK
6
CONTINUOUS
10
146.645670999999993
20
-126.4809699999999992
11
146.5499999999999829
21
-126.5
0
LINE
8
BLACK
6
CONTINUOUS
10
146.5499999999999829
20
-126.5
11
145.6500000000000057
21
-126.5
0
LINE
8
BLACK
6
CONTINUOUS
10
145.6500000000000057
20
-126.5
11
145.5543289999999956
21
-126.4809699999999992
0
LINE
8
BLACK
6
CONTINUOUS
10
145.5543289999999956
20
-126.4809699999999992
11
145.4732229999999902
21
-126.4267770000000013
0
LINE
8
BLACK
6
CONTINUOUS
10
145.4732229999999902
20
-126.4267770000000013
11
145.4190299999999922
21
-126.3456709999999958
0
LINE
8
BLACK
6
CONTINUOUS
10
145.4190299999999922
20
-126.3456709999999958
11
145.4000000000000057
21
-126.25
0
LINE
8
BLACK
6
CONTINUOUS
10
145.4000000000000057
20
-126.25
11
145.4000000000000057
21
-125.5499999999999972
0
LINE
8
BLACK
6
CONTINUOUS
10
145.4000000000000057
20
-125.5499999999999972
11
145.4190299999999922
21
-125.4543290000000013
0
LINE
8
BLACK
6
CONTINUOUS
10
145.4190299999999922
20
-125.4543290000000013
11
145.4732229999999902
21
-125.3732229999999959
0
LINE
8
BLACK
6
CONTINUOUS
10
145.4732229999999902
20
-125.3732229999999959
11
145.5543289999999956
21
-125.3190299999999979
0
LINE
8
BLACK
6
CONTINUOUS
10
145.5543289999999956
20
-125.3190299999999979
11
145.6500000000000057
21
-125.2999999999999972
0
LINE
8
BLACK
6
CONTINUOUS
10
145.6500000000000057
20
-125.2999999999999972
11
146.5499999999999829
21
-125.2999999999999972
0
LINE
8
BLACK
6
CONTINUOUS
10
146.5499999999999829
20
-125.2999999999999972
11
146.645670999999993
21
-125.3190299999999979
0
LINE
8
BLACK
6
CONTINUOUS
10
137.6765369999999962
20
-124.3652239999999978
11
137.7414210000000026
21
-124.4085789999999889
0
LINE
8
BLACK
6
CONTINUOUS
10
137.7414210000000026
20
-124.4085789999999889
11
137.7847759999999937
21
-124.4734629999999953
0
LINE
8
BLACK
6
CONTINUOUS
10
137.7847759999999937
20
-124.4734629999999953
11
137.7999999999999829
21
-124.5499999999999972
0
LINE
8
BLACK
6
CONTINUOUS
10
137.7999999999999829
20
-124.5499999999999972
11
137.7999999999999829
21
-126.0499999999999972
0
LINE
8
BLACK
6
CONTINUOUS
10
137.7999999999999829
20
-126.0499999999999972
11
137.7847759999999937
21
-126.126536999999999
0
LINE
8
BLACK
6
CONTINUOUS
10
137.7847759999999937
20
-126.126536999999999
11
137.7414210000000026
21
-126.1914209999999912
0
LINE
8
BLACK
6
CONTINUOUS
10
137.7414210000000026
20
-126.1914209999999912
11
137.6765369999999962
21
-126.2347759999999965
0
LINE
8
BLACK
6
CONTINUOUS
10
137.6765369999999962
20
-126.2347759999999965
11
137.5999999999999943
21
-126.25
0
LINE
8
BLACK
6
CONTINUOUS
10
137.5999999999999943
20
-126.25
11
137.1999999999999886
21
-126.25
0
LINE
8
BLACK
6
CONTINUOUS
10
137.1999999999999886
20
-126.25
11
137.1234629999999868
21
-126.2347759999999965
0
LINE
8
BLACK
6
CONTINUOUS
10
137.1234629999999868
20
-126.2347759999999965
11
137.0585789999999804
21
-126.1914209999999912
0
LINE
8
BLACK
6
CONTINUOUS
10
137.0585789999999804
20
-126.1914209999999912
11
137.0152239999999892
21
-126.126536999999999
0
LINE
8
BLACK
6
CONTINUOUS
10
137.0152239999999892
20
-126.126536999999999
11
137.
21
-126.0499999999999972
0
LINE
8
BLACK
6
CONTINUOUS
10
137.
20
-126.0499999999999972
11
137.
21
-124.5499999999999972
0
LINE
8
BLACK
6
CONTINUOUS
10
137.
20
-124.5499999999999972
11
137.0152239999999892
21
-124.4734629999999953
0
LINE
8
BLACK
6
CONTINUOUS
10
137.0152239999999892
20
-124.4734629999999953
11
137.0585789999999804
21
-124.4085789999999889
0
LINE
8
BLACK
6
CONTINUOUS
10
137.0585789999999804
20
-124.4085789999999889
11
137.1234629999999868
21
-124.3652239999999978
0
LINE
8
BLACK
6
CONTINUOUS
10
137.1234629999999868
20
-124.3652239999999978
11
137.1999999999999886
21
-124.3499999999999943
0
LINE
8
BLACK
6
CONTINUOUS
10
137.1999999999999886
20
-124.3499999999999943
11
137.5999999999999943
21
-124.3499999999999943
0
LINE
8
BLACK
6
CONTINUOUS
10
137.5999999999999943
20
-124.3499999999999943
11
137.6765369999999962
21
-124.3652239999999978
0
LINE
8
BLACK
6
CONTINUOUS
10
142.2765369999999905
20
-124.3652239999999978
11
142.3414209999999969
21
-124.4085789999999889
0
LINE
8
BLACK
6
CONTINUOUS
10
142.3414209999999969
20
-124.4085789999999889
11
142.384775999999988
21
-124.4734629999999953
0
LINE
8
BLACK
6
CONTINUOUS
10
142.384775999999988
20
-124.4734629999999953
11
142.4000000000000057
21
-124.5499999999999972
0
LINE
8
BLACK
6
CONTINUOUS
10
142.4000000000000057
20
-124.5499999999999972
11
142.4000000000000057
21
-126.0499999999999972
0
LINE
8
BLACK
6
CONTINUOUS
10
142.4000000000000057
20
-126.0499999999999972
11
142.384775999999988
21
-126.126536999999999
0
LINE
8
BLACK
6
CONTINUOUS
10
142.384775999999988
20
-126.126536999999999
11
142.3414209999999969
21
-126.1914209999999912
0
LINE
8
BLACK
6
CONTINUOUS
10
142.3414209999999969
20
-126.1914209999999912
11
142.2765369999999905
21
-126.2347759999999965
0
LINE
8
BLACK
6
CONTINUOUS
10
142.2765369999999905
20
-126.2347759999999965
11
142.1999999999999886
21
-126.25
0
LINE
8
BLACK
6
CONTINUOUS
10
142.1999999999999886
20
-126.25
11
141.7999999999999829
21
-126.25
0
LINE
8
BLACK
6
CONTINUOUS
10
141.7999999999999829
20
-126.25
11
141.7234629999999811
21
-126.2347759999999965
0
LINE
8
BLACK
6
CONTINUOUS
10
141.7234629999999811
20
-126.2347759999999965
11
141.6585790000000031
21
-126.1914209999999912
0
LINE
8
BLACK
6
CONTINUOUS
10
141.6585790000000031
20
-126.1914209999999912
11
141.6152239999999836
21
-126.126536999999999
0
LINE
8
BLACK
6
CONTINUOUS
10
141.6152239999999836
20
-126.126536999999999
11
141.5999999999999943
21
-126.0499999999999972
0
LINE
8
BLACK
6
CONTINUOUS
10
141.5999999999999943
20
-126.0499999999999972
11
141.5999999999999943
21
-124.5499999999999972
0
LINE
8
BLACK
6
CONTINUOUS
10
141.5999999999999943
20
-124.5499999999999972
11
141.6152239999999836
21
-124.4734629999999953
0
LINE
8
BLACK
6
CONTINUOUS
10
141.6152239999999836
20
-124.4734629999999953
11
141.6585790000000031
21
-124.4085789999999889
0
LINE
8
BLACK
6
CONTINUOUS
10
141.6585790000000031
20
-124.4085789999999889
11
141.7234629999999811
21
-124.3652239999999978
0
LINE
8
BLACK
6
CONTINUOUS
10
141.7234629999999811
20
-124.3652239999999978
11
141.7999999999999829
21
-124.3499999999999943
0
LINE
8
BLACK
6
CONTINUOUS
10
141.7999999999999829
20
-124.3499999999999943
11
142.1999999999999886
21
-124.3499999999999943
0
LINE
8
BLACK
6
CONTINUOUS
10
142.1999999999999886
20
-124.3499999999999943
11
142.2765369999999905
21
-124.3652239999999978
  0
ENDSEC
  0
EOF
