  0
SECTION
  2
HEADER
  9
$ANGBASE
  50
0.0
  9
$ANGDIR
  70
1
  9
$MEASUREMENT
  70
1
  0
ENDSEC
  0
SECTION
  2
TABLES
  0
TABLE
  2
LTYPE
  70
4
  0
LTYPE
  5
40F
  2
CONTINUOUS
  70
0
  3
Solid line
  72
65
  73
0
  40
0.0
  0
LTYPE
  5
410
  2
DASHDOT
 70
0
  3
Dash Dot ____ _ ____ _
 72
65
 73
4
 40
2.0
 49
1.25
 49
-0.25
 49
0.25
 49
-0.25
  0
LTYPE
  5
411
  2
DASHED
 70
0
  3
Dashed __ __ __ __ __
 72
65
 73
2
 40
0.75
 49
0.5
 49
-0.25
  0
LTYPE
  5
43B
  2
DOTTED
 70
0
  3
Dotted .  .  .  .
 72
65
 73
2
 40
0.2
 49
0.0
 49
-0.2
  0
ENDTAB
  0
TABLE
  2
STYLE
  70
4
  0
STYLE
  2
KICAD
  70
0
  40
0
  41
1
  42
1
  50
0
  71
0
  3
isocp.shx
  0
STYLE
  2
KICADB
  70
0
  40
0
  41
1
  42
1
  50
0
  71
0
  3
isocp.shx
  0
STYLE
  2
KICADI
  70
0
  40
0
  41
1
  42
1
  50
15
  71
0
  3
isocp.shx
  0
STYLE
  2
KICADBI
  70
0
  40
0
  41
1
  42
1
  50
15
  71
0
  3
isocp.shx
  0
ENDTAB
  0
TABLE
  2
LAYER
  70
1
  0
LAYER
  2
BLACK
  70
0
  62
7
  6
CONTINUOUS
  0
ENDTAB
  0
ENDSEC
  0
SECTION
  2
ENTITIES
0
LINE
8
BLACK
6
CONTINUOUS
10
132.5
20
-73.4500000000000028
11
150.5
21
-73.4500000000000028
0
LINE
8
BLACK
6
CONTINUOUS
10
150.5
20
-73.4500000000000028
11
150.5
21
-108.4499999999999886
0
LINE
8
BLACK
6
CONTINUOUS
10
150.5
20
-108.4499999999999886
11
132.5
21
-108.4499999999999886
0
LINE
8
BLACK
6
CONTINUOUS
10
132.5
20
-108.4499999999999886
11
132.5
21
-73.4500000000000028
0
CIRCLE
8
BLACK
10
139.9000000000000057
20
-91.75
40
0.175
0
CIRCLE
8
BLACK
10
142.4399999999999977
20
-91.75
40
0.175
0
CIRCLE
8
BLACK
10
136.4000000000000057
20
-75.7999999999999972
40
0.175
0
CIRCLE
8
BLACK
10
138.9399999999999977
20
-75.7999999999999972
40
0.175
0
CIRCLE
8
BLACK
10
141.4799999999999898
20
-75.7999999999999972
40
0.175
0
CIRCLE
8
BLACK
10
144.0199999999999818
20
-75.7999999999999972
40
0.175
0
CIRCLE
8
BLACK
10
146.5600000000000023
20
-75.7999999999999972
40
0.175
0
CIRCLE
8
BLACK
10
139.7999999999999829
20
-103.8499999999999943
40
0.175
0
CIRCLE
8
BLACK
10
142.3400000000000034
20
-103.8499999999999943
40
0.175
  0
ENDSEC
  0
EOF
