  0
SECTION
  2
HEADER
  9
$ANGBASE
  50
0.0
  9
$ANGDIR
  70
1
  9
$MEASUREMENT
  70
1
  0
ENDSEC
  0
SECTION
  2
TABLES
  0
TABLE
  2
LTYPE
  70
4
  0
LTYPE
  5
40F
  2
CONTINUOUS
  70
0
  3
Solid line
  72
65
  73
0
  40
0.0
  0
LTYPE
  5
410
  2
DASHDOT
 70
0
  3
Dash Dot ____ _ ____ _
 72
65
 73
4
 40
2.0
 49
1.25
 49
-0.25
 49
0.25
 49
-0.25
  0
LTYPE
  5
411
  2
DASHED
 70
0
  3
Dashed __ __ __ __ __
 72
65
 73
2
 40
0.75
 49
0.5
 49
-0.25
  0
LTYPE
  5
43B
  2
DOTTED
 70
0
  3
Dotted .  .  .  .
 72
65
 73
2
 40
0.2
 49
0.0
 49
-0.2
  0
ENDTAB
  0
TABLE
  2
STYLE
  70
4
  0
STYLE
  2
KICAD
  70
0
  40
0
  41
1
  42
1
  50
0
  71
0
  3
isocp.shx
  0
STYLE
  2
KICADB
  70
0
  40
0
  41
1
  42
1
  50
0
  71
0
  3
isocp.shx
  0
STYLE
  2
KICADI
  70
0
  40
0
  41
1
  42
1
  50
15
  71
0
  3
isocp.shx
  0
STYLE
  2
KICADBI
  70
0
  40
0
  41
1
  42
1
  50
15
  71
0
  3
isocp.shx
  0
ENDTAB
  0
TABLE
  2
LAYER
  70
1
  0
LAYER
  2
BLACK
  70
0
  62
7
  6
CONTINUOUS
  0
ENDTAB
  0
ENDSEC
  0
SECTION
  2
ENTITIES
0
LINE
8
BLACK
6
CONTINUOUS
10
180.0099999999999909
20
-150.
11
180.0099999999999909
21
-134.7599999999999909
0
LINE
8
BLACK
6
CONTINUOUS
10
100.
20
-134.7599999999999909
11
100.
21
-150.
0
LINE
8
BLACK
6
CONTINUOUS
10
167.3100000000000023
20
-122.6949999999999932
11
112.0649999999999977
21
-122.6949999999999932
0
LINE
8
BLACK
6
CONTINUOUS
10
112.0649999999999977
20
-122.6949999999999932
11
100.
21
-134.7599999999999909
0
LINE
8
BLACK
6
CONTINUOUS
10
167.9449999999999932
20
-122.6949999999999932
11
167.3100000000000023
21
-122.6949999999999932
0
LINE
8
BLACK
6
CONTINUOUS
10
100.
20
-150.
11
180.0099999999999909
21
-150.
0
LINE
8
BLACK
6
CONTINUOUS
10
180.0099999999999909
20
-134.7599999999999909
11
167.9449999999999932
21
-122.6949999999999932
0
CIRCLE
8
BLACK
10
156.9308149999999955
20
-131.0173889999999801
40
0.175
0
CIRCLE
8
BLACK
10
155.2981330000000071
20
-129.0716339999999889
40
0.175
0
CIRCLE
8
BLACK
10
124.701864999999998
20
-129.0716390000000047
40
0.175
0
CIRCLE
8
BLACK
10
123.0691819999999979
20
-131.0173949999999934
40
0.175
0
CIRCLE
8
BLACK
10
164.1500000000000057
20
-144.8499999999999943
40
0.175
0
CIRCLE
8
BLACK
10
177.
20
-144.
40
0.175
0
CIRCLE
8
BLACK
10
174.4599999999999795
20
-144.
40
0.175
0
CIRCLE
8
BLACK
10
115.875
20
-144.9199999999999875
40
0.175
0
CIRCLE
8
BLACK
10
105.539999999999992
20
-144.
40
0.175
0
CIRCLE
8
BLACK
10
103.
20
-144.
40
0.175
0
CIRCLE
8
BLACK
10
103.
20
-147.
40
0.175
0
CIRCLE
8
BLACK
10
105.539999999999992
20
-147.
40
0.175
0
CIRCLE
8
BLACK
10
153.
20
-131.
40
0.175
0
CIRCLE
8
BLACK
10
154.6326819999999884
20
-132.9457549999999912
40
0.175
0
CIRCLE
8
BLACK
10
174.4599999999999795
20
-147.
40
0.175
0
CIRCLE
8
BLACK
10
177.
20
-147.
40
0.175
0
CIRCLE
8
BLACK
10
125.3673179999999974
20
-132.9457549999999912
40
0.175
0
CIRCLE
8
BLACK
10
127.
20
-131.
40
0.175
0
CIRCLE
8
BLACK
10
127.9749999999999943
20
-146.9199999999999875
40
0.175
0
CIRCLE
8
BLACK
10
130.5150009999999838
20
-146.9199999999999875
40
0.175
0
CIRCLE
8
BLACK
10
133.0550000000000068
20
-146.920000999999985
40
0.175
0
CIRCLE
8
BLACK
10
135.5950009999999963
20
-146.91999899999999
40
0.175
0
CIRCLE
8
BLACK
10
138.1349999999999909
20
-146.9199999999999875
40
0.175
0
CIRCLE
8
BLACK
10
140.6749999999999829
20
-146.9199999999999875
40
0.175
0
CIRCLE
8
BLACK
10
143.2150000000000034
20
-146.920000999999985
40
0.175
0
CIRCLE
8
BLACK
10
145.7550009999999929
20
-146.920000999999985
40
0.175
0
CIRCLE
8
BLACK
10
148.2949999999999875
20
-146.9199999999999875
40
0.175
0
CIRCLE
8
BLACK
10
150.8349989999999821
20
-146.9199979999999925
40
0.175
  0
ENDSEC
  0
EOF
