  0
SECTION
  2
HEADER
  9
$ANGBASE
  50
0.0
  9
$ANGDIR
  70
1
  9
$MEASUREMENT
  70
1
  0
ENDSEC
  0
SECTION
  2
TABLES
  0
TABLE
  2
LTYPE
  70
4
  0
LTYPE
  5
40F
  2
CONTINUOUS
  70
0
  3
Solid line
  72
65
  73
0
  40
0.0
  0
LTYPE
  5
410
  2
DASHDOT
 70
0
  3
Dash Dot ____ _ ____ _
 72
65
 73
4
 40
2.0
 49
1.25
 49
-0.25
 49
0.25
 49
-0.25
  0
LTYPE
  5
411
  2
DASHED
 70
0
  3
Dashed __ __ __ __ __
 72
65
 73
2
 40
0.75
 49
0.5
 49
-0.25
  0
LTYPE
  5
43B
  2
DOTTED
 70
0
  3
Dotted .  .  .  .
 72
65
 73
2
 40
0.2
 49
0.0
 49
-0.2
  0
ENDTAB
  0
TABLE
  2
STYLE
  70
4
  0
STYLE
  2
KICAD
  70
0
  40
0
  41
1
  42
1
  50
0
  71
0
  3
isocp.shx
  0
STYLE
  2
KICADB
  70
0
  40
0
  41
1
  42
1
  50
0
  71
0
  3
isocp.shx
  0
STYLE
  2
KICADI
  70
0
  40
0
  41
1
  42
1
  50
15
  71
0
  3
isocp.shx
  0
STYLE
  2
KICADBI
  70
0
  40
0
  41
1
  42
1
  50
15
  71
0
  3
isocp.shx
  0
ENDTAB
  0
TABLE
  2
LAYER
  70
1
  0
LAYER
  2
BLACK
  70
0
  62
7
  6
CONTINUOUS
  0
ENDTAB
  0
ENDSEC
  0
SECTION
  2
ENTITIES
0
LINE
8
BLACK
6
CONTINUOUS
10
139.0999999999999943
20
-99.2999999999999972
11
137.5
21
-99.2999999999999972
0
LINE
8
BLACK
6
CONTINUOUS
10
137.5
20
-99.2999999999999972
11
137.5
21
-97.5
0
LINE
8
BLACK
6
CONTINUOUS
10
137.5
20
-97.5
11
139.0999999999999943
21
-97.5
0
LINE
8
BLACK
6
CONTINUOUS
10
139.0999999999999943
20
-97.5
11
139.0999999999999943
21
-99.2999999999999972
0
LINE
8
BLACK
6
CONTINUOUS
10
145.
20
-99.2999999999999972
11
143.4000000000000057
21
-99.2999999999999972
0
LINE
8
BLACK
6
CONTINUOUS
10
143.4000000000000057
20
-99.2999999999999972
11
143.4000000000000057
21
-97.5
0
LINE
8
BLACK
6
CONTINUOUS
10
143.4000000000000057
20
-97.5
11
145.
21
-97.5
0
LINE
8
BLACK
6
CONTINUOUS
10
145.
20
-97.5
11
145.
21
-99.2999999999999972
0
LINE
8
BLACK
6
CONTINUOUS
10
149.4956709999999873
20
-92.8190299999999979
11
149.5767769999999928
21
-92.8732229999999959
0
LINE
8
BLACK
6
CONTINUOUS
10
149.5767769999999928
20
-92.8732229999999959
11
149.6309699999999907
21
-92.9543290000000013
0
LINE
8
BLACK
6
CONTINUOUS
10
149.6309699999999907
20
-92.9543290000000013
11
149.6500000000000057
21
-93.0499999999999972
0
LINE
8
BLACK
6
CONTINUOUS
10
149.6500000000000057
20
-93.0499999999999972
11
149.6500000000000057
21
-93.5750000000000028
0
LINE
8
BLACK
6
CONTINUOUS
10
149.6500000000000057
20
-93.5750000000000028
11
149.6309699999999907
21
-93.6706709999999987
0
LINE
8
BLACK
6
CONTINUOUS
10
149.6309699999999907
20
-93.6706709999999987
11
149.5767769999999928
21
-93.7517769999999899
0
LINE
8
BLACK
6
CONTINUOUS
10
149.5767769999999928
20
-93.7517769999999899
11
149.4956709999999873
21
-93.8059700000000021
0
LINE
8
BLACK
6
CONTINUOUS
10
149.4956709999999873
20
-93.8059700000000021
11
149.4000000000000057
21
-93.8250000000000028
0
LINE
8
BLACK
6
CONTINUOUS
10
149.4000000000000057
20
-93.8250000000000028
11
148.5
21
-93.8250000000000028
0
LINE
8
BLACK
6
CONTINUOUS
10
148.5
20
-93.8250000000000028
11
148.4043289999999899
21
-93.8059700000000021
0
LINE
8
BLACK
6
CONTINUOUS
10
148.4043289999999899
20
-93.8059700000000021
11
148.3232229999999845
21
-93.7517769999999899
0
LINE
8
BLACK
6
CONTINUOUS
10
148.3232229999999845
20
-93.7517769999999899
11
148.2690299999999866
21
-93.6706709999999987
0
LINE
8
BLACK
6
CONTINUOUS
10
148.2690299999999866
20
-93.6706709999999987
11
148.25
21
-93.5750000000000028
0
LINE
8
BLACK
6
CONTINUOUS
10
148.25
20
-93.5750000000000028
11
148.25
21
-93.0499999999999972
0
LINE
8
BLACK
6
CONTINUOUS
10
148.25
20
-93.0499999999999972
11
148.2690299999999866
21
-92.9543290000000013
0
LINE
8
BLACK
6
CONTINUOUS
10
148.2690299999999866
20
-92.9543290000000013
11
148.3232229999999845
21
-92.8732229999999959
0
LINE
8
BLACK
6
CONTINUOUS
10
148.3232229999999845
20
-92.8732229999999959
11
148.4043289999999899
21
-92.8190299999999979
0
LINE
8
BLACK
6
CONTINUOUS
10
148.4043289999999899
20
-92.8190299999999979
11
148.5
21
-92.7999999999999972
0
LINE
8
BLACK
6
CONTINUOUS
10
148.5
20
-92.7999999999999972
11
149.4000000000000057
21
-92.7999999999999972
0
LINE
8
BLACK
6
CONTINUOUS
10
149.4000000000000057
20
-92.7999999999999972
11
149.4956709999999873
21
-92.8190299999999979
0
LINE
8
BLACK
6
CONTINUOUS
10
149.4956709999999873
20
-90.9940299999999951
11
149.5767769999999928
21
-91.048222999999993
0
LINE
8
BLACK
6
CONTINUOUS
10
149.5767769999999928
20
-91.048222999999993
11
149.6309699999999907
21
-91.1293289999999985
0
LINE
8
BLACK
6
CONTINUOUS
10
149.6309699999999907
20
-91.1293289999999985
11
149.6500000000000057
21
-91.2249999999999943
0
LINE
8
BLACK
6
CONTINUOUS
10
149.6500000000000057
20
-91.2249999999999943
11
149.6500000000000057
21
-91.75
0
LINE
8
BLACK
6
CONTINUOUS
10
149.6500000000000057
20
-91.75
11
149.6309699999999907
21
-91.8456709999999958
0
LINE
8
BLACK
6
CONTINUOUS
10
149.6309699999999907
20
-91.8456709999999958
11
149.5767769999999928
21
-91.9267770000000013
0
LINE
8
BLACK
6
CONTINUOUS
10
149.5767769999999928
20
-91.9267770000000013
11
149.4956709999999873
21
-91.9809699999999992
0
LINE
8
BLACK
6
CONTINUOUS
10
149.4956709999999873
20
-91.9809699999999992
11
149.4000000000000057
21
-92.
0
LINE
8
BLACK
6
CONTINUOUS
10
149.4000000000000057
20
-92.
11
148.5
21
-92.
0
LINE
8
BLACK
6
CONTINUOUS
10
148.5
20
-92.
11
148.4043289999999899
21
-91.9809699999999992
0
LINE
8
BLACK
6
CONTINUOUS
10
148.4043289999999899
20
-91.9809699999999992
11
148.3232229999999845
21
-91.9267770000000013
0
LINE
8
BLACK
6
CONTINUOUS
10
148.3232229999999845
20
-91.9267770000000013
11
148.2690299999999866
21
-91.8456709999999958
0
LINE
8
BLACK
6
CONTINUOUS
10
148.2690299999999866
20
-91.8456709999999958
11
148.25
21
-91.75
0
LINE
8
BLACK
6
CONTINUOUS
10
148.25
20
-91.75
11
148.25
21
-91.2249999999999943
0
LINE
8
BLACK
6
CONTINUOUS
10
148.25
20
-91.2249999999999943
11
148.2690299999999866
21
-91.1293289999999985
0
LINE
8
BLACK
6
CONTINUOUS
10
148.2690299999999866
20
-91.1293289999999985
11
148.3232229999999845
21
-91.048222999999993
0
LINE
8
BLACK
6
CONTINUOUS
10
148.3232229999999845
20
-91.048222999999993
11
148.4043289999999899
21
-90.9940299999999951
0
LINE
8
BLACK
6
CONTINUOUS
10
148.4043289999999899
20
-90.9940299999999951
11
148.5
21
-90.9749999999999943
0
LINE
8
BLACK
6
CONTINUOUS
10
148.5
20
-90.9749999999999943
11
149.4000000000000057
21
-90.9749999999999943
0
LINE
8
BLACK
6
CONTINUOUS
10
149.4000000000000057
20
-90.9749999999999943
11
149.4956709999999873
21
-90.9940299999999951
0
LINE
8
BLACK
6
CONTINUOUS
10
134.8765369999999848
20
-86.3152240000000006
11
134.9414209999999912
21
-86.3585789999999918
0
LINE
8
BLACK
6
CONTINUOUS
10
134.9414209999999912
20
-86.3585789999999918
11
134.9847759999999823
21
-86.4234629999999981
0
LINE
8
BLACK
6
CONTINUOUS
10
134.9847759999999823
20
-86.4234629999999981
11
135.
21
-86.5
0
LINE
8
BLACK
6
CONTINUOUS
10
135.
20
-86.5
11
135.
21
-88.
0
LINE
8
BLACK
6
CONTINUOUS
10
135.
20
-88.
11
134.9847759999999823
21
-88.0765370000000019
0
LINE
8
BLACK
6
CONTINUOUS
10
134.9847759999999823
20
-88.0765370000000019
11
134.9414209999999912
21
-88.141420999999994
0
LINE
8
BLACK
6
CONTINUOUS
10
134.9414209999999912
20
-88.141420999999994
11
134.8765369999999848
21
-88.1847759999999994
0
LINE
8
BLACK
6
CONTINUOUS
10
134.8765369999999848
20
-88.1847759999999994
11
134.7999999999999829
21
-88.2000000000000028
0
LINE
8
BLACK
6
CONTINUOUS
10
134.7999999999999829
20
-88.2000000000000028
11
134.4000000000000057
21
-88.2000000000000028
0
LINE
8
BLACK
6
CONTINUOUS
10
134.4000000000000057
20
-88.2000000000000028
11
134.3234630000000038
21
-88.1847759999999994
0
LINE
8
BLACK
6
CONTINUOUS
10
134.3234630000000038
20
-88.1847759999999994
11
134.2585789999999974
21
-88.141420999999994
0
LINE
8
BLACK
6
CONTINUOUS
10
134.2585789999999974
20
-88.141420999999994
11
134.2152240000000063
21
-88.0765370000000019
0
LINE
8
BLACK
6
CONTINUOUS
10
134.2152240000000063
20
-88.0765370000000019
11
134.1999999999999886
21
-88.
0
LINE
8
BLACK
6
CONTINUOUS
10
134.1999999999999886
20
-88.
11
134.1999999999999886
21
-86.5
0
LINE
8
BLACK
6
CONTINUOUS
10
134.1999999999999886
20
-86.5
11
134.2152240000000063
21
-86.4234629999999981
0
LINE
8
BLACK
6
CONTINUOUS
10
134.2152240000000063
20
-86.4234629999999981
11
134.2585789999999974
21
-86.3585789999999918
0
LINE
8
BLACK
6
CONTINUOUS
10
134.2585789999999974
20
-86.3585789999999918
11
134.3234630000000038
21
-86.3152240000000006
0
LINE
8
BLACK
6
CONTINUOUS
10
134.3234630000000038
20
-86.3152240000000006
11
134.4000000000000057
21
-86.2999999999999972
0
LINE
8
BLACK
6
CONTINUOUS
10
134.4000000000000057
20
-86.2999999999999972
11
134.7999999999999829
21
-86.2999999999999972
0
LINE
8
BLACK
6
CONTINUOUS
10
134.7999999999999829
20
-86.2999999999999972
11
134.8765369999999848
21
-86.3152240000000006
0
LINE
8
BLACK
6
CONTINUOUS
10
136.7765369999999905
20
-86.3152240000000006
11
136.8414209999999969
21
-86.3585789999999918
0
LINE
8
BLACK
6
CONTINUOUS
10
136.8414209999999969
20
-86.3585789999999918
11
136.884775999999988
21
-86.4234629999999981
0
LINE
8
BLACK
6
CONTINUOUS
10
136.884775999999988
20
-86.4234629999999981
11
136.9000000000000057
21
-86.5
0
LINE
8
BLACK
6
CONTINUOUS
10
136.9000000000000057
20
-86.5
11
136.9000000000000057
21
-88.
0
LINE
8
BLACK
6
CONTINUOUS
10
136.9000000000000057
20
-88.
11
136.884775999999988
21
-88.0765370000000019
0
LINE
8
BLACK
6
CONTINUOUS
10
136.884775999999988
20
-88.0765370000000019
11
136.8414209999999969
21
-88.141420999999994
0
LINE
8
BLACK
6
CONTINUOUS
10
136.8414209999999969
20
-88.141420999999994
11
136.7765369999999905
21
-88.1847759999999994
0
LINE
8
BLACK
6
CONTINUOUS
10
136.7765369999999905
20
-88.1847759999999994
11
136.6999999999999886
21
-88.2000000000000028
0
LINE
8
BLACK
6
CONTINUOUS
10
136.6999999999999886
20
-88.2000000000000028
11
136.2999999999999829
21
-88.2000000000000028
0
LINE
8
BLACK
6
CONTINUOUS
10
136.2999999999999829
20
-88.2000000000000028
11
136.2234629999999811
21
-88.1847759999999994
0
LINE
8
BLACK
6
CONTINUOUS
10
136.2234629999999811
20
-88.1847759999999994
11
136.1585790000000031
21
-88.141420999999994
0
LINE
8
BLACK
6
CONTINUOUS
10
136.1585790000000031
20
-88.141420999999994
11
136.1152239999999836
21
-88.0765370000000019
0
LINE
8
BLACK
6
CONTINUOUS
10
136.1152239999999836
20
-88.0765370000000019
11
136.0999999999999943
21
-88.
0
LINE
8
BLACK
6
CONTINUOUS
10
136.0999999999999943
20
-88.
11
136.0999999999999943
21
-86.5
0
LINE
8
BLACK
6
CONTINUOUS
10
136.0999999999999943
20
-86.5
11
136.1152239999999836
21
-86.4234629999999981
0
LINE
8
BLACK
6
CONTINUOUS
10
136.1152239999999836
20
-86.4234629999999981
11
136.1585790000000031
21
-86.3585789999999918
0
LINE
8
BLACK
6
CONTINUOUS
10
136.1585790000000031
20
-86.3585789999999918
11
136.2234629999999811
21
-86.3152240000000006
0
LINE
8
BLACK
6
CONTINUOUS
10
136.2234629999999811
20
-86.3152240000000006
11
136.2999999999999829
21
-86.2999999999999972
0
LINE
8
BLACK
6
CONTINUOUS
10
136.2999999999999829
20
-86.2999999999999972
11
136.6999999999999886
21
-86.2999999999999972
0
LINE
8
BLACK
6
CONTINUOUS
10
136.6999999999999886
20
-86.2999999999999972
11
136.7765369999999905
21
-86.3152240000000006
0
LINE
8
BLACK
6
CONTINUOUS
10
138.8265370000000019
20
-86.0652240000000006
11
138.8914209999999798
21
-86.1085789999999918
0
LINE
8
BLACK
6
CONTINUOUS
10
138.8914209999999798
20
-86.1085789999999918
11
138.9347759999999994
21
-86.1734629999999981
0
LINE
8
BLACK
6
CONTINUOUS
10
138.9347759999999994
20
-86.1734629999999981
11
138.9499999999999886
21
-86.25
0
LINE
8
BLACK
6
CONTINUOUS
10
138.9499999999999886
20
-86.25
11
138.9499999999999886
21
-87.75
0
LINE
8
BLACK
6
CONTINUOUS
10
138.9499999999999886
20
-87.75
11
138.9347759999999994
21
-87.8265370000000019
0
LINE
8
BLACK
6
CONTINUOUS
10
138.9347759999999994
20
-87.8265370000000019
11
138.8914209999999798
21
-87.891420999999994
0
LINE
8
BLACK
6
CONTINUOUS
10
138.8914209999999798
20
-87.891420999999994
11
138.8265370000000019
21
-87.9347759999999994
0
LINE
8
BLACK
6
CONTINUOUS
10
138.8265370000000019
20
-87.9347759999999994
11
138.75
21
-87.9500000000000028
0
LINE
8
BLACK
6
CONTINUOUS
10
138.75
20
-87.9500000000000028
11
138.3499999999999943
21
-87.9500000000000028
0
LINE
8
BLACK
6
CONTINUOUS
10
138.3499999999999943
20
-87.9500000000000028
11
138.2734629999999925
21
-87.9347759999999994
0
LINE
8
BLACK
6
CONTINUOUS
10
138.2734629999999925
20
-87.9347759999999994
11
138.2085789999999861
21
-87.891420999999994
0
LINE
8
BLACK
6
CONTINUOUS
10
138.2085789999999861
20
-87.891420999999994
11
138.1652239999999949
21
-87.8265370000000019
0
LINE
8
BLACK
6
CONTINUOUS
10
138.1652239999999949
20
-87.8265370000000019
11
138.1500000000000057
21
-87.75
0
LINE
8
BLACK
6
CONTINUOUS
10
138.1500000000000057
20
-87.75
11
138.1500000000000057
21
-86.25
0
LINE
8
BLACK
6
CONTINUOUS
10
138.1500000000000057
20
-86.25
11
138.1652239999999949
21
-86.1734629999999981
0
LINE
8
BLACK
6
CONTINUOUS
10
138.1652239999999949
20
-86.1734629999999981
11
138.2085789999999861
21
-86.1085789999999918
0
LINE
8
BLACK
6
CONTINUOUS
10
138.2085789999999861
20
-86.1085789999999918
11
138.2734629999999925
21
-86.0652240000000006
0
LINE
8
BLACK
6
CONTINUOUS
10
138.2734629999999925
20
-86.0652240000000006
11
138.3499999999999943
21
-86.0499999999999972
0
LINE
8
BLACK
6
CONTINUOUS
10
138.3499999999999943
20
-86.0499999999999972
11
138.75
21
-86.0499999999999972
0
LINE
8
BLACK
6
CONTINUOUS
10
138.75
20
-86.0499999999999972
11
138.8265370000000019
21
-86.0652240000000006
0
LINE
8
BLACK
6
CONTINUOUS
10
140.7265370000000075
20
-86.0652240000000006
11
140.7914209999999855
21
-86.1085789999999918
0
LINE
8
BLACK
6
CONTINUOUS
10
140.7914209999999855
20
-86.1085789999999918
11
140.8347760000000051
21
-86.1734629999999981
0
LINE
8
BLACK
6
CONTINUOUS
10
140.8347760000000051
20
-86.1734629999999981
11
140.8499999999999943
21
-86.25
0
LINE
8
BLACK
6
CONTINUOUS
10
140.8499999999999943
20
-86.25
11
140.8499999999999943
21
-87.75
0
LINE
8
BLACK
6
CONTINUOUS
10
140.8499999999999943
20
-87.75
11
140.8347760000000051
21
-87.8265370000000019
0
LINE
8
BLACK
6
CONTINUOUS
10
140.8347760000000051
20
-87.8265370000000019
11
140.7914209999999855
21
-87.891420999999994
0
LINE
8
BLACK
6
CONTINUOUS
10
140.7914209999999855
20
-87.891420999999994
11
140.7265370000000075
21
-87.9347759999999994
0
LINE
8
BLACK
6
CONTINUOUS
10
140.7265370000000075
20
-87.9347759999999994
11
140.6500000000000057
21
-87.9500000000000028
0
LINE
8
BLACK
6
CONTINUOUS
10
140.6500000000000057
20
-87.9500000000000028
11
140.25
21
-87.9500000000000028
0
LINE
8
BLACK
6
CONTINUOUS
10
140.25
20
-87.9500000000000028
11
140.1734629999999981
21
-87.9347759999999994
0
LINE
8
BLACK
6
CONTINUOUS
10
140.1734629999999981
20
-87.9347759999999994
11
140.1085789999999918
21
-87.891420999999994
0
LINE
8
BLACK
6
CONTINUOUS
10
140.1085789999999918
20
-87.891420999999994
11
140.0652240000000006
21
-87.8265370000000019
0
LINE
8
BLACK
6
CONTINUOUS
10
140.0652240000000006
20
-87.8265370000000019
11
140.0499999999999829
21
-87.75
0
LINE
8
BLACK
6
CONTINUOUS
10
140.0499999999999829
20
-87.75
11
140.0499999999999829
21
-86.25
0
LINE
8
BLACK
6
CONTINUOUS
10
140.0499999999999829
20
-86.25
11
140.0652240000000006
21
-86.1734629999999981
0
LINE
8
BLACK
6
CONTINUOUS
10
140.0652240000000006
20
-86.1734629999999981
11
140.1085789999999918
21
-86.1085789999999918
0
LINE
8
BLACK
6
CONTINUOUS
10
140.1085789999999918
20
-86.1085789999999918
11
140.1734629999999981
21
-86.0652240000000006
0
LINE
8
BLACK
6
CONTINUOUS
10
140.1734629999999981
20
-86.0652240000000006
11
140.25
21
-86.0499999999999972
0
LINE
8
BLACK
6
CONTINUOUS
10
140.25
20
-86.0499999999999972
11
140.6500000000000057
21
-86.0499999999999972
0
LINE
8
BLACK
6
CONTINUOUS
10
140.6500000000000057
20
-86.0499999999999972
11
140.7265370000000075
21
-86.0652240000000006
0
LINE
8
BLACK
6
CONTINUOUS
10
143.3456709999999816
20
-86.2690300000000008
11
143.4267769999999871
21
-86.3232229999999987
0
LINE
8
BLACK
6
CONTINUOUS
10
143.4267769999999871
20
-86.3232229999999987
11
143.480969999999985
21
-86.4043289999999899
0
LINE
8
BLACK
6
CONTINUOUS
10
143.480969999999985
20
-86.4043289999999899
11
143.5
21
-86.5
0
LINE
8
BLACK
6
CONTINUOUS
10
143.5
20
-86.5
11
143.5
21
-87.0249999999999915
0
LINE
8
BLACK
6
CONTINUOUS
10
143.5
20
-87.0249999999999915
11
143.480969999999985
21
-87.1206710000000015
0
LINE
8
BLACK
6
CONTINUOUS
10
143.480969999999985
20
-87.1206710000000015
11
143.4267769999999871
21
-87.2017769999999928
0
LINE
8
BLACK
6
CONTINUOUS
10
143.4267769999999871
20
-87.2017769999999928
11
143.3456709999999816
21
-87.2559699999999907
0
LINE
8
BLACK
6
CONTINUOUS
10
143.3456709999999816
20
-87.2559699999999907
11
143.25
21
-87.2749999999999915
0
LINE
8
BLACK
6
CONTINUOUS
10
143.25
20
-87.2749999999999915
11
142.3499999999999943
21
-87.2749999999999915
0
LINE
8
BLACK
6
CONTINUOUS
10
142.3499999999999943
20
-87.2749999999999915
11
142.2543289999999843
21
-87.2559699999999907
0
LINE
8
BLACK
6
CONTINUOUS
10
142.2543289999999843
20
-87.2559699999999907
11
142.1732230000000072
21
-87.2017769999999928
0
LINE
8
BLACK
6
CONTINUOUS
10
142.1732230000000072
20
-87.2017769999999928
11
142.1190299999999809
21
-87.1206710000000015
0
LINE
8
BLACK
6
CONTINUOUS
10
142.1190299999999809
20
-87.1206710000000015
11
142.0999999999999943
21
-87.0249999999999915
0
LINE
8
BLACK
6
CONTINUOUS
10
142.0999999999999943
20
-87.0249999999999915
11
142.0999999999999943
21
-86.5
0
LINE
8
BLACK
6
CONTINUOUS
10
142.0999999999999943
20
-86.5
11
142.1190299999999809
21
-86.4043289999999899
0
LINE
8
BLACK
6
CONTINUOUS
10
142.1190299999999809
20
-86.4043289999999899
11
142.1732230000000072
21
-86.3232229999999987
0
LINE
8
BLACK
6
CONTINUOUS
10
142.1732230000000072
20
-86.3232229999999987
11
142.2543289999999843
21
-86.2690300000000008
0
LINE
8
BLACK
6
CONTINUOUS
10
142.2543289999999843
20
-86.2690300000000008
11
142.3499999999999943
21
-86.25
0
LINE
8
BLACK
6
CONTINUOUS
10
142.3499999999999943
20
-86.25
11
143.25
21
-86.25
0
LINE
8
BLACK
6
CONTINUOUS
10
143.25
20
-86.25
11
143.3456709999999816
21
-86.2690300000000008
0
LINE
8
BLACK
6
CONTINUOUS
10
149.4206709999999987
20
-85.6190299999999951
11
149.5017770000000041
21
-85.673222999999993
0
LINE
8
BLACK
6
CONTINUOUS
10
149.5017770000000041
20
-85.673222999999993
11
149.5559700000000021
21
-85.7543289999999985
0
LINE
8
BLACK
6
CONTINUOUS
10
149.5559700000000021
20
-85.7543289999999985
11
149.5749999999999886
21
-85.8499999999999943
0
LINE
8
BLACK
6
CONTINUOUS
10
149.5749999999999886
20
-85.8499999999999943
11
149.5749999999999886
21
-86.3499999999999943
0
LINE
8
BLACK
6
CONTINUOUS
10
149.5749999999999886
20
-86.3499999999999943
11
149.5559700000000021
21
-86.4456709999999902
0
LINE
8
BLACK
6
CONTINUOUS
10
149.5559700000000021
20
-86.4456709999999902
11
149.5017770000000041
21
-86.5267769999999956
0
LINE
8
BLACK
6
CONTINUOUS
10
149.5017770000000041
20
-86.5267769999999956
11
149.4206709999999987
21
-86.5809699999999935
0
LINE
8
BLACK
6
CONTINUOUS
10
149.4206709999999987
20
-86.5809699999999935
11
149.3249999999999886
21
-86.5999999999999943
0
LINE
8
BLACK
6
CONTINUOUS
10
149.3249999999999886
20
-86.5999999999999943
11
148.375
21
-86.5999999999999943
0
LINE
8
BLACK
6
CONTINUOUS
10
148.375
20
-86.5999999999999943
11
148.2793289999999899
21
-86.5809699999999935
0
LINE
8
BLACK
6
CONTINUOUS
10
148.2793289999999899
20
-86.5809699999999935
11
148.1982229999999845
21
-86.5267769999999956
0
LINE
8
BLACK
6
CONTINUOUS
10
148.1982229999999845
20
-86.5267769999999956
11
148.1440299999999866
21
-86.4456709999999902
0
LINE
8
BLACK
6
CONTINUOUS
10
148.1440299999999866
20
-86.4456709999999902
11
148.125
21
-86.3499999999999943
0
LINE
8
BLACK
6
CONTINUOUS
10
148.125
20
-86.3499999999999943
11
148.125
21
-85.8499999999999943
0
LINE
8
BLACK
6
CONTINUOUS
10
148.125
20
-85.8499999999999943
11
148.1440299999999866
21
-85.7543289999999985
0
LINE
8
BLACK
6
CONTINUOUS
10
148.1440299999999866
20
-85.7543289999999985
11
148.1982229999999845
21
-85.673222999999993
0
LINE
8
BLACK
6
CONTINUOUS
10
148.1982229999999845
20
-85.673222999999993
11
148.2793289999999899
21
-85.6190299999999951
0
LINE
8
BLACK
6
CONTINUOUS
10
148.2793289999999899
20
-85.6190299999999951
11
148.375
21
-85.5999999999999943
0
LINE
8
BLACK
6
CONTINUOUS
10
148.375
20
-85.5999999999999943
11
149.3249999999999886
21
-85.5999999999999943
0
LINE
8
BLACK
6
CONTINUOUS
10
149.3249999999999886
20
-85.5999999999999943
11
149.4206709999999987
21
-85.6190299999999951
0
LINE
8
BLACK
6
CONTINUOUS
10
143.3456709999999816
20
-84.4440299999999979
11
143.4267769999999871
21
-84.4982229999999959
0
LINE
8
BLACK
6
CONTINUOUS
10
143.4267769999999871
20
-84.4982229999999959
11
143.480969999999985
21
-84.5793290000000013
0
LINE
8
BLACK
6
CONTINUOUS
10
143.480969999999985
20
-84.5793290000000013
11
143.5
21
-84.6749999999999972
0
LINE
8
BLACK
6
CONTINUOUS
10
143.5
20
-84.6749999999999972
11
143.5
21
-85.2000000000000028
0
LINE
8
BLACK
6
CONTINUOUS
10
143.5
20
-85.2000000000000028
11
143.480969999999985
21
-85.2956709999999987
0
LINE
8
BLACK
6
CONTINUOUS
10
143.480969999999985
20
-85.2956709999999987
11
143.4267769999999871
21
-85.3767769999999899
0
LINE
8
BLACK
6
CONTINUOUS
10
143.4267769999999871
20
-85.3767769999999899
11
143.3456709999999816
21
-85.4309700000000021
0
LINE
8
BLACK
6
CONTINUOUS
10
143.3456709999999816
20
-85.4309700000000021
11
143.25
21
-85.4500000000000028
0
LINE
8
BLACK
6
CONTINUOUS
10
143.25
20
-85.4500000000000028
11
142.3499999999999943
21
-85.4500000000000028
0
LINE
8
BLACK
6
CONTINUOUS
10
142.3499999999999943
20
-85.4500000000000028
11
142.2543289999999843
21
-85.4309700000000021
0
LINE
8
BLACK
6
CONTINUOUS
10
142.2543289999999843
20
-85.4309700000000021
11
142.1732230000000072
21
-85.3767769999999899
0
LINE
8
BLACK
6
CONTINUOUS
10
142.1732230000000072
20
-85.3767769999999899
11
142.1190299999999809
21
-85.2956709999999987
0
LINE
8
BLACK
6
CONTINUOUS
10
142.1190299999999809
20
-85.2956709999999987
11
142.0999999999999943
21
-85.2000000000000028
0
LINE
8
BLACK
6
CONTINUOUS
10
142.0999999999999943
20
-85.2000000000000028
11
142.0999999999999943
21
-84.6749999999999972
0
LINE
8
BLACK
6
CONTINUOUS
10
142.0999999999999943
20
-84.6749999999999972
11
142.1190299999999809
21
-84.5793290000000013
0
LINE
8
BLACK
6
CONTINUOUS
10
142.1190299999999809
20
-84.5793290000000013
11
142.1732230000000072
21
-84.4982229999999959
0
LINE
8
BLACK
6
CONTINUOUS
10
142.1732230000000072
20
-84.4982229999999959
11
142.2543289999999843
21
-84.4440299999999979
0
LINE
8
BLACK
6
CONTINUOUS
10
142.2543289999999843
20
-84.4440299999999979
11
142.3499999999999943
21
-84.4249999999999972
0
LINE
8
BLACK
6
CONTINUOUS
10
142.3499999999999943
20
-84.4249999999999972
11
143.25
21
-84.4249999999999972
0
LINE
8
BLACK
6
CONTINUOUS
10
143.25
20
-84.4249999999999972
11
143.3456709999999816
21
-84.4440299999999979
0
LINE
8
BLACK
6
CONTINUOUS
10
135.8265370000000019
20
-83.3152240000000006
11
135.8914209999999798
21
-83.3585789999999918
0
LINE
8
BLACK
6
CONTINUOUS
10
135.8914209999999798
20
-83.3585789999999918
11
135.9347759999999994
21
-83.4234629999999981
0
LINE
8
BLACK
6
CONTINUOUS
10
135.9347759999999994
20
-83.4234629999999981
11
135.9499999999999886
21
-83.5
0
LINE
8
BLACK
6
CONTINUOUS
10
135.9499999999999886
20
-83.5
11
135.9499999999999886
21
-85.
0
LINE
8
BLACK
6
CONTINUOUS
10
135.9499999999999886
20
-85.
11
135.9347759999999994
21
-85.0765370000000019
0
LINE
8
BLACK
6
CONTINUOUS
10
135.9347759999999994
20
-85.0765370000000019
11
135.8914209999999798
21
-85.141420999999994
0
LINE
8
BLACK
6
CONTINUOUS
10
135.8914209999999798
20
-85.141420999999994
11
135.8265370000000019
21
-85.1847759999999994
0
LINE
8
BLACK
6
CONTINUOUS
10
135.8265370000000019
20
-85.1847759999999994
11
135.75
21
-85.2000000000000028
0
LINE
8
BLACK
6
CONTINUOUS
10
135.75
20
-85.2000000000000028
11
135.3499999999999943
21
-85.2000000000000028
0
LINE
8
BLACK
6
CONTINUOUS
10
135.3499999999999943
20
-85.2000000000000028
11
135.2734629999999925
21
-85.1847759999999994
0
LINE
8
BLACK
6
CONTINUOUS
10
135.2734629999999925
20
-85.1847759999999994
11
135.2085789999999861
21
-85.141420999999994
0
LINE
8
BLACK
6
CONTINUOUS
10
135.2085789999999861
20
-85.141420999999994
11
135.1652239999999949
21
-85.0765370000000019
0
LINE
8
BLACK
6
CONTINUOUS
10
135.1652239999999949
20
-85.0765370000000019
11
135.1500000000000057
21
-85.
0
LINE
8
BLACK
6
CONTINUOUS
10
135.1500000000000057
20
-85.
11
135.1500000000000057
21
-83.5
0
LINE
8
BLACK
6
CONTINUOUS
10
135.1500000000000057
20
-83.5
11
135.1652239999999949
21
-83.4234629999999981
0
LINE
8
BLACK
6
CONTINUOUS
10
135.1652239999999949
20
-83.4234629999999981
11
135.2085789999999861
21
-83.3585789999999918
0
LINE
8
BLACK
6
CONTINUOUS
10
135.2085789999999861
20
-83.3585789999999918
11
135.2734629999999925
21
-83.3152240000000006
0
LINE
8
BLACK
6
CONTINUOUS
10
135.2734629999999925
20
-83.3152240000000006
11
135.3499999999999943
21
-83.2999999999999972
0
LINE
8
BLACK
6
CONTINUOUS
10
135.3499999999999943
20
-83.2999999999999972
11
135.75
21
-83.2999999999999972
0
LINE
8
BLACK
6
CONTINUOUS
10
135.75
20
-83.2999999999999972
11
135.8265370000000019
21
-83.3152240000000006
0
LINE
8
BLACK
6
CONTINUOUS
10
139.7765369999999905
20
-83.0652240000000006
11
139.8414209999999969
21
-83.1085789999999918
0
LINE
8
BLACK
6
CONTINUOUS
10
139.8414209999999969
20
-83.1085789999999918
11
139.884775999999988
21
-83.1734629999999981
0
LINE
8
BLACK
6
CONTINUOUS
10
139.884775999999988
20
-83.1734629999999981
11
139.9000000000000057
21
-83.25
0
LINE
8
BLACK
6
CONTINUOUS
10
139.9000000000000057
20
-83.25
11
139.9000000000000057
21
-84.75
0
LINE
8
BLACK
6
CONTINUOUS
10
139.9000000000000057
20
-84.75
11
139.884775999999988
21
-84.8265370000000019
0
LINE
8
BLACK
6
CONTINUOUS
10
139.884775999999988
20
-84.8265370000000019
11
139.8414209999999969
21
-84.891420999999994
0
LINE
8
BLACK
6
CONTINUOUS
10
139.8414209999999969
20
-84.891420999999994
11
139.7765369999999905
21
-84.9347759999999994
0
LINE
8
BLACK
6
CONTINUOUS
10
139.7765369999999905
20
-84.9347759999999994
11
139.6999999999999886
21
-84.9500000000000028
0
LINE
8
BLACK
6
CONTINUOUS
10
139.6999999999999886
20
-84.9500000000000028
11
139.2999999999999829
21
-84.9500000000000028
0
LINE
8
BLACK
6
CONTINUOUS
10
139.2999999999999829
20
-84.9500000000000028
11
139.2234629999999811
21
-84.9347759999999994
0
LINE
8
BLACK
6
CONTINUOUS
10
139.2234629999999811
20
-84.9347759999999994
11
139.1585790000000031
21
-84.891420999999994
0
LINE
8
BLACK
6
CONTINUOUS
10
139.1585790000000031
20
-84.891420999999994
11
139.1152239999999836
21
-84.8265370000000019
0
LINE
8
BLACK
6
CONTINUOUS
10
139.1152239999999836
20
-84.8265370000000019
11
139.0999999999999943
21
-84.75
0
LINE
8
BLACK
6
CONTINUOUS
10
139.0999999999999943
20
-84.75
11
139.0999999999999943
21
-83.25
0
LINE
8
BLACK
6
CONTINUOUS
10
139.0999999999999943
20
-83.25
11
139.1152239999999836
21
-83.1734629999999981
0
LINE
8
BLACK
6
CONTINUOUS
10
139.1152239999999836
20
-83.1734629999999981
11
139.1585790000000031
21
-83.1085789999999918
0
LINE
8
BLACK
6
CONTINUOUS
10
139.1585790000000031
20
-83.1085789999999918
11
139.2234629999999811
21
-83.0652240000000006
0
LINE
8
BLACK
6
CONTINUOUS
10
139.2234629999999811
20
-83.0652240000000006
11
139.2999999999999829
21
-83.0499999999999972
0
LINE
8
BLACK
6
CONTINUOUS
10
139.2999999999999829
20
-83.0499999999999972
11
139.6999999999999886
21
-83.0499999999999972
0
LINE
8
BLACK
6
CONTINUOUS
10
139.6999999999999886
20
-83.0499999999999972
11
139.7765369999999905
21
-83.0652240000000006
0
LINE
8
BLACK
6
CONTINUOUS
10
149.4206709999999987
20
-83.7190299999999894
11
149.5017770000000041
21
-83.7732230000000015
0
LINE
8
BLACK
6
CONTINUOUS
10
149.5017770000000041
20
-83.7732230000000015
11
149.5559700000000021
21
-83.8543289999999928
0
LINE
8
BLACK
6
CONTINUOUS
10
149.5559700000000021
20
-83.8543289999999928
11
149.5749999999999886
21
-83.9500000000000028
0
LINE
8
BLACK
6
CONTINUOUS
10
149.5749999999999886
20
-83.9500000000000028
11
149.5749999999999886
21
-84.4500000000000028
0
LINE
8
BLACK
6
CONTINUOUS
10
149.5749999999999886
20
-84.4500000000000028
11
149.5559700000000021
21
-84.5456709999999987
0
LINE
8
BLACK
6
CONTINUOUS
10
149.5559700000000021
20
-84.5456709999999987
11
149.5017770000000041
21
-84.6267769999999899
0
LINE
8
BLACK
6
CONTINUOUS
10
149.5017770000000041
20
-84.6267769999999899
11
149.4206709999999987
21
-84.6809700000000021
0
LINE
8
BLACK
6
CONTINUOUS
10
149.4206709999999987
20
-84.6809700000000021
11
149.3249999999999886
21
-84.7000000000000028
0
LINE
8
BLACK
6
CONTINUOUS
10
149.3249999999999886
20
-84.7000000000000028
11
148.375
21
-84.7000000000000028
0
LINE
8
BLACK
6
CONTINUOUS
10
148.375
20
-84.7000000000000028
11
148.2793289999999899
21
-84.6809700000000021
0
LINE
8
BLACK
6
CONTINUOUS
10
148.2793289999999899
20
-84.6809700000000021
11
148.1982229999999845
21
-84.6267769999999899
0
LINE
8
BLACK
6
CONTINUOUS
10
148.1982229999999845
20
-84.6267769999999899
11
148.1440299999999866
21
-84.5456709999999987
0
LINE
8
BLACK
6
CONTINUOUS
10
148.1440299999999866
20
-84.5456709999999987
11
148.125
21
-84.4500000000000028
0
LINE
8
BLACK
6
CONTINUOUS
10
148.125
20
-84.4500000000000028
11
148.125
21
-83.9500000000000028
0
LINE
8
BLACK
6
CONTINUOUS
10
148.125
20
-83.9500000000000028
11
148.1440299999999866
21
-83.8543289999999928
0
LINE
8
BLACK
6
CONTINUOUS
10
148.1440299999999866
20
-83.8543289999999928
11
148.1982229999999845
21
-83.7732230000000015
0
LINE
8
BLACK
6
CONTINUOUS
10
148.1982229999999845
20
-83.7732230000000015
11
148.2793289999999899
21
-83.7190299999999894
0
LINE
8
BLACK
6
CONTINUOUS
10
148.2793289999999899
20
-83.7190299999999894
11
148.375
21
-83.7000000000000028
0
LINE
8
BLACK
6
CONTINUOUS
10
148.375
20
-83.7000000000000028
11
149.3249999999999886
21
-83.7000000000000028
0
LINE
8
BLACK
6
CONTINUOUS
10
149.3249999999999886
20
-83.7000000000000028
11
149.4206709999999987
21
-83.7190299999999894
0
LINE
8
BLACK
6
CONTINUOUS
10
146.4706709999999816
20
-82.1190299999999951
11
146.5517769999999871
21
-82.173222999999993
0
LINE
8
BLACK
6
CONTINUOUS
10
146.5517769999999871
20
-82.173222999999993
11
146.605969999999985
21
-82.2543289999999985
0
LINE
8
BLACK
6
CONTINUOUS
10
146.605969999999985
20
-82.2543289999999985
11
146.625
21
-82.3499999999999943
0
LINE
8
BLACK
6
CONTINUOUS
10
146.625
20
-82.3499999999999943
11
146.625
21
-82.8499999999999943
0
LINE
8
BLACK
6
CONTINUOUS
10
146.625
20
-82.8499999999999943
11
146.605969999999985
21
-82.9456709999999902
0
LINE
8
BLACK
6
CONTINUOUS
10
146.605969999999985
20
-82.9456709999999902
11
146.5517769999999871
21
-83.0267769999999956
0
LINE
8
BLACK
6
CONTINUOUS
10
146.5517769999999871
20
-83.0267769999999956
11
146.4706709999999816
21
-83.0809699999999935
0
LINE
8
BLACK
6
CONTINUOUS
10
146.4706709999999816
20
-83.0809699999999935
11
146.375
21
-83.0999999999999943
0
LINE
8
BLACK
6
CONTINUOUS
10
146.375
20
-83.0999999999999943
11
145.4249999999999829
21
-83.0999999999999943
0
LINE
8
BLACK
6
CONTINUOUS
10
145.4249999999999829
20
-83.0999999999999943
11
145.3293290000000013
21
-83.0809699999999935
0
LINE
8
BLACK
6
CONTINUOUS
10
145.3293290000000013
20
-83.0809699999999935
11
145.2482229999999959
21
-83.0267769999999956
0
LINE
8
BLACK
6
CONTINUOUS
10
145.2482229999999959
20
-83.0267769999999956
11
145.1940299999999979
21
-82.9456709999999902
0
LINE
8
BLACK
6
CONTINUOUS
10
145.1940299999999979
20
-82.9456709999999902
11
145.1749999999999829
21
-82.8499999999999943
0
LINE
8
BLACK
6
CONTINUOUS
10
145.1749999999999829
20
-82.8499999999999943
11
145.1749999999999829
21
-82.3499999999999943
0
LINE
8
BLACK
6
CONTINUOUS
10
145.1749999999999829
20
-82.3499999999999943
11
145.1940299999999979
21
-82.2543289999999985
0
LINE
8
BLACK
6
CONTINUOUS
10
145.1940299999999979
20
-82.2543289999999985
11
145.2482229999999959
21
-82.173222999999993
0
LINE
8
BLACK
6
CONTINUOUS
10
145.2482229999999959
20
-82.173222999999993
11
145.3293290000000013
21
-82.1190299999999951
0
LINE
8
BLACK
6
CONTINUOUS
10
145.3293290000000013
20
-82.1190299999999951
11
145.4249999999999829
21
-82.0999999999999943
0
LINE
8
BLACK
6
CONTINUOUS
10
145.4249999999999829
20
-82.0999999999999943
11
146.375
21
-82.0999999999999943
0
LINE
8
BLACK
6
CONTINUOUS
10
146.375
20
-82.0999999999999943
11
146.4706709999999816
21
-82.1190299999999951
0
LINE
8
BLACK
6
CONTINUOUS
10
149.395670999999993
20
-81.6190299999999951
11
149.4767769999999985
21
-81.673222999999993
0
LINE
8
BLACK
6
CONTINUOUS
10
149.4767769999999985
20
-81.673222999999993
11
149.5309699999999964
21
-81.7543289999999985
0
LINE
8
BLACK
6
CONTINUOUS
10
149.5309699999999964
20
-81.7543289999999985
11
149.5499999999999829
21
-81.8499999999999943
0
LINE
8
BLACK
6
CONTINUOUS
10
149.5499999999999829
20
-81.8499999999999943
11
149.5499999999999829
21
-82.375
0
LINE
8
BLACK
6
CONTINUOUS
10
149.5499999999999829
20
-82.375
11
149.5309699999999964
21
-82.4706709999999958
0
LINE
8
BLACK
6
CONTINUOUS
10
149.5309699999999964
20
-82.4706709999999958
11
149.4767769999999985
21
-82.5517770000000013
0
LINE
8
BLACK
6
CONTINUOUS
10
149.4767769999999985
20
-82.5517770000000013
11
149.395670999999993
21
-82.6059699999999992
0
LINE
8
BLACK
6
CONTINUOUS
10
149.395670999999993
20
-82.6059699999999992
11
149.2999999999999829
21
-82.625
0
LINE
8
BLACK
6
CONTINUOUS
10
149.2999999999999829
20
-82.625
11
148.4000000000000057
21
-82.625
0
LINE
8
BLACK
6
CONTINUOUS
10
148.4000000000000057
20
-82.625
11
148.3043289999999956
21
-82.6059699999999992
0
LINE
8
BLACK
6
CONTINUOUS
10
148.3043289999999956
20
-82.6059699999999992
11
148.2232229999999902
21
-82.5517770000000013
0
LINE
8
BLACK
6
CONTINUOUS
10
148.2232229999999902
20
-82.5517770000000013
11
148.1690299999999922
21
-82.4706709999999958
0
LINE
8
BLACK
6
CONTINUOUS
10
148.1690299999999922
20
-82.4706709999999958
11
148.1500000000000057
21
-82.375
0
LINE
8
BLACK
6
CONTINUOUS
10
148.1500000000000057
20
-82.375
11
148.1500000000000057
21
-81.8499999999999943
0
LINE
8
BLACK
6
CONTINUOUS
10
148.1500000000000057
20
-81.8499999999999943
11
148.1690299999999922
21
-81.7543289999999985
0
LINE
8
BLACK
6
CONTINUOUS
10
148.1690299999999922
20
-81.7543289999999985
11
148.2232229999999902
21
-81.673222999999993
0
LINE
8
BLACK
6
CONTINUOUS
10
148.2232229999999902
20
-81.673222999999993
11
148.3043289999999956
21
-81.6190299999999951
0
LINE
8
BLACK
6
CONTINUOUS
10
148.3043289999999956
20
-81.6190299999999951
11
148.4000000000000057
21
-81.5999999999999943
0
LINE
8
BLACK
6
CONTINUOUS
10
148.4000000000000057
20
-81.5999999999999943
11
149.2999999999999829
21
-81.5999999999999943
0
LINE
8
BLACK
6
CONTINUOUS
10
149.2999999999999829
20
-81.5999999999999943
11
149.395670999999993
21
-81.6190299999999951
0
LINE
8
BLACK
6
CONTINUOUS
10
142.9956709999999873
20
-81.5690299999999979
11
143.0767769999999928
21
-81.6232229999999959
0
LINE
8
BLACK
6
CONTINUOUS
10
143.0767769999999928
20
-81.6232229999999959
11
143.1309699999999907
21
-81.7043290000000013
0
LINE
8
BLACK
6
CONTINUOUS
10
143.1309699999999907
20
-81.7043290000000013
11
143.1500000000000057
21
-81.7999999999999972
0
LINE
8
BLACK
6
CONTINUOUS
10
143.1500000000000057
20
-81.7999999999999972
11
143.1500000000000057
21
-82.3250000000000028
0
LINE
8
BLACK
6
CONTINUOUS
10
143.1500000000000057
20
-82.3250000000000028
11
143.1309699999999907
21
-82.4206709999999987
0
LINE
8
BLACK
6
CONTINUOUS
10
143.1309699999999907
20
-82.4206709999999987
11
143.0767769999999928
21
-82.5017769999999899
0
LINE
8
BLACK
6
CONTINUOUS
10
143.0767769999999928
20
-82.5017769999999899
11
142.9956709999999873
21
-82.5559700000000021
0
LINE
8
BLACK
6
CONTINUOUS
10
142.9956709999999873
20
-82.5559700000000021
11
142.9000000000000057
21
-82.5750000000000028
0
LINE
8
BLACK
6
CONTINUOUS
10
142.9000000000000057
20
-82.5750000000000028
11
142.
21
-82.5750000000000028
0
LINE
8
BLACK
6
CONTINUOUS
10
142.
20
-82.5750000000000028
11
141.9043289999999899
21
-82.5559700000000021
0
LINE
8
BLACK
6
CONTINUOUS
10
141.9043289999999899
20
-82.5559700000000021
11
141.8232229999999845
21
-82.5017769999999899
0
LINE
8
BLACK
6
CONTINUOUS
10
141.8232229999999845
20
-82.5017769999999899
11
141.7690299999999866
21
-82.4206709999999987
0
LINE
8
BLACK
6
CONTINUOUS
10
141.7690299999999866
20
-82.4206709999999987
11
141.75
21
-82.3250000000000028
0
LINE
8
BLACK
6
CONTINUOUS
10
141.75
20
-82.3250000000000028
11
141.75
21
-81.7999999999999972
0
LINE
8
BLACK
6
CONTINUOUS
10
141.75
20
-81.7999999999999972
11
141.7690299999999866
21
-81.7043290000000013
0
LINE
8
BLACK
6
CONTINUOUS
10
141.7690299999999866
20
-81.7043290000000013
11
141.8232229999999845
21
-81.6232229999999959
0
LINE
8
BLACK
6
CONTINUOUS
10
141.8232229999999845
20
-81.6232229999999959
11
141.9043289999999899
21
-81.5690299999999979
0
LINE
8
BLACK
6
CONTINUOUS
10
141.9043289999999899
20
-81.5690299999999979
11
142.
21
-81.5499999999999972
0
LINE
8
BLACK
6
CONTINUOUS
10
142.
20
-81.5499999999999972
11
142.9000000000000057
21
-81.5499999999999972
0
LINE
8
BLACK
6
CONTINUOUS
10
142.9000000000000057
20
-81.5499999999999972
11
142.9956709999999873
21
-81.5690299999999979
0
LINE
8
BLACK
6
CONTINUOUS
10
135.2956709999999987
20
-81.3190299999999979
11
135.3767770000000041
21
-81.3732229999999959
0
LINE
8
BLACK
6
CONTINUOUS
10
135.3767770000000041
20
-81.3732229999999959
11
135.4309700000000021
21
-81.4543290000000013
0
LINE
8
BLACK
6
CONTINUOUS
10
135.4309700000000021
20
-81.4543290000000013
11
135.4499999999999886
21
-81.5499999999999972
0
LINE
8
BLACK
6
CONTINUOUS
10
135.4499999999999886
20
-81.5499999999999972
11
135.4499999999999886
21
-82.0750000000000028
0
LINE
8
BLACK
6
CONTINUOUS
10
135.4499999999999886
20
-82.0750000000000028
11
135.4309700000000021
21
-82.1706709999999987
0
LINE
8
BLACK
6
CONTINUOUS
10
135.4309700000000021
20
-82.1706709999999987
11
135.3767770000000041
21
-82.2517769999999899
0
LINE
8
BLACK
6
CONTINUOUS
10
135.3767770000000041
20
-82.2517769999999899
11
135.2956709999999987
21
-82.3059700000000021
0
LINE
8
BLACK
6
CONTINUOUS
10
135.2956709999999987
20
-82.3059700000000021
11
135.1999999999999886
21
-82.3250000000000028
0
LINE
8
BLACK
6
CONTINUOUS
10
135.1999999999999886
20
-82.3250000000000028
11
134.2999999999999829
21
-82.3250000000000028
0
LINE
8
BLACK
6
CONTINUOUS
10
134.2999999999999829
20
-82.3250000000000028
11
134.2043290000000013
21
-82.3059700000000021
0
LINE
8
BLACK
6
CONTINUOUS
10
134.2043290000000013
20
-82.3059700000000021
11
134.1232229999999959
21
-82.2517769999999899
0
LINE
8
BLACK
6
CONTINUOUS
10
134.1232229999999959
20
-82.2517769999999899
11
134.0690299999999979
21
-82.1706709999999987
0
LINE
8
BLACK
6
CONTINUOUS
10
134.0690299999999979
20
-82.1706709999999987
11
134.0499999999999829
21
-82.0750000000000028
0
LINE
8
BLACK
6
CONTINUOUS
10
134.0499999999999829
20
-82.0750000000000028
11
134.0499999999999829
21
-81.5499999999999972
0
LINE
8
BLACK
6
CONTINUOUS
10
134.0499999999999829
20
-81.5499999999999972
11
134.0690299999999979
21
-81.4543290000000013
0
LINE
8
BLACK
6
CONTINUOUS
10
134.0690299999999979
20
-81.4543290000000013
11
134.1232229999999959
21
-81.3732229999999959
0
LINE
8
BLACK
6
CONTINUOUS
10
134.1232229999999959
20
-81.3732229999999959
11
134.2043290000000013
21
-81.3190299999999979
0
LINE
8
BLACK
6
CONTINUOUS
10
134.2043290000000013
20
-81.3190299999999979
11
134.2999999999999829
21
-81.2999999999999972
0
LINE
8
BLACK
6
CONTINUOUS
10
134.2999999999999829
20
-81.2999999999999972
11
135.1999999999999886
21
-81.2999999999999972
0
LINE
8
BLACK
6
CONTINUOUS
10
135.1999999999999886
20
-81.2999999999999972
11
135.2956709999999987
21
-81.3190299999999979
0
LINE
8
BLACK
6
CONTINUOUS
10
138.6956710000000044
20
-81.1190299999999951
11
138.7767769999999814
21
-81.173222999999993
0
LINE
8
BLACK
6
CONTINUOUS
10
138.7767769999999814
20
-81.173222999999993
11
138.8309700000000078
21
-81.2543289999999985
0
LINE
8
BLACK
6
CONTINUOUS
10
138.8309700000000078
20
-81.2543289999999985
11
138.8499999999999943
21
-81.3499999999999943
0
LINE
8
BLACK
6
CONTINUOUS
10
138.8499999999999943
20
-81.3499999999999943
11
138.8499999999999943
21
-81.875
0
LINE
8
BLACK
6
CONTINUOUS
10
138.8499999999999943
20
-81.875
11
138.8309700000000078
21
-81.9706709999999958
0
LINE
8
BLACK
6
CONTINUOUS
10
138.8309700000000078
20
-81.9706709999999958
11
138.7767769999999814
21
-82.0517770000000013
0
LINE
8
BLACK
6
CONTINUOUS
10
138.7767769999999814
20
-82.0517770000000013
11
138.6956710000000044
21
-82.1059699999999992
0
LINE
8
BLACK
6
CONTINUOUS
10
138.6956710000000044
20
-82.1059699999999992
11
138.5999999999999943
21
-82.125
0
LINE
8
BLACK
6
CONTINUOUS
10
138.5999999999999943
20
-82.125
11
137.6999999999999886
21
-82.125
0
LINE
8
BLACK
6
CONTINUOUS
10
137.6999999999999886
20
-82.125
11
137.604329000000007
21
-82.1059699999999992
0
LINE
8
BLACK
6
CONTINUOUS
10
137.604329000000007
20
-82.1059699999999992
11
137.5232230000000015
21
-82.0517770000000013
0
LINE
8
BLACK
6
CONTINUOUS
10
137.5232230000000015
20
-82.0517770000000013
11
137.4690300000000036
21
-81.9706709999999958
0
LINE
8
BLACK
6
CONTINUOUS
10
137.4690300000000036
20
-81.9706709999999958
11
137.4499999999999886
21
-81.875
0
LINE
8
BLACK
6
CONTINUOUS
10
137.4499999999999886
20
-81.875
11
137.4499999999999886
21
-81.3499999999999943
0
LINE
8
BLACK
6
CONTINUOUS
10
137.4499999999999886
20
-81.3499999999999943
11
137.4690300000000036
21
-81.2543289999999985
0
LINE
8
BLACK
6
CONTINUOUS
10
137.4690300000000036
20
-81.2543289999999985
11
137.5232230000000015
21
-81.173222999999993
0
LINE
8
BLACK
6
CONTINUOUS
10
137.5232230000000015
20
-81.173222999999993
11
137.604329000000007
21
-81.1190299999999951
0
LINE
8
BLACK
6
CONTINUOUS
10
137.604329000000007
20
-81.1190299999999951
11
137.6999999999999886
21
-81.0999999999999943
0
LINE
8
BLACK
6
CONTINUOUS
10
137.6999999999999886
20
-81.0999999999999943
11
138.5999999999999943
21
-81.0999999999999943
0
LINE
8
BLACK
6
CONTINUOUS
10
138.5999999999999943
20
-81.0999999999999943
11
138.6956710000000044
21
-81.1190299999999951
0
LINE
8
BLACK
6
CONTINUOUS
10
146.4706709999999816
20
-80.2190299999999894
11
146.5517769999999871
21
-80.2732230000000015
0
LINE
8
BLACK
6
CONTINUOUS
10
146.5517769999999871
20
-80.2732230000000015
11
146.605969999999985
21
-80.3543289999999928
0
LINE
8
BLACK
6
CONTINUOUS
10
146.605969999999985
20
-80.3543289999999928
11
146.625
21
-80.4500000000000028
0
LINE
8
BLACK
6
CONTINUOUS
10
146.625
20
-80.4500000000000028
11
146.625
21
-80.9500000000000028
0
LINE
8
BLACK
6
CONTINUOUS
10
146.625
20
-80.9500000000000028
11
146.605969999999985
21
-81.0456709999999987
0
LINE
8
BLACK
6
CONTINUOUS
10
146.605969999999985
20
-81.0456709999999987
11
146.5517769999999871
21
-81.1267769999999899
0
LINE
8
BLACK
6
CONTINUOUS
10
146.5517769999999871
20
-81.1267769999999899
11
146.4706709999999816
21
-81.1809700000000021
0
LINE
8
BLACK
6
CONTINUOUS
10
146.4706709999999816
20
-81.1809700000000021
11
146.375
21
-81.2000000000000028
0
LINE
8
BLACK
6
CONTINUOUS
10
146.375
20
-81.2000000000000028
11
145.4249999999999829
21
-81.2000000000000028
0
LINE
8
BLACK
6
CONTINUOUS
10
145.4249999999999829
20
-81.2000000000000028
11
145.3293290000000013
21
-81.1809700000000021
0
LINE
8
BLACK
6
CONTINUOUS
10
145.3293290000000013
20
-81.1809700000000021
11
145.2482229999999959
21
-81.1267769999999899
0
LINE
8
BLACK
6
CONTINUOUS
10
145.2482229999999959
20
-81.1267769999999899
11
145.1940299999999979
21
-81.0456709999999987
0
LINE
8
BLACK
6
CONTINUOUS
10
145.1940299999999979
20
-81.0456709999999987
11
145.1749999999999829
21
-80.9500000000000028
0
LINE
8
BLACK
6
CONTINUOUS
10
145.1749999999999829
20
-80.9500000000000028
11
145.1749999999999829
21
-80.4500000000000028
0
LINE
8
BLACK
6
CONTINUOUS
10
145.1749999999999829
20
-80.4500000000000028
11
145.1940299999999979
21
-80.3543289999999928
0
LINE
8
BLACK
6
CONTINUOUS
10
145.1940299999999979
20
-80.3543289999999928
11
145.2482229999999959
21
-80.2732230000000015
0
LINE
8
BLACK
6
CONTINUOUS
10
145.2482229999999959
20
-80.2732230000000015
11
145.3293290000000013
21
-80.2190299999999894
0
LINE
8
BLACK
6
CONTINUOUS
10
145.3293290000000013
20
-80.2190299999999894
11
145.4249999999999829
21
-80.2000000000000028
0
LINE
8
BLACK
6
CONTINUOUS
10
145.4249999999999829
20
-80.2000000000000028
11
146.375
21
-80.2000000000000028
0
LINE
8
BLACK
6
CONTINUOUS
10
146.375
20
-80.2000000000000028
11
146.4706709999999816
21
-80.2190299999999894
0
LINE
8
BLACK
6
CONTINUOUS
10
149.395670999999993
20
-79.7940299999999922
11
149.4767769999999985
21
-79.8482229999999902
0
LINE
8
BLACK
6
CONTINUOUS
10
149.4767769999999985
20
-79.8482229999999902
11
149.5309699999999964
21
-79.9293289999999956
0
LINE
8
BLACK
6
CONTINUOUS
10
149.5309699999999964
20
-79.9293289999999956
11
149.5499999999999829
21
-80.0249999999999915
0
LINE
8
BLACK
6
CONTINUOUS
10
149.5499999999999829
20
-80.0249999999999915
11
149.5499999999999829
21
-80.5499999999999972
0
LINE
8
BLACK
6
CONTINUOUS
10
149.5499999999999829
20
-80.5499999999999972
11
149.5309699999999964
21
-80.645670999999993
0
LINE
8
BLACK
6
CONTINUOUS
10
149.5309699999999964
20
-80.645670999999993
11
149.4767769999999985
21
-80.7267769999999985
0
LINE
8
BLACK
6
CONTINUOUS
10
149.4767769999999985
20
-80.7267769999999985
11
149.395670999999993
21
-80.7809699999999964
0
LINE
8
BLACK
6
CONTINUOUS
10
149.395670999999993
20
-80.7809699999999964
11
149.2999999999999829
21
-80.7999999999999972
0
LINE
8
BLACK
6
CONTINUOUS
10
149.2999999999999829
20
-80.7999999999999972
11
148.4000000000000057
21
-80.7999999999999972
0
LINE
8
BLACK
6
CONTINUOUS
10
148.4000000000000057
20
-80.7999999999999972
11
148.3043289999999956
21
-80.7809699999999964
0
LINE
8
BLACK
6
CONTINUOUS
10
148.3043289999999956
20
-80.7809699999999964
11
148.2232229999999902
21
-80.7267769999999985
0
LINE
8
BLACK
6
CONTINUOUS
10
148.2232229999999902
20
-80.7267769999999985
11
148.1690299999999922
21
-80.645670999999993
0
LINE
8
BLACK
6
CONTINUOUS
10
148.1690299999999922
20
-80.645670999999993
11
148.1500000000000057
21
-80.5499999999999972
0
LINE
8
BLACK
6
CONTINUOUS
10
148.1500000000000057
20
-80.5499999999999972
11
148.1500000000000057
21
-80.0249999999999915
0
LINE
8
BLACK
6
CONTINUOUS
10
148.1500000000000057
20
-80.0249999999999915
11
148.1690299999999922
21
-79.9293289999999956
0
LINE
8
BLACK
6
CONTINUOUS
10
148.1690299999999922
20
-79.9293289999999956
11
148.2232229999999902
21
-79.8482229999999902
0
LINE
8
BLACK
6
CONTINUOUS
10
148.2232229999999902
20
-79.8482229999999902
11
148.3043289999999956
21
-79.7940299999999922
0
LINE
8
BLACK
6
CONTINUOUS
10
148.3043289999999956
20
-79.7940299999999922
11
148.4000000000000057
21
-79.7749999999999915
0
LINE
8
BLACK
6
CONTINUOUS
10
148.4000000000000057
20
-79.7749999999999915
11
149.2999999999999829
21
-79.7749999999999915
0
LINE
8
BLACK
6
CONTINUOUS
10
149.2999999999999829
20
-79.7749999999999915
11
149.395670999999993
21
-79.7940299999999922
0
LINE
8
BLACK
6
CONTINUOUS
10
142.9956709999999873
20
-79.7440299999999951
11
143.0767769999999928
21
-79.798222999999993
0
LINE
8
BLACK
6
CONTINUOUS
10
143.0767769999999928
20
-79.798222999999993
11
143.1309699999999907
21
-79.8793289999999985
0
LINE
8
BLACK
6
CONTINUOUS
10
143.1309699999999907
20
-79.8793289999999985
11
143.1500000000000057
21
-79.9749999999999943
0
LINE
8
BLACK
6
CONTINUOUS
10
143.1500000000000057
20
-79.9749999999999943
11
143.1500000000000057
21
-80.5
0
LINE
8
BLACK
6
CONTINUOUS
10
143.1500000000000057
20
-80.5
11
143.1309699999999907
21
-80.5956709999999958
0
LINE
8
BLACK
6
CONTINUOUS
10
143.1309699999999907
20
-80.5956709999999958
11
143.0767769999999928
21
-80.6767770000000013
0
LINE
8
BLACK
6
CONTINUOUS
10
143.0767769999999928
20
-80.6767770000000013
11
142.9956709999999873
21
-80.7309699999999992
0
LINE
8
BLACK
6
CONTINUOUS
10
142.9956709999999873
20
-80.7309699999999992
11
142.9000000000000057
21
-80.75
0
LINE
8
BLACK
6
CONTINUOUS
10
142.9000000000000057
20
-80.75
11
142.
21
-80.75
0
LINE
8
BLACK
6
CONTINUOUS
10
142.
20
-80.75
11
141.9043289999999899
21
-80.7309699999999992
0
LINE
8
BLACK
6
CONTINUOUS
10
141.9043289999999899
20
-80.7309699999999992
11
141.8232229999999845
21
-80.6767770000000013
0
LINE
8
BLACK
6
CONTINUOUS
10
141.8232229999999845
20
-80.6767770000000013
11
141.7690299999999866
21
-80.5956709999999958
0
LINE
8
BLACK
6
CONTINUOUS
10
141.7690299999999866
20
-80.5956709999999958
11
141.75
21
-80.5
0
LINE
8
BLACK
6
CONTINUOUS
10
141.75
20
-80.5
11
141.75
21
-79.9749999999999943
0
LINE
8
BLACK
6
CONTINUOUS
10
141.75
20
-79.9749999999999943
11
141.7690299999999866
21
-79.8793289999999985
0
LINE
8
BLACK
6
CONTINUOUS
10
141.7690299999999866
20
-79.8793289999999985
11
141.8232229999999845
21
-79.798222999999993
0
LINE
8
BLACK
6
CONTINUOUS
10
141.8232229999999845
20
-79.798222999999993
11
141.9043289999999899
21
-79.7440299999999951
0
LINE
8
BLACK
6
CONTINUOUS
10
141.9043289999999899
20
-79.7440299999999951
11
142.
21
-79.7249999999999943
0
LINE
8
BLACK
6
CONTINUOUS
10
142.
20
-79.7249999999999943
11
142.9000000000000057
21
-79.7249999999999943
0
LINE
8
BLACK
6
CONTINUOUS
10
142.9000000000000057
20
-79.7249999999999943
11
142.9956709999999873
21
-79.7440299999999951
0
LINE
8
BLACK
6
CONTINUOUS
10
135.2956709999999987
20
-79.4940299999999951
11
135.3767770000000041
21
-79.548222999999993
0
LINE
8
BLACK
6
CONTINUOUS
10
135.3767770000000041
20
-79.548222999999993
11
135.4309700000000021
21
-79.6293289999999985
0
LINE
8
BLACK
6
CONTINUOUS
10
135.4309700000000021
20
-79.6293289999999985
11
135.4499999999999886
21
-79.7249999999999943
0
LINE
8
BLACK
6
CONTINUOUS
10
135.4499999999999886
20
-79.7249999999999943
11
135.4499999999999886
21
-80.25
0
LINE
8
BLACK
6
CONTINUOUS
10
135.4499999999999886
20
-80.25
11
135.4309700000000021
21
-80.3456709999999958
0
LINE
8
BLACK
6
CONTINUOUS
10
135.4309700000000021
20
-80.3456709999999958
11
135.3767770000000041
21
-80.4267770000000013
0
LINE
8
BLACK
6
CONTINUOUS
10
135.3767770000000041
20
-80.4267770000000013
11
135.2956709999999987
21
-80.4809699999999992
0
LINE
8
BLACK
6
CONTINUOUS
10
135.2956709999999987
20
-80.4809699999999992
11
135.1999999999999886
21
-80.5
0
LINE
8
BLACK
6
CONTINUOUS
10
135.1999999999999886
20
-80.5
11
134.2999999999999829
21
-80.5
0
LINE
8
BLACK
6
CONTINUOUS
10
134.2999999999999829
20
-80.5
11
134.2043290000000013
21
-80.4809699999999992
0
LINE
8
BLACK
6
CONTINUOUS
10
134.2043290000000013
20
-80.4809699999999992
11
134.1232229999999959
21
-80.4267770000000013
0
LINE
8
BLACK
6
CONTINUOUS
10
134.1232229999999959
20
-80.4267770000000013
11
134.0690299999999979
21
-80.3456709999999958
0
LINE
8
BLACK
6
CONTINUOUS
10
134.0690299999999979
20
-80.3456709999999958
11
134.0499999999999829
21
-80.25
0
LINE
8
BLACK
6
CONTINUOUS
10
134.0499999999999829
20
-80.25
11
134.0499999999999829
21
-79.7249999999999943
0
LINE
8
BLACK
6
CONTINUOUS
10
134.0499999999999829
20
-79.7249999999999943
11
134.0690299999999979
21
-79.6293289999999985
0
LINE
8
BLACK
6
CONTINUOUS
10
134.0690299999999979
20
-79.6293289999999985
11
134.1232229999999959
21
-79.548222999999993
0
LINE
8
BLACK
6
CONTINUOUS
10
134.1232229999999959
20
-79.548222999999993
11
134.2043290000000013
21
-79.4940299999999951
0
LINE
8
BLACK
6
CONTINUOUS
10
134.2043290000000013
20
-79.4940299999999951
11
134.2999999999999829
21
-79.4749999999999943
0
LINE
8
BLACK
6
CONTINUOUS
10
134.2999999999999829
20
-79.4749999999999943
11
135.1999999999999886
21
-79.4749999999999943
0
LINE
8
BLACK
6
CONTINUOUS
10
135.1999999999999886
20
-79.4749999999999943
11
135.2956709999999987
21
-79.4940299999999951
0
LINE
8
BLACK
6
CONTINUOUS
10
138.6956710000000044
20
-79.2940299999999922
11
138.7767769999999814
21
-79.3482229999999902
0
LINE
8
BLACK
6
CONTINUOUS
10
138.7767769999999814
20
-79.3482229999999902
11
138.8309700000000078
21
-79.4293289999999956
0
LINE
8
BLACK
6
CONTINUOUS
10
138.8309700000000078
20
-79.4293289999999956
11
138.8499999999999943
21
-79.5249999999999915
0
LINE
8
BLACK
6
CONTINUOUS
10
138.8499999999999943
20
-79.5249999999999915
11
138.8499999999999943
21
-80.0499999999999972
0
LINE
8
BLACK
6
CONTINUOUS
10
138.8499999999999943
20
-80.0499999999999972
11
138.8309700000000078
21
-80.145670999999993
0
LINE
8
BLACK
6
CONTINUOUS
10
138.8309700000000078
20
-80.145670999999993
11
138.7767769999999814
21
-80.2267769999999985
0
LINE
8
BLACK
6
CONTINUOUS
10
138.7767769999999814
20
-80.2267769999999985
11
138.6956710000000044
21
-80.2809699999999964
0
LINE
8
BLACK
6
CONTINUOUS
10
138.6956710000000044
20
-80.2809699999999964
11
138.5999999999999943
21
-80.2999999999999972
0
LINE
8
BLACK
6
CONTINUOUS
10
138.5999999999999943
20
-80.2999999999999972
11
137.6999999999999886
21
-80.2999999999999972
0
LINE
8
BLACK
6
CONTINUOUS
10
137.6999999999999886
20
-80.2999999999999972
11
137.604329000000007
21
-80.2809699999999964
0
LINE
8
BLACK
6
CONTINUOUS
10
137.604329000000007
20
-80.2809699999999964
11
137.5232230000000015
21
-80.2267769999999985
0
LINE
8
BLACK
6
CONTINUOUS
10
137.5232230000000015
20
-80.2267769999999985
11
137.4690300000000036
21
-80.145670999999993
0
LINE
8
BLACK
6
CONTINUOUS
10
137.4690300000000036
20
-80.145670999999993
11
137.4499999999999886
21
-80.0499999999999972
0
LINE
8
BLACK
6
CONTINUOUS
10
137.4499999999999886
20
-80.0499999999999972
11
137.4499999999999886
21
-79.5249999999999915
0
LINE
8
BLACK
6
CONTINUOUS
10
137.4499999999999886
20
-79.5249999999999915
11
137.4690300000000036
21
-79.4293289999999956
0
LINE
8
BLACK
6
CONTINUOUS
10
137.4690300000000036
20
-79.4293289999999956
11
137.5232230000000015
21
-79.3482229999999902
0
LINE
8
BLACK
6
CONTINUOUS
10
137.5232230000000015
20
-79.3482229999999902
11
137.604329000000007
21
-79.2940299999999922
0
LINE
8
BLACK
6
CONTINUOUS
10
137.604329000000007
20
-79.2940299999999922
11
137.6999999999999886
21
-79.2749999999999915
0
LINE
8
BLACK
6
CONTINUOUS
10
137.6999999999999886
20
-79.2749999999999915
11
138.5999999999999943
21
-79.2749999999999915
0
LINE
8
BLACK
6
CONTINUOUS
10
138.5999999999999943
20
-79.2749999999999915
11
138.6956710000000044
21
-79.2940299999999922
  0
ENDSEC
  0
EOF
