  0
SECTION
  2
HEADER
  9
$ANGBASE
  50
0.0
  9
$ANGDIR
  70
1
  9
$MEASUREMENT
  70
1
  0
ENDSEC
  0
SECTION
  2
TABLES
  0
TABLE
  2
LTYPE
  70
4
  0
LTYPE
  5
40F
  2
CONTINUOUS
  70
0
  3
Solid line
  72
65
  73
0
  40
0.0
  0
LTYPE
  5
410
  2
DASHDOT
 70
0
  3
Dash Dot ____ _ ____ _
 72
65
 73
4
 40
2.0
 49
1.25
 49
-0.25
 49
0.25
 49
-0.25
  0
LTYPE
  5
411
  2
DASHED
 70
0
  3
Dashed __ __ __ __ __
 72
65
 73
2
 40
0.75
 49
0.5
 49
-0.25
  0
LTYPE
  5
43B
  2
DOTTED
 70
0
  3
Dotted .  .  .  .
 72
65
 73
2
 40
0.2
 49
0.0
 49
-0.2
  0
ENDTAB
  0
TABLE
  2
STYLE
  70
4
  0
STYLE
  2
KICAD
  70
0
  40
0
  41
1
  42
1
  50
0
  71
0
  3
isocp.shx
  0
STYLE
  2
KICADB
  70
0
  40
0
  41
1
  42
1
  50
0
  71
0
  3
isocp.shx
  0
STYLE
  2
KICADI
  70
0
  40
0
  41
1
  42
1
  50
15
  71
0
  3
isocp.shx
  0
STYLE
  2
KICADBI
  70
0
  40
0
  41
1
  42
1
  50
15
  71
0
  3
isocp.shx
  0
ENDTAB
  0
TABLE
  2
LAYER
  70
1
  0
LAYER
  2
BLACK
  70
0
  62
7
  6
CONTINUOUS
  0
ENDTAB
  0
ENDSEC
  0
SECTION
  2
ENTITIES
0
LINE
8
BLACK
6
CONTINUOUS
10
149.4956709999999873
20
-92.8190299999999979
11
149.5767769999999928
21
-92.8732229999999959
0
LINE
8
BLACK
6
CONTINUOUS
10
149.5767769999999928
20
-92.8732229999999959
11
149.6309699999999907
21
-92.9543290000000013
0
LINE
8
BLACK
6
CONTINUOUS
10
149.6309699999999907
20
-92.9543290000000013
11
149.6500000000000057
21
-93.0499999999999972
0
LINE
8
BLACK
6
CONTINUOUS
10
149.6500000000000057
20
-93.0499999999999972
11
149.6500000000000057
21
-93.75
0
LINE
8
BLACK
6
CONTINUOUS
10
149.6500000000000057
20
-93.75
11
149.6309699999999907
21
-93.8456709999999958
0
LINE
8
BLACK
6
CONTINUOUS
10
149.6309699999999907
20
-93.8456709999999958
11
149.5767769999999928
21
-93.9267770000000013
0
LINE
8
BLACK
6
CONTINUOUS
10
149.5767769999999928
20
-93.9267770000000013
11
149.4956709999999873
21
-93.9809699999999992
0
LINE
8
BLACK
6
CONTINUOUS
10
149.4956709999999873
20
-93.9809699999999992
11
149.4000000000000057
21
-94.
0
LINE
8
BLACK
6
CONTINUOUS
10
149.4000000000000057
20
-94.
11
148.5
21
-94.
0
LINE
8
BLACK
6
CONTINUOUS
10
148.5
20
-94.
11
148.4043289999999899
21
-93.9809699999999992
0
LINE
8
BLACK
6
CONTINUOUS
10
148.4043289999999899
20
-93.9809699999999992
11
148.3232229999999845
21
-93.9267770000000013
0
LINE
8
BLACK
6
CONTINUOUS
10
148.3232229999999845
20
-93.9267770000000013
11
148.2690299999999866
21
-93.8456709999999958
0
LINE
8
BLACK
6
CONTINUOUS
10
148.2690299999999866
20
-93.8456709999999958
11
148.25
21
-93.75
0
LINE
8
BLACK
6
CONTINUOUS
10
148.25
20
-93.75
11
148.25
21
-93.0499999999999972
0
LINE
8
BLACK
6
CONTINUOUS
10
148.25
20
-93.0499999999999972
11
148.2690299999999866
21
-92.9543290000000013
0
LINE
8
BLACK
6
CONTINUOUS
10
148.2690299999999866
20
-92.9543290000000013
11
148.3232229999999845
21
-92.8732229999999959
0
LINE
8
BLACK
6
CONTINUOUS
10
148.3232229999999845
20
-92.8732229999999959
11
148.4043289999999899
21
-92.8190299999999979
0
LINE
8
BLACK
6
CONTINUOUS
10
148.4043289999999899
20
-92.8190299999999979
11
148.5
21
-92.7999999999999972
0
LINE
8
BLACK
6
CONTINUOUS
10
148.5
20
-92.7999999999999972
11
149.4000000000000057
21
-92.7999999999999972
0
LINE
8
BLACK
6
CONTINUOUS
10
149.4000000000000057
20
-92.7999999999999972
11
149.4956709999999873
21
-92.8190299999999979
0
LINE
8
BLACK
6
CONTINUOUS
10
153.0456709999999987
20
-92.8190299999999979
11
153.1267770000000041
21
-92.8732229999999959
0
LINE
8
BLACK
6
CONTINUOUS
10
153.1267770000000041
20
-92.8732229999999959
11
153.1809700000000021
21
-92.9543290000000013
0
LINE
8
BLACK
6
CONTINUOUS
10
153.1809700000000021
20
-92.9543290000000013
11
153.1999999999999886
21
-93.0499999999999972
0
LINE
8
BLACK
6
CONTINUOUS
10
153.1999999999999886
20
-93.0499999999999972
11
153.1999999999999886
21
-93.75
0
LINE
8
BLACK
6
CONTINUOUS
10
153.1999999999999886
20
-93.75
11
153.1809700000000021
21
-93.8456709999999958
0
LINE
8
BLACK
6
CONTINUOUS
10
153.1809700000000021
20
-93.8456709999999958
11
153.1267770000000041
21
-93.9267770000000013
0
LINE
8
BLACK
6
CONTINUOUS
10
153.1267770000000041
20
-93.9267770000000013
11
153.0456709999999987
21
-93.9809699999999992
0
LINE
8
BLACK
6
CONTINUOUS
10
153.0456709999999987
20
-93.9809699999999992
11
152.9499999999999886
21
-94.
0
LINE
8
BLACK
6
CONTINUOUS
10
152.9499999999999886
20
-94.
11
152.0499999999999829
21
-94.
0
LINE
8
BLACK
6
CONTINUOUS
10
152.0499999999999829
20
-94.
11
151.9543290000000013
21
-93.9809699999999992
0
LINE
8
BLACK
6
CONTINUOUS
10
151.9543290000000013
20
-93.9809699999999992
11
151.8732229999999959
21
-93.9267770000000013
0
LINE
8
BLACK
6
CONTINUOUS
10
151.8732229999999959
20
-93.9267770000000013
11
151.8190299999999979
21
-93.8456709999999958
0
LINE
8
BLACK
6
CONTINUOUS
10
151.8190299999999979
20
-93.8456709999999958
11
151.7999999999999829
21
-93.75
0
LINE
8
BLACK
6
CONTINUOUS
10
151.7999999999999829
20
-93.75
11
151.7999999999999829
21
-93.0499999999999972
0
LINE
8
BLACK
6
CONTINUOUS
10
151.7999999999999829
20
-93.0499999999999972
11
151.8190299999999979
21
-92.9543290000000013
0
LINE
8
BLACK
6
CONTINUOUS
10
151.8190299999999979
20
-92.9543290000000013
11
151.8732229999999959
21
-92.8732229999999959
0
LINE
8
BLACK
6
CONTINUOUS
10
151.8732229999999959
20
-92.8732229999999959
11
151.9543290000000013
21
-92.8190299999999979
0
LINE
8
BLACK
6
CONTINUOUS
10
151.9543290000000013
20
-92.8190299999999979
11
152.0499999999999829
21
-92.7999999999999972
0
LINE
8
BLACK
6
CONTINUOUS
10
152.0499999999999829
20
-92.7999999999999972
11
152.9499999999999886
21
-92.7999999999999972
0
LINE
8
BLACK
6
CONTINUOUS
10
152.9499999999999886
20
-92.7999999999999972
11
153.0456709999999987
21
-92.8190299999999979
0
LINE
8
BLACK
6
CONTINUOUS
10
149.4956709999999873
20
-90.8190299999999979
11
149.5767769999999928
21
-90.8732229999999959
0
LINE
8
BLACK
6
CONTINUOUS
10
149.5767769999999928
20
-90.8732229999999959
11
149.6309699999999907
21
-90.9543290000000013
0
LINE
8
BLACK
6
CONTINUOUS
10
149.6309699999999907
20
-90.9543290000000013
11
149.6500000000000057
21
-91.0499999999999972
0
LINE
8
BLACK
6
CONTINUOUS
10
149.6500000000000057
20
-91.0499999999999972
11
149.6500000000000057
21
-91.75
0
LINE
8
BLACK
6
CONTINUOUS
10
149.6500000000000057
20
-91.75
11
149.6309699999999907
21
-91.8456709999999958
0
LINE
8
BLACK
6
CONTINUOUS
10
149.6309699999999907
20
-91.8456709999999958
11
149.5767769999999928
21
-91.9267770000000013
0
LINE
8
BLACK
6
CONTINUOUS
10
149.5767769999999928
20
-91.9267770000000013
11
149.4956709999999873
21
-91.9809699999999992
0
LINE
8
BLACK
6
CONTINUOUS
10
149.4956709999999873
20
-91.9809699999999992
11
149.4000000000000057
21
-92.
0
LINE
8
BLACK
6
CONTINUOUS
10
149.4000000000000057
20
-92.
11
148.5
21
-92.
0
LINE
8
BLACK
6
CONTINUOUS
10
148.5
20
-92.
11
148.4043289999999899
21
-91.9809699999999992
0
LINE
8
BLACK
6
CONTINUOUS
10
148.4043289999999899
20
-91.9809699999999992
11
148.3232229999999845
21
-91.9267770000000013
0
LINE
8
BLACK
6
CONTINUOUS
10
148.3232229999999845
20
-91.9267770000000013
11
148.2690299999999866
21
-91.8456709999999958
0
LINE
8
BLACK
6
CONTINUOUS
10
148.2690299999999866
20
-91.8456709999999958
11
148.25
21
-91.75
0
LINE
8
BLACK
6
CONTINUOUS
10
148.25
20
-91.75
11
148.25
21
-91.0499999999999972
0
LINE
8
BLACK
6
CONTINUOUS
10
148.25
20
-91.0499999999999972
11
148.2690299999999866
21
-90.9543290000000013
0
LINE
8
BLACK
6
CONTINUOUS
10
148.2690299999999866
20
-90.9543290000000013
11
148.3232229999999845
21
-90.8732229999999959
0
LINE
8
BLACK
6
CONTINUOUS
10
148.3232229999999845
20
-90.8732229999999959
11
148.4043289999999899
21
-90.8190299999999979
0
LINE
8
BLACK
6
CONTINUOUS
10
148.4043289999999899
20
-90.8190299999999979
11
148.5
21
-90.7999999999999972
0
LINE
8
BLACK
6
CONTINUOUS
10
148.5
20
-90.7999999999999972
11
149.4000000000000057
21
-90.7999999999999972
0
LINE
8
BLACK
6
CONTINUOUS
10
149.4000000000000057
20
-90.7999999999999972
11
149.4956709999999873
21
-90.8190299999999979
0
LINE
8
BLACK
6
CONTINUOUS
10
153.0456709999999987
20
-90.8190299999999979
11
153.1267770000000041
21
-90.8732229999999959
0
LINE
8
BLACK
6
CONTINUOUS
10
153.1267770000000041
20
-90.8732229999999959
11
153.1809700000000021
21
-90.9543290000000013
0
LINE
8
BLACK
6
CONTINUOUS
10
153.1809700000000021
20
-90.9543290000000013
11
153.1999999999999886
21
-91.0499999999999972
0
LINE
8
BLACK
6
CONTINUOUS
10
153.1999999999999886
20
-91.0499999999999972
11
153.1999999999999886
21
-91.75
0
LINE
8
BLACK
6
CONTINUOUS
10
153.1999999999999886
20
-91.75
11
153.1809700000000021
21
-91.8456709999999958
0
LINE
8
BLACK
6
CONTINUOUS
10
153.1809700000000021
20
-91.8456709999999958
11
153.1267770000000041
21
-91.9267770000000013
0
LINE
8
BLACK
6
CONTINUOUS
10
153.1267770000000041
20
-91.9267770000000013
11
153.0456709999999987
21
-91.9809699999999992
0
LINE
8
BLACK
6
CONTINUOUS
10
153.0456709999999987
20
-91.9809699999999992
11
152.9499999999999886
21
-92.
0
LINE
8
BLACK
6
CONTINUOUS
10
152.9499999999999886
20
-92.
11
152.0499999999999829
21
-92.
0
LINE
8
BLACK
6
CONTINUOUS
10
152.0499999999999829
20
-92.
11
151.9543290000000013
21
-91.9809699999999992
0
LINE
8
BLACK
6
CONTINUOUS
10
151.9543290000000013
20
-91.9809699999999992
11
151.8732229999999959
21
-91.9267770000000013
0
LINE
8
BLACK
6
CONTINUOUS
10
151.8732229999999959
20
-91.9267770000000013
11
151.8190299999999979
21
-91.8456709999999958
0
LINE
8
BLACK
6
CONTINUOUS
10
151.8190299999999979
20
-91.8456709999999958
11
151.7999999999999829
21
-91.75
0
LINE
8
BLACK
6
CONTINUOUS
10
151.7999999999999829
20
-91.75
11
151.7999999999999829
21
-91.0499999999999972
0
LINE
8
BLACK
6
CONTINUOUS
10
151.7999999999999829
20
-91.0499999999999972
11
151.8190299999999979
21
-90.9543290000000013
0
LINE
8
BLACK
6
CONTINUOUS
10
151.8190299999999979
20
-90.9543290000000013
11
151.8732229999999959
21
-90.8732229999999959
0
LINE
8
BLACK
6
CONTINUOUS
10
151.8732229999999959
20
-90.8732229999999959
11
151.9543290000000013
21
-90.8190299999999979
0
LINE
8
BLACK
6
CONTINUOUS
10
151.9543290000000013
20
-90.8190299999999979
11
152.0499999999999829
21
-90.7999999999999972
0
LINE
8
BLACK
6
CONTINUOUS
10
152.0499999999999829
20
-90.7999999999999972
11
152.9499999999999886
21
-90.7999999999999972
0
LINE
8
BLACK
6
CONTINUOUS
10
152.9499999999999886
20
-90.7999999999999972
11
153.0456709999999987
21
-90.8190299999999979
0
LINE
8
BLACK
6
CONTINUOUS
10
143.1956710000000044
20
-87.4315299999999951
11
143.2767769999999814
21
-87.485722999999993
0
LINE
8
BLACK
6
CONTINUOUS
10
143.2767769999999814
20
-87.485722999999993
11
143.3309699999999793
21
-87.5668289999999985
0
LINE
8
BLACK
6
CONTINUOUS
10
143.3309699999999793
20
-87.5668289999999985
11
143.3499999999999943
21
-87.6624999999999943
0
LINE
8
BLACK
6
CONTINUOUS
10
143.3499999999999943
20
-87.6624999999999943
11
143.3499999999999943
21
-88.3624999999999972
0
LINE
8
BLACK
6
CONTINUOUS
10
143.3499999999999943
20
-88.3624999999999972
11
143.3309699999999793
21
-88.458170999999993
0
LINE
8
BLACK
6
CONTINUOUS
10
143.3309699999999793
20
-88.458170999999993
11
143.2767769999999814
21
-88.5392769999999985
0
LINE
8
BLACK
6
CONTINUOUS
10
143.2767769999999814
20
-88.5392769999999985
11
143.1956710000000044
21
-88.5934699999999964
0
LINE
8
BLACK
6
CONTINUOUS
10
143.1956710000000044
20
-88.5934699999999964
11
143.0999999999999943
21
-88.6124999999999972
0
LINE
8
BLACK
6
CONTINUOUS
10
143.0999999999999943
20
-88.6124999999999972
11
142.1999999999999886
21
-88.6124999999999972
0
LINE
8
BLACK
6
CONTINUOUS
10
142.1999999999999886
20
-88.6124999999999972
11
142.104329000000007
21
-88.5934699999999964
0
LINE
8
BLACK
6
CONTINUOUS
10
142.104329000000007
20
-88.5934699999999964
11
142.0232230000000015
21
-88.5392769999999985
0
LINE
8
BLACK
6
CONTINUOUS
10
142.0232230000000015
20
-88.5392769999999985
11
141.9690300000000036
21
-88.458170999999993
0
LINE
8
BLACK
6
CONTINUOUS
10
141.9690300000000036
20
-88.458170999999993
11
141.9499999999999886
21
-88.3624999999999972
0
LINE
8
BLACK
6
CONTINUOUS
10
141.9499999999999886
20
-88.3624999999999972
11
141.9499999999999886
21
-87.6624999999999943
0
LINE
8
BLACK
6
CONTINUOUS
10
141.9499999999999886
20
-87.6624999999999943
11
141.9690300000000036
21
-87.5668289999999985
0
LINE
8
BLACK
6
CONTINUOUS
10
141.9690300000000036
20
-87.5668289999999985
11
142.0232230000000015
21
-87.485722999999993
0
LINE
8
BLACK
6
CONTINUOUS
10
142.0232230000000015
20
-87.485722999999993
11
142.104329000000007
21
-87.4315299999999951
0
LINE
8
BLACK
6
CONTINUOUS
10
142.104329000000007
20
-87.4315299999999951
11
142.1999999999999886
21
-87.4124999999999943
0
LINE
8
BLACK
6
CONTINUOUS
10
142.1999999999999886
20
-87.4124999999999943
11
143.0999999999999943
21
-87.4124999999999943
0
LINE
8
BLACK
6
CONTINUOUS
10
143.0999999999999943
20
-87.4124999999999943
11
143.1956710000000044
21
-87.4315299999999951
0
LINE
8
BLACK
6
CONTINUOUS
10
138.657402999999988
20
-87.0614179999999891
11
138.7060659999999928
21
-87.0939339999999902
0
LINE
8
BLACK
6
CONTINUOUS
10
138.7060659999999928
20
-87.0939339999999902
11
138.7385819999999796
21
-87.142596999999995
0
LINE
8
BLACK
6
CONTINUOUS
10
138.7385819999999796
20
-87.142596999999995
11
138.75
21
-87.2000000000000028
0
LINE
8
BLACK
6
CONTINUOUS
10
138.75
20
-87.2000000000000028
11
138.75
21
-88.375
0
LINE
8
BLACK
6
CONTINUOUS
10
138.75
20
-88.375
11
138.7385819999999796
21
-88.4324029999999937
0
LINE
8
BLACK
6
CONTINUOUS
10
138.7385819999999796
20
-88.4324029999999937
11
138.7060659999999928
21
-88.4810659999999984
0
LINE
8
BLACK
6
CONTINUOUS
10
138.7060659999999928
20
-88.4810659999999984
11
138.657402999999988
21
-88.5135819999999995
0
LINE
8
BLACK
6
CONTINUOUS
10
138.657402999999988
20
-88.5135819999999995
11
138.5999999999999943
21
-88.5249999999999915
0
LINE
8
BLACK
6
CONTINUOUS
10
138.5999999999999943
20
-88.5249999999999915
11
138.2999999999999829
21
-88.5249999999999915
0
LINE
8
BLACK
6
CONTINUOUS
10
138.2999999999999829
20
-88.5249999999999915
11
138.2425969999999893
21
-88.5135819999999995
0
LINE
8
BLACK
6
CONTINUOUS
10
138.2425969999999893
20
-88.5135819999999995
11
138.1939339999999845
21
-88.4810659999999984
0
LINE
8
BLACK
6
CONTINUOUS
10
138.1939339999999845
20
-88.4810659999999984
11
138.1614179999999976
21
-88.4324029999999937
0
LINE
8
BLACK
6
CONTINUOUS
10
138.1614179999999976
20
-88.4324029999999937
11
138.1500000000000057
21
-88.375
0
LINE
8
BLACK
6
CONTINUOUS
10
138.1500000000000057
20
-88.375
11
138.1500000000000057
21
-87.2000000000000028
0
LINE
8
BLACK
6
CONTINUOUS
10
138.1500000000000057
20
-87.2000000000000028
11
138.1614179999999976
21
-87.142596999999995
0
LINE
8
BLACK
6
CONTINUOUS
10
138.1614179999999976
20
-87.142596999999995
11
138.1939339999999845
21
-87.0939339999999902
0
LINE
8
BLACK
6
CONTINUOUS
10
138.1939339999999845
20
-87.0939339999999902
11
138.2425969999999893
21
-87.0614179999999891
0
LINE
8
BLACK
6
CONTINUOUS
10
138.2425969999999893
20
-87.0614179999999891
11
138.2999999999999829
21
-87.0499999999999972
0
LINE
8
BLACK
6
CONTINUOUS
10
138.2999999999999829
20
-87.0499999999999972
11
138.5999999999999943
21
-87.0499999999999972
0
LINE
8
BLACK
6
CONTINUOUS
10
138.5999999999999943
20
-87.0499999999999972
11
138.657402999999988
21
-87.0614179999999891
0
LINE
8
BLACK
6
CONTINUOUS
10
140.5574029999999937
20
-87.0614179999999891
11
140.6060659999999984
21
-87.0939339999999902
0
LINE
8
BLACK
6
CONTINUOUS
10
140.6060659999999984
20
-87.0939339999999902
11
140.6385819999999853
21
-87.142596999999995
0
LINE
8
BLACK
6
CONTINUOUS
10
140.6385819999999853
20
-87.142596999999995
11
140.6500000000000057
21
-87.2000000000000028
0
LINE
8
BLACK
6
CONTINUOUS
10
140.6500000000000057
20
-87.2000000000000028
11
140.6500000000000057
21
-88.375
0
LINE
8
BLACK
6
CONTINUOUS
10
140.6500000000000057
20
-88.375
11
140.6385819999999853
21
-88.4324029999999937
0
LINE
8
BLACK
6
CONTINUOUS
10
140.6385819999999853
20
-88.4324029999999937
11
140.6060659999999984
21
-88.4810659999999984
0
LINE
8
BLACK
6
CONTINUOUS
10
140.6060659999999984
20
-88.4810659999999984
11
140.5574029999999937
21
-88.5135819999999995
0
LINE
8
BLACK
6
CONTINUOUS
10
140.5574029999999937
20
-88.5135819999999995
11
140.5
21
-88.5249999999999915
0
LINE
8
BLACK
6
CONTINUOUS
10
140.5
20
-88.5249999999999915
11
140.1999999999999886
21
-88.5249999999999915
0
LINE
8
BLACK
6
CONTINUOUS
10
140.1999999999999886
20
-88.5249999999999915
11
140.142596999999995
21
-88.5135819999999995
0
LINE
8
BLACK
6
CONTINUOUS
10
140.142596999999995
20
-88.5135819999999995
11
140.0939339999999902
21
-88.4810659999999984
0
LINE
8
BLACK
6
CONTINUOUS
10
140.0939339999999902
20
-88.4810659999999984
11
140.0614180000000033
21
-88.4324029999999937
0
LINE
8
BLACK
6
CONTINUOUS
10
140.0614180000000033
20
-88.4324029999999937
11
140.0499999999999829
21
-88.375
0
LINE
8
BLACK
6
CONTINUOUS
10
140.0499999999999829
20
-88.375
11
140.0499999999999829
21
-87.2000000000000028
0
LINE
8
BLACK
6
CONTINUOUS
10
140.0499999999999829
20
-87.2000000000000028
11
140.0614180000000033
21
-87.142596999999995
0
LINE
8
BLACK
6
CONTINUOUS
10
140.0614180000000033
20
-87.142596999999995
11
140.0939339999999902
21
-87.0939339999999902
0
LINE
8
BLACK
6
CONTINUOUS
10
140.0939339999999902
20
-87.0939339999999902
11
140.142596999999995
21
-87.0614179999999891
0
LINE
8
BLACK
6
CONTINUOUS
10
140.142596999999995
20
-87.0614179999999891
11
140.1999999999999886
21
-87.0499999999999972
0
LINE
8
BLACK
6
CONTINUOUS
10
140.1999999999999886
20
-87.0499999999999972
11
140.5
21
-87.0499999999999972
0
LINE
8
BLACK
6
CONTINUOUS
10
140.5
20
-87.0499999999999972
11
140.5574029999999937
21
-87.0614179999999891
0
LINE
8
BLACK
6
CONTINUOUS
10
134.8074029999999937
20
-87.0114179999999919
11
134.8560659999999984
21
-87.043933999999993
0
LINE
8
BLACK
6
CONTINUOUS
10
134.8560659999999984
20
-87.043933999999993
11
134.8885819999999853
21
-87.0925969999999978
0
LINE
8
BLACK
6
CONTINUOUS
10
134.8885819999999853
20
-87.0925969999999978
11
134.9000000000000057
21
-87.1499999999999915
0
LINE
8
BLACK
6
CONTINUOUS
10
134.9000000000000057
20
-87.1499999999999915
11
134.9000000000000057
21
-88.3250000000000028
0
LINE
8
BLACK
6
CONTINUOUS
10
134.9000000000000057
20
-88.3250000000000028
11
134.8885819999999853
21
-88.3824029999999965
0
LINE
8
BLACK
6
CONTINUOUS
10
134.8885819999999853
20
-88.3824029999999965
11
134.8560659999999984
21
-88.4310660000000013
0
LINE
8
BLACK
6
CONTINUOUS
10
134.8560659999999984
20
-88.4310660000000013
11
134.8074029999999937
21
-88.4635820000000024
0
LINE
8
BLACK
6
CONTINUOUS
10
134.8074029999999937
20
-88.4635820000000024
11
134.75
21
-88.4749999999999943
0
LINE
8
BLACK
6
CONTINUOUS
10
134.75
20
-88.4749999999999943
11
134.4499999999999886
21
-88.4749999999999943
0
LINE
8
BLACK
6
CONTINUOUS
10
134.4499999999999886
20
-88.4749999999999943
11
134.392596999999995
21
-88.4635820000000024
0
LINE
8
BLACK
6
CONTINUOUS
10
134.392596999999995
20
-88.4635820000000024
11
134.3439339999999902
21
-88.4310660000000013
0
LINE
8
BLACK
6
CONTINUOUS
10
134.3439339999999902
20
-88.4310660000000013
11
134.3114180000000033
21
-88.3824029999999965
0
LINE
8
BLACK
6
CONTINUOUS
10
134.3114180000000033
20
-88.3824029999999965
11
134.2999999999999829
21
-88.3250000000000028
0
LINE
8
BLACK
6
CONTINUOUS
10
134.2999999999999829
20
-88.3250000000000028
11
134.2999999999999829
21
-87.1499999999999915
0
LINE
8
BLACK
6
CONTINUOUS
10
134.2999999999999829
20
-87.1499999999999915
11
134.3114180000000033
21
-87.0925969999999978
0
LINE
8
BLACK
6
CONTINUOUS
10
134.3114180000000033
20
-87.0925969999999978
11
134.3439339999999902
21
-87.043933999999993
0
LINE
8
BLACK
6
CONTINUOUS
10
134.3439339999999902
20
-87.043933999999993
11
134.392596999999995
21
-87.0114179999999919
0
LINE
8
BLACK
6
CONTINUOUS
10
134.392596999999995
20
-87.0114179999999919
11
134.4499999999999886
21
-87.
0
LINE
8
BLACK
6
CONTINUOUS
10
134.4499999999999886
20
-87.
11
134.75
21
-87.
0
LINE
8
BLACK
6
CONTINUOUS
10
134.75
20
-87.
11
134.8074029999999937
21
-87.0114179999999919
0
LINE
8
BLACK
6
CONTINUOUS
10
136.7074029999999993
20
-87.0114179999999919
11
136.7560660000000041
21
-87.043933999999993
0
LINE
8
BLACK
6
CONTINUOUS
10
136.7560660000000041
20
-87.043933999999993
11
136.788581999999991
21
-87.0925969999999978
0
LINE
8
BLACK
6
CONTINUOUS
10
136.788581999999991
20
-87.0925969999999978
11
136.7999999999999829
21
-87.1499999999999915
0
LINE
8
BLACK
6
CONTINUOUS
10
136.7999999999999829
20
-87.1499999999999915
11
136.7999999999999829
21
-88.3250000000000028
0
LINE
8
BLACK
6
CONTINUOUS
10
136.7999999999999829
20
-88.3250000000000028
11
136.788581999999991
21
-88.3824029999999965
0
LINE
8
BLACK
6
CONTINUOUS
10
136.788581999999991
20
-88.3824029999999965
11
136.7560660000000041
21
-88.4310660000000013
0
LINE
8
BLACK
6
CONTINUOUS
10
136.7560660000000041
20
-88.4310660000000013
11
136.7074029999999993
21
-88.4635820000000024
0
LINE
8
BLACK
6
CONTINUOUS
10
136.7074029999999993
20
-88.4635820000000024
11
136.6500000000000057
21
-88.4749999999999943
0
LINE
8
BLACK
6
CONTINUOUS
10
136.6500000000000057
20
-88.4749999999999943
11
136.3499999999999943
21
-88.4749999999999943
0
LINE
8
BLACK
6
CONTINUOUS
10
136.3499999999999943
20
-88.4749999999999943
11
136.2925970000000007
21
-88.4635820000000024
0
LINE
8
BLACK
6
CONTINUOUS
10
136.2925970000000007
20
-88.4635820000000024
11
136.2439339999999959
21
-88.4310660000000013
0
LINE
8
BLACK
6
CONTINUOUS
10
136.2439339999999959
20
-88.4310660000000013
11
136.2114179999999806
21
-88.3824029999999965
0
LINE
8
BLACK
6
CONTINUOUS
10
136.2114179999999806
20
-88.3824029999999965
11
136.1999999999999886
21
-88.3250000000000028
0
LINE
8
BLACK
6
CONTINUOUS
10
136.1999999999999886
20
-88.3250000000000028
11
136.1999999999999886
21
-87.1499999999999915
0
LINE
8
BLACK
6
CONTINUOUS
10
136.1999999999999886
20
-87.1499999999999915
11
136.2114179999999806
21
-87.0925969999999978
0
LINE
8
BLACK
6
CONTINUOUS
10
136.2114179999999806
20
-87.0925969999999978
11
136.2439339999999959
21
-87.043933999999993
0
LINE
8
BLACK
6
CONTINUOUS
10
136.2439339999999959
20
-87.043933999999993
11
136.2925970000000007
21
-87.0114179999999919
0
LINE
8
BLACK
6
CONTINUOUS
10
136.2925970000000007
20
-87.0114179999999919
11
136.3499999999999943
21
-87.
0
LINE
8
BLACK
6
CONTINUOUS
10
136.3499999999999943
20
-87.
11
136.6500000000000057
21
-87.
0
LINE
8
BLACK
6
CONTINUOUS
10
136.6500000000000057
20
-87.
11
136.7074029999999993
21
-87.0114179999999919
0
LINE
8
BLACK
6
CONTINUOUS
10
149.4206709999999987
20
-86.8690299999999951
11
149.5017770000000041
21
-86.923222999999993
0
LINE
8
BLACK
6
CONTINUOUS
10
149.5017770000000041
20
-86.923222999999993
11
149.5559700000000021
21
-87.0043289999999985
0
LINE
8
BLACK
6
CONTINUOUS
10
149.5559700000000021
20
-87.0043289999999985
11
149.5749999999999886
21
-87.0999999999999943
0
LINE
8
BLACK
6
CONTINUOUS
10
149.5749999999999886
20
-87.0999999999999943
11
149.5749999999999886
21
-87.7749999999999915
0
LINE
8
BLACK
6
CONTINUOUS
10
149.5749999999999886
20
-87.7749999999999915
11
149.5559700000000021
21
-87.8706710000000015
0
LINE
8
BLACK
6
CONTINUOUS
10
149.5559700000000021
20
-87.8706710000000015
11
149.5017770000000041
21
-87.9517769999999928
0
LINE
8
BLACK
6
CONTINUOUS
10
149.5017770000000041
20
-87.9517769999999928
11
149.4206709999999987
21
-88.0059699999999907
0
LINE
8
BLACK
6
CONTINUOUS
10
149.4206709999999987
20
-88.0059699999999907
11
149.3249999999999886
21
-88.0249999999999915
0
LINE
8
BLACK
6
CONTINUOUS
10
149.3249999999999886
20
-88.0249999999999915
11
148.375
21
-88.0249999999999915
0
LINE
8
BLACK
6
CONTINUOUS
10
148.375
20
-88.0249999999999915
11
148.2793289999999899
21
-88.0059699999999907
0
LINE
8
BLACK
6
CONTINUOUS
10
148.2793289999999899
20
-88.0059699999999907
11
148.1982229999999845
21
-87.9517769999999928
0
LINE
8
BLACK
6
CONTINUOUS
10
148.1982229999999845
20
-87.9517769999999928
11
148.1440299999999866
21
-87.8706710000000015
0
LINE
8
BLACK
6
CONTINUOUS
10
148.1440299999999866
20
-87.8706710000000015
11
148.125
21
-87.7749999999999915
0
LINE
8
BLACK
6
CONTINUOUS
10
148.125
20
-87.7749999999999915
11
148.125
21
-87.0999999999999943
0
LINE
8
BLACK
6
CONTINUOUS
10
148.125
20
-87.0999999999999943
11
148.1440299999999866
21
-87.0043289999999985
0
LINE
8
BLACK
6
CONTINUOUS
10
148.1440299999999866
20
-87.0043289999999985
11
148.1982229999999845
21
-86.923222999999993
0
LINE
8
BLACK
6
CONTINUOUS
10
148.1982229999999845
20
-86.923222999999993
11
148.2793289999999899
21
-86.8690299999999951
0
LINE
8
BLACK
6
CONTINUOUS
10
148.2793289999999899
20
-86.8690299999999951
11
148.375
21
-86.8499999999999943
0
LINE
8
BLACK
6
CONTINUOUS
10
148.375
20
-86.8499999999999943
11
149.3249999999999886
21
-86.8499999999999943
0
LINE
8
BLACK
6
CONTINUOUS
10
149.3249999999999886
20
-86.8499999999999943
11
149.4206709999999987
21
-86.8690299999999951
0
LINE
8
BLACK
6
CONTINUOUS
10
139.607403000000005
20
-85.1864179999999891
11
139.6560659999999814
21
-85.2189339999999902
0
LINE
8
BLACK
6
CONTINUOUS
10
139.6560659999999814
20
-85.2189339999999902
11
139.6885819999999967
21
-85.267596999999995
0
LINE
8
BLACK
6
CONTINUOUS
10
139.6885819999999967
20
-85.267596999999995
11
139.6999999999999886
21
-85.3250000000000028
0
LINE
8
BLACK
6
CONTINUOUS
10
139.6999999999999886
20
-85.3250000000000028
11
139.6999999999999886
21
-86.5
0
LINE
8
BLACK
6
CONTINUOUS
10
139.6999999999999886
20
-86.5
11
139.6885819999999967
21
-86.5574029999999937
0
LINE
8
BLACK
6
CONTINUOUS
10
139.6885819999999967
20
-86.5574029999999937
11
139.6560659999999814
21
-86.6060659999999984
0
LINE
8
BLACK
6
CONTINUOUS
10
139.6560659999999814
20
-86.6060659999999984
11
139.607403000000005
21
-86.6385819999999995
0
LINE
8
BLACK
6
CONTINUOUS
10
139.607403000000005
20
-86.6385819999999995
11
139.5499999999999829
21
-86.6499999999999915
0
LINE
8
BLACK
6
CONTINUOUS
10
139.5499999999999829
20
-86.6499999999999915
11
139.25
21
-86.6499999999999915
0
LINE
8
BLACK
6
CONTINUOUS
10
139.25
20
-86.6499999999999915
11
139.1925970000000063
21
-86.6385819999999995
0
LINE
8
BLACK
6
CONTINUOUS
10
139.1925970000000063
20
-86.6385819999999995
11
139.1439340000000016
21
-86.6060659999999984
0
LINE
8
BLACK
6
CONTINUOUS
10
139.1439340000000016
20
-86.6060659999999984
11
139.1114179999999863
21
-86.5574029999999937
0
LINE
8
BLACK
6
CONTINUOUS
10
139.1114179999999863
20
-86.5574029999999937
11
139.0999999999999943
21
-86.5
0
LINE
8
BLACK
6
CONTINUOUS
10
139.0999999999999943
20
-86.5
11
139.0999999999999943
21
-85.3250000000000028
0
LINE
8
BLACK
6
CONTINUOUS
10
139.0999999999999943
20
-85.3250000000000028
11
139.1114179999999863
21
-85.267596999999995
0
LINE
8
BLACK
6
CONTINUOUS
10
139.1114179999999863
20
-85.267596999999995
11
139.1439340000000016
21
-85.2189339999999902
0
LINE
8
BLACK
6
CONTINUOUS
10
139.1439340000000016
20
-85.2189339999999902
11
139.1925970000000063
21
-85.1864179999999891
0
LINE
8
BLACK
6
CONTINUOUS
10
139.1925970000000063
20
-85.1864179999999891
11
139.25
21
-85.1749999999999972
0
LINE
8
BLACK
6
CONTINUOUS
10
139.25
20
-85.1749999999999972
11
139.5499999999999829
21
-85.1749999999999972
0
LINE
8
BLACK
6
CONTINUOUS
10
139.5499999999999829
20
-85.1749999999999972
11
139.607403000000005
21
-85.1864179999999891
0
LINE
8
BLACK
6
CONTINUOUS
10
143.1956710000000044
20
-85.4315299999999951
11
143.2767769999999814
21
-85.485722999999993
0
LINE
8
BLACK
6
CONTINUOUS
10
143.2767769999999814
20
-85.485722999999993
11
143.3309699999999793
21
-85.5668289999999985
0
LINE
8
BLACK
6
CONTINUOUS
10
143.3309699999999793
20
-85.5668289999999985
11
143.3499999999999943
21
-85.6624999999999943
0
LINE
8
BLACK
6
CONTINUOUS
10
143.3499999999999943
20
-85.6624999999999943
11
143.3499999999999943
21
-86.3624999999999972
0
LINE
8
BLACK
6
CONTINUOUS
10
143.3499999999999943
20
-86.3624999999999972
11
143.3309699999999793
21
-86.458170999999993
0
LINE
8
BLACK
6
CONTINUOUS
10
143.3309699999999793
20
-86.458170999999993
11
143.2767769999999814
21
-86.5392769999999985
0
LINE
8
BLACK
6
CONTINUOUS
10
143.2767769999999814
20
-86.5392769999999985
11
143.1956710000000044
21
-86.5934699999999964
0
LINE
8
BLACK
6
CONTINUOUS
10
143.1956710000000044
20
-86.5934699999999964
11
143.0999999999999943
21
-86.6124999999999972
0
LINE
8
BLACK
6
CONTINUOUS
10
143.0999999999999943
20
-86.6124999999999972
11
142.1999999999999886
21
-86.6124999999999972
0
LINE
8
BLACK
6
CONTINUOUS
10
142.1999999999999886
20
-86.6124999999999972
11
142.104329000000007
21
-86.5934699999999964
0
LINE
8
BLACK
6
CONTINUOUS
10
142.104329000000007
20
-86.5934699999999964
11
142.0232230000000015
21
-86.5392769999999985
0
LINE
8
BLACK
6
CONTINUOUS
10
142.0232230000000015
20
-86.5392769999999985
11
141.9690300000000036
21
-86.458170999999993
0
LINE
8
BLACK
6
CONTINUOUS
10
141.9690300000000036
20
-86.458170999999993
11
141.9499999999999886
21
-86.3624999999999972
0
LINE
8
BLACK
6
CONTINUOUS
10
141.9499999999999886
20
-86.3624999999999972
11
141.9499999999999886
21
-85.6624999999999943
0
LINE
8
BLACK
6
CONTINUOUS
10
141.9499999999999886
20
-85.6624999999999943
11
141.9690300000000036
21
-85.5668289999999985
0
LINE
8
BLACK
6
CONTINUOUS
10
141.9690300000000036
20
-85.5668289999999985
11
142.0232230000000015
21
-85.485722999999993
0
LINE
8
BLACK
6
CONTINUOUS
10
142.0232230000000015
20
-85.485722999999993
11
142.104329000000007
21
-85.4315299999999951
0
LINE
8
BLACK
6
CONTINUOUS
10
142.104329000000007
20
-85.4315299999999951
11
142.1999999999999886
21
-85.4124999999999943
0
LINE
8
BLACK
6
CONTINUOUS
10
142.1999999999999886
20
-85.4124999999999943
11
143.0999999999999943
21
-85.4124999999999943
0
LINE
8
BLACK
6
CONTINUOUS
10
143.0999999999999943
20
-85.4124999999999943
11
143.1956710000000044
21
-85.4315299999999951
0
LINE
8
BLACK
6
CONTINUOUS
10
135.7574029999999823
20
-85.1364179999999919
11
135.8060659999999871
21
-85.168933999999993
0
LINE
8
BLACK
6
CONTINUOUS
10
135.8060659999999871
20
-85.168933999999993
11
135.8385820000000024
21
-85.2175969999999978
0
LINE
8
BLACK
6
CONTINUOUS
10
135.8385820000000024
20
-85.2175969999999978
11
135.8499999999999943
21
-85.2749999999999915
0
LINE
8
BLACK
6
CONTINUOUS
10
135.8499999999999943
20
-85.2749999999999915
11
135.8499999999999943
21
-86.4500000000000028
0
LINE
8
BLACK
6
CONTINUOUS
10
135.8499999999999943
20
-86.4500000000000028
11
135.8385820000000024
21
-86.5074029999999965
0
LINE
8
BLACK
6
CONTINUOUS
10
135.8385820000000024
20
-86.5074029999999965
11
135.8060659999999871
21
-86.5560660000000013
0
LINE
8
BLACK
6
CONTINUOUS
10
135.8060659999999871
20
-86.5560660000000013
11
135.7574029999999823
21
-86.5885820000000024
0
LINE
8
BLACK
6
CONTINUOUS
10
135.7574029999999823
20
-86.5885820000000024
11
135.6999999999999886
21
-86.5999999999999943
0
LINE
8
BLACK
6
CONTINUOUS
10
135.6999999999999886
20
-86.5999999999999943
11
135.4000000000000057
21
-86.5999999999999943
0
LINE
8
BLACK
6
CONTINUOUS
10
135.4000000000000057
20
-86.5999999999999943
11
135.3425969999999836
21
-86.5885820000000024
0
LINE
8
BLACK
6
CONTINUOUS
10
135.3425969999999836
20
-86.5885820000000024
11
135.2939340000000072
21
-86.5560660000000013
0
LINE
8
BLACK
6
CONTINUOUS
10
135.2939340000000072
20
-86.5560660000000013
11
135.2614179999999919
21
-86.5074029999999965
0
LINE
8
BLACK
6
CONTINUOUS
10
135.2614179999999919
20
-86.5074029999999965
11
135.25
21
-86.4500000000000028
0
LINE
8
BLACK
6
CONTINUOUS
10
135.25
20
-86.4500000000000028
11
135.25
21
-85.2749999999999915
0
LINE
8
BLACK
6
CONTINUOUS
10
135.25
20
-85.2749999999999915
11
135.2614179999999919
21
-85.2175969999999978
0
LINE
8
BLACK
6
CONTINUOUS
10
135.2614179999999919
20
-85.2175969999999978
11
135.2939340000000072
21
-85.168933999999993
0
LINE
8
BLACK
6
CONTINUOUS
10
135.2939340000000072
20
-85.168933999999993
11
135.3425969999999836
21
-85.1364179999999919
0
LINE
8
BLACK
6
CONTINUOUS
10
135.3425969999999836
20
-85.1364179999999919
11
135.4000000000000057
21
-85.125
0
LINE
8
BLACK
6
CONTINUOUS
10
135.4000000000000057
20
-85.125
11
135.6999999999999886
21
-85.125
0
LINE
8
BLACK
6
CONTINUOUS
10
135.6999999999999886
20
-85.125
11
135.7574029999999823
21
-85.1364179999999919
0
LINE
8
BLACK
6
CONTINUOUS
10
149.4206709999999987
20
-84.7940299999999922
11
149.5017770000000041
21
-84.8482229999999902
0
LINE
8
BLACK
6
CONTINUOUS
10
149.5017770000000041
20
-84.8482229999999902
11
149.5559700000000021
21
-84.9293289999999956
0
LINE
8
BLACK
6
CONTINUOUS
10
149.5559700000000021
20
-84.9293289999999956
11
149.5749999999999886
21
-85.0249999999999915
0
LINE
8
BLACK
6
CONTINUOUS
10
149.5749999999999886
20
-85.0249999999999915
11
149.5749999999999886
21
-85.7000000000000028
0
LINE
8
BLACK
6
CONTINUOUS
10
149.5749999999999886
20
-85.7000000000000028
11
149.5559700000000021
21
-85.7956709999999987
0
LINE
8
BLACK
6
CONTINUOUS
10
149.5559700000000021
20
-85.7956709999999987
11
149.5017770000000041
21
-85.8767769999999899
0
LINE
8
BLACK
6
CONTINUOUS
10
149.5017770000000041
20
-85.8767769999999899
11
149.4206709999999987
21
-85.9309700000000021
0
LINE
8
BLACK
6
CONTINUOUS
10
149.4206709999999987
20
-85.9309700000000021
11
149.3249999999999886
21
-85.9500000000000028
0
LINE
8
BLACK
6
CONTINUOUS
10
149.3249999999999886
20
-85.9500000000000028
11
148.375
21
-85.9500000000000028
0
LINE
8
BLACK
6
CONTINUOUS
10
148.375
20
-85.9500000000000028
11
148.2793289999999899
21
-85.9309700000000021
0
LINE
8
BLACK
6
CONTINUOUS
10
148.2793289999999899
20
-85.9309700000000021
11
148.1982229999999845
21
-85.8767769999999899
0
LINE
8
BLACK
6
CONTINUOUS
10
148.1982229999999845
20
-85.8767769999999899
11
148.1440299999999866
21
-85.7956709999999987
0
LINE
8
BLACK
6
CONTINUOUS
10
148.1440299999999866
20
-85.7956709999999987
11
148.125
21
-85.7000000000000028
0
LINE
8
BLACK
6
CONTINUOUS
10
148.125
20
-85.7000000000000028
11
148.125
21
-85.0249999999999915
0
LINE
8
BLACK
6
CONTINUOUS
10
148.125
20
-85.0249999999999915
11
148.1440299999999866
21
-84.9293289999999956
0
LINE
8
BLACK
6
CONTINUOUS
10
148.1440299999999866
20
-84.9293289999999956
11
148.1982229999999845
21
-84.8482229999999902
0
LINE
8
BLACK
6
CONTINUOUS
10
148.1982229999999845
20
-84.8482229999999902
11
148.2793289999999899
21
-84.7940299999999922
0
LINE
8
BLACK
6
CONTINUOUS
10
148.2793289999999899
20
-84.7940299999999922
11
148.375
21
-84.7749999999999915
0
LINE
8
BLACK
6
CONTINUOUS
10
148.375
20
-84.7749999999999915
11
149.3249999999999886
21
-84.7749999999999915
0
LINE
8
BLACK
6
CONTINUOUS
10
149.3249999999999886
20
-84.7749999999999915
11
149.4206709999999987
21
-84.7940299999999922
0
LINE
8
BLACK
6
CONTINUOUS
10
146.6706709999999987
20
-81.4190299999999922
11
146.7517770000000041
21
-81.4732229999999902
0
LINE
8
BLACK
6
CONTINUOUS
10
146.7517770000000041
20
-81.4732229999999902
11
146.8059700000000021
21
-81.5543289999999956
0
LINE
8
BLACK
6
CONTINUOUS
10
146.8059700000000021
20
-81.5543289999999956
11
146.8249999999999886
21
-81.6499999999999915
0
LINE
8
BLACK
6
CONTINUOUS
10
146.8249999999999886
20
-81.6499999999999915
11
146.8249999999999886
21
-82.3250000000000028
0
LINE
8
BLACK
6
CONTINUOUS
10
146.8249999999999886
20
-82.3250000000000028
11
146.8059700000000021
21
-82.4206709999999987
0
LINE
8
BLACK
6
CONTINUOUS
10
146.8059700000000021
20
-82.4206709999999987
11
146.7517770000000041
21
-82.5017769999999899
0
LINE
8
BLACK
6
CONTINUOUS
10
146.7517770000000041
20
-82.5017769999999899
11
146.6706709999999987
21
-82.5559700000000021
0
LINE
8
BLACK
6
CONTINUOUS
10
146.6706709999999987
20
-82.5559700000000021
11
146.5749999999999886
21
-82.5750000000000028
0
LINE
8
BLACK
6
CONTINUOUS
10
146.5749999999999886
20
-82.5750000000000028
11
145.625
21
-82.5750000000000028
0
LINE
8
BLACK
6
CONTINUOUS
10
145.625
20
-82.5750000000000028
11
145.5293289999999899
21
-82.5559700000000021
0
LINE
8
BLACK
6
CONTINUOUS
10
145.5293289999999899
20
-82.5559700000000021
11
145.4482229999999845
21
-82.5017769999999899
0
LINE
8
BLACK
6
CONTINUOUS
10
145.4482229999999845
20
-82.5017769999999899
11
145.3940299999999866
21
-82.4206709999999987
0
LINE
8
BLACK
6
CONTINUOUS
10
145.3940299999999866
20
-82.4206709999999987
11
145.375
21
-82.3250000000000028
0
LINE
8
BLACK
6
CONTINUOUS
10
145.375
20
-82.3250000000000028
11
145.375
21
-81.6499999999999915
0
LINE
8
BLACK
6
CONTINUOUS
10
145.375
20
-81.6499999999999915
11
145.3940299999999866
21
-81.5543289999999956
0
LINE
8
BLACK
6
CONTINUOUS
10
145.3940299999999866
20
-81.5543289999999956
11
145.4482229999999845
21
-81.4732229999999902
0
LINE
8
BLACK
6
CONTINUOUS
10
145.4482229999999845
20
-81.4732229999999902
11
145.5293289999999899
21
-81.4190299999999922
0
LINE
8
BLACK
6
CONTINUOUS
10
145.5293289999999899
20
-81.4190299999999922
11
145.625
21
-81.3999999999999915
0
LINE
8
BLACK
6
CONTINUOUS
10
145.625
20
-81.3999999999999915
11
146.5749999999999886
21
-81.3999999999999915
0
LINE
8
BLACK
6
CONTINUOUS
10
146.5749999999999886
20
-81.3999999999999915
11
146.6706709999999987
21
-81.4190299999999922
0
LINE
8
BLACK
6
CONTINUOUS
10
143.0456709999999987
20
-81.3690299999999951
11
143.1267770000000041
21
-81.423222999999993
0
LINE
8
BLACK
6
CONTINUOUS
10
143.1267770000000041
20
-81.423222999999993
11
143.1809700000000021
21
-81.5043289999999985
0
LINE
8
BLACK
6
CONTINUOUS
10
143.1809700000000021
20
-81.5043289999999985
11
143.1999999999999886
21
-81.5999999999999943
0
LINE
8
BLACK
6
CONTINUOUS
10
143.1999999999999886
20
-81.5999999999999943
11
143.1999999999999886
21
-82.2999999999999972
0
LINE
8
BLACK
6
CONTINUOUS
10
143.1999999999999886
20
-82.2999999999999972
11
143.1809700000000021
21
-82.395670999999993
0
LINE
8
BLACK
6
CONTINUOUS
10
143.1809700000000021
20
-82.395670999999993
11
143.1267770000000041
21
-82.4767769999999985
0
LINE
8
BLACK
6
CONTINUOUS
10
143.1267770000000041
20
-82.4767769999999985
11
143.0456709999999987
21
-82.5309699999999964
0
LINE
8
BLACK
6
CONTINUOUS
10
143.0456709999999987
20
-82.5309699999999964
11
142.9499999999999886
21
-82.5499999999999972
0
LINE
8
BLACK
6
CONTINUOUS
10
142.9499999999999886
20
-82.5499999999999972
11
142.0499999999999829
21
-82.5499999999999972
0
LINE
8
BLACK
6
CONTINUOUS
10
142.0499999999999829
20
-82.5499999999999972
11
141.9543290000000013
21
-82.5309699999999964
0
LINE
8
BLACK
6
CONTINUOUS
10
141.9543290000000013
20
-82.5309699999999964
11
141.8732229999999959
21
-82.4767769999999985
0
LINE
8
BLACK
6
CONTINUOUS
10
141.8732229999999959
20
-82.4767769999999985
11
141.8190299999999979
21
-82.395670999999993
0
LINE
8
BLACK
6
CONTINUOUS
10
141.8190299999999979
20
-82.395670999999993
11
141.7999999999999829
21
-82.2999999999999972
0
LINE
8
BLACK
6
CONTINUOUS
10
141.7999999999999829
20
-82.2999999999999972
11
141.7999999999999829
21
-81.5999999999999943
0
LINE
8
BLACK
6
CONTINUOUS
10
141.7999999999999829
20
-81.5999999999999943
11
141.8190299999999979
21
-81.5043289999999985
0
LINE
8
BLACK
6
CONTINUOUS
10
141.8190299999999979
20
-81.5043289999999985
11
141.8732229999999959
21
-81.423222999999993
0
LINE
8
BLACK
6
CONTINUOUS
10
141.8732229999999959
20
-81.423222999999993
11
141.9543290000000013
21
-81.3690299999999951
0
LINE
8
BLACK
6
CONTINUOUS
10
141.9543290000000013
20
-81.3690299999999951
11
142.0499999999999829
21
-81.3499999999999943
0
LINE
8
BLACK
6
CONTINUOUS
10
142.0499999999999829
20
-81.3499999999999943
11
142.9499999999999886
21
-81.3499999999999943
0
LINE
8
BLACK
6
CONTINUOUS
10
142.9499999999999886
20
-81.3499999999999943
11
143.0456709999999987
21
-81.3690299999999951
0
LINE
8
BLACK
6
CONTINUOUS
10
139.2956709999999987
20
-81.3190299999999979
11
139.3767770000000041
21
-81.3732229999999959
0
LINE
8
BLACK
6
CONTINUOUS
10
139.3767770000000041
20
-81.3732229999999959
11
139.4309700000000021
21
-81.4543290000000013
0
LINE
8
BLACK
6
CONTINUOUS
10
139.4309700000000021
20
-81.4543290000000013
11
139.4499999999999886
21
-81.5499999999999972
0
LINE
8
BLACK
6
CONTINUOUS
10
139.4499999999999886
20
-81.5499999999999972
11
139.4499999999999886
21
-82.25
0
LINE
8
BLACK
6
CONTINUOUS
10
139.4499999999999886
20
-82.25
11
139.4309700000000021
21
-82.3456709999999958
0
LINE
8
BLACK
6
CONTINUOUS
10
139.4309700000000021
20
-82.3456709999999958
11
139.3767770000000041
21
-82.4267770000000013
0
LINE
8
BLACK
6
CONTINUOUS
10
139.3767770000000041
20
-82.4267770000000013
11
139.2956709999999987
21
-82.4809699999999992
0
LINE
8
BLACK
6
CONTINUOUS
10
139.2956709999999987
20
-82.4809699999999992
11
139.1999999999999886
21
-82.5
0
LINE
8
BLACK
6
CONTINUOUS
10
139.1999999999999886
20
-82.5
11
138.2999999999999829
21
-82.5
0
LINE
8
BLACK
6
CONTINUOUS
10
138.2999999999999829
20
-82.5
11
138.2043290000000013
21
-82.4809699999999992
0
LINE
8
BLACK
6
CONTINUOUS
10
138.2043290000000013
20
-82.4809699999999992
11
138.1232229999999959
21
-82.4267770000000013
0
LINE
8
BLACK
6
CONTINUOUS
10
138.1232229999999959
20
-82.4267770000000013
11
138.0690299999999979
21
-82.3456709999999958
0
LINE
8
BLACK
6
CONTINUOUS
10
138.0690299999999979
20
-82.3456709999999958
11
138.0499999999999829
21
-82.25
0
LINE
8
BLACK
6
CONTINUOUS
10
138.0499999999999829
20
-82.25
11
138.0499999999999829
21
-81.5499999999999972
0
LINE
8
BLACK
6
CONTINUOUS
10
138.0499999999999829
20
-81.5499999999999972
11
138.0690299999999979
21
-81.4543290000000013
0
LINE
8
BLACK
6
CONTINUOUS
10
138.0690299999999979
20
-81.4543290000000013
11
138.1232229999999959
21
-81.3732229999999959
0
LINE
8
BLACK
6
CONTINUOUS
10
138.1232229999999959
20
-81.3732229999999959
11
138.2043290000000013
21
-81.3190299999999979
0
LINE
8
BLACK
6
CONTINUOUS
10
138.2043290000000013
20
-81.3190299999999979
11
138.2999999999999829
21
-81.2999999999999972
0
LINE
8
BLACK
6
CONTINUOUS
10
138.2999999999999829
20
-81.2999999999999972
11
139.1999999999999886
21
-81.2999999999999972
0
LINE
8
BLACK
6
CONTINUOUS
10
139.1999999999999886
20
-81.2999999999999972
11
139.2956709999999987
21
-81.3190299999999979
0
LINE
8
BLACK
6
CONTINUOUS
10
149.395670999999993
20
-81.3190299999999979
11
149.4767769999999985
21
-81.3732229999999959
0
LINE
8
BLACK
6
CONTINUOUS
10
149.4767769999999985
20
-81.3732229999999959
11
149.5309699999999964
21
-81.4543290000000013
0
LINE
8
BLACK
6
CONTINUOUS
10
149.5309699999999964
20
-81.4543290000000013
11
149.5499999999999829
21
-81.5499999999999972
0
LINE
8
BLACK
6
CONTINUOUS
10
149.5499999999999829
20
-81.5499999999999972
11
149.5499999999999829
21
-82.25
0
LINE
8
BLACK
6
CONTINUOUS
10
149.5499999999999829
20
-82.25
11
149.5309699999999964
21
-82.3456709999999958
0
LINE
8
BLACK
6
CONTINUOUS
10
149.5309699999999964
20
-82.3456709999999958
11
149.4767769999999985
21
-82.4267770000000013
0
LINE
8
BLACK
6
CONTINUOUS
10
149.4767769999999985
20
-82.4267770000000013
11
149.395670999999993
21
-82.4809699999999992
0
LINE
8
BLACK
6
CONTINUOUS
10
149.395670999999993
20
-82.4809699999999992
11
149.2999999999999829
21
-82.5
0
LINE
8
BLACK
6
CONTINUOUS
10
149.2999999999999829
20
-82.5
11
148.4000000000000057
21
-82.5
0
LINE
8
BLACK
6
CONTINUOUS
10
148.4000000000000057
20
-82.5
11
148.3043289999999956
21
-82.4809699999999992
0
LINE
8
BLACK
6
CONTINUOUS
10
148.3043289999999956
20
-82.4809699999999992
11
148.2232229999999902
21
-82.4267770000000013
0
LINE
8
BLACK
6
CONTINUOUS
10
148.2232229999999902
20
-82.4267770000000013
11
148.1690299999999922
21
-82.3456709999999958
0
LINE
8
BLACK
6
CONTINUOUS
10
148.1690299999999922
20
-82.3456709999999958
11
148.1500000000000057
21
-82.25
0
LINE
8
BLACK
6
CONTINUOUS
10
148.1500000000000057
20
-82.25
11
148.1500000000000057
21
-81.5499999999999972
0
LINE
8
BLACK
6
CONTINUOUS
10
148.1500000000000057
20
-81.5499999999999972
11
148.1690299999999922
21
-81.4543290000000013
0
LINE
8
BLACK
6
CONTINUOUS
10
148.1690299999999922
20
-81.4543290000000013
11
148.2232229999999902
21
-81.3732229999999959
0
LINE
8
BLACK
6
CONTINUOUS
10
148.2232229999999902
20
-81.3732229999999959
11
148.3043289999999956
21
-81.3190299999999979
0
LINE
8
BLACK
6
CONTINUOUS
10
148.3043289999999956
20
-81.3190299999999979
11
148.4000000000000057
21
-81.2999999999999972
0
LINE
8
BLACK
6
CONTINUOUS
10
148.4000000000000057
20
-81.2999999999999972
11
149.2999999999999829
21
-81.2999999999999972
0
LINE
8
BLACK
6
CONTINUOUS
10
149.2999999999999829
20
-81.2999999999999972
11
149.395670999999993
21
-81.3190299999999979
0
LINE
8
BLACK
6
CONTINUOUS
10
135.5956709999999816
20
-81.2690300000000008
11
135.6767769999999871
21
-81.3232229999999987
0
LINE
8
BLACK
6
CONTINUOUS
10
135.6767769999999871
20
-81.3232229999999987
11
135.730969999999985
21
-81.4043289999999899
0
LINE
8
BLACK
6
CONTINUOUS
10
135.730969999999985
20
-81.4043289999999899
11
135.75
21
-81.5
0
LINE
8
BLACK
6
CONTINUOUS
10
135.75
20
-81.5
11
135.75
21
-82.2000000000000028
0
LINE
8
BLACK
6
CONTINUOUS
10
135.75
20
-82.2000000000000028
11
135.730969999999985
21
-82.2956709999999987
0
LINE
8
BLACK
6
CONTINUOUS
10
135.730969999999985
20
-82.2956709999999987
11
135.6767769999999871
21
-82.3767769999999899
0
LINE
8
BLACK
6
CONTINUOUS
10
135.6767769999999871
20
-82.3767769999999899
11
135.5956709999999816
21
-82.4309700000000021
0
LINE
8
BLACK
6
CONTINUOUS
10
135.5956709999999816
20
-82.4309700000000021
11
135.5
21
-82.4500000000000028
0
LINE
8
BLACK
6
CONTINUOUS
10
135.5
20
-82.4500000000000028
11
134.5999999999999943
21
-82.4500000000000028
0
LINE
8
BLACK
6
CONTINUOUS
10
134.5999999999999943
20
-82.4500000000000028
11
134.5043289999999843
21
-82.4309700000000021
0
LINE
8
BLACK
6
CONTINUOUS
10
134.5043289999999843
20
-82.4309700000000021
11
134.4232230000000072
21
-82.3767769999999899
0
LINE
8
BLACK
6
CONTINUOUS
10
134.4232230000000072
20
-82.3767769999999899
11
134.3690299999999809
21
-82.2956709999999987
0
LINE
8
BLACK
6
CONTINUOUS
10
134.3690299999999809
20
-82.2956709999999987
11
134.3499999999999943
21
-82.2000000000000028
0
LINE
8
BLACK
6
CONTINUOUS
10
134.3499999999999943
20
-82.2000000000000028
11
134.3499999999999943
21
-81.5
0
LINE
8
BLACK
6
CONTINUOUS
10
134.3499999999999943
20
-81.5
11
134.3690299999999809
21
-81.4043289999999899
0
LINE
8
BLACK
6
CONTINUOUS
10
134.3690299999999809
20
-81.4043289999999899
11
134.4232230000000072
21
-81.3232229999999987
0
LINE
8
BLACK
6
CONTINUOUS
10
134.4232230000000072
20
-81.3232229999999987
11
134.5043289999999843
21
-81.2690300000000008
0
LINE
8
BLACK
6
CONTINUOUS
10
134.5043289999999843
20
-81.2690300000000008
11
134.5999999999999943
21
-81.25
0
LINE
8
BLACK
6
CONTINUOUS
10
134.5999999999999943
20
-81.25
11
135.5
21
-81.25
0
LINE
8
BLACK
6
CONTINUOUS
10
135.5
20
-81.25
11
135.5956709999999816
21
-81.2690300000000008
0
LINE
8
BLACK
6
CONTINUOUS
10
143.0456709999999987
20
-79.3690299999999951
11
143.1267770000000041
21
-79.423222999999993
0
LINE
8
BLACK
6
CONTINUOUS
10
143.1267770000000041
20
-79.423222999999993
11
143.1809700000000021
21
-79.5043289999999985
0
LINE
8
BLACK
6
CONTINUOUS
10
143.1809700000000021
20
-79.5043289999999985
11
143.1999999999999886
21
-79.5999999999999943
0
LINE
8
BLACK
6
CONTINUOUS
10
143.1999999999999886
20
-79.5999999999999943
11
143.1999999999999886
21
-80.2999999999999972
0
LINE
8
BLACK
6
CONTINUOUS
10
143.1999999999999886
20
-80.2999999999999972
11
143.1809700000000021
21
-80.395670999999993
0
LINE
8
BLACK
6
CONTINUOUS
10
143.1809700000000021
20
-80.395670999999993
11
143.1267770000000041
21
-80.4767769999999985
0
LINE
8
BLACK
6
CONTINUOUS
10
143.1267770000000041
20
-80.4767769999999985
11
143.0456709999999987
21
-80.5309699999999964
0
LINE
8
BLACK
6
CONTINUOUS
10
143.0456709999999987
20
-80.5309699999999964
11
142.9499999999999886
21
-80.5499999999999972
0
LINE
8
BLACK
6
CONTINUOUS
10
142.9499999999999886
20
-80.5499999999999972
11
142.0499999999999829
21
-80.5499999999999972
0
LINE
8
BLACK
6
CONTINUOUS
10
142.0499999999999829
20
-80.5499999999999972
11
141.9543290000000013
21
-80.5309699999999964
0
LINE
8
BLACK
6
CONTINUOUS
10
141.9543290000000013
20
-80.5309699999999964
11
141.8732229999999959
21
-80.4767769999999985
0
LINE
8
BLACK
6
CONTINUOUS
10
141.8732229999999959
20
-80.4767769999999985
11
141.8190299999999979
21
-80.395670999999993
0
LINE
8
BLACK
6
CONTINUOUS
10
141.8190299999999979
20
-80.395670999999993
11
141.7999999999999829
21
-80.2999999999999972
0
LINE
8
BLACK
6
CONTINUOUS
10
141.7999999999999829
20
-80.2999999999999972
11
141.7999999999999829
21
-79.5999999999999943
0
LINE
8
BLACK
6
CONTINUOUS
10
141.7999999999999829
20
-79.5999999999999943
11
141.8190299999999979
21
-79.5043289999999985
0
LINE
8
BLACK
6
CONTINUOUS
10
141.8190299999999979
20
-79.5043289999999985
11
141.8732229999999959
21
-79.423222999999993
0
LINE
8
BLACK
6
CONTINUOUS
10
141.8732229999999959
20
-79.423222999999993
11
141.9543290000000013
21
-79.3690299999999951
0
LINE
8
BLACK
6
CONTINUOUS
10
141.9543290000000013
20
-79.3690299999999951
11
142.0499999999999829
21
-79.3499999999999943
0
LINE
8
BLACK
6
CONTINUOUS
10
142.0499999999999829
20
-79.3499999999999943
11
142.9499999999999886
21
-79.3499999999999943
0
LINE
8
BLACK
6
CONTINUOUS
10
142.9499999999999886
20
-79.3499999999999943
11
143.0456709999999987
21
-79.3690299999999951
0
LINE
8
BLACK
6
CONTINUOUS
10
139.2956709999999987
20
-79.3190299999999979
11
139.3767770000000041
21
-79.3732229999999959
0
LINE
8
BLACK
6
CONTINUOUS
10
139.3767770000000041
20
-79.3732229999999959
11
139.4309700000000021
21
-79.4543290000000013
0
LINE
8
BLACK
6
CONTINUOUS
10
139.4309700000000021
20
-79.4543290000000013
11
139.4499999999999886
21
-79.5499999999999972
0
LINE
8
BLACK
6
CONTINUOUS
10
139.4499999999999886
20
-79.5499999999999972
11
139.4499999999999886
21
-80.25
0
LINE
8
BLACK
6
CONTINUOUS
10
139.4499999999999886
20
-80.25
11
139.4309700000000021
21
-80.3456709999999958
0
LINE
8
BLACK
6
CONTINUOUS
10
139.4309700000000021
20
-80.3456709999999958
11
139.3767770000000041
21
-80.4267770000000013
0
LINE
8
BLACK
6
CONTINUOUS
10
139.3767770000000041
20
-80.4267770000000013
11
139.2956709999999987
21
-80.4809699999999992
0
LINE
8
BLACK
6
CONTINUOUS
10
139.2956709999999987
20
-80.4809699999999992
11
139.1999999999999886
21
-80.5
0
LINE
8
BLACK
6
CONTINUOUS
10
139.1999999999999886
20
-80.5
11
138.2999999999999829
21
-80.5
0
LINE
8
BLACK
6
CONTINUOUS
10
138.2999999999999829
20
-80.5
11
138.2043290000000013
21
-80.4809699999999992
0
LINE
8
BLACK
6
CONTINUOUS
10
138.2043290000000013
20
-80.4809699999999992
11
138.1232229999999959
21
-80.4267770000000013
0
LINE
8
BLACK
6
CONTINUOUS
10
138.1232229999999959
20
-80.4267770000000013
11
138.0690299999999979
21
-80.3456709999999958
0
LINE
8
BLACK
6
CONTINUOUS
10
138.0690299999999979
20
-80.3456709999999958
11
138.0499999999999829
21
-80.25
0
LINE
8
BLACK
6
CONTINUOUS
10
138.0499999999999829
20
-80.25
11
138.0499999999999829
21
-79.5499999999999972
0
LINE
8
BLACK
6
CONTINUOUS
10
138.0499999999999829
20
-79.5499999999999972
11
138.0690299999999979
21
-79.4543290000000013
0
LINE
8
BLACK
6
CONTINUOUS
10
138.0690299999999979
20
-79.4543290000000013
11
138.1232229999999959
21
-79.3732229999999959
0
LINE
8
BLACK
6
CONTINUOUS
10
138.1232229999999959
20
-79.3732229999999959
11
138.2043290000000013
21
-79.3190299999999979
0
LINE
8
BLACK
6
CONTINUOUS
10
138.2043290000000013
20
-79.3190299999999979
11
138.2999999999999829
21
-79.2999999999999972
0
LINE
8
BLACK
6
CONTINUOUS
10
138.2999999999999829
20
-79.2999999999999972
11
139.1999999999999886
21
-79.2999999999999972
0
LINE
8
BLACK
6
CONTINUOUS
10
139.1999999999999886
20
-79.2999999999999972
11
139.2956709999999987
21
-79.3190299999999979
0
LINE
8
BLACK
6
CONTINUOUS
10
146.6706709999999987
20
-79.3440299999999894
11
146.7517770000000041
21
-79.3982230000000015
0
LINE
8
BLACK
6
CONTINUOUS
10
146.7517770000000041
20
-79.3982230000000015
11
146.8059700000000021
21
-79.4793289999999928
0
LINE
8
BLACK
6
CONTINUOUS
10
146.8059700000000021
20
-79.4793289999999928
11
146.8249999999999886
21
-79.5750000000000028
0
LINE
8
BLACK
6
CONTINUOUS
10
146.8249999999999886
20
-79.5750000000000028
11
146.8249999999999886
21
-80.25
0
LINE
8
BLACK
6
CONTINUOUS
10
146.8249999999999886
20
-80.25
11
146.8059700000000021
21
-80.3456709999999958
0
LINE
8
BLACK
6
CONTINUOUS
10
146.8059700000000021
20
-80.3456709999999958
11
146.7517770000000041
21
-80.4267770000000013
0
LINE
8
BLACK
6
CONTINUOUS
10
146.7517770000000041
20
-80.4267770000000013
11
146.6706709999999987
21
-80.4809699999999992
0
LINE
8
BLACK
6
CONTINUOUS
10
146.6706709999999987
20
-80.4809699999999992
11
146.5749999999999886
21
-80.5
0
LINE
8
BLACK
6
CONTINUOUS
10
146.5749999999999886
20
-80.5
11
145.625
21
-80.5
0
LINE
8
BLACK
6
CONTINUOUS
10
145.625
20
-80.5
11
145.5293289999999899
21
-80.4809699999999992
0
LINE
8
BLACK
6
CONTINUOUS
10
145.5293289999999899
20
-80.4809699999999992
11
145.4482229999999845
21
-80.4267770000000013
0
LINE
8
BLACK
6
CONTINUOUS
10
145.4482229999999845
20
-80.4267770000000013
11
145.3940299999999866
21
-80.3456709999999958
0
LINE
8
BLACK
6
CONTINUOUS
10
145.3940299999999866
20
-80.3456709999999958
11
145.375
21
-80.25
0
LINE
8
BLACK
6
CONTINUOUS
10
145.375
20
-80.25
11
145.375
21
-79.5750000000000028
0
LINE
8
BLACK
6
CONTINUOUS
10
145.375
20
-79.5750000000000028
11
145.3940299999999866
21
-79.4793289999999928
0
LINE
8
BLACK
6
CONTINUOUS
10
145.3940299999999866
20
-79.4793289999999928
11
145.4482229999999845
21
-79.3982230000000015
0
LINE
8
BLACK
6
CONTINUOUS
10
145.4482229999999845
20
-79.3982230000000015
11
145.5293289999999899
21
-79.3440299999999894
0
LINE
8
BLACK
6
CONTINUOUS
10
145.5293289999999899
20
-79.3440299999999894
11
145.625
21
-79.3250000000000028
0
LINE
8
BLACK
6
CONTINUOUS
10
145.625
20
-79.3250000000000028
11
146.5749999999999886
21
-79.3250000000000028
0
LINE
8
BLACK
6
CONTINUOUS
10
146.5749999999999886
20
-79.3250000000000028
11
146.6706709999999987
21
-79.3440299999999894
0
LINE
8
BLACK
6
CONTINUOUS
10
149.395670999999993
20
-79.3190299999999979
11
149.4767769999999985
21
-79.3732229999999959
0
LINE
8
BLACK
6
CONTINUOUS
10
149.4767769999999985
20
-79.3732229999999959
11
149.5309699999999964
21
-79.4543290000000013
0
LINE
8
BLACK
6
CONTINUOUS
10
149.5309699999999964
20
-79.4543290000000013
11
149.5499999999999829
21
-79.5499999999999972
0
LINE
8
BLACK
6
CONTINUOUS
10
149.5499999999999829
20
-79.5499999999999972
11
149.5499999999999829
21
-80.25
0
LINE
8
BLACK
6
CONTINUOUS
10
149.5499999999999829
20
-80.25
11
149.5309699999999964
21
-80.3456709999999958
0
LINE
8
BLACK
6
CONTINUOUS
10
149.5309699999999964
20
-80.3456709999999958
11
149.4767769999999985
21
-80.4267770000000013
0
LINE
8
BLACK
6
CONTINUOUS
10
149.4767769999999985
20
-80.4267770000000013
11
149.395670999999993
21
-80.4809699999999992
0
LINE
8
BLACK
6
CONTINUOUS
10
149.395670999999993
20
-80.4809699999999992
11
149.2999999999999829
21
-80.5
0
LINE
8
BLACK
6
CONTINUOUS
10
149.2999999999999829
20
-80.5
11
148.4000000000000057
21
-80.5
0
LINE
8
BLACK
6
CONTINUOUS
10
148.4000000000000057
20
-80.5
11
148.3043289999999956
21
-80.4809699999999992
0
LINE
8
BLACK
6
CONTINUOUS
10
148.3043289999999956
20
-80.4809699999999992
11
148.2232229999999902
21
-80.4267770000000013
0
LINE
8
BLACK
6
CONTINUOUS
10
148.2232229999999902
20
-80.4267770000000013
11
148.1690299999999922
21
-80.3456709999999958
0
LINE
8
BLACK
6
CONTINUOUS
10
148.1690299999999922
20
-80.3456709999999958
11
148.1500000000000057
21
-80.25
0
LINE
8
BLACK
6
CONTINUOUS
10
148.1500000000000057
20
-80.25
11
148.1500000000000057
21
-79.5499999999999972
0
LINE
8
BLACK
6
CONTINUOUS
10
148.1500000000000057
20
-79.5499999999999972
11
148.1690299999999922
21
-79.4543290000000013
0
LINE
8
BLACK
6
CONTINUOUS
10
148.1690299999999922
20
-79.4543290000000013
11
148.2232229999999902
21
-79.3732229999999959
0
LINE
8
BLACK
6
CONTINUOUS
10
148.2232229999999902
20
-79.3732229999999959
11
148.3043289999999956
21
-79.3190299999999979
0
LINE
8
BLACK
6
CONTINUOUS
10
148.3043289999999956
20
-79.3190299999999979
11
148.4000000000000057
21
-79.2999999999999972
0
LINE
8
BLACK
6
CONTINUOUS
10
148.4000000000000057
20
-79.2999999999999972
11
149.2999999999999829
21
-79.2999999999999972
0
LINE
8
BLACK
6
CONTINUOUS
10
149.2999999999999829
20
-79.2999999999999972
11
149.395670999999993
21
-79.3190299999999979
0
LINE
8
BLACK
6
CONTINUOUS
10
135.5956709999999816
20
-79.2690300000000008
11
135.6767769999999871
21
-79.3232229999999987
0
LINE
8
BLACK
6
CONTINUOUS
10
135.6767769999999871
20
-79.3232229999999987
11
135.730969999999985
21
-79.4043289999999899
0
LINE
8
BLACK
6
CONTINUOUS
10
135.730969999999985
20
-79.4043289999999899
11
135.75
21
-79.5
0
LINE
8
BLACK
6
CONTINUOUS
10
135.75
20
-79.5
11
135.75
21
-80.2000000000000028
0
LINE
8
BLACK
6
CONTINUOUS
10
135.75
20
-80.2000000000000028
11
135.730969999999985
21
-80.2956709999999987
0
LINE
8
BLACK
6
CONTINUOUS
10
135.730969999999985
20
-80.2956709999999987
11
135.6767769999999871
21
-80.3767769999999899
0
LINE
8
BLACK
6
CONTINUOUS
10
135.6767769999999871
20
-80.3767769999999899
11
135.5956709999999816
21
-80.4309700000000021
0
LINE
8
BLACK
6
CONTINUOUS
10
135.5956709999999816
20
-80.4309700000000021
11
135.5
21
-80.4500000000000028
0
LINE
8
BLACK
6
CONTINUOUS
10
135.5
20
-80.4500000000000028
11
134.5999999999999943
21
-80.4500000000000028
0
LINE
8
BLACK
6
CONTINUOUS
10
134.5999999999999943
20
-80.4500000000000028
11
134.5043289999999843
21
-80.4309700000000021
0
LINE
8
BLACK
6
CONTINUOUS
10
134.5043289999999843
20
-80.4309700000000021
11
134.4232230000000072
21
-80.3767769999999899
0
LINE
8
BLACK
6
CONTINUOUS
10
134.4232230000000072
20
-80.3767769999999899
11
134.3690299999999809
21
-80.2956709999999987
0
LINE
8
BLACK
6
CONTINUOUS
10
134.3690299999999809
20
-80.2956709999999987
11
134.3499999999999943
21
-80.2000000000000028
0
LINE
8
BLACK
6
CONTINUOUS
10
134.3499999999999943
20
-80.2000000000000028
11
134.3499999999999943
21
-79.5
0
LINE
8
BLACK
6
CONTINUOUS
10
134.3499999999999943
20
-79.5
11
134.3690299999999809
21
-79.4043289999999899
0
LINE
8
BLACK
6
CONTINUOUS
10
134.3690299999999809
20
-79.4043289999999899
11
134.4232230000000072
21
-79.3232229999999987
0
LINE
8
BLACK
6
CONTINUOUS
10
134.4232230000000072
20
-79.3232229999999987
11
134.5043289999999843
21
-79.2690300000000008
0
LINE
8
BLACK
6
CONTINUOUS
10
134.5043289999999843
20
-79.2690300000000008
11
134.5999999999999943
21
-79.25
0
LINE
8
BLACK
6
CONTINUOUS
10
134.5999999999999943
20
-79.25
11
135.5
21
-79.25
0
LINE
8
BLACK
6
CONTINUOUS
10
135.5
20
-79.25
11
135.5956709999999816
21
-79.2690300000000008
  0
ENDSEC
  0
EOF
